<?xml version="1.0" encoding="utf-8"?>
<svg viewBox="0 0 500 500" xmlns="http://www.w3.org/2000/svg">
  <g style="" transform="matrix(0.942169, 0, 0, 0.942169, 19.386507, 19.164848)">
    <circle style="fill: rgb(248, 210, 210);" cx="247.991" cy="249.66" r="224.841"/>
    <path d="M 209.222 256.885 C 209.222 272.465 206.535 286.835 201.162 299.995 C 195.789 313.162 188.222 324.552 178.462 334.165 C 168.702 343.778 156.942 351.272 143.182 356.645 C 129.429 362.018 114.172 364.705 97.412 364.705 L 56.432 364.705 L 13.702 364.705 L 13.702 149.215 L 97.412 149.215 C 114.172 149.215 129.429 151.925 143.182 157.345 C 156.942 162.772 168.702 170.265 178.462 179.825 C 188.222 189.392 195.789 200.758 201.162 213.925 C 206.535 227.085 209.222 241.405 209.222 256.885 Z M 158.052 256.885 C 158.052 246.238 156.672 236.625 153.912 228.045 C 151.152 219.465 147.182 212.195 142.002 206.235 C 136.829 200.268 130.495 195.682 123.002 192.475 C 115.509 189.268 106.979 187.665 97.412 187.665 L 63.982 187.665 L 63.982 326.255 L 97.412 326.255 C 106.979 326.255 115.509 324.652 123.002 321.445 C 130.495 318.238 136.829 313.652 142.002 307.685 C 147.182 301.725 151.152 294.455 153.912 285.875 C 156.672 277.295 158.052 267.632 158.052 256.885 Z M 343.363 266.205 C 345.337 269.952 347.237 273.845 349.063 277.885 C 350.883 281.932 357.76 281.758 359.633 277.665 C 361.507 273.572 363.43 269.602 365.403 265.755 L 420.723 156.905 C 421.703 155.032 429.967 149.465 431.593 149.365 C 433.22 149.265 475.443 149.215 475.443 149.215 L 475.443 364.705 C 477.655 364.933 470.44 372.943 455.42 372.982 C 441.191 372.492 429.245 368.5 431.363 364.705 L 431.363 240.765 C 431.363 234.752 431.66 228.245 432.253 221.245 C 432.253 221.245 416.532 251.233 400.627 281.054 C 385.139 310.096 369.477 338.98 367.993 339.855 C 364.987 341.628 343.64 341.628 340.633 339.855 C 337.627 338.082 276.073 221.095 276.073 221.095 C 276.467 224.548 276.763 227.975 276.963 231.375 C 277.157 234.775 277.253 237.905 277.253 240.765 L 277.253 364.705 C 279.432 364.666 267.319 358.383 254.534 358.613 C 243.202 358.495 230.27 364.675 233.183 364.705 L 233.183 149.215 L 271.343 149.215 C 273.51 149.215 286.917 155.032 287.903 156.905 L 343.363 266.205 Z" style="white-space: pre; fill: rgb(51, 51, 51);"/>
    <path style="fill: none; stroke-width: 15px; stroke: rgb(51, 51, 51); stroke-linecap: round;" d="M 96.409 353.839 C 82.914 354.015 99.101 447.645 153.837 446.931 C 219.684 439.45 215.298 343.636 279.824 379.986 C 334.119 410.963 303.105 484.03 251.589 485.807"/>
    <path style="fill: rgb(216, 216, 216); stroke: rgb(0, 0, 0);" d="M 667.795 467.177"/>
  </g>
</svg>