<?xml version="1.0" encoding="UTF-8" standalone="no"?>
<!-- Created with matplotlib (http://matplotlib.org/) -->

<svg
   xmlns:dc="http://purl.org/dc/elements/1.1/"
   xmlns:cc="http://creativecommons.org/ns#"
   xmlns:rdf="http://www.w3.org/1999/02/22-rdf-syntax-ns#"
   xmlns:svg="http://www.w3.org/2000/svg"
   xmlns="http://www.w3.org/2000/svg"
   xmlns:sodipodi="http://sodipodi.sourceforge.net/DTD/sodipodi-0.dtd"
   xmlns:inkscape="http://www.inkscape.org/namespaces/inkscape"
   height="200pt"
   version="1.1"
   viewBox="0 0 200 200"
   width="200pt"
   id="svg1473"
   sodipodi:docname="griddata.svg"
   inkscape:version="0.92.2 (5c3e80d, 2017-08-06)">
  <metadata
     id="metadata1477">
    <rdf:RDF>
      <cc:Work
         rdf:about="">
        <dc:format>image/svg+xml</dc:format>
        <dc:type
           rdf:resource="http://purl.org/dc/dcmitype/StillImage" />
        <dc:title></dc:title>
      </cc:Work>
    </rdf:RDF>
  </metadata>
  <sodipodi:namedview
     pagecolor="#ffffff"
     bordercolor="#666666"
     borderopacity="1"
     objecttolerance="10"
     gridtolerance="10"
     guidetolerance="10"
     inkscape:pageopacity="0"
     inkscape:pageshadow="2"
     inkscape:window-width="1920"
     inkscape:window-height="1001"
     id="namedview1475"
     showgrid="false"
     fit-margin-top="0"
     fit-margin-left="0"
     fit-margin-right="0"
     fit-margin-bottom="0"
     inkscape:zoom="1.2436523"
     inkscape:cx="134.29001"
     inkscape:cy="150.5875"
     inkscape:window-x="-9"
     inkscape:window-y="-9"
     inkscape:window-maximized="1"
     inkscape:current-layer="figure_1" />
  <defs
     id="defs4"
     style="stroke-linecap:butt;stroke-linejoin:round">
    <style
       type="text/css"
       id="style2">
*{stroke-linecap:butt;stroke-linejoin:round;}
  </style>
  </defs>
  <g
     id="figure_1"
     style="stroke-linecap:butt;stroke-linejoin:round"
     transform="translate(-482.11406,-38.940636)">
    <g
       id="patch_1"
       style="stroke-linecap:butt;stroke-linejoin:round" />
    <g
       id="axes_3"
       style="stroke-width:1.15966702;stroke-linecap:butt;stroke-linejoin:round"
       transform="matrix(0.86231653,0,0,0.86231653,70.879157,31.398183)">
      <g
         id="patch_12"
         style="stroke-width:1.15966702;stroke-linecap:butt;stroke-linejoin:round">
        <path
           d="M 501.35,224.2 H 702.8875 V 14.8 H 501.35 Z"
           style="fill:#ffffff;stroke-width:1.15966702;stroke-linecap:butt;stroke-linejoin:round"
           id="path1154"
           inkscape:connector-curvature="0" />
      </g>
      <g
         id="PathCollection_2"
         style="stroke-width:1.15966702;stroke-linecap:butt;stroke-linejoin:round">
        <path
           clip-path="url(#pa0bc4dfd76)"
           d="m 596.81513,79.588795 7.57771,1.337521 3.02953,0.934633 10.60723,4.41133 10.60724,3.877712 1.92517,1.797377 -1.92517,4.067754 -7.12921,6.953298 -3.47803,1.37548 -10.60723,2.75065 -10.60724,-3.17114 -4.88048,-0.95499 -5.72676,-1.87997 -10.29557,-9.141082 10.29557,-7.39424 6.71092,-3.626812 z"
           style="fill:#471365;stroke-width:1.15966702;stroke-linecap:butt;stroke-linejoin:round"
           id="path1157"
           inkscape:connector-curvature="0" />
        <path
           clip-path="url(#pa0bc4dfd76)"
           d="m 586.20789,189.22647 10.60724,-3.95483 10.60724,0.51476 10.60723,1.72948 5.45982,3.62096 5.14742,8.0207 1.96238,3.00035 -1.96238,1.72156 -10.60724,4.70599 -10.60723,4.24903 -1.52249,0.34448 h -9.08475 -3.53798 l -7.06926,-2.63888 -8.7427,-8.38218 5.49806,-11.02105 z"
           style="fill:#471365;stroke-width:1.15966702;stroke-linecap:butt;stroke-linejoin:round"
           id="path1159"
           inkscape:connector-curvature="0" />
      </g>
      <g
         id="PathCollection_3"
         style="stroke-width:1.15966702;stroke-linecap:butt;stroke-linejoin:round">
        <path
           clip-path="url(#pa0bc4dfd76)"
           d="m 575.60066,80.427713 10.60723,-5.333307 10.60724,-3.297376 10.60724,1.508923 10.60723,3.308145 10.60724,2.848413 4.31139,1.463805 6.29585,5.259839 3.66672,5.761213 -1.95227,11.021052 -1.71445,1.25317 -10.60724,5.76043 -9.41945,4.00745 -1.18779,0.36591 -10.60723,1.59407 -7.33646,-1.95998 -3.27078,-1.02679 -10.60724,-1.45697 -10.60723,-5.42342 -3.5975,-3.11387 -5.81425,-11.021052 7.86491,-11.021052 z m 17.31815,0.498603 -6.71092,3.626812 -10.29557,7.39424 10.29557,9.141082 5.72676,1.87997 4.88048,0.95499 10.60724,3.17114 10.60723,-2.75065 3.47803,-1.37548 7.12921,-6.953298 1.92517,-4.067754 -1.92517,-1.797377 -10.60724,-3.877712 -10.60723,-4.41133 -3.02953,-0.934633 -7.57771,-1.337521 z"
           style="fill:#463480;stroke-width:1.15966702;stroke-linecap:butt;stroke-linejoin:round"
           id="path1162"
           inkscape:connector-curvature="0" />
        <path
           clip-path="url(#pa0bc4dfd76)"
           d="m 586.20789,179.92805 10.60724,-3.01482 10.60724,0.0319 10.60723,1.52282 5.12077,1.64779 5.48647,3.05473 8.69077,7.96632 1.91647,2.81212 5.53779,8.20893 -5.53779,5.29311 -6.50817,5.72795 h -4.09907 -10.60724 -10.60723 -1.52249 l 1.52249,-0.34448 10.60723,-4.24903 10.60724,-4.70599 1.96238,-1.72156 -1.96238,-3.00035 -5.14742,-8.0207 -5.45982,-3.62096 -10.60723,-1.72948 -10.60724,-0.51476 -10.60724,3.95483 -3.24464,1.91037 -5.49806,11.02105 8.7427,8.38218 7.06926,2.63888 h -7.06926 -10.60723 -3.05483 l -7.55241,-9.93509 -0.59159,-1.08597 0.59159,-1.19886 4.71003,-9.82219 5.89721,-6.62171 9.94833,-4.39934 z"
           style="fill:#463480;stroke-width:1.15966702;stroke-linecap:butt;stroke-linejoin:round"
           id="path1164"
           inkscape:connector-curvature="0" />
      </g>
      <g
         id="PathCollection_4"
         style="stroke-width:1.15966702;stroke-linecap:butt;stroke-linejoin:round">
        <path
           clip-path="url(#pa0bc4dfd76)"
           d="m 586.20789,67.00659 10.60724,-2.669875 10.60724,0.678537 10.60723,2.988576 7.30445,1.901435 3.30279,0.853327 10.60724,3.982081 10.60724,5.952585 0.30986,0.23306 7.39706,11.021052 -4.85155,11.021052 -2.85537,1.48159 -10.60724,7.73762 -2.95067,1.80184 -7.65657,4.23916 -10.60724,3.15162 -10.60723,2.2617 -10.60724,-1.46675 -10.60724,-1.5924 -10.60723,-2.72622 -7.04311,-3.86711 -3.56413,-3.11658 -6.68394,-7.90447 -1.05749,-11.021052 0.78701,-11.021052 6.95442,-5.158402 10.60724,-3.850746 4.11285,-2.011905 z m -12.15407,13.919726 -7.86491,11.021052 5.81425,11.021052 3.5975,3.11387 10.60723,5.42342 10.60724,1.45697 3.27078,1.02679 7.33646,1.95998 10.60723,-1.59407 1.18779,-0.36591 9.41945,-4.00745 10.60724,-5.76043 1.71445,-1.25317 1.95227,-11.021052 -3.66672,-5.761213 -6.29585,-5.259839 -4.31139,-1.463805 -10.60724,-2.848413 -10.60723,-3.308145 -10.60724,-1.508923 -10.60724,3.297376 -10.60723,5.333307 z"
           style="fill:#3b528b;stroke-width:1.15966702;stroke-linecap:butt;stroke-linejoin:round"
           id="path1167"
           inkscape:connector-curvature="0" />
        <path
           clip-path="url(#pa0bc4dfd76)"
           d="m 575.60066,175.44697 10.60723,-3.48767 10.60724,-1.96878 10.60724,0.41975 10.60723,0.92195 10.60724,3.24187 10.60724,4.80648 1.39585,0.73522 9.09821,11.02105 0.11318,0.16207 8.79272,10.85898 -8.79272,8.50868 -2.64631,2.51238 h -7.96093 -6.50817 l 6.50817,-5.72795 5.53779,-5.29311 -5.53779,-8.20893 -1.91647,-2.81212 -8.69077,-7.96632 -5.48647,-3.05473 -5.12077,-1.64779 -10.60723,-1.52282 -10.60724,-0.0319 -10.60724,3.01482 -0.6589,0.18774 -9.94833,4.39934 -5.89721,6.62171 -4.71003,9.82219 -0.59159,1.19886 0.59159,1.08597 7.55241,9.93509 h -7.55241 -7.72963 l -2.87761,-6.89589 -1.94839,-4.12517 1.94839,-1.73531 5.52673,-9.28574 5.08051,-8.97569 1.78585,-2.04536 z"
           style="fill:#3b528b;stroke-width:1.15966702;stroke-linecap:butt;stroke-linejoin:round"
           id="path1169"
           inkscape:connector-curvature="0" />
      </g>
      <g
         id="PathCollection_5"
         style="stroke-width:1.15966702;stroke-linecap:butt;stroke-linejoin:round">
        <path
           clip-path="url(#pa0bc4dfd76)"
           d="M 575.60066,14.8 585.79233,25.389275 575.60066,19.412125 567.38956,14.8 Z"
           style="fill:#2f6c8e;stroke-width:1.15966702;stroke-linecap:butt;stroke-linejoin:round"
           id="path1172"
           inkscape:connector-curvature="0" />
        <path
           clip-path="url(#pa0bc4dfd76)"
           d="m 596.81513,25.821053 h 10.60724 0.15088 l -0.15088,0.202772 -10.60724,0.434566 -7.42297,-0.637338 z"
           style="fill:#2f6c8e;stroke-width:1.15966702;stroke-linecap:butt;stroke-linejoin:round"
           id="path1174"
           inkscape:connector-curvature="0" />
        <path
           clip-path="url(#pa0bc4dfd76)"
           d="m 596.81513,55.900395 10.60724,-3.084682 9.229,6.068498 1.37823,0.350103 10.60724,2.671384 10.60724,3.785742 6.45583,4.213823 4.15141,2.251968 10.60723,7.90371 1.64054,0.865375 8.9667,8.743031 2.1103,2.278021 -2.1103,3.772187 -3.56786,7.248865 -7.03938,4.23244 -10.60723,5.30049 -2.04512,1.48812 -8.56212,5.98892 -9.69729,5.03214 -0.90995,0.6455 -10.60724,3.40653 -10.60723,2.37133 -10.60724,-0.58593 -10.60724,-1.78625 -10.60723,-2.75985 -1.97666,-1.29133 -8.63058,-5.33791 -10.60724,-5.49433 -0.35152,-0.18882 -10.25571,-10.90529 -0.21758,-0.11576 -4.07548,-11.021052 2.96004,-11.021052 1.33302,-1.015111 10.60723,-8.681341 2.76734,-1.324601 7.8399,-2.731757 10.60724,-3.940679 10.60723,-3.991474 1.60182,-0.357142 z m -17.10162,14.004868 -4.11285,2.011905 -10.60724,3.850746 -6.95442,5.158402 -0.78701,11.021052 1.05749,11.021052 6.68394,7.90447 3.56413,3.11658 7.04311,3.86711 10.60723,2.72622 10.60724,1.5924 10.60724,1.46675 10.60723,-2.2617 10.60724,-3.15162 7.65657,-4.23916 2.95067,-1.80184 10.60724,-7.73762 2.85537,-1.48159 4.85155,-11.021052 -7.39706,-11.021052 -0.30986,-0.23306 -10.60724,-5.952585 -10.60724,-3.982081 -3.30279,-0.853327 -7.30445,-1.901435 -10.60723,-2.988576 -10.60724,-0.678537 -10.60724,2.669875 z"
           style="fill:#2f6c8e;stroke-width:1.15966702;stroke-linecap:butt;stroke-linejoin:round"
           id="path1176"
           inkscape:connector-curvature="0" />
        <path
           clip-path="url(#pa0bc4dfd76)"
           d="m 575.60066,167.94764 10.60723,-5.25734 10.60724,-2.64828 10.60724,0.8151 10.60723,1.14262 10.60724,5.06741 3.70298,2.02759 6.90426,3.32224 10.60724,5.51081 3.78014,2.188 6.82709,7.81583 4.74677,3.20522 5.86047,7.38963 1.4982,3.63142 -1.4982,2.0152 -9.9879,9.00586 h -0.61934 -10.60723 -2.64631 l 2.64631,-2.51238 8.79272,-8.50868 -8.79272,-10.85898 -0.11318,-0.16207 -9.09821,-11.02105 -1.39585,-0.73522 -10.60724,-4.80648 -10.60724,-3.24187 -10.60723,-0.92195 -10.60724,-0.41975 -10.60724,1.96878 -10.60723,3.48767 -8.82139,4.66882 -1.78585,2.04536 -5.08051,8.97569 -5.52673,9.28574 -1.94839,1.73531 1.94839,4.12517 2.87761,6.89589 h -2.87761 -10.60723 -1.15507 l -3.9767,-11.02106 5.13177,-8.30773 3.12651,-2.71332 7.48072,-5.05195 3.59525,-5.9691 7.01199,-7.30767 8.29158,-3.71338 z"
           style="fill:#2f6c8e;stroke-width:1.15966702;stroke-linecap:butt;stroke-linejoin:round"
           id="path1178"
           inkscape:connector-curvature="0" />
      </g>
      <g
         id="PathCollection_6"
         style="stroke-width:1.15966702;stroke-linecap:butt;stroke-linejoin:round">
        <path
           clip-path="url(#pa0bc4dfd76)"
           d="m 554.38618,14.8 h 10.60724 2.39614 l 8.2111,4.612125 10.19167,5.97715 0.41556,0.431778 h 3.18427 l 7.42297,0.637338 10.60724,-0.434566 0.15088,-0.202772 h 10.45635 10.60724 5.41019 l -4.08061,11.021052 -1.32958,2.373023 -4.8454,8.64803 4.8454,4.875399 10.60724,3.078289 5.30668,3.067365 5.30056,3.459751 9.47849,7.561301 1.12874,0.818564 10.60724,6.188461 9.1475,4.014028 1.45974,1.585604 9.15505,9.435448 -8.20798,11.021052 -0.94707,0.83503 -10.60724,6.11964 -7.30417,4.06638 -3.30307,1.5632 -10.60723,5.46733 -6.04043,3.99053 -4.56681,3.64221 -10.32543,7.37884 -0.28181,0.73788 -10.60724,3.9272 -10.60723,5.95687 -1.56406,0.3991 1.56406,0.22858 10.60723,2.75431 8.71143,8.03816 1.89581,1.06943 10.60724,5.7954 7.42314,4.15623 3.1841,1.61827 10.60723,5.83936 6.57564,3.56342 4.0316,3.0562 6.1186,7.96485 4.48864,8.32806 0.85874,1.80074 -0.85874,0.89225 v 4.69864 l -3.93606,6.32242 h -6.67118 -9.9879 l 9.9879,-9.00586 1.4982,-2.0152 -1.4982,-3.63142 -5.86047,-7.38963 -4.74677,-3.20522 -6.82709,-7.81583 -3.78014,-2.188 -10.60724,-5.51081 -6.90426,-3.32224 -3.70298,-2.02759 -10.60724,-5.06741 -10.60723,-1.14262 -10.60724,-0.8151 -10.60724,2.64828 -10.60723,5.25734 -2.31566,1.1471 -8.29158,3.71338 -7.01199,7.30767 -3.59525,5.9691 -7.48072,5.05195 -3.12651,2.71332 -5.13177,8.30773 3.9767,11.02106 h -9.45217 -4.48236 l -6.12488,-6.73325 -9.14755,-4.28781 5.32035,-11.02105 3.8272,-2.09927 10.60724,-5.04003 7.20442,-3.88175 3.40282,-1.24824 10.60723,-5.70498 3.89743,-4.06783 6.70981,-4.20384 10.60724,-6.23862 1.09946,-0.5786 9.50777,-6.09093 8.80115,-4.93012 -8.80115,-8.33439 -3.80512,-2.68666 -6.80211,-1.9526 -10.60724,-6.56919 -3.90008,-2.49926 -6.70716,-3.47817 -10.60723,-5.52775 -3.52605,-2.01514 -7.08119,-4.94006 -10.60724,-4.75084 -2.50718,-1.33015 -5.59483,-11.021052 8.10201,-4.886591 6.60389,-6.134461 4.00335,-2.331945 10.60724,-8.077532 0.70778,-0.611576 9.89945,-9.782329 3.5336,-1.238723 7.07364,-2.693536 10.60724,-3.524418 10.60723,-4.498363 0.87032,-0.304736 -0.87032,-6.391611 -0.27351,-4.629442 -10.33372,-8.546578 -3.89641,-2.474474 -6.71083,-3.384889 L 554.38618,15.72459 552.85568,14.8 Z m 33.42353,44.084211 -1.60182,0.357142 -10.60723,3.991474 -10.60724,3.940679 -7.8399,2.731757 -2.76734,1.324601 -10.60723,8.681341 -1.33302,1.015111 -2.96004,11.021052 4.07548,11.021052 0.21758,0.11576 10.25571,10.90529 0.35152,0.18882 10.60724,5.49433 8.63058,5.33791 1.97666,1.29133 10.60723,2.75985 10.60724,1.78625 10.60724,0.58593 10.60723,-2.37133 10.60724,-3.40653 0.90995,-0.6455 9.69729,-5.03214 8.56212,-5.98892 2.04512,-1.48812 10.60723,-5.30049 7.03938,-4.23244 3.56786,-7.248865 2.1103,-3.772187 -2.1103,-2.278021 -8.9667,-8.743031 -1.64054,-0.865375 -10.60723,-7.90371 -4.15141,-2.251968 -6.45583,-4.213823 -10.60724,-3.785742 -10.60724,-2.671384 -1.37823,-0.350103 -9.229,-6.068498 -10.60724,3.084682 z"
           style="fill:#25848e;stroke-width:1.15966702;stroke-linecap:butt;stroke-linejoin:round"
           id="path1181"
           inkscape:connector-curvature="0" />
      </g>
      <g
         id="PathCollection_7"
         style="stroke-width:1.15966702;stroke-linecap:butt;stroke-linejoin:round">
        <path
           clip-path="url(#pa0bc4dfd76)"
           d="m 543.77895,14.8 h 9.07673 l 1.5305,0.92459 10.60724,6.711574 6.71083,3.384889 3.89641,2.474474 10.33372,8.546578 0.27351,4.629442 0.87032,6.391611 -0.87032,0.304736 -10.60723,4.498363 -10.60724,3.524418 -7.07364,2.693536 -3.5336,1.238723 -9.89945,9.782329 -0.70778,0.611576 -10.60724,8.077532 -4.00335,2.331945 -6.60389,6.134461 -8.10201,4.886591 5.59483,11.021052 2.50718,1.33015 10.60724,4.75084 7.08119,4.94006 3.52605,2.01514 10.60723,5.52775 6.70716,3.47817 3.90008,2.49926 10.60724,6.56919 6.80211,1.9526 3.80512,2.68666 8.80115,8.33439 -8.80115,4.93012 -9.50777,6.09093 -1.09946,0.5786 -10.60724,6.23862 -6.70981,4.20384 -3.89743,4.06783 -10.60723,5.70498 -3.40282,1.24824 -7.20442,3.88175 -10.60724,5.04003 -3.8272,2.09927 -5.32035,11.02105 9.14755,4.28781 6.12488,6.73325 h -6.12488 -10.60723 -2.27016 l -3.80995,-11.02106 0.89075,-11.02105 5.18936,-9.52827 3.3787,-1.49278 7.22853,-1.57195 10.60724,-3.40335 10.60724,-5.15334 1.37312,-0.89241 9.23411,-6.0483 9.05984,-4.97276 1.5474,-1.84332 8.29871,-9.17773 -8.29871,-9.73767 -0.93538,-1.28338 -9.67186,-6.06052 -8.62122,-4.96053 -1.98601,-0.97504 -10.60724,-6.25987 -9.59103,-3.78615 -1.01621,-0.48393 -10.60723,-5.16754 -5.90903,5.65147 -3.37689,11.02106 -1.12998,11.02105 -0.19134,2.90286 v -2.90286 -11.02105 -11.02106 -11.02105 -8.339466 l 1.98411,-2.681586 6.2989,-11.021052 2.32423,-2.578094 10.60723,-2.969517 9.39649,-5.473442 1.21075,-0.705258 10.60724,-8.618621 1.71118,-1.697173 8.89605,-9.504913 3.50118,-1.51614 7.10606,-3.99161 7.02116,-7.029443 -7.02116,-4.901231 -8.56763,-6.119821 -2.03961,-1.316412 L 543.77895,17.688319 538.3218,14.8 Z"
           style="fill:#1e9c89;stroke-width:1.15966702;stroke-linecap:butt;stroke-linejoin:round"
           id="path1184"
           inkscape:connector-curvature="0" />
        <path
           clip-path="url(#pa0bc4dfd76)"
           d="m 639.24408,25.821053 h 7.63529 l -7.63529,10.996335 -0.0139,0.02472 0.0139,0.129694 2.2781,10.891359 8.32914,4.508053 7.13091,6.513 3.47632,2.883547 10.60724,7.022245 2.43713,1.11526 8.17011,3.695813 10.60723,3.512658 v 3.812582 11.021052 11.021049 1.61698 l -10.60723,9.07813 -0.58767,0.32594 -10.01957,4.68701 -10.60724,4.79726 -2.814,1.53679 -7.79323,4.74422 -7.52405,6.27683 -2.59629,11.02105 1.36992,11.02105 8.75042,4.99239 10.60723,5.62627 0.71947,0.4024 9.88777,5.55481 8.50872,5.46624 2.09852,3.03112 3.51954,7.98993 2.34831,4.92428 -5.00911,5.20452 -0.85874,-1.80074 -4.48864,-8.32806 -6.1186,-7.96485 -4.0316,-3.0562 -6.57564,-3.56342 -10.60723,-5.83936 -3.1841,-1.61827 -7.42314,-4.15623 -10.60724,-5.7954 -1.89581,-1.06943 -8.71143,-8.03816 -10.60723,-2.75431 -1.56406,-0.22858 1.56406,-0.3991 10.60723,-5.95687 10.60724,-3.9272 0.28181,-0.73788 10.32543,-7.37884 4.56681,-3.64221 6.04043,-3.99053 10.60723,-5.46733 3.30307,-1.5632 7.30417,-4.06638 10.60724,-6.11964 0.94707,-0.83503 8.20798,-11.021049 -9.15505,-9.435448 -1.45974,-1.585604 -9.1475,-4.014028 -10.60724,-6.188461 -1.12874,-0.818564 -9.47849,-7.561301 -5.30056,-3.459751 -5.30668,-3.067365 -10.60724,-3.078289 -4.8454,-4.875399 4.8454,-8.64803 1.32958,-2.373023 4.08061,-11.021052 z"
           style="fill:#1e9c89;stroke-width:1.15966702;stroke-linecap:butt;stroke-linejoin:round"
           id="path1186"
           inkscape:connector-curvature="0" />
        <path
           clip-path="url(#pa0bc4dfd76)"
           d="m 681.67303,206.85653 v 6.32242 h -3.93606 z"
           style="fill:#1e9c89;stroke-width:1.15966702;stroke-linecap:butt;stroke-linejoin:round"
           id="path1188"
           inkscape:connector-curvature="0" />
      </g>
      <g
         id="PathCollection_8"
         style="stroke-width:1.15966702;stroke-linecap:butt;stroke-linejoin:round">
        <path
           clip-path="url(#pa0bc4dfd76)"
           d="m 522.56447,14.8 h 10.60724 5.15009 l 5.45715,2.888319 10.60723,6.816322 2.03961,1.316412 8.56763,6.119821 7.02116,4.901231 -7.02116,7.029443 -7.10606,3.99161 -3.50118,1.51614 -8.89605,9.504913 -1.71118,1.697173 -10.60724,8.618621 -1.21075,0.705258 -9.39649,5.473442 -10.60723,2.969517 -2.32423,2.578094 -6.2989,11.021052 -1.98411,2.681586 V 91.947368 81.919363 l 0.60317,-0.993047 9.90575,-11.021053 0.0983,-0.07151 10.60723,-3.849416 10.60724,-6.178701 1.12122,-0.921427 9.48602,-8.778514 2.09977,-2.242539 8.50746,-9.227497 2.67272,-1.793556 -2.67272,-1.809097 -9.938,-9.211955 -0.66923,-0.440349 -10.60724,-5.713616 -10.60724,-4.201044 -0.59474,-0.04809 z"
           style="fill:#2fb47c;stroke-width:1.15966702;stroke-linecap:butt;stroke-linejoin:round"
           id="path1191"
           inkscape:connector-curvature="0" />
        <path
           clip-path="url(#pa0bc4dfd76)"
           d="m 639.24408,36.817388 7.63529,-10.996335 h 2.97195 10.0076 l -10.0076,9.739512 -0.94378,1.28154 0.94378,1.68323 5.5982,9.337823 5.00903,4.595926 7.90351,6.425127 2.70373,1.862096 10.60724,4.903437 10.60723,2.255655 v 1.999864 7.208471 l -10.60723,-3.512658 -8.17011,-3.695813 -2.43713,-1.11526 -10.60724,-7.022245 -3.47632,-2.883547 -7.13091,-6.513 -8.32914,-4.508053 -2.2781,-10.891359 -0.0139,-0.129694 z"
           style="fill:#2fb47c;stroke-width:1.15966702;stroke-linecap:butt;stroke-linejoin:round"
           id="path1193"
           inkscape:connector-curvature="0" />
        <path
           clip-path="url(#pa0bc4dfd76)"
           d="m 511.95724,108.338 10.60723,5.16754 1.01621,0.48393 9.59103,3.78615 10.60724,6.25987 1.98601,0.97504 8.62122,4.96053 9.67186,6.06052 0.93538,1.28338 8.29871,9.73767 -8.29871,9.17773 -1.5474,1.84332 -9.05984,4.97276 -9.23411,6.0483 -1.37312,0.89241 -10.60724,5.15334 -10.60724,3.40335 -7.22853,1.57195 -3.3787,1.49278 -5.18936,9.52827 -0.89075,11.02105 3.80995,11.02106 H 501.35 v -11.02106 -11.02105 -11.02105 -11.02105 -11.02106 -11.02105 -8.11819 l 0.19134,-2.90286 1.12998,-11.02105 3.37689,-11.02106 z m -3.98122,16.67253 -2.75007,11.02105 -1.37457,11.02105 -0.0188,11.02105 1.75678,11.02106 6.36789,4.80795 10.60723,-2.27734 7.57426,-2.53061 3.03298,-1.20541 10.60724,-6.22612 5.2439,-3.58953 5.36333,-6.70538 3.72918,-4.31567 -3.72918,-4.90903 -4.64941,-6.11202 -5.95782,-3.76727 -10.60724,-6.80014 -0.74559,-0.45364 -9.86165,-4.63787 -10.60723,-2.31717 z"
           style="fill:#2fb47c;stroke-width:1.15966702;stroke-linecap:butt;stroke-linejoin:round"
           id="path1195"
           inkscape:connector-curvature="0" />
        <path
           clip-path="url(#pa0bc4dfd76)"
           d="m 681.67303,113.66353 10.60723,-9.07813 v 9.40407 2.03689 l -10.60723,5.83727 -6.56073,3.1469 -4.04651,2.93893 -10.60724,5.42434 -4.98283,2.65778 -5.6244,7.60052 -1.16519,3.42053 1.16519,2.94001 4.9408,8.08104 5.66643,3.08855 10.60724,5.91695 4.39549,2.01556 6.21175,3.45554 5.97513,7.56551 4.6321,10.16211 v 0.85894 l -4.73938,4.92428 -2.34831,-4.92428 -3.51954,-7.98993 -2.09852,-3.03112 -8.50872,-5.46624 -9.88777,-5.55481 -0.71947,-0.4024 -10.60723,-5.62627 -8.75042,-4.99239 -1.36992,-11.02105 2.59629,-11.02105 7.52405,-6.27683 7.79323,-4.74422 2.814,-1.53679 10.60724,-4.79726 10.01957,-4.68701 z"
           style="fill:#2fb47c;stroke-width:1.15966702;stroke-linecap:butt;stroke-linejoin:round"
           id="path1197"
           inkscape:connector-curvature="0" />
      </g>
      <g
         id="PathCollection_9"
         style="stroke-width:1.15966702;stroke-linecap:butt;stroke-linejoin:round">
        <path
           clip-path="url(#pa0bc4dfd76)"
           d="m 522.56447,15.466044 10.60724,4.201044 10.60724,5.713616 0.66923,0.440349 9.938,9.211955 2.67272,1.809097 -2.67272,1.793556 -8.50746,9.227497 -2.09977,2.242539 -9.48602,8.778514 -1.12122,0.921427 -10.60724,6.178701 -10.60723,3.849416 -0.0983,0.07151 -9.90575,11.021053 -0.60317,0.993047 V 80.926316 69.905263 69.275534 l 10.60724,-7.485475 6.32886,-2.905848 4.27837,-2.116537 10.60724,-6.753636 2.30434,-2.15088 7.17157,-11.021053 -9.47591,-8.477093 -4.07752,-2.543959 -6.52972,-2.35316 -7.74002,-0.62591 7.14528,-7.424034 z"
           style="fill:#5ec962;stroke-width:1.15966702;stroke-linecap:butt;stroke-linejoin:round"
           id="path1200"
           inkscape:connector-curvature="0" />
        <path
           clip-path="url(#pa0bc4dfd76)"
           d="m 649.85132,35.560565 10.0076,-9.739512 h 0.59963 10.60724 3.5607 l -3.5607,3.285336 -6.67364,7.735716 1.40542,11.021053 5.26822,4.391689 10.60724,5.231575 10.60723,-0.721048 v 2.118837 9.021188 l -10.60723,-2.255655 -10.60724,-4.903437 -2.70373,-1.862096 -7.90351,-6.425127 -5.00903,-4.595926 -5.5982,-9.337823 -0.94378,-1.68323 z"
           style="fill:#5ec962;stroke-width:1.15966702;stroke-linecap:butt;stroke-linejoin:round"
           id="path1202"
           inkscape:connector-curvature="0" />
        <path
           clip-path="url(#pa0bc4dfd76)"
           d="m 511.95724,118.05549 10.60723,2.31717 9.86165,4.63787 0.74559,0.45364 10.60724,6.80014 5.95782,3.76727 4.64941,6.11202 3.72918,4.90903 -3.72918,4.31567 -5.36333,6.70538 -5.2439,3.58953 -10.60724,6.22612 -3.03298,1.20541 -7.57426,2.53061 -10.60723,2.27734 -6.36789,-4.80795 -1.75678,-11.02106 0.0188,-11.02105 1.37457,-11.02105 2.75007,-11.02105 z m -3.04669,17.97609 -2.13281,11.02105 0.82991,11.02105 4.34959,8.69433 10.60723,-2.78827 10.60724,-4.3202 2.69575,-1.58586 7.91149,-9.77448 0.97316,-1.24657 -0.97316,-1.29074 -7.62768,-9.73031 -2.97956,-1.85119 -10.60724,-5.96323 -10.60723,-0.65203 z"
           style="fill:#5ec962;stroke-width:1.15966702;stroke-linecap:butt;stroke-linejoin:round"
           id="path1204"
           inkscape:connector-curvature="0" />
        <path
           clip-path="url(#pa0bc4dfd76)"
           d="m 681.67303,121.86363 10.60723,-5.83727 v 8.98417 0.84986 l -10.60723,6.22326 -5.28756,3.94793 -5.31968,4.14411 -9.46495,6.87694 6.91508,11.02105 2.54987,1.41658 10.60724,4.64691 6.95553,4.95757 3.6517,5.23141 v 5.78964 10.16211 l -4.6321,-10.16211 -5.97513,-7.56551 -6.21175,-3.45554 -4.39549,-2.01556 -10.60724,-5.91695 -5.66643,-3.08855 -4.9408,-8.08104 -1.16519,-2.94001 1.16519,-3.42053 5.6244,-7.60052 4.98283,-2.65778 10.60724,-5.42434 4.04651,-2.93893 z"
           style="fill:#5ec962;stroke-width:1.15966702;stroke-linecap:butt;stroke-linejoin:round"
           id="path1206"
           inkscape:connector-curvature="0" />
      </g>
      <g
         id="PathCollection_10"
         style="stroke-width:1.15966702;stroke-linecap:butt;stroke-linejoin:round">
        <path
           clip-path="url(#pa0bc4dfd76)"
           d="m 522.56447,23.467893 6.52972,2.35316 4.07752,2.543959 9.47591,8.477093 -7.17157,11.021053 -2.30434,2.15088 -10.60724,6.753636 -4.27837,2.116537 -6.32886,2.905848 L 501.35,69.275534 V 58.884211 56.576142 l 10.60724,-3.205228 10.60723,-5.269963 0.35987,-0.237793 -0.35987,-2.20139 -10.60723,-8.751047 -0.0627,-0.0035 0.0627,-0.06512 V 25.821053 l 2.86721,-2.97907 z"
           style="fill:#9bd93c;stroke-width:1.15966702;stroke-linecap:butt;stroke-linejoin:round"
           id="path1209"
           inkscape:connector-curvature="0" />
        <path
           clip-path="url(#pa0bc4dfd76)"
           d="m 671.06579,29.106389 3.5607,-3.285336 h 7.04654 l 4.90996,5.101516 -4.90996,2.968213 -3.10864,2.951323 2.56109,11.021053 0.54755,0.250437 1.16303,-0.250437 9.4442,-2.563023 v 2.563023 8.902216 l -10.60723,0.721048 -10.60724,-5.231575 -5.26822,-4.391689 -1.40542,-11.021053 z"
           style="fill:#9bd93c;stroke-width:1.15966702;stroke-linecap:butt;stroke-linejoin:round"
           id="path1211"
           inkscape:connector-curvature="0" />
        <path
           clip-path="url(#pa0bc4dfd76)"
           d="m 511.95724,127.56513 10.60723,0.65203 10.60724,5.96323 2.97956,1.85119 7.62768,9.73031 0.97316,1.29074 -0.97316,1.24657 -7.91149,9.77448 -2.69575,1.58586 -10.60724,4.3202 -10.60723,2.78827 -4.34959,-8.69433 -0.82991,-11.02105 2.13281,-11.02105 z m -2.25314,19.4875 1.67864,11.02105 0.5745,1.14836 3.84458,-1.14836 6.76265,-4.81941 7.233,-6.20164 -7.233,-6.48866 -10.60723,-2.50912 z"
           style="fill:#9bd93c;stroke-width:1.15966702;stroke-linecap:butt;stroke-linejoin:round"
           id="path1213"
           inkscape:connector-curvature="0" />
        <path
           clip-path="url(#pa0bc4dfd76)"
           d="m 681.67303,132.08365 10.60723,-6.22326 v 10.17119 0.69011 l -5.57501,10.33094 0.59403,11.02105 4.98098,2.61367 v 8.40739 5.23141 l -3.6517,-5.23141 -6.95553,-4.95757 -10.60724,-4.64691 -2.54987,-1.41658 -6.91508,-11.02105 9.46495,-6.87694 5.31968,-4.14411 z"
           style="fill:#9bd93c;stroke-width:1.15966702;stroke-linecap:butt;stroke-linejoin:round"
           id="path1215"
           inkscape:connector-curvature="0" />
      </g>
      <g
         id="PathCollection_11"
         style="stroke-width:1.15966702;stroke-linecap:butt;stroke-linejoin:round">
        <path
           clip-path="url(#pa0bc4dfd76)"
           d="m 681.67303,33.890782 4.90996,-2.968213 5.69727,5.919536 v 8.45803 l -9.4442,2.563023 -1.16303,0.250437 -0.54755,-0.250437 -2.56109,-11.021053 z"
           style="fill:#dfe318;stroke-width:1.15966702;stroke-linecap:butt;stroke-linejoin:round"
           id="path1218"
           inkscape:connector-curvature="0" />
        <path
           clip-path="url(#pa0bc4dfd76)"
           d="m 511.95724,36.910721 10.60723,8.751047 0.35987,2.20139 -0.35987,0.237793 -10.60723,5.269963 -10.60724,3.205228 v -8.712984 l 10.54456,-10.955929 z"
           style="fill:#dfe318;stroke-width:1.15966702;stroke-linecap:butt;stroke-linejoin:round"
           id="path1220"
           inkscape:connector-curvature="0" />
        <path
           clip-path="url(#pa0bc4dfd76)"
           d="m 511.95724,138.05485 10.60723,2.50912 7.233,6.48866 -7.233,6.20164 -6.76265,4.81941 -3.84458,1.14836 -0.5745,-1.14836 -1.67864,-11.02105 z"
           style="fill:#dfe318;stroke-width:1.15966702;stroke-linecap:butt;stroke-linejoin:round"
           id="path1222"
           inkscape:connector-curvature="0" />
        <path
           clip-path="url(#pa0bc4dfd76)"
           d="m 692.28026,136.72169 v 10.33094 11.02105 2.61367 l -4.98098,-2.61367 -0.59403,-11.02105 z"
           style="fill:#dfe318;stroke-width:1.15966702;stroke-linecap:butt;stroke-linejoin:round"
           id="path1224"
           inkscape:connector-curvature="0" />
      </g>
      <g
         id="matplotlib.axis_5"
         style="stroke-width:1.15966702;stroke-linecap:butt;stroke-linejoin:round">
        <g
           id="xtick_12"
           style="stroke-width:1.15966702;stroke-linecap:butt;stroke-linejoin:round">
          <g
             id="line2d_23"
             style="stroke-width:1.15966702;stroke-linecap:butt;stroke-linejoin:round">
            <g
               id="g1229"
               style="stroke-width:1.15966702;stroke-linecap:butt;stroke-linejoin:round">
              <path
                 style="stroke:#000000;stroke-width:0.92773366;stroke-linecap:butt;stroke-linejoin:round"
                 id="use1227"
                 d="m 501.35001,224.2 v 3.5"
                 inkscape:connector-curvature="0" />
            </g>
          </g>
          <g
             id="text_23"
             style="stroke-width:1.15966702;stroke-linecap:butt;stroke-linejoin:round">
            <!-- 0 -->
            <g
               transform="matrix(0.1,0,0,-0.1,498.16875,238.79844)"
               id="g1234"
               style="stroke-width:1.15966702;stroke-linecap:butt;stroke-linejoin:round">
              <path
                 id="use1232"
                 d="m 31.78125,66.40625 q -7.609375,0 -11.453125,-7.5 Q 16.5,51.421875 16.5,36.375 q 0,-14.984375 3.828125,-22.484375 3.84375,-7.5 11.453125,-7.5 7.671875,0 11.5,7.5 3.84375,7.5 3.84375,22.484375 0,15.046875 -3.84375,22.53125 -3.828125,7.5 -11.5,7.5 z m 0,7.8125 q 12.265625,0 18.734375,-9.703125 6.46875,-9.6875 6.46875,-28.140625 0,-18.40625 -6.46875,-28.109375 -6.46875,-9.6875 -18.734375,-9.6875 -12.25,0 -18.71875,9.6875 Q 6.59375,17.96875 6.59375,36.375 q 0,18.453125 6.46875,28.140625 6.46875,9.703125 18.71875,9.703125 z"
                 inkscape:connector-curvature="0"
                 style="stroke-width:1.15966702;stroke-linecap:butt;stroke-linejoin:round" />
            </g>
          </g>
        </g>
        <g
           id="xtick_13"
           style="stroke-width:1.15966702;stroke-linecap:butt;stroke-linejoin:round">
          <g
             id="line2d_24"
             style="stroke-width:1.15966702;stroke-linecap:butt;stroke-linejoin:round">
            <g
               id="g1240"
               style="stroke-width:1.15966702;stroke-linecap:butt;stroke-linejoin:round">
              <path
                 style="stroke:#000000;stroke-width:0.92773366;stroke-linecap:butt;stroke-linejoin:round"
                 id="use1238"
                 d="m 541.65747,224.2 v 3.5"
                 inkscape:connector-curvature="0" />
            </g>
          </g>
          <g
             id="text_24"
             style="stroke-width:1.15966702;stroke-linecap:butt;stroke-linejoin:round">
            <!-- 10 -->
            <g
               transform="matrix(0.1,0,0,-0.1,535.295,238.79844)"
               id="g1247"
               style="stroke-width:1.15966702;stroke-linecap:butt;stroke-linejoin:round">
              <path
                 id="use1243"
                 d="m 12.40625,8.296875 h 16.109375 v 55.625 L 10.984375,60.40625 v 8.984375 l 17.4375,3.515625 H 38.28125 V 8.296875 H 54.390625 V 0 H 12.40625 Z"
                 inkscape:connector-curvature="0"
                 style="stroke-width:1.15966702;stroke-linecap:butt;stroke-linejoin:round" />
              <path
                 id="use1245"
                 d="m 95.404297,66.40625 q -7.609375,0 -11.453125,-7.5 -3.828125,-7.484375 -3.828125,-22.53125 0,-14.984375 3.828125,-22.484375 3.84375,-7.5 11.453125,-7.5 7.671873,0 11.500003,7.5 3.84375,7.5 3.84375,22.484375 0,15.046875 -3.84375,22.53125 -3.82813,7.5 -11.500003,7.5 z m 0,7.8125 q 12.265623,0 18.734373,-9.703125 6.46875,-9.6875 6.46875,-28.140625 0,-18.40625 -6.46875,-28.109375 -6.46875,-9.6875 -18.734373,-9.6875 -12.25,0 -18.71875,9.6875 -6.46875,9.703125 -6.46875,28.109375 0,18.453125 6.46875,28.140625 6.46875,9.703125 18.71875,9.703125 z"
                 inkscape:connector-curvature="0"
                 style="stroke-width:1.15966702;stroke-linecap:butt;stroke-linejoin:round" />
            </g>
          </g>
        </g>
        <g
           id="xtick_14"
           style="stroke-width:1.15966702;stroke-linecap:butt;stroke-linejoin:round">
          <g
             id="line2d_25"
             style="stroke-width:1.15966702;stroke-linecap:butt;stroke-linejoin:round">
            <g
               id="g1253"
               style="stroke-width:1.15966702;stroke-linecap:butt;stroke-linejoin:round">
              <path
                 style="stroke:#000000;stroke-width:0.92773366;stroke-linecap:butt;stroke-linejoin:round"
                 id="use1251"
                 d="m 581.96503,224.2 v 3.5"
                 inkscape:connector-curvature="0" />
            </g>
          </g>
          <g
             id="text_25"
             style="stroke-width:1.15966702;stroke-linecap:butt;stroke-linejoin:round">
            <!-- 20 -->
            <g
               transform="matrix(0.1,0,0,-0.1,575.6025,238.79844)"
               id="g1260"
               style="stroke-width:1.15966702;stroke-linecap:butt;stroke-linejoin:round">
              <path
                 id="use1256"
                 d="M 19.1875,8.296875 H 53.609375 V 0 H 7.328125 v 8.296875 q 5.609375,5.8125 15.296875,15.59375 9.703125,9.796875 12.1875,12.640625 4.734375,5.3125 6.609375,9 1.890625,3.6875 1.890625,7.25 0,5.8125 -4.078125,9.46875 -4.078125,3.671875 -10.625,3.671875 -4.640625,0 -9.796875,-1.609375 -5.140625,-1.609375 -11,-4.890625 v 9.96875 Q 13.765625,71.78125 18.9375,73 q 5.1875,1.21875 9.484375,1.21875 11.328125,0 18.0625,-5.671875 6.734375,-5.65625 6.734375,-15.125 0,-4.5 -1.6875,-8.53125 Q 49.859375,40.875 45.40625,35.40625 44.1875,33.984375 37.640625,27.21875 31.109375,20.453125 19.1875,8.296875 Z"
                 inkscape:connector-curvature="0"
                 style="stroke-width:1.15966702;stroke-linecap:butt;stroke-linejoin:round" />
              <path
                 id="use1258"
                 d="m 95.404297,66.40625 q -7.609375,0 -11.453125,-7.5 -3.828125,-7.484375 -3.828125,-22.53125 0,-14.984375 3.828125,-22.484375 3.84375,-7.5 11.453125,-7.5 7.671873,0 11.500003,7.5 3.84375,7.5 3.84375,22.484375 0,15.046875 -3.84375,22.53125 -3.82813,7.5 -11.500003,7.5 z m 0,7.8125 q 12.265623,0 18.734373,-9.703125 6.46875,-9.6875 6.46875,-28.140625 0,-18.40625 -6.46875,-28.109375 -6.46875,-9.6875 -18.734373,-9.6875 -12.25,0 -18.71875,9.6875 -6.46875,9.703125 -6.46875,28.109375 0,18.453125 6.46875,28.140625 6.46875,9.703125 18.71875,9.703125 z"
                 inkscape:connector-curvature="0"
                 style="stroke-width:1.15966702;stroke-linecap:butt;stroke-linejoin:round" />
            </g>
          </g>
        </g>
        <g
           id="xtick_15"
           style="stroke-width:1.15966702;stroke-linecap:butt;stroke-linejoin:round">
          <g
             id="line2d_26"
             style="stroke-width:1.15966702;stroke-linecap:butt;stroke-linejoin:round">
            <g
               id="g1266"
               style="stroke-width:1.15966702;stroke-linecap:butt;stroke-linejoin:round">
              <path
                 style="stroke:#000000;stroke-width:0.92773366;stroke-linecap:butt;stroke-linejoin:round"
                 id="use1264"
                 d="m 622.27252,224.2 v 3.5"
                 inkscape:connector-curvature="0" />
            </g>
          </g>
          <g
             id="text_26"
             style="stroke-width:1.15966702;stroke-linecap:butt;stroke-linejoin:round">
            <!-- 30 -->
            <g
               transform="matrix(0.1,0,0,-0.1,615.91,238.79844)"
               id="g1273"
               style="stroke-width:1.15966702;stroke-linecap:butt;stroke-linejoin:round">
              <path
                 id="use1269"
                 d="M 40.578125,39.3125 Q 47.65625,37.796875 51.625,33 q 3.984375,-4.78125 3.984375,-11.8125 0,-10.78125 -7.421875,-16.703125 -7.421875,-5.90625 -21.09375,-5.90625 -4.578125,0 -9.4375,0.90625 -4.859375,0.90625 -10.03125,2.71875 v 9.515625 q 4.09375,-2.390625 8.96875,-3.609375 4.890625,-1.21875 10.21875,-1.21875 9.265625,0 14.125,3.65625 4.859375,3.65625 4.859375,10.640625 0,6.453125 -4.515625,10.078125 -4.515625,3.640625 -12.5625,3.640625 h -8.5 v 8.109375 h 8.890625 q 7.265625,0 11.125,2.90625 3.859375,2.90625 3.859375,8.375 0,5.609375 -3.984375,8.609375 -3.96875,3.015625 -11.390625,3.015625 -4.0625,0 -8.703125,-0.890625 Q 15.375,64.15625 9.8125,62.3125 v 8.78125 q 5.625,1.5625 10.53125,2.34375 4.90625,0.78125 9.25,0.78125 11.234375,0 17.765625,-5.109375 6.546875,-5.09375 6.546875,-13.78125 0,-6.0625 -3.46875,-10.234375 -3.46875,-4.171875 -9.859375,-5.78125 z"
                 inkscape:connector-curvature="0"
                 style="stroke-width:1.15966702;stroke-linecap:butt;stroke-linejoin:round" />
              <path
                 id="use1271"
                 d="m 95.404297,66.40625 q -7.609375,0 -11.453125,-7.5 -3.828125,-7.484375 -3.828125,-22.53125 0,-14.984375 3.828125,-22.484375 3.84375,-7.5 11.453125,-7.5 7.671873,0 11.500003,7.5 3.84375,7.5 3.84375,22.484375 0,15.046875 -3.84375,22.53125 -3.82813,7.5 -11.500003,7.5 z m 0,7.8125 q 12.265623,0 18.734373,-9.703125 6.46875,-9.6875 6.46875,-28.140625 0,-18.40625 -6.46875,-28.109375 -6.46875,-9.6875 -18.734373,-9.6875 -12.25,0 -18.71875,9.6875 -6.46875,9.703125 -6.46875,28.109375 0,18.453125 6.46875,28.140625 6.46875,9.703125 18.71875,9.703125 z"
                 inkscape:connector-curvature="0"
                 style="stroke-width:1.15966702;stroke-linecap:butt;stroke-linejoin:round" />
            </g>
          </g>
        </g>
        <g
           id="xtick_16"
           style="stroke-width:1.15966702;stroke-linecap:butt;stroke-linejoin:round">
          <g
             id="line2d_27"
             style="stroke-width:1.15966702;stroke-linecap:butt;stroke-linejoin:round">
            <g
               id="g1279"
               style="stroke-width:1.15966702;stroke-linecap:butt;stroke-linejoin:round">
              <path
                 style="stroke:#000000;stroke-width:0.92773366;stroke-linecap:butt;stroke-linejoin:round"
                 id="use1277"
                 d="m 662.58002,224.2 v 3.5"
                 inkscape:connector-curvature="0" />
            </g>
          </g>
          <g
             id="text_27"
             style="stroke-width:1.15966702;stroke-linecap:butt;stroke-linejoin:round">
            <!-- 40 -->
            <g
               transform="matrix(0.1,0,0,-0.1,656.2175,238.79844)"
               id="g1286"
               style="stroke-width:1.15966702;stroke-linecap:butt;stroke-linejoin:round">
              <path
                 id="use1282"
                 d="M 37.796875,64.3125 12.890625,25.390625 h 24.90625 z m -2.59375,8.59375 h 12.40625 V 25.390625 h 10.40625 V 17.1875 H 47.609375 V 0 h -9.8125 V 17.1875 H 4.890625 v 9.515625 z"
                 inkscape:connector-curvature="0"
                 style="stroke-width:1.15966702;stroke-linecap:butt;stroke-linejoin:round" />
              <path
                 id="use1284"
                 d="m 95.404297,66.40625 q -7.609375,0 -11.453125,-7.5 -3.828125,-7.484375 -3.828125,-22.53125 0,-14.984375 3.828125,-22.484375 3.84375,-7.5 11.453125,-7.5 7.671873,0 11.500003,7.5 3.84375,7.5 3.84375,22.484375 0,15.046875 -3.84375,22.53125 -3.82813,7.5 -11.500003,7.5 z m 0,7.8125 q 12.265623,0 18.734373,-9.703125 6.46875,-9.6875 6.46875,-28.140625 0,-18.40625 -6.46875,-28.109375 -6.46875,-9.6875 -18.734373,-9.6875 -12.25,0 -18.71875,9.6875 -6.46875,9.703125 -6.46875,28.109375 0,18.453125 6.46875,28.140625 6.46875,9.703125 18.71875,9.703125 z"
                 inkscape:connector-curvature="0"
                 style="stroke-width:1.15966702;stroke-linecap:butt;stroke-linejoin:round" />
            </g>
          </g>
        </g>
        <g
           id="xtick_17"
           style="stroke-width:1.15966702;stroke-linecap:butt;stroke-linejoin:round">
          <g
             id="line2d_28"
             style="stroke-width:1.15966702;stroke-linecap:butt;stroke-linejoin:round">
            <g
               id="g1292"
               style="stroke-width:1.15966702;stroke-linecap:butt;stroke-linejoin:round">
              <path
                 style="stroke:#000000;stroke-width:0.92773366;stroke-linecap:butt;stroke-linejoin:round"
                 id="use1290"
                 d="m 702.88751,224.2 v 3.5"
                 inkscape:connector-curvature="0" />
            </g>
          </g>
          <g
             id="text_28"
             style="stroke-width:1.15966702;stroke-linecap:butt;stroke-linejoin:round">
            <!-- 50 -->
            <g
               transform="matrix(0.1,0,0,-0.1,696.525,238.79844)"
               id="g1299"
               style="stroke-width:1.15966702;stroke-linecap:butt;stroke-linejoin:round">
              <path
                 id="use1295"
                 d="m 10.796875,72.90625 h 38.71875 v -8.3125 h -29.6875 V 46.734375 q 2.140625,0.734375 4.28125,1.09375 2.15625,0.359375 4.3125,0.359375 Q 40.625,48.1875 47.75,41.5 54.890625,34.8125 54.890625,23.390625 54.890625,11.625 47.5625,5.09375 40.234375,-1.421875 26.90625,-1.421875 q -4.59375,0 -9.359375,0.78125 -4.75,0.78125 -9.828125,2.34375 V 11.625 q 4.390625,-2.390625 9.078125,-3.5625 4.6875,-1.171875 9.90625,-1.171875 8.453125,0 13.375,4.4375 4.9375,4.4375 4.9375,12.0625 0,7.609375 -4.9375,12.046875 -4.921875,4.453125 -13.375,4.453125 -3.953125,0 -7.890625,-0.875 -3.921875,-0.875 -8.015625,-2.734375 z"
                 inkscape:connector-curvature="0"
                 style="stroke-width:1.15966702;stroke-linecap:butt;stroke-linejoin:round" />
              <path
                 id="use1297"
                 d="m 95.404297,66.40625 q -7.609375,0 -11.453125,-7.5 -3.828125,-7.484375 -3.828125,-22.53125 0,-14.984375 3.828125,-22.484375 3.84375,-7.5 11.453125,-7.5 7.671873,0 11.500003,7.5 3.84375,7.5 3.84375,22.484375 0,15.046875 -3.84375,22.53125 -3.82813,7.5 -11.500003,7.5 z m 0,7.8125 q 12.265623,0 18.734373,-9.703125 6.46875,-9.6875 6.46875,-28.140625 0,-18.40625 -6.46875,-28.109375 -6.46875,-9.6875 -18.734373,-9.6875 -12.25,0 -18.71875,9.6875 -6.46875,9.703125 -6.46875,28.109375 0,18.453125 6.46875,28.140625 6.46875,9.703125 18.71875,9.703125 z"
                 inkscape:connector-curvature="0"
                 style="stroke-width:1.15966702;stroke-linecap:butt;stroke-linejoin:round" />
            </g>
          </g>
        </g>
      </g>
      <g
         id="matplotlib.axis_6"
         style="stroke-width:1.15966702;stroke-linecap:butt;stroke-linejoin:round">
        <g
           id="ytick_12"
           style="stroke-width:1.15966702;stroke-linecap:butt;stroke-linejoin:round">
          <g
             id="line2d_29"
             style="stroke-width:1.15966702;stroke-linecap:butt;stroke-linejoin:round">
            <g
               id="g1306"
               style="stroke-width:1.15966702;stroke-linecap:butt;stroke-linejoin:round">
              <path
                 style="stroke:#000000;stroke-width:0.92773366;stroke-linecap:butt;stroke-linejoin:round"
                 id="use1304"
                 d="m 501.35001,14.8 h -3.5"
                 inkscape:connector-curvature="0" />
            </g>
          </g>
          <g
             id="text_29"
             style="stroke-width:1.15966702;stroke-linecap:butt;stroke-linejoin:round">
            <!-- 0 -->
            <g
               transform="matrix(0.1,0,0,-0.1,487.9875,18.599219)"
               id="g1311"
               style="stroke-width:1.15966702;stroke-linecap:butt;stroke-linejoin:round">
              <path
                 id="use1309"
                 d="m 31.78125,66.40625 q -7.609375,0 -11.453125,-7.5 Q 16.5,51.421875 16.5,36.375 q 0,-14.984375 3.828125,-22.484375 3.84375,-7.5 11.453125,-7.5 7.671875,0 11.5,7.5 3.84375,7.5 3.84375,22.484375 0,15.046875 -3.84375,22.53125 -3.828125,7.5 -11.5,7.5 z m 0,7.8125 q 12.265625,0 18.734375,-9.703125 6.46875,-9.6875 6.46875,-28.140625 0,-18.40625 -6.46875,-28.109375 -6.46875,-9.6875 -18.734375,-9.6875 -12.25,0 -18.71875,9.6875 Q 6.59375,17.96875 6.59375,36.375 q 0,18.453125 6.46875,28.140625 6.46875,9.703125 18.71875,9.703125 z"
                 inkscape:connector-curvature="0"
                 style="stroke-width:1.15966702;stroke-linecap:butt;stroke-linejoin:round" />
            </g>
          </g>
        </g>
        <g
           id="ytick_13"
           style="stroke-width:1.15966702;stroke-linecap:butt;stroke-linejoin:round">
          <g
             id="line2d_30"
             style="stroke-width:1.15966702;stroke-linecap:butt;stroke-linejoin:round">
            <g
               id="g1317"
               style="stroke-width:1.15966702;stroke-linecap:butt;stroke-linejoin:round">
              <path
                 style="stroke:#000000;stroke-width:0.92773366;stroke-linecap:butt;stroke-linejoin:round"
                 id="use1315"
                 d="m 501.35001,56.68 h -3.5"
                 inkscape:connector-curvature="0" />
            </g>
          </g>
          <g
             id="text_30"
             style="stroke-width:1.15966702;stroke-linecap:butt;stroke-linejoin:round">
            <!-- 10 -->
            <g
               transform="matrix(0.1,0,0,-0.1,481.625,60.479219)"
               id="g1324"
               style="stroke-width:1.15966702;stroke-linecap:butt;stroke-linejoin:round">
              <path
                 id="use1320"
                 d="m 12.40625,8.296875 h 16.109375 v 55.625 L 10.984375,60.40625 v 8.984375 l 17.4375,3.515625 H 38.28125 V 8.296875 H 54.390625 V 0 H 12.40625 Z"
                 inkscape:connector-curvature="0"
                 style="stroke-width:1.15966702;stroke-linecap:butt;stroke-linejoin:round" />
              <path
                 id="use1322"
                 d="m 95.404297,66.40625 q -7.609375,0 -11.453125,-7.5 -3.828125,-7.484375 -3.828125,-22.53125 0,-14.984375 3.828125,-22.484375 3.84375,-7.5 11.453125,-7.5 7.671873,0 11.500003,7.5 3.84375,7.5 3.84375,22.484375 0,15.046875 -3.84375,22.53125 -3.82813,7.5 -11.500003,7.5 z m 0,7.8125 q 12.265623,0 18.734373,-9.703125 6.46875,-9.6875 6.46875,-28.140625 0,-18.40625 -6.46875,-28.109375 -6.46875,-9.6875 -18.734373,-9.6875 -12.25,0 -18.71875,9.6875 -6.46875,9.703125 -6.46875,28.109375 0,18.453125 6.46875,28.140625 6.46875,9.703125 18.71875,9.703125 z"
                 inkscape:connector-curvature="0"
                 style="stroke-width:1.15966702;stroke-linecap:butt;stroke-linejoin:round" />
            </g>
          </g>
        </g>
        <g
           id="ytick_14"
           style="stroke-width:1.15966702;stroke-linecap:butt;stroke-linejoin:round">
          <g
             id="line2d_31"
             style="stroke-width:1.15966702;stroke-linecap:butt;stroke-linejoin:round">
            <g
               id="g1330"
               style="stroke-width:1.15966702;stroke-linecap:butt;stroke-linejoin:round">
              <path
                 style="stroke:#000000;stroke-width:0.92773366;stroke-linecap:butt;stroke-linejoin:round"
                 id="use1328"
                 d="m 501.35001,98.559998 h -3.5"
                 inkscape:connector-curvature="0" />
            </g>
          </g>
          <g
             id="text_31"
             style="stroke-width:1.15966702;stroke-linecap:butt;stroke-linejoin:round">
            <!-- 20 -->
            <g
               transform="matrix(0.1,0,0,-0.1,481.625,102.35922)"
               id="g1337"
               style="stroke-width:1.15966702;stroke-linecap:butt;stroke-linejoin:round">
              <path
                 id="use1333"
                 d="M 19.1875,8.296875 H 53.609375 V 0 H 7.328125 v 8.296875 q 5.609375,5.8125 15.296875,15.59375 9.703125,9.796875 12.1875,12.640625 4.734375,5.3125 6.609375,9 1.890625,3.6875 1.890625,7.25 0,5.8125 -4.078125,9.46875 -4.078125,3.671875 -10.625,3.671875 -4.640625,0 -9.796875,-1.609375 -5.140625,-1.609375 -11,-4.890625 v 9.96875 Q 13.765625,71.78125 18.9375,73 q 5.1875,1.21875 9.484375,1.21875 11.328125,0 18.0625,-5.671875 6.734375,-5.65625 6.734375,-15.125 0,-4.5 -1.6875,-8.53125 Q 49.859375,40.875 45.40625,35.40625 44.1875,33.984375 37.640625,27.21875 31.109375,20.453125 19.1875,8.296875 Z"
                 inkscape:connector-curvature="0"
                 style="stroke-width:1.15966702;stroke-linecap:butt;stroke-linejoin:round" />
              <path
                 id="use1335"
                 d="m 95.404297,66.40625 q -7.609375,0 -11.453125,-7.5 -3.828125,-7.484375 -3.828125,-22.53125 0,-14.984375 3.828125,-22.484375 3.84375,-7.5 11.453125,-7.5 7.671873,0 11.500003,7.5 3.84375,7.5 3.84375,22.484375 0,15.046875 -3.84375,22.53125 -3.82813,7.5 -11.500003,7.5 z m 0,7.8125 q 12.265623,0 18.734373,-9.703125 6.46875,-9.6875 6.46875,-28.140625 0,-18.40625 -6.46875,-28.109375 -6.46875,-9.6875 -18.734373,-9.6875 -12.25,0 -18.71875,9.6875 -6.46875,9.703125 -6.46875,28.109375 0,18.453125 6.46875,28.140625 6.46875,9.703125 18.71875,9.703125 z"
                 inkscape:connector-curvature="0"
                 style="stroke-width:1.15966702;stroke-linecap:butt;stroke-linejoin:round" />
            </g>
          </g>
        </g>
        <g
           id="ytick_15"
           style="stroke-width:1.15966702;stroke-linecap:butt;stroke-linejoin:round">
          <g
             id="line2d_32"
             style="stroke-width:1.15966702;stroke-linecap:butt;stroke-linejoin:round">
            <g
               id="g1343"
               style="stroke-width:1.15966702;stroke-linecap:butt;stroke-linejoin:round">
              <path
                 style="stroke:#000000;stroke-width:0.92773366;stroke-linecap:butt;stroke-linejoin:round"
                 id="use1341"
                 d="m 501.35001,140.44 h -3.5"
                 inkscape:connector-curvature="0" />
            </g>
          </g>
          <g
             id="text_32"
             style="stroke-width:1.15966702;stroke-linecap:butt;stroke-linejoin:round">
            <!-- 30 -->
            <g
               transform="matrix(0.1,0,0,-0.1,481.625,144.23922)"
               id="g1350"
               style="stroke-width:1.15966702;stroke-linecap:butt;stroke-linejoin:round">
              <path
                 id="use1346"
                 d="M 40.578125,39.3125 Q 47.65625,37.796875 51.625,33 q 3.984375,-4.78125 3.984375,-11.8125 0,-10.78125 -7.421875,-16.703125 -7.421875,-5.90625 -21.09375,-5.90625 -4.578125,0 -9.4375,0.90625 -4.859375,0.90625 -10.03125,2.71875 v 9.515625 q 4.09375,-2.390625 8.96875,-3.609375 4.890625,-1.21875 10.21875,-1.21875 9.265625,0 14.125,3.65625 4.859375,3.65625 4.859375,10.640625 0,6.453125 -4.515625,10.078125 -4.515625,3.640625 -12.5625,3.640625 h -8.5 v 8.109375 h 8.890625 q 7.265625,0 11.125,2.90625 3.859375,2.90625 3.859375,8.375 0,5.609375 -3.984375,8.609375 -3.96875,3.015625 -11.390625,3.015625 -4.0625,0 -8.703125,-0.890625 Q 15.375,64.15625 9.8125,62.3125 v 8.78125 q 5.625,1.5625 10.53125,2.34375 4.90625,0.78125 9.25,0.78125 11.234375,0 17.765625,-5.109375 6.546875,-5.09375 6.546875,-13.78125 0,-6.0625 -3.46875,-10.234375 -3.46875,-4.171875 -9.859375,-5.78125 z"
                 inkscape:connector-curvature="0"
                 style="stroke-width:1.15966702;stroke-linecap:butt;stroke-linejoin:round" />
              <path
                 id="use1348"
                 d="m 95.404297,66.40625 q -7.609375,0 -11.453125,-7.5 -3.828125,-7.484375 -3.828125,-22.53125 0,-14.984375 3.828125,-22.484375 3.84375,-7.5 11.453125,-7.5 7.671873,0 11.500003,7.5 3.84375,7.5 3.84375,22.484375 0,15.046875 -3.84375,22.53125 -3.82813,7.5 -11.500003,7.5 z m 0,7.8125 q 12.265623,0 18.734373,-9.703125 6.46875,-9.6875 6.46875,-28.140625 0,-18.40625 -6.46875,-28.109375 -6.46875,-9.6875 -18.734373,-9.6875 -12.25,0 -18.71875,9.6875 -6.46875,9.703125 -6.46875,28.109375 0,18.453125 6.46875,28.140625 6.46875,9.703125 18.71875,9.703125 z"
                 inkscape:connector-curvature="0"
                 style="stroke-width:1.15966702;stroke-linecap:butt;stroke-linejoin:round" />
            </g>
          </g>
        </g>
        <g
           id="ytick_16"
           style="stroke-width:1.15966702;stroke-linecap:butt;stroke-linejoin:round">
          <g
             id="line2d_33"
             style="stroke-width:1.15966702;stroke-linecap:butt;stroke-linejoin:round">
            <g
               id="g1356"
               style="stroke-width:1.15966702;stroke-linecap:butt;stroke-linejoin:round">
              <path
                 style="stroke:#000000;stroke-width:0.92773366;stroke-linecap:butt;stroke-linejoin:round"
                 id="use1354"
                 d="m 501.35001,182.32001 h -3.5"
                 inkscape:connector-curvature="0" />
            </g>
          </g>
          <g
             id="text_33"
             style="stroke-width:1.15966702;stroke-linecap:butt;stroke-linejoin:round">
            <!-- 40 -->
            <g
               transform="matrix(0.1,0,0,-0.1,481.625,186.11922)"
               id="g1363"
               style="stroke-width:1.15966702;stroke-linecap:butt;stroke-linejoin:round">
              <path
                 id="use1359"
                 d="M 37.796875,64.3125 12.890625,25.390625 h 24.90625 z m -2.59375,8.59375 h 12.40625 V 25.390625 h 10.40625 V 17.1875 H 47.609375 V 0 h -9.8125 V 17.1875 H 4.890625 v 9.515625 z"
                 inkscape:connector-curvature="0"
                 style="stroke-width:1.15966702;stroke-linecap:butt;stroke-linejoin:round" />
              <path
                 id="use1361"
                 d="m 95.404297,66.40625 q -7.609375,0 -11.453125,-7.5 -3.828125,-7.484375 -3.828125,-22.53125 0,-14.984375 3.828125,-22.484375 3.84375,-7.5 11.453125,-7.5 7.671873,0 11.500003,7.5 3.84375,7.5 3.84375,22.484375 0,15.046875 -3.84375,22.53125 -3.82813,7.5 -11.500003,7.5 z m 0,7.8125 q 12.265623,0 18.734373,-9.703125 6.46875,-9.6875 6.46875,-28.140625 0,-18.40625 -6.46875,-28.109375 -6.46875,-9.6875 -18.734373,-9.6875 -12.25,0 -18.71875,9.6875 -6.46875,9.703125 -6.46875,28.109375 0,18.453125 6.46875,28.140625 6.46875,9.703125 18.71875,9.703125 z"
                 inkscape:connector-curvature="0"
                 style="stroke-width:1.15966702;stroke-linecap:butt;stroke-linejoin:round" />
            </g>
          </g>
        </g>
        <g
           id="ytick_17"
           style="stroke-width:1.15966702;stroke-linecap:butt;stroke-linejoin:round">
          <g
             id="line2d_34"
             style="stroke-width:1.15966702;stroke-linecap:butt;stroke-linejoin:round">
            <g
               id="g1369"
               style="stroke-width:1.15966702;stroke-linecap:butt;stroke-linejoin:round">
              <path
                 style="stroke:#000000;stroke-width:0.92773366;stroke-linecap:butt;stroke-linejoin:round"
                 id="use1367"
                 d="m 501.35001,224.2 h -3.5"
                 inkscape:connector-curvature="0" />
            </g>
          </g>
          <g
             id="text_34"
             style="stroke-width:1.15966702;stroke-linecap:butt;stroke-linejoin:round">
            <!-- 50 -->
            <g
               transform="matrix(0.1,0,0,-0.1,481.625,227.99922)"
               id="g1376"
               style="stroke-width:1.15966702;stroke-linecap:butt;stroke-linejoin:round">
              <path
                 id="use1372"
                 d="m 10.796875,72.90625 h 38.71875 v -8.3125 h -29.6875 V 46.734375 q 2.140625,0.734375 4.28125,1.09375 2.15625,0.359375 4.3125,0.359375 Q 40.625,48.1875 47.75,41.5 54.890625,34.8125 54.890625,23.390625 54.890625,11.625 47.5625,5.09375 40.234375,-1.421875 26.90625,-1.421875 q -4.59375,0 -9.359375,0.78125 -4.75,0.78125 -9.828125,2.34375 V 11.625 q 4.390625,-2.390625 9.078125,-3.5625 4.6875,-1.171875 9.90625,-1.171875 8.453125,0 13.375,4.4375 4.9375,4.4375 4.9375,12.0625 0,7.609375 -4.9375,12.046875 -4.921875,4.453125 -13.375,4.453125 -3.953125,0 -7.890625,-0.875 -3.921875,-0.875 -8.015625,-2.734375 z"
                 inkscape:connector-curvature="0"
                 style="stroke-width:1.15966702;stroke-linecap:butt;stroke-linejoin:round" />
              <path
                 id="use1374"
                 d="m 95.404297,66.40625 q -7.609375,0 -11.453125,-7.5 -3.828125,-7.484375 -3.828125,-22.53125 0,-14.984375 3.828125,-22.484375 3.84375,-7.5 11.453125,-7.5 7.671873,0 11.500003,7.5 3.84375,7.5 3.84375,22.484375 0,15.046875 -3.84375,22.53125 -3.82813,7.5 -11.500003,7.5 z m 0,7.8125 q 12.265623,0 18.734373,-9.703125 6.46875,-9.6875 6.46875,-28.140625 0,-18.40625 -6.46875,-28.109375 -6.46875,-9.6875 -18.734373,-9.6875 -12.25,0 -18.71875,9.6875 -6.46875,9.703125 -6.46875,28.109375 0,18.453125 6.46875,28.140625 6.46875,9.703125 18.71875,9.703125 z"
                 inkscape:connector-curvature="0"
                 style="stroke-width:1.15966702;stroke-linecap:butt;stroke-linejoin:round" />
            </g>
          </g>
        </g>
      </g>
      <g
         id="LineCollection_1"
         style="stroke-width:1.15966702;stroke-linecap:butt;stroke-linejoin:round">
        <path
           clip-path="url(#pa0bc4dfd76)"
           d="m 605.89988,213.17895 1.52249,-0.34448 10.60723,-4.24903 10.60724,-4.70599 1.96238,-1.72156 -1.96238,-3.00035 -5.14742,-8.0207 -5.45982,-3.62096 -10.60723,-1.72948 -10.60724,-0.51476 -10.60724,3.95483 -3.24464,1.91037 -5.49806,11.02105 8.7427,8.38218 7.06926,2.63888"
           style="fill:none;stroke:#ffffff;stroke-width:0.57983351;stroke-linecap:butt;stroke-linejoin:round;stroke-opacity:0.5"
           id="path1381"
           inkscape:connector-curvature="0" />
        <path
           clip-path="url(#pa0bc4dfd76)"
           d="m 596.81513,79.588795 -3.89632,1.337521 -6.71092,3.626812 -10.29557,7.39424 10.29557,9.141082 5.72676,1.87997 4.88048,0.95499 10.60724,3.17114 10.60723,-2.75065 3.47803,-1.37548 7.12921,-6.953298 1.92517,-4.067754 -1.92517,-1.797377 -10.60724,-3.877712 -10.60723,-4.41133 -3.02953,-0.934633 -7.57771,-1.337521"
           style="fill:none;stroke:#ffffff;stroke-width:0.57983351;stroke-linecap:butt;stroke-linejoin:round;stroke-opacity:0.5"
           id="path1383"
           inkscape:connector-curvature="0" />
      </g>
      <g
         id="LineCollection_2"
         style="stroke-width:1.15966702;stroke-linecap:butt;stroke-linejoin:round">
        <path
           clip-path="url(#pa0bc4dfd76)"
           d="m 632.73591,213.17895 6.50817,-5.72795 5.53779,-5.29311 -5.53779,-8.20893 -1.91647,-2.81212 -8.69077,-7.96632 -5.48647,-3.05473 -5.12077,-1.64779 -10.60723,-1.52282 -10.60724,-0.0319 -10.60724,3.01482 -0.6589,0.18774 -9.94833,4.39934 -5.89721,6.62171 -4.71003,9.82219 -0.59159,1.19886 0.59159,1.08597 7.55241,9.93509"
           style="fill:none;stroke:#ffffff;stroke-width:0.57983351;stroke-linecap:butt;stroke-linejoin:round;stroke-opacity:0.5"
           id="path1386"
           inkscape:connector-curvature="0" />
        <path
           clip-path="url(#pa0bc4dfd76)"
           d="m 575.60066,80.427713 -1.54684,0.498603 -7.86491,11.021052 5.81425,11.021052 3.5975,3.11387 10.60723,5.42342 10.60724,1.45697 3.27078,1.02679 7.33646,1.95998 10.60723,-1.59407 1.18779,-0.36591 9.41945,-4.00745 10.60724,-5.76043 1.71445,-1.25317 1.95227,-11.021052 -3.66672,-5.761213 -6.29585,-5.259839 -4.31139,-1.463805 -10.60724,-2.848413 -10.60723,-3.308145 -10.60724,-1.508923 -10.60724,3.297376 -10.60723,5.333307"
           style="fill:none;stroke:#ffffff;stroke-width:0.57983351;stroke-linecap:butt;stroke-linejoin:round;stroke-opacity:0.5"
           id="path1388"
           inkscape:connector-curvature="0" />
      </g>
      <g
         id="LineCollection_3"
         style="stroke-width:1.15966702;stroke-linecap:butt;stroke-linejoin:round">
        <path
           clip-path="url(#pa0bc4dfd76)"
           d="m 647.20501,213.17895 2.64631,-2.51238 8.79272,-8.50868 -8.79272,-10.85898 -0.11318,-0.16207 -9.09821,-11.02105 -1.39585,-0.73522 -10.60724,-4.80648 -10.60724,-3.24187 -10.60723,-0.92195 -10.60724,-0.41975 -10.60724,1.96878 -10.60723,3.48767 -8.82139,4.66882 -1.78585,2.04536 -5.08051,8.97569 -5.52673,9.28574 -1.94839,1.73531 1.94839,4.12517 2.87761,6.89589"
           style="fill:none;stroke:#ffffff;stroke-width:0.57983351;stroke-linecap:butt;stroke-linejoin:round;stroke-opacity:0.5"
           id="path1391"
           inkscape:connector-curvature="0" />
        <path
           clip-path="url(#pa0bc4dfd76)"
           d="m 586.20789,67.00659 -6.49438,2.898673 -4.11285,2.011905 -10.60724,3.850746 -6.95442,5.158402 -0.78701,11.021052 1.05749,11.021052 6.68394,7.90447 3.56413,3.11658 7.04311,3.86711 10.60723,2.72622 10.60724,1.5924 10.60724,1.46675 10.60723,-2.2617 10.60724,-3.15162 7.65657,-4.23916 2.95067,-1.80184 10.60724,-7.73762 2.85537,-1.48159 4.85155,-11.021052 -7.39706,-11.021052 -0.30986,-0.23306 -10.60724,-5.952585 -10.60724,-3.982081 -3.30279,-0.853327 -7.30445,-1.901435 -10.60723,-2.988576 -10.60724,-0.678537 -10.60724,2.669875"
           style="fill:none;stroke:#ffffff;stroke-width:0.57983351;stroke-linecap:butt;stroke-linejoin:round;stroke-opacity:0.5"
           id="path1393"
           inkscape:connector-curvature="0" />
      </g>
      <g
         id="LineCollection_4"
         style="stroke-width:1.15966702;stroke-linecap:butt;stroke-linejoin:round">
        <path
           clip-path="url(#pa0bc4dfd76)"
           d="m 567.38956,14.8 8.2111,4.612125 10.19167,5.97715"
           style="fill:none;stroke:#ffffff;stroke-width:0.57983351;stroke-linecap:butt;stroke-linejoin:round;stroke-opacity:0.5"
           id="path1396"
           inkscape:connector-curvature="0" />
        <path
           clip-path="url(#pa0bc4dfd76)"
           d="m 589.39216,25.821053 7.42297,0.637338 10.60724,-0.434566 0.15088,-0.202772"
           style="fill:none;stroke:#ffffff;stroke-width:0.57983351;stroke-linecap:butt;stroke-linejoin:round;stroke-opacity:0.5"
           id="path1398"
           inkscape:connector-curvature="0" />
        <path
           clip-path="url(#pa0bc4dfd76)"
           d="m 661.07789,213.17895 9.9879,-9.00586 1.4982,-2.0152 -1.4982,-3.63142 -5.86047,-7.38963 -4.74677,-3.20522 -6.82709,-7.81583 -3.78014,-2.188 -10.60724,-5.51081 -6.90426,-3.32224 -3.70298,-2.02759 -10.60724,-5.06741 -10.60723,-1.14262 -10.60724,-0.8151 -10.60724,2.64828 -10.60723,5.25734 -2.31566,1.1471 -8.29158,3.71338 -7.01199,7.30767 -3.59525,5.9691 -7.48072,5.05195 -3.12651,2.71332 -5.13177,8.30773 3.9767,11.02106"
           style="fill:none;stroke:#ffffff;stroke-width:0.57983351;stroke-linecap:butt;stroke-linejoin:round;stroke-opacity:0.5"
           id="path1400"
           inkscape:connector-curvature="0" />
        <path
           clip-path="url(#pa0bc4dfd76)"
           d="m 596.81513,55.900395 -9.00542,2.983816 -1.60182,0.357142 -10.60723,3.991474 -10.60724,3.940679 -7.8399,2.731757 -2.76734,1.324601 -10.60723,8.681341 -1.33302,1.015111 -2.96004,11.021052 4.07548,11.021052 0.21758,0.11576 10.25571,10.90529 0.35152,0.18882 10.60724,5.49433 8.63058,5.33791 1.97666,1.29133 10.60723,2.75985 10.60724,1.78625 10.60724,0.58593 10.60723,-2.37133 10.60724,-3.40653 0.90995,-0.6455 9.69729,-5.03214 8.56212,-5.98892 2.04512,-1.48812 10.60723,-5.30049 7.03938,-4.23244 3.56786,-7.248865 2.1103,-3.772187 -2.1103,-2.278021 -8.9667,-8.743031 -1.64054,-0.865375 -10.60723,-7.90371 -4.15141,-2.251968 -6.45583,-4.213823 -10.60724,-3.785742 -10.60724,-2.671384 -1.37823,-0.350103 -9.229,-6.068498 -10.60724,3.084682"
           style="fill:none;stroke:#ffffff;stroke-width:0.57983351;stroke-linecap:butt;stroke-linejoin:round;stroke-opacity:0.5"
           id="path1402"
           inkscape:connector-curvature="0" />
      </g>
      <g
         id="LineCollection_5"
         style="stroke-width:1.15966702;stroke-linecap:butt;stroke-linejoin:round">
        <path
           clip-path="url(#pa0bc4dfd76)"
           d="m 552.85568,14.8 1.5305,0.92459 10.60724,6.711574 6.71083,3.384889 3.89641,2.474474 10.33372,8.546578 0.27351,4.629442 0.87032,6.391611 -0.87032,0.304736 -10.60723,4.498363 -10.60724,3.524418 -7.07364,2.693536 -3.5336,1.238723 -9.89945,9.782329 -0.70778,0.611576 -10.60724,8.077532 -4.00335,2.331945 -6.60389,6.134461 -8.10201,4.886591 5.59483,11.021052 2.50718,1.33015 10.60724,4.75084 7.08119,4.94006 3.52605,2.01514 10.60723,5.52775 6.70716,3.47817 3.90008,2.49926 10.60724,6.56919 6.80211,1.9526 3.80512,2.68666 8.80115,8.33439 -8.80115,4.93012 -9.50777,6.09093 -1.09946,0.5786 -10.60724,6.23862 -6.70981,4.20384 -3.89743,4.06783 -10.60723,5.70498 -3.40282,1.24824 -7.20442,3.88175 -10.60724,5.04003 -3.8272,2.09927 -5.32035,11.02105 9.14755,4.28781 6.12488,6.73325"
           style="fill:none;stroke:#ffffff;stroke-width:0.57983351;stroke-linecap:butt;stroke-linejoin:round;stroke-opacity:0.5"
           id="path1405"
           inkscape:connector-curvature="0" />
        <path
           clip-path="url(#pa0bc4dfd76)"
           d="m 682.53177,201.26564 -0.85874,-1.80074 -4.48864,-8.32806 -6.1186,-7.96485 -4.0316,-3.0562 -6.57564,-3.56342 -10.60723,-5.83936 -3.1841,-1.61827 -7.42314,-4.15623 -10.60724,-5.7954 -1.89581,-1.06943 -8.71143,-8.03816 -10.60723,-2.75431 -1.56406,-0.22858 1.56406,-0.3991 10.60723,-5.95687 10.60724,-3.9272 0.28181,-0.73788 10.32543,-7.37884 4.56681,-3.64221 6.04043,-3.99053 10.60723,-5.46733 3.30307,-1.5632 7.30417,-4.06638 10.60724,-6.11964 0.94707,-0.83503 8.20798,-11.021052 -9.15505,-9.435448 -1.45974,-1.585604 -9.1475,-4.014028 -10.60724,-6.188461 -1.12874,-0.818564 -9.47849,-7.561301 -5.30056,-3.459751 -5.30668,-3.067365 -10.60724,-3.078289 -4.8454,-4.875399 4.8454,-8.64803 1.32958,-2.373023 4.08061,-11.021052"
           style="fill:none;stroke:#ffffff;stroke-width:0.57983351;stroke-linecap:butt;stroke-linejoin:round;stroke-opacity:0.5"
           id="path1407"
           inkscape:connector-curvature="0" />
        <path
           clip-path="url(#pa0bc4dfd76)"
           d="m 677.73697,213.17895 3.93606,-6.32242"
           style="fill:none;stroke:#ffffff;stroke-width:0.57983351;stroke-linecap:butt;stroke-linejoin:round;stroke-opacity:0.5"
           id="path1409"
           inkscape:connector-curvature="0" />
      </g>
      <g
         id="LineCollection_6"
         style="stroke-width:1.15966702;stroke-linecap:butt;stroke-linejoin:round">
        <path
           clip-path="url(#pa0bc4dfd76)"
           d="m 538.3218,14.8 5.45715,2.888319 10.60723,6.816322 2.03961,1.316412 8.56763,6.119821 7.02116,4.901231 -7.02116,7.029443 -7.10606,3.99161 -3.50118,1.51614 -8.89605,9.504913 -1.71118,1.697173 -10.60724,8.618621 -1.21075,0.705258 -9.39649,5.473442 -10.60723,2.969517 -2.32423,2.578094 -6.2989,11.021052 -1.98411,2.681586"
           style="fill:none;stroke:#ffffff;stroke-width:0.57983351;stroke-linecap:butt;stroke-linejoin:round;stroke-opacity:0.5"
           id="path1412"
           inkscape:connector-curvature="0" />
        <path
           clip-path="url(#pa0bc4dfd76)"
           d="m 692.28026,77.113734 -10.60723,-3.512658 -8.17011,-3.695813 -2.43713,-1.11526 -10.60724,-7.022245 -3.47632,-2.883547 -7.13091,-6.513 -8.32914,-4.508053 -2.2781,-10.891359 -0.0139,-0.129694 0.0139,-0.02472 7.63529,-10.996335"
           style="fill:none;stroke:#ffffff;stroke-width:0.57983351;stroke-linecap:butt;stroke-linejoin:round;stroke-opacity:0.5"
           id="path1414"
           inkscape:connector-curvature="0" />
        <path
           clip-path="url(#pa0bc4dfd76)"
           d="m 501.35,138.93444 0.19134,-2.90286 1.12998,-11.02105 3.37689,-11.02106 5.90903,-5.65147 10.60723,5.16754 1.01621,0.48393 9.59103,3.78615 10.60724,6.25987 1.98601,0.97504 8.62122,4.96053 9.67186,6.06052 0.93538,1.28338 8.29871,9.73767 -8.29871,9.17773 -1.5474,1.84332 -9.05984,4.97276 -9.23411,6.0483 -1.37312,0.89241 -10.60724,5.15334 -10.60724,3.40335 -7.22853,1.57195 -3.3787,1.49278 -5.18936,9.52827 -0.89075,11.02105 3.80995,11.02106"
           style="fill:none;stroke:#ffffff;stroke-width:0.57983351;stroke-linecap:butt;stroke-linejoin:round;stroke-opacity:0.5"
           id="path1416"
           inkscape:connector-curvature="0" />
        <path
           clip-path="url(#pa0bc4dfd76)"
           d="m 687.54088,196.06112 -2.34831,-4.92428 -3.51954,-7.98993 -2.09852,-3.03112 -8.50872,-5.46624 -9.88777,-5.55481 -0.71947,-0.4024 -10.60723,-5.62627 -8.75042,-4.99239 -1.36992,-11.02105 2.59629,-11.02105 7.52405,-6.27683 7.79323,-4.74422 2.814,-1.53679 10.60724,-4.79726 10.01957,-4.68701 0.58767,-0.32594 10.60723,-9.07813"
           style="fill:none;stroke:#ffffff;stroke-width:0.57983351;stroke-linecap:butt;stroke-linejoin:round;stroke-opacity:0.5"
           id="path1418"
           inkscape:connector-curvature="0" />
      </g>
      <g
         id="LineCollection_7"
         style="stroke-width:1.15966702;stroke-linecap:butt;stroke-linejoin:round">
        <path
           clip-path="url(#pa0bc4dfd76)"
           d="m 521.96973,15.417949 0.59474,0.04809 10.60724,4.201044 10.60724,5.713616 0.66923,0.440349 9.938,9.211955 2.67272,1.809097 -2.67272,1.793556 -8.50746,9.227497 -2.09977,2.242539 -9.48602,8.778514 -1.12122,0.921427 -10.60724,6.178701 -10.60723,3.849416 -0.0983,0.07151 -9.90575,11.021053 -0.60317,0.993047"
           style="fill:none;stroke:#ffffff;stroke-width:0.57983351;stroke-linecap:butt;stroke-linejoin:round;stroke-opacity:0.5"
           id="path1421"
           inkscape:connector-curvature="0" />
        <path
           clip-path="url(#pa0bc4dfd76)"
           d="m 692.28026,67.905399 -10.60723,-2.255655 -10.60724,-4.903437 -2.70373,-1.862096 -7.90351,-6.425127 -5.00903,-4.595926 -5.5982,-9.337823 -0.94378,-1.68323 0.94378,-1.28154 10.0076,-9.739512"
           style="fill:none;stroke:#ffffff;stroke-width:0.57983351;stroke-linecap:butt;stroke-linejoin:round;stroke-opacity:0.5"
           id="path1423"
           inkscape:connector-curvature="0" />
        <path
           clip-path="url(#pa0bc4dfd76)"
           d="m 692.28026,190.2779 -4.6321,-10.16211 -5.97513,-7.56551 -6.21175,-3.45554 -4.39549,-2.01556 -10.60724,-5.91695 -5.66643,-3.08855 -4.9408,-8.08104 -1.16519,-2.94001 1.16519,-3.42053 5.6244,-7.60052 4.98283,-2.65778 10.60724,-5.42434 4.04651,-2.93893 6.56073,-3.1469 10.60723,-5.83727"
           style="fill:none;stroke:#ffffff;stroke-width:0.57983351;stroke-linecap:butt;stroke-linejoin:round;stroke-opacity:0.5"
           id="path1425"
           inkscape:connector-curvature="0" />
        <path
           clip-path="url(#pa0bc4dfd76)"
           d="m 511.95724,118.05549 10.60723,2.31717 9.86165,4.63787 0.74559,0.45364 10.60724,6.80014 5.95782,3.76727 4.64941,6.11202 3.72918,4.90903 -3.72918,4.31567 -5.36333,6.70538 -5.2439,3.58953 -10.60724,6.22612 -3.03298,1.20541 -7.57426,2.53061 -10.60723,2.27734 -6.36789,-4.80795 -1.75678,-11.02106 0.0188,-11.02105 1.37457,-11.02105 2.75007,-11.02105 3.98122,-6.95504"
           style="fill:none;stroke:#ffffff;stroke-width:0.57983351;stroke-linecap:butt;stroke-linejoin:round;stroke-opacity:0.5"
           id="path1427"
           inkscape:connector-curvature="0" />
      </g>
      <g
         id="LineCollection_8"
         style="stroke-width:1.15966702;stroke-linecap:butt;stroke-linejoin:round">
        <path
           clip-path="url(#pa0bc4dfd76)"
           d="m 514.82445,22.841983 7.74002,0.62591 6.52972,2.35316 4.07752,2.543959 9.47591,8.477093 -7.17157,11.021053 -2.30434,2.15088 -10.60724,6.753636 -4.27837,2.116537 -6.32886,2.905848 -10.60724,7.485475"
           style="fill:none;stroke:#ffffff;stroke-width:0.57983351;stroke-linecap:butt;stroke-linejoin:round;stroke-opacity:0.5"
           id="path1430"
           inkscape:connector-curvature="0" />
        <path
           clip-path="url(#pa0bc4dfd76)"
           d="m 692.28026,56.765374 -10.60723,0.721048 -10.60724,-5.231575 -5.26822,-4.391689 -1.40542,-11.021053 6.67364,-7.735716 3.5607,-3.285336"
           style="fill:none;stroke:#ffffff;stroke-width:0.57983351;stroke-linecap:butt;stroke-linejoin:round;stroke-opacity:0.5"
           id="path1432"
           inkscape:connector-curvature="0" />
        <path
           clip-path="url(#pa0bc4dfd76)"
           d="m 692.28026,174.32615 -3.6517,-5.23141 -6.95553,-4.95757 -10.60724,-4.64691 -2.54987,-1.41658 -6.91508,-11.02105 9.46495,-6.87694 5.31968,-4.14411 5.28756,-3.94793 10.60723,-6.22326"
           style="fill:none;stroke:#ffffff;stroke-width:0.57983351;stroke-linecap:butt;stroke-linejoin:round;stroke-opacity:0.5"
           id="path1434"
           inkscape:connector-curvature="0" />
        <path
           clip-path="url(#pa0bc4dfd76)"
           d="m 511.95724,127.56513 10.60723,0.65203 10.60724,5.96323 2.97956,1.85119 7.62768,9.73031 0.97316,1.29074 -0.97316,1.24657 -7.91149,9.77448 -2.69575,1.58586 -10.60724,4.3202 -10.60723,2.78827 -4.34959,-8.69433 -0.82991,-11.02105 2.13281,-11.02105 3.04669,-8.46645"
           style="fill:none;stroke:#ffffff;stroke-width:0.57983351;stroke-linecap:butt;stroke-linejoin:round;stroke-opacity:0.5"
           id="path1436"
           inkscape:connector-curvature="0" />
      </g>
      <g
         id="LineCollection_9"
         style="stroke-width:1.15966702;stroke-linecap:butt;stroke-linejoin:round">
        <path
           clip-path="url(#pa0bc4dfd76)"
           d="m 511.89456,36.907229 0.0627,0.0035 10.60723,8.751047 0.35987,2.20139 -0.35987,0.237793 -10.60723,5.269963 -10.60724,3.205228"
           style="fill:none;stroke:#ffffff;stroke-width:0.57983351;stroke-linecap:butt;stroke-linejoin:round;stroke-opacity:0.5"
           id="path1439"
           inkscape:connector-curvature="0" />
        <path
           clip-path="url(#pa0bc4dfd76)"
           d="m 692.28026,45.300135 -9.4442,2.563023 -1.16303,0.250437 -0.54755,-0.250437 -2.56109,-11.021053 3.10864,-2.951323 4.90996,-2.968213"
           style="fill:none;stroke:#ffffff;stroke-width:0.57983351;stroke-linecap:butt;stroke-linejoin:round;stroke-opacity:0.5"
           id="path1441"
           inkscape:connector-curvature="0" />
        <path
           clip-path="url(#pa0bc4dfd76)"
           d="m 692.28026,160.68735 -4.98098,-2.61367 -0.59403,-11.02105 5.57501,-10.33094"
           style="fill:none;stroke:#ffffff;stroke-width:0.57983351;stroke-linecap:butt;stroke-linejoin:round;stroke-opacity:0.5"
           id="path1443"
           inkscape:connector-curvature="0" />
        <path
           clip-path="url(#pa0bc4dfd76)"
           d="m 511.95724,138.05485 10.60723,2.50912 7.233,6.48866 -7.233,6.20164 -6.76265,4.81941 -3.84458,1.14836 -0.5745,-1.14836 -1.67864,-11.02105 2.25314,-8.99778"
           style="fill:none;stroke:#ffffff;stroke-width:0.57983351;stroke-linecap:butt;stroke-linejoin:round;stroke-opacity:0.5"
           id="path1445"
           inkscape:connector-curvature="0" />
      </g>
      <g
         id="patch_13"
         style="stroke-width:1.15966702;stroke-linecap:butt;stroke-linejoin:round">
        <path
           d="M 501.35,224.2 V 14.8"
           style="fill:none;stroke:#000000;stroke-width:0.92773366;stroke-linecap:square;stroke-linejoin:miter"
           id="path1448"
           inkscape:connector-curvature="0" />
      </g>
      <g
         id="patch_14"
         style="stroke-width:1.15966702;stroke-linecap:butt;stroke-linejoin:round">
        <path
           d="M 702.8875,224.2 V 14.8"
           style="fill:none;stroke:#000000;stroke-width:0.92773366;stroke-linecap:square;stroke-linejoin:miter"
           id="path1451"
           inkscape:connector-curvature="0" />
      </g>
      <g
         id="patch_15"
         style="stroke-width:1.15966702;stroke-linecap:butt;stroke-linejoin:round">
        <path
           d="M 501.35,224.2 H 702.8875"
           style="fill:none;stroke:#000000;stroke-width:0.92773366;stroke-linecap:square;stroke-linejoin:miter"
           id="path1454"
           inkscape:connector-curvature="0" />
      </g>
      <g
         id="patch_16"
         style="stroke-width:1.15966702;stroke-linecap:butt;stroke-linejoin:round">
        <path
           d="M 501.35,14.8 H 702.8875"
           style="fill:none;stroke:#000000;stroke-width:0.92773366;stroke-linecap:square;stroke-linejoin:miter"
           id="path1457"
           inkscape:connector-curvature="0" />
      </g>
    </g>
  </g>
  <defs
     id="defs1471">
    <clipPath
       id="p25f7bf540b"
       style="stroke-linecap:butt;stroke-linejoin:round">
      <rect
         height="201.53751"
         width="201.53751"
         x="30.424999"
         y="18.731251"
         id="rect1462"
         style="stroke-linecap:butt;stroke-linejoin:round" />
    </clipPath>
    <clipPath
       id="pbd34d13f69"
       style="stroke-linecap:butt;stroke-linejoin:round">
      <rect
         height="209.39999"
         width="201.53751"
         x="265.88751"
         y="14.8"
         id="rect1465"
         style="stroke-linecap:butt;stroke-linejoin:round" />
    </clipPath>
    <clipPath
       id="pa0bc4dfd76"
       style="stroke-linecap:butt;stroke-linejoin:round">
      <rect
         height="209.39999"
         width="201.53751"
         x="501.35001"
         y="14.8"
         id="rect1468"
         style="stroke-linecap:butt;stroke-linejoin:round" />
    </clipPath>
  </defs>
</svg>
