<?xml version="1.0" encoding="UTF-8" standalone="no"?>
<svg
   xmlns:sketch="http://www.bohemiancoding.com/sketch/ns"
   xmlns:dc="http://purl.org/dc/elements/1.1/"
   xmlns:cc="http://creativecommons.org/ns#"
   xmlns:rdf="http://www.w3.org/1999/02/22-rdf-syntax-ns#"
   xmlns:svg="http://www.w3.org/2000/svg"
   xmlns="http://www.w3.org/2000/svg"
   xmlns:sodipodi="http://sodipodi.sourceforge.net/DTD/sodipodi-0.dtd"
   xmlns:inkscape="http://www.inkscape.org/namespaces/inkscape"
   width="200"
   height="200"
   viewBox="0 0 200 200"
   version="1.1"
   id="svg25"
   sodipodi:docname="jupyter-logo.svg"
   inkscape:version="0.92.2 (5c3e80d, 2017-08-06)">
  <metadata
     id="metadata29">
    <rdf:RDF>
      <cc:Work
         rdf:about="">
        <dc:format>image/svg+xml</dc:format>
        <dc:type
           rdf:resource="http://purl.org/dc/dcmitype/StillImage" />
        <dc:title>Artboard</dc:title>
      </cc:Work>
    </rdf:RDF>
  </metadata>
  <sodipodi:namedview
     pagecolor="#ffffff"
     bordercolor="#666666"
     borderopacity="1"
     objecttolerance="10"
     gridtolerance="10"
     guidetolerance="10"
     inkscape:pageopacity="0"
     inkscape:pageshadow="2"
     inkscape:window-width="1920"
     inkscape:window-height="1001"
     id="namedview27"
     showgrid="false"
     inkscape:zoom="1.5982681"
     inkscape:cx="373.5"
     inkscape:cy="156.5"
     inkscape:window-x="-9"
     inkscape:window-y="-9"
     inkscape:window-maximized="1"
     inkscape:current-layer="svg25" />
  <!-- Generator: Sketch 3.3.3 (12072) - http://www.bohemiancoding.com/sketch -->
  <title
     id="title2">Artboard</title>
  <desc
     id="desc4">Created with Sketch.</desc>
  <defs
     id="defs6" />
  <g
     id="Page-1"
     sketch:type="MSPage"
     style="fill:none;fill-rule:evenodd;stroke:none;stroke-width:1.56527412"
     transform="matrix(0.63886572,0,0,0.63886572,-139.85612,0.87759519)">
    <g
       id="Artboard"
       sketch:type="MSArtboardGroup"
       style="stroke-width:1.56527412">
      <g
         id="Group-Copy-4-+-Group-+-Group-Copy"
         sketch:type="MSLayerGroup"
         style="stroke-width:1.56527412">
        <g
           id="Group-Copy-4"
           transform="translate(248,26)"
           sketch:type="MSShapeGroup"
           style="stroke-width:1.56527412">
          <path
             d="m 131.25734,205.27361 c -42.589724,0 -79.67695,-15.3113 -98.984437,-37.93323 14.611124,40.55416 53.410729,69.54891 98.984437,69.54891 45.5737,0 84.37396,-28.99475 98.98508,-69.54891 -19.30749,22.62193 -56.39471,37.93323 -98.98508,37.93323"
             id="Fill-9"
             inkscape:connector-curvature="0"
             style="fill:#e46e2e;stroke-width:1.56527412" />
          <path
             d="m 131.25734,58.040504 c 42.59037,0 79.67759,15.311947 98.98508,37.933227 -14.61112,-40.554155 -53.41138,-69.548909 -98.98508,-69.548909 -45.573708,0 -84.373313,28.994754 -98.984437,69.548909 C 51.58039,73.352451 88.667616,58.040504 131.25734,58.040504"
             id="Fill-10"
             inkscape:connector-curvature="0"
             style="fill:#e46e2e;stroke-width:1.56527412" />
          <path
             d="m 51.456544,259.8646 c -9.131717,0.391 -16.851591,-6.69447 -17.242593,-15.8261 -0.391643,-9.13163 6.694538,-16.85143 15.826255,-17.24307 9.131717,-0.391 16.851591,6.69448 17.242593,15.8261 0.391643,9.13163 -6.693896,16.85207 -15.826255,17.24307 z"
             id="Fill-11"
             inkscape:connector-curvature="0"
             style="fill:#767474;stroke-width:1.56527412" />
          <path
             d="m 38.757399,44.365096 c -5.707207,0.24434 -10.532582,-4.184075 -10.776913,-9.891489 -0.244331,-5.708072 4.183924,-10.532964 9.89113,-10.777304 5.707866,-0.244998 10.533241,4.184076 10.777572,9.891489 0.244331,5.707414 -4.183924,10.532964 -9.891789,10.777304 z"
             id="Fill-12"
             inkscape:connector-curvature="0"
             style="fill:#767474;stroke-width:1.56527412" />
          <path
             d="m 202.98198,32.109949 c -8.86307,0.379485 -16.35595,-6.49699 -16.73544,-15.360137 -0.37948,-8.8623956 6.49769,-16.35534634 15.36001,-16.73483119 8.86307,-0.37948484 16.35521,6.49699049 16.73469,15.36013619 0.38023,8.862396 -6.49694,16.355347 -15.35926,16.734832 z"
             id="Fill-8"
             inkscape:connector-curvature="0"
             style="fill:#767474;stroke-width:1.56527412" />
          <g
             id="Group-Copy"
             transform="translate(0,100.8707)"
             style="fill:#313940;stroke-width:1.56527412">
            <path
               d="m 10.91034,44.748983 c 0,9.531774 -0.744977,12.653903 -2.7325896,14.954341 -1.7380297,1.889591 -4.6357511,2.793602 -7.94743265,3.040558 l 0.74497755,5.669523 c 3.8907735,0 9.1900677,-1.314856 12.4188057,-4.519304 3.559756,-3.615294 4.801637,-8.627763 4.801637,-16.351516 V 11.470469 H 10.91034 v 33.278514"
               id="Fill-1"
               inkscape:connector-curvature="0"
               style="stroke-width:1.56527412" />
            <path
               d="m 65.305012,40.394317 c 0,4.10771 0.08219,7.723752 0.331017,10.845881 h -6.458231 l -0.413961,-6.491215 h -0.165131 c -1.904669,3.204448 -6.127214,7.394477 -13.246727,7.394477 -6.292345,0 -13.826572,-3.450656 -13.826572,-17.418667 V 11.470469 h 7.286152 v 22.021038 c 0,7.559115 2.317876,12.654651 8.941239,12.654651 4.884579,0 8.279204,-3.369085 9.604027,-6.574282 0.413961,-1.0679 0.662035,-2.382756 0.662035,-3.697612 V 11.470469 h 7.286152 v 28.923848"
               id="Fill-2"
               inkscape:connector-curvature="0"
               style="stroke-width:1.56527412" />
            <path
               d="m 79.049395,24.452898 c 0,-5.094039 -0.165131,-9.203246 -0.331017,-12.982429 h 6.54042 l 0.331018,6.819742 h 0.165885 c 2.980665,-4.847832 7.699359,-7.723753 14.239779,-7.723753 9.68697,0 16.97237,8.134598 16.97237,20.213766 0,14.297286 -8.77611,21.363236 -18.214251,21.363236 -5.298539,0 -9.935045,-2.300437 -12.335863,-6.244258 h -0.165132 v 21.610193 h -7.203209 z m 7.203209,10.599674 c 0,1.068648 0.165132,2.054978 0.331018,2.95824 1.324069,5.012469 5.7125,8.463125 10.928097,8.463125 7.699361,0 12.170731,-6.244258 12.170731,-15.365186 0,-7.969961 -4.22254,-14.790451 -11.921903,-14.790451 -4.967522,0 -9.604027,3.533724 -11.011794,8.95629 -0.248074,0.904011 -0.496149,1.971911 -0.496149,2.95824 z"
               id="Fill-3"
               inkscape:connector-curvature="0"
               style="stroke-width:1.56527412" />
            <path
               d="m 129.88431,11.470469 8.77611,23.500532 c 0.91086,2.629713 1.90391,5.751094 2.5667,8.134599 h 0.16513 c 0.74573,-2.383505 1.57366,-5.423315 2.56671,-8.299236 l 7.94818,-23.335895 h 7.69936 l -10.92809,28.348364 c -5.21636,13.639484 -8.77611,20.624612 -13.74363,24.89696 -3.55976,3.122129 -7.12027,4.354666 -8.94124,4.683193 l -1.82173,-6.07962 c 1.82173,-0.575484 4.22255,-1.726451 6.37529,-3.533724 1.98686,-1.561813 4.47062,-4.355415 6.12646,-8.052279 0.33102,-0.739373 0.57909,-1.314857 0.57909,-1.725702 0,-0.411595 -0.16513,-0.985582 -0.4969,-1.889592 l -14.81887,-36.6476 h 7.94743"
               id="Fill-4"
               inkscape:connector-curvature="0"
               style="stroke-width:1.56527412" />
            <path
               d="M 178.76705,0.04910345 V 11.470469 H 189.199 v 5.505633 h -10.43195 v 21.445556 c 0,4.93015 1.40777,7.7245 5.46443,7.7245 1.90391,0 3.31168,-0.246956 4.22254,-0.493164 l 0.33102,5.422567 c -1.40777,0.575483 -3.6427,0.986329 -6.45748,0.986329 -3.39462,0 -6.12721,-1.0679 -7.86599,-3.039811 -2.06905,-2.137296 -2.81478,-5.670271 -2.81478,-10.354213 V 16.976102 h -6.20865 v -5.505633 h 6.20865 V 1.9386951 l 7.12026,-1.88959165"
               id="Fill-5"
               inkscape:connector-curvature="0"
               style="stroke-width:1.56527412" />
            <path
               d="m 202.61161,32.669816 c 0.16513,9.777981 6.45823,13.804121 13.74363,13.804121 5.2156,0 8.3614,-0.903262 11.09399,-2.054229 l 1.24188,5.176358 c -2.56671,1.150967 -6.95438,2.465824 -13.32967,2.465824 -12.33587,0 -19.70421,-8.053028 -19.70421,-20.049128 0,-11.996849 7.11951,-21.446304 18.7941,-21.446304 13.08084,0 16.55765,11.421365 16.55765,18.734272 0,1.479494 -0.16513,2.629713 -0.24807,3.369086 z m 21.36005,-5.176359 c 0.0829,-4.601623 -1.90392,-11.75064 -10.10018,-11.75064 -7.36834,0 -10.59783,6.738171 -11.17692,11.75064 z"
               id="Fill-6"
               inkscape:connector-curvature="0"
               style="stroke-width:1.56527412" />
            <path
               d="m 241.69051,23.877415 c 0,-4.683194 -0.0829,-8.710082 -0.33177,-12.406946 h 6.37529 l 0.24883,7.806071 h 0.33101 c 1.82098,-5.340996 6.20941,-8.710082 11.09399,-8.710082 0.82792,0 1.40776,0.08232 2.0698,0.246957 v 6.819741 c -0.74498,-0.163889 -1.49071,-0.246208 -2.48376,-0.246208 -5.13341,0 -8.77611,3.861502 -9.76916,9.284069 -0.16589,0.986329 -0.33177,2.137297 -0.33177,3.369086 v 21.200095 h -7.20246 V 23.877415"
               id="Fill-7"
               inkscape:connector-curvature="0"
               style="stroke-width:1.56527412" />
          </g>
        </g>
      </g>
    </g>
  </g>
</svg>
