<?xml version="1.0" encoding="utf-8"?>
<svg viewBox="0 0 500 500" xmlns="http://www.w3.org/2000/svg">
  <g id="g3300" style="opacity:0.7" transform="matrix(1, 0, 0, 1, 29.587612, 68.074951)">
    <g enable-background="new" id="g3298">
      <g id="g3204">
        <polygon points="26.767,252.926 25.86,207.667 70.482,215.535 71.39,260.794 " id="polygon3202" style="fill:#ffd65d"/>
      </g>
      <g id="g3208">
        <polygon points="25.876,253.225 25.886,253.69 3.356,271.175 3.347,270.709 " id="polygon3206" style="fill:#7a88cc"/>
      </g>
      <g id="g3212">
        <polygon points="25.886,253.69 26.336,253.77 3.806,271.254 3.356,271.175 " id="polygon3210" style="fill:#7684ca"/>
      </g>
      <g id="g3216">
        <path d="m 70.914,214.692 0.442,0.078 0.009,0.457 0.926,46.181 0.009,0.466 -0.442,-0.078 -45.522,-8.026 -0.45,-0.079 -0.009,-0.466 -0.926,-46.182 -0.009,-0.457 0.45,0.079 z m 0.476,46.102 -0.907,-45.259 -44.623,-7.868 0.907,45.259 44.623,7.868" id="path3214" style="fill:#6272c3"/>
      </g>
      <g id="g3220">
        <polygon points="24.951,207.043 25.876,253.225 3.347,270.709 2.421,224.527 " id="polygon3218" style="fill:#7a88cc"/>
      </g>
      <g id="g3224">
        <polygon points="24.941,206.586 24.951,207.043 2.421,224.527 2.412,224.07 " id="polygon3222" style="fill:#7a88cc"/>
      </g>
      <g id="g3228">
        <polygon points="26.767,252.926 4.237,270.41 3.33,225.151 25.86,207.667 " id="polygon3226" style="fill:#7a88cc"/>
      </g>
      <g id="g3232">
        <polygon points="25.86,207.667 26.767,252.926 4.237,270.41 3.33,225.151 " id="polygon3230" style="fill:#ffdd77"/>
      </g>
      <g id="g3236">
        <polygon points="25.392,206.665 2.862,224.149 2.412,224.07 24.941,206.586 " id="polygon3234" style="fill:#7684ca"/>
      </g>
      <g id="g3240">
        <polygon points="26.336,253.77 71.858,261.796 49.328,279.28 3.806,271.254 " id="polygon3238" style="fill:#7684ca"/>
      </g>
      <g id="g3244">
        <polygon points="26.767,252.926 71.39,260.794 48.86,278.278 4.237,270.41 " id="polygon3242" style="fill:#ffdc72"/>
      </g>
      <g id="g3248">
        <polygon points="71.39,260.794 48.86,278.278 4.237,270.41 26.767,252.926 " id="polygon3246" style="fill:#7684ca"/>
      </g>
      <g id="g3252">
        <polygon points="71.858,261.796 72.3,261.874 49.77,279.358 49.328,279.28 " id="polygon3250" style="fill:#7684ca"/>
      </g>
      <g id="g3256">
        <polygon points="72.3,261.874 49.77,279.358 49.761,278.893 72.291,261.408 " id="polygon3254" style="fill:#7a88cc"/>
      </g>
      <g id="g3260">
        <polygon points="25.86,207.667 70.482,215.535 47.953,233.02 3.33,225.151 " id="polygon3258" style="fill:#7684ca"/>
      </g>
      <g id="g3264">
        <polygon points="70.482,215.535 47.953,233.02 3.33,225.151 25.86,207.667 " id="polygon3262" style="fill:#ffdc72"/>
      </g>
      <g id="g3268">
        <polygon points="70.482,215.535 71.39,260.794 48.86,278.278 47.953,233.02 " id="polygon3266" style="fill:#7a88cc"/>
      </g>
      <g id="g3272">
        <polygon points="71.39,260.794 48.86,278.278 47.953,233.02 70.482,215.535 " id="polygon3270" style="fill:#ffdd77"/>
      </g>
      <g id="g3276">
        <path d="m 48.384,232.177 0.442,0.078 0.009,0.457 0.926,46.181 0.009,0.466 -0.442,-0.078 -45.522,-8.026 -0.45,-0.079 -0.009,-0.466 -0.926,-46.182 -0.009,-0.457 0.45,0.079 z m 0.476,46.101 -0.907,-45.259 -44.623,-7.868 0.907,45.259 44.623,7.868" id="path3274" style="fill:#6272c3"/>
      </g>
      <g id="g3280">
        <polygon points="4.237,270.41 3.33,225.151 47.953,233.02 48.86,278.278 " id="polygon3278" style="stroke-width: 4px; stroke: rgb(0, 0, 0); fill: rgba(250, 0, 25, 0.8);"/>
      </g>
      <g id="g3284">
        <polygon points="70.914,214.692 48.384,232.177 2.862,224.149 25.392,206.665 " id="polygon3282" style="fill:#7684ca"/>
      </g>
      <g id="g3288">
        <polygon points="72.291,261.408 49.761,278.893 48.835,232.712 71.365,215.228 " id="polygon3286" style="fill:#7a88cc"/>
      </g>
      <g id="g3292">
        <polygon points="71.355,214.771 48.826,232.255 48.384,232.177 70.914,214.692 " id="polygon3290" style="fill:#7684ca"/>
      </g>
      <g id="g3296">
        <polygon points="71.365,215.228 48.835,232.712 48.826,232.255 71.355,214.771 " id="polygon3294" style="fill:#7a88cc"/>
      </g>
    </g>
  </g>
  <g id="g3400" style="opacity:0.7" transform="matrix(1, 0, 0, 1, 29.587612, 68.074951)">
    <g enable-background="new" id="g3398">
      <g id="g3304">
        <polygon points="179.642,280.717 178.735,235.458 223.365,243.327 224.272,288.586 " id="polygon3302" style="fill:#ffd65d"/>
      </g>
      <g id="g3308">
        <polygon points="178.759,281.017 178.769,281.482 156.239,298.966 156.23,298.501 " id="polygon3306" style="fill:#7a88cc"/>
      </g>
      <g id="g3312">
        <polygon points="178.769,281.482 179.219,281.562 156.689,299.046 156.239,298.966 " id="polygon3310" style="fill:#7684ca"/>
      </g>
      <g id="g3316">
        <polygon points="177.834,234.844 178.759,281.017 156.23,298.501 155.304,252.328 " id="polygon3314" style="fill:#7a88cc"/>
      </g>
      <g id="g3320">
        <polygon points="179.642,280.717 157.112,298.201 156.205,252.942 178.734,235.458 " id="polygon3318" style="fill:#7a88cc"/>
      </g>
      <g id="g3324">
        <polygon points="178.735,235.458 179.642,280.717 157.112,298.201 156.205,252.942 " id="polygon3322" style="fill:#ffdd77"/>
      </g>
      <g id="g3328">
        <polygon points="177.834,234.844 177.86,236.137 178.734,235.458 223.365,243.327 224.272,288.586 179.642,280.717 178.767,281.396 178.769,281.482 179.219,281.562 224.733,289.587 225.183,289.666 225.173,289.2 224.248,243.027 224.238,242.563 223.789,242.482 178.274,234.457 177.824,234.378 " id="polygon3326" style="fill:#6272c3"/>
      </g>
      <g id="g3332">
        <polygon points="177.824,234.378 177.834,234.844 155.304,252.328 155.295,251.862 " id="polygon3330" style="fill:#7a88cc"/>
      </g>
      <g id="g3336">
        <polygon points="178.274,234.457 155.745,251.941 155.295,251.862 177.824,234.378 " id="polygon3334" style="fill:#7684ca"/>
      </g>
      <g id="g3340">
        <polygon points="179.219,281.562 224.733,289.587 202.203,307.071 156.689,299.046 " id="polygon3338" style="fill:#7684ca"/>
      </g>
      <g id="g3344">
        <polygon points="179.642,280.717 224.272,288.586 201.743,306.07 157.112,298.201 " id="polygon3342" style="fill:#ffdc72"/>
      </g>
      <g id="g3348">
        <polygon points="224.272,288.586 201.743,306.07 157.112,298.201 179.642,280.717 " id="polygon3346" style="fill:#7684ca"/>
      </g>
      <g id="g3352">
        <polygon points="224.733,289.587 225.183,289.666 202.653,307.15 202.203,307.071 " id="polygon3350" style="fill:#7684ca"/>
      </g>
      <g id="g3356">
        <polygon points="225.183,289.666 202.653,307.15 202.644,306.685 225.173,289.2 " id="polygon3354" style="fill:#7a88cc"/>
      </g>
      <g id="g3360">
        <polygon points="157.112,298.201 156.205,252.942 200.835,260.812 201.743,306.07 " id="polygon3358" style="stroke: rgb(0, 0, 0); stroke-width: 4px; fill: rgba(250, 0, 25, 0.8);"/>
      </g>
      <g id="g3364">
        <polygon points="178.734,235.458 223.365,243.327 200.835,260.812 156.205,252.942 " id="polygon3362" style="fill:#7684ca"/>
      </g>
      <g id="g3368">
        <polygon points="223.365,243.327 200.835,260.812 156.205,252.942 178.735,235.458 " id="polygon3366" style="fill:#ffdc72"/>
      </g>
      <g id="g3372">
        <polygon points="223.365,243.327 224.272,288.586 201.743,306.07 200.835,260.812 " id="polygon3370" style="fill:#7a88cc"/>
      </g>
      <g id="g3376">
        <polygon points="224.272,288.586 201.743,306.07 200.835,260.812 223.365,243.327 " id="polygon3374" style="fill:#ffdd77"/>
      </g>
      <g id="g3380">
        <polygon points="223.789,242.482 201.259,259.967 155.745,251.941 178.274,234.457 " id="polygon3378" style="fill:#7684ca"/>
      </g>
      <g id="g3384">
        <polygon points="225.173,289.2 202.644,306.685 201.718,260.512 224.248,243.027 " id="polygon3382" style="fill:#7a88cc"/>
      </g>
      <g id="g3388">
        <polygon points="224.238,242.562 201.709,260.046 201.259,259.967 223.789,242.482 " id="polygon3386" style="fill:#7684ca"/>
      </g>
      <g id="g3392">
        <polygon points="224.248,243.027 201.718,260.512 201.709,260.046 224.238,242.562 " id="polygon3390" style="fill:#7a88cc"/>
      </g>
      <g id="g3396">
        <path d="m 201.259,259.967 0.45,0.079 0.009,0.466 0.925,46.173 0.009,0.466 -0.45,-0.079 -45.514,-8.025 -0.45,-0.08 -0.009,-0.465 -0.926,-46.173 -0.009,-0.466 0.45,0.079 z m 0.484,46.103 -0.907,-45.259 -44.63,-7.869 0.907,45.259 44.63,7.869" id="path3394" style="fill:#6272c3"/>
      </g>
    </g>
  </g>
  <g id="g3700" style="opacity:0.7" transform="matrix(1, 0, 0, 1, 29.587612, 68.074951)">
    <g enable-background="new" id="g3698">
      <g id="g3604">
        <polygon points="25.76,201.922 24.853,156.663 69.483,164.533 70.391,209.791 " id="polygon3602" style="fill:#ffd65d"/>
      </g>
      <g id="g3608">
        <polygon points="24.877,202.222 24.887,202.687 2.357,220.171 2.348,219.706 " id="polygon3606" style="fill:#7a88cc"/>
      </g>
      <g id="g3612">
        <polygon points="24.887,202.687 25.337,202.767 2.807,220.251 2.357,220.171 " id="polygon3610" style="fill:#7684ca"/>
      </g>
      <g id="g3616">
        <path d="m 69.907,163.688 0.45,0.079 0.009,0.465 0.926,46.173 0.009,0.466 -0.45,-0.079 -45.514,-8.025 -0.45,-0.08 -0.009,-0.465 -0.925,-46.173 -0.009,-0.465 0.45,0.08 z m 0.484,46.103 -0.907,-45.258 -44.631,-7.87 0.908,45.259 44.63,7.869" id="path3614" style="fill:#6272c3"/>
      </g>
      <g id="g3620">
        <polygon points="23.952,156.048 24.877,202.222 2.348,219.706 1.422,173.533 " id="polygon3618" style="fill:#7a88cc"/>
      </g>
      <g id="g3624">
        <polygon points="23.943,155.583 23.952,156.048 1.422,173.533 1.413,173.067 " id="polygon3622" style="fill:#7a88cc"/>
      </g>
      <g id="g3628">
        <polygon points="25.76,201.922 3.23,219.406 2.323,174.147 24.853,156.663 " id="polygon3626" style="fill:#7a88cc"/>
      </g>
      <g id="g3632">
        <polygon points="24.853,156.663 25.76,201.922 3.23,219.406 2.323,174.147 " id="polygon3630" style="fill:#ffdd77"/>
      </g>
      <g id="g3636">
        <polygon points="24.393,155.663 1.863,173.146 1.413,173.067 23.943,155.583 " id="polygon3634" style="fill:#7684ca"/>
      </g>
      <g id="g3640">
        <polygon points="25.337,202.767 70.851,210.792 48.321,228.276 2.807,220.251 " id="polygon3638" style="fill:#7684ca"/>
      </g>
      <g id="g3644">
        <polygon points="25.76,201.922 70.391,209.791 47.861,227.275 3.23,219.406 " id="polygon3642" style="fill:#ffdc72"/>
      </g>
      <g id="g3648">
        <polygon points="70.391,209.791 47.861,227.275 3.23,219.406 25.76,201.922 " id="polygon3646" style="fill:#7684ca"/>
      </g>
      <g id="g3652">
        <polygon points="70.851,210.792 71.301,210.871 48.771,228.355 48.321,228.276 " id="polygon3650" style="fill:#7684ca"/>
      </g>
      <g id="g3656">
        <polygon points="71.301,210.871 48.771,228.355 48.762,227.89 71.292,210.405 " id="polygon3654" style="fill:#7a88cc"/>
      </g>
      <g id="g3660">
        <polygon points="3.23,219.406 2.323,174.147 46.954,182.017 47.861,227.275 " id="polygon3658" style="fill: rgba(250, 0, 25, 0.8);"/>
      </g>
      <g id="g3664">
        <polygon points="69.483,164.533 46.954,182.017 2.323,174.147 24.853,156.663 " id="polygon3662" style="fill:#ffdc72"/>
      </g>
      <g id="g3668">
        <polygon points="24.853,156.663 69.483,164.533 46.954,182.017 2.323,174.147 " id="polygon3666" style="fill:#7684ca"/>
      </g>
      <g id="g3672">
        <polygon points="69.483,164.533 70.391,209.791 47.861,227.275 46.954,182.017 " id="polygon3670" style="fill:#7a88cc"/>
      </g>
      <g id="g3676">
        <polygon points="70.391,209.791 47.861,227.275 46.954,182.017 69.483,164.533 " id="polygon3674" style="fill:#ffdd77"/>
      </g>
      <g id="g3680">
        <polygon points="69.907,163.688 47.377,181.172 1.863,173.146 24.393,155.663 " id="polygon3678" style="fill:#7684ca"/>
      </g>
      <g id="g3684">
        <polygon points="71.292,210.405 48.762,227.89 47.836,181.717 70.366,164.232 " id="polygon3682" style="fill:#7a88cc"/>
      </g>
      <g id="g3688">
        <polygon points="70.356,163.767 47.827,181.251 47.377,181.172 69.907,163.688 " id="polygon3686" style="fill:#7684ca"/>
      </g>
      <g id="g3692">
        <polygon points="70.366,164.232 47.836,181.717 47.827,181.251 70.356,163.767 " id="polygon3690" style="fill:#7a88cc"/>
      </g>
      <g id="g3696">
        <path d="m 47.377,181.172 0.45,0.08 0.009,0.465 0.925,46.173 0.009,0.466 -0.45,-0.079 -45.514,-8.025 -0.45,-0.08 -0.009,-0.465 -0.926,-46.173 -0.009,-0.465 0.45,0.079 z m 0.484,46.103 -0.907,-45.259 -44.63,-7.869 0.907,45.259 44.63,7.869" id="path3694" style="fill: rgb(98, 114, 195); stroke: rgb(0, 0, 0); stroke-width: 2px;"/>
      </g>
    </g>
  </g>
  <g id="g3800" style="opacity:0.7" transform="matrix(1, 0, 0, 1, 29.587612, 68.074951)">
    <g enable-background="new" id="g3798">
      <g id="g3704">
        <polygon points="178.643,229.714 177.736,184.463 222.366,192.333 223.273,237.583 " id="polygon3702" style="fill:#ffd65d"/>
      </g>
      <g id="g3708">
        <polygon points="177.761,230.021 177.77,230.479 155.24,247.964 155.231,247.506 " id="polygon3706" style="fill:#7a88cc"/>
      </g>
      <g id="g3712">
        <polygon points="177.77,230.479 178.22,230.559 155.69,248.043 155.24,247.964 " id="polygon3710" style="fill:#7684ca"/>
      </g>
      <g id="g3716">
        <path d="m 222.79,191.48 0.45,0.079 0.009,0.465 0.926,46.182 0.009,0.457 -0.45,-0.079 -45.514,-8.025 -0.45,-0.079 -0.009,-0.458 -0.926,-46.181 -0.01,-0.465 0.45,0.08 z m 0.483,46.103 -0.907,-45.25 -44.63,-7.87 0.907,45.251 44.63,7.869" id="path3714" style="fill:#6272c3"/>
      </g>
      <g id="g3720">
        <polygon points="176.835,183.84 177.761,230.021 155.231,247.506 154.305,201.325 " id="polygon3718" style="fill:#7a88cc"/>
      </g>
      <g id="g3724">
        <polygon points="176.825,183.375 176.835,183.84 154.305,201.325 154.296,200.859 " id="polygon3722" style="fill:#7a88cc"/>
      </g>
      <g id="g3728">
        <polygon points="178.643,229.714 156.113,247.198 155.206,201.947 177.736,184.463 " id="polygon3726" style="fill:#7a88cc"/>
      </g>
      <g id="g3732">
        <polygon points="177.736,184.463 178.643,229.714 156.113,247.198 155.206,201.947 " id="polygon3730" style="fill:#ffdd77"/>
      </g>
      <g id="g3736">
        <polygon points="177.275,183.455 154.746,200.938 154.296,200.859 176.825,183.375 " id="polygon3734" style="fill:#7684ca"/>
      </g>
      <g id="g3740">
        <polygon points="178.22,230.559 223.734,238.584 201.204,256.068 155.69,248.043 " id="polygon3738" style="fill:#7684ca"/>
      </g>
      <g id="g3744">
        <polygon points="223.273,237.583 200.744,255.067 156.113,247.198 178.643,229.714 " id="polygon3742" style="fill:#7684ca"/>
      </g>
      <g id="g3748">
        <polygon points="178.643,229.714 223.273,237.583 200.744,255.067 156.113,247.198 " id="polygon3746" style="fill:#ffdc72"/>
      </g>
      <g id="g3752">
        <polygon points="223.734,238.584 224.184,238.663 201.654,256.147 201.204,256.068 " id="polygon3750" style="fill:#7684ca"/>
      </g>
      <g id="g3756">
        <polygon points="224.184,238.663 201.654,256.147 201.645,255.69 224.174,238.206 " id="polygon3754" style="fill:#7a88cc"/>
      </g>
      <g id="g3760">
        <polygon points="177.736,184.463 222.366,192.333 199.837,209.817 155.206,201.947 " id="polygon3758" style="fill:#7684ca"/>
      </g>
      <g id="g3764">
        <polygon points="156.113,247.198 155.206,201.947 199.837,209.817 200.744,255.067 " id="polygon3762" style="stroke: rgb(0, 0, 0); stroke-width: 4px; fill: rgba(250, 0, 25, 0.8);"/>
      </g>
      <g id="g3768">
        <polygon points="222.366,192.333 199.837,209.817 155.206,201.947 177.736,184.463 " id="polygon3766" style="fill:#ffdc72"/>
      </g>
      <g id="g3772">
        <polygon points="222.366,192.333 223.273,237.583 200.744,255.067 199.837,209.817 " id="polygon3770" style="fill:#7a88cc"/>
      </g>
      <g id="g3776">
        <polygon points="223.273,237.583 200.744,255.067 199.837,209.817 222.366,192.333 " id="polygon3774" style="fill:#ffdd77"/>
      </g>
      <g id="g3780">
        <polygon points="222.79,191.48 200.26,208.964 154.746,200.938 177.275,183.455 " id="polygon3778" style="fill:#7684ca"/>
      </g>
      <g id="g3784">
        <polygon points="224.174,238.206 201.645,255.69 200.719,209.509 223.249,192.024 " id="polygon3782" style="fill:#7a88cc"/>
      </g>
      <g id="g3788">
        <polygon points="223.239,191.559 200.71,209.044 200.26,208.964 222.79,191.48 " id="polygon3786" style="fill:#7684ca"/>
      </g>
      <g id="g3792">
        <polygon points="223.249,192.024 200.719,209.509 200.71,209.044 223.239,191.559 " id="polygon3790" style="fill:#7a88cc"/>
      </g>
      <g id="g3796">
        <path d="m 200.26,208.964 0.45,0.08 0.009,0.465 0.926,46.182 0.009,0.457 -0.45,-0.079 -45.514,-8.025 -0.45,-0.079 -0.009,-0.458 -0.926,-46.181 -0.009,-0.466 0.45,0.079 z m 0.484,46.103 -0.907,-45.25 -44.631,-7.87 0.907,45.251 44.631,7.869" id="path3794" style="fill:#6272c3"/>
      </g>
    </g>
  </g>
  <g id="g3812" transform="matrix(1, 0, 0, 1, 29.587612, 68.074951)" style="opacity: 0.7;">
    <polygon points="126.649,220.933 126.658,221.391 104.129,238.875 104.12,238.417 " id="polygon3810" style="fill:#7a88cc"/>
  </g>
  <g id="g3816" transform="matrix(1, 0, 0, 1, 29.587612, 68.074951)" style="opacity: 0.7;">
    <polygon points="126.658,221.391 127.1,221.468 104.571,238.952 104.129,238.875 " id="polygon3814" style="fill:#7684ca"/>
  </g>
  <g id="g3820" transform="matrix(1, 0, 0, 1, 29.587612, 68.074951)" style="opacity: 0.7;">
    <polygon points="125.724,174.751 126.649,220.933 104.12,238.417 103.194,192.236 " id="polygon3818" style="fill:#7a88cc"/>
  </g>
  <g id="g3824" transform="matrix(1, 0, 0, 1, 29.587612, 68.074951)" style="opacity: 0.7;">
    <polygon points="125.714,174.294 125.724,174.751 103.194,192.236 103.185,191.779 " id="polygon3822" style="fill:#7a88cc"/>
  </g>
  <g id="g3828" transform="matrix(1, 0, 0, 1, 29.587612, 68.074951)" style="opacity: 0.7;">
    <polygon points="127.531,220.625 105.002,238.109 104.095,192.858 126.625,175.374 " id="polygon3826" style="fill:#7a88cc"/>
  </g>
  <g id="g3832" transform="matrix(1, 0, 0, 1, 29.587612, 68.074951)" style="opacity: 0.7;">
    <polygon points="126.625,175.374 127.531,220.625 105.002,238.109 104.095,192.858 " id="polygon3830" style="fill:#ffdd77"/>
  </g>
  <g id="g3836" transform="matrix(1, 0, 0, 1, 29.587612, 68.074951)" style="opacity: 0.7;">
    <polygon points="126.156,174.372 103.626,191.856 103.185,191.779 125.714,174.294 " id="polygon3834" style="fill:#7684ca"/>
  </g>
  <g id="g3860" transform="matrix(1, 0, 0, 1, 29.587612, 68.074951)" style="opacity: 0.7;">
    <polygon points="171.247,183.242 148.717,200.727 104.095,192.858 126.625,175.374 " id="polygon3858" style="fill:#ffdc72"/>
  </g>
  <g id="g3864" transform="matrix(1, 0, 0, 1, 29.587612, 68.074951)" style="opacity: 0.7;">
    <polygon points="126.625,175.374 171.247,183.242 148.717,200.727 104.095,192.858 " id="polygon3862" style="fill:#7684ca"/>
  </g>
  <g id="g3876" transform="matrix(1, 0, 0, 1, 29.587612, 68.074951)" style="opacity: 0.7;">
    <path d="m 149.149,199.883 0.442,0.078 0.009,0.458 0.926,46.181 0.009,0.458 -0.442,-0.078 -45.522,-8.027 -0.442,-0.077 -0.009,-0.458 -0.926,-46.181 -0.009,-0.457 0.442,0.078 z m 0.476,46.095 -0.907,-45.251 -44.623,-7.868 0.907,45.251 44.623,7.868" id="path3874" style="fill:#6272c3"/>
  </g>
  <g id="g3880" transform="matrix(1, 0, 0, 1, 29.587612, 68.074951)" style="opacity: 0.7;">
    <polygon points="105.002,238.109 104.095,192.858 148.717,200.727 149.625,245.978 " id="polygon3878" style="fill-rule: evenodd; stroke: rgb(0, 0, 0); stroke-width: 4px; fill: rgba(250, 0, 25, 0.8);"/>
  </g>
  <g id="g3884" transform="matrix(1, 0, 0, 1, 29.587612, 68.074951)" style="opacity: 0.7;">
    <polygon points="171.678,182.399 149.149,199.883 103.626,191.856 126.156,174.372 " id="polygon3882" style="fill:#7684ca"/>
  </g>
  <g id="g3892" transform="matrix(1, 0, 0, 1, 29.587612, 68.074951)" style="opacity: 0.7;">
    <polygon points="172.12,182.477 149.591,199.961 149.149,199.883 171.678,182.399 " id="polygon3890" style="fill:#7684ca"/>
  </g>
  <g id="g3896" transform="matrix(1, 0, 0, 1, 29.587612, 68.074951)" style="opacity: 0.7;">
    <polygon points="172.129,182.934 149.6,200.419 149.591,199.961 172.12,182.477 " id="polygon3894" style="fill:#7a88cc"/>
  </g>
  <g id="g4100" style="opacity:0.7" transform="matrix(1, 0, 0, 1, 29.587612, 68.074951)">
    <g enable-background="new" id="g4098">
      <g id="g4004">
        <polygon points="25.354,150.741 24.447,105.491 69.069,113.359 69.977,158.609 " id="polygon4002" style="fill:#ffd65d"/>
      </g>
      <g id="g4008">
        <polygon points="24.463,151.048 24.473,151.513 1.943,168.998 1.934,168.532 " id="polygon4006" style="fill:#7a88cc"/>
      </g>
      <g id="g4012">
        <polygon points="24.473,151.513 24.923,151.593 2.393,169.077 1.943,168.998 " id="polygon4010" style="fill:#7684ca"/>
      </g>
      <g id="g4016">
        <path d="m 69.5,112.516 0.442,0.078 0.009,0.458 0.926,46.181 0.009,0.465 -0.442,-0.078 -45.522,-8.026 -0.45,-0.08 -0.009,-0.465 -0.926,-46.181 -0.009,-0.458 0.45,0.08 z m 0.477,46.093 -0.907,-45.25 -44.623,-7.868 0.907,45.25 44.623,7.868" id="path4014" style="fill:#6272c3"/>
      </g>
      <g id="g4020">
        <polygon points="23.538,104.867 24.463,151.048 1.934,168.532 1.008,122.351 " id="polygon4018" style="fill:#7a88cc"/>
      </g>
      <g id="g4024">
        <polygon points="23.529,104.409 23.538,104.867 1.008,122.351 0.999,121.894 " id="polygon4022" style="fill:#7a88cc"/>
      </g>
      <g id="g4028">
        <polygon points="25.354,150.741 2.824,168.226 1.917,122.975 24.447,105.491 " id="polygon4026" style="fill:#7a88cc"/>
      </g>
      <g id="g4032">
        <polygon points="24.447,105.491 25.354,150.741 2.824,168.226 1.917,122.975 " id="polygon4030" style="fill:#ffdd77"/>
      </g>
      <g id="g4036">
        <polygon points="23.979,104.489 1.449,121.973 0.999,121.894 23.529,104.409 " id="polygon4034" style="fill:#7684ca"/>
      </g>
      <g id="g4040">
        <polygon points="24.923,151.593 70.445,159.619 47.915,177.104 2.393,169.077 " id="polygon4038" style="fill:#7684ca"/>
      </g>
      <g id="g4044">
        <polygon points="69.977,158.609 47.447,176.094 2.824,168.226 25.354,150.741 " id="polygon4042" style="fill:#7684ca"/>
      </g>
      <g id="g4048">
        <polygon points="25.354,150.741 69.977,158.609 47.447,176.094 2.824,168.226 " id="polygon4046" style="fill:#ffdc72"/>
      </g>
      <g id="g4052">
        <polygon points="70.445,159.619 70.887,159.697 48.357,177.182 47.915,177.104 " id="polygon4050" style="fill:#7684ca"/>
      </g>
      <g id="g4056">
        <polygon points="70.887,159.697 48.357,177.182 48.348,176.716 70.877,159.232 " id="polygon4054" style="fill:#7a88cc"/>
      </g>
      <g id="g4060">
        <polygon points="69.069,113.359 46.54,130.843 1.917,122.975 24.447,105.491 " id="polygon4058" style="fill:#ffdc72"/>
      </g>
      <g id="g4064">
        <polygon points="24.447,105.491 69.069,113.359 46.54,130.843 1.917,122.975 " id="polygon4062" style="fill:#7684ca"/>
      </g>
      <g id="g4068">
        <polygon points="69.069,113.359 69.977,158.609 47.447,176.094 46.54,130.843 " id="polygon4066" style="fill:#7a88cc"/>
      </g>
      <g id="g4072">
        <polygon points="69.977,158.609 47.447,176.094 46.54,130.843 69.069,113.359 " id="polygon4070" style="fill:#ffdd77"/>
      </g>
      <g id="g4076">
        <path d="m 46.971,130 0.442,0.078 0.009,0.457 0.926,46.182 0.009,0.465 -0.442,-0.078 -45.522,-8.027 -0.45,-0.079 -0.009,-0.465 -0.926,-46.181 -0.009,-0.458 0.45,0.08 z m 0.476,46.094 -0.907,-45.251 -44.623,-7.868 0.907,45.251 44.623,7.868" id="path4074" style="fill:#6272c3"/>
      </g>
      <g id="g4080">
        <polygon points="2.824,168.226 1.917,122.975 46.54,130.843 47.447,176.094 " id="polygon4078" style="stroke: rgb(0, 0, 0); stroke-width: 4px; fill: rgba(250, 0, 25, 0.8);"/>
      </g>
      <g id="g4084">
        <polygon points="69.5,112.516 46.971,130 1.449,121.973 23.979,104.489 " id="polygon4082" style="fill:#7684ca"/>
      </g>
      <g id="g4088">
        <polygon points="70.877,159.232 48.348,176.716 47.422,130.535 69.952,113.051 " id="polygon4086" style="fill:#7a88cc"/>
      </g>
      <g id="g4092">
        <polygon points="69.942,112.593 47.413,130.078 46.971,130 69.5,112.516 " id="polygon4090" style="fill:#7684ca"/>
      </g>
      <g id="g4096">
        <polygon points="69.952,113.051 47.422,130.535 47.413,130.078 69.942,112.593 " id="polygon4094" style="fill:#7a88cc"/>
      </g>
    </g>
  </g>
  <g id="g4200" style="opacity:0.7" transform="matrix(1, 0, 0, 1, 29.587612, 68.074951)">
    <g enable-background="new" id="g4198">
      <g id="g4104">
        <polygon points="178.229,178.54 177.322,133.281 221.952,141.151 222.859,186.409 " id="polygon4102" style="fill:#ffd65d"/>
      </g>
      <g id="g4108">
        <polygon points="177.346,178.84 177.355,179.305 154.826,196.79 154.817,196.324 " id="polygon4106" style="fill:#7a88cc"/>
      </g>
      <g id="g4112">
        <polygon points="177.355,179.305 177.806,179.385 155.276,196.869 154.826,196.79 " id="polygon4110" style="fill:#7684ca"/>
      </g>
      <g id="g4116">
        <path d="m 222.384,140.308 0.441,0.078 0.009,0.465 0.926,46.173 0.009,0.465 -0.441,-0.078 -45.522,-8.026 -0.45,-0.08 -0.009,-0.465 -0.925,-46.173 -0.01,-0.465 0.451,0.08 z m 0.475,46.101 -0.907,-45.258 -44.631,-7.87 0.908,45.259 44.63,7.869" id="path4114" style="fill:#6272c3"/>
      </g>
      <g id="g4120">
        <polygon points="176.421,132.667 177.346,178.84 154.817,196.324 153.891,150.151 " id="polygon4118" style="fill:#7a88cc"/>
      </g>
      <g id="g4124">
        <polygon points="176.411,132.201 176.421,132.667 153.891,150.151 153.882,149.686 " id="polygon4122" style="fill:#7a88cc"/>
      </g>
      <g id="g4128">
        <polygon points="178.229,178.54 155.699,196.024 154.792,150.766 177.321,133.281 " id="polygon4126" style="fill:#7a88cc"/>
      </g>
      <g id="g4132">
        <polygon points="177.322,133.281 178.229,178.54 155.699,196.024 154.792,150.766 " id="polygon4130" style="fill:#ffdd77"/>
      </g>
      <g id="g4136">
        <polygon points="176.862,132.281 154.332,149.765 153.882,149.686 176.411,132.201 " id="polygon4134" style="fill:#7684ca"/>
      </g>
      <g id="g4140">
        <polygon points="177.806,179.385 223.328,187.411 200.798,204.896 155.276,196.869 " id="polygon4138" style="fill:#7684ca"/>
      </g>
      <g id="g4144">
        <polygon points="178.229,178.54 222.859,186.409 200.33,203.894 155.699,196.024 " id="polygon4142" style="fill:#ffdc72"/>
      </g>
      <g id="g4148">
        <polygon points="222.859,186.409 200.33,203.894 155.699,196.024 178.229,178.54 " id="polygon4146" style="fill:#7684ca"/>
      </g>
      <g id="g4152">
        <polygon points="223.328,187.411 223.77,187.489 201.24,204.974 200.798,204.896 " id="polygon4150" style="fill:#7684ca"/>
      </g>
      <g id="g4156">
        <polygon points="223.77,187.489 201.24,204.974 201.23,204.508 223.76,187.024 " id="polygon4154" style="fill:#7a88cc"/>
      </g>
      <g id="g4160">
        <polygon points="155.699,196.024 154.792,150.766 199.422,158.635 200.33,203.894 " id="polygon4158" style="stroke: rgb(0, 0, 0); stroke-width: 4px; fill: rgba(250, 0, 25, 0.8);"/>
      </g>
      <g id="g4164">
        <polygon points="177.321,133.281 221.952,141.151 199.422,158.635 154.792,150.766 " id="polygon4162" style="fill:#7684ca"/>
      </g>
      <g id="g4168">
        <polygon points="221.952,141.151 199.422,158.635 154.792,150.766 177.322,133.281 " id="polygon4166" style="fill:#ffdc72"/>
      </g>
      <g id="g4172">
        <polygon points="221.952,141.151 222.859,186.409 200.33,203.894 199.422,158.635 " id="polygon4170" style="fill:#7a88cc"/>
      </g>
      <g id="g4176">
        <polygon points="222.859,186.409 200.33,203.894 199.422,158.635 221.952,141.151 " id="polygon4174" style="fill:#ffdd77"/>
      </g>
      <g id="g4180">
        <polygon points="222.384,140.308 199.854,157.792 154.332,149.765 176.862,132.281 " id="polygon4178" style="fill:#7684ca"/>
      </g>
      <g id="g4184">
        <polygon points="223.76,187.024 201.23,204.508 200.305,158.335 222.834,140.851 " id="polygon4182" style="fill:#7a88cc"/>
      </g>
      <g id="g4188">
        <polygon points="222.825,140.385 200.296,157.87 199.854,157.792 222.384,140.308 " id="polygon4186" style="fill:#7684ca"/>
      </g>
      <g id="g4192">
        <polygon points="222.834,140.851 200.305,158.335 200.296,157.87 222.825,140.385 " id="polygon4190" style="fill:#7a88cc"/>
      </g>
      <g id="g4196">
        <path d="m 199.854,157.792 0.442,0.078 0.009,0.465 0.925,46.173 0.009,0.466 -0.441,-0.078 -45.522,-8.026 -0.45,-0.08 -0.009,-0.465 -0.926,-46.173 -0.009,-0.465 0.45,0.08 z m 0.476,46.102 -0.907,-45.259 -44.63,-7.869 0.907,45.258 44.63,7.87" id="path4194" style="fill:#6272c3"/>
      </g>
    </g>
  </g>
  <g id="g4500" style="opacity:0.7" transform="matrix(1, 0, 0, 1, 29.587612, 68.074951)">
    <g enable-background="new" id="g4498">
      <g id="g4404">
        <path d="m 68.494,61.511 0.45,0.079 0.009,0.465 0.926,46.173 0.009,0.465 -0.45,-0.079 -45.514,-8.025 -0.45,-0.08 -0.009,-0.465 -0.925,-46.173 -0.01,-0.465 0.45,0.08 z m 0.484,46.103 -0.908,-45.258 -44.63,-7.87 0.907,45.259 44.631,7.869" id="path4402" style="fill:#6272c3"/>
      </g>
      <g id="g4408">
        <polygon points="24.347,99.745 23.44,54.486 68.07,62.356 68.978,107.614 " id="polygon4406" style="fill:#ffd65d"/>
      </g>
      <g id="g4412">
        <polygon points="23.464,100.045 23.474,100.51 0.944,117.995 0.935,117.529 " id="polygon4410" style="fill:#7a88cc"/>
      </g>
      <g id="g4416">
        <polygon points="23.474,100.51 23.924,100.59 1.394,118.074 0.944,117.995 " id="polygon4414" style="fill:#7684ca"/>
      </g>
      <g id="g4420">
        <polygon points="22.539,53.872 23.464,100.045 0.935,117.529 0.009,71.356 " id="polygon4418" style="fill:#7a88cc"/>
      </g>
      <g id="g4424">
        <polygon points="22.529,53.406 22.539,53.872 0.009,71.356 0,70.891 " id="polygon4422" style="fill:#7a88cc"/>
      </g>
      <g id="g4428">
        <polygon points="23.44,54.486 24.347,99.745 1.817,117.229 0.91,71.971 " id="polygon4426" style="fill:#ffdd77"/>
      </g>
      <g id="g4432">
        <polygon points="24.347,99.745 1.817,117.229 0.91,71.971 23.44,54.486 " id="polygon4430" style="fill:#7a88cc"/>
      </g>
      <g id="g4436">
        <polygon points="22.979,53.486 0.45,70.97 0,70.891 22.529,53.406 " id="polygon4434" style="fill:#7684ca"/>
      </g>
      <g id="g4440">
        <polygon points="23.924,100.59 69.438,108.615 46.908,126.099 1.394,118.074 " id="polygon4438" style="fill:#7684ca"/>
      </g>
      <g id="g4444">
        <polygon points="24.347,99.745 68.978,107.614 46.448,125.099 1.817,117.229 " id="polygon4442" style="fill:#ffdc72"/>
      </g>
      <g id="g4448">
        <polygon points="68.978,107.614 46.448,125.099 1.817,117.229 24.347,99.745 " id="polygon4446" style="fill:#7684ca"/>
      </g>
      <g id="g4452">
        <polygon points="69.438,108.615 69.888,108.694 47.358,126.179 46.908,126.099 " id="polygon4450" style="fill:#7684ca"/>
      </g>
      <g id="g4456">
        <polygon points="69.888,108.694 47.358,126.179 47.349,125.713 69.878,108.229 " id="polygon4454" style="fill:#7a88cc"/>
      </g>
      <g id="g4460">
        <polygon points="68.07,62.356 68.978,107.614 46.448,125.099 45.541,79.84 " id="polygon4458" style="fill:#7a88cc"/>
      </g>
      <g id="g4464">
        <polygon points="68.07,62.356 45.541,79.84 0.91,71.971 23.44,54.486 " id="polygon4462" style="fill:#ffdc72"/>
      </g>
      <g id="g4468">
        <polygon points="23.44,54.486 68.07,62.356 45.541,79.84 0.91,71.971 " id="polygon4466" style="fill:#7684ca"/>
      </g>
      <g id="g4472">
        <polygon points="1.817,117.229 0.91,71.971 45.541,79.84 46.448,125.099 " id="polygon4470" style="stroke-width: 4px; stroke: rgb(0, 0, 0); fill: rgba(250, 0, 25, 0.8);"/>
      </g>
      <g id="g4476">
        <polygon points="68.978,107.614 46.448,125.099 45.541,79.84 68.07,62.356 " id="polygon4474" style="fill:#ffdd77"/>
      </g>
      <g id="g4480">
        <polygon points="68.494,61.511 45.964,78.995 0.45,70.97 22.979,53.486 " id="polygon4478" style="fill:#7684ca"/>
      </g>
      <g id="g4484">
        <polygon points="69.878,108.229 47.349,125.713 46.423,79.54 68.953,62.056 " id="polygon4482" style="fill:#7a88cc"/>
      </g>
      <g id="g4488">
        <polygon points="68.943,61.59 46.414,79.075 45.964,78.995 68.494,61.511 " id="polygon4486" style="fill:#7684ca"/>
      </g>
      <g id="g4492">
        <polygon points="68.953,62.056 46.423,79.54 46.414,79.075 68.943,61.59 " id="polygon4490" style="fill:#7a88cc"/>
      </g>
      <g id="g4496">
        <path d="m 45.964,78.995 0.45,0.08 0.009,0.465 0.925,46.173 0.009,0.465 -0.45,-0.08 L 1.393,118.073 0.943,117.994 0.934,117.529 0.009,71.356 0,70.891 0.45,70.97 Z M 46.448,125.099 45.541,79.84 0.91,71.971 l 0.907,45.258 44.631,7.87" id="path4494" style="fill: rgb(98, 114, 195); stroke-width: 4px; stroke: rgba(0, 0, 0, 0);"/>
      </g>
    </g>
  </g>
  <g id="g4400" style="opacity:0.7" transform="matrix(1, 0, 0, 1, 29.587612, 68.074951)">
    <g enable-background="new" id="g4398">
      <g id="g4304">
        <path d="m 119.883,121.866 0.441,0.078 0.009,0.466 0.926,46.173 0.009,0.466 -0.441,-0.078 -45.523,-8.027 -0.441,-0.078 -0.009,-0.466 -0.925,-46.173 -0.01,-0.465 0.442,0.078 z m 0.476,46.102 -0.907,-45.259 -44.623,-7.868 0.908,45.259 44.622,7.868" id="path4302" style="fill:#6272c3"/>
      </g>
      <g id="g4308">
        <polygon points="75.737,160.1 74.83,114.841 119.452,122.709 120.359,167.968 " id="polygon4306" style="fill:#ffd65d"/>
      </g>
      <g id="g4312">
        <polygon points="74.854,160.399 74.863,160.865 52.334,178.35 52.325,177.884 " id="polygon4310" style="fill:#7a88cc"/>
      </g>
      <g id="g4316">
        <polygon points="74.863,160.865 75.305,160.943 52.775,178.427 52.334,178.35 " id="polygon4314" style="fill:#7684ca"/>
      </g>
      <g id="g4320">
        <polygon points="73.929,114.227 74.854,160.399 52.325,177.884 51.399,131.711 " id="polygon4318" style="fill:#7a88cc"/>
      </g>
      <g id="g4324">
        <polygon points="73.919,113.761 73.929,114.227 51.399,131.711 51.39,131.246 " id="polygon4322" style="fill:#7a88cc"/>
      </g>
      <g id="g4328">
        <polygon points="75.737,160.1 53.207,177.584 52.3,132.325 74.829,114.841 " id="polygon4326" style="fill:#7a88cc"/>
      </g>
      <g id="g4332">
        <polygon points="74.83,114.841 75.737,160.1 53.207,177.584 52.3,132.325 " id="polygon4330" style="fill:#ffdd77"/>
      </g>
      <g id="g4336">
        <polygon points="74.361,113.839 51.831,131.323 51.39,131.246 73.919,113.761 " id="polygon4334" style="fill:#7684ca"/>
      </g>
      <g id="g4340">
        <polygon points="75.305,160.943 120.828,168.97 98.298,186.454 52.775,178.427 " id="polygon4338" style="fill:#7684ca"/>
      </g>
      <g id="g4344">
        <polygon points="75.737,160.1 120.359,167.968 97.829,185.452 53.207,177.584 " id="polygon4342" style="fill:#ffdc72"/>
      </g>
      <g id="g4348">
        <polygon points="120.359,167.968 97.829,185.452 53.207,177.584 75.737,160.1 " id="polygon4346" style="fill:#7684ca"/>
      </g>
      <g id="g4352">
        <polygon points="120.828,168.97 121.269,169.048 98.739,186.532 98.298,186.454 " id="polygon4350" style="fill:#7684ca"/>
      </g>
      <g id="g4356">
        <polygon points="121.269,169.048 98.739,186.532 98.73,186.066 121.26,168.582 " id="polygon4354" style="fill:#7a88cc"/>
      </g>
      <g id="g4360">
        <polygon points="53.207,177.584 52.3,132.325 96.922,140.193 97.829,185.452 " id="polygon4358" style="stroke: rgb(0, 0, 0); stroke-width: 4px; fill: rgba(250, 0, 25, 0.8);"/>
      </g>
      <g id="g4364">
        <polygon points="74.829,114.841 119.452,122.709 96.922,140.193 52.3,132.325 " id="polygon4362" style="fill:#7684ca"/>
      </g>
      <g id="g4368">
        <polygon points="119.452,122.709 96.922,140.193 52.3,132.325 74.83,114.841 " id="polygon4366" style="fill:#ffdc72"/>
      </g>
      <g id="g4372">
        <polygon points="119.452,122.709 120.359,167.968 97.829,185.452 96.922,140.193 " id="polygon4370" style="fill:#7a88cc"/>
      </g>
      <g id="g4376">
        <polygon points="120.359,167.968 97.829,185.452 96.922,140.193 119.452,122.709 " id="polygon4374" style="fill:#ffdd77"/>
      </g>
      <g id="g4380">
        <polygon points="119.883,121.866 97.354,139.35 51.831,131.323 74.361,113.839 " id="polygon4378" style="fill:#7684ca"/>
      </g>
      <g id="g4384">
        <polygon points="121.26,168.582 98.73,186.066 97.805,139.894 120.334,122.409 " id="polygon4382" style="fill:#7a88cc"/>
      </g>
      <g id="g4388">
        <polygon points="120.325,121.943 97.795,139.428 97.354,139.35 119.883,121.866 " id="polygon4386" style="fill:#7684ca"/>
      </g>
      <g id="g4392">
        <polygon points="120.334,122.409 97.805,139.894 97.795,139.428 120.325,121.943 " id="polygon4390" style="fill:#7a88cc"/>
      </g>
      <g id="g4396">
        <path d="m 97.354,139.35 0.441,0.078 0.01,0.466 0.925,46.173 0.009,0.465 -0.441,-0.078 -45.522,-8.027 -0.441,-0.078 -0.009,-0.466 -0.926,-46.173 -0.009,-0.465 0.441,0.078 z m 0.475,46.102 -0.907,-45.259 -44.622,-7.868 0.907,45.259 44.622,7.868" id="path4394" style="fill:#6272c3"/>
      </g>
    </g>
  </g>
  <g id="g4600" style="opacity:0.7" transform="matrix(1, 0, 0, 1, 29.587612, 68.074951)">
    <g enable-background="new" id="g4598">
      <g id="g4504">
        <polygon points="177.23,127.537 176.323,82.286 220.954,90.156 221.861,135.406 " id="polygon4502" style="fill:#ffd65d"/>
      </g>
      <g id="g4508">
        <polygon points="176.348,127.845 176.356,128.302 153.827,145.787 153.818,145.329 " id="polygon4506" style="fill:#7a88cc"/>
      </g>
      <g id="g4512">
        <polygon points="176.356,128.302 176.807,128.382 154.277,145.866 153.827,145.787 " id="polygon4510" style="fill:#7684ca"/>
      </g>
      <g id="g4516">
        <path d="m 221.376,89.303 0.45,0.08 0.009,0.465 0.926,46.181 0.009,0.458 -0.45,-0.08 -45.514,-8.025 -0.45,-0.08 -0.009,-0.458 -0.926,-46.181 -0.01,-0.465 0.45,0.08 z m 0.485,46.103 -0.907,-45.25 -44.631,-7.87 0.907,45.25 44.631,7.87" id="path4514" style="fill:#6272c3"/>
      </g>
      <g id="g4520">
        <polygon points="175.422,81.664 176.348,127.845 153.818,145.329 152.892,99.148 " id="polygon4518" style="fill:#7a88cc"/>
      </g>
      <g id="g4524">
        <polygon points="175.412,81.198 175.422,81.664 152.892,99.148 152.883,98.683 " id="polygon4522" style="fill:#7a88cc"/>
      </g>
      <g id="g4528">
        <polygon points="177.23,127.537 154.7,145.021 153.793,99.771 176.323,82.286 " id="polygon4526" style="fill:#7a88cc"/>
      </g>
      <g id="g4532">
        <polygon points="176.323,82.286 177.23,127.537 154.7,145.021 153.793,99.771 " id="polygon4530" style="fill:#ffdd77"/>
      </g>
      <g id="g4536">
        <polygon points="175.862,81.278 153.333,98.762 152.883,98.683 175.412,81.198 " id="polygon4534" style="fill:#7684ca"/>
      </g>
      <g id="g4540">
        <polygon points="176.807,128.382 222.321,136.407 199.791,153.891 154.277,145.866 " id="polygon4538" style="fill:#7684ca"/>
      </g>
      <g id="g4544">
        <polygon points="177.23,127.537 221.861,135.406 199.331,152.891 154.7,145.021 " id="polygon4542" style="fill:#ffdc72"/>
      </g>
      <g id="g4548">
        <polygon points="221.861,135.406 199.331,152.891 154.7,145.021 177.23,127.537 " id="polygon4546" style="fill:#7684ca"/>
      </g>
      <g id="g4552">
        <polygon points="222.321,136.407 222.771,136.486 200.241,153.971 199.791,153.891 " id="polygon4550" style="fill:#7684ca"/>
      </g>
      <g id="g4556">
        <polygon points="222.771,136.486 200.241,153.971 200.232,153.513 222.761,136.029 " id="polygon4554" style="fill:#7a88cc"/>
      </g>
      <g id="g4560">
        <polygon points="154.7,145.021 153.793,99.771 198.424,107.64 199.331,152.891 " id="polygon4558" style="stroke: rgb(0, 0, 0); stroke-width: 4px; fill: rgba(250, 0, 25, 0.8);"/>
      </g>
      <g id="g4564">
        <polygon points="176.323,82.286 220.954,90.156 198.424,107.64 153.793,99.771 " id="polygon4562" style="fill:#7684ca"/>
      </g>
      <g id="g4568">
        <polygon points="220.954,90.156 198.424,107.64 153.793,99.771 176.323,82.286 " id="polygon4566" style="fill:#ffdc72"/>
      </g>
      <g id="g4572">
        <polygon points="220.954,90.156 221.861,135.406 199.331,152.891 198.424,107.64 " id="polygon4570" style="fill:#7a88cc"/>
      </g>
      <g id="g4576">
        <polygon points="221.861,135.406 199.331,152.891 198.424,107.64 220.954,90.156 " id="polygon4574" style="fill:#ffdd77"/>
      </g>
      <g id="g4580">
        <polygon points="221.376,89.303 198.847,106.787 153.333,98.762 175.862,81.278 " id="polygon4578" style="fill:#7684ca"/>
      </g>
      <g id="g4584">
        <polygon points="222.761,136.029 200.232,153.513 199.306,107.332 221.835,89.848 " id="polygon4582" style="fill:#7a88cc"/>
      </g>
      <g id="g4588">
        <polygon points="221.826,89.382 199.297,106.867 198.847,106.787 221.376,89.303 " id="polygon4586" style="fill:#7684ca"/>
      </g>
      <g id="g4592">
        <polygon points="221.835,89.848 199.306,107.332 199.297,106.867 221.826,89.382 " id="polygon4590" style="fill:#7a88cc"/>
      </g>
      <g id="g4596">
        <path d="m 198.847,106.787 0.45,0.08 0.009,0.465 0.926,46.181 0.009,0.458 -0.45,-0.08 -45.514,-8.025 -0.45,-0.08 -0.009,-0.458 -0.926,-46.181 -0.009,-0.465 0.45,0.08 z m 0.484,46.104 -0.907,-45.25 -44.631,-7.87 0.907,45.25 44.631,7.87" id="path4594" style="fill:#6272c3"/>
      </g>
    </g>
  </g>
  <g id="g-183" style="opacity: 0.7;" transform="matrix(-1.022284, 0.028722, 0.028085, 0.999606, 617.708679, 43.404835)">
    <g enable-background="new" id="g-184">
      <g id="g-185">
        <polygon points="178.643,229.714 177.736,184.463 222.366,192.333 223.273,237.583 " id="polygon-156" style="fill:#ffd65d"/>
      </g>
      <g id="g-186">
        <polygon points="177.761,230.021 177.77,230.479 155.24,247.964 155.231,247.506 " id="polygon-157" style="fill:#7a88cc"/>
      </g>
      <g id="g-187">
        <polygon points="177.77,230.479 178.22,230.559 155.69,248.043 155.24,247.964 " id="polygon-158" style="fill:#7684ca"/>
      </g>
      <g id="g-188">
        <path d="m 222.79,191.48 0.45,0.079 0.009,0.465 0.926,46.182 0.009,0.457 -0.45,-0.079 -45.514,-8.025 -0.45,-0.079 -0.009,-0.458 -0.926,-46.181 -0.01,-0.465 0.45,0.08 z m 0.483,46.103 -0.907,-45.25 -44.63,-7.87 0.907,45.251 44.63,7.869" id="path-14" style="fill:#6272c3"/>
      </g>
      <g id="g-189">
        <polygon points="176.835,183.84 177.761,230.021 155.231,247.506 154.305,201.325 " id="polygon-159" style="fill:#7a88cc"/>
      </g>
      <g id="g-190">
        <polygon points="176.825,183.375 176.835,183.84 154.305,201.325 154.296,200.859 " id="polygon-160" style="fill:#7a88cc"/>
      </g>
      <g id="g-191">
        <polygon points="178.643,229.714 156.113,247.198 155.206,201.947 177.736,184.463 " id="polygon-161" style="fill:#7a88cc"/>
      </g>
      <g id="g-192">
        <polygon points="177.736,184.463 178.643,229.714 156.113,247.198 155.206,201.947 " id="polygon-162" style="fill:#ffdd77"/>
      </g>
      <g id="g-193">
        <polygon points="177.275,183.455 154.746,200.938 154.296,200.859 176.825,183.375 " id="polygon-163" style="fill:#7684ca"/>
      </g>
      <g id="g-194">
        <polygon points="178.22,230.559 223.734,238.584 201.204,256.068 155.69,248.043 " id="polygon-164" style="fill:#7684ca"/>
      </g>
      <g id="g-195">
        <polygon points="223.273,237.583 200.744,255.067 156.113,247.198 178.643,229.714 " id="polygon-165" style="fill:#7684ca"/>
      </g>
      <g id="g-196">
        <polygon points="178.643,229.714 223.273,237.583 200.744,255.067 156.113,247.198 " id="polygon-166" style="fill:#ffdc72"/>
      </g>
      <g id="g-197">
        <polygon points="223.734,238.584 224.184,238.663 201.654,256.147 201.204,256.068 " id="polygon-167" style="fill:#7684ca"/>
      </g>
      <g id="g-198">
        <polygon points="224.184,238.663 201.654,256.147 201.645,255.69 224.174,238.206 " id="polygon-168" style="fill:#7a88cc"/>
      </g>
      <g id="g-199">
        <polygon points="177.736,184.463 222.366,192.333 199.837,209.817 155.206,201.947 " id="polygon-169" style="fill:#7684ca"/>
      </g>
      <g id="g-200">
        <polygon points="156.113,247.198 155.206,201.947 199.837,209.817 200.744,255.067 " id="polygon-170" style="stroke-width: 4px; stroke: rgb(0, 0, 0); fill: rgba(255, 181, 61, 0.8);"/>
      </g>
      <g id="g-201">
        <polygon points="222.366,192.333 199.837,209.817 155.206,201.947 177.736,184.463 " id="polygon-171" style="fill:#ffdc72"/>
      </g>
      <g id="g-202">
        <polygon points="222.366,192.333 223.273,237.583 200.744,255.067 199.837,209.817 " id="polygon-172" style="fill:#7a88cc"/>
      </g>
      <g id="g-203">
        <polygon points="223.273,237.583 200.744,255.067 199.837,209.817 222.366,192.333 " id="polygon-173" style="fill:#ffdd77"/>
      </g>
      <g id="g-204">
        <polygon points="222.79,191.48 200.26,208.964 154.746,200.938 177.275,183.455 " id="polygon-174" style="fill:#7684ca"/>
      </g>
      <g id="g-205">
        <polygon points="224.174,238.206 201.645,255.69 200.719,209.509 223.249,192.024 " id="polygon-175" style="fill:#7a88cc"/>
      </g>
      <g id="g-206">
        <polygon points="223.239,191.559 200.71,209.044 200.26,208.964 222.79,191.48 " id="polygon-176" style="fill:#7684ca"/>
      </g>
      <g id="g-207">
        <polygon points="223.249,192.024 200.719,209.509 200.71,209.044 223.239,191.559 " id="polygon-177" style="fill:#7a88cc"/>
      </g>
      <g id="g-208">
        <path d="m 200.26,208.964 0.45,0.08 0.009,0.465 0.926,46.182 0.009,0.457 -0.45,-0.079 -45.514,-8.025 -0.45,-0.079 -0.009,-0.458 -0.926,-46.181 -0.009,-0.466 0.45,0.079 z m 0.484,46.103 -0.907,-45.25 -44.631,-7.87 0.907,45.251 44.631,7.869" id="path-15" style="fill:#6272c3"/>
      </g>
    </g>
  </g>
  <g id="g-209" style="opacity: 0.7;" transform="matrix(-1.022284, 0.028722, 0.028085, 0.999606, 617.708679, 43.404835)">
    <g enable-background="new" id="g-210">
      <g id="g-211">
        <polygon points="178.229,178.54 177.322,133.281 221.952,141.151 222.859,186.409 " id="polygon-178" style="fill:#ffd65d"/>
      </g>
      <g id="g-212">
        <polygon points="177.346,178.84 177.355,179.305 154.826,196.79 154.817,196.324 " id="polygon-179" style="fill:#7a88cc"/>
      </g>
      <g id="g-213">
        <polygon points="177.355,179.305 177.806,179.385 155.276,196.869 154.826,196.79 " id="polygon-180" style="fill:#7684ca"/>
      </g>
      <g id="g-214">
        <path d="m 222.384,140.308 0.441,0.078 0.009,0.465 0.926,46.173 0.009,0.465 -0.441,-0.078 -45.522,-8.026 -0.45,-0.08 -0.009,-0.465 -0.925,-46.173 -0.01,-0.465 0.451,0.08 z m 0.475,46.101 -0.907,-45.258 -44.631,-7.87 0.908,45.259 44.63,7.869" id="path-16" style="fill:#6272c3"/>
      </g>
      <g id="g-215">
        <polygon points="176.421,132.667 177.346,178.84 154.817,196.324 153.891,150.151 " id="polygon-181" style="fill:#7a88cc"/>
      </g>
      <g id="g-216">
        <polygon points="176.411,132.201 176.421,132.667 153.891,150.151 153.882,149.686 " id="polygon-182" style="fill:#7a88cc"/>
      </g>
      <g id="g-217">
        <polygon points="178.229,178.54 155.699,196.024 154.792,150.766 177.321,133.281 " id="polygon-183" style="fill:#7a88cc"/>
      </g>
      <g id="g-218">
        <polygon points="177.322,133.281 178.229,178.54 155.699,196.024 154.792,150.766 " id="polygon-184" style="fill:#ffdd77"/>
      </g>
      <g id="g-219">
        <polygon points="176.862,132.281 154.332,149.765 153.882,149.686 176.411,132.201 " id="polygon-185" style="fill:#7684ca"/>
      </g>
      <g id="g-220">
        <polygon points="177.806,179.385 223.328,187.411 200.798,204.896 155.276,196.869 " id="polygon-186" style="fill:#7684ca"/>
      </g>
      <g id="g-221">
        <polygon points="178.229,178.54 222.859,186.409 200.33,203.894 155.699,196.024 " id="polygon-187" style="fill:#ffdc72"/>
      </g>
      <g id="g-222">
        <polygon points="222.859,186.409 200.33,203.894 155.699,196.024 178.229,178.54 " id="polygon-188" style="fill:#7684ca"/>
      </g>
      <g id="g-223">
        <polygon points="223.328,187.411 223.77,187.489 201.24,204.974 200.798,204.896 " id="polygon-189" style="fill:#7684ca"/>
      </g>
      <g id="g-224">
        <polygon points="223.77,187.489 201.24,204.974 201.23,204.508 223.76,187.024 " id="polygon-190" style="fill:#7a88cc"/>
      </g>
      <g id="g-225">
        <polygon points="155.699,196.024 154.792,150.766 199.422,158.635 200.33,203.894 " id="polygon-191" style="stroke-width: 4px; stroke: rgb(0, 0, 0); fill: rgba(255, 181, 61, 0.8);"/>
      </g>
      <g id="g-226">
        <polygon points="177.321,133.281 221.952,141.151 199.422,158.635 154.792,150.766 " id="polygon-192" style="fill:#7684ca"/>
      </g>
      <g id="g-227">
        <polygon points="221.952,141.151 199.422,158.635 154.792,150.766 177.322,133.281 " id="polygon-193" style="fill:#ffdc72"/>
      </g>
      <g id="g-228">
        <polygon points="221.952,141.151 222.859,186.409 200.33,203.894 199.422,158.635 " id="polygon-194" style="fill:#7a88cc"/>
      </g>
      <g id="g-229">
        <polygon points="222.859,186.409 200.33,203.894 199.422,158.635 221.952,141.151 " id="polygon-195" style="fill:#ffdd77"/>
      </g>
      <g id="g-230">
        <polygon points="222.384,140.308 199.854,157.792 154.332,149.765 176.862,132.281 " id="polygon-196" style="fill:#7684ca"/>
      </g>
      <g id="g-231">
        <polygon points="223.76,187.024 201.23,204.508 200.305,158.335 222.834,140.851 " id="polygon-197" style="fill:#7a88cc"/>
      </g>
      <g id="g-232">
        <polygon points="222.825,140.385 200.296,157.87 199.854,157.792 222.384,140.308 " id="polygon-198" style="fill:#7684ca"/>
      </g>
      <g id="g-233">
        <polygon points="222.834,140.851 200.305,158.335 200.296,157.87 222.825,140.385 " id="polygon-199" style="fill:#7a88cc"/>
      </g>
      <g id="g-234">
        <path d="m 199.854,157.792 0.442,0.078 0.009,0.465 0.925,46.173 0.009,0.466 -0.441,-0.078 -45.522,-8.026 -0.45,-0.08 -0.009,-0.465 -0.926,-46.173 -0.009,-0.465 0.45,0.08 z m 0.476,46.102 -0.907,-45.259 -44.63,-7.869 0.907,45.258 44.63,7.87" id="path-17" style="fill:#6272c3"/>
      </g>
    </g>
  </g>
  <g id="g-235" style="opacity: 0.7;" transform="matrix(-1.022284, 0.028722, 0.028085, 0.999606, 617.708679, 43.404835)">
    <g enable-background="new" id="g-236">
      <g id="g-237">
        <polygon points="177.23,127.537 176.323,82.286 220.954,90.156 221.861,135.406 " id="polygon-200" style="fill:#ffd65d"/>
      </g>
      <g id="g-238">
        <polygon points="176.348,127.845 176.356,128.302 153.827,145.787 153.818,145.329 " id="polygon-201" style="fill:#7a88cc"/>
      </g>
      <g id="g-239">
        <polygon points="176.356,128.302 176.807,128.382 154.277,145.866 153.827,145.787 " id="polygon-202" style="fill:#7684ca"/>
      </g>
      <g id="g-240">
        <path d="m 221.376,89.303 0.45,0.08 0.009,0.465 0.926,46.181 0.009,0.458 -0.45,-0.08 -45.514,-8.025 -0.45,-0.08 -0.009,-0.458 -0.926,-46.181 -0.01,-0.465 0.45,0.08 z m 0.485,46.103 -0.907,-45.25 -44.631,-7.87 0.907,45.25 44.631,7.87" id="path-18" style="fill:#6272c3"/>
      </g>
      <g id="g-241">
        <polygon points="175.422,81.664 176.348,127.845 153.818,145.329 152.892,99.148 " id="polygon-203" style="fill:#7a88cc"/>
      </g>
      <g id="g-242">
        <polygon points="175.412,81.198 175.422,81.664 152.892,99.148 152.883,98.683 " id="polygon-204" style="fill:#7a88cc"/>
      </g>
      <g id="g-243">
        <polygon points="177.23,127.537 154.7,145.021 153.793,99.771 176.323,82.286 " id="polygon-205" style="fill:#7a88cc"/>
      </g>
      <g id="g-244">
        <polygon points="176.323,82.286 177.23,127.537 154.7,145.021 153.793,99.771 " id="polygon-206" style="fill:#ffdd77"/>
      </g>
      <g id="g-245">
        <polygon points="175.862,81.278 153.333,98.762 152.883,98.683 175.412,81.198 " id="polygon-207" style="fill:#7684ca"/>
      </g>
      <g id="g-246">
        <polygon points="176.807,128.382 222.321,136.407 199.791,153.891 154.277,145.866 " id="polygon-208" style="fill:#7684ca"/>
      </g>
      <g id="g-247">
        <polygon points="177.23,127.537 221.861,135.406 199.331,152.891 154.7,145.021 " id="polygon-209" style="fill:#ffdc72"/>
      </g>
      <g id="g-248">
        <polygon points="221.861,135.406 199.331,152.891 154.7,145.021 177.23,127.537 " id="polygon-210" style="fill:#7684ca"/>
      </g>
      <g id="g-249">
        <polygon points="222.321,136.407 222.771,136.486 200.241,153.971 199.791,153.891 " id="polygon-211" style="fill:#7684ca"/>
      </g>
      <g id="g-250">
        <polygon points="222.771,136.486 200.241,153.971 200.232,153.513 222.761,136.029 " id="polygon-212" style="fill:#7a88cc"/>
      </g>
      <g id="g-251">
        <polygon points="154.7,145.021 153.793,99.771 198.424,107.64 199.331,152.891 " id="polygon-213" style="stroke-width: 4px; stroke: rgb(0, 0, 0); fill: rgba(255, 181, 61, 0.8);"/>
      </g>
      <g id="g-252">
        <polygon points="176.323,82.286 220.954,90.156 198.424,107.64 153.793,99.771 " id="polygon-214" style="fill:#7684ca"/>
      </g>
      <g id="g-253">
        <polygon points="220.954,90.156 198.424,107.64 153.793,99.771 176.323,82.286 " id="polygon-215" style="fill:#ffdc72"/>
      </g>
      <g id="g-254">
        <polygon points="220.954,90.156 221.861,135.406 199.331,152.891 198.424,107.64 " id="polygon-216" style="fill:#7a88cc"/>
      </g>
      <g id="g-255">
        <polygon points="221.861,135.406 199.331,152.891 198.424,107.64 220.954,90.156 " id="polygon-217" style="fill:#ffdd77"/>
      </g>
      <g id="g-256">
        <polygon points="221.376,89.303 198.847,106.787 153.333,98.762 175.862,81.278 " id="polygon-218" style="fill:#7684ca"/>
      </g>
      <g id="g-257">
        <polygon points="222.761,136.029 200.232,153.513 199.306,107.332 221.835,89.848 " id="polygon-219" style="fill:#7a88cc"/>
      </g>
      <g id="g-258">
        <polygon points="221.826,89.382 199.297,106.867 198.847,106.787 221.376,89.303 " id="polygon-220" style="fill:#7684ca"/>
      </g>
      <g id="g-259">
        <polygon points="221.835,89.848 199.306,107.332 199.297,106.867 221.826,89.382 " id="polygon-221" style="fill:#7a88cc"/>
      </g>
      <g id="g-260">
        <path d="m 198.847,106.787 0.45,0.08 0.009,0.465 0.926,46.181 0.009,0.458 -0.45,-0.08 -45.514,-8.025 -0.45,-0.08 -0.009,-0.458 -0.926,-46.181 -0.009,-0.465 0.45,0.08 z m 0.484,46.104 -0.907,-45.25 -44.631,-7.87 0.907,45.25 44.631,7.87" id="path-19" style="fill:#6272c3"/>
      </g>
    </g>
  </g>
  <g id="g-105" style="opacity: 0.7;" transform="matrix(-1.022284, 0.028722, 0.028085, 0.999606, 564.982361, 53.889786)">
    <g enable-background="new" id="g-106">
      <g id="g-107">
        <polygon points="178.643,229.714 177.736,184.463 222.366,192.333 223.273,237.583 " id="polygon-90" style="fill:#ffd65d"/>
      </g>
      <g id="g-108">
        <polygon points="177.761,230.021 177.77,230.479 155.24,247.964 155.231,247.506 " id="polygon-91" style="fill:#7a88cc"/>
      </g>
      <g id="g-109">
        <polygon points="177.77,230.479 178.22,230.559 155.69,248.043 155.24,247.964 " id="polygon-92" style="fill:#7684ca"/>
      </g>
      <g id="g-110">
        <path d="m 222.79,191.48 0.45,0.079 0.009,0.465 0.926,46.182 0.009,0.457 -0.45,-0.079 -45.514,-8.025 -0.45,-0.079 -0.009,-0.458 -0.926,-46.181 -0.01,-0.465 0.45,0.08 z m 0.483,46.103 -0.907,-45.25 -44.63,-7.87 0.907,45.251 44.63,7.869" id="path-8" style="fill:#6272c3"/>
      </g>
      <g id="g-111">
        <polygon points="176.835,183.84 177.761,230.021 155.231,247.506 154.305,201.325 " id="polygon-93" style="fill:#7a88cc"/>
      </g>
      <g id="g-112">
        <polygon points="176.825,183.375 176.835,183.84 154.305,201.325 154.296,200.859 " id="polygon-94" style="fill:#7a88cc"/>
      </g>
      <g id="g-113">
        <polygon points="178.643,229.714 156.113,247.198 155.206,201.947 177.736,184.463 " id="polygon-95" style="fill:#7a88cc"/>
      </g>
      <g id="g-114">
        <polygon points="177.736,184.463 178.643,229.714 156.113,247.198 155.206,201.947 " id="polygon-96" style="fill:#ffdd77"/>
      </g>
      <g id="g-115">
        <polygon points="177.275,183.455 154.746,200.938 154.296,200.859 176.825,183.375 " id="polygon-97" style="fill:#7684ca"/>
      </g>
      <g id="g-116">
        <polygon points="178.22,230.559 223.734,238.584 201.204,256.068 155.69,248.043 " id="polygon-98" style="fill:#7684ca"/>
      </g>
      <g id="g-117">
        <polygon points="223.273,237.583 200.744,255.067 156.113,247.198 178.643,229.714 " id="polygon-99" style="fill:#7684ca"/>
      </g>
      <g id="g-118">
        <polygon points="178.643,229.714 223.273,237.583 200.744,255.067 156.113,247.198 " id="polygon-100" style="fill:#ffdc72"/>
      </g>
      <g id="g-119">
        <polygon points="223.734,238.584 224.184,238.663 201.654,256.147 201.204,256.068 " id="polygon-101" style="fill:#7684ca"/>
      </g>
      <g id="g-120">
        <polygon points="224.184,238.663 201.654,256.147 201.645,255.69 224.174,238.206 " id="polygon-102" style="fill:#7a88cc"/>
      </g>
      <g id="g-121">
        <polygon points="177.736,184.463 222.366,192.333 199.837,209.817 155.206,201.947 " id="polygon-103" style="fill:#7684ca"/>
      </g>
      <g id="g-122">
        <polygon points="156.113,247.198 155.206,201.947 199.837,209.817 200.744,255.067 " id="polygon-104" style="stroke-width: 4px; stroke: rgb(0, 0, 0); fill: rgba(255, 181, 61, 0.8);"/>
      </g>
      <g id="g-123">
        <polygon points="222.366,192.333 199.837,209.817 155.206,201.947 177.736,184.463 " id="polygon-105" style="fill:#ffdc72"/>
      </g>
      <g id="g-124">
        <polygon points="222.366,192.333 223.273,237.583 200.744,255.067 199.837,209.817 " id="polygon-106" style="fill:#7a88cc"/>
      </g>
      <g id="g-125">
        <polygon points="223.273,237.583 200.744,255.067 199.837,209.817 222.366,192.333 " id="polygon-107" style="fill:#ffdd77"/>
      </g>
      <g id="g-126">
        <polygon points="222.79,191.48 200.26,208.964 154.746,200.938 177.275,183.455 " id="polygon-108" style="fill:#7684ca"/>
      </g>
      <g id="g-127">
        <polygon points="224.174,238.206 201.645,255.69 200.719,209.509 223.249,192.024 " id="polygon-109" style="fill:#7a88cc"/>
      </g>
      <g id="g-128">
        <polygon points="223.239,191.559 200.71,209.044 200.26,208.964 222.79,191.48 " id="polygon-110" style="fill:#7684ca"/>
      </g>
      <g id="g-129">
        <polygon points="223.249,192.024 200.719,209.509 200.71,209.044 223.239,191.559 " id="polygon-111" style="fill:#7a88cc"/>
      </g>
      <g id="g-130">
        <path d="m 200.26,208.964 0.45,0.08 0.009,0.465 0.926,46.182 0.009,0.457 -0.45,-0.079 -45.514,-8.025 -0.45,-0.079 -0.009,-0.458 -0.926,-46.181 -0.009,-0.466 0.45,0.079 z m 0.484,46.103 -0.907,-45.25 -44.631,-7.87 0.907,45.251 44.631,7.869" id="path-9" style="fill:#6272c3"/>
      </g>
    </g>
  </g>
  <g id="g-1" style="opacity: 0.7;" transform="matrix(-1.022284, 0.028722, 0.028085, 0.999606, 514.283325, 65.318161)">
    <g enable-background="new" id="g-2">
      <g id="g-3">
        <polygon points="179.642,280.717 178.735,235.458 223.365,243.327 224.272,288.586 " id="polygon-1" style="fill:#ffd65d"/>
      </g>
      <g id="g-4">
        <polygon points="178.759,281.017 178.769,281.482 156.239,298.966 156.23,298.501 " id="polygon-2" style="fill:#7a88cc"/>
      </g>
      <g id="g-5">
        <polygon points="178.769,281.482 179.219,281.562 156.689,299.046 156.239,298.966 " id="polygon-3" style="fill:#7684ca"/>
      </g>
      <g id="g-6">
        <polygon points="177.834,234.844 178.759,281.017 156.23,298.501 155.304,252.328 " id="polygon-4" style="fill:#7a88cc"/>
      </g>
      <g id="g-7">
        <polygon points="179.642,280.717 157.112,298.201 156.205,252.942 178.734,235.458 " id="polygon-5" style="fill:#7a88cc"/>
      </g>
      <g id="g-8">
        <polygon points="178.735,235.458 179.642,280.717 157.112,298.201 156.205,252.942 " id="polygon-6" style="fill:#ffdd77"/>
      </g>
      <g id="g-9">
        <polygon points="177.834,234.844 177.86,236.137 178.734,235.458 223.365,243.327 224.272,288.586 179.642,280.717 178.767,281.396 178.769,281.482 179.219,281.562 224.733,289.587 225.183,289.666 225.173,289.2 224.248,243.027 224.238,242.563 223.789,242.482 178.274,234.457 177.824,234.378 " id="polygon-7" style="fill:#6272c3"/>
      </g>
      <g id="g-10">
        <polygon points="177.824,234.378 177.834,234.844 155.304,252.328 155.295,251.862 " id="polygon-8" style="fill:#7a88cc"/>
      </g>
      <g id="g-11">
        <polygon points="178.274,234.457 155.745,251.941 155.295,251.862 177.824,234.378 " id="polygon-9" style="fill:#7684ca"/>
      </g>
      <g id="g-12">
        <polygon points="179.219,281.562 224.733,289.587 202.203,307.071 156.689,299.046 " id="polygon-10" style="fill:#7684ca"/>
      </g>
      <g id="g-13">
        <polygon points="179.642,280.717 224.272,288.586 201.743,306.07 157.112,298.201 " id="polygon-11" style="fill:#ffdc72"/>
      </g>
      <g id="g-14">
        <polygon points="224.272,288.586 201.743,306.07 157.112,298.201 179.642,280.717 " id="polygon-12" style="fill:#7684ca"/>
      </g>
      <g id="g-15">
        <polygon points="224.733,289.587 225.183,289.666 202.653,307.15 202.203,307.071 " id="polygon-13" style="fill:#7684ca"/>
      </g>
      <g id="g-16">
        <polygon points="225.183,289.666 202.653,307.15 202.644,306.685 225.173,289.2 " id="polygon-14" style="fill:#7a88cc"/>
      </g>
      <g id="g-17">
        <polygon points="157.112,298.201 156.205,252.942 200.835,260.812 201.743,306.07 " id="polygon-15" style="stroke-width: 4px; stroke: rgb(0, 0, 0); fill: rgba(255, 181, 61, 0.8);"/>
      </g>
      <g id="g-18">
        <polygon points="178.734,235.458 223.365,243.327 200.835,260.812 156.205,252.942 " id="polygon-16" style="fill:#7684ca"/>
      </g>
      <g id="g-19">
        <polygon points="223.365,243.327 200.835,260.812 156.205,252.942 178.735,235.458 " id="polygon-17" style="fill:#ffdc72"/>
      </g>
      <g id="g-20">
        <polygon points="223.365,243.327 224.272,288.586 201.743,306.07 200.835,260.812 " id="polygon-18" style="fill:#7a88cc"/>
      </g>
      <g id="g-21">
        <polygon points="224.272,288.586 201.743,306.07 200.835,260.812 223.365,243.327 " id="polygon-19" style="fill:#ffdd77"/>
      </g>
      <g id="g-22">
        <polygon points="223.789,242.482 201.259,259.967 155.745,251.941 178.274,234.457 " id="polygon-20" style="fill:#7684ca"/>
      </g>
      <g id="g-23">
        <polygon points="225.173,289.2 202.644,306.685 201.718,260.512 224.248,243.027 " id="polygon-21" style="fill:#7a88cc"/>
      </g>
      <g id="g-24">
        <polygon points="224.238,242.562 201.709,260.046 201.259,259.967 223.789,242.482 " id="polygon-22" style="fill:#7684ca"/>
      </g>
      <g id="g-25">
        <polygon points="224.248,243.027 201.718,260.512 201.709,260.046 224.238,242.562 " id="polygon-23" style="fill:#7a88cc"/>
      </g>
      <g id="g-26">
        <path d="m 201.259,259.967 0.45,0.079 0.009,0.466 0.925,46.173 0.009,0.466 -0.45,-0.079 -45.514,-8.025 -0.45,-0.08 -0.009,-0.465 -0.926,-46.173 -0.009,-0.466 0.45,0.079 z m 0.484,46.103 -0.907,-45.259 -44.63,-7.869 0.907,45.259 44.63,7.869" id="path-1" style="fill:#6272c3"/>
      </g>
    </g>
  </g>
  <g id="g-27" style="opacity: 0.7;" transform="matrix(-1.022284, 0.028722, 0.028085, 0.999606, 514.283325, 65.318161)">
    <g enable-background="new" id="g-28">
      <g id="g-29">
        <polygon points="178.643,229.714 177.736,184.463 222.366,192.333 223.273,237.583 " id="polygon-24" style="fill:#ffd65d"/>
      </g>
      <g id="g-30">
        <polygon points="177.761,230.021 177.77,230.479 155.24,247.964 155.231,247.506 " id="polygon-25" style="fill:#7a88cc"/>
      </g>
      <g id="g-31">
        <polygon points="177.77,230.479 178.22,230.559 155.69,248.043 155.24,247.964 " id="polygon-26" style="fill:#7684ca"/>
      </g>
      <g id="g-32">
        <path d="m 222.79,191.48 0.45,0.079 0.009,0.465 0.926,46.182 0.009,0.457 -0.45,-0.079 -45.514,-8.025 -0.45,-0.079 -0.009,-0.458 -0.926,-46.181 -0.01,-0.465 0.45,0.08 z m 0.483,46.103 -0.907,-45.25 -44.63,-7.87 0.907,45.251 44.63,7.869" id="path-2" style="fill:#6272c3"/>
      </g>
      <g id="g-33">
        <polygon points="176.835,183.84 177.761,230.021 155.231,247.506 154.305,201.325 " id="polygon-27" style="fill:#7a88cc"/>
      </g>
      <g id="g-34">
        <polygon points="176.825,183.375 176.835,183.84 154.305,201.325 154.296,200.859 " id="polygon-28" style="fill:#7a88cc"/>
      </g>
      <g id="g-35">
        <polygon points="178.643,229.714 156.113,247.198 155.206,201.947 177.736,184.463 " id="polygon-29" style="fill:#7a88cc"/>
      </g>
      <g id="g-36">
        <polygon points="177.736,184.463 178.643,229.714 156.113,247.198 155.206,201.947 " id="polygon-30" style="fill:#ffdd77"/>
      </g>
      <g id="g-37">
        <polygon points="177.275,183.455 154.746,200.938 154.296,200.859 176.825,183.375 " id="polygon-31" style="fill:#7684ca"/>
      </g>
      <g id="g-38">
        <polygon points="178.22,230.559 223.734,238.584 201.204,256.068 155.69,248.043 " id="polygon-32" style="fill:#7684ca"/>
      </g>
      <g id="g-39">
        <polygon points="223.273,237.583 200.744,255.067 156.113,247.198 178.643,229.714 " id="polygon-33" style="fill:#7684ca"/>
      </g>
      <g id="g-40">
        <polygon points="178.643,229.714 223.273,237.583 200.744,255.067 156.113,247.198 " id="polygon-34" style="fill:#ffdc72"/>
      </g>
      <g id="g-41">
        <polygon points="223.734,238.584 224.184,238.663 201.654,256.147 201.204,256.068 " id="polygon-35" style="fill:#7684ca"/>
      </g>
      <g id="g-42">
        <polygon points="224.184,238.663 201.654,256.147 201.645,255.69 224.174,238.206 " id="polygon-36" style="fill:#7a88cc"/>
      </g>
      <g id="g-43">
        <polygon points="177.736,184.463 222.366,192.333 199.837,209.817 155.206,201.947 " id="polygon-37" style="fill:#7684ca"/>
      </g>
      <g id="g-44">
        <polygon points="156.113,247.198 155.206,201.947 199.837,209.817 200.744,255.067 " id="polygon-38" style="stroke-width: 4px; stroke: rgb(0, 0, 0); fill: rgba(255, 181, 61, 0.8);"/>
      </g>
      <g id="g-45">
        <polygon points="222.366,192.333 199.837,209.817 155.206,201.947 177.736,184.463 " id="polygon-39" style="fill:#ffdc72"/>
      </g>
      <g id="g-46">
        <polygon points="222.366,192.333 223.273,237.583 200.744,255.067 199.837,209.817 " id="polygon-40" style="fill:#7a88cc"/>
      </g>
      <g id="g-47">
        <polygon points="223.273,237.583 200.744,255.067 199.837,209.817 222.366,192.333 " id="polygon-41" style="fill:#ffdd77"/>
      </g>
      <g id="g-48">
        <polygon points="222.79,191.48 200.26,208.964 154.746,200.938 177.275,183.455 " id="polygon-42" style="fill:#7684ca"/>
      </g>
      <g id="g-49">
        <polygon points="224.174,238.206 201.645,255.69 200.719,209.509 223.249,192.024 " id="polygon-43" style="fill:#7a88cc"/>
      </g>
      <g id="g-50">
        <polygon points="223.239,191.559 200.71,209.044 200.26,208.964 222.79,191.48 " id="polygon-44" style="fill:#7684ca"/>
      </g>
      <g id="g-51">
        <polygon points="223.249,192.024 200.719,209.509 200.71,209.044 223.239,191.559 " id="polygon-45" style="fill:#7a88cc"/>
      </g>
      <g id="g-52">
        <path d="m 200.26,208.964 0.45,0.08 0.009,0.465 0.926,46.182 0.009,0.457 -0.45,-0.079 -45.514,-8.025 -0.45,-0.079 -0.009,-0.458 -0.926,-46.181 -0.009,-0.466 0.45,0.079 z m 0.484,46.103 -0.907,-45.25 -44.631,-7.87 0.907,45.251 44.631,7.869" id="path-3" style="fill:#6272c3"/>
      </g>
    </g>
  </g>
  <g id="g-157" style="opacity: 0.7;" transform="matrix(-1.022284, 0.028722, 0.028085, 0.999606, 564.982361, 53.889786)">
    <g enable-background="new" id="g-158">
      <g id="g-159">
        <polygon points="177.23,127.537 176.323,82.286 220.954,90.156 221.861,135.406 " id="polygon-134" style="fill:#ffd65d"/>
      </g>
      <g id="g-160">
        <polygon points="176.348,127.845 176.356,128.302 153.827,145.787 153.818,145.329 " id="polygon-135" style="fill:#7a88cc"/>
      </g>
      <g id="g-161">
        <polygon points="176.356,128.302 176.807,128.382 154.277,145.866 153.827,145.787 " id="polygon-136" style="fill:#7684ca"/>
      </g>
      <g id="g-162">
        <path d="m 221.376,89.303 0.45,0.08 0.009,0.465 0.926,46.181 0.009,0.458 -0.45,-0.08 -45.514,-8.025 -0.45,-0.08 -0.009,-0.458 -0.926,-46.181 -0.01,-0.465 0.45,0.08 z m 0.485,46.103 -0.907,-45.25 -44.631,-7.87 0.907,45.25 44.631,7.87" id="path-12" style="fill:#6272c3"/>
      </g>
      <g id="g-163">
        <polygon points="175.422,81.664 176.348,127.845 153.818,145.329 152.892,99.148 " id="polygon-137" style="fill:#7a88cc"/>
      </g>
      <g id="g-164">
        <polygon points="175.412,81.198 175.422,81.664 152.892,99.148 152.883,98.683 " id="polygon-138" style="fill:#7a88cc"/>
      </g>
      <g id="g-165">
        <polygon points="177.23,127.537 154.7,145.021 153.793,99.771 176.323,82.286 " id="polygon-139" style="fill:#7a88cc"/>
      </g>
      <g id="g-166">
        <polygon points="176.323,82.286 177.23,127.537 154.7,145.021 153.793,99.771 " id="polygon-140" style="fill:#ffdd77"/>
      </g>
      <g id="g-167">
        <polygon points="175.862,81.278 153.333,98.762 152.883,98.683 175.412,81.198 " id="polygon-141" style="fill:#7684ca"/>
      </g>
      <g id="g-168">
        <polygon points="176.807,128.382 222.321,136.407 199.791,153.891 154.277,145.866 " id="polygon-142" style="fill:#7684ca"/>
      </g>
      <g id="g-169">
        <polygon points="177.23,127.537 221.861,135.406 199.331,152.891 154.7,145.021 " id="polygon-143" style="fill:#ffdc72"/>
      </g>
      <g id="g-170">
        <polygon points="221.861,135.406 199.331,152.891 154.7,145.021 177.23,127.537 " id="polygon-144" style="fill:#7684ca"/>
      </g>
      <g id="g-171">
        <polygon points="222.321,136.407 222.771,136.486 200.241,153.971 199.791,153.891 " id="polygon-145" style="fill:#7684ca"/>
      </g>
      <g id="g-172">
        <polygon points="222.771,136.486 200.241,153.971 200.232,153.513 222.761,136.029 " id="polygon-146" style="fill:#7a88cc"/>
      </g>
      <g id="g-173">
        <polygon points="154.7,145.021 153.793,99.771 198.424,107.64 199.331,152.891 " id="polygon-147" style="stroke-width: 4px; stroke: rgb(0, 0, 0); fill: rgba(255, 181, 61, 0.8);"/>
      </g>
      <g id="g-174">
        <polygon points="176.323,82.286 220.954,90.156 198.424,107.64 153.793,99.771 " id="polygon-148" style="fill:#7684ca"/>
      </g>
      <g id="g-175">
        <polygon points="220.954,90.156 198.424,107.64 153.793,99.771 176.323,82.286 " id="polygon-149" style="fill:#ffdc72"/>
      </g>
      <g id="g-176">
        <polygon points="220.954,90.156 221.861,135.406 199.331,152.891 198.424,107.64 " id="polygon-150" style="fill:#7a88cc"/>
      </g>
      <g id="g-177">
        <polygon points="221.861,135.406 199.331,152.891 198.424,107.64 220.954,90.156 " id="polygon-151" style="fill:#ffdd77"/>
      </g>
      <g id="g-178">
        <polygon points="221.376,89.303 198.847,106.787 153.333,98.762 175.862,81.278 " id="polygon-152" style="fill:#7684ca"/>
      </g>
      <g id="g-179">
        <polygon points="222.761,136.029 200.232,153.513 199.306,107.332 221.835,89.848 " id="polygon-153" style="fill:#7a88cc"/>
      </g>
      <g id="g-180">
        <polygon points="221.826,89.382 199.297,106.867 198.847,106.787 221.376,89.303 " id="polygon-154" style="fill:#7684ca"/>
      </g>
      <g id="g-181">
        <polygon points="221.835,89.848 199.306,107.332 199.297,106.867 221.826,89.382 " id="polygon-155" style="fill:#7a88cc"/>
      </g>
      <g id="g-182">
        <path d="m 198.847,106.787 0.45,0.08 0.009,0.465 0.926,46.181 0.009,0.458 -0.45,-0.08 -45.514,-8.025 -0.45,-0.08 -0.009,-0.458 -0.926,-46.181 -0.009,-0.465 0.45,0.08 z m 0.484,46.104 -0.907,-45.25 -44.631,-7.87 0.907,45.25 44.631,7.87" id="path-13" style="fill:#6272c3"/>
      </g>
    </g>
  </g>
  <g id="g-53" style="opacity: 0.7;" transform="matrix(-1.022284, 0.028722, 0.028085, 0.999606, 514.283325, 65.318161)">
    <g enable-background="new" id="g-54">
      <g id="g-55">
        <polygon points="178.229,178.54 177.322,133.281 221.952,141.151 222.859,186.409 " id="polygon-46" style="fill:#ffd65d"/>
      </g>
      <g id="g-56">
        <polygon points="177.346,178.84 177.355,179.305 154.826,196.79 154.817,196.324 " id="polygon-47" style="fill:#7a88cc"/>
      </g>
      <g id="g-57">
        <polygon points="177.355,179.305 177.806,179.385 155.276,196.869 154.826,196.79 " id="polygon-48" style="fill:#7684ca"/>
      </g>
      <g id="g-58">
        <path d="m 222.384,140.308 0.441,0.078 0.009,0.465 0.926,46.173 0.009,0.465 -0.441,-0.078 -45.522,-8.026 -0.45,-0.08 -0.009,-0.465 -0.925,-46.173 -0.01,-0.465 0.451,0.08 z m 0.475,46.101 -0.907,-45.258 -44.631,-7.87 0.908,45.259 44.63,7.869" id="path-4" style="fill:#6272c3"/>
      </g>
      <g id="g-59">
        <polygon points="176.421,132.667 177.346,178.84 154.817,196.324 153.891,150.151 " id="polygon-49" style="fill:#7a88cc"/>
      </g>
      <g id="g-60">
        <polygon points="176.411,132.201 176.421,132.667 153.891,150.151 153.882,149.686 " id="polygon-50" style="fill:#7a88cc"/>
      </g>
      <g id="g-61">
        <polygon points="178.229,178.54 155.699,196.024 154.792,150.766 177.321,133.281 " id="polygon-51" style="fill:#7a88cc"/>
      </g>
      <g id="g-62">
        <polygon points="177.322,133.281 178.229,178.54 155.699,196.024 154.792,150.766 " id="polygon-52" style="fill:#ffdd77"/>
      </g>
      <g id="g-63">
        <polygon points="176.862,132.281 154.332,149.765 153.882,149.686 176.411,132.201 " id="polygon-53" style="fill:#7684ca"/>
      </g>
      <g id="g-64">
        <polygon points="177.806,179.385 223.328,187.411 200.798,204.896 155.276,196.869 " id="polygon-54" style="fill:#7684ca"/>
      </g>
      <g id="g-65">
        <polygon points="178.229,178.54 222.859,186.409 200.33,203.894 155.699,196.024 " id="polygon-55" style="fill:#ffdc72"/>
      </g>
      <g id="g-66">
        <polygon points="222.859,186.409 200.33,203.894 155.699,196.024 178.229,178.54 " id="polygon-56" style="fill:#7684ca"/>
      </g>
      <g id="g-67">
        <polygon points="223.328,187.411 223.77,187.489 201.24,204.974 200.798,204.896 " id="polygon-57" style="fill:#7684ca"/>
      </g>
      <g id="g-68">
        <polygon points="223.77,187.489 201.24,204.974 201.23,204.508 223.76,187.024 " id="polygon-58" style="fill:#7a88cc"/>
      </g>
      <g id="g-69">
        <polygon points="155.699,196.024 154.792,150.766 199.422,158.635 200.33,203.894 " id="polygon-59" style="stroke-width: 4px; stroke: rgb(0, 0, 0); fill: rgba(255, 181, 61, 0.8);"/>
      </g>
      <g id="g-70">
        <polygon points="177.321,133.281 221.952,141.151 199.422,158.635 154.792,150.766 " id="polygon-60" style="fill:#7684ca"/>
      </g>
      <g id="g-71">
        <polygon points="221.952,141.151 199.422,158.635 154.792,150.766 177.322,133.281 " id="polygon-61" style="fill:#ffdc72"/>
      </g>
      <g id="g-72">
        <polygon points="221.952,141.151 222.859,186.409 200.33,203.894 199.422,158.635 " id="polygon-62" style="fill:#7a88cc"/>
      </g>
      <g id="g-73">
        <polygon points="222.859,186.409 200.33,203.894 199.422,158.635 221.952,141.151 " id="polygon-63" style="fill:#ffdd77"/>
      </g>
      <g id="g-74">
        <polygon points="222.384,140.308 199.854,157.792 154.332,149.765 176.862,132.281 " id="polygon-64" style="fill:#7684ca"/>
      </g>
      <g id="g-75">
        <polygon points="223.76,187.024 201.23,204.508 200.305,158.335 222.834,140.851 " id="polygon-65" style="fill:#7a88cc"/>
      </g>
      <g id="g-76">
        <polygon points="222.825,140.385 200.296,157.87 199.854,157.792 222.384,140.308 " id="polygon-66" style="fill:#7684ca"/>
      </g>
      <g id="g-77">
        <polygon points="222.834,140.851 200.305,158.335 200.296,157.87 222.825,140.385 " id="polygon-67" style="fill:#7a88cc"/>
      </g>
      <g id="g-78">
        <path d="m 199.854,157.792 0.442,0.078 0.009,0.465 0.925,46.173 0.009,0.466 -0.441,-0.078 -45.522,-8.026 -0.45,-0.08 -0.009,-0.465 -0.926,-46.173 -0.009,-0.465 0.45,0.08 z m 0.476,46.102 -0.907,-45.259 -44.63,-7.869 0.907,45.258 44.63,7.87" id="path-5" style="fill:#6272c3"/>
      </g>
    </g>
  </g>
  <g id="g-79" style="opacity: 0.7;" transform="matrix(-1.022284, 0.028722, 0.028085, 0.999606, 514.283325, 65.318161)">
    <g enable-background="new" id="g-80">
      <g id="g-81">
        <polygon points="177.23,127.537 176.323,82.286 220.954,90.156 221.861,135.406 " id="polygon-68" style="fill:#ffd65d"/>
      </g>
      <g id="g-82">
        <polygon points="176.348,127.845 176.356,128.302 153.827,145.787 153.818,145.329 " id="polygon-69" style="fill:#7a88cc"/>
      </g>
      <g id="g-83">
        <polygon points="176.356,128.302 176.807,128.382 154.277,145.866 153.827,145.787 " id="polygon-70" style="fill:#7684ca"/>
      </g>
      <g id="g-84">
        <path d="m 221.376,89.303 0.45,0.08 0.009,0.465 0.926,46.181 0.009,0.458 -0.45,-0.08 -45.514,-8.025 -0.45,-0.08 -0.009,-0.458 -0.926,-46.181 -0.01,-0.465 0.45,0.08 z m 0.485,46.103 -0.907,-45.25 -44.631,-7.87 0.907,45.25 44.631,7.87" id="path-6" style="fill:#6272c3"/>
      </g>
      <g id="g-85">
        <polygon points="175.422,81.664 176.348,127.845 153.818,145.329 152.892,99.148 " id="polygon-71" style="fill:#7a88cc"/>
      </g>
      <g id="g-86">
        <polygon points="175.412,81.198 175.422,81.664 152.892,99.148 152.883,98.683 " id="polygon-72" style="fill:#7a88cc"/>
      </g>
      <g id="g-87">
        <polygon points="177.23,127.537 154.7,145.021 153.793,99.771 176.323,82.286 " id="polygon-73" style="fill:#7a88cc"/>
      </g>
      <g id="g-88">
        <polygon points="176.323,82.286 177.23,127.537 154.7,145.021 153.793,99.771 " id="polygon-74" style="fill:#ffdd77"/>
      </g>
      <g id="g-89">
        <polygon points="175.862,81.278 153.333,98.762 152.883,98.683 175.412,81.198 " id="polygon-75" style="fill:#7684ca"/>
      </g>
      <g id="g-90">
        <polygon points="176.807,128.382 222.321,136.407 199.791,153.891 154.277,145.866 " id="polygon-76" style="fill:#7684ca"/>
      </g>
      <g id="g-91">
        <polygon points="177.23,127.537 221.861,135.406 199.331,152.891 154.7,145.021 " id="polygon-77" style="fill:#ffdc72"/>
      </g>
      <g id="g-92">
        <polygon points="221.861,135.406 199.331,152.891 154.7,145.021 177.23,127.537 " id="polygon-78" style="fill:#7684ca"/>
      </g>
      <g id="g-93">
        <polygon points="222.321,136.407 222.771,136.486 200.241,153.971 199.791,153.891 " id="polygon-79" style="fill:#7684ca"/>
      </g>
      <g id="g-94">
        <polygon points="222.771,136.486 200.241,153.971 200.232,153.513 222.761,136.029 " id="polygon-80" style="fill:#7a88cc"/>
      </g>
      <g id="g-95">
        <polygon points="154.7,145.021 153.793,99.771 198.424,107.64 199.331,152.891 " id="polygon-81" style="stroke-width: 4px; stroke: rgb(0, 0, 0); fill: rgba(255, 181, 61, 0.8);"/>
      </g>
      <g id="g-96">
        <polygon points="176.323,82.286 220.954,90.156 198.424,107.64 153.793,99.771 " id="polygon-82" style="fill:#7684ca"/>
      </g>
      <g id="g-97">
        <polygon points="220.954,90.156 198.424,107.64 153.793,99.771 176.323,82.286 " id="polygon-83" style="fill:#ffdc72"/>
      </g>
      <g id="g-98">
        <polygon points="220.954,90.156 221.861,135.406 199.331,152.891 198.424,107.64 " id="polygon-84" style="fill:#7a88cc"/>
      </g>
      <g id="g-99">
        <polygon points="221.861,135.406 199.331,152.891 198.424,107.64 220.954,90.156 " id="polygon-85" style="fill:#ffdd77"/>
      </g>
      <g id="g-100">
        <polygon points="221.376,89.303 198.847,106.787 153.333,98.762 175.862,81.278 " id="polygon-86" style="fill:#7684ca"/>
      </g>
      <g id="g-101">
        <polygon points="222.761,136.029 200.232,153.513 199.306,107.332 221.835,89.848 " id="polygon-87" style="fill:#7a88cc"/>
      </g>
      <g id="g-102">
        <polygon points="221.826,89.382 199.297,106.867 198.847,106.787 221.376,89.303 " id="polygon-88" style="fill:#7684ca"/>
      </g>
      <g id="g-103">
        <polygon points="221.835,89.848 199.306,107.332 199.297,106.867 221.826,89.382 " id="polygon-89" style="fill:#7a88cc"/>
      </g>
      <g id="g-104">
        <path d="m 198.847,106.787 0.45,0.08 0.009,0.465 0.926,46.181 0.009,0.458 -0.45,-0.08 -45.514,-8.025 -0.45,-0.08 -0.009,-0.458 -0.926,-46.181 -0.009,-0.465 0.45,0.08 z m 0.484,46.104 -0.907,-45.25 -44.631,-7.87 0.907,45.25 44.631,7.87" id="path-7" style="fill:#6272c3"/>
      </g>
    </g>
  </g>
</svg>