<?xml version="1.0" encoding="UTF-8" standalone="no"?>
<!-- Created with Inkscape (http://www.inkscape.org/) -->

<svg
   xmlns:dc="http://purl.org/dc/elements/1.1/"
   xmlns:cc="http://creativecommons.org/ns#"
   xmlns:rdf="http://www.w3.org/1999/02/22-rdf-syntax-ns#"
   xmlns:svg="http://www.w3.org/2000/svg"
   xmlns="http://www.w3.org/2000/svg"
   xmlns:sodipodi="http://sodipodi.sourceforge.net/DTD/sodipodi-0.dtd"
   xmlns:inkscape="http://www.inkscape.org/namespaces/inkscape"
   width="75mm"
   height="75mm"
   viewBox="0 0 75 75"
   version="1.1"
   id="svg8"
   inkscape:version="0.92.4 (5da689c313, 2019-01-14)"
   sodipodi:docname="pandas.svg">
  <defs
     id="defs2" />
  <sodipodi:namedview
     id="base"
     pagecolor="#ffffff"
     bordercolor="#666666"
     borderopacity="1.0"
     inkscape:pageopacity="0.0"
     inkscape:pageshadow="2"
     inkscape:zoom="0.98994949"
     inkscape:cx="149.22609"
     inkscape:cy="191.16881"
     inkscape:document-units="mm"
     inkscape:current-layer="layer1"
     showgrid="false"
     fit-margin-top="2"
     fit-margin-left="2"
     fit-margin-right="2"
     fit-margin-bottom="2"
     inkscape:window-width="1920"
     inkscape:window-height="1001"
     inkscape:window-x="-9"
     inkscape:window-y="-9"
     inkscape:window-maximized="1" />
  <metadata
     id="metadata5">
    <rdf:RDF>
      <cc:Work
         rdf:about="">
        <dc:format>image/svg+xml</dc:format>
        <dc:type
           rdf:resource="http://purl.org/dc/dcmitype/StillImage" />
        <dc:title></dc:title>
      </cc:Work>
    </rdf:RDF>
  </metadata>
  <g
     inkscape:label="Layer 1"
     inkscape:groupmode="layer"
     id="layer1"
     transform="translate(-103.36461,-34.789524)">
    <path
       sodipodi:nodetypes="ccsscccsccccccccccccccccccccccccccccccccccccccc"
       inkscape:connector-curvature="0"
       id="path842"
       d="m 151.87591,78.767072 c 8.61027,-0.458441 10.44482,-4.938464 10.42351,-4.978648 0,0 0.61955,-2.492869 -0.14217,-5.977167 -0.44357,-2.02896 -2.26476,-6.114432 -1.6106,-6.842167 3.7321,-4.151808 4.77203,-2.258481 6.49799,-1.465234 0.24315,0.260318 5.13391,3.091587 4.5591,10.046416 -0.95089,5.669046 -3.21522,8.723474 -6.03027,10.79232 -2.14114,1.336388 -4.81221,3.062065 -8.25951,4.041153 -4.64016,1.317878 -10.02221,1.730739 -11.11753,2.26093 -2.5698,1.865847 -1.0848,6.850389 -0.18375,10.335424 0.57798,2.017523 1.44649,2.312975 1.20272,4.285421 -1.27554,0.89034 -2.89181,1.51075 -5.96345,1.6543 -2.35797,-0.53314 -3.67483,-0.71207 -5.59596,-1.76459 -1.64259,-1.17221 -3.40212,-2.067411 -5.09482,-5.498576 -1.09572,-1.749722 -2.1114,-3.675593 -3.0736,-5.719144 -0.51193,-1.211452 -1.02799,-2.85284 -1.87089,-3.166792 -0.45866,0.130865 -0.633,0.576264 -0.53454,1.323438 0.78296,2.144861 1.77322,4.420066 1.5368,5.923958 -0.66836,0.658104 -1.7405,1.062304 -2.93997,1.386456 -2.95052,0.0249 -4.56895,-0.772644 -6.28083,-1.512493 -2.3251,-2.439876 -4.86463,-5.901641 -5.67948,-11.406776 0.11092,-4.291408 0.25864,-5.350587 -0.73499,-8.381773 -1.0302,-8.420236 0.8669,-10.924105 2.20498,-14.557813 1.61081,-2.760443 3.50889,-5.358316 6.88219,-7.121354 l 0.73499,-0.06302 0.20045,0.81927 -2.33861,1.575523 -3.67495,14.305729 7.68399,11.469793 -0.20045,-14.431772 9.15398,-13.864585 -1.80407,-3.340104 4.27632,-5.608854 6.28083,0.756249 1.40317,5.419791 -7.41674,4.411459 -1.20271,-1.008333 c -3.13994,4.181574 -6.63125,8.209007 -4.54358,14.683857 1.76258,2.883217 2.91787,5.99057 6.01357,8.381771 1.45791,0.516653 2.62729,1.341057 4.34313,1.386459 0.70856,1.548104 1.26057,3.087524 2.47224,4.663541 0.30985,0.478681 0.84939,0.867097 1.5368,1.197398 0.90071,0.113052 1.8613,0.18532 3.3206,-0.08213 1.53414,-0.627479 2.33506,-1.409654 3.16068,-2.186616 0.38475,-0.540514 0.64179,-0.591734 1.24996,-1.501032 0.36095,-0.184739 0.67183,-0.572656 1.15547,-0.641673 z"
       style="opacity:1;fill:#000000;stroke:#999999;stroke-width:0.25736129;stroke-linecap:butt;stroke-linejoin:miter;stroke-miterlimit:4;stroke-dasharray:none;stroke-opacity:1" />
    <ellipse
       style="opacity:1;fill:#000000;fill-opacity:1;stroke:#999999;stroke-width:0.25736129;stroke-linecap:round;stroke-linejoin:round;stroke-miterlimit:4;stroke-dasharray:none;stroke-dashoffset:0;stroke-opacity:1"
       id="ellipse844"
       cx="139.69183"
       cy="65.109802"
       rx="5.1971726"
       ry="5.6148705" />
    <ellipse
       style="opacity:1;fill:#ffffff;fill-opacity:1;stroke:none;stroke-width:1.52642775;stroke-linecap:round;stroke-linejoin:round;stroke-miterlimit:4;stroke-dasharray:none;stroke-dashoffset:0;stroke-opacity:1"
       id="ellipse846"
       cx="137.9765"
       cy="62.104462"
       rx="1.4909437"
       ry="1.5628532" />
    <ellipse
       ry="5.6148705"
       rx="5.1971726"
       cy="66.803169"
       cx="154.5274"
       id="ellipse848"
       style="opacity:1;fill:#000000;fill-opacity:1;stroke:#999999;stroke-width:0.25736129;stroke-linecap:round;stroke-linejoin:round;stroke-miterlimit:4;stroke-dasharray:none;stroke-dashoffset:0;stroke-opacity:1" />
    <ellipse
       ry="1.4368114"
       rx="1.3740132"
       cy="63.927052"
       cx="153.0298"
       id="ellipse850"
       style="opacity:1;fill:#ffffff;fill-opacity:1;stroke:none;stroke-width:1.40501797;stroke-linecap:round;stroke-linejoin:round;stroke-miterlimit:4;stroke-dasharray:none;stroke-dashoffset:0;stroke-opacity:1" />
    <path
       sodipodi:nodetypes="cccccccc"
       inkscape:connector-curvature="0"
       id="path854"
       d="m 158.83464,56.164532 2.67269,-0.157551 c 2.18379,-2.106236 2.73406,-3.405432 3.0736,-4.600523 -0.5591,-3.923538 -2.65498,-5.024441 -4.87767,-5.892447 -1.93483,-0.191229 -3.2321,0.03385 -4.00904,0.598697 -0.84538,1.953647 0.57688,4.086294 -0.26727,5.860939 l -2.23838,-0.378125 c 2.0551,1.196522 3.94727,2.700377 5.64607,4.56901 z"
       style="fill:#000000;stroke:#999999;stroke-width:0.25695664px;stroke-linecap:butt;stroke-linejoin:miter;stroke-opacity:1" />
    <path
       sodipodi:nodetypes="ccccccccc"
       inkscape:connector-curvature="0"
       id="path858"
       d="m 141.88671,75.77358 c -0.15121,-0.0027 0.40535,-0.614977 1.1359,-0.661718 -0.20228,-0.169356 5.30561,0.188731 5.3788,0.409636 0.38696,0.161081 0.74503,0.358489 0.86862,0.85078 -0.0527,0.359298 -0.0813,0.721276 -0.50113,1.039844 -0.33603,0.115538 -0.61666,0.231077 -1.40316,0.346614 -0.12979,0.03584 -0.72651,0.28788 -2.07969,0.890169 -0.51807,-0.58489 -1.05022,-1.039077 -2.02958,-1.520376 -0.5336,-0.41274 -1.39923,-0.657706 -1.36976,-1.354949 z"
       style="fill:#000000;stroke:#999999;stroke-width:0.25695664px;stroke-linecap:butt;stroke-linejoin:miter;stroke-opacity:1" />
    <path
       sodipodi:nodetypes="cccccccc"
       inkscape:connector-curvature="0"
       id="path862"
       d="m 142.05505,79.996252 c 0.38864,-0.228988 1.64971,-0.475333 2.4096,-0.54589 1.44343,0.288081 2.65973,0.776374 3.88607,1.169762 l 1.36368,-0.126948 -0.77309,0.416605 c 0,0 -3.51991,0.178249 -3.7089,0.200532 -0.18899,0.02229 -2.52771,-0.512469 -2.52771,-0.512469 -0.62468,-0.347174 -0.67746,-0.488862 -0.64965,-0.601592 z"
       style="fill:#000000;stroke:#999999;stroke-width:0.25695664px;stroke-linecap:butt;stroke-linejoin:miter;stroke-opacity:1" />
  </g>
</svg>
