<?xml version="1.0" encoding="UTF-8" standalone="no"?>
<!-- Created with Inkscape (http://www.inkscape.org/) -->

<svg
   xmlns:dc="http://purl.org/dc/elements/1.1/"
   xmlns:cc="http://creativecommons.org/ns#"
   xmlns:rdf="http://www.w3.org/1999/02/22-rdf-syntax-ns#"
   xmlns:svg="http://www.w3.org/2000/svg"
   xmlns="http://www.w3.org/2000/svg"
   xmlns:sodipodi="http://sodipodi.sourceforge.net/DTD/sodipodi-0.dtd"
   xmlns:inkscape="http://www.inkscape.org/namespaces/inkscape"
   width="75mm"
   height="75mm"
   viewBox="0 0 75 75"
   version="1.1"
   id="svg8"
   inkscape:version="0.92.4 (5da689c313, 2019-01-14)"
   sodipodi:docname="pandas_groupby.svg">
  <defs
     id="defs2" />
  <sodipodi:namedview
     id="base"
     pagecolor="#ffffff"
     bordercolor="#666666"
     borderopacity="1.0"
     inkscape:pageopacity="0.0"
     inkscape:pageshadow="2"
     inkscape:zoom="1.4"
     inkscape:cx="56.771667"
     inkscape:cy="162.83426"
     inkscape:document-units="mm"
     inkscape:current-layer="layer1"
     showgrid="false"
     fit-margin-top="2"
     fit-margin-left="2"
     fit-margin-right="2"
     fit-margin-bottom="2"
     inkscape:window-width="2560"
     inkscape:window-height="1377"
     inkscape:window-x="-8"
     inkscape:window-y="-8"
     inkscape:window-maximized="1" />
  <metadata
     id="metadata5">
    <rdf:RDF>
      <cc:Work
         rdf:about="">
        <dc:format>image/svg+xml</dc:format>
        <dc:type
           rdf:resource="http://purl.org/dc/dcmitype/StillImage" />
        <dc:title />
      </cc:Work>
    </rdf:RDF>
  </metadata>
  <g
     inkscape:label="Layer 1"
     inkscape:groupmode="layer"
     id="layer1"
     transform="translate(-103.36461,-34.789524)">
    <ellipse
       style="opacity:1;fill:#fff3ea;fill-opacity:1;stroke:#ff9955;stroke-width:1.001737;stroke-linecap:round;stroke-linejoin:round;stroke-miterlimit:4;stroke-dasharray:none;stroke-dashoffset:0;stroke-opacity:1"
       id="path4560"
       cx="150.29085"
       cy="12.482575"
       rx="22.064827"
       ry="14.53682"
       transform="matrix(0.96153054,0.27469805,-0.19377362,0.98104627,0,0)" />
    <path
       sodipodi:nodetypes="ccsscccsccccccccccccccccccccccccccccccccccccccc"
       inkscape:connector-curvature="0"
       id="path842"
       d="m 135.82716,51.574836 c 2.22024,-0.619048 2.43936,-1.894815 2.43147,-1.904069 0,0 0.0172,-0.686617 -0.38348,-1.551894 -0.23332,-0.503867 -0.94529,-1.464621 -0.81676,-1.692515 0.7333,-1.300153 1.11437,-0.866276 1.61072,-0.759328 0.0785,0.05384 1.51882,0.509197 1.77183,2.357869 0.0804,1.534874 -0.33351,2.463464 -0.94821,3.166739 -0.48128,0.473005 -1.07828,1.078355 -1.92111,1.533855 -1.13447,0.613116 -2.51497,1.033035 -2.77006,1.23495 -0.56247,0.636066 0.11386,1.850988 0.55097,2.708388 0.26772,0.493085 0.51148,0.519828 0.56216,1.048809 -0.28125,0.306379 -0.66707,0.562051 -1.46029,0.777675 -0.64619,-0.0024 -1.00019,0.02728 -1.56249,-0.136028 -0.49655,-0.210695 -1.00756,-0.342309 -1.64809,-1.139731 -0.38732,-0.393161 -0.76395,-0.836938 -1.13344,-1.314534 -0.20379,-0.286518 -0.43356,-0.68502 -0.67171,-0.718077 -0.11209,0.06076 -0.13179,0.187128 -0.0628,0.376441 0.3286,0.514441 0.71883,1.050876 0.74429,1.457133 -0.13626,0.210537 -0.39262,0.378226 -0.68684,0.532399 -0.76839,0.178027 -1.23701,0.06333 -1.7266,-0.0305 -0.7481,-0.501997 -1.61138,-1.258287 -2.143,-2.647965 -0.21971,-1.126572 -0.24257,-1.411596 -0.67749,-2.145164 -0.75675,-2.13808 -0.40678,-2.901666 -0.26818,-3.927735 0.26038,-0.813952 0.60513,-1.602128 1.38322,-2.25796 l 0.18815,-0.05907 0.0997,0.20222 -0.51895,0.546877 -0.13,3.947193 2.66974,2.548155 -0.88857,-3.755325 1.5853,-4.149827 -0.66431,-0.767191 0.79088,-1.712033 1.68279,-0.166888 0.68019,1.333279 -1.67973,1.581631 -0.37228,-0.193434 c -0.57704,1.273577 -1.25471,2.527301 -0.33475,4.096271 0.62701,0.650343 1.10852,1.394413 2.0549,1.839012 0.41038,0.0503 0.76329,0.197658 1.21367,0.109995 0.27459,0.362989 0.50784,0.732787 0.91535,1.07388 0.10856,0.106979 0.27189,0.177065 0.4704,0.22341 0.2416,-0.02273 0.49644,-0.05958 0.86174,-0.214031 0.36397,-0.252763 0.52764,-0.503376 0.69807,-0.754063 0.069,-0.163388 0.13317,-0.191675 0.23919,-0.464292 0.0835,-0.06915 0.14213,-0.188438 0.26434,-0.234505 z"
       style="opacity:1;fill:#000000;stroke:#999999;stroke-width:0.25736129;stroke-linecap:butt;stroke-linejoin:miter;stroke-miterlimit:4;stroke-dasharray:none;stroke-opacity:1" />
    <ellipse
       style="opacity:1;fill:#000000;fill-opacity:1;stroke:#999999;stroke-width:0.25736129;stroke-linecap:round;stroke-linejoin:round;stroke-miterlimit:4;stroke-dasharray:none;stroke-dashoffset:0;stroke-opacity:1"
       id="ellipse844"
       cx="118.16451"
       cy="76.165047"
       rx="1.3892765"
       ry="1.5012618"
       transform="matrix(0.97617832,-0.21696978,0.21672349,0.97623303,0,0)" />
    <ellipse
       style="opacity:1;fill:#ffffff;fill-opacity:1;stroke:none;stroke-width:1.52642787;stroke-linecap:round;stroke-linejoin:round;stroke-miterlimit:4;stroke-dasharray:none;stroke-dashoffset:0;stroke-opacity:1"
       id="ellipse846"
       cx="118.48486"
       cy="76.947929"
       rx="0.39854994"
       ry="0.41786391"
       transform="matrix(0.97617832,-0.21696978,0.21672349,0.97623303,0,0)" />
    <ellipse
       ry="1.5012618"
       rx="1.3892765"
       cy="76.617805"
       cx="122.13026"
       id="ellipse848"
       style="opacity:1;fill:#000000;fill-opacity:1;stroke:#999999;stroke-width:0.25736129;stroke-linecap:round;stroke-linejoin:round;stroke-miterlimit:4;stroke-dasharray:none;stroke-dashoffset:0;stroke-opacity:1"
       transform="matrix(0.97617832,-0.21696978,0.21672349,0.97623303,0,0)" />
    <ellipse
       ry="0.38416383"
       rx="0.36729279"
       cy="77.10125"
       cx="122.70351"
       id="ellipse850"
       style="opacity:1;fill:#ffffff;fill-opacity:1;stroke:none;stroke-width:1.40501797;stroke-linecap:round;stroke-linejoin:round;stroke-miterlimit:4;stroke-dasharray:none;stroke-dashoffset:0;stroke-opacity:1"
       transform="matrix(0.97617832,-0.21696978,0.21672349,0.97623303,0,0)" />
    <path
       sodipodi:nodetypes="cccccccc"
       inkscape:connector-curvature="0"
       id="path854"
       d="m 136.33327,45.271572 0.68831,-0.196146 c 0.4478,-0.676422 0.5161,-1.04745 0.53546,-1.379083 -0.37325,-0.991687 -0.98395,-1.157482 -1.61425,-1.255131 -0.51596,0.0623 -0.84144,0.196312 -1.01146,0.38879 -0.10739,0.558966 0.38732,1.033137 0.26985,1.545317 l -0.60601,0.03113 c 0.6056,0.19312 1.1865,0.475909 1.73807,0.865128 z"
       style="fill:#000000;stroke:#999999;stroke-width:0.25695664px;stroke-linecap:butt;stroke-linejoin:miter;stroke-opacity:1" />
    <path
       sodipodi:nodetypes="ccccccccc"
       inkscape:connector-curvature="0"
       id="path858"
       d="m 133.04704,51.372847 c -0.0396,0.008 0.0702,-0.184025 0.25807,-0.238602 -0.0625,-0.03247 1.39541,-0.258458 1.42732,-0.205048 0.11021,0.01962 0.21517,0.05037 0.27595,0.17169 0.007,0.09685 0.0205,0.192992 -0.0705,0.300481 -0.081,0.04965 -0.14754,0.09608 -0.34606,0.171854 -0.0318,0.01685 -0.1729,0.117276 -0.4911,0.35297 -0.16909,-0.12262 -0.33427,-0.210305 -0.61772,-0.279131 -0.16317,-0.07678 -0.40324,-0.09052 -0.43595,-0.27422 z"
       style="fill:#000000;stroke:#999999;stroke-width:0.25695664px;stroke-linecap:butt;stroke-linejoin:miter;stroke-opacity:1" />
    <path
       sodipodi:nodetypes="cccccccc"
       inkscape:connector-curvature="0"
       id="path862"
       d="m 133.33567,52.465275 c 0.0881,-0.08231 0.40293,-0.219753 0.59713,-0.282241 0.39336,-0.0085 0.73904,0.04839 1.08184,0.07994 l 0.3485,-0.112234 -0.17759,0.153583 c 0,0 -0.90819,0.250678 -0.95621,0.267457 -0.048,0.01682 -0.6893,0.01284 -0.6893,0.01284 -0.18312,-0.05438 -0.2051,-0.0883 -0.20437,-0.119347 z"
       style="fill:#000000;stroke:#999999;stroke-width:0.25695664px;stroke-linecap:butt;stroke-linejoin:miter;stroke-opacity:1" />
    <path
       style="opacity:1;fill:#000000;stroke:#999999;stroke-width:0.25736129;stroke-linecap:butt;stroke-linejoin:miter;stroke-miterlimit:4;stroke-dasharray:none;stroke-opacity:1"
       d="m 147.87187,59.343322 c -2.20955,-0.656234 -2.40724,-1.935501 -2.3992,-1.94462 0,0 -0.006,-0.68681 0.40945,-1.545239 0.24173,-0.499878 0.96972,-1.448544 0.84502,-1.678564 -0.71139,-1.312281 -1.09969,-0.884863 -1.59775,-0.786262 -0.0795,0.05252 -1.52715,0.483626 -1.81112,2.327792 -0.10609,1.533307 0.29216,2.468715 0.89497,3.182211 0.47329,0.481019 1.06005,1.096306 1.89512,1.565891 1.12403,0.632076 2.49729,1.07511 2.74897,1.28128 0.55172,0.64542 -0.1449,1.848816 -0.5963,2.698757 -0.27597,0.488522 -0.52014,0.511169 -0.57969,1.039224 0.27609,0.311058 0.65756,0.573172 1.44704,0.802082 0.64615,0.0085 0.9996,0.04406 1.56456,-0.109783 0.50002,-0.20233 1.01316,-0.325345 1.66697,-1.111902 0.39386,-0.386603 0.77787,-0.823994 1.15532,-1.295322 0.20857,-0.283056 0.44498,-0.677644 0.68366,-0.706699 0.11104,0.06263 0.12863,0.189315 0.0565,0.377444 -0.33717,0.508852 -0.73635,1.038659 -0.76861,1.444433 0.13271,0.212795 0.38622,0.384762 0.67781,0.543854 0.7653,0.190902 1.23578,0.08409 1.72686,-0.0015 0.75642,-0.489367 1.63226,-1.231056 2.18711,-2.611615 0.23856,-1.122725 0.26621,-1.407324 0.71336,-2.133489 0.7925,-2.125074 0.45539,-2.894427 0.33401,-3.922678 -0.24669,-0.81821 -0.57819,-1.612064 -1.34516,-2.280865 l -0.18714,-0.06223 -0.10315,0.200516 0.50971,0.555513 0.0638,3.94882 -2.7121,2.502977 0.95141,-3.739879 -1.5155,-4.175858 0.67709,-0.755929 -0.76205,-1.72507 -1.67975,-0.195117 -0.70248,1.321673 1.65299,1.609609 0.37547,-0.187158 c 0.55561,1.283086 1.21216,2.548011 0.26602,4.101316 -0.63782,0.639725 -1.13176,1.375605 -2.08545,1.804254 -0.41116,0.0434 -0.7665,0.184816 -1.21534,0.0896 -0.28064,0.358327 -0.52007,0.724158 -0.93323,1.058362 -0.11033,0.105141 -0.27482,0.172475 -0.47408,0.215481 -0.24118,-0.02678 -0.49538,-0.06791 -0.85803,-0.228467 -0.35969,-0.258838 -0.51913,-0.512165 -0.68533,-0.765677 -0.0663,-0.164524 -0.12995,-0.193884 -0.23138,-0.468243 -0.0823,-0.07054 -0.13894,-0.190797 -0.26036,-0.238909 z"
       id="path4544"
       inkscape:connector-curvature="0"
       sodipodi:nodetypes="ccsscccsccccccccccccccccccccccccccccccccccccccc" />
    <ellipse
       ry="1.5012553"
       rx="1.3892826"
       cy="19.551386"
       cx="-160.88742"
       id="ellipse4546"
       style="opacity:1;fill:#000000;fill-opacity:1;stroke:#999999;stroke-width:0.25736129;stroke-linecap:round;stroke-linejoin:round;stroke-miterlimit:4;stroke-dasharray:none;stroke-dashoffset:0;stroke-opacity:1"
       transform="matrix(-0.97239847,-0.23332642,-0.23306359,0.9724615,0,0)" />
    <ellipse
       ry="0.41786209"
       rx="0.39855167"
       cy="19.081825"
       cx="-160.20547"
       id="ellipse4548"
       style="opacity:1;fill:#ffffff;fill-opacity:1;stroke:none;stroke-width:1.52642787;stroke-linecap:round;stroke-linejoin:round;stroke-miterlimit:4;stroke-dasharray:none;stroke-dashoffset:0;stroke-opacity:1"
       transform="matrix(-0.97239847,-0.23332642,-0.23306359,0.9724615,0,0)" />
    <ellipse
       style="opacity:1;fill:#000000;fill-opacity:1;stroke:#999999;stroke-width:0.25736129;stroke-linecap:round;stroke-linejoin:round;stroke-miterlimit:4;stroke-dasharray:none;stroke-dashoffset:0;stroke-opacity:1"
       id="ellipse4550"
       cx="-156.92165"
       cy="20.004137"
       rx="1.3892826"
       ry="1.5012553"
       transform="matrix(-0.97239847,-0.23332642,-0.23306359,0.9724615,0,0)" />
    <ellipse
       style="opacity:1;fill:#ffffff;fill-opacity:1;stroke:none;stroke-width:1.40501797;stroke-linecap:round;stroke-linejoin:round;stroke-miterlimit:4;stroke-dasharray:none;stroke-dashoffset:0;stroke-opacity:1"
       id="ellipse4552"
       cx="-156.23712"
       cy="19.485634"
       rx="0.3672944"
       ry="0.38416216"
       transform="matrix(-0.97239847,-0.23332642,-0.23306359,0.9724615,0,0)" />
    <path
       style="fill:#000000;stroke:#999999;stroke-width:0.25695664px;stroke-linecap:butt;stroke-linejoin:miter;stroke-opacity:1"
       d="m 147.47153,53.032449 -0.68493,-0.207673 c -0.43639,-0.683844 -0.49846,-1.055968 -0.51225,-1.387878 0.38981,-0.985282 1.00321,-1.140802 1.63507,-1.227856 0.51484,0.07095 0.83801,0.210412 1.00478,0.405716 0.098,0.560691 -0.40458,1.02649 -0.29571,1.54057 l 0.6054,0.04129 c -0.60876,0.182926 -1.19432,0.455923 -1.75234,0.835827 z"
       id="path4554"
       inkscape:connector-curvature="0"
       sodipodi:nodetypes="cccccccc" />
    <path
       style="fill:#000000;stroke:#999999;stroke-width:0.25695664px;stroke-linecap:butt;stroke-linejoin:miter;stroke-opacity:1"
       d="m 150.65498,59.188035 c 0.0394,0.0087 -0.067,-0.185176 -0.25403,-0.242902 0.0631,-0.03142 -1.39088,-0.281848 -1.42367,-0.228979 -0.11057,0.01777 -0.216,0.04675 -0.27881,0.167032 -0.008,0.09672 -0.0238,0.19262 0.0655,0.301623 0.0802,0.051 0.14592,0.09854 0.34314,0.177638 0.0316,0.01739 0.17092,0.120163 0.48511,0.361166 0.17112,-0.119764 0.33775,-0.204664 0.62232,-0.268722 0.16443,-0.07404 0.4047,-0.08373 0.44048,-0.266862 z"
       id="path4556"
       inkscape:connector-curvature="0"
       sodipodi:nodetypes="ccccccccc" />
    <path
       style="fill:#000000;stroke:#999999;stroke-width:0.25695664px;stroke-linecap:butt;stroke-linejoin:miter;stroke-opacity:1"
       d="m 150.34809,60.275464 c -0.0867,-0.08378 -0.3992,-0.226486 -0.59232,-0.292226 -0.39317,-0.01513 -0.73974,0.03597 -1.08304,0.06176 l -0.34655,-0.118063 0.17498,0.156544 c 0,0 0.90386,0.265887 0.95159,0.283472 0.0477,0.01763 0.68898,0.02441 0.68898,0.02441 0.18401,-0.05131 0.20656,-0.08485 0.20635,-0.115898 z"
       id="path4558"
       inkscape:connector-curvature="0"
       sodipodi:nodetypes="cccccccc" />
    <ellipse
       transform="matrix(0.88594614,0.46378813,-0.10717089,0.99424061,0,0)"
       ry="16.17005"
       rx="14.732635"
       cy="13.195692"
       cx="137.66074"
       id="ellipse4729"
       style="opacity:1;fill:#f7ffea;fill-opacity:1;stroke:#00bf00;stroke-width:0.86330575;stroke-linecap:round;stroke-linejoin:round;stroke-miterlimit:4;stroke-dasharray:none;stroke-dashoffset:0;stroke-opacity:1" />
    <g
       id="g4684"
       transform="matrix(0.79163047,0,0,0.75864151,23.781821,10.154439)"
       style="stroke-width:1.29038835">
      <path
         sodipodi:nodetypes="ccsscccsccccccccccccccccccccccccccccccccccccccc"
         inkscape:connector-curvature="0"
         id="path4562"
         d="m 121.49974,85.195443 c 2.22024,-0.619048 2.43936,-1.894815 2.43147,-1.904069 0,0 0.0172,-0.686617 -0.38348,-1.551894 -0.23332,-0.503867 -0.94529,-1.464621 -0.81676,-1.692515 0.7333,-1.300153 1.11437,-0.866276 1.61072,-0.759328 0.0785,0.05384 1.51882,0.509197 1.77183,2.357869 0.0804,1.534874 -0.33351,2.463464 -0.94821,3.166739 -0.48128,0.473005 -1.07828,1.078355 -1.92111,1.533855 -1.13447,0.613116 -2.51497,1.033035 -2.77006,1.23495 -0.56247,0.636066 0.11386,1.850988 0.55097,2.708388 0.26772,0.493085 0.51148,0.519828 0.56216,1.048809 -0.28125,0.306379 -0.66707,0.562051 -1.46029,0.777675 -0.64619,-0.0024 -1.00019,0.02728 -1.56249,-0.136028 -0.49655,-0.210695 -1.00756,-0.342309 -1.64809,-1.139731 -0.38732,-0.393161 -0.76395,-0.836938 -1.13344,-1.314534 -0.20379,-0.286518 -0.43356,-0.68502 -0.67171,-0.718077 -0.11209,0.06076 -0.13179,0.187128 -0.0628,0.376441 0.3286,0.514441 0.71883,1.050876 0.74429,1.457133 -0.13626,0.210537 -0.39262,0.378226 -0.68684,0.532399 -0.76839,0.178027 -1.23701,0.06333 -1.7266,-0.0305 -0.7481,-0.501997 -1.61138,-1.258287 -2.143,-2.647965 -0.21971,-1.126572 -0.24257,-1.411596 -0.67749,-2.145164 -0.75675,-2.13808 -0.40678,-2.901666 -0.26818,-3.927735 0.26038,-0.813952 0.60513,-1.602128 1.38322,-2.25796 l 0.18815,-0.05907 0.0997,0.20222 -0.51895,0.546877 -0.13,3.947193 2.66974,2.548155 -0.88857,-3.755325 1.5853,-4.149827 -0.66431,-0.767191 0.79088,-1.712033 1.68279,-0.166888 0.68019,1.333279 -1.67973,1.581631 -0.37228,-0.193434 c -0.57704,1.273577 -1.25471,2.527301 -0.33475,4.096271 0.62701,0.650343 1.10852,1.394413 2.0549,1.839012 0.41038,0.0503 0.76329,0.197658 1.21367,0.109995 0.27459,0.362989 0.50784,0.732787 0.91535,1.07388 0.10856,0.106979 0.27189,0.177065 0.4704,0.22341 0.2416,-0.02273 0.49644,-0.05958 0.86174,-0.214031 0.36397,-0.252763 0.52764,-0.503376 0.69807,-0.754063 0.069,-0.163388 0.13317,-0.191675 0.23919,-0.464292 0.0835,-0.06915 0.14213,-0.188438 0.26434,-0.234505 z"
         style="opacity:1;fill:#000000;stroke:#999999;stroke-width:0.33209601;stroke-linecap:butt;stroke-linejoin:miter;stroke-miterlimit:4;stroke-dasharray:none;stroke-opacity:1" />
      <ellipse
         style="opacity:1;fill:#000000;fill-opacity:1;stroke:#999999;stroke-width:0.33209601;stroke-linecap:round;stroke-linejoin:round;stroke-miterlimit:4;stroke-dasharray:none;stroke-dashoffset:0;stroke-opacity:1"
         id="ellipse4564"
         cx="96.891228"
         cy="105.87614"
         rx="1.3892765"
         ry="1.5012618"
         transform="matrix(0.97617832,-0.21696978,0.21672349,0.97623303,0,0)" />
      <ellipse
         style="opacity:1;fill:#ffffff;fill-opacity:1;stroke:none;stroke-width:1.96968484;stroke-linecap:round;stroke-linejoin:round;stroke-miterlimit:4;stroke-dasharray:none;stroke-dashoffset:0;stroke-opacity:1"
         id="ellipse4566"
         cx="96.718468"
         cy="106.67702"
         rx="0.39854994"
         ry="0.41786391"
         transform="matrix(0.97617832,-0.21696978,0.21672349,0.97623303,0,0)" />
      <ellipse
         ry="1.5012618"
         rx="1.3892765"
         cy="106.32891"
         cx="100.85698"
         id="ellipse4568"
         style="opacity:1;fill:#000000;fill-opacity:1;stroke:#999999;stroke-width:0.33209601;stroke-linecap:round;stroke-linejoin:round;stroke-miterlimit:4;stroke-dasharray:none;stroke-dashoffset:0;stroke-opacity:1"
         transform="matrix(0.97617832,-0.21696978,0.21672349,0.97623303,0,0)" />
      <ellipse
         ry="0.38416383"
         rx="0.36729279"
         cy="106.97388"
         cx="100.72184"
         id="ellipse4570"
         style="opacity:1;fill:#ffffff;fill-opacity:1;stroke:none;stroke-width:1.81301892;stroke-linecap:round;stroke-linejoin:round;stroke-miterlimit:4;stroke-dasharray:none;stroke-dashoffset:0;stroke-opacity:1"
         transform="matrix(0.97617832,-0.21696978,0.21672349,0.97623303,0,0)" />
      <path
         sodipodi:nodetypes="cccccccc"
         inkscape:connector-curvature="0"
         id="path4572"
         d="m 122.00585,78.892179 0.68831,-0.196146 c 0.4478,-0.676422 0.5161,-1.04745 0.53546,-1.379083 -0.37325,-0.991687 -0.98395,-1.157482 -1.61425,-1.255131 -0.51596,0.0623 -0.84144,0.196312 -1.01146,0.38879 -0.10739,0.558966 0.38732,1.033137 0.26985,1.545317 l -0.60601,0.03113 c 0.6056,0.19312 1.1865,0.475909 1.73807,0.865128 z"
         style="fill:#000000;stroke:#999999;stroke-width:0.33157387px;stroke-linecap:butt;stroke-linejoin:miter;stroke-opacity:1" />
      <path
         sodipodi:nodetypes="ccccccccc"
         inkscape:connector-curvature="0"
         id="path4574"
         d="m 118.71962,84.993454 c -0.0396,0.008 0.0702,-0.184025 0.25807,-0.238602 -0.0625,-0.03247 1.39541,-0.258458 1.42732,-0.205048 0.11021,0.01962 0.21517,0.05037 0.27595,0.17169 0.007,0.09685 0.0205,0.192992 -0.0705,0.300481 -0.081,0.04965 -0.14754,0.09608 -0.34606,0.171854 -0.0318,0.01685 -0.1729,0.117276 -0.4911,0.35297 -0.16909,-0.12262 -0.33427,-0.210305 -0.61772,-0.279131 -0.16317,-0.07678 -0.40324,-0.09052 -0.43595,-0.27422 z"
         style="fill:#000000;stroke:#999999;stroke-width:0.33157387px;stroke-linecap:butt;stroke-linejoin:miter;stroke-opacity:1" />
      <path
         sodipodi:nodetypes="cccccccc"
         inkscape:connector-curvature="0"
         id="path4576"
         d="m 119.00825,86.085882 c 0.0881,-0.08231 0.40293,-0.219753 0.59713,-0.282241 0.39336,-0.0085 0.73904,0.04839 1.08184,0.07994 l 0.3485,-0.112234 -0.17759,0.153583 c 0,0 -0.90819,0.250678 -0.95621,0.267457 -0.048,0.01682 -0.6893,0.01284 -0.6893,0.01284 -0.18312,-0.05438 -0.2051,-0.0883 -0.20437,-0.119347 z"
         style="fill:#000000;stroke:#999999;stroke-width:0.33157387px;stroke-linecap:butt;stroke-linejoin:miter;stroke-opacity:1" />
    </g>
    <ellipse
       style="opacity:1;fill:#f0f6ff;fill-opacity:1;stroke:#80b3ff;stroke-width:0.89832985;stroke-linecap:round;stroke-linejoin:round;stroke-miterlimit:4;stroke-dasharray:none;stroke-dashoffset:0;stroke-opacity:1"
       id="path4733"
       cx="155.61983"
       cy="88.528358"
       rx="21.123009"
       ry="17.721222" />
    <g
       id="g4674"
       transform="matrix(0.83279265,0,0,0.89193012,12.505347,8.7581316)">
      <path
         style="opacity:1;fill:#000000;stroke:#999999;stroke-width:0.25736129;stroke-linecap:butt;stroke-linejoin:miter;stroke-miterlimit:4;stroke-dasharray:none;stroke-opacity:1"
         d="m 172.43217,81.872243 c -2.20955,-0.656234 -2.40724,-1.935501 -2.3992,-1.94462 1.09688,-3.446915 0.26554,-3.664262 0,0 -0.10609,1.533307 -0.5937,0.6117 -0.69247,2.728361 0.18981,5.441956 0.63483,4.403597 1.4699,4.873182 1.12403,0.632076 2.35555,-3.460604 2.60723,-3.254434 0.55172,0.645425 -0.1449,1.848815 -0.5963,2.698755 -0.27597,0.48852 -0.52014,0.51117 -0.57969,1.03923 0.27609,0.31105 0.65756,0.57317 1.44704,0.80208 0.64615,0.008 0.9996,0.0441 1.56456,-0.10978 0.50002,-0.20233 1.01316,-0.32535 1.66697,-1.11191 0.39386,-0.3866 0.77787,-0.82399 1.15532,-1.29532 0.20857,-0.28305 0.44498,-0.67764 0.68366,-0.7067 0.11104,0.0626 0.12863,0.18932 0.0565,0.37745 -0.33717,0.50885 -0.73635,1.03866 -0.76861,1.44443 0.13271,0.21279 0.38622,0.38476 0.67781,0.54385 0.7653,0.19091 1.23578,0.0841 1.72686,-0.001 0.75642,-0.48936 1.63226,-1.23105 2.18711,-2.61161 0.23856,-1.122727 0.26621,-1.407326 0.71336,-2.133491 0.7925,-2.125074 0.45539,-2.894427 0.33401,-3.922678 -0.24669,-0.81821 -0.57819,-1.612064 -1.34516,-2.280865 l -0.18714,-0.06223 -0.10315,0.200516 0.50971,0.555513 0.0638,3.94882 -2.7121,2.502977 0.95141,-3.739879 -1.5155,-4.175858 0.67709,-0.755929 -0.76205,-1.72507 -1.67975,-0.195117 -0.70248,1.321673 1.65299,1.609609 0.37547,-0.187158 c 0.55561,1.283086 1.21216,2.548011 0.26602,4.101316 -0.63782,0.639725 -1.13176,1.375605 -2.08545,1.804254 -0.41116,0.0434 -0.7665,0.184816 -1.21534,0.0896 -0.28064,0.358327 -0.52007,0.724158 -0.93323,1.058362 -0.11033,0.105141 -0.27482,0.172475 -0.47408,0.215481 -0.24118,-0.02678 -0.49538,-0.06791 -0.85803,-0.228467 -0.35969,-0.258838 -0.51913,-0.512165 -0.68533,-0.765677 -0.0663,-0.164524 -0.12995,-0.193884 -0.23138,-0.468243 -0.0823,-0.07054 -0.13894,-0.190797 -0.26036,-0.238909 z"
         id="path4578"
         inkscape:connector-curvature="0"
         sodipodi:nodetypes="ccccsccccccccccccccccccccccccccccccccccccccc" />
      <ellipse
         ry="1.5012553"
         rx="1.3892826"
         cy="35.727905"
         cx="-190.02206"
         id="ellipse4580"
         style="opacity:1;fill:#000000;fill-opacity:1;stroke:#999999;stroke-width:0.25736129;stroke-linecap:round;stroke-linejoin:round;stroke-miterlimit:4;stroke-dasharray:none;stroke-dashoffset:0;stroke-opacity:1"
         transform="matrix(-0.97239847,-0.23332642,-0.23306359,0.9724615,0,0)" />
      <ellipse
         ry="0.41786209"
         rx="0.39855167"
         cy="36.243404"
         cx="-190.49939"
         id="ellipse4582"
         style="opacity:1;fill:#ffffff;fill-opacity:1;stroke:none;stroke-width:1.52642787;stroke-linecap:round;stroke-linejoin:round;stroke-miterlimit:4;stroke-dasharray:none;stroke-dashoffset:0;stroke-opacity:1"
         transform="matrix(-0.97239847,-0.23332642,-0.23306359,0.9724615,0,0)" />
      <ellipse
         style="opacity:1;fill:#000000;fill-opacity:1;stroke:#999999;stroke-width:0.25736129;stroke-linecap:round;stroke-linejoin:round;stroke-miterlimit:4;stroke-dasharray:none;stroke-dashoffset:0;stroke-opacity:1"
         id="ellipse4584"
         cx="-186.05629"
         cy="36.180656"
         rx="1.3892826"
         ry="1.5012553"
         transform="matrix(-0.97239847,-0.23332642,-0.23306359,0.9724615,0,0)" />
      <ellipse
         style="opacity:1;fill:#ffffff;fill-opacity:1;stroke:none;stroke-width:1.40501797;stroke-linecap:round;stroke-linejoin:round;stroke-miterlimit:4;stroke-dasharray:none;stroke-dashoffset:0;stroke-opacity:1"
         id="ellipse4586"
         cx="-185.57719"
         cy="36.924656"
         rx="0.3672944"
         ry="0.38416216"
         transform="matrix(-0.97239847,-0.23332642,-0.23306359,0.9724615,0,0)" />
      <path
         style="fill:#000000;stroke:#999999;stroke-width:0.25695664px;stroke-linecap:butt;stroke-linejoin:miter;stroke-opacity:1"
         d="m 172.03183,75.56137 -0.68493,-0.207673 c -0.43639,-0.683844 -0.49846,-1.055968 -0.51225,-1.387878 0.38981,-0.985282 1.00321,-1.140802 1.63507,-1.227856 0.51484,0.07095 0.83801,0.210412 1.00478,0.405716 0.098,0.560691 -0.40458,1.02649 -0.29571,1.54057 l 0.6054,0.04129 c -0.60876,0.182926 -1.19432,0.455923 -1.75234,0.835827 z"
         id="path4588"
         inkscape:connector-curvature="0"
         sodipodi:nodetypes="cccccccc" />
      <path
         style="fill:#000000;stroke:#999999;stroke-width:0.25695664px;stroke-linecap:butt;stroke-linejoin:miter;stroke-opacity:1"
         d="m 175.21528,81.716956 c 0.0394,0.0087 -0.067,-0.185176 -0.25403,-0.242902 0.0631,-0.03142 -1.39088,-0.281848 -1.42367,-0.228979 -0.11057,0.01777 -0.216,0.04675 -0.27881,0.167032 -0.008,0.09672 -0.0238,0.19262 0.0655,0.301623 0.0802,0.051 0.14592,0.09854 0.34314,0.177638 0.0316,0.01739 0.17092,0.120163 0.48511,0.361166 0.17112,-0.119764 0.33775,-0.204664 0.62232,-0.268722 0.16443,-0.07404 0.4047,-0.08373 0.44048,-0.266862 z"
         id="path4590"
         inkscape:connector-curvature="0"
         sodipodi:nodetypes="ccccccccc" />
      <path
         style="fill:#000000;stroke:#999999;stroke-width:0.25695664px;stroke-linecap:butt;stroke-linejoin:miter;stroke-opacity:1"
         d="m 174.90839,82.804385 c -0.0867,-0.08378 -0.3992,-0.226486 -0.59232,-0.292226 -0.39317,-0.01513 -0.73974,0.03597 -1.08304,0.06176 l -0.34655,-0.118063 0.17498,0.156544 c 0,0 0.90386,0.265887 0.95159,0.283472 0.0477,0.01763 0.68898,0.02441 0.68898,0.02441 0.18401,-0.05131 0.20656,-0.08485 0.20635,-0.115898 z"
         id="path4592"
         inkscape:connector-curvature="0"
         sodipodi:nodetypes="cccccccc" />
    </g>
    <g
       id="g4703"
       transform="matrix(0.83279265,0,0,0.89193012,25.612011,6.2302933)">
      <g
         transform="rotate(-32.700095,181.39831,91.056665)"
         id="g4654">
        <path
           style="opacity:1;fill:#000000;stroke:#999999;stroke-width:0.25736129;stroke-linecap:butt;stroke-linejoin:miter;stroke-miterlimit:4;stroke-dasharray:none;stroke-opacity:1"
           d="m 153.24333,81.564379 c 2.30368,0.07644 2.8959,-1.074595 2.89116,-1.085789 0,0 0.22295,-0.649642 0.1004,-1.59541 -0.0712,-0.550676 -0.46169,-1.680917 -0.27063,-1.859677 1.08999,-1.019848 1.32313,-0.491544 1.76443,-0.24045 0.0588,0.07497 1.29573,0.94189 0.98173,2.781181 -0.38441,1.488126 -1.05811,2.249514 -1.85567,2.735675 -0.60115,0.306595 -1.35242,0.704668 -2.29316,0.88597 -1.26625,0.244039 -2.70914,0.229903 -3.01312,0.345868 -0.72756,0.437748 -0.44739,1.799708 -0.28805,2.748796 0.10726,0.550733 0.33173,0.649461 0.22117,1.169241 -0.36031,0.207738 -0.80511,0.335722 -1.62646,0.303131 -0.61549,-0.196815 -0.96221,-0.274379 -1.44948,-0.599077 -0.41034,-0.350116 -0.85821,-0.629146 -1.22962,-1.58214 -0.25134,-0.49134 -0.47726,-1.027746 -0.68623,-1.594274 -0.10832,-0.334494 -0.20776,-0.783606 -0.42499,-0.886678 -0.12514,0.02426 -0.18191,0.138907 -0.173,0.340193 0.15888,0.589379 0.36996,1.218258 0.2722,1.613395 -0.19321,0.159881 -0.4881,0.242823 -0.81504,0.301502 -0.78639,-0.06099 -1.19892,-0.311148 -1.63786,-0.547226 -0.56277,-0.703516 -1.15901,-1.684181 -1.24863,-3.169365 0.12885,-1.140536 0.19265,-1.419267 -0.002,-2.249592 -0.0795,-2.266642 0.48362,-2.889844 0.92405,-3.826892 0.49285,-0.698153 1.05846,-1.346372 1.99761,-1.738202 l 0.19722,1.65e-4 0.0344,0.22285 -0.65927,0.365742 -1.3097,3.725848 1.78103,3.232387 0.28053,-3.84879 2.75867,-3.481993 -0.40319,-0.931301 1.26862,-1.395412 1.65522,0.346278 0.2483,1.476022 -2.07729,1.00404 -0.29698,-0.296324 c -0.93297,1.041432 -1.95595,2.033703 -1.54977,3.806542 0.40269,0.808641 0.63848,1.662984 1.40759,2.371311 0.37632,0.171238 0.66867,0.417801 1.12458,0.469461 0.15288,0.428703 0.26428,0.851489 0.5505,1.29923 0.0714,0.134643 0.20615,0.250554 0.38157,0.354386 0.23727,0.05089 0.49142,0.09229 0.88624,0.0547 0.4231,-0.131761 0.65449,-0.321641 0.89235,-0.509558 0.11494,-0.135102 0.18461,-0.142819 0.36762,-0.371002 0.10039,-0.04088 0.19217,-0.137046 0.32257,-0.144277 z"
           id="path4630"
           inkscape:connector-curvature="0"
           sodipodi:nodetypes="ccsscccsccccccccccccccccccccccccccccccccccccccc" />
        <ellipse
           ry="1.5012553"
           rx="1.3892826"
           cy="64.38913"
           cx="156.46971"
           id="ellipse4632"
           style="opacity:1;fill:#000000;fill-opacity:1;stroke:#999999;stroke-width:0.25736129;stroke-linecap:round;stroke-linejoin:round;stroke-miterlimit:4;stroke-dasharray:none;stroke-dashoffset:0;stroke-opacity:1"
           transform="matrix(0.99627217,0.08626567,-0.08653494,0.99624882,0,0)" />
        <ellipse
           ry="0.41786209"
           rx="0.39855167"
           cy="64.949432"
           cx="156.877"
           id="ellipse4634"
           style="opacity:1;fill:#ffffff;fill-opacity:1;stroke:none;stroke-width:1.52642787;stroke-linecap:round;stroke-linejoin:round;stroke-miterlimit:4;stroke-dasharray:none;stroke-dashoffset:0;stroke-opacity:1"
           transform="matrix(0.99627217,0.08626567,-0.08653494,0.99624882,0,0)" />
        <ellipse
           style="opacity:1;fill:#000000;fill-opacity:1;stroke:#999999;stroke-width:0.25736129;stroke-linecap:round;stroke-linejoin:round;stroke-miterlimit:4;stroke-dasharray:none;stroke-dashoffset:0;stroke-opacity:1"
           id="ellipse4636"
           cx="160.43549"
           cy="64.841881"
           rx="1.3892826"
           ry="1.5012553"
           transform="matrix(0.99627217,0.08626567,-0.08653494,0.99624882,0,0)" />
        <ellipse
           style="opacity:1;fill:#ffffff;fill-opacity:1;stroke:none;stroke-width:1.40501797;stroke-linecap:round;stroke-linejoin:round;stroke-miterlimit:4;stroke-dasharray:none;stroke-dashoffset:0;stroke-opacity:1"
           id="ellipse4638"
           cx="161.12001"
           cy="64.323372"
           rx="0.3672944"
           ry="0.38416216"
           transform="matrix(0.99627217,0.08626567,-0.08653494,0.99624882,0,0)" />
        <path
           style="fill:#000000;stroke:#999999;stroke-width:0.25695664px;stroke-linecap:butt;stroke-linejoin:miter;stroke-opacity:1"
           d="m 155.6195,75.704242 0.71545,0.01966 c 0.63031,-0.510677 0.80691,-0.844056 0.92499,-1.154558 -0.0581,-1.057996 -0.59081,-1.399574 -1.16268,-1.68204 -0.51085,-0.09556 -0.86154,-0.06549 -1.08153,0.06703 -0.27033,0.500896 0.0591,1.10176 -0.20682,1.555 l -0.58737,-0.152343 c 0.51963,0.366107 0.98876,0.810322 1.39794,1.347241 z"
           id="path4640"
           inkscape:connector-curvature="0"
           sodipodi:nodetypes="cccccccc" />
        <path
           style="fill:#000000;stroke:#999999;stroke-width:0.25695664px;stroke-linecap:butt;stroke-linejoin:miter;stroke-opacity:1"
           d="m 150.65227,80.536654 c -0.0401,-0.0042 0.12214,-0.154472 0.31783,-0.150068 -0.0499,-0.04977 1.40861,0.172619 1.42299,0.233146 0.0993,0.05183 0.19012,0.112679 0.21165,0.246653 -0.023,0.09428 -0.0383,0.190257 -0.15755,0.265413 -0.0922,0.02301 -0.1696,0.04732 -0.38171,0.05997 -0.0355,0.0065 -0.20016,0.05992 -0.57445,0.189158 -0.12445,-0.167745 -0.25566,-0.300997 -0.50536,-0.451787 -0.13256,-0.122254 -0.35742,-0.207453 -0.33344,-0.392499 z"
           id="path4642"
           inkscape:connector-curvature="0"
           sodipodi:nodetypes="ccccccccc" />
        <path
           style="fill:#000000;stroke:#999999;stroke-width:0.25695664px;stroke-linecap:butt;stroke-linejoin:miter;stroke-opacity:1"
           d="m 150.5994,81.665321 c 0.10875,-0.05205 0.45035,-0.08857 0.65435,-0.08984 0.37776,0.110023 0.69037,0.268133 1.00788,0.401198 l 0.3661,-0.0024 -0.21551,0.09315 c 0,0 -0.94156,-0.0337 -0.9924,-0.03211 -0.0508,0.0016 -0.66132,-0.194796 -0.66132,-0.194796 -0.15833,-0.106885 -0.16911,-0.145836 -0.15909,-0.175223 z"
           id="path4644"
           inkscape:connector-curvature="0"
           sodipodi:nodetypes="cccccccc" />
        <path
           sodipodi:nodetypes="ccsscccsccccccccccccccccccccccccccccccccccccccc"
           inkscape:connector-curvature="0"
           id="path4705"
           d="m 162.81389,88.382334 c -1.02847,-2.062772 -0.22844,-3.080391 -0.21629,-3.080741 0,0 0.49787,-0.473146 1.40882,-0.755421 0.53033,-0.164497 1.72054,-0.279943 1.80354,-0.528076 0.47355,-1.415599 -0.10386,-1.407658 -0.51586,-1.704379 -0.0927,-0.02226 -1.39579,-0.786039 -2.93743,0.265118 -1.19304,0.968993 -1.60488,1.898496 -1.71491,2.826045 -0.0285,0.674217 -0.0777,1.523009 0.14904,2.453837 0.30522,1.25291 0.91872,2.558955 0.93982,2.883619 -0.0952,0.843749 -1.45013,1.155962 -2.3794,1.406168 -0.5454,0.131733 -0.72861,-0.03127 -1.15519,0.285633 -0.0389,0.414084 0.0299,0.871791 0.40144,1.605027 0.43517,0.477695 0.65003,0.760658 1.14809,1.068537 0.48916,0.227351 0.9293,0.518418 1.95041,0.459407 0.55137,0.02399 1.13314,0.0061 1.73523,-0.03972 0.34923,-0.04075 0.79897,-0.137294 0.98312,0.01731 0.03,0.123881 -0.0506,0.223223 -0.2373,0.298913 -0.60203,0.100886 -1.26169,0.170752 -1.58027,0.424126 -0.0649,0.242229 -0.0176,0.54488 0.0651,0.866573 0.38282,0.689627 0.782,0.960579 1.17937,1.261406 0.87393,0.218834 2.01379,0.352724 3.40148,-0.184035 0.98338,-0.591935 1.21025,-0.765974 2.04625,-0.934637 2.09401,-0.871268 2.42623,-1.642703 3.09489,-2.433231 0.42962,-0.738743 0.78356,-1.522856 0.74888,-2.539876 l -0.0823,-0.179252 -0.21695,0.06149 -0.0581,0.751683 -2.84248,2.741817 -3.68042,-0.273809 3.38269,-1.857234 2.01759,-3.957762 1.01461,-0.02108 0.74066,-1.734356 -1.00388,-1.36084 -1.44542,0.388671 -0.0482,2.30671 0.39306,0.146672 c -0.55854,1.281816 -1.0349,2.625009 -2.81592,2.993688 -0.90287,-0.02952 -1.77783,0.111733 -2.74203,-0.29271 -0.31235,-0.270881 -0.65823,-0.434058 -0.89499,-0.827084 -0.45343,0.03946 -0.88422,0.114163 -1.41047,0.04031 -0.15214,-0.0089 -0.31363,-0.08314 -0.48106,-0.199415 -0.14504,-0.19455 -0.28848,-0.408399 -0.41866,-0.783032 -0.0563,-0.439548 0.02,-0.728979 0.0918,-1.023476 0.075,-0.160748 0.053,-0.227307 0.18429,-0.488694 -0.005,-0.108296 0.0446,-0.231777 -0.003,-0.353352 z"
           style="opacity:1;fill:#000000;stroke:#999999;stroke-width:0.25736129;stroke-linecap:butt;stroke-linejoin:miter;stroke-miterlimit:4;stroke-dasharray:none;stroke-opacity:1" />
        <ellipse
           transform="matrix(-0.49316194,-0.86993753,-0.8698042,0.49339705,0,0)"
           style="opacity:1;fill:#000000;fill-opacity:1;stroke:#999999;stroke-width:0.25736129;stroke-linecap:round;stroke-linejoin:round;stroke-miterlimit:4;stroke-dasharray:none;stroke-dashoffset:0;stroke-opacity:1"
           id="ellipse4707"
           cx="-160.46416"
           cy="-101.70266"
           rx="1.3892826"
           ry="1.5012553" />
        <ellipse
           transform="matrix(-0.49316194,-0.86993753,-0.8698042,0.49339705,0,0)"
           style="opacity:1;fill:#ffffff;fill-opacity:1;stroke:none;stroke-width:1.52642787;stroke-linecap:round;stroke-linejoin:round;stroke-miterlimit:4;stroke-dasharray:none;stroke-dashoffset:0;stroke-opacity:1"
           id="ellipse4709"
           cx="-159.8262"
           cy="-102.0886"
           rx="0.39855167"
           ry="0.41786209" />
        <ellipse
           transform="matrix(-0.49316194,-0.86993753,-0.8698042,0.49339705,0,0)"
           ry="1.5012553"
           rx="1.3892826"
           cy="-101.24991"
           cx="-156.49838"
           id="ellipse4711"
           style="opacity:1;fill:#000000;fill-opacity:1;stroke:#999999;stroke-width:0.25736129;stroke-linecap:round;stroke-linejoin:round;stroke-miterlimit:4;stroke-dasharray:none;stroke-dashoffset:0;stroke-opacity:1" />
        <ellipse
           transform="matrix(-0.49316194,-0.86993753,-0.8698042,0.49339705,0,0)"
           ry="0.38416216"
           rx="0.3672944"
           cy="-100.69235"
           cx="-155.89925"
           id="ellipse4713"
           style="opacity:1;fill:#ffffff;fill-opacity:1;stroke:none;stroke-width:1.40501797;stroke-linecap:round;stroke-linejoin:round;stroke-miterlimit:4;stroke-dasharray:none;stroke-dashoffset:0;stroke-opacity:1" />
        <path
           sodipodi:nodetypes="cccccccc"
           inkscape:connector-curvature="0"
           id="path4715"
           d="m 167.153,83.782386 -0.3157,-0.64233 c 0.20194,-0.785685 0.43155,-1.085034 0.66471,-1.321652 0.98616,-0.387594 1.51849,-0.04542 2.01337,0.356956 0.29955,0.424705 0.41819,0.756083 0.38927,1.011271 -0.3429,0.454306 -1.02636,0.404902 -1.32776,0.83536 l 0.38302,0.470642 c -0.54919,-0.320065 -1.14837,-0.561698 -1.80689,-0.710233 z"
           style="fill:#000000;stroke:#999999;stroke-width:0.25695664px;stroke-linecap:butt;stroke-linejoin:miter;stroke-opacity:1" />
        <path
           sodipodi:nodetypes="ccccccccc"
           inkscape:connector-curvature="0"
           id="path4717"
           d="m 164.82694,90.310404 c 0.0205,0.03471 0.0896,-0.175358 0.004,-0.351453 0.066,0.02465 -0.74333,-1.208904 -0.80435,-1.196783 -0.0885,-0.06871 -0.18159,-0.125958 -0.31237,-0.08976 -0.0761,0.06016 -0.15704,0.114024 -0.17574,0.253736 0.0175,0.09341 0.0276,0.173905 0.10437,0.372029 0.009,0.03498 0.0289,0.206937 0.0671,0.601054 0.20432,0.04333 0.3801,0.107158 0.62115,0.271424 0.16634,0.06964 0.33741,0.238621 0.49568,0.139787 z"
           style="fill:#000000;stroke:#999999;stroke-width:0.25695664px;stroke-linecap:butt;stroke-linejoin:miter;stroke-opacity:1" />
        <path
           sodipodi:nodetypes="cccccccc"
           inkscape:connector-curvature="0"
           id="path4719"
           d="m 163.82272,90.828314 c 0.002,-0.120547 -0.10694,-0.446345 -0.19071,-0.632358 -0.25729,-0.297673 -0.53118,-0.516092 -0.78434,-0.749392 l -0.15022,-0.333871 0.005,0.234726 c 0,0 0.42259,0.842073 0.44231,0.88896 0.0197,0.04686 0.45241,0.520208 0.45241,0.520208 0.16309,0.09947 0.203,0.09305 0.22554,0.07171 z"
           style="fill:#000000;stroke:#999999;stroke-width:0.25695664px;stroke-linecap:butt;stroke-linejoin:miter;stroke-opacity:1" />
      </g>
    </g>
    <flowRoot
       xml:space="preserve"
       id="flowRoot4721"
       style="font-style:normal;font-weight:normal;font-size:40px;line-height:1.25;font-family:sans-serif;letter-spacing:0px;word-spacing:0px;fill:#000000;fill-opacity:1;stroke:none"
       transform="matrix(0.43768573,0,0,0.25235656,88.642461,26.395938)"><flowRegion
         id="flowRegion4723"><rect
           id="rect4725"
           width="33.335033"
           height="55.305851"
           x="74.498749"
           y="202.90491" /></flowRegion><flowPara
         id="flowPara4727"
         style="font-style:normal;font-variant:normal;font-weight:bold;font-stretch:normal;font-family:Calibri;-inkscape-font-specification:'Calibri Bold'">?</flowPara></flowRoot>  </g>
</svg>
