<?xml version="1.0" encoding="utf-8"?>
<svg viewBox="0 0 500 500" xmlns="http://www.w3.org/2000/svg">
  <path d="M 70.235 372.372 L 50.385 372.372 L 50.385 274.072 L 70.235 274.072 L 70.235 277.852 C 70.235 278.645 69.995 279.265 69.515 279.712 C 69.028 280.165 68.388 280.392 67.595 280.392 L 58.475 280.392 L 58.475 366.012 L 67.595 366.012 C 68.388 366.012 69.028 366.235 69.515 366.682 C 69.995 367.129 70.235 367.769 70.235 368.602 L 70.235 372.372 Z M 130.505 333.962 L 117.715 333.962 L 113.185 356.782 L 108.815 356.782 C 107.988 356.782 107.285 356.475 106.705 355.862 C 106.132 355.255 105.845 354.465 105.845 353.492 C 105.845 353.345 105.855 353.209 105.875 353.082 C 105.895 352.962 105.922 352.812 105.955 352.632 L 109.785 333.962 L 96.455 333.962 L 92.625 353.112 C 92.338 354.445 91.792 355.389 90.985 355.942 C 90.172 356.502 89.245 356.782 88.205 356.782 L 83.945 356.782 L 88.525 333.962 L 80.655 333.962 C 79.828 333.962 79.178 333.755 78.705 333.342 C 78.238 332.929 78.005 332.219 78.005 331.212 C 78.005 331.032 78.015 330.832 78.035 330.612 C 78.055 330.399 78.082 330.185 78.115 329.972 L 78.545 326.892 L 89.555 326.892 L 93.065 309.302 L 80.545 309.302 L 81.245 305.312 C 81.425 304.272 81.838 303.499 82.485 302.992 C 83.132 302.492 84.158 302.242 85.565 302.242 L 94.085 302.242 L 97.965 282.922 C 98.185 281.842 98.682 280.999 99.455 280.392 C 100.228 279.779 101.155 279.472 102.235 279.472 L 106.545 279.472 L 102.015 302.242 L 115.345 302.242 L 119.875 279.472 L 124.135 279.472 C 125.035 279.472 125.782 279.742 126.375 280.282 C 126.968 280.822 127.265 281.522 127.265 282.382 C 127.265 282.669 127.248 282.902 127.215 283.082 L 123.275 302.242 L 134.705 302.242 L 134.005 306.282 C 133.825 307.329 133.405 308.095 132.745 308.582 C 132.078 309.062 131.062 309.302 129.695 309.302 L 122.245 309.302 L 118.745 326.892 L 128.395 326.892 C 129.262 326.892 129.928 327.099 130.395 327.512 C 130.862 327.925 131.095 328.655 131.095 329.702 C 131.095 329.882 131.085 330.069 131.065 330.262 C 131.052 330.462 131.025 330.669 130.985 330.882 L 130.505 333.962 Z M 100.995 309.302 L 97.485 326.892 L 110.805 326.892 L 114.315 309.302 L 100.995 309.302 Z M 193.087 333.962 L 180.297 333.962 L 175.767 356.782 L 171.397 356.782 C 170.57 356.782 169.867 356.475 169.287 355.862 C 168.713 355.255 168.427 354.465 168.427 353.492 C 168.427 353.345 168.437 353.209 168.457 353.082 C 168.477 352.962 168.503 352.812 168.537 352.632 L 172.367 333.962 L 159.037 333.962 L 155.207 353.112 C 154.92 354.445 154.373 355.389 153.567 355.942 C 152.753 356.502 151.827 356.782 150.787 356.782 L 146.527 356.782 L 151.107 333.962 L 143.237 333.962 C 142.41 333.962 141.76 333.755 141.287 333.342 C 140.82 332.929 140.587 332.219 140.587 331.212 C 140.587 331.032 140.597 330.832 140.617 330.612 C 140.637 330.399 140.663 330.185 140.697 329.972 L 141.127 326.892 L 152.137 326.892 L 155.647 309.302 L 143.127 309.302 L 143.827 305.312 C 144.007 304.272 144.42 303.499 145.067 302.992 C 145.713 302.492 146.74 302.242 148.147 302.242 L 156.667 302.242 L 160.547 282.922 C 160.767 281.842 161.263 280.999 162.037 280.392 C 162.81 279.779 163.737 279.472 164.817 279.472 L 169.127 279.472 L 164.597 302.242 L 177.927 302.242 L 182.457 279.472 L 186.717 279.472 C 187.617 279.472 188.363 279.742 188.957 280.282 C 189.55 280.822 189.847 281.522 189.847 282.382 C 189.847 282.669 189.83 282.902 189.797 283.082 L 185.857 302.242 L 197.287 302.242 L 196.587 306.282 C 196.407 307.329 195.987 308.095 195.327 308.582 C 194.66 309.062 193.643 309.302 192.277 309.302 L 184.827 309.302 L 181.327 326.892 L 190.977 326.892 C 191.843 326.892 192.51 327.099 192.977 327.512 C 193.443 327.925 193.677 328.655 193.677 329.702 C 193.677 329.882 193.667 330.069 193.647 330.262 C 193.633 330.462 193.607 330.669 193.567 330.882 L 193.087 333.962 Z M 163.577 309.302 L 160.067 326.892 L 173.387 326.892 L 176.897 309.302 L 163.577 309.302 Z M 205.659 328.512 L 205.659 320.362 L 232.309 320.362 L 232.309 328.512 L 205.659 328.512 Z M 243.1 328.512 L 243.1 320.362 L 269.75 320.362 L 269.75 328.512 L 243.1 328.512 Z M 280.541 328.512 L 280.541 320.362 L 307.191 320.362 L 307.191 328.512 L 280.541 328.512 Z M 317.982 328.512 L 317.982 320.362 L 344.632 320.362 L 344.632 328.512 L 317.982 328.512 Z M 355.423 328.512 L 355.423 320.362 L 382.073 320.362 L 382.073 328.512 L 355.423 328.512 Z M 392.865 328.512 L 392.865 320.362 L 419.515 320.362 L 419.515 328.512 L 392.865 328.512 Z M 429.766 372.372 L 429.766 368.602 C 429.766 367.882 430.006 367.269 430.486 366.762 C 430.972 366.262 431.612 366.012 432.406 366.012 L 441.526 366.012 L 441.526 280.392 L 432.406 280.392 C 431.612 280.392 430.972 280.149 430.486 279.662 C 430.006 279.175 429.766 278.572 429.766 277.852 L 429.766 274.072 L 449.616 274.072 L 449.616 372.372 L 429.766 372.372 Z" style="white-space: pre;"/>
  <path d="M 133.87 127.627 C 137.143 127.627 140.203 128.11 143.05 129.077 C 145.89 130.05 148.343 131.464 150.41 133.317 C 152.477 135.17 154.103 137.427 155.29 140.087 C 156.477 142.747 157.07 145.767 157.07 149.147 C 157.07 152.027 156.64 154.69 155.78 157.137 C 154.913 159.584 153.743 161.93 152.27 164.177 C 150.797 166.424 149.097 168.6 147.17 170.707 C 145.25 172.807 143.21 174.954 141.05 177.147 L 120.71 197.977 C 122.15 197.577 123.607 197.26 125.08 197.027 C 126.553 196.794 127.973 196.677 129.34 196.677 L 155.24 196.677 C 156.28 196.677 157.107 196.984 157.72 197.597 C 158.333 198.21 158.64 199 158.64 199.967 L 158.64 205.797 L 107.06 205.797 L 107.06 202.507 C 107.06 201.82 107.197 201.117 107.47 200.397 C 107.737 199.684 108.177 199.02 108.79 198.407 L 133.55 173.537 C 135.603 171.45 137.473 169.444 139.16 167.517 C 140.853 165.597 142.3 163.664 143.5 161.717 C 144.707 159.777 145.633 157.81 146.28 155.817 C 146.927 153.817 147.25 151.684 147.25 149.417 C 147.25 147.15 146.89 145.164 146.17 143.457 C 145.457 141.75 144.47 140.34 143.21 139.227 C 141.95 138.107 140.473 137.27 138.78 136.717 C 137.093 136.157 135.277 135.877 133.33 135.877 C 131.39 135.877 129.593 136.164 127.94 136.737 C 126.287 137.317 124.82 138.117 123.54 139.137 C 122.267 140.164 121.19 141.38 120.31 142.787 C 119.423 144.187 118.8 145.734 118.44 147.427 C 118.153 148.467 117.723 149.22 117.15 149.687 C 116.577 150.154 115.82 150.387 114.88 150.387 C 114.7 150.387 114.513 150.38 114.32 150.367 C 114.12 150.347 113.893 150.32 113.64 150.287 L 108.63 149.417 C 109.13 145.897 110.1 142.777 111.54 140.057 C 112.98 137.344 114.803 135.07 117.01 133.237 C 119.223 131.404 121.76 130.01 124.62 129.057 C 127.48 128.104 130.563 127.627 133.87 127.627 Z M 216.792 128.487 L 216.792 132.697 C 216.792 134.064 216.362 135.187 215.502 136.067 C 214.635 136.947 213.179 137.387 211.132 137.387 L 186.852 137.387 L 183.292 157.677 C 187.319 156.81 191.042 156.377 194.462 156.377 C 198.489 156.377 202.039 156.97 205.112 158.157 C 208.192 159.344 210.772 160.98 212.852 163.067 C 214.939 165.154 216.515 167.617 217.582 170.457 C 218.642 173.297 219.172 176.39 219.172 179.737 C 219.172 183.837 218.452 187.544 217.012 190.857 C 215.572 194.164 213.602 196.994 211.102 199.347 C 208.602 201.707 205.662 203.514 202.282 204.767 C 198.902 206.027 195.252 206.657 191.332 206.657 C 189.065 206.657 186.889 206.434 184.802 205.987 C 182.715 205.534 180.772 204.93 178.972 204.177 C 177.179 203.424 175.509 202.56 173.962 201.587 C 172.415 200.62 171.049 199.597 169.862 198.517 L 172.772 194.417 C 173.419 193.477 174.282 193.007 175.362 193.007 C 176.042 193.007 176.842 193.287 177.762 193.847 C 178.682 194.407 179.789 195.027 181.082 195.707 C 182.375 196.394 183.895 197.014 185.642 197.567 C 187.382 198.127 189.459 198.407 191.872 198.407 C 194.565 198.407 196.992 197.974 199.152 197.107 C 201.312 196.247 203.155 195.017 204.682 193.417 C 206.209 191.817 207.389 189.9 208.222 187.667 C 209.049 185.44 209.462 182.94 209.462 180.167 C 209.462 177.76 209.109 175.587 208.402 173.647 C 207.702 171.7 206.642 170.044 205.222 168.677 C 203.802 167.31 202.032 166.25 199.912 165.497 C 197.785 164.744 195.302 164.367 192.462 164.367 C 190.522 164.367 188.509 164.527 186.422 164.847 C 184.335 165.174 182.179 165.697 179.952 166.417 L 173.902 164.637 L 180.162 128.487 L 216.792 128.487 Z M 231.364 199.867 C 231.364 198.927 231.534 198.044 231.874 197.217 C 232.214 196.39 232.68 195.67 233.274 195.057 C 233.867 194.45 234.577 193.967 235.404 193.607 C 236.23 193.247 237.114 193.067 238.054 193.067 C 238.987 193.067 239.867 193.247 240.694 193.607 C 241.52 193.967 242.24 194.45 242.854 195.057 C 243.467 195.67 243.944 196.39 244.284 197.217 C 244.624 198.044 244.794 198.927 244.794 199.867 C 244.794 200.834 244.624 201.724 244.284 202.537 C 243.944 203.344 243.467 204.054 242.854 204.667 C 242.24 205.274 241.52 205.75 240.694 206.097 C 239.867 206.437 238.987 206.607 238.054 206.607 C 237.114 206.607 236.23 206.437 235.404 206.097 C 234.577 205.75 233.867 205.274 233.274 204.667 C 232.68 204.054 232.214 203.344 231.874 202.537 C 231.534 201.724 231.364 200.834 231.364 199.867 Z M 308.838 167.167 C 308.838 173.927 308.108 179.78 306.648 184.727 C 305.195 189.674 303.208 193.767 300.688 197.007 C 298.168 200.24 295.192 202.65 291.758 204.237 C 288.325 205.817 284.648 206.607 280.728 206.607 C 276.768 206.607 273.088 205.817 269.688 204.237 C 266.295 202.65 263.338 200.24 260.818 197.007 C 258.298 193.767 256.322 189.674 254.888 184.727 C 253.448 179.78 252.728 173.927 252.728 167.167 C 252.728 160.407 253.448 154.544 254.888 149.577 C 256.322 144.617 258.298 140.51 260.818 137.257 C 263.338 133.997 266.295 131.577 269.688 129.997 C 273.088 128.417 276.768 127.627 280.728 127.627 C 284.648 127.627 288.325 128.417 291.758 129.997 C 295.192 131.577 298.168 133.997 300.688 137.257 C 303.208 140.51 305.195 144.617 306.648 149.577 C 308.108 154.544 308.838 160.407 308.838 167.167 Z M 298.848 167.167 C 298.848 161.267 298.355 156.314 297.368 152.307 C 296.382 148.294 295.052 145.064 293.378 142.617 C 291.705 140.177 289.772 138.424 287.578 137.357 C 285.385 136.297 283.102 135.767 280.728 135.767 C 278.355 135.767 276.072 136.297 273.878 137.357 C 271.678 138.424 269.752 140.177 268.098 142.617 C 266.445 145.064 265.125 148.294 264.138 152.307 C 263.145 156.314 262.648 161.267 262.648 167.167 C 262.648 173.067 263.145 178.014 264.138 182.007 C 265.125 186 266.445 189.22 268.098 191.667 C 269.752 194.107 271.678 195.86 273.878 196.927 C 276.072 197.987 278.355 198.517 280.728 198.517 C 283.102 198.517 285.385 197.987 287.578 196.927 C 289.772 195.86 291.705 194.107 293.378 191.667 C 295.052 189.22 296.382 186 297.368 182.007 C 298.355 178.014 298.848 173.067 298.848 167.167 Z M 350.21 147.157 C 350.21 150.177 349.744 152.884 348.81 155.277 C 347.877 157.664 346.627 159.677 345.06 161.317 C 343.494 162.95 341.667 164.2 339.58 165.067 C 337.5 165.927 335.327 166.357 333.06 166.357 C 330.614 166.357 328.357 165.927 326.29 165.067 C 324.217 164.2 322.407 162.95 320.86 161.317 C 319.314 159.677 318.11 157.664 317.25 155.277 C 316.384 152.884 315.95 150.177 315.95 147.157 C 315.95 144.064 316.384 141.31 317.25 138.897 C 318.11 136.49 319.314 134.46 320.86 132.807 C 322.407 131.147 324.217 129.887 326.29 129.027 C 328.357 128.16 330.614 127.727 333.06 127.727 C 335.467 127.727 337.724 128.16 339.83 129.027 C 341.93 129.887 343.747 131.147 345.28 132.807 C 346.807 134.46 348.01 136.49 348.89 138.897 C 349.77 141.31 350.21 144.064 350.21 147.157 Z M 342.71 147.157 C 342.71 144.784 342.46 142.767 341.96 141.107 C 341.454 139.454 340.76 138.097 339.88 137.037 C 339 135.977 337.977 135.214 336.81 134.747 C 335.637 134.28 334.387 134.047 333.06 134.047 C 331.727 134.047 330.477 134.28 329.31 134.747 C 328.137 135.214 327.12 135.977 326.26 137.037 C 325.394 138.097 324.72 139.454 324.24 141.107 C 323.754 142.767 323.51 144.784 323.51 147.157 C 323.51 149.49 323.754 151.477 324.24 153.117 C 324.72 154.75 325.394 156.08 326.26 157.107 C 327.12 158.134 328.137 158.87 329.31 159.317 C 330.477 159.77 331.727 159.997 333.06 159.997 C 334.387 159.997 335.637 159.77 336.81 159.317 C 337.977 158.87 339 158.134 339.88 157.107 C 340.76 156.08 341.454 154.75 341.96 153.117 C 342.46 151.477 342.71 149.49 342.71 147.157 Z M 321.03 205.797 L 377.24 130.427 C 377.707 129.814 378.204 129.337 378.73 128.997 C 379.25 128.657 379.94 128.487 380.8 128.487 L 387.71 128.487 L 331.22 204.237 C 330.86 204.704 330.43 205.08 329.93 205.367 C 329.424 205.654 328.83 205.797 328.15 205.797 L 321.03 205.797 Z M 392.94 187.557 C 392.94 190.584 392.474 193.284 391.54 195.657 C 390.607 198.03 389.357 200.034 387.79 201.667 C 386.224 203.307 384.407 204.557 382.34 205.417 C 380.274 206.284 378.107 206.717 375.84 206.717 C 373.394 206.717 371.137 206.284 369.07 205.417 C 367.004 204.557 365.197 203.307 363.65 201.667 C 362.104 200.034 360.897 198.03 360.03 195.657 C 359.17 193.284 358.74 190.584 358.74 187.557 C 358.74 184.47 359.17 181.71 360.03 179.277 C 360.897 176.85 362.104 174.81 363.65 173.157 C 365.197 171.504 367.004 170.244 369.07 169.377 C 371.137 168.517 373.394 168.087 375.84 168.087 C 378.247 168.087 380.494 168.517 382.58 169.377 C 384.667 170.244 386.484 171.504 388.03 173.157 C 389.577 174.81 390.784 176.85 391.65 179.277 C 392.51 181.71 392.94 184.47 392.94 187.557 Z M 385.5 187.557 C 385.5 185.184 385.247 183.164 384.74 181.497 C 384.24 179.824 383.547 178.464 382.66 177.417 C 381.78 176.377 380.757 175.624 379.59 175.157 C 378.424 174.69 377.174 174.457 375.84 174.457 C 374.507 174.457 373.257 174.69 372.09 175.157 C 370.924 175.624 369.907 176.377 369.04 177.417 C 368.18 178.464 367.507 179.824 367.02 181.497 C 366.534 183.164 366.29 185.184 366.29 187.557 C 366.29 189.897 366.534 191.877 367.02 193.497 C 367.507 195.117 368.18 196.437 369.04 197.457 C 369.907 198.484 370.924 199.224 372.09 199.677 C 373.257 200.124 374.507 200.347 375.84 200.347 C 377.174 200.347 378.424 200.124 379.59 199.677 C 380.757 199.224 381.78 198.484 382.66 197.457 C 383.547 196.437 384.24 195.117 384.74 193.497 C 385.247 191.877 385.5 189.897 385.5 187.557 Z" style="white-space: pre;"/>
</svg>