<?xml version="1.0" encoding="UTF-8" standalone="no"?>
<!-- Created with Inkscape (http://www.inkscape.org/) -->

<svg
   width="256"
   height="256"
   viewBox="2 2 256 256"
   version="1.1"
   id="svg5"
   xml:space="preserve"
   inkscape:version="1.2 (dc2aedaf03, 2022-05-15)"
   sodipodi:docname="pyspark.svg"
   xmlns:inkscape="http://www.inkscape.org/namespaces/inkscape"
   xmlns:sodipodi="http://sodipodi.sourceforge.net/DTD/sodipodi-0.dtd"
   xmlns:xlink="http://www.w3.org/1999/xlink"
   xmlns="http://www.w3.org/2000/svg"
   xmlns:svg="http://www.w3.org/2000/svg"><sodipodi:namedview
     id="namedview7"
     pagecolor="#ffffff"
     bordercolor="#000000"
     borderopacity="0.25"
     inkscape:showpageshadow="false"
     inkscape:pageopacity="0.0"
     inkscape:pagecheckerboard="0"
     inkscape:deskcolor="#d1d1d1"
     inkscape:document-units="mm"
     showgrid="false"
     showborder="true"
     inkscape:zoom="1.0255231"
     inkscape:cx="364.69194"
     inkscape:cy="55.093836"
     inkscape:window-width="1340"
     inkscape:window-height="763"
     inkscape:window-x="248"
     inkscape:window-y="191"
     inkscape:window-maximized="0"
     inkscape:current-layer="layer1" /><defs
     id="defs2"><linearGradient
       id="linearGradient11301"
       inkscape:collect="always"><stop
         id="stop11303"
         offset="0"
         style="stop-color:#ffe052;stop-opacity:1" /><stop
         id="stop11305"
         offset="1"
         style="stop-color:#ffc331;stop-opacity:1" /></linearGradient><linearGradient
       gradientUnits="userSpaceOnUse"
       y2="168.1012"
       x2="147.77737"
       y1="111.92053"
       x1="89.136749"
       id="linearGradient11307"
       xlink:href="#linearGradient11301"
       inkscape:collect="always"
       gradientTransform="matrix(1.40699,0,0,1.40699,44.64882,25.822682)" /><linearGradient
       id="linearGradient9515"
       inkscape:collect="always"><stop
         id="stop9517"
         offset="0"
         style="stop-color:#387eb8;stop-opacity:1" /><stop
         id="stop9519"
         offset="1"
         style="stop-color:#366994;stop-opacity:1" /></linearGradient><linearGradient
       gradientUnits="userSpaceOnUse"
       y2="131.85291"
       x2="110.14919"
       y1="77.070274"
       x1="55.549179"
       id="linearGradient9521"
       xlink:href="#linearGradient9515"
       inkscape:collect="always"
       gradientTransform="matrix(1.40699,0,0,1.40699,197.85246,163.35782)" /></defs><g
     inkscape:label="Layer 1"
     inkscape:groupmode="layer"
     id="layer1"
     transform="translate(-130.85399,-135.77129)"><path
       style="color:#000000;display:inline;overflow:visible;visibility:visible;fill:url(#linearGradient9521);fill-opacity:1;fill-rule:nonzero;stroke:none;stroke-width:1.40699;stroke-linecap:butt;stroke-linejoin:miter;stroke-miterlimit:4;stroke-dasharray:none;stroke-dashoffset:0;stroke-opacity:1;marker:none;marker-start:none;marker-mid:none;marker-end:none"
       d="m 338.19972,258.28569 c -39.4404,0 -36.97748,17.10373 -36.97748,17.10373 l 0.0472,17.71928 h 37.63695 v 5.32018 h -52.58621 c 0,0 -25.23793,-2.86226 -25.23793,36.93349 0,39.79567 22.02822,38.38441 22.02822,38.38441 h 13.14655 v -18.46674 c 0,0 -0.7086,-22.02815 21.67646,-22.02815 22.38505,0 37.32917,0 37.32917,0 0,0 20.97299,0.33874 20.97299,-20.26945 0,-20.60852 0,-34.07553 0,-34.07553 0,-7e-5 3.18427,-20.62122 -38.03272,-20.62122 z m -20.75313,11.91546 c 3.74462,-6e-5 6.77119,3.02651 6.77119,6.77113 0,3.74462 -3.02657,6.77112 -6.77119,6.77112 -3.74456,0 -6.77113,-3.0265 -6.77113,-6.77112 0,-3.74462 3.02657,-6.77113 6.77113,-6.77113 z"
       id="path8615" /><path
       id="path8620"
       d="m 186.11616,275.30291 c 39.4404,0 36.97748,-17.10373 36.97748,-17.10373 l -0.0472,-17.71927 h -37.63695 v -5.32019 h 52.58621 c 0,0 25.23793,2.86219 25.23793,-36.93348 0,-39.79568 -22.02822,-38.38449 -22.02822,-38.38449 h -13.14655 v 18.46674 c 0,0 0.70866,22.02822 -21.67646,22.02822 -22.38505,0 -37.32917,0 -37.32917,0 0,0 -20.97299,-0.33874 -20.97299,20.26945 0,20.60846 0,34.07554 0,34.07554 0,0 -3.18427,20.62121 38.03272,20.62121 z m 20.75313,-11.91546 c -3.74461,0 -6.77119,-3.02651 -6.77119,-6.77113 0,-3.74461 3.02658,-6.77112 6.77119,-6.77112 3.74456,0 6.77113,3.02651 6.77113,6.77112 0,3.74462 -3.02657,6.77113 -6.77113,6.77113 z"
       style="color:#000000;display:inline;overflow:visible;visibility:visible;fill:url(#linearGradient11307);fill-opacity:1;fill-rule:nonzero;stroke:none;stroke-width:1.40699;stroke-linecap:butt;stroke-linejoin:miter;stroke-miterlimit:4;stroke-dasharray:none;stroke-dashoffset:0;stroke-opacity:1;marker:none;marker-start:none;marker-mid:none;marker-end:none" /><path
       style="fill:#2b0000;stroke:#ffffff;stroke-width:1.78538"
       d="m 220.01869,302.21743 17.2345,-11.07933 -24.62077,-11.07933 33.85353,-12.9259 4.30868,-30.16047 19.08107,24.62077 30.77595,-7.38619 -22.15866,26.46733 16.00348,28.92938 -24.00522,-4.30868 1.84656,12.31042 c 0,0 21.50175,10.7449 28.92938,11.69488 6.6168,0.84625 12.14307,-3.3633 11.69487,-9.84838 -0.76136,-11.01644 -16.61902,-38.16214 -16.61902,-38.16214 0,0 27.40064,-28.96231 29.54485,-32.69944 2.69289,-4.69331 0.84639,-12.92589 -9.23276,-11.61795 -10.06701,1.3064 -40.00871,9.23284 -40.00871,9.23284 0,0 -11.45309,-19.60586 -16.61903,-27.08288 -5.8474,-8.46337 -16.00348,-9.84831 -20.31209,2.46211 -4.30867,12.31035 -6.15524,36.31557 -6.15524,36.31557 0,0 -27.69836,8.15566 -36.7772,11.77187 -8.18738,3.26106 -11.54102,14.003 -2.61596,20.23517 5.14656,3.59373 25.85179,12.31035 25.85179,12.31035 z"
       id="path233"
       sodipodi:nodetypes="cccccccccccsscsscsscssc" /></g></svg>
