<?xml version="1.0" encoding="UTF-8" standalone="no"?>
<!-- Created with Inkscape (http://www.inkscape.org/) -->

<svg
   xmlns:dc="http://purl.org/dc/elements/1.1/"
   xmlns:cc="http://creativecommons.org/ns#"
   xmlns:rdf="http://www.w3.org/1999/02/22-rdf-syntax-ns#"
   xmlns:svg="http://www.w3.org/2000/svg"
   xmlns="http://www.w3.org/2000/svg"
   xmlns:sodipodi="http://sodipodi.sourceforge.net/DTD/sodipodi-0.dtd"
   xmlns:inkscape="http://www.inkscape.org/namespaces/inkscape"
   width="250"
   height="250"
   viewBox="0 0 66.145833 66.145833"
   version="1.1"
   id="svg8"
   inkscape:version="0.92.4 (5da689c313, 2019-01-14)"
   sodipodi:docname="q-learning.svg">
  <defs
     id="defs2" />
  <sodipodi:namedview
     id="base"
     pagecolor="#ffffff"
     bordercolor="#666666"
     borderopacity="1.0"
     inkscape:pageopacity="0.0"
     inkscape:pageshadow="2"
     inkscape:zoom="1.979899"
     inkscape:cx="-88.642965"
     inkscape:cy="179.03205"
     inkscape:document-units="mm"
     inkscape:current-layer="layer1"
     showgrid="false"
     showguides="false"
     units="px"
     inkscape:window-width="1920"
     inkscape:window-height="1017"
     inkscape:window-x="-8"
     inkscape:window-y="0"
     inkscape:window-maximized="1" />
  <metadata
     id="metadata5">
    <rdf:RDF>
      <cc:Work
         rdf:about="">
        <dc:format>image/svg+xml</dc:format>
        <dc:type
           rdf:resource="http://purl.org/dc/dcmitype/StillImage" />
        <dc:title></dc:title>
      </cc:Work>
    </rdf:RDF>
  </metadata>
  <g
     inkscape:label="Layer 1"
     inkscape:groupmode="layer"
     id="layer1"
     transform="translate(0,-230.85417)">
    <g
       id="g4596"
       transform="matrix(2.3002403,0,0,2.2518214,-34.812179,-367.78944)">
      <path
         inkscape:connector-curvature="0"
         id="path4528"
         d="m 29.370816,269.02588 a 9.1186761,10.276228 30.145488 0 0 -8.907984,5.41724 9.1186761,10.276228 30.145488 0 0 2.724899,13.46585 9.1186761,10.276228 30.145488 0 0 13.045715,-4.30723 9.1186761,10.276228 30.145488 0 0 -2.72438,-13.46585 9.1186761,10.276228 30.145488 0 0 -4.13825,-1.11001 z m -0.24443,2.38694 a 6.941236,7.822377 30.145488 0 1 3.150195,0.84542 6.941236,7.822377 30.145488 0 1 2.074294,10.25002 6.941236,7.822377 30.145488 0 1 -9.931178,3.27887 6.941236,7.822377 30.145488 0 1 -2.073775,-10.25053 6.941236,7.822377 30.145488 0 1 6.780464,-4.12378 z"
         style="opacity:1;fill:#d44444;fill-opacity:1;stroke:#d44444;stroke-width:0.57966554;stroke-linecap:round;stroke-linejoin:round;stroke-miterlimit:4;stroke-dasharray:none;stroke-dashoffset:0;stroke-opacity:1" />
      <path
         inkscape:connector-curvature="0"
         id="path4533"
         d="m 32.089682,277.77046 -0.906648,13.5599 h 7.992817"
         style="fill:none;fill-opacity:1;stroke:#333333;stroke-width:2.13187408;stroke-linecap:round;stroke-linejoin:miter;stroke-miterlimit:4;stroke-dasharray:none;stroke-opacity:1" />
    </g>
  </g>
</svg>
