<?xml version="1.0" encoding="UTF-8" standalone="no"?>
<!-- Created with Inkscape (http://www.inkscape.org/) -->

<svg
   xmlns:dc="http://purl.org/dc/elements/1.1/"
   xmlns:cc="http://creativecommons.org/ns#"
   xmlns:rdf="http://www.w3.org/1999/02/22-rdf-syntax-ns#"
   xmlns:svg="http://www.w3.org/2000/svg"
   xmlns="http://www.w3.org/2000/svg"
   xmlns:sodipodi="http://sodipodi.sourceforge.net/DTD/sodipodi-0.dtd"
   xmlns:inkscape="http://www.inkscape.org/namespaces/inkscape"
   width="256"
   height="256"
   viewBox="0 0 67.73333 67.733335"
   version="1.1"
   id="svg8"
   inkscape:version="0.92.4 (5da689c313, 2019-01-14)"
   sodipodi:docname="eda.svg">
  <defs
     id="defs2" />
  <sodipodi:namedview
     id="base"
     pagecolor="#ffffff"
     bordercolor="#666666"
     borderopacity="1.0"
     inkscape:pageopacity="0.0"
     inkscape:pageshadow="2"
     inkscape:zoom="1.979899"
     inkscape:cx="144.05387"
     inkscape:cy="101.74993"
     inkscape:document-units="mm"
     inkscape:current-layer="layer1"
     showgrid="false"
     units="px"
     inkscape:window-width="1920"
     inkscape:window-height="1017"
     inkscape:window-x="-8"
     inkscape:window-y="-8"
     inkscape:window-maximized="1" />
  <metadata
     id="metadata5">
    <rdf:RDF>
      <cc:Work
         rdf:about="">
        <dc:format>image/svg+xml</dc:format>
        <dc:type
           rdf:resource="http://purl.org/dc/dcmitype/StillImage" />
        <dc:title />
      </cc:Work>
    </rdf:RDF>
  </metadata>
  <g
     inkscape:label="Layer 1"
     inkscape:groupmode="layer"
     id="layer1"
     transform="translate(0,-229.26665)">
    <path
       style="fill:#000000;fill-opacity:1;stroke:#000000;stroke-width:0.25432068px;stroke-linecap:butt;stroke-linejoin:miter;stroke-opacity:1"
       d="m 8.1860827,286.62415 c 3.5423973,-0.006 7.1034663,0.15643 10.6169033,-0.32246 2.246792,-0.24564 -2.157169,-1.31405 -0.54761,-2.28655 0.486064,-1.4139 1.743183,-2.75061 1.624377,-4.25386 l -0.416616,-3.64955 c 2.0464,-2.16344 4.412607,-4.18685 5.558756,-6.84379 0.689422,-1.53025 0.527209,-3.56378 2.390327,-4.51921 1.499407,-1.52315 5.150723,-1.85739 4.817709,-4.21784 0.13474,-2.91017 0.106396,-5.86991 -0.584909,-8.73171 -1.427506,-0.58738 -1.796008,2.09187 -1.703921,3.17113 0.193875,1.58513 -1.143797,2.90104 -2.950432,3.14638 -1.720533,0.55029 -2.64605,-1.29994 -3.139293,-2.39939 -0.654049,-1.71594 -1.058155,-3.49436 -1.761147,-5.19756 -0.394657,-1.78821 2.432722,-2.75684 2.002822,-4.58847 -0.187818,-2.20527 -2.978537,-0.68119 -4.328933,-0.15714 -1.598945,0.4683 -3.418647,0.31266 -4.735362,1.38153 -1.819707,1.58625 -3.801121,1.32842 -3.556619,3.10501 0.581977,0.93845 2.16485,1.20729 1.840003,2.74394 0.527086,2.10286 0.55611,4.35427 -0.436487,6.3644 -0.633216,1.80846 -0.08754,3.92865 -1.557444,5.48516 -1.7893213,2.46313 -3.7648446,4.89495 -4.552245,7.75965 -0.7299604,2.26005 -0.5760986,4.82001 1.0764694,6.77232 1.3224364,1.31286 2.2536366,2.972 0.9558099,4.58759 -0.4887946,0.82259 -0.8310484,1.72059 -0.6121586,2.65042 z"
       id="path834"
       inkscape:connector-curvature="0"
       sodipodi:nodetypes="cccccccccccccccccccccccc" />
    <path
       style="fill:#ffffff;stroke:#000000;stroke-width:0.25432068px;stroke-linecap:butt;stroke-linejoin:miter;stroke-opacity:1"
       d="m 7.0042077,272.86593 12.4589293,3.2458 4.678255,-4.75356 0.886405,-2.01034 0.787918,-2.09409 1.596505,-2.50501 -5.733068,-3.77729 -8.803501,-1.60243 -0.356027,4.03158 -2.068281,3.26681 -2.5607284,4.02066 z"
       id="path838"
       inkscape:connector-curvature="0"
       sodipodi:nodetypes="cccccccccccc" />
    <path
       style="fill:#ffffff;stroke:#000000;stroke-width:0.25432068px;stroke-linecap:butt;stroke-linejoin:miter;stroke-opacity:1"
       d="m 13.312138,253.00461 -0.103091,-4.61808 3.053176,-1.73872 c 1.805938,-0.47086 3.507876,-0.69144 5.169272,-1.48622 1.113511,0.11793 2.851724,1.53098 1.855111,2.68344 -0.518428,1.18772 -0.677955,1.48698 -1.196381,2.67471 0.148666,1.73909 0.31843,1.22997 0.93149,2.85758 -0.508311,0.12912 -3.406311,0.67123 -3.994291,0.59945 -2.889991,-0.71495 -2.825294,-0.25721 -5.715286,-0.97216 z"
       id="path840"
       inkscape:connector-curvature="0"
       sodipodi:nodetypes="ccccccccc" />
    <ellipse
       style="opacity:1;fill:#ffffff;fill-opacity:1;stroke:#000000;stroke-width:1.29999995;stroke-linecap:round;stroke-linejoin:round;stroke-miterlimit:4;stroke-dasharray:none;stroke-dashoffset:0;stroke-opacity:1"
       id="path848"
       cx="17.195053"
       cy="248.05167"
       rx="1.3865664"
       ry="1.3729582" />
    <g
       id="g918"
       transform="matrix(0.62261325,0,0,0.83154761,30.056853,243.79984)">
      <path
         id="path863"
         d="M 52.601074,8.2505513 C 51.412661,5.2164372 42.567294,2.231831 27.094316,2.231831 11.621337,2.231831 2.7749444,5.2164372 1.5875572,8.2505513 1.5013511,8.3545174 1.4377227,8.4683849 1.4377227,8.5971049 v 0.3536274 8.1334057 0.353626 0.353626 7.77978 0.353626 0.353627 8.487032 c 0,0.114575 0.044129,0.222785 0.1200729,0.318971 1.2120174,3.462002 12.0555194,6.046303 25.5365204,6.046303 13.450212,0 24.276268,-2.573692 25.52831,-6.022964 0.0821,-0.101137 0.128283,-0.217834 0.128283,-0.34231 V 26.278423 25.924796 25.57117 17.79139 17.437764 17.084138 8.9507323 8.5971049 c 0,-0.12872 -0.06363,-0.2425875 -0.149835,-0.3465536 z M 50.617307,26.267814 c -0.02874,0.08558 -0.06876,0.170448 -0.119047,0.256732 -0.04105,0.07002 -0.09134,0.140036 -0.146756,0.210054 -0.06876,0.08699 -0.145729,0.173985 -0.237067,0.260976 -0.06773,0.06577 -0.144703,0.130842 -0.224751,0.19591 -0.113916,0.09265 -0.235015,0.1853 -0.372534,0.277243 -0.08313,0.05587 -0.174465,0.111038 -0.266829,0.166912 -0.168307,0.101137 -0.343798,0.201566 -0.539814,0.301289 -0.08415,0.04314 -0.174465,0.08487 -0.26375,0.127305 -0.231936,0.110332 -0.474134,0.219956 -0.739936,0.327458 -0.06979,0.029 -0.144703,0.05658 -0.217568,0.08487 -0.305827,0.118819 -0.624995,0.23693 -0.969819,0.351505 -0.04413,0.01485 -0.09031,0.02899 -0.135467,0.04314 -0.384849,0.125184 -0.787144,0.248246 -1.217149,0.367064 -0.01232,0.0035 -0.02463,0.0064 -0.03695,0.0099 -2.330645,0.641478 -5.311942,1.181112 -8.785844,1.534738 -0.01745,0.0014 -0.03489,0.0029 -0.05234,0.005 -0.675281,0.06861 -1.368009,0.129427 -2.07921,0.183178 -0.115968,0.0085 -0.238093,0.01414 -0.355087,0.02263 -0.62089,0.04456 -1.248963,0.08558 -1.895509,0.118111 -0.295564,0.01485 -0.605496,0.02193 -0.906191,0.03465 -0.486449,0.0198 -0.967767,0.04173 -1.466531,0.05375 -0.814854,0.01768 -1.646127,0.029 -2.494847,0.029 -0.84872,0 -1.679994,-0.01131 -2.495874,-0.03112 -0.498764,-0.01203 -0.980082,-0.03465 -1.466531,-0.05375 -0.300695,-0.01203 -0.610627,-0.0198 -0.90619,-0.03465 -0.646547,-0.03253 -1.27462,-0.07356 -1.89551,-0.118111 -0.116994,-0.0085 -0.239119,-0.01414 -0.355087,-0.02263 -0.711201,-0.05375 -1.403929,-0.115282 -2.07921,-0.183179 -0.01745,-0.0014 -0.03489,-0.0029 -0.05234,-0.005 C 14.369667,30.427162 11.38837,29.887529 9.057726,29.24605 9.045406,29.24315 9.033095,29.23965 9.02078,29.23615 8.5907805,29.117334 8.1874589,28.994273 7.8036367,28.869089 7.7595073,28.854238 7.7122992,28.840093 7.6681698,28.825948 7.3233452,28.711373 7.0041772,28.59397 6.6983506,28.474443 6.6265122,28.446154 6.5505686,28.41857 6.4807827,28.389573 6.2149804,28.282071 5.9727822,28.172447 5.7408466,28.062116 5.6525879,28.019681 5.5612504,27.977953 5.4770968,27.93481 5.2810804,27.835088 5.1055893,27.734657 4.9372821,27.63352 4.8459446,27.578353 4.7535808,27.523189 4.6704535,27.466609 4.5329341,27.374666 4.411835,27.282723 4.2979197,27.189365 4.2178712,27.124297 4.1409014,27.059231 4.073168,26.993457 3.9828568,26.906464 3.905887,26.819472 3.8361011,26.73248 3.7806828,26.662462 3.7314222,26.592444 3.6893454,26.522426 3.6390584,26.436849 3.5990341,26.351271 3.5702988,26.265693 3.532327,26.15324 3.4902502,26.038665 3.4902502,25.924798 c 0,-0.07992 0.013341,-0.159839 0.031814,-0.239051 0.025657,-0.106796 0.011289,-0.213591 -0.031814,-0.314728 v -5.250644 c 0.028735,0.01839 0.064655,0.03607 0.094416,0.05446 0.2237254,0.135793 0.451556,0.270879 0.7081219,0.401013 3.8659351,2.014963 11.5967799,3.580821 22.8015279,3.580821 11.157539,0 18.868885,-1.553128 22.75124,-3.556067 0.309932,-0.155596 0.589076,-0.316143 0.851799,-0.479517 l 10e-4,-7.08e-4 v 5.250644 c -0.0431,0.101137 -0.05747,0.207932 -0.03182,0.314728 0.0195,0.07921 0.03182,0.159132 0.03182,0.239051 0,0.113867 -0.04208,0.228443 -0.08107,0.343018 z m 0.08107,-14.634473 v 5.250644 c -0.0431,0.101137 -0.05747,0.207932 -0.03182,0.314727 0.0195,0.07921 0.03182,0.159132 0.03182,0.239052 0,0.113867 -0.04208,0.228442 -0.08107,0.343018 -0.02874,0.08558 -0.06876,0.170447 -0.119047,0.256732 -0.04105,0.07002 -0.09134,0.140036 -0.146756,0.210054 -0.06876,0.08699 -0.145729,0.173984 -0.237067,0.260976 -0.06773,0.06577 -0.144703,0.130842 -0.224751,0.19591 -0.113916,0.09265 -0.235015,0.185299 -0.372534,0.277243 -0.08313,0.05587 -0.174465,0.111038 -0.266829,0.166911 -0.168307,0.101137 -0.343798,0.201567 -0.539814,0.30129 -0.08415,0.04314 -0.174465,0.08487 -0.26375,0.127305 -0.231936,0.110331 -0.474134,0.219956 -0.739936,0.327458 -0.06979,0.029 -0.144703,0.05658 -0.217568,0.08487 -0.305827,0.118818 -0.624995,0.236929 -0.969819,0.351504 -0.04413,0.01485 -0.09031,0.02899 -0.135467,0.04314 -0.384849,0.125185 -0.787144,0.248247 -1.217149,0.367065 -0.01232,0.0035 -0.02463,0.0064 -0.03695,0.0099 -2.330645,0.641478 -5.311942,1.181112 -8.785844,1.534738 -0.01745,0.0014 -0.03489,0.0029 -0.05234,0.005 -0.675281,0.06861 -1.368009,0.129427 -2.07921,0.183179 -0.115968,0.0085 -0.238093,0.01414 -0.355087,0.02263 -0.62089,0.04456 -1.248963,0.08558 -1.895509,0.118111 -0.295564,0.01485 -0.605496,0.02193 -0.906191,0.03465 -0.486449,0.0198 -0.967767,0.04173 -1.466531,0.05375 -0.814854,0.01768 -1.646127,0.029 -2.494847,0.029 -0.84872,0 -1.679994,-0.01131 -2.495874,-0.03112 -0.498764,-0.01203 -0.980082,-0.03465 -1.466531,-0.05375 -0.300695,-0.01203 -0.610627,-0.0198 -0.90619,-0.03465 -0.646547,-0.03253 -1.27462,-0.07356 -1.89551,-0.118111 -0.116994,-0.0085 -0.239119,-0.01414 -0.355087,-0.02263 -0.711201,-0.05375 -1.403929,-0.115282 -2.07921,-0.183178 -0.01745,-0.0014 -0.03489,-0.0029 -0.05234,-0.005 C 14.369667,21.940132 11.38837,21.400498 9.057726,20.75902 9.045406,20.75612 9.033095,20.75262 9.02078,20.74912 8.5907755,20.630306 8.1874539,20.507244 7.8036317,20.382061 c -0.044129,-0.01485 -0.091337,-0.029 -0.1354669,-0.04314 -0.3448196,-0.11458 -0.6639876,-0.231984 -0.9698142,-0.35151 -0.071838,-0.02829 -0.147782,-0.05587 -0.2175679,-0.08487 C 6.2149804,19.795039 5.9727822,19.685415 5.7408466,19.575083 5.6525879,19.532648 5.5612504,19.49092 5.4770968,19.447777 5.2810804,19.348055 5.1055893,19.247625 4.9372821,19.146488 4.8459446,19.091321 4.7535808,19.036156 4.6704535,18.979576 4.5329341,18.887634 4.411835,18.79569 4.2979197,18.702333 4.2178712,18.637265 4.1409014,18.572199 4.073168,18.506425 3.9828568,18.419432 3.905887,18.33244 3.8361011,18.245448 3.7806828,18.175429 3.7314222,18.105412 3.6893454,18.035394 3.6390584,17.949817 3.5990341,17.864239 3.5702988,17.778661 3.532327,17.666208 3.4902502,17.551633 3.4902502,17.437765 c 0,-0.07992 0.013341,-0.159838 0.031814,-0.239051 0.025657,-0.106795 0.011289,-0.21359 -0.031814,-0.314728 v -5.250645 c 0.1231516,0.07709 0.2637498,0.152766 0.3971641,0.229149 0.073891,0.04243 0.1426506,0.08487 0.2206467,0.127306 0.3078791,0.166912 0.6403885,0.331702 1.0006071,0.492248 0.074917,0.03324 0.1590709,0.06577 0.2370669,0.09901 0.3017216,0.129428 0.6208896,0.256026 0.9564778,0.380502 0.1241779,0.04597 0.2483558,0.09124 0.3766388,0.1365 0.3745863,0.131549 0.7676453,0.259562 1.1812296,0.383331 0.067733,0.02051 0.1293088,0.04173 0.1980685,0.06153 0.4813176,0.140742 0.9923973,0.275121 1.5240013,0.405255 0.146756,0.03607 0.300696,0.07002 0.451556,0.105381 0.422821,0.09831 0.860009,0.192372 1.312592,0.283608 0.163176,0.03253 0.323273,0.06648 0.490554,0.0976 0.600364,0.114575 1.220227,0.223492 1.870879,0.323921 0.08928,0.01414 0.185753,0.02546 0.276064,0.0389 0.573682,0.08628 1.168915,0.166204 1.780568,0.241173 0.207305,0.02546 0.417689,0.0495 0.6291,0.07356 0.581891,0.06578 1.181229,0.125892 1.795961,0.181057 0.158045,0.01414 0.308906,0.03041 0.469003,0.04385 0.76354,0.06366 1.553763,0.118112 2.365538,0.16479 0.200121,0.01131 0.408453,0.0198 0.611653,0.0297 0.649625,0.03253 1.313617,0.05941 1.993004,0.08062 0.24733,0.0078 0.493633,0.01556 0.746094,0.02193 0.884639,0.02051 1.785699,0.03537 2.719599,0.03537 0.9339,0 1.834959,-0.01485 2.719599,-0.03537 0.251434,-0.0064 0.497737,-0.01414 0.746093,-0.02193 0.679387,-0.02122 1.34338,-0.04809 1.993004,-0.08062 0.203201,-0.01061 0.410506,-0.01839 0.611654,-0.0297 0.811774,-0.04597 1.601997,-0.101137 2.365538,-0.16479 0.160097,-0.01344 0.310957,-0.0297 0.469002,-0.04385 0.614732,-0.05517 1.213044,-0.115282 1.795962,-0.181057 0.21141,-0.02404 0.421794,-0.04809 0.629099,-0.07356 0.611653,-0.07497 1.206886,-0.154889 1.780568,-0.241173 0.09031,-0.01344 0.18678,-0.02547 0.276065,-0.0389 0.650651,-0.100429 1.270514,-0.210053 1.870879,-0.323921 0.167281,-0.03183 0.327378,-0.06507 0.490554,-0.0976 0.452582,-0.09124 0.88977,-0.1853 1.312591,-0.283608 0.150861,-0.03537 0.3048,-0.06931 0.451556,-0.105381 0.531605,-0.130134 1.04371,-0.264513 1.524002,-0.405255 0.06876,-0.0198 0.130335,-0.04102 0.198069,-0.06153 0.413584,-0.124477 0.806643,-0.251782 1.181229,-0.383331 0.128283,-0.04527 0.253487,-0.09053 0.376639,-0.1365 0.335588,-0.123769 0.654756,-0.250367 0.956478,-0.380502 0.078,-0.03324 0.162149,-0.06577 0.237067,-0.09901 0.360218,-0.160546 0.692728,-0.324629 1.000607,-0.492248 0.07697,-0.04243 0.145729,-0.08487 0.220646,-0.127306 0.133415,-0.07638 0.274013,-0.152059 0.397165,-0.229149 z M 27.094316,3.6463367 c 13.911005,0 23.604066,2.7950625 23.604066,5.3043956 0,2.5093317 -9.693061,5.3043947 -23.604066,5.3043947 -13.911005,0 -23.6040658,-2.795063 -23.6040658,-5.3043947 0,-2.5093331 9.6930608,-5.3043956 23.6040658,-5.3043956 z M 50.698382,34.555401 c -0.01437,0.03112 -0.02463,0.06294 -0.03284,0.09548 -0.581891,2.446387 -10.192851,5.065344 -23.571225,5.065344 -13.378374,0 -22.9893338,-2.618957 -23.5712254,-5.065344 -0.00821,-0.03183 -0.019499,-0.06294 -0.03284,-0.09265 v -5.950825 c 0.028735,0.01839 0.064655,0.03607 0.094416,0.05446 0.2237254,0.135792 0.451556,0.270877 0.7081219,0.401012 3.8659351,2.014963 11.5967795,3.58082 22.8015275,3.58082 11.157539,0 18.868885,-1.553127 22.75124,-3.556066 0.309932,-0.155596 0.589076,-0.316142 0.851799,-0.479518 l 10e-4,-7.1e-4 z"
         inkscape:connector-curvature="0"
         style="fill:none;fill-opacity:1;stroke:#000000;stroke-width:0.69489193;stroke-miterlimit:4;stroke-dasharray:none;stroke-opacity:1" />
      <g
         id="g865">
</g>
      <g
         id="g867">
</g>
      <g
         id="g869">
</g>
      <g
         id="g871">
</g>
      <g
         id="g873">
</g>
      <g
         id="g875">
</g>
      <g
         id="g877">
</g>
      <g
         id="g879">
</g>
      <g
         id="g881">
</g>
      <g
         id="g883">
</g>
      <g
         id="g885">
</g>
      <g
         id="g887">
</g>
      <g
         id="g889">
</g>
      <g
         id="g891">
</g>
      <g
         id="g893">
</g>
      <path
         style="fill:none;stroke:#000000;stroke-width:0.83387031;stroke-linecap:round;stroke-linejoin:miter;stroke-opacity:1;stroke-miterlimit:4;stroke-dasharray:none"
         d="M 13.646955,40.514176 4.3103243,50.719014"
         id="path920"
         inkscape:connector-curvature="0" />
      <path
         style="fill:none;stroke:#000000;stroke-width:0.55591357;stroke-linecap:round;stroke-linejoin:miter;stroke-miterlimit:4;stroke-dasharray:none;stroke-opacity:1"
         d="M 22.125053,41.398059 21.588461,44.85324"
         id="path922"
         inkscape:connector-curvature="0" />
      <path
         style="fill:none;stroke:#000000;stroke-width:0.83387031;stroke-linecap:round;stroke-linejoin:miter;stroke-opacity:1;stroke-miterlimit:4;stroke-dasharray:none"
         d="m 42.193449,40.192764 8.800043,10.124485"
         id="path924"
         inkscape:connector-curvature="0" />
      <text
         xml:space="preserve"
         style="font-style:normal;font-variant:normal;font-weight:normal;font-stretch:normal;font-size:23.6949501px;line-height:1.25;font-family:'Comic Sans MS';-inkscape-font-specification:'Comic Sans MS';letter-spacing:0px;word-spacing:0px;fill:#000000;fill-opacity:1;stroke:none;stroke-width:0.59237373"
         x="-5.6523662"
         y="4.5767698"
         id="text928"
         transform="scale(1.2071828,0.82837499)"><tspan
           sodipodi:role="line"
           id="tspan926"
           x="-5.6523662"
           y="4.5767698"
           style="font-style:normal;font-variant:normal;font-weight:normal;font-stretch:normal;font-family:'Comic Sans MS';-inkscape-font-specification:'Comic Sans MS';stroke-width:0.59237373">?</tspan></text>
      <text
         xml:space="preserve"
         style="font-style:normal;font-variant:normal;font-weight:normal;font-stretch:normal;font-size:15.22572994px;line-height:1.25;font-family:'Comic Sans MS';-inkscape-font-specification:'Comic Sans MS';letter-spacing:0px;word-spacing:0px;fill:#000000;fill-opacity:1;stroke:none;stroke-width:0.38064319"
         x="9.1588888"
         y="-6.2383928"
         id="text928-3"
         transform="scale(1.2593389,0.79406742)"><tspan
           sodipodi:role="line"
           id="tspan926-1"
           x="9.1588888"
           y="-6.2383928"
           style="font-style:normal;font-variant:normal;font-weight:normal;font-stretch:normal;font-family:'Comic Sans MS';-inkscape-font-specification:'Comic Sans MS';stroke-width:0.38064319">?</tspan></text>
      <text
         xml:space="preserve"
         style="font-style:normal;font-variant:normal;font-weight:normal;font-stretch:normal;font-size:11.85329628px;line-height:1.25;font-family:'Comic Sans MS';-inkscape-font-specification:'Comic Sans MS';letter-spacing:0px;word-spacing:0px;fill:#000000;fill-opacity:1;stroke:none;stroke-width:0.29633236"
         x="-13.880618"
         y="-3.8435044"
         id="text928-3-5"
         transform="scale(1.1892706,0.84085151)"><tspan
           sodipodi:role="line"
           id="tspan926-1-4"
           x="-13.880618"
           y="-3.8435044"
           style="font-style:normal;font-variant:normal;font-weight:normal;font-stretch:normal;font-family:'Comic Sans MS';-inkscape-font-specification:'Comic Sans MS';stroke-width:0.29633236">?</tspan></text>
      <path
         style="fill:none;stroke:#000000;stroke-width:0.83387031;stroke-linecap:round;stroke-linejoin:miter;stroke-opacity:1;stroke-miterlimit:4;stroke-dasharray:none"
         d="m 2.4322646,50.879719 h 3.702456"
         id="path966"
         inkscape:connector-curvature="0" />
      <path
         inkscape:connector-curvature="0"
         id="path968"
         d="m 49.008118,50.558307 h 3.702456"
         style="fill:none;stroke:#000000;stroke-width:0.83387029;stroke-linecap:round;stroke-linejoin:miter;stroke-miterlimit:4;stroke-dasharray:none;stroke-opacity:1" />
      <path
         style="fill:none;stroke:#000000;stroke-width:0.55591354;stroke-linecap:round;stroke-linejoin:miter;stroke-miterlimit:4;stroke-dasharray:none;stroke-opacity:1"
         d="M 20.078016,45.21483 H 22.93793"
         id="path970"
         inkscape:connector-curvature="0" />
    </g>
    <circle
       style="opacity:1;fill:#000000;fill-opacity:1;stroke:none;stroke-width:1;stroke-linecap:round;stroke-linejoin:round;stroke-miterlimit:4;stroke-dasharray:none;stroke-dashoffset:0;stroke-opacity:1"
       id="path974"
       cx="17.487305"
       cy="247.85126"
       r="0.24214099" />
  </g>
</svg>
