<?xml version="1.0" encoding="UTF-8" standalone="no"?>
<svg
   xmlns:dc="http://purl.org/dc/elements/1.1/"
   xmlns:cc="http://creativecommons.org/ns#"
   xmlns:rdf="http://www.w3.org/1999/02/22-rdf-syntax-ns#"
   xmlns:svg="http://www.w3.org/2000/svg"
   xmlns="http://www.w3.org/2000/svg"
   xmlns:sodipodi="http://sodipodi.sourceforge.net/DTD/sodipodi-0.dtd"
   xmlns:inkscape="http://www.inkscape.org/namespaces/inkscape"
   id="svg8"
   version="1.1"
   viewBox="0 0 52.916668 52.916668"
   height="200"
   width="200"
   sodipodi:docname="tf.svg"
   inkscape:version="0.92.5 (2060ec1f9f, 2020-04-08)">
  <sodipodi:namedview
     pagecolor="#ffffff"
     bordercolor="#666666"
     borderopacity="1"
     objecttolerance="10"
     gridtolerance="10"
     guidetolerance="10"
     inkscape:pageopacity="0"
     inkscape:pageshadow="2"
     inkscape:window-width="1920"
     inkscape:window-height="1043"
     id="namedview4847"
     showgrid="false"
     inkscape:zoom="1.3585588"
     inkscape:cx="-166.34186"
     inkscape:cy="35.124307"
     inkscape:window-x="1920"
     inkscape:window-y="0"
     inkscape:window-maximized="1"
     inkscape:current-layer="text4851" />
  <defs
     id="defs2" />
  <metadata
     id="metadata5">
    <rdf:RDF>
      <cc:Work
         rdf:about="">
        <dc:format>image/svg+xml</dc:format>
        <dc:type
           rdf:resource="http://purl.org/dc/dcmitype/StillImage" />
        <dc:title></dc:title>
      </cc:Work>
    </rdf:RDF>
  </metadata>
  <g
     transform="matrix(0.70936711,0,0,0.70936711,-50.885208,-100.41842)"
     id="layer1">
    <g
       id="g4550">
      <g
         aria-label="lite"
         transform="scale(1.0026054,0.9974014)"
         style="font-style:normal;font-weight:normal;font-size:10.33460045px;line-height:1.25;font-family:sans-serif;letter-spacing:0px;word-spacing:0px;fill:#000000;fill-opacity:1;stroke:none;stroke-width:0.25836501"
         id="text4851">
        <path
           d="m 116.44176,191.91984 h 1.43068 v 12.09865 h -1.43068 z"
           style="stroke-width:0.39810437"
           id="path4863"
           inkscape:connector-curvature="0" />
        <path
           d="m 120.866,195.30996 h 1.43069 v 8.70853 H 120.866 Z m 0,-3.39012 h 1.43069 v 1.8117 H 120.866 Z"
           style="stroke-width:0.39810437"
           id="path4865"
           inkscape:connector-curvature="0" />
        <path
           d="m 126.70539,192.83736 v 2.4726 h 2.94691 v 1.11189 h -2.94691 v 4.72749 q 0,1.06524 0.28769,1.36848 0.29548,0.30325 1.18965,0.30325 h 1.46957 v 1.19742 h -1.46957 q -1.65617,0 -2.28598,-0.61426 -0.62982,-0.62205 -0.62982,-2.25489 v -4.72749 h -1.04969 v -1.11189 h 1.04969 v -2.4726 z"
           style="stroke-width:0.39810437"
           id="path4867"
           inkscape:connector-curvature="0" />
        <path
           d="m 138.98287,199.30656 v 0.69978 h -6.57805 q 0.0932,1.47735 0.88641,2.25489 0.80086,0.76978 2.22378,0.76978 0.82419,0 1.59397,-0.20216 0.77756,-0.20217 1.53954,-0.60649 v 1.35294 q -0.76977,0.32657 -1.57841,0.49762 -0.80866,0.17107 -1.64063,0.17107 -2.08383,0 -3.30458,-1.21298 -1.21298,-1.21297 -1.21298,-3.28125 0,-2.13825 1.15078,-3.39011 1.15854,-1.25963 3.11796,-1.25963 1.75726,0 2.77584,1.13522 1.02637,1.12745 1.02637,3.07132 z m -1.43069,-0.41988 q -0.0156,-1.17409 -0.66092,-1.87389 -0.63759,-0.69979 -1.69506,-0.69979 -1.19741,0 -1.92054,0.67646 -0.71534,0.67647 -0.82419,1.905 z"
           style="stroke-width:0.39810437"
           id="path4869"
           inkscape:connector-curvature="0" />
      </g>
      <g
         id="g4861"
         transform="matrix(1.5408603,0,0,1.5408603,-36.246272,-119.31659)">
        <path
           transform="scale(0.26458333)"
           inkscape:connector-curvature="0"
           id="path4491"
           d="m 360.04883,687.87305 -49.09766,28.34765 v 18.89649 l 32.73047,-18.89649 v 18.89649 l 16.36719,-9.44727 z m 49.09765,9.44922 -16.36718,9.44921 v 18.89844 l 16.36718,-9.44922 z m -32.73242,37.79492 -16.36523,9.44922 v 18.89843 l 16.36523,-9.44922 z m -16.36523,28.34765 -16.36719,-9.44922 v 37.79493 l 16.36719,-9.44922 z"
           style="fill:#ed8e24;fill-opacity:1" />
        <g
           id="g4855">
          <path
             style="fill:#e55b2d;fill-opacity:1"
             d="m 360.04883,687.87305 v 18.89843 l 32.73047,18.89844 v -18.89844 z m -65.46289,18.89843 v 18.89844 l 16.36523,9.44727 V 716.2207 Z m 49.0957,9.44922 -16.36523,9.44922 v 56.69141 l 16.36523,9.44922 v -37.79493 l 16.36719,9.44922 v -18.89843 l -16.36719,-9.44922 z"
             id="path4508"
             inkscape:connector-curvature="0"
             transform="scale(0.26458333)" />
          <path
             style="fill:#f8bf3c;fill-opacity:1"
             d="m 360.04883,668.97656 -65.46289,37.79492 16.36523,9.44922 49.09766,-28.34765 32.73047,18.89843 16.36718,-9.44921 z m 0,56.69336 -16.36719,9.44727 16.36719,9.44922 16.36523,-9.44922 z"
             transform="scale(0.26458333)"
             id="path4506"
             inkscape:connector-curvature="0" />
        </g>
      </g>
    </g>
  </g>
</svg>
