<?xml version="1.0" encoding="UTF-8" standalone="no"?>
<!-- Created with Inkscape (http://www.inkscape.org/) -->

<svg
   xmlns:dc="http://purl.org/dc/elements/1.1/"
   xmlns:cc="http://creativecommons.org/ns#"
   xmlns:rdf="http://www.w3.org/1999/02/22-rdf-syntax-ns#"
   xmlns:svg="http://www.w3.org/2000/svg"
   xmlns="http://www.w3.org/2000/svg"
   xmlns:sodipodi="http://sodipodi.sourceforge.net/DTD/sodipodi-0.dtd"
   xmlns:inkscape="http://www.inkscape.org/namespaces/inkscape"
   width="500"
   height="500"
   id="svg3497"
   version="1.1"
   inkscape:version="0.92.5 (2060ec1f9f, 2020-04-08)"
   sodipodi:docname="Tux_icon.svg"
   inkscape:export-filename="/media/gabriel/GT-I5500/Images/linux-powered-logo.png"
   inkscape:export-xdpi="90"
   inkscape:export-ydpi="90">
  <defs
     id="defs3499" />
  <sodipodi:namedview
     id="base"
     pagecolor="#ffffff"
     bordercolor="#666666"
     borderopacity="1.0"
     inkscape:pageopacity="0.0"
     inkscape:pageshadow="2"
     inkscape:zoom="1"
     inkscape:cx="358.18409"
     inkscape:cy="270.82724"
     inkscape:document-units="px"
     inkscape:current-layer="layer1"
     showgrid="false"
     showguides="true"
     inkscape:guide-bbox="true"
     inkscape:window-width="1920"
     inkscape:window-height="1043"
     inkscape:window-x="1920"
     inkscape:window-y="0"
     inkscape:window-maximized="1"
     inkscape:snap-page="false"
     inkscape:pagecheckerboard="false"
     showborder="true"
     inkscape:showpageshadow="false"
     fit-margin-left="1"
     fit-margin-right="1"
     fit-margin-top="1"
     fit-margin-bottom="1" />
  <metadata
     id="metadata3502">
    <rdf:RDF>
      <cc:Work
         rdf:about="">
        <dc:format>image/svg+xml</dc:format>
        <dc:type
           rdf:resource="http://purl.org/dc/dcmitype/StillImage" />
        <dc:title></dc:title>
      </cc:Work>
    </rdf:RDF>
  </metadata>
  <g
     inkscape:label="Camada 1"
     inkscape:groupmode="layer"
     id="layer1"
     transform="translate(2.7981143,-556.26129)">
    <g
       id="g4724"
       transform="translate(39,-35)">
      <path
         inkscape:connector-curvature="0"
         id="path3839"
         d="m 208.5367,1050.9774 c -11.43168,-45.1516 -21.43815,-92.77209 -1.56862,-137.24631 7.53525,-44.13771 37.21469,-82.09327 35.56729,-127.71801 6.50165,-48.08528 -36.63473,-77.93966 -74.90054,-95.32435 -33.7696,-19.89919 -70.750767,-4.07252 -99.609362,16.30629 C 33.025811,732.71395 12.97617,777.58849 3.3397684,819.18773 1.5356958,896.34047 3.1556417,973.7638 2.5536693,1051.0248 c 68.6609967,-0.016 137.3219907,-0.031 205.9829907,-0.047"
         style="fill:#000000;stroke:#000000;stroke-width:1px;stroke-linecap:butt;stroke-linejoin:miter;stroke-opacity:1" />
      <ellipse
         ry="54.800777"
         rx="56.922096"
         cy="792.50043"
         cx="90.509666"
         id="path4666"
         style="fill:#f9f9f9;fill-opacity:1;stroke:none;stroke-width:3;stroke-miterlimit:4;stroke-dasharray:none" />
      <path
         inkscape:connector-curvature="0"
         id="path3853"
         d="m 153.94228,1055.2613 c -0.30751,-26.7619 -0.61502,-53.5239 -0.92254,-80.28578 5.32173,-14.44544 10.64347,-28.89088 15.9652,-43.33632 -1.97133,-5.56763 -3.94267,-11.13527 -5.914,-16.7029 -18.04127,-10.64173 -36.08254,-21.28347 -54.12382,-31.9252 -23.68837,-3.45119 -47.376744,-6.90238 -71.065117,-10.35357 -12.804798,14.2047 -25.609595,28.4094 -38.41439258,42.6141 -0.42190829,46.48718 -0.84381652,92.97437 -1.26572472,139.46157 51.9134643,0.1761 103.8269343,0.352 155.7403943,0.5281 z"
         style="fill:#ffffff;stroke:none;stroke-width:1.04813135px;stroke-linecap:butt;stroke-linejoin:miter;stroke-opacity:1" />
      <ellipse
         ry="25.809401"
         rx="27.577164"
         cy="839.87659"
         cx="177.48378"
         id="path4666-3"
         style="fill:#f9f9f9;fill-opacity:1;stroke:none;stroke-width:1.43301654;stroke-miterlimit:4;stroke-dasharray:none" />
      <path
         inkscape:connector-curvature="0"
         id="path3841"
         d="m 178.3246,900.29624 c -1.17568,-23.01343 -19.1127,-39.82346 -29.14755,-59.36808 -8.99866,-13.4811 -27.59632,-17.41187 -42.92889,-15.86896 -21.509926,3.49924 -44.990488,-2.75482 -65.301202,4.13346 -15.332797,7.34569 -14.360152,30.20607 -4.491981,41.90052 11.550221,12.42718 21.807874,25.96811 33.122369,38.46068 14.408944,12.91266 34.328504,14.87793 52.824114,13.45948 13.89736,0.70891 27.658,-3.3888 40.66948,-8.07704 5.78054,-3.89581 10.06691,-9.92798 15.25366,-14.64006 z"
         style="fill:#ffd320;fill-opacity:1;stroke:none;stroke-width:1px;stroke-linecap:butt;stroke-linejoin:miter;stroke-opacity:1" />
      <path
         inkscape:connector-curvature="0"
         id="path3855"
         d="m 165.55567,897.77573 c -20.21358,6.53407 -43.19793,14.97304 -63.54136,4.1535 -26.314693,-9.89573 -37.833862,-37.8128 -58.11334,-55.04454"
         style="fill:none;stroke:#ff6600;stroke-width:2.20000005;stroke-linecap:round;stroke-linejoin:round;stroke-miterlimit:4;stroke-dasharray:none;stroke-opacity:1" />
      <ellipse
         ry="7.717514"
         rx="7.9445"
         cy="762.49005"
         cx="71.752304"
         id="path4662"
         style="fill:#000000;fill-opacity:1;stroke:none;stroke-width:0.96301877;stroke-miterlimit:4;stroke-dasharray:none" />
      <ellipse
         ry="5.5414414"
         rx="5.8956027"
         cy="829.52618"
         cx="168.40018"
         id="path4662-6"
         style="fill:#000000;fill-opacity:1;stroke:none;stroke-width:0.70297235;stroke-miterlimit:4;stroke-dasharray:none" />
      <rect
         y="647.36218"
         x="2.5536692"
         height="403.66263"
         width="410.44632"
         id="rect4713"
         style="fill:none;fill-opacity:1;stroke:#000000;stroke-width:5;stroke-linecap:round;stroke-linejoin:round;stroke-miterlimit:4;stroke-dasharray:none;stroke-opacity:1" />
    </g>
  </g>
</svg>
