<?xml version="1.0" encoding="utf-8" standalone="no"?>
<!DOCTYPE svg PUBLIC "-//W3C//DTD SVG 1.1//EN"
  "http://www.w3.org/Graphics/SVG/1.1/DTD/svg11.dtd">
<!-- Created with matplotlib (https://matplotlib.org/) -->
<svg height="208.8pt" version="1.1" viewBox="0 0 856.8 208.8" width="856.8pt" xmlns="http://www.w3.org/2000/svg" xmlns:xlink="http://www.w3.org/1999/xlink">
 <defs>
  <style type="text/css">
*{stroke-linecap:butt;stroke-linejoin:round;}
  </style>
 </defs>
 <g id="figure_1">
  <g id="patch_1">
   <path d="M 0 208.8 
L 856.8 208.8 
L 856.8 0 
L 0 0 
z
" style="fill:#ffffff;"/>
  </g>
  <g id="axes_1">
   <g id="patch_2">
    <path d="M 10.7 198.1 
L 277.3 198.1 
L 277.3 10.7 
L 10.7 10.7 
z
" style="fill:#ffffff;"/>
   </g>
   <g id="matplotlib.axis_1"/>
   <g id="matplotlib.axis_2"/>
   <g id="line2d_1">
    <path clip-path="url(#p9de407196e)" d="M 22.818182 164.027273 
L 22.818182 173.965152 
L 24.444783 173.965152 
L 24.444783 175.384848 
L 27.697987 175.384848 
L 27.697987 164.027273 
L 29.324588 164.027273 
L 29.324588 146.990909 
L 30.95119 146.990909 
L 30.95119 171.125758 
L 32.577791 171.125758 
L 32.577791 165.44697 
L 34.204393 165.44697 
L 34.204393 182.483333 
L 35.830995 182.483333 
L 35.830995 172.545455 
L 37.457596 172.545455 
L 37.457596 155.509091 
L 39.084198 155.509091 
L 39.084198 166.866667 
L 40.710799 166.866667 
L 40.710799 176.804545 
L 42.337401 176.804545 
L 42.337401 188.162121 
L 43.964002 188.162121 
L 43.964002 149.830303 
L 45.590604 149.830303 
L 45.590604 138.472727 
L 47.217206 138.472727 
L 47.217206 152.669697 
L 48.843807 152.669697 
L 48.843807 162.607576 
L 50.470409 162.607576 
L 50.470409 145.571212 
L 52.09701 145.571212 
L 52.09701 156.928788 
L 56.976815 156.928788 
L 56.976815 175.384848 
L 58.603417 175.384848 
L 58.603417 158.348485 
L 60.230018 158.348485 
L 60.230018 162.607576 
L 61.85662 162.607576 
L 61.85662 169.706061 
L 63.483221 169.706061 
L 63.483221 161.187879 
L 66.736425 161.187879 
L 66.736425 164.027273 
L 68.363026 164.027273 
L 68.363026 171.125758 
L 71.616229 171.125758 
L 71.616229 156.928788 
L 73.242831 156.928788 
L 73.242831 154.089394 
L 74.869433 154.089394 
L 74.869433 148.410606 
L 76.496034 148.410606 
L 76.496034 171.125758 
L 78.122636 171.125758 
L 78.122636 172.545455 
L 79.749237 172.545455 
L 79.749237 159.768182 
L 81.375839 159.768182 
L 81.375839 166.866667 
L 83.002441 166.866667 
L 83.002441 182.483333 
L 84.629042 182.483333 
L 84.629042 164.027273 
L 86.255644 164.027273 
L 86.255644 165.44697 
L 87.882245 165.44697 
L 87.882245 189.581818 
L 89.508847 189.581818 
L 89.508847 179.643939 
L 91.135448 179.643939 
L 91.135448 156.928788 
L 92.76205 156.928788 
L 92.76205 149.830303 
L 94.388652 149.830303 
L 94.388652 173.965152 
L 96.015253 173.965152 
L 96.015253 156.928788 
L 97.641855 156.928788 
L 97.641855 175.384848 
L 99.268456 175.384848 
L 99.268456 156.928788 
L 100.895058 156.928788 
L 100.895058 168.286364 
L 102.52166 168.286364 
L 102.52166 77.425758 
L 104.148261 77.425758 
L 104.148261 87.363636 
L 105.774863 87.363636 
L 105.774863 76.006061 
L 107.401464 76.006061 
L 107.401464 122.856061 
L 109.028066 122.856061 
L 109.028066 90.20303 
L 110.654667 90.20303 
L 110.654667 105.819697 
L 112.281269 105.819697 
L 112.281269 83.104545 
L 113.907871 83.104545 
L 113.907871 144.151515 
L 115.534472 144.151515 
L 115.534472 90.20303 
L 117.161074 90.20303 
L 117.161074 121.436364 
L 118.787675 121.436364 
L 118.787675 145.571212 
L 120.414277 145.571212 
L 120.414277 101.560606 
L 122.040879 101.560606 
L 122.040879 121.436364 
L 123.66748 121.436364 
L 123.66748 94.462121 
L 125.294082 94.462121 
L 125.294082 118.59697 
L 126.920683 118.59697 
L 126.920683 87.363636 
L 128.547285 87.363636 
L 128.547285 101.560606 
L 130.173887 101.560606 
L 130.173887 115.757576 
L 131.800488 115.757576 
L 131.800488 104.4 
L 133.42709 104.4 
L 133.42709 122.856061 
L 135.053691 122.856061 
L 135.053691 85.943939 
L 136.680293 85.943939 
L 136.680293 107.239394 
L 138.306894 107.239394 
L 138.306894 93.042424 
L 139.933496 93.042424 
L 139.933496 98.721212 
L 141.560098 98.721212 
L 141.560098 97.301515 
L 143.186699 97.301515 
L 143.186699 90.20303 
L 144.813301 90.20303 
L 144.813301 84.524242 
L 146.439902 84.524242 
L 146.439902 76.006061 
L 148.066504 76.006061 
L 148.066504 97.301515 
L 149.693106 97.301515 
L 149.693106 127.115152 
L 152.946309 127.115152 
L 152.946309 129.954545 
L 154.57291 129.954545 
L 154.57291 115.757576 
L 156.199512 115.757576 
L 156.199512 90.20303 
L 157.826113 90.20303 
L 157.826113 104.4 
L 159.452715 104.4 
L 159.452715 88.783333 
L 161.079317 88.783333 
L 161.079317 81.684848 
L 162.705918 81.684848 
L 162.705918 105.819697 
L 164.33252 105.819697 
L 164.33252 110.078788 
L 165.959121 110.078788 
L 165.959121 120.016667 
L 167.585723 120.016667 
L 167.585723 114.337879 
L 169.212325 114.337879 
L 169.212325 94.462121 
L 170.838926 94.462121 
L 170.838926 115.757576 
L 172.465528 115.757576 
L 172.465528 144.151515 
L 174.092129 144.151515 
L 174.092129 112.918182 
L 175.718731 112.918182 
L 175.718731 108.659091 
L 178.971934 108.659091 
L 178.971934 100.140909 
L 180.598536 100.140909 
L 180.598536 142.731818 
L 182.225137 142.731818 
L 182.225137 111.498485 
L 183.851739 111.498485 
L 183.851739 51.871212 
L 185.47834 51.871212 
L 185.47834 88.783333 
L 187.104942 88.783333 
L 187.104942 51.871212 
L 188.731544 51.871212 
L 188.731544 73.166667 
L 190.358145 73.166667 
L 190.358145 60.389394 
L 191.984747 60.389394 
L 191.984747 34.834848 
L 193.611348 34.834848 
L 193.611348 115.757576 
L 195.23795 115.757576 
L 195.23795 49.031818 
L 196.864552 49.031818 
L 196.864552 70.327273 
L 198.491153 70.327273 
L 198.491153 33.415152 
L 200.117755 33.415152 
L 200.117755 70.327273 
L 201.744356 70.327273 
L 201.744356 77.425758 
L 203.370958 77.425758 
L 203.370958 61.809091 
L 204.997559 61.809091 
L 204.997559 93.042424 
L 206.624161 93.042424 
L 206.624161 80.265152 
L 208.250763 80.265152 
L 208.250763 64.648485 
L 209.877364 64.648485 
L 209.877364 70.327273 
L 211.503966 70.327273 
L 211.503966 19.218182 
L 213.130567 19.218182 
L 213.130567 31.995455 
L 214.757169 31.995455 
L 214.757169 100.140909 
L 216.383771 100.140909 
L 216.383771 51.871212 
L 218.010372 51.871212 
L 218.010372 91.622727 
L 219.636974 91.622727 
L 219.636974 36.254545 
L 221.263575 36.254545 
L 221.263575 85.943939 
L 222.890177 85.943939 
L 222.890177 56.130303 
L 224.516779 56.130303 
L 224.516779 50.451515 
L 226.14338 50.451515 
L 226.14338 87.363636 
L 227.769982 87.363636 
L 227.769982 84.524242 
L 229.396583 84.524242 
L 229.396583 68.907576 
L 231.023185 68.907576 
L 231.023185 58.969697 
L 232.649786 58.969697 
L 232.649786 50.451515 
L 234.276388 50.451515 
L 234.276388 23.477273 
L 235.90299 23.477273 
L 235.90299 67.487879 
L 237.529591 67.487879 
L 237.529591 85.943939 
L 240.782794 85.943939 
L 240.782794 37.674242 
L 242.409396 37.674242 
L 242.409396 57.55 
L 244.035998 57.55 
L 244.035998 70.327273 
L 245.662599 70.327273 
L 245.662599 87.363636 
L 247.289201 87.363636 
L 247.289201 60.389394 
L 248.915802 60.389394 
L 248.915802 56.130303 
L 250.542404 56.130303 
L 250.542404 61.809091 
L 252.169005 61.809091 
L 252.169005 88.783333 
L 253.795607 88.783333 
L 253.795607 50.451515 
L 257.04881 50.451515 
L 257.04881 64.648485 
L 258.675412 64.648485 
L 258.675412 85.943939 
L 260.302013 85.943939 
L 260.302013 71.74697 
L 261.928615 71.74697 
L 261.928615 63.228788 
L 263.555217 63.228788 
L 263.555217 84.524242 
L 265.181818 84.524242 
L 265.181818 84.524242 
" style="fill:none;stroke:#0c6575;stroke-linecap:square;"/>
    <defs>
     <path d="M -7.5 -0 
C -7.5 1.989023 -6.709753 3.896849 -5.303301 5.303301 
C -3.896849 6.709753 -1.989023 7.5 -0 7.5 
C 1.989023 7.5 3.896849 6.709753 5.303301 5.303301 
C 6.709753 3.896849 7.5 1.989023 7.5 0 
z
" id="me740ca4d1e" style="stroke:#23a98c;"/>
    </defs>
    <g clip-path="url(#p9de407196e)">
     <use style="fill:#bbcbcb;stroke:#23a98c;" x="22.818182" xlink:href="#me740ca4d1e" y="164.027273"/>
     <use style="fill:#bbcbcb;stroke:#23a98c;" x="39.084198" xlink:href="#me740ca4d1e" y="155.509091"/>
     <use style="fill:#bbcbcb;stroke:#23a98c;" x="55.350214" xlink:href="#me740ca4d1e" y="156.928788"/>
     <use style="fill:#bbcbcb;stroke:#23a98c;" x="71.616229" xlink:href="#me740ca4d1e" y="171.125758"/>
     <use style="fill:#bbcbcb;stroke:#23a98c;" x="87.882245" xlink:href="#me740ca4d1e" y="165.44697"/>
     <use style="fill:#bbcbcb;stroke:#23a98c;" x="104.148261" xlink:href="#me740ca4d1e" y="77.425758"/>
     <use style="fill:#bbcbcb;stroke:#23a98c;" x="120.414277" xlink:href="#me740ca4d1e" y="145.571212"/>
     <use style="fill:#bbcbcb;stroke:#23a98c;" x="136.680293" xlink:href="#me740ca4d1e" y="85.943939"/>
     <use style="fill:#bbcbcb;stroke:#23a98c;" x="152.946309" xlink:href="#me740ca4d1e" y="127.115152"/>
     <use style="fill:#bbcbcb;stroke:#23a98c;" x="169.212325" xlink:href="#me740ca4d1e" y="114.337879"/>
     <use style="fill:#bbcbcb;stroke:#23a98c;" x="185.47834" xlink:href="#me740ca4d1e" y="51.871212"/>
     <use style="fill:#bbcbcb;stroke:#23a98c;" x="201.744356" xlink:href="#me740ca4d1e" y="70.327273"/>
     <use style="fill:#bbcbcb;stroke:#23a98c;" x="218.010372" xlink:href="#me740ca4d1e" y="51.871212"/>
     <use style="fill:#bbcbcb;stroke:#23a98c;" x="234.276388" xlink:href="#me740ca4d1e" y="50.451515"/>
     <use style="fill:#bbcbcb;stroke:#23a98c;" x="250.542404" xlink:href="#me740ca4d1e" y="56.130303"/>
    </g>
    <defs>
     <path d="M 7.5 0 
C 7.5 -1.989023 6.709753 -3.896849 5.303301 -5.303301 
C 3.896849 -6.709753 1.989023 -7.5 0 -7.5 
C -1.989023 -7.5 -3.896849 -6.709753 -5.303301 -5.303301 
C -6.709753 -3.896849 -7.5 -1.989023 -7.5 -0 
z
" id="m26b20f2b01" style="stroke:#23a98c;"/>
    </defs>
    <g clip-path="url(#p9de407196e)">
     <use style="fill-opacity:0;stroke:#23a98c;" x="22.818182" xlink:href="#m26b20f2b01" y="164.027273"/>
     <use style="fill-opacity:0;stroke:#23a98c;" x="39.084198" xlink:href="#m26b20f2b01" y="155.509091"/>
     <use style="fill-opacity:0;stroke:#23a98c;" x="55.350214" xlink:href="#m26b20f2b01" y="156.928788"/>
     <use style="fill-opacity:0;stroke:#23a98c;" x="71.616229" xlink:href="#m26b20f2b01" y="171.125758"/>
     <use style="fill-opacity:0;stroke:#23a98c;" x="87.882245" xlink:href="#m26b20f2b01" y="165.44697"/>
     <use style="fill-opacity:0;stroke:#23a98c;" x="104.148261" xlink:href="#m26b20f2b01" y="77.425758"/>
     <use style="fill-opacity:0;stroke:#23a98c;" x="120.414277" xlink:href="#m26b20f2b01" y="145.571212"/>
     <use style="fill-opacity:0;stroke:#23a98c;" x="136.680293" xlink:href="#m26b20f2b01" y="85.943939"/>
     <use style="fill-opacity:0;stroke:#23a98c;" x="152.946309" xlink:href="#m26b20f2b01" y="127.115152"/>
     <use style="fill-opacity:0;stroke:#23a98c;" x="169.212325" xlink:href="#m26b20f2b01" y="114.337879"/>
     <use style="fill-opacity:0;stroke:#23a98c;" x="185.47834" xlink:href="#m26b20f2b01" y="51.871212"/>
     <use style="fill-opacity:0;stroke:#23a98c;" x="201.744356" xlink:href="#m26b20f2b01" y="70.327273"/>
     <use style="fill-opacity:0;stroke:#23a98c;" x="218.010372" xlink:href="#m26b20f2b01" y="51.871212"/>
     <use style="fill-opacity:0;stroke:#23a98c;" x="234.276388" xlink:href="#m26b20f2b01" y="50.451515"/>
     <use style="fill-opacity:0;stroke:#23a98c;" x="250.542404" xlink:href="#m26b20f2b01" y="56.130303"/>
    </g>
   </g>
   <g id="patch_3">
    <path d="M 10.7 198.1 
L 10.7 10.7 
" style="fill:none;stroke:#000000;stroke-linecap:square;stroke-linejoin:miter;stroke-width:0.8;"/>
   </g>
   <g id="patch_4">
    <path d="M 277.3 198.1 
L 277.3 10.7 
" style="fill:none;stroke:#000000;stroke-linecap:square;stroke-linejoin:miter;stroke-width:0.8;"/>
   </g>
   <g id="patch_5">
    <path d="M 10.7 198.1 
L 277.3 198.1 
" style="fill:none;stroke:#000000;stroke-linecap:square;stroke-linejoin:miter;stroke-width:0.8;"/>
   </g>
   <g id="patch_6">
    <path d="M 10.7 10.7 
L 277.3 10.7 
" style="fill:none;stroke:#000000;stroke-linecap:square;stroke-linejoin:miter;stroke-width:0.8;"/>
   </g>
  </g>
  <g id="axes_2">
   <g id="patch_7">
    <path d="M 295.1 198.1 
L 561.7 198.1 
L 561.7 10.7 
L 295.1 10.7 
z
" style="fill:#ffffff;"/>
   </g>
   <g id="PathCollection_1">
    <path clip-path="url(#peba6c883a8)" d="M 306.989342 163.84208 
L 307.239342 163.59208 
L 307.489342 163.84208 
L 307.739342 163.59208 
L 307.489342 163.34208 
L 307.739342 163.09208 
L 307.489342 162.84208 
L 307.239342 163.09208 
L 306.989342 162.84208 
L 306.739342 163.09208 
L 306.989342 163.34208 
L 306.739342 163.59208 
z
" style="fill:#440154;stroke:#444444;"/>
    <path clip-path="url(#peba6c883a8)" d="M 308.562884 173.555407 
L 308.861541 173.25675 
L 309.160199 173.555407 
L 309.458857 173.25675 
L 309.160199 172.958092 
L 309.458857 172.659434 
L 309.160199 172.360776 
L 308.861541 172.659434 
L 308.562884 172.360776 
L 308.264226 172.659434 
L 308.562884 172.958092 
L 308.264226 173.25675 
z
" style="fill:#440154;stroke:#444444;"/>
    <path clip-path="url(#peba6c883a8)" d="M 310.136425 175.026439 
L 310.48374 174.679123 
L 310.831056 175.026439 
L 311.178371 174.679123 
L 310.831056 174.331808 
L 311.178371 173.984492 
L 310.831056 173.637177 
L 310.48374 173.984492 
L 310.136425 173.637177 
L 309.78911 173.984492 
L 310.136425 174.331808 
L 309.78911 174.679123 
z
" style="fill:#440154;stroke:#444444;"/>
    <path clip-path="url(#peba6c883a8)" d="M 311.709966 175.123754 
L 312.10594 174.727781 
L 312.501913 175.123754 
L 312.897886 174.727781 
L 312.501913 174.331808 
L 312.897886 173.935835 
L 312.501913 173.539862 
L 312.10594 173.935835 
L 311.709966 173.539862 
L 311.313993 173.935835 
L 311.709966 174.331808 
L 311.313993 174.727781 
z
" style="fill:#440154;stroke:#444444;"/>
    <path clip-path="url(#peba6c883a8)" d="M 313.283508 164.231342 
L 313.728139 163.786711 
L 314.172769 164.231342 
L 314.6174 163.786711 
L 314.172769 163.34208 
L 314.6174 162.897449 
L 314.172769 162.452818 
L 313.728139 162.897449 
L 313.283508 162.452818 
L 312.838877 162.897449 
L 313.283508 163.34208 
L 312.838877 163.786711 
z
" style="fill:#440154;stroke:#444444;"/>
    <path clip-path="url(#peba6c883a8)" d="M 314.857049 147.844066 
L 315.350338 147.350777 
L 315.843626 147.844066 
L 316.336915 147.350777 
L 315.843626 146.857489 
L 316.336915 146.3642 
L 315.843626 145.870912 
L 315.350338 146.3642 
L 314.857049 145.870912 
L 314.36376 146.3642 
L 314.857049 146.857489 
L 314.36376 147.350777 
z
" style="fill:#440154;stroke:#444444;"/>
    <path clip-path="url(#peba6c883a8)" d="M 316.43059 171.294553 
L 316.972537 170.752606 
L 317.514483 171.294553 
L 318.056429 170.752606 
L 317.514483 170.21066 
L 318.056429 169.668714 
L 317.514483 169.126767 
L 316.972537 169.668714 
L 316.43059 169.126767 
L 315.888644 169.668714 
L 316.43059 170.21066 
L 315.888644 170.752606 
z
" style="fill:#440154;stroke:#444444;"/>
    <path clip-path="url(#peba6c883a8)" d="M 318.004132 165.897004 
L 318.594736 165.3064 
L 319.18534 165.897004 
L 319.775944 165.3064 
L 319.18534 164.715796 
L 319.775944 164.125192 
L 319.18534 163.534588 
L 318.594736 164.125192 
L 318.004132 163.534588 
L 317.413528 164.125192 
L 318.004132 164.715796 
L 317.413528 165.3064 
z
" style="fill:#440154;stroke:#444444;"/>
    <path clip-path="url(#peba6c883a8)" d="M 319.577673 182.478911 
L 320.216935 181.839649 
L 320.856197 182.478911 
L 321.495458 181.839649 
L 320.856197 181.200388 
L 321.495458 180.561126 
L 320.856197 179.921864 
L 320.216935 180.561126 
L 319.577673 179.921864 
L 318.938411 180.561126 
L 319.577673 181.200388 
L 318.938411 181.839649 
z
" style="fill:#440154;stroke:#444444;"/>
    <path clip-path="url(#peba6c883a8)" d="M 321.151214 172.960215 
L 321.839134 172.272295 
L 322.527053 172.960215 
L 323.214973 172.272295 
L 322.527053 171.584376 
L 323.214973 170.896457 
L 322.527053 170.208537 
L 321.839134 170.896457 
L 321.151214 170.208537 
L 320.463295 170.896457 
L 321.151214 171.584376 
L 320.463295 172.272295 
z
" style="fill:#440154;stroke:#444444;"/>
    <path clip-path="url(#peba6c883a8)" d="M 322.724756 156.572939 
L 323.461333 155.836362 
L 324.19791 156.572939 
L 324.934487 155.836362 
L 324.19791 155.099785 
L 324.934487 154.363207 
L 324.19791 153.62663 
L 323.461333 154.363207 
L 322.724756 153.62663 
L 321.988179 154.363207 
L 322.724756 155.099785 
L 321.988179 155.836362 
z
" style="fill:#440154;stroke:#444444;"/>
    <path clip-path="url(#peba6c883a8)" d="M 324.298297 167.659982 
L 325.083532 166.874747 
L 325.868767 167.659982 
L 326.654002 166.874747 
L 325.868767 166.089512 
L 326.654002 165.304277 
L 325.868767 164.519042 
L 325.083532 165.304277 
L 324.298297 164.519042 
L 323.513062 165.304277 
L 324.298297 166.089512 
L 323.513062 166.874747 
z
" style="fill:#440154;stroke:#444444;"/>
    <path clip-path="url(#peba6c883a8)" d="M 325.871838 177.373309 
L 326.705731 176.539416 
L 327.539624 177.373309 
L 328.373516 176.539416 
L 327.539624 175.705524 
L 328.373516 174.871631 
L 327.539624 174.037739 
L 326.705731 174.871631 
L 325.871838 174.037739 
L 325.037946 174.871631 
L 325.871838 175.705524 
L 325.037946 176.539416 
z
" style="fill:#440154;stroke:#444444;"/>
    <path clip-path="url(#peba6c883a8)" d="M 327.44538 188.460352 
L 328.32793 187.577802 
L 329.210481 188.460352 
L 330.093031 187.577802 
L 329.210481 186.695251 
L 330.093031 185.812701 
L 329.210481 184.930151 
L 328.32793 185.812701 
L 327.44538 184.930151 
L 326.56283 185.812701 
L 327.44538 186.695251 
L 326.56283 187.577802 
z
" style="fill:#440154;stroke:#444444;"/>
    <path clip-path="url(#peba6c883a8)" d="M 329.018921 151.467337 
L 329.950129 150.536129 
L 330.881337 151.467337 
L 331.812545 150.536129 
L 330.881337 149.604921 
L 331.812545 148.673713 
L 330.881337 147.742505 
L 329.950129 148.673713 
L 329.018921 147.742505 
L 328.087713 148.673713 
L 329.018921 149.604921 
L 328.087713 150.536129 
z
" style="fill:#440154;stroke:#444444;"/>
    <path clip-path="url(#peba6c883a8)" d="M 330.592463 140.574925 
L 331.572328 139.595059 
L 332.552194 140.574925 
L 333.53206 139.595059 
L 332.552194 138.615193 
L 333.53206 137.635327 
L 332.552194 136.655461 
L 331.572328 137.635327 
L 330.592463 136.655461 
L 329.612597 137.635327 
L 330.592463 138.615193 
L 329.612597 139.595059 
z
" style="fill:#440154;stroke:#444444;"/>
    <path clip-path="url(#peba6c883a8)" d="M 332.166004 154.4094 
L 333.194527 153.380876 
L 334.223051 154.4094 
L 335.251574 153.380876 
L 334.223051 152.352353 
L 335.251574 151.323829 
L 334.223051 150.295306 
L 333.194527 151.323829 
L 332.166004 150.295306 
L 331.13748 151.323829 
L 332.166004 152.352353 
L 331.13748 153.380876 
z
" style="fill:#440154;stroke:#444444;"/>
    <path clip-path="url(#peba6c883a8)" d="M 333.739545 164.122727 
L 334.816726 163.045545 
L 335.893908 164.122727 
L 336.971089 163.045545 
L 335.893908 161.968364 
L 336.971089 160.891183 
L 335.893908 159.814002 
L 334.816726 160.891183 
L 333.739545 159.814002 
L 332.662364 160.891183 
L 333.739545 161.968364 
L 332.662364 163.045545 
z
" style="fill:#440154;stroke:#444444;"/>
    <path clip-path="url(#peba6c883a8)" d="M 335.313087 147.735451 
L 336.438926 146.609612 
L 337.564764 147.735451 
L 338.690603 146.609612 
L 337.564764 145.483773 
L 338.690603 144.357934 
L 337.564764 143.232095 
L 336.438926 144.357934 
L 335.313087 143.232095 
L 334.187248 144.357934 
L 335.313087 145.483773 
L 334.187248 146.609612 
z
" style="fill:#440154;stroke:#444444;"/>
    <path clip-path="url(#peba6c883a8)" d="M 336.886628 158.822494 
L 338.061125 157.647997 
L 339.235621 158.822494 
L 340.410118 157.647997 
L 339.235621 156.4735 
L 340.410118 155.299004 
L 339.235621 154.124507 
L 338.061125 155.299004 
L 336.886628 154.124507 
L 335.712131 155.299004 
L 336.886628 156.4735 
L 335.712131 157.647997 
z
" style="fill:#440154;stroke:#444444;"/>
    <path clip-path="url(#peba6c883a8)" d="M 338.460169 158.919809 
L 339.683324 157.696655 
L 340.906478 158.919809 
L 342.129632 157.696655 
L 340.906478 156.4735 
L 342.129632 155.250346 
L 340.906478 154.027192 
L 339.683324 155.250346 
L 338.460169 154.027192 
L 337.237015 155.250346 
L 338.460169 156.4735 
L 337.237015 157.696655 
z
" style="fill:#440154;stroke:#444444;"/>
    <path clip-path="url(#peba6c883a8)" d="M 340.033711 159.017125 
L 341.305523 157.745313 
L 342.577335 159.017125 
L 343.849147 157.745313 
L 342.577335 156.4735 
L 343.849147 155.201688 
L 342.577335 153.929876 
L 341.305523 155.201688 
L 340.033711 153.929876 
L 338.761899 155.201688 
L 340.033711 156.4735 
L 338.761899 157.745313 
z
" style="fill:#440154;stroke:#444444;"/>
    <path clip-path="url(#peba6c883a8)" d="M 341.607252 176.972747 
L 342.927722 175.652278 
L 344.248192 176.972747 
L 345.568661 175.652278 
L 344.248192 174.331808 
L 345.568661 173.011338 
L 344.248192 171.690868 
L 342.927722 173.011338 
L 341.607252 171.690868 
L 340.286782 173.011338 
L 341.607252 174.331808 
L 340.286782 175.652278 
z
" style="fill:#440154;stroke:#444444;"/>
    <path clip-path="url(#peba6c883a8)" d="M 343.180793 160.585471 
L 344.549921 159.216344 
L 345.919048 160.585471 
L 347.288176 159.216344 
L 345.919048 157.847216 
L 347.288176 156.478089 
L 345.919048 155.108961 
L 344.549921 156.478089 
L 343.180793 155.108961 
L 341.811666 156.478089 
L 343.180793 157.847216 
L 341.811666 159.216344 
z
" style="fill:#440154;stroke:#444444;"/>
    <path clip-path="url(#peba6c883a8)" d="M 344.754335 164.803935 
L 346.17212 163.38615 
L 347.589905 164.803935 
L 349.00769 163.38615 
L 347.589905 161.968364 
L 349.00769 160.550579 
L 347.589905 159.132794 
L 346.17212 160.550579 
L 344.754335 159.132794 
L 343.336549 160.550579 
L 344.754335 161.968364 
L 343.336549 163.38615 
z
" style="fill:#440154;stroke:#444444;"/>
    <path clip-path="url(#peba6c883a8)" d="M 346.327876 171.76983 
L 347.794319 170.303387 
L 349.260762 171.76983 
L 350.727205 170.303387 
L 349.260762 168.836944 
L 350.727205 167.370501 
L 349.260762 165.904058 
L 347.794319 167.370501 
L 346.327876 165.904058 
L 344.861433 167.370501 
L 346.327876 168.836944 
L 344.861433 170.303387 
z
" style="fill:#440154;stroke:#444444;"/>
    <path clip-path="url(#peba6c883a8)" d="M 347.901417 163.62485 
L 349.416518 162.109749 
L 350.931619 163.62485 
L 352.446719 162.109749 
L 350.931619 160.594648 
L 352.446719 159.079548 
L 350.931619 157.564447 
L 349.416518 159.079548 
L 347.901417 157.564447 
L 346.386317 159.079548 
L 347.901417 160.594648 
L 346.386317 162.109749 
z
" style="fill:#440154;stroke:#444444;"/>
    <path clip-path="url(#peba6c883a8)" d="M 349.474959 163.722165 
L 351.038717 162.158407 
L 352.602476 163.722165 
L 354.166234 162.158407 
L 352.602476 160.594648 
L 354.166234 159.03089 
L 352.602476 157.467132 
L 351.038717 159.03089 
L 349.474959 157.467132 
L 347.9112 159.03089 
L 349.474959 160.594648 
L 347.9112 162.158407 
z
" style="fill:#440154;stroke:#444444;"/>
    <path clip-path="url(#peba6c883a8)" d="M 351.0485 166.566912 
L 352.660916 164.954496 
L 354.273332 166.566912 
L 355.885748 164.954496 
L 354.273332 163.34208 
L 355.885748 161.729664 
L 354.273332 160.117248 
L 352.660916 161.729664 
L 351.0485 160.117248 
L 349.436084 161.729664 
L 351.0485 163.34208 
L 349.436084 164.954496 
z
" style="fill:#440154;stroke:#444444;"/>
    <path clip-path="url(#peba6c883a8)" d="M 352.622041 173.532808 
L 354.283115 171.871734 
L 355.944189 173.532808 
L 357.605263 171.871734 
L 355.944189 170.21066 
L 357.605263 168.549586 
L 355.944189 166.888512 
L 354.283115 168.549586 
L 352.622041 166.888512 
L 350.960968 168.549586 
L 352.622041 170.21066 
L 350.960968 171.871734 
z
" style="fill:#440154;stroke:#444444;"/>
    <path clip-path="url(#peba6c883a8)" d="M 354.195583 173.630123 
L 355.905314 171.920392 
L 357.615046 173.630123 
L 359.324777 171.920392 
L 357.615046 170.21066 
L 359.324777 168.500928 
L 357.615046 166.791197 
L 355.905314 168.500928 
L 354.195583 166.791197 
L 352.485851 168.500928 
L 354.195583 170.21066 
L 352.485851 171.920392 
z
" style="fill:#440154;stroke:#444444;"/>
    <path clip-path="url(#peba6c883a8)" d="M 355.769124 159.990279 
L 357.527513 158.23189 
L 359.285903 159.990279 
L 361.044292 158.23189 
L 359.285903 156.4735 
L 361.044292 154.715111 
L 359.285903 152.956722 
L 357.527513 154.715111 
L 355.769124 152.956722 
L 354.010735 154.715111 
L 355.769124 156.4735 
L 354.010735 158.23189 
z
" style="fill:#440154;stroke:#444444;"/>
    <path clip-path="url(#peba6c883a8)" d="M 357.342665 157.340163 
L 359.149712 155.533116 
L 360.956759 157.340163 
L 362.763806 155.533116 
L 360.956759 153.726069 
L 362.763806 151.919022 
L 360.956759 150.111975 
L 359.149712 151.919022 
L 357.342665 150.111975 
L 355.535618 151.919022 
L 357.342665 153.726069 
L 355.535618 155.533116 
z
" style="fill:#440154;stroke:#444444;"/>
    <path clip-path="url(#peba6c883a8)" d="M 358.916207 151.942614 
L 360.771912 150.086909 
L 362.627616 151.942614 
L 364.483321 150.086909 
L 362.627616 148.231205 
L 364.483321 146.3755 
L 362.627616 144.519795 
L 360.771912 146.3755 
L 358.916207 144.519795 
L 357.060502 146.3755 
L 358.916207 148.231205 
L 357.060502 150.086909 
z
" style="fill:#440154;stroke:#444444;"/>
    <path clip-path="url(#peba6c883a8)" d="M 360.489748 174.019385 
L 362.394111 172.115022 
L 364.298473 174.019385 
L 366.202835 172.115022 
L 364.298473 170.21066 
L 366.202835 168.306298 
L 364.298473 166.401935 
L 362.394111 168.306298 
L 360.489748 166.401935 
L 358.585386 168.306298 
L 360.489748 170.21066 
L 358.585386 172.115022 
z
" style="fill:#440154;stroke:#444444;"/>
    <path clip-path="url(#peba6c883a8)" d="M 362.06329 175.490416 
L 364.01631 173.537396 
L 365.96933 175.490416 
L 367.92235 173.537396 
L 365.96933 171.584376 
L 367.92235 169.631356 
L 365.96933 167.678336 
L 364.01631 169.631356 
L 362.06329 167.678336 
L 360.110269 169.631356 
L 362.06329 171.584376 
L 360.110269 173.537396 
z
" style="fill:#440154;stroke:#444444;"/>
    <path clip-path="url(#peba6c883a8)" d="M 363.636831 163.224288 
L 365.638509 161.22261 
L 367.640187 163.224288 
L 369.641864 161.22261 
L 367.640187 159.220932 
L 369.641864 157.219255 
L 367.640187 155.217577 
L 365.638509 157.219255 
L 363.636831 155.217577 
L 361.635153 157.219255 
L 363.636831 159.220932 
L 361.635153 161.22261 
z
" style="fill:#440154;stroke:#444444;"/>
    <path clip-path="url(#peba6c883a8)" d="M 365.210372 170.190183 
L 367.260708 168.139848 
L 369.311043 170.190183 
L 371.361379 168.139848 
L 369.311043 166.089512 
L 371.361379 164.039177 
L 369.311043 161.988841 
L 367.260708 164.039177 
L 365.210372 161.988841 
L 363.160037 164.039177 
L 365.210372 166.089512 
L 363.160037 168.139848 
z
" style="fill:#440154;stroke:#444444;"/>
    <path clip-path="url(#peba6c883a8)" d="M 366.783914 185.398374 
L 368.882907 183.299381 
L 370.9819 185.398374 
L 373.080893 183.299381 
L 370.9819 181.200388 
L 373.080893 179.101394 
L 370.9819 177.002401 
L 368.882907 179.101394 
L 366.783914 177.002401 
L 364.68492 179.101394 
L 366.783914 181.200388 
L 364.68492 183.299381 
z
" style="fill:#440154;stroke:#444444;"/>
    <path clip-path="url(#peba6c883a8)" d="M 368.357455 167.637382 
L 370.505106 165.489731 
L 372.652757 167.637382 
L 374.800408 165.489731 
L 372.652757 163.34208 
L 374.800408 161.194429 
L 372.652757 159.046778 
L 370.505106 161.194429 
L 368.357455 159.046778 
L 366.209804 161.194429 
L 368.357455 163.34208 
L 366.209804 165.489731 
z
" style="fill:#440154;stroke:#444444;"/>
    <path clip-path="url(#peba6c883a8)" d="M 369.930996 169.108414 
L 372.127305 166.912105 
L 374.323614 169.108414 
L 376.519922 166.912105 
L 374.323614 164.715796 
L 376.519922 162.519487 
L 374.323614 160.323179 
L 372.127305 162.519487 
L 369.930996 160.323179 
L 367.734688 162.519487 
L 369.930996 164.715796 
L 367.734688 166.912105 
z
" style="fill:#440154;stroke:#444444;"/>
    <path clip-path="url(#peba6c883a8)" d="M 371.504538 192.5589 
L 373.749504 190.313934 
L 375.99447 192.5589 
L 378.239437 190.313934 
L 375.99447 188.068967 
L 378.239437 185.824001 
L 375.99447 183.579035 
L 373.749504 185.824001 
L 371.504538 183.579035 
L 369.259571 185.824001 
L 371.504538 188.068967 
L 369.259571 190.313934 
z
" style="fill:#440154;stroke:#444444;"/>
    <path clip-path="url(#peba6c883a8)" d="M 373.078079 183.040204 
L 375.371703 180.74658 
L 377.665327 183.040204 
L 379.958951 180.74658 
L 377.665327 178.452956 
L 379.958951 176.159332 
L 377.665327 173.865707 
L 375.371703 176.159332 
L 373.078079 173.865707 
L 370.784455 176.159332 
L 373.078079 178.452956 
L 370.784455 180.74658 
z
" style="fill:#440154;stroke:#444444;"/>
    <path clip-path="url(#peba6c883a8)" d="M 374.65162 161.158064 
L 376.993902 158.815782 
L 379.336184 161.158064 
L 381.678466 158.815782 
L 379.336184 156.4735 
L 381.678466 154.131219 
L 379.336184 151.788937 
L 376.993902 154.131219 
L 374.65162 151.788937 
L 372.309338 154.131219 
L 374.65162 156.4735 
L 372.309338 158.815782 
z
" style="fill:#440154;stroke:#444444;"/>
    <path clip-path="url(#peba6c883a8)" d="M 376.225162 154.3868 
L 378.616101 151.99586 
L 381.007041 154.3868 
L 383.39798 151.99586 
L 381.007041 149.604921 
L 383.39798 147.213981 
L 381.007041 144.823041 
L 378.616101 147.213981 
L 376.225162 144.823041 
L 373.834222 147.213981 
L 376.225162 149.604921 
L 373.834222 151.99586 
z
" style="fill:#440154;stroke:#444444;"/>
    <path clip-path="url(#peba6c883a8)" d="M 377.798703 177.837287 
L 380.2383 175.397689 
L 382.677898 177.837287 
L 385.117495 175.397689 
L 382.677898 172.958092 
L 385.117495 170.518495 
L 382.677898 168.078897 
L 380.2383 170.518495 
L 377.798703 168.078897 
L 375.359106 170.518495 
L 377.798703 172.958092 
L 375.359106 175.397689 
z
" style="fill:#440154;stroke:#444444;"/>
    <path clip-path="url(#peba6c883a8)" d="M 379.372244 161.450011 
L 381.860499 158.961755 
L 384.348754 161.450011 
L 386.837009 158.961755 
L 384.348754 156.4735 
L 386.837009 153.985245 
L 384.348754 151.49699 
L 381.860499 153.985245 
L 379.372244 151.49699 
L 376.883989 153.985245 
L 379.372244 156.4735 
L 376.883989 158.961755 
z
" style="fill:#440154;stroke:#444444;"/>
    <path clip-path="url(#peba6c883a8)" d="M 380.945786 179.405633 
L 383.482698 176.868721 
L 386.019611 179.405633 
L 388.556524 176.868721 
L 386.019611 174.331808 
L 388.556524 171.794895 
L 386.019611 169.257982 
L 383.482698 171.794895 
L 380.945786 169.257982 
L 378.408873 171.794895 
L 380.945786 174.331808 
L 378.408873 176.868721 
z
" style="fill:#440154;stroke:#444444;"/>
    <path clip-path="url(#peba6c883a8)" d="M 382.519327 161.644641 
L 385.104898 159.059071 
L 387.690468 161.644641 
L 390.276038 159.059071 
L 387.690468 156.4735 
L 390.276038 153.88793 
L 387.690468 151.30236 
L 385.104898 153.88793 
L 382.519327 151.30236 
L 379.933757 153.88793 
L 382.519327 156.4735 
L 379.933757 159.059071 
z
" style="fill:#440154;stroke:#444444;"/>
    <path clip-path="url(#peba6c883a8)" d="M 384.092868 172.731684 
L 386.727097 170.097456 
L 389.361325 172.731684 
L 391.995553 170.097456 
L 389.361325 167.463228 
L 391.995553 164.829 
L 389.361325 162.194772 
L 386.727097 164.829 
L 384.092868 162.194772 
L 381.45864 164.829 
L 384.092868 167.463228 
L 381.45864 170.097456 
z
" style="fill:#440154;stroke:#444444;"/>
    <path clip-path="url(#peba6c883a8)" d="M 385.66641 84.911179 
L 388.349296 82.228293 
L 391.032182 84.911179 
L 393.715067 82.228293 
L 391.032182 79.545407 
L 393.715067 76.862521 
L 391.032182 74.179635 
L 388.349296 76.862521 
L 385.66641 74.179635 
L 382.983524 76.862521 
L 385.66641 79.545407 
L 382.983524 82.228293 
z
" style="fill:#21918c;stroke:#444444;"/>
    <path clip-path="url(#peba6c883a8)" d="M 387.239951 94.624506 
L 389.971495 91.892962 
L 392.703038 94.624506 
L 395.434582 91.892962 
L 392.703038 89.161419 
L 395.434582 86.429875 
L 392.703038 83.698331 
L 389.971495 86.429875 
L 387.239951 83.698331 
L 384.508407 86.429875 
L 387.239951 89.161419 
L 384.508407 91.892962 
z
" style="fill:#21918c;stroke:#444444;"/>
    <path clip-path="url(#peba6c883a8)" d="M 388.813492 83.732094 
L 391.593694 80.951892 
L 394.373895 83.732094 
L 397.154096 80.951892 
L 394.373895 78.171691 
L 397.154096 75.39149 
L 394.373895 72.611288 
L 391.593694 75.39149 
L 388.813492 72.611288 
L 386.033291 75.39149 
L 388.813492 78.171691 
L 386.033291 80.951892 
z
" style="fill:#21918c;stroke:#444444;"/>
    <path clip-path="url(#peba6c883a8)" d="M 390.387034 129.162036 
L 393.215893 126.333177 
L 396.044752 129.162036 
L 398.873611 126.333177 
L 396.044752 123.504318 
L 398.873611 120.675458 
L 396.044752 117.846599 
L 393.215893 120.675458 
L 390.387034 117.846599 
L 387.558175 120.675458 
L 390.387034 123.504318 
L 387.558175 126.333177 
z
" style="fill:#21918c;stroke:#444444;"/>
    <path clip-path="url(#peba6c883a8)" d="M 391.960575 97.663884 
L 394.838092 94.786367 
L 397.715609 97.663884 
L 400.593125 94.786367 
L 397.715609 91.908851 
L 400.593125 89.031334 
L 397.715609 86.153817 
L 394.838092 89.031334 
L 391.960575 86.153817 
L 389.083058 89.031334 
L 391.960575 91.908851 
L 389.083058 94.786367 
z
" style="fill:#21918c;stroke:#444444;"/>
    <path clip-path="url(#peba6c883a8)" d="M 393.534116 112.872075 
L 396.460291 109.945901 
L 399.386465 112.872075 
L 402.31264 109.945901 
L 399.386465 107.019726 
L 402.31264 104.093552 
L 399.386465 101.167377 
L 396.460291 104.093552 
L 393.534116 101.167377 
L 390.607942 104.093552 
L 393.534116 107.019726 
L 390.607942 109.945901 
z
" style="fill:#21918c;stroke:#444444;"/>
    <path clip-path="url(#peba6c883a8)" d="M 395.107658 90.989935 
L 398.08249 88.015103 
L 401.057322 90.989935 
L 404.032154 88.015103 
L 401.057322 85.040271 
L 404.032154 82.065439 
L 401.057322 79.090606 
L 398.08249 82.065439 
L 395.107658 79.090606 
L 392.132826 82.065439 
L 395.107658 85.040271 
L 392.132826 88.015103 
z
" style="fill:#21918c;stroke:#444444;"/>
    <path clip-path="url(#peba6c883a8)" d="M 396.681199 150.157037 
L 399.704689 147.133547 
L 402.728179 150.157037 
L 405.751669 147.133547 
L 402.728179 144.110057 
L 405.751669 141.086567 
L 402.728179 138.063077 
L 399.704689 141.086567 
L 396.681199 138.063077 
L 393.657709 141.086567 
L 396.681199 144.110057 
L 393.657709 147.133547 
z
" style="fill:#21918c;stroke:#444444;"/>
    <path clip-path="url(#peba6c883a8)" d="M 398.254741 98.053146 
L 401.326888 94.980998 
L 404.399036 98.053146 
L 407.471183 94.980998 
L 404.399036 91.908851 
L 407.471183 88.836703 
L 404.399036 85.764555 
L 401.326888 88.836703 
L 398.254741 85.764555 
L 395.182593 88.836703 
L 398.254741 91.908851 
L 395.182593 94.980998 
z
" style="fill:#21918c;stroke:#444444;"/>
    <path clip-path="url(#peba6c883a8)" d="M 399.828282 128.372212 
L 402.949087 125.251407 
L 406.069893 128.372212 
L 409.190698 125.251407 
L 406.069893 122.130602 
L 409.190698 119.009796 
L 406.069893 115.888991 
L 402.949087 119.009796 
L 399.828282 115.888991 
L 396.707477 119.009796 
L 399.828282 122.130602 
L 396.707477 125.251407 
z
" style="fill:#21918c;stroke:#444444;"/>
    <path clip-path="url(#peba6c883a8)" d="M 401.401823 151.822699 
L 404.571286 148.653236 
L 407.740749 151.822699 
L 410.910212 148.653236 
L 407.740749 145.483773 
L 410.910212 142.31431 
L 407.740749 139.144847 
L 404.571286 142.31431 
L 401.401823 139.144847 
L 398.23236 142.31431 
L 401.401823 145.483773 
L 398.23236 148.653236 
z
" style="fill:#21918c;stroke:#444444;"/>
    <path clip-path="url(#peba6c883a8)" d="M 402.975365 109.33482 
L 406.193485 106.116699 
L 409.411606 109.33482 
L 412.629727 106.116699 
L 409.411606 102.898578 
L 412.629727 99.680457 
L 409.411606 96.462337 
L 406.193485 99.680457 
L 402.975365 96.462337 
L 399.757244 99.680457 
L 402.975365 102.898578 
L 399.757244 106.116699 
z
" style="fill:#21918c;stroke:#444444;"/>
    <path clip-path="url(#peba6c883a8)" d="M 404.548906 128.664159 
L 407.815684 125.39738 
L 411.082463 128.664159 
L 414.349241 125.39738 
L 411.082463 122.130602 
L 414.349241 118.863823 
L 411.082463 115.597045 
L 407.815684 118.863823 
L 404.548906 115.597045 
L 401.282127 118.863823 
L 404.548906 122.130602 
L 401.282127 125.39738 
z
" style="fill:#21918c;stroke:#444444;"/>
    <path clip-path="url(#peba6c883a8)" d="M 406.122447 102.660871 
L 409.437884 99.345435 
L 412.75332 102.660871 
L 416.068756 99.345435 
L 412.75332 96.029998 
L 416.068756 92.714562 
L 412.75332 89.399126 
L 409.437884 92.714562 
L 406.122447 89.399126 
L 402.807011 92.714562 
L 406.122447 96.029998 
L 402.807011 99.345435 
z
" style="fill:#21918c;stroke:#444444;"/>
    <path clip-path="url(#peba6c883a8)" d="M 407.695989 126.111358 
L 411.060083 122.747264 
L 414.424177 126.111358 
L 417.78827 122.747264 
L 414.424177 119.38317 
L 417.78827 116.019076 
L 414.424177 112.654982 
L 411.060083 116.019076 
L 407.695989 112.654982 
L 404.331895 116.019076 
L 407.695989 119.38317 
L 404.331895 122.747264 
z
" style="fill:#21918c;stroke:#444444;"/>
    <path clip-path="url(#peba6c883a8)" d="M 409.26953 95.986922 
L 412.682282 92.57417 
L 416.095033 95.986922 
L 419.507785 92.57417 
L 416.095033 89.161419 
L 419.507785 85.748667 
L 416.095033 82.335915 
L 412.682282 85.748667 
L 409.26953 82.335915 
L 405.856778 85.748667 
L 409.26953 89.161419 
L 405.856778 92.57417 
z
" style="fill:#21918c;stroke:#444444;"/>
    <path clip-path="url(#peba6c883a8)" d="M 410.843071 109.821397 
L 414.304481 106.359988 
L 417.76589 109.821397 
L 421.227299 106.359988 
L 417.76589 102.898578 
L 421.227299 99.437169 
L 417.76589 95.975759 
L 414.304481 99.437169 
L 410.843071 95.975759 
L 407.381662 99.437169 
L 410.843071 102.898578 
L 407.381662 106.359988 
z
" style="fill:#21918c;stroke:#444444;"/>
    <path clip-path="url(#peba6c883a8)" d="M 412.416613 123.655872 
L 415.92668 120.145805 
L 419.436747 123.655872 
L 422.946814 120.145805 
L 419.436747 116.635738 
L 422.946814 113.125671 
L 419.436747 109.615604 
L 415.92668 113.125671 
L 412.416613 109.615604 
L 408.906546 113.125671 
L 412.416613 116.635738 
L 408.906546 120.145805 
z
" style="fill:#21918c;stroke:#444444;"/>
    <path clip-path="url(#peba6c883a8)" d="M 413.990154 112.76346 
L 417.548879 109.204735 
L 421.107604 112.76346 
L 424.666329 109.204735 
L 421.107604 105.64601 
L 424.666329 102.087285 
L 421.107604 98.52856 
L 417.548879 102.087285 
L 413.990154 98.52856 
L 410.431429 102.087285 
L 413.990154 105.64601 
L 410.431429 109.204735 
z
" style="fill:#21918c;stroke:#444444;"/>
    <path clip-path="url(#peba6c883a8)" d="M 415.563695 130.719083 
L 419.171078 127.1117 
L 422.77846 130.719083 
L 426.385843 127.1117 
L 422.77846 123.504318 
L 426.385843 119.896935 
L 422.77846 116.289552 
L 419.171078 119.896935 
L 415.563695 116.289552 
L 411.956313 119.896935 
L 415.563695 123.504318 
L 411.956313 127.1117 
z
" style="fill:#21918c;stroke:#444444;"/>
    <path clip-path="url(#peba6c883a8)" d="M 417.137237 95.099783 
L 420.793277 91.443743 
L 424.449317 95.099783 
L 428.105358 91.443743 
L 424.449317 87.787703 
L 428.105358 84.131662 
L 424.449317 80.475622 
L 420.793277 84.131662 
L 417.137237 80.475622 
L 413.481196 84.131662 
L 417.137237 87.787703 
L 413.481196 91.443743 
z
" style="fill:#21918c;stroke:#444444;"/>
    <path clip-path="url(#peba6c883a8)" d="M 418.710778 115.802838 
L 422.415476 112.09814 
L 426.120174 115.802838 
L 429.824872 112.09814 
L 426.120174 108.393442 
L 429.824872 104.688744 
L 426.120174 100.984046 
L 422.415476 104.688744 
L 418.710778 100.984046 
L 415.00608 104.688744 
L 418.710778 108.393442 
L 415.00608 112.09814 
z
" style="fill:#21918c;stroke:#444444;"/>
    <path clip-path="url(#peba6c883a8)" d="M 420.284319 102.162994 
L 424.037675 98.409638 
L 427.791031 102.162994 
L 431.544387 98.409638 
L 427.791031 94.656282 
L 431.544387 90.902927 
L 427.791031 87.149571 
L 424.037675 90.902927 
L 420.284319 87.149571 
L 416.530964 90.902927 
L 420.284319 94.656282 
L 416.530964 98.409638 
z
" style="fill:#21918c;stroke:#444444;"/>
    <path clip-path="url(#peba6c883a8)" d="M 421.857861 107.755173 
L 425.659874 103.95316 
L 429.461888 107.755173 
L 433.263901 103.95316 
L 429.461888 100.151146 
L 433.263901 96.349133 
L 429.461888 92.547119 
L 425.659874 96.349133 
L 421.857861 92.547119 
L 418.055847 96.349133 
L 421.857861 100.151146 
L 418.055847 103.95316 
z
" style="fill:#21918c;stroke:#444444;"/>
    <path clip-path="url(#peba6c883a8)" d="M 423.431402 106.478773 
L 427.282073 102.628101 
L 431.132744 106.478773 
L 434.983416 102.628101 
L 431.132744 98.77743 
L 434.983416 94.926759 
L 431.132744 91.076088 
L 427.282073 94.926759 
L 423.431402 91.076088 
L 419.580731 94.926759 
L 423.431402 98.77743 
L 419.580731 102.628101 
z
" style="fill:#21918c;stroke:#444444;"/>
    <path clip-path="url(#peba6c883a8)" d="M 425.004943 99.707508 
L 428.904272 95.808179 
L 432.803601 99.707508 
L 436.70293 95.808179 
L 432.803601 91.908851 
L 436.70293 88.009522 
L 432.803601 84.110193 
L 428.904272 88.009522 
L 425.004943 84.110193 
L 421.105615 88.009522 
L 425.004943 91.908851 
L 421.105615 95.808179 
z
" style="fill:#21918c;stroke:#444444;"/>
    <path clip-path="url(#peba6c883a8)" d="M 426.578485 94.30996 
L 430.526471 90.361973 
L 434.474458 94.30996 
L 438.422445 90.361973 
L 434.474458 86.413987 
L 438.422445 82.466 
L 434.474458 78.518014 
L 430.526471 82.466 
L 426.578485 78.518014 
L 422.630498 82.466 
L 426.578485 86.413987 
L 422.630498 90.361973 
z
" style="fill:#21918c;stroke:#444444;"/>
    <path clip-path="url(#peba6c883a8)" d="M 428.152026 86.16498 
L 432.14867 82.168335 
L 436.145315 86.16498 
L 440.141959 82.168335 
L 436.145315 78.171691 
L 440.141959 74.175047 
L 436.145315 70.178402 
L 432.14867 74.175047 
L 428.152026 70.178402 
L 424.155382 74.175047 
L 428.152026 78.171691 
L 424.155382 82.168335 
z
" style="fill:#21918c;stroke:#444444;"/>
    <path clip-path="url(#peba6c883a8)" d="M 429.725567 106.868034 
L 433.77087 102.822732 
L 437.816172 106.868034 
L 441.861474 102.822732 
L 437.816172 98.77743 
L 441.861474 94.732128 
L 437.816172 90.686826 
L 433.77087 94.732128 
L 429.725567 90.686826 
L 425.680265 94.732128 
L 429.725567 98.77743 
L 425.680265 102.822732 
z
" style="fill:#21918c;stroke:#444444;"/>
    <path clip-path="url(#peba6c883a8)" d="M 431.299109 135.813385 
L 435.393069 131.719425 
L 439.487028 135.813385 
L 443.580988 131.719425 
L 439.487028 127.625465 
L 443.580988 123.531506 
L 439.487028 119.437546 
L 435.393069 123.531506 
L 431.299109 119.437546 
L 427.205149 123.531506 
L 431.299109 127.625465 
L 427.205149 131.719425 
z
" style="fill:#21918c;stroke:#444444;"/>
    <path clip-path="url(#peba6c883a8)" d="M 432.87265 135.9107 
L 437.015268 131.768083 
L 441.157885 135.9107 
L 445.300503 131.768083 
L 441.157885 127.625465 
L 445.300503 123.482848 
L 441.157885 119.34023 
L 437.015268 123.482848 
L 432.87265 119.34023 
L 428.730033 123.482848 
L 432.87265 127.625465 
L 428.730033 131.768083 
z
" style="fill:#21918c;stroke:#444444;"/>
    <path clip-path="url(#peba6c883a8)" d="M 434.446192 138.755448 
L 438.637467 134.564172 
L 442.828742 138.755448 
L 447.020017 134.564172 
L 442.828742 130.372897 
L 447.020017 126.181622 
L 442.828742 121.990347 
L 438.637467 126.181622 
L 434.446192 121.990347 
L 430.254916 126.181622 
L 434.446192 130.372897 
L 430.254916 134.564172 
z
" style="fill:#21918c;stroke:#444444;"/>
    <path clip-path="url(#peba6c883a8)" d="M 436.019733 125.115604 
L 440.259666 120.875671 
L 444.499599 125.115604 
L 448.739532 120.875671 
L 444.499599 116.635738 
L 448.739532 112.395805 
L 444.499599 108.155872 
L 440.259666 112.395805 
L 436.019733 108.155872 
L 431.7798 112.395805 
L 436.019733 116.635738 
L 431.7798 120.875671 
z
" style="fill:#21918c;stroke:#444444;"/>
    <path clip-path="url(#peba6c883a8)" d="M 437.593274 100.486032 
L 441.881865 96.197441 
L 446.170455 100.486032 
L 450.459046 96.197441 
L 446.170455 91.908851 
L 450.459046 87.62026 
L 446.170455 83.331669 
L 441.881865 87.62026 
L 437.593274 83.331669 
L 433.304684 87.62026 
L 437.593274 91.908851 
L 433.304684 96.197441 
z
" style="fill:#21918c;stroke:#444444;"/>
    <path clip-path="url(#peba6c883a8)" d="M 439.166816 114.320507 
L 443.504064 109.983258 
L 447.841312 114.320507 
L 452.178561 109.983258 
L 447.841312 105.64601 
L 452.178561 101.308762 
L 447.841312 96.971513 
L 443.504064 101.308762 
L 439.166816 96.971513 
L 434.829567 101.308762 
L 439.166816 105.64601 
L 434.829567 109.983258 
z
" style="fill:#21918c;stroke:#444444;"/>
    <path clip-path="url(#peba6c883a8)" d="M 440.740357 99.306947 
L 445.126263 94.921041 
L 449.512169 99.306947 
L 453.898075 94.921041 
L 449.512169 90.535135 
L 453.898075 86.149229 
L 449.512169 81.763323 
L 445.126263 86.149229 
L 440.740357 81.763323 
L 436.354451 86.149229 
L 440.740357 90.535135 
L 436.354451 94.921041 
z
" style="fill:#21918c;stroke:#444444;"/>
    <path clip-path="url(#peba6c883a8)" d="M 442.313898 92.535682 
L 446.748462 88.101119 
L 451.183026 92.535682 
L 455.61759 88.101119 
L 451.183026 83.666555 
L 455.61759 79.231991 
L 451.183026 74.797427 
L 446.748462 79.231991 
L 442.313898 74.797427 
L 437.879335 79.231991 
L 442.313898 83.666555 
L 437.879335 88.101119 
z
" style="fill:#21918c;stroke:#444444;"/>
    <path clip-path="url(#peba6c883a8)" d="M 443.88744 115.986169 
L 448.370661 111.502948 
L 452.853883 115.986169 
L 457.337104 111.502948 
L 452.853883 107.019726 
L 457.337104 102.536505 
L 452.853883 98.053283 
L 448.370661 102.536505 
L 443.88744 98.053283 
L 439.404218 102.536505 
L 443.88744 107.019726 
L 439.404218 111.502948 
z
" style="fill:#21918c;stroke:#444444;"/>
    <path clip-path="url(#peba6c883a8)" d="M 445.460981 120.204632 
L 449.99286 115.672753 
L 454.524739 120.204632 
L 459.056619 115.672753 
L 454.524739 111.140874 
L 459.056619 106.608995 
L 454.524739 102.077116 
L 449.99286 106.608995 
L 445.460981 102.077116 
L 440.929102 106.608995 
L 445.460981 111.140874 
L 440.929102 115.672753 
z
" style="fill:#21918c;stroke:#444444;"/>
    <path clip-path="url(#peba6c883a8)" d="M 447.034522 129.917959 
L 451.615059 125.337423 
L 456.195596 129.917959 
L 460.776133 125.337423 
L 456.195596 120.756886 
L 460.776133 116.176349 
L 456.195596 111.595812 
L 451.615059 116.176349 
L 447.034522 111.595812 
L 442.453985 116.176349 
L 447.034522 120.756886 
L 442.453985 125.337423 
z
" style="fill:#21918c;stroke:#444444;"/>
    <path clip-path="url(#peba6c883a8)" d="M 448.608064 124.520411 
L 453.237258 119.891216 
L 457.866453 124.520411 
L 462.495648 119.891216 
L 457.866453 115.262022 
L 462.495648 110.632827 
L 457.866453 106.003633 
L 453.237258 110.632827 
L 448.608064 106.003633 
L 443.978869 110.632827 
L 448.608064 115.262022 
L 443.978869 119.891216 
z
" style="fill:#21918c;stroke:#444444;"/>
    <path clip-path="url(#peba6c883a8)" d="M 450.181605 105.385703 
L 454.859457 100.707851 
L 459.53731 105.385703 
L 464.215162 100.707851 
L 459.53731 96.029998 
L 464.215162 91.352146 
L 459.53731 86.674294 
L 454.859457 91.352146 
L 450.181605 86.674294 
L 445.503753 91.352146 
L 450.181605 96.029998 
L 445.503753 100.707851 
z
" style="fill:#21918c;stroke:#444444;"/>
    <path clip-path="url(#peba6c883a8)" d="M 451.755146 126.088758 
L 456.481656 121.362248 
L 461.208167 126.088758 
L 465.934677 121.362248 
L 461.208167 116.635738 
L 465.934677 111.909228 
L 461.208167 107.182718 
L 456.481656 111.909228 
L 451.755146 107.182718 
L 447.028636 111.909228 
L 451.755146 116.635738 
L 447.028636 121.362248 
z
" style="fill:#21918c;stroke:#444444;"/>
    <path clip-path="url(#peba6c883a8)" d="M 453.328688 153.660392 
L 458.103856 148.885225 
L 462.879023 153.660392 
L 467.654191 148.885225 
L 462.879023 144.110057 
L 467.654191 139.334889 
L 462.879023 134.559721 
L 458.103856 139.334889 
L 453.328688 134.559721 
L 448.55352 139.334889 
L 453.328688 144.110057 
L 448.55352 148.885225 
z
" style="fill:#21918c;stroke:#444444;"/>
    <path clip-path="url(#peba6c883a8)" d="M 454.902229 123.535957 
L 459.726055 118.712131 
L 464.54988 123.535957 
L 469.373706 118.712131 
L 464.54988 113.888306 
L 469.373706 109.06448 
L 464.54988 104.240655 
L 459.726055 109.06448 
L 454.902229 104.240655 
L 450.078404 109.06448 
L 454.902229 113.888306 
L 450.078404 118.712131 
z
" style="fill:#21918c;stroke:#444444;"/>
    <path clip-path="url(#peba6c883a8)" d="M 456.47577 119.512124 
L 461.348254 114.639641 
L 466.220737 119.512124 
L 471.09322 114.639641 
L 466.220737 109.767158 
L 471.09322 104.894675 
L 466.220737 100.022192 
L 461.348254 104.894675 
L 456.47577 100.022192 
L 451.603287 104.894675 
L 456.47577 109.767158 
L 451.603287 114.639641 
z
" style="fill:#21918c;stroke:#444444;"/>
    <path clip-path="url(#peba6c883a8)" d="M 458.049312 119.60944 
L 462.970453 114.688299 
L 467.891594 119.60944 
L 472.812735 114.688299 
L 467.891594 109.767158 
L 472.812735 104.846017 
L 467.891594 99.924876 
L 462.970453 104.846017 
L 458.049312 99.924876 
L 453.128171 104.846017 
L 458.049312 109.767158 
L 453.128171 114.688299 
z
" style="fill:#21918c;stroke:#444444;"/>
    <path clip-path="url(#peba6c883a8)" d="M 459.622853 111.46446 
L 464.592652 106.494661 
L 469.56245 111.46446 
L 474.532249 106.494661 
L 469.56245 101.524862 
L 474.532249 96.555064 
L 469.56245 91.585265 
L 464.592652 96.555064 
L 459.622853 91.585265 
L 454.653054 96.555064 
L 459.622853 101.524862 
L 454.653054 106.494661 
z
" style="fill:#21918c;stroke:#444444;"/>
    <path clip-path="url(#peba6c883a8)" d="M 461.196394 152.773254 
L 466.214851 147.754797 
L 471.233307 152.773254 
L 476.251764 147.754797 
L 471.233307 142.736341 
L 476.251764 137.717885 
L 471.233307 132.699428 
L 466.214851 137.717885 
L 461.196394 132.699428 
L 456.177938 137.717885 
L 461.196394 142.736341 
L 456.177938 147.754797 
z
" style="fill:#21918c;stroke:#444444;"/>
    <path clip-path="url(#peba6c883a8)" d="M 462.769936 122.648818 
L 467.83705 117.581704 
L 472.904164 122.648818 
L 477.971278 117.581704 
L 472.904164 112.51459 
L 477.971278 107.447476 
L 472.904164 102.380362 
L 467.83705 107.447476 
L 462.769936 102.380362 
L 457.702822 107.447476 
L 462.769936 112.51459 
L 457.702822 117.581704 
z
" style="fill:#21918c;stroke:#444444;"/>
    <path clip-path="url(#peba6c883a8)" d="M 464.343477 65.050063 
L 469.459249 59.934292 
L 474.575021 65.050063 
L 479.690793 59.934292 
L 474.575021 54.81852 
L 479.690793 49.702748 
L 474.575021 44.586976 
L 469.459249 49.702748 
L 464.343477 44.586976 
L 459.227705 49.702748 
L 464.343477 54.81852 
L 459.227705 59.934292 
z
" style="fill:#fde725;stroke:#444444;"/>
    <path clip-path="url(#peba6c883a8)" d="M 465.917019 100.863994 
L 471.081448 95.699564 
L 476.245878 100.863994 
L 481.410307 95.699564 
L 476.245878 90.535135 
L 481.410307 85.370705 
L 476.245878 80.206276 
L 471.081448 85.370705 
L 465.917019 80.206276 
L 460.752589 85.370705 
L 465.917019 90.535135 
L 460.752589 95.699564 
z
" style="fill:#fde725;stroke:#444444;"/>
    <path clip-path="url(#peba6c883a8)" d="M 467.49056 65.244694 
L 472.703647 60.031607 
L 477.916734 65.244694 
L 483.129822 60.031607 
L 477.916734 54.81852 
L 483.129822 49.605432 
L 477.916734 44.392345 
L 472.703647 49.605432 
L 467.49056 44.392345 
L 462.277473 49.605432 
L 467.49056 54.81852 
L 462.277473 60.031607 
z
" style="fill:#fde725;stroke:#444444;"/>
    <path clip-path="url(#peba6c883a8)" d="M 469.064101 85.947749 
L 474.325846 80.686004 
L 479.587591 85.947749 
L 484.849336 80.686004 
L 479.587591 75.424259 
L 484.849336 70.162514 
L 479.587591 64.900769 
L 474.325846 70.162514 
L 469.064101 64.900769 
L 463.802356 70.162514 
L 469.064101 75.424259 
L 463.802356 80.686004 
z
" style="fill:#fde725;stroke:#444444;"/>
    <path clip-path="url(#peba6c883a8)" d="M 470.637643 73.681621 
L 475.948045 68.371218 
L 481.258448 73.681621 
L 486.568851 68.371218 
L 481.258448 63.060815 
L 486.568851 57.750413 
L 481.258448 52.44001 
L 475.948045 57.750413 
L 470.637643 52.44001 
L 465.32724 57.750413 
L 470.637643 63.060815 
L 465.32724 68.371218 
z
" style="fill:#fde725;stroke:#444444;"/>
    <path clip-path="url(#peba6c883a8)" d="M 472.211184 49.052049 
L 477.570244 43.692989 
L 482.929305 49.052049 
L 488.288365 43.692989 
L 482.929305 38.333928 
L 488.288365 32.974868 
L 482.929305 27.615807 
L 477.570244 32.974868 
L 472.211184 27.615807 
L 466.852123 32.974868 
L 472.211184 38.333928 
L 466.852123 43.692989 
z
" style="fill:#fde725;stroke:#444444;"/>
    <path clip-path="url(#peba6c883a8)" d="M 473.784725 127.451174 
L 479.192443 122.043456 
L 484.600161 127.451174 
L 490.00788 122.043456 
L 484.600161 116.635738 
L 490.00788 111.22802 
L 484.600161 105.820302 
L 479.192443 111.22802 
L 473.784725 105.820302 
L 468.377007 111.22802 
L 473.784725 116.635738 
L 468.377007 122.043456 
z
" style="fill:#fde725;stroke:#444444;"/>
    <path clip-path="url(#peba6c883a8)" d="M 475.358267 62.983839 
L 480.814642 57.527464 
L 486.271018 62.983839 
L 491.727394 57.527464 
L 486.271018 52.071088 
L 491.727394 46.614712 
L 486.271018 41.158336 
L 480.814642 46.614712 
L 475.358267 41.158336 
L 469.901891 46.614712 
L 475.358267 52.071088 
L 469.901891 57.527464 
z
" style="fill:#fde725;stroke:#444444;"/>
    <path clip-path="url(#peba6c883a8)" d="M 476.931808 83.686894 
L 482.436842 78.181861 
L 487.941875 83.686894 
L 493.446909 78.181861 
L 487.941875 72.676827 
L 493.446909 67.171794 
L 487.941875 61.66676 
L 482.436842 67.171794 
L 476.931808 61.66676 
L 471.426774 67.171794 
L 476.931808 72.676827 
L 471.426774 78.181861 
z
" style="fill:#fde725;stroke:#444444;"/>
    <path clip-path="url(#peba6c883a8)" d="M 478.505349 48.067595 
L 484.059041 42.513904 
L 489.612732 48.067595 
L 495.166423 42.513904 
L 489.612732 36.960212 
L 495.166423 31.406521 
L 489.612732 25.85283 
L 484.059041 31.406521 
L 478.505349 25.85283 
L 472.951658 31.406521 
L 478.505349 36.960212 
L 472.951658 42.513904 
z
" style="fill:#fde725;stroke:#444444;"/>
    <path clip-path="url(#peba6c883a8)" d="M 480.078891 83.881525 
L 485.68124 78.279176 
L 491.283589 83.881525 
L 496.885938 78.279176 
L 491.283589 72.676827 
L 496.885938 67.074478 
L 491.283589 61.472129 
L 485.68124 67.074478 
L 480.078891 61.472129 
L 474.476542 67.074478 
L 480.078891 72.676827 
L 474.476542 78.279176 
z
" style="fill:#fde725;stroke:#444444;"/>
    <path clip-path="url(#peba6c883a8)" d="M 481.652432 90.84742 
L 487.303439 85.196414 
L 492.954445 90.84742 
L 498.605452 85.196414 
L 492.954445 79.545407 
L 498.605452 73.8944 
L 492.954445 68.243394 
L 487.303439 73.8944 
L 481.652432 68.243394 
L 476.001425 73.8944 
L 481.652432 79.545407 
L 476.001425 85.196414 
z
" style="fill:#fde725;stroke:#444444;"/>
    <path clip-path="url(#peba6c883a8)" d="M 483.225973 75.83386 
L 488.925638 70.134196 
L 494.625302 75.83386 
L 500.324967 70.134196 
L 494.625302 64.434531 
L 500.324967 58.734867 
L 494.625302 53.035203 
L 488.925638 58.734867 
L 483.225973 53.035203 
L 477.526309 58.734867 
L 483.225973 64.434531 
L 477.526309 70.134196 
z
" style="fill:#fde725;stroke:#444444;"/>
    <path clip-path="url(#peba6c883a8)" d="M 484.799515 106.152927 
L 490.547837 100.404605 
L 496.296159 106.152927 
L 502.044481 100.404605 
L 496.296159 94.656282 
L 502.044481 88.90796 
L 496.296159 83.159638 
L 490.547837 88.90796 
L 484.799515 83.159638 
L 479.051193 88.90796 
L 484.799515 94.656282 
L 479.051193 100.404605 
z
" style="fill:#fde725;stroke:#444444;"/>
    <path clip-path="url(#peba6c883a8)" d="M 486.373056 93.886799 
L 492.170036 88.089819 
L 497.967016 93.886799 
L 503.763996 88.089819 
L 497.967016 82.292839 
L 503.763996 76.495859 
L 497.967016 70.698879 
L 492.170036 76.495859 
L 486.373056 70.698879 
L 480.576076 76.495859 
L 486.373056 82.292839 
L 480.576076 88.089819 
z
" style="fill:#fde725;stroke:#444444;"/>
    <path clip-path="url(#peba6c883a8)" d="M 487.946597 78.873239 
L 493.792235 73.027601 
L 499.637873 78.873239 
L 505.48351 73.027601 
L 499.637873 67.181963 
L 505.48351 61.336326 
L 499.637873 55.490688 
L 493.792235 61.336326 
L 487.946597 55.490688 
L 482.10096 61.336326 
L 487.946597 67.181963 
L 482.10096 73.027601 
z
" style="fill:#fde725;stroke:#444444;"/>
    <path clip-path="url(#peba6c883a8)" d="M 489.520139 84.465418 
L 495.414434 78.571122 
L 501.308729 84.465418 
L 507.203025 78.571122 
L 501.308729 72.676827 
L 507.203025 66.782532 
L 501.308729 60.888237 
L 495.414434 66.782532 
L 489.520139 60.888237 
L 483.625843 66.782532 
L 489.520139 72.676827 
L 483.625843 78.571122 
z
" style="fill:#fde725;stroke:#444444;"/>
    <path clip-path="url(#peba6c883a8)" d="M 491.09368 35.108959 
L 497.036633 29.166006 
L 502.979586 35.108959 
L 508.922539 29.166006 
L 502.979586 23.223053 
L 508.922539 17.2801 
L 502.979586 11.337147 
L 497.036633 17.2801 
L 491.09368 11.337147 
L 485.150727 17.2801 
L 491.09368 23.223053 
L 485.150727 29.166006 
z
" style="fill:#fde725;stroke:#444444;"/>
    <path clip-path="url(#peba6c883a8)" d="M 492.667221 47.569718 
L 498.658832 41.578107 
L 504.650443 47.569718 
L 510.642054 41.578107 
L 504.650443 35.586496 
L 510.642054 29.594886 
L 504.650443 23.603275 
L 498.658832 29.594886 
L 492.667221 23.603275 
L 486.675611 29.594886 
L 492.667221 35.586496 
L 486.675611 41.578107 
z
" style="fill:#fde725;stroke:#444444;"/>
    <path clip-path="url(#peba6c883a8)" d="M 494.240763 113.605399 
L 500.281031 107.565131 
L 506.3213 113.605399 
L 512.361568 107.565131 
L 506.3213 101.524862 
L 512.361568 95.484594 
L 506.3213 89.444325 
L 500.281031 95.484594 
L 494.240763 89.444325 
L 488.200494 95.484594 
L 494.240763 101.524862 
L 488.200494 107.565131 
z
" style="fill:#fde725;stroke:#444444;"/>
    <path clip-path="url(#peba6c883a8)" d="M 495.814304 66.996372 
L 501.90323 60.907446 
L 507.992156 66.996372 
L 514.081083 60.907446 
L 507.992156 54.81852 
L 514.081083 48.729594 
L 507.992156 42.640667 
L 501.90323 48.729594 
L 495.814304 42.640667 
L 489.725378 48.729594 
L 495.814304 54.81852 
L 489.725378 60.907446 
z
" style="fill:#fde725;stroke:#444444;"/>
    <path clip-path="url(#peba6c883a8)" d="M 497.387845 105.557734 
L 503.525429 99.42015 
L 509.663013 105.557734 
L 515.800597 99.42015 
L 509.663013 93.282566 
L 515.800597 87.144983 
L 509.663013 81.007399 
L 503.525429 87.144983 
L 497.387845 81.007399 
L 491.250262 87.144983 
L 497.387845 93.282566 
L 491.250262 99.42015 
z
" style="fill:#fde725;stroke:#444444;"/>
    <path clip-path="url(#peba6c883a8)" d="M 498.961387 52.080127 
L 505.147628 45.893886 
L 511.33387 52.080127 
L 517.520112 45.893886 
L 511.33387 39.707644 
L 517.520112 33.521403 
L 511.33387 27.335161 
L 505.147628 33.521403 
L 498.961387 27.335161 
L 492.775145 33.521403 
L 498.961387 39.707644 
L 492.775145 45.893886 
z
" style="fill:#fde725;stroke:#444444;"/>
    <path clip-path="url(#peba6c883a8)" d="M 500.534928 100.257501 
L 506.769827 94.022602 
L 513.004727 100.257501 
L 519.239626 94.022602 
L 513.004727 87.787703 
L 519.239626 81.552803 
L 513.004727 75.317904 
L 506.769827 81.552803 
L 500.534928 75.317904 
L 494.300029 81.552803 
L 500.534928 87.787703 
L 494.300029 94.022602 
z
" style="fill:#fde725;stroke:#444444;"/>
    <path clip-path="url(#peba6c883a8)" d="M 502.10847 71.506782 
L 508.392027 65.223225 
L 514.675584 71.506782 
L 520.959141 65.223225 
L 514.675584 58.939668 
L 520.959141 52.656111 
L 514.675584 46.372554 
L 508.392027 52.656111 
L 502.10847 46.372554 
L 495.824912 52.656111 
L 502.10847 58.939668 
L 495.824912 65.223225 
z
" style="fill:#fde725;stroke:#444444;"/>
    <path clip-path="url(#peba6c883a8)" d="M 503.682011 66.109233 
L 510.014226 59.777019 
L 516.34644 66.109233 
L 522.678655 59.777019 
L 516.34644 53.444804 
L 522.678655 47.112589 
L 516.34644 40.780374 
L 510.014226 47.112589 
L 503.682011 40.780374 
L 497.349796 47.112589 
L 503.682011 53.444804 
L 497.349796 59.777019 
z
" style="fill:#fde725;stroke:#444444;"/>
    <path clip-path="url(#peba6c883a8)" d="M 505.255552 101.923164 
L 511.636425 95.542291 
L 518.017297 101.923164 
L 524.39817 95.542291 
L 518.017297 89.161419 
L 524.39817 82.780546 
L 518.017297 76.399674 
L 511.636425 82.780546 
L 505.255552 76.399674 
L 498.87468 82.780546 
L 505.255552 89.161419 
L 498.87468 95.542291 
z
" style="fill:#fde725;stroke:#444444;"/>
    <path clip-path="url(#peba6c883a8)" d="M 506.829094 99.273047 
L 513.258624 92.843517 
L 519.688154 99.273047 
L 526.117684 92.843517 
L 519.688154 86.413987 
L 526.117684 79.984457 
L 519.688154 73.554926 
L 513.258624 79.984457 
L 506.829094 73.554926 
L 500.399563 79.984457 
L 506.829094 86.413987 
L 500.399563 92.843517 
z
" style="fill:#fde725;stroke:#444444;"/>
    <path clip-path="url(#peba6c883a8)" d="M 508.402635 84.259487 
L 514.880823 77.781299 
L 521.359011 84.259487 
L 527.837199 77.781299 
L 521.359011 71.303111 
L 527.837199 64.824923 
L 521.359011 58.346735 
L 514.880823 64.824923 
L 508.402635 58.346735 
L 501.924447 64.824923 
L 508.402635 71.303111 
L 501.924447 77.781299 
z
" style="fill:#fde725;stroke:#444444;"/>
    <path clip-path="url(#peba6c883a8)" d="M 509.976176 74.740791 
L 516.503022 68.213945 
L 523.029868 74.740791 
L 529.556713 68.213945 
L 523.029868 61.6871 
L 529.556713 55.160254 
L 523.029868 48.633408 
L 516.503022 55.160254 
L 509.976176 48.633408 
L 503.449331 55.160254 
L 509.976176 61.6871 
L 503.449331 68.213945 
z
" style="fill:#fde725;stroke:#444444;"/>
    <path clip-path="url(#peba6c883a8)" d="M 511.549718 66.59581 
L 518.125221 60.020307 
L 524.700724 66.59581 
L 531.276228 60.020307 
L 524.700724 53.444804 
L 531.276228 46.8693 
L 524.700724 40.293797 
L 518.125221 46.8693 
L 511.549718 40.293797 
L 504.974214 46.8693 
L 511.549718 53.444804 
L 504.974214 60.020307 
z
" style="fill:#fde725;stroke:#444444;"/>
    <path clip-path="url(#peba6c883a8)" d="M 513.123259 40.592523 
L 519.74742 33.968362 
L 526.371581 40.592523 
L 532.995742 33.968362 
L 526.371581 27.344201 
L 532.995742 20.72004 
L 526.371581 14.095878 
L 519.74742 20.72004 
L 513.123259 14.095878 
L 506.499098 20.72004 
L 513.123259 27.344201 
L 506.499098 33.968362 
z
" style="fill:#fde725;stroke:#444444;"/>
    <path clip-path="url(#peba6c883a8)" d="M 514.6968 83.275033 
L 521.369619 76.602214 
L 528.042438 83.275033 
L 534.715257 76.602214 
L 528.042438 69.929395 
L 534.715257 63.256576 
L 528.042438 56.583758 
L 521.369619 63.256576 
L 514.6968 56.583758 
L 508.023982 63.256576 
L 514.6968 69.929395 
L 508.023982 76.602214 
z
" style="fill:#fde725;stroke:#444444;"/>
    <path clip-path="url(#peba6c883a8)" d="M 516.270342 101.230656 
L 522.991818 94.509179 
L 529.713295 101.230656 
L 536.434771 94.509179 
L 529.713295 87.787703 
L 536.434771 81.066226 
L 529.713295 74.34475 
L 522.991818 81.066226 
L 516.270342 74.34475 
L 509.548865 81.066226 
L 516.270342 87.787703 
L 509.548865 94.509179 
z
" style="fill:#fde725;stroke:#444444;"/>
    <path clip-path="url(#peba6c883a8)" d="M 517.843883 101.327971 
L 524.614017 94.557837 
L 531.384151 101.327971 
L 538.154286 94.557837 
L 531.384151 87.787703 
L 538.154286 81.017568 
L 531.384151 74.247434 
L 524.614017 81.017568 
L 517.843883 74.247434 
L 511.073749 81.017568 
L 517.843883 87.787703 
L 511.073749 94.557837 
z
" style="fill:#fde725;stroke:#444444;"/>
    <path clip-path="url(#peba6c883a8)" d="M 519.417424 54.718944 
L 526.236216 47.900152 
L 533.055008 54.718944 
L 539.8738 47.900152 
L 533.055008 41.08136 
L 539.8738 34.262568 
L 533.055008 27.443776 
L 526.236216 34.262568 
L 519.417424 27.443776 
L 512.598632 34.262568 
L 519.417424 41.08136 
L 512.598632 47.900152 
z
" style="fill:#fde725;stroke:#444444;"/>
    <path clip-path="url(#peba6c883a8)" d="M 520.990966 74.048283 
L 527.858415 67.180833 
L 534.725865 74.048283 
L 541.593315 67.180833 
L 534.725865 60.313384 
L 541.593315 53.445934 
L 534.725865 46.578484 
L 527.858415 53.445934 
L 520.990966 46.578484 
L 514.123516 53.445934 
L 520.990966 60.313384 
L 514.123516 67.180833 
z
" style="fill:#fde725;stroke:#444444;"/>
    <path clip-path="url(#peba6c883a8)" d="M 522.564507 86.509042 
L 529.480614 79.592935 
L 536.396722 86.509042 
L 543.312829 79.592935 
L 536.396722 72.676827 
L 543.312829 65.76072 
L 536.396722 58.844612 
L 529.480614 65.76072 
L 522.564507 58.844612 
L 515.6484 65.76072 
L 522.564507 72.676827 
L 515.6484 79.592935 
z
" style="fill:#fde725;stroke:#444444;"/>
    <path clip-path="url(#peba6c883a8)" d="M 524.138048 103.090949 
L 531.102813 96.126184 
L 538.067579 103.090949 
L 545.032344 96.126184 
L 538.067579 89.161419 
L 545.032344 82.196654 
L 538.067579 75.231888 
L 531.102813 82.196654 
L 524.138048 75.231888 
L 517.173283 82.196654 
L 524.138048 89.161419 
L 517.173283 96.126184 
z
" style="fill:#fde725;stroke:#444444;"/>
    <path clip-path="url(#peba6c883a8)" d="M 525.71159 77.087661 
L 532.725013 70.074238 
L 539.738435 77.087661 
L 546.751858 70.074238 
L 539.738435 63.060815 
L 546.751858 56.047393 
L 539.738435 49.03397 
L 532.725013 56.047393 
L 525.71159 49.03397 
L 518.698167 56.047393 
L 525.71159 63.060815 
L 518.698167 70.074238 
z
" style="fill:#fde725;stroke:#444444;"/>
    <path clip-path="url(#peba6c883a8)" d="M 527.285131 73.063829 
L 534.347212 66.001748 
L 541.409292 73.063829 
L 548.471373 66.001748 
L 541.409292 58.939668 
L 548.471373 51.877587 
L 541.409292 44.815507 
L 534.347212 51.877587 
L 527.285131 44.815507 
L 520.223051 51.877587 
L 527.285131 58.939668 
L 520.223051 66.001748 
z
" style="fill:#fde725;stroke:#444444;"/>
    <path clip-path="url(#peba6c883a8)" d="M 528.858672 78.656008 
L 535.969411 71.54527 
L 543.080149 78.656008 
L 550.190887 71.54527 
L 543.080149 64.434531 
L 550.190887 57.323793 
L 543.080149 50.213055 
L 535.969411 57.323793 
L 528.858672 50.213055 
L 521.747934 57.323793 
L 528.858672 64.434531 
L 521.747934 71.54527 
z
" style="fill:#fde725;stroke:#444444;"/>
    <path clip-path="url(#peba6c883a8)" d="M 530.432214 104.853927 
L 537.59161 97.694531 
L 544.751006 104.853927 
L 551.910402 97.694531 
L 544.751006 90.535135 
L 551.910402 83.375739 
L 544.751006 76.216343 
L 537.59161 83.375739 
L 530.432214 76.216343 
L 523.272818 83.375739 
L 530.432214 90.535135 
L 523.272818 97.694531 
z
" style="fill:#fde725;stroke:#444444;"/>
    <path clip-path="url(#peba6c883a8)" d="M 532.005755 67.860911 
L 539.213809 60.652857 
L 546.421863 67.860911 
L 553.629916 60.652857 
L 546.421863 53.444804 
L 553.629916 46.23675 
L 546.421863 39.028696 
L 539.213809 46.23675 
L 532.005755 39.028696 
L 524.797701 46.23675 
L 532.005755 53.444804 
L 524.797701 60.652857 
z
" style="fill:#fde725;stroke:#444444;"/>
    <path clip-path="url(#peba6c883a8)" d="M 533.579296 67.958227 
L 540.836008 60.701515 
L 548.092719 67.958227 
L 555.349431 60.701515 
L 548.092719 53.444804 
L 555.349431 46.188092 
L 548.092719 38.931381 
L 540.836008 46.188092 
L 533.579296 38.931381 
L 526.322585 46.188092 
L 533.579296 53.444804 
L 526.322585 60.701515 
z
" style="fill:#fde725;stroke:#444444;"/>
    <path clip-path="url(#peba6c883a8)" d="M 535.152838 81.792702 
L 542.458207 74.487332 
L 549.763576 81.792702 
L 557.068945 74.487332 
L 549.763576 67.181963 
L 557.068945 59.876594 
L 549.763576 52.571225 
L 542.458207 59.876594 
L 535.152838 52.571225 
L 527.847469 59.876594 
L 535.152838 67.181963 
L 527.847469 74.487332 
z
" style="fill:#fde725;stroke:#444444;"/>
    <path clip-path="url(#peba6c883a8)" d="M 536.726379 102.495756 
L 544.080406 95.14173 
L 551.434433 102.495756 
L 558.78846 95.14173 
L 551.434433 87.787703 
L 558.78846 80.433676 
L 551.434433 73.079649 
L 544.080406 80.433676 
L 536.726379 73.079649 
L 529.372352 80.433676 
L 536.726379 87.787703 
L 529.372352 95.14173 
z
" style="fill:#fde725;stroke:#444444;"/>
    <path clip-path="url(#peba6c883a8)" d="M 538.299921 88.855912 
L 545.702605 81.453228 
L 553.10529 88.855912 
L 560.507974 81.453228 
L 553.10529 74.050543 
L 560.507974 66.647859 
L 553.10529 59.245174 
L 545.702605 66.647859 
L 538.299921 59.245174 
L 530.897236 66.647859 
L 538.299921 74.050543 
L 530.897236 81.453228 
z
" style="fill:#fde725;stroke:#444444;"/>
    <path clip-path="url(#peba6c883a8)" d="M 539.873462 80.710932 
L 547.324804 73.25959 
L 554.776146 80.710932 
L 562.227489 73.25959 
L 554.776146 65.808247 
L 562.227489 58.356905 
L 554.776146 50.905563 
L 547.324804 58.356905 
L 539.873462 50.905563 
L 532.42212 58.356905 
L 539.873462 65.808247 
L 532.42212 73.25959 
z
" style="fill:#fde725;stroke:#444444;"/>
    <path clip-path="url(#peba6c883a8)" d="M 541.447003 101.413987 
L 548.947003 93.913987 
L 556.447003 101.413987 
L 563.947003 93.913987 
L 556.447003 86.413987 
L 563.947003 78.913987 
L 556.447003 71.413987 
L 548.947003 78.913987 
L 541.447003 71.413987 
L 533.947003 78.913987 
L 541.447003 86.413987 
L 533.947003 93.913987 
z
" style="fill:#fde725;stroke:#444444;"/>
   </g>
   <g id="matplotlib.axis_3"/>
   <g id="matplotlib.axis_4"/>
   <g id="patch_8">
    <path d="M 295.1 198.1 
L 295.1 10.7 
" style="fill:none;stroke:#000000;stroke-linecap:square;stroke-linejoin:miter;stroke-width:0.8;"/>
   </g>
   <g id="patch_9">
    <path d="M 561.7 198.1 
L 561.7 10.7 
" style="fill:none;stroke:#000000;stroke-linecap:square;stroke-linejoin:miter;stroke-width:0.8;"/>
   </g>
   <g id="patch_10">
    <path d="M 295.1 198.1 
L 561.7 198.1 
" style="fill:none;stroke:#000000;stroke-linecap:square;stroke-linejoin:miter;stroke-width:0.8;"/>
   </g>
   <g id="patch_11">
    <path d="M 295.1 10.7 
L 561.7 10.7 
" style="fill:none;stroke:#000000;stroke-linecap:square;stroke-linejoin:miter;stroke-width:0.8;"/>
   </g>
  </g>
  <g id="axes_3">
   <g id="patch_12">
    <path d="M 579.5 198.1 
L 846.1 198.1 
L 846.1 10.7 
L 579.5 10.7 
z
" style="fill:#ffffff;"/>
   </g>
   <g id="matplotlib.axis_5"/>
   <g id="matplotlib.axis_6"/>
   <g id="LineCollection_1">
    <path clip-path="url(#pd6a97db19d)" d="M 591.618182 188.549964 
L 591.618182 165.211936 
" style="fill:none;stroke:#003847;stroke-width:1.5;"/>
    <path clip-path="url(#pd6a97db19d)" d="M 608.92987 182.939261 
L 608.92987 147.316974 
" style="fill:none;stroke:#003847;stroke-width:1.5;"/>
    <path clip-path="url(#pd6a97db19d)" d="M 626.241558 178.017337 
L 626.241558 162.799414 
" style="fill:none;stroke:#003847;stroke-width:1.5;"/>
    <path clip-path="url(#pd6a97db19d)" d="M 643.553247 183.784611 
L 643.553247 159.416773 
" style="fill:none;stroke:#003847;stroke-width:1.5;"/>
    <path clip-path="url(#pd6a97db19d)" d="M 660.864935 189.581818 
L 660.864935 159.751478 
" style="fill:none;stroke:#003847;stroke-width:1.5;"/>
    <path clip-path="url(#pd6a97db19d)" d="M 678.176623 121.139864 
L 678.176623 66.379074 
" style="fill:none;stroke:#003847;stroke-width:1.5;"/>
    <path clip-path="url(#pd6a97db19d)" d="M 695.488312 127.860688 
L 695.488312 87.251857 
" style="fill:none;stroke:#003847;stroke-width:1.5;"/>
    <path clip-path="url(#pd6a97db19d)" d="M 712.8 105.690373 
L 712.8 71.949373 
" style="fill:none;stroke:#003847;stroke-width:1.5;"/>
    <path clip-path="url(#pd6a97db19d)" d="M 730.111688 122.576855 
L 730.111688 82.997159 
" style="fill:none;stroke:#003847;stroke-width:1.5;"/>
    <path clip-path="url(#pd6a97db19d)" d="M 747.423377 131.747078 
L 747.423377 92.903997 
" style="fill:none;stroke:#003847;stroke-width:1.5;"/>
    <path clip-path="url(#pd6a97db19d)" d="M 764.735065 79.728686 
L 764.735065 19.218182 
" style="fill:none;stroke:#003847;stroke-width:1.5;"/>
    <path clip-path="url(#pd6a97db19d)" d="M 782.046753 84.234699 
L 782.046753 24.250699 
" style="fill:none;stroke:#003847;stroke-width:1.5;"/>
    <path clip-path="url(#pd6a97db19d)" d="M 799.358442 77.629495 
L 799.358442 31.537227 
" style="fill:none;stroke:#003847;stroke-width:1.5;"/>
    <path clip-path="url(#pd6a97db19d)" d="M 816.67013 74.791942 
L 816.67013 23.473603 
" style="fill:none;stroke:#003847;stroke-width:1.5;"/>
    <path clip-path="url(#pd6a97db19d)" d="M 833.981818 72.556977 
L 833.981818 37.972393 
" style="fill:none;stroke:#003847;stroke-width:1.5;"/>
   </g>
   <g id="line2d_2">
    <defs>
     <path d="M 2 0 
L -2 -0 
" id="m2f657a7e02" style="stroke:#003847;"/>
    </defs>
    <g clip-path="url(#pd6a97db19d)">
     <use style="fill:#003847;stroke:#003847;" x="591.618182" xlink:href="#m2f657a7e02" y="188.549964"/>
     <use style="fill:#003847;stroke:#003847;" x="608.92987" xlink:href="#m2f657a7e02" y="182.939261"/>
     <use style="fill:#003847;stroke:#003847;" x="626.241558" xlink:href="#m2f657a7e02" y="178.017337"/>
     <use style="fill:#003847;stroke:#003847;" x="643.553247" xlink:href="#m2f657a7e02" y="183.784611"/>
     <use style="fill:#003847;stroke:#003847;" x="660.864935" xlink:href="#m2f657a7e02" y="189.581818"/>
     <use style="fill:#003847;stroke:#003847;" x="678.176623" xlink:href="#m2f657a7e02" y="121.139864"/>
     <use style="fill:#003847;stroke:#003847;" x="695.488312" xlink:href="#m2f657a7e02" y="127.860688"/>
     <use style="fill:#003847;stroke:#003847;" x="712.8" xlink:href="#m2f657a7e02" y="105.690373"/>
     <use style="fill:#003847;stroke:#003847;" x="730.111688" xlink:href="#m2f657a7e02" y="122.576855"/>
     <use style="fill:#003847;stroke:#003847;" x="747.423377" xlink:href="#m2f657a7e02" y="131.747078"/>
     <use style="fill:#003847;stroke:#003847;" x="764.735065" xlink:href="#m2f657a7e02" y="79.728686"/>
     <use style="fill:#003847;stroke:#003847;" x="782.046753" xlink:href="#m2f657a7e02" y="84.234699"/>
     <use style="fill:#003847;stroke:#003847;" x="799.358442" xlink:href="#m2f657a7e02" y="77.629495"/>
     <use style="fill:#003847;stroke:#003847;" x="816.67013" xlink:href="#m2f657a7e02" y="74.791942"/>
     <use style="fill:#003847;stroke:#003847;" x="833.981818" xlink:href="#m2f657a7e02" y="72.556977"/>
    </g>
   </g>
   <g id="line2d_3">
    <g clip-path="url(#pd6a97db19d)">
     <use style="fill:#003847;stroke:#003847;" x="591.618182" xlink:href="#m2f657a7e02" y="165.211936"/>
     <use style="fill:#003847;stroke:#003847;" x="608.92987" xlink:href="#m2f657a7e02" y="147.316974"/>
     <use style="fill:#003847;stroke:#003847;" x="626.241558" xlink:href="#m2f657a7e02" y="162.799414"/>
     <use style="fill:#003847;stroke:#003847;" x="643.553247" xlink:href="#m2f657a7e02" y="159.416773"/>
     <use style="fill:#003847;stroke:#003847;" x="660.864935" xlink:href="#m2f657a7e02" y="159.751478"/>
     <use style="fill:#003847;stroke:#003847;" x="678.176623" xlink:href="#m2f657a7e02" y="66.379074"/>
     <use style="fill:#003847;stroke:#003847;" x="695.488312" xlink:href="#m2f657a7e02" y="87.251857"/>
     <use style="fill:#003847;stroke:#003847;" x="712.8" xlink:href="#m2f657a7e02" y="71.949373"/>
     <use style="fill:#003847;stroke:#003847;" x="730.111688" xlink:href="#m2f657a7e02" y="82.997159"/>
     <use style="fill:#003847;stroke:#003847;" x="747.423377" xlink:href="#m2f657a7e02" y="92.903997"/>
     <use style="fill:#003847;stroke:#003847;" x="764.735065" xlink:href="#m2f657a7e02" y="19.218182"/>
     <use style="fill:#003847;stroke:#003847;" x="782.046753" xlink:href="#m2f657a7e02" y="24.250699"/>
     <use style="fill:#003847;stroke:#003847;" x="799.358442" xlink:href="#m2f657a7e02" y="31.537227"/>
     <use style="fill:#003847;stroke:#003847;" x="816.67013" xlink:href="#m2f657a7e02" y="23.473603"/>
     <use style="fill:#003847;stroke:#003847;" x="833.981818" xlink:href="#m2f657a7e02" y="37.972393"/>
    </g>
   </g>
   <g id="line2d_4">
    <defs>
     <path d="M -2.5 -4.330127 
L -5 -0 
L -2.5 4.330127 
L 2.5 4.330127 
L 5 0 
L 2.5 -4.330127 
z
" id="mc0af0d0052" style="stroke:#003847;stroke-linejoin:miter;"/>
    </defs>
    <g clip-path="url(#pd6a97db19d)">
     <use style="fill:#23a98c;stroke:#003847;stroke-linejoin:miter;" x="591.618182" xlink:href="#mc0af0d0052" y="176.88095"/>
     <use style="fill:#23a98c;stroke:#003847;stroke-linejoin:miter;" x="608.92987" xlink:href="#mc0af0d0052" y="165.128118"/>
     <use style="fill:#23a98c;stroke:#003847;stroke-linejoin:miter;" x="626.241558" xlink:href="#mc0af0d0052" y="170.408376"/>
     <use style="fill:#23a98c;stroke:#003847;stroke-linejoin:miter;" x="643.553247" xlink:href="#mc0af0d0052" y="171.600692"/>
     <use style="fill:#23a98c;stroke:#003847;stroke-linejoin:miter;" x="660.864935" xlink:href="#mc0af0d0052" y="174.666648"/>
     <use style="fill:#23a98c;stroke:#003847;stroke-linejoin:miter;" x="678.176623" xlink:href="#mc0af0d0052" y="93.759469"/>
     <use style="fill:#23a98c;stroke:#003847;stroke-linejoin:miter;" x="695.488312" xlink:href="#mc0af0d0052" y="107.556272"/>
     <use style="fill:#23a98c;stroke:#003847;stroke-linejoin:miter;" x="712.8" xlink:href="#mc0af0d0052" y="88.819873"/>
     <use style="fill:#23a98c;stroke:#003847;stroke-linejoin:miter;" x="730.111688" xlink:href="#mc0af0d0052" y="102.787007"/>
     <use style="fill:#23a98c;stroke:#003847;stroke-linejoin:miter;" x="747.423377" xlink:href="#mc0af0d0052" y="112.325537"/>
     <use style="fill:#23a98c;stroke:#003847;stroke-linejoin:miter;" x="764.735065" xlink:href="#mc0af0d0052" y="49.473434"/>
     <use style="fill:#23a98c;stroke:#003847;stroke-linejoin:miter;" x="782.046753" xlink:href="#mc0af0d0052" y="54.242699"/>
     <use style="fill:#23a98c;stroke:#003847;stroke-linejoin:miter;" x="799.358442" xlink:href="#mc0af0d0052" y="54.583361"/>
     <use style="fill:#23a98c;stroke:#003847;stroke-linejoin:miter;" x="816.67013" xlink:href="#mc0af0d0052" y="49.132772"/>
     <use style="fill:#23a98c;stroke:#003847;stroke-linejoin:miter;" x="833.981818" xlink:href="#mc0af0d0052" y="55.264685"/>
    </g>
   </g>
   <g id="patch_13">
    <path d="M 579.5 198.1 
L 579.5 10.7 
" style="fill:none;stroke:#000000;stroke-linecap:square;stroke-linejoin:miter;stroke-width:0.8;"/>
   </g>
   <g id="patch_14">
    <path d="M 846.1 198.1 
L 846.1 10.7 
" style="fill:none;stroke:#000000;stroke-linecap:square;stroke-linejoin:miter;stroke-width:0.8;"/>
   </g>
   <g id="patch_15">
    <path d="M 579.5 198.1 
L 846.1 198.1 
" style="fill:none;stroke:#000000;stroke-linecap:square;stroke-linejoin:miter;stroke-width:0.8;"/>
   </g>
   <g id="patch_16">
    <path d="M 579.5 10.7 
L 846.1 10.7 
" style="fill:none;stroke:#000000;stroke-linecap:square;stroke-linejoin:miter;stroke-width:0.8;"/>
   </g>
  </g>
 </g>
 <defs>
  <clipPath id="p9de407196e">
   <rect height="187.4" width="266.6" x="10.7" y="10.7"/>
  </clipPath>
  <clipPath id="peba6c883a8">
   <rect height="187.4" width="266.6" x="295.1" y="10.7"/>
  </clipPath>
  <clipPath id="pd6a97db19d">
   <rect height="187.4" width="266.6" x="579.5" y="10.7"/>
  </clipPath>
 </defs>
</svg>
