<?xml version="1.0" encoding="utf-8" standalone="no"?>
<!DOCTYPE svg PUBLIC "-//W3C//DTD SVG 1.1//EN"
  "http://www.w3.org/Graphics/SVG/1.1/DTD/svg11.dtd">
<!-- Created with matplotlib (https://matplotlib.org/) -->
<svg height="263.63625pt" version="1.1" viewBox="0 0 603.682813 263.63625" width="603.682813pt" xmlns="http://www.w3.org/2000/svg" xmlns:xlink="http://www.w3.org/1999/xlink">
 <defs>
  <style type="text/css">
*{stroke-linecap:butt;stroke-linejoin:round;}
  </style>
 </defs>
 <g id="figure_1">
  <g id="patch_1">
   <path d="M 0 263.63625 
L 603.682813 263.63625 
L 603.682813 0 
L 0 0 
z
" style="fill:#ffffff;"/>
  </g>
  <g id="axes_1">
   <g id="PathCollection_1">
    <defs>
     <path d="M 0.260897 -2.380293 
Q -0.342698 -2.380293 -0.647593 -1.785375 
Q -0.95125 -1.191696 -0.95125 0.001859 
Q -0.95125 1.190457 -0.647593 1.785375 
Q -0.342698 2.380293 0.260897 2.380293 
Q 0.869448 2.380293 1.173105 1.785375 
Q 1.478 1.190457 1.478 0.001859 
Q 1.478 -1.191696 1.173105 -1.785375 
Q 0.869448 -2.380293 0.260897 -2.380293 
z
M 0.260897 -3 
Q 1.233836 -3 1.746953 -2.230324 
Q 2.26007 -1.461888 2.26007 0.001859 
Q 2.26007 1.461888 1.746953 2.231564 
Q 1.233836 3 0.260897 3 
Q -0.710804 3 -1.223921 2.231564 
Q -1.737038 1.461888 -1.737038 0.001859 
Q -1.737038 -1.461888 -1.223921 -2.230324 
Q -0.710804 -3 0.260897 -3 
z
" id="m7353c8326f" style="stroke:#0c6575;"/>
    </defs>
    <g clip-path="url(#p27ce8b148d)">
     <use style="fill:#0c6575;stroke:#0c6575;" x="60.005883" xlink:href="#m7353c8326f" y="111.916365"/>
     <use style="fill:#0c6575;stroke:#0c6575;" x="59.28814" xlink:href="#m7353c8326f" y="148.052587"/>
     <use style="fill:#0c6575;stroke:#0c6575;" x="55.10716" xlink:href="#m7353c8326f" y="145.719318"/>
     <use style="fill:#0c6575;stroke:#0c6575;" x="58.542059" xlink:href="#m7353c8326f" y="158.338612"/>
     <use style="fill:#0c6575;stroke:#0c6575;" x="58.939627" xlink:href="#m7353c8326f" y="111.380779"/>
     <use style="fill:#0c6575;stroke:#0c6575;" x="69.648765" xlink:href="#m7353c8326f" y="81.200976"/>
     <use style="fill:#0c6575;stroke:#0c6575;" x="56.744001" xlink:href="#m7353c8326f" y="141.679966"/>
     <use style="fill:#0c6575;stroke:#0c6575;" x="61.392314" xlink:href="#m7353c8326f" y="123.273561"/>
     <use style="fill:#0c6575;stroke:#0c6575;" x="55.169519" xlink:href="#m7353c8326f" y="177.266711"/>
     <use style="fill:#0c6575;stroke:#0c6575;" x="60.277758" xlink:href="#m7353c8326f" y="143.449865"/>
     <use style="fill:#0c6575;stroke:#0c6575;" x="64.24257" xlink:href="#m7353c8326f" y="88.208509"/>
     <use style="fill:#0c6575;stroke:#0c6575;" x="61.712489" xlink:href="#m7353c8326f" y="134.095171"/>
     <use style="fill:#0c6575;stroke:#0c6575;" x="57.567254" xlink:href="#m7353c8326f" y="152.282866"/>
     <use style="fill:#0c6575;stroke:#0c6575;" x="47.10112" xlink:href="#m7353c8326f" y="172.395355"/>
     <use style="fill:#0c6575;stroke:#0c6575;" x="60.947422" xlink:href="#m7353c8326f" y="49.357165"/>
     <use style="fill:#0c6575;stroke:#0c6575;" x="67.133719" xlink:href="#m7353c8326f" y="37.760802"/>
     <use style="fill:#0c6575;stroke:#0c6575;" x="61.454894" xlink:href="#m7353c8326f" y="76.152586"/>
     <use style="fill:#0c6575;stroke:#0c6575;" x="60.862623" xlink:href="#m7353c8326f" y="112.465842"/>
     <use style="fill:#0c6575;stroke:#0c6575;" x="71.586574" xlink:href="#m7353c8326f" y="71.627571"/>
     <use style="fill:#0c6575;stroke:#0c6575;" x="62.304761" xlink:href="#m7353c8326f" y="97.781914"/>
     <use style="fill:#0c6575;stroke:#0c6575;" x="68.945835" xlink:href="#m7353c8326f" y="106.67873"/>
     <use style="fill:#0c6575;stroke:#0c6575;" x="63.363611" xlink:href="#m7353c8326f" y="103.646734"/>
     <use style="fill:#0c6575;stroke:#0c6575;" x="47.289171" xlink:href="#m7353c8326f" y="125.451415"/>
     <use style="fill:#0c6575;stroke:#0c6575;" x="69.125725" xlink:href="#m7353c8326f" y="127.981774"/>
     <use style="fill:#0c6575;stroke:#0c6575;" x="67.857892" xlink:href="#m7353c8326f" y="137.881464"/>
     <use style="fill:#0c6575;stroke:#0c6575;" x="64.249222" xlink:href="#m7353c8326f" y="145.797026"/>
     <use style="fill:#0c6575;stroke:#0c6575;" x="65.154262" xlink:href="#m7353c8326f" y="125.634614"/>
     <use style="fill:#0c6575;stroke:#0c6575;" x="62.918497" xlink:href="#m7353c8326f" y="108.398706"/>
     <use style="fill:#0c6575;stroke:#0c6575;" x="61.072139" xlink:href="#m7353c8326f" y="112.45195"/>
     <use style="fill:#0c6575;stroke:#0c6575;" x="61.252563" xlink:href="#m7353c8326f" y="149.505611"/>
     <use style="fill:#0c6575;stroke:#0c6575;" x="62.318819" xlink:href="#m7353c8326f" y="150.041197"/>
     <use style="fill:#0c6575;stroke:#0c6575;" x="66.562379" xlink:href="#m7353c8326f" y="105.25349"/>
     <use style="fill:#0c6575;stroke:#0c6575;" x="60.849098" xlink:href="#m7353c8326f" y="75.957177"/>
     <use style="fill:#0c6575;stroke:#0c6575;" x="62.047699" xlink:href="#m7353c8326f" y="55.589946"/>
     <use style="fill:#0c6575;stroke:#0c6575;" x="61.134498" xlink:href="#m7353c8326f" y="143.999343"/>
     <use style="fill:#0c6575;stroke:#0c6575;" x="55.651131" xlink:href="#m7353c8326f" y="130.117952"/>
     <use style="fill:#0c6575;stroke:#0c6575;" x="61.414001" xlink:href="#m7353c8326f" y="91.535241"/>
     <use style="fill:#0c6575;stroke:#0c6575;" x="57.218741" xlink:href="#m7353c8326f" y="115.611058"/>
     <use style="fill:#0c6575;stroke:#0c6575;" x="52.918941" xlink:href="#m7353c8326f" y="170.689271"/>
     <use style="fill:#0c6575;stroke:#0c6575;" x="62.256461" xlink:href="#m7353c8326f" y="118.493804"/>
     <use style="fill:#0c6575;stroke:#0c6575;" x="57.950009" xlink:href="#m7353c8326f" y="115.983501"/>
     <use style="fill:#0c6575;stroke:#0c6575;" x="56.054597" xlink:href="#m7353c8326f" y="203.666386"/>
     <use style="fill:#0c6575;stroke:#0c6575;" x="52.514721" xlink:href="#m7353c8326f" y="160.058588"/>
     <use style="fill:#0c6575;stroke:#0c6575;" x="66.665631" xlink:href="#m7353c8326f" y="121.418227"/>
     <use style="fill:#0c6575;stroke:#0c6575;" x="71.355371" xlink:href="#m7353c8326f" y="103.379782"/>
     <use style="fill:#0c6575;stroke:#0c6575;" x="59.280734" xlink:href="#m7353c8326f" y="153.381821"/>
     <use style="fill:#0c6575;stroke:#0c6575;" x="63.496489" xlink:href="#m7353c8326f" y="98.494534"/>
     <use style="fill:#0c6575;stroke:#0c6575;" x="56.291482" xlink:href="#m7353c8326f" y="151.761172"/>
     <use style="fill:#0c6575;stroke:#0c6575;" x="63.378424" xlink:href="#m7353c8326f" y="92.988266"/>
     <use style="fill:#0c6575;stroke:#0c6575;" x="59.545957" xlink:href="#m7353c8326f" y="127.326805"/>
    </g>
   </g>
   <g id="PathCollection_2">
    <defs>
     <path d="M -1.217102 2.317188 
L 0.108658 2.317188 
L 0.108658 -2.260609 
L -1.334119 -1.971282 
L -1.334119 -2.710673 
L 0.100943 -3 
L 0.912345 -3 
L 0.912345 2.317188 
L 2.238105 2.317188 
L 2.238105 3 
L -1.217102 3 
z
" id="m81be467898" style="stroke:#bbcbcb;"/>
    </defs>
    <g clip-path="url(#p27ce8b148d)">
     <use style="fill:#bbcbcb;stroke:#bbcbcb;" x="154.911301" xlink:href="#m81be467898" y="85.289971"/>
     <use style="fill:#bbcbcb;stroke:#bbcbcb;" x="146.486228" xlink:href="#m81be467898" y="111.993792"/>
     <use style="fill:#bbcbcb;stroke:#bbcbcb;" x="159.20294" xlink:href="#m81be467898" y="98.458742"/>
     <use style="fill:#bbcbcb;stroke:#bbcbcb;" x="128.572083" xlink:href="#m81be467898" y="195.440233"/>
     <use style="fill:#bbcbcb;stroke:#bbcbcb;" x="150.207281" xlink:href="#m81be467898" y="129.737501"/>
     <use style="fill:#bbcbcb;stroke:#bbcbcb;" x="139.532164" xlink:href="#m81be467898" y="165.614499"/>
     <use style="fill:#bbcbcb;stroke:#bbcbcb;" x="150.373647" xlink:href="#m81be467898" y="114.531879"/>
     <use style="fill:#bbcbcb;stroke:#bbcbcb;" x="106.275603" xlink:href="#m81be467898" y="208.320314"/>
     <use style="fill:#bbcbcb;stroke:#bbcbcb;" x="149.155838" xlink:href="#m81be467898" y="118.543447"/>
     <use style="fill:#bbcbcb;stroke:#bbcbcb;" x="123.979477" xlink:href="#m81be467898" y="187.805515"/>
     <use style="fill:#bbcbcb;stroke:#bbcbcb;" x="112.045124" xlink:href="#m81be467898" y="227.32612"/>
     <use style="fill:#bbcbcb;stroke:#bbcbcb;" x="136.424313" xlink:href="#m81be467898" y="142.736965"/>
     <use style="fill:#bbcbcb;stroke:#bbcbcb;" x="130.524705" xlink:href="#m81be467898" y="175.20836"/>
     <use style="fill:#bbcbcb;stroke:#bbcbcb;" x="147.740314" xlink:href="#m81be467898" y="144.253804"/>
     <use style="fill:#bbcbcb;stroke:#bbcbcb;" x="120.029699" xlink:href="#m81be467898" y="153.720035"/>
     <use style="fill:#bbcbcb;stroke:#bbcbcb;" x="146.375569" xlink:href="#m81be467898" y="101.158289"/>
     <use style="fill:#bbcbcb;stroke:#bbcbcb;" x="139.977277" xlink:href="#m81be467898" y="160.862527"/>
     <use style="fill:#bbcbcb;stroke:#bbcbcb;" x="129.83433" xlink:href="#m81be467898" y="159.453261"/>
     <use style="fill:#bbcbcb;stroke:#bbcbcb;" x="146.779035" xlink:href="#m81be467898" y="174.706724"/>
     <use style="fill:#bbcbcb;stroke:#bbcbcb;" x="125.270062" xlink:href="#m81be467898" y="177.66874"/>
     <use style="fill:#bbcbcb;stroke:#bbcbcb;" x="150.881119" xlink:href="#m81be467898" y="141.3273"/>
     <use style="fill:#bbcbcb;stroke:#bbcbcb;" x="132.746411" xlink:href="#m81be467898" y="140.184985"/>
     <use style="fill:#bbcbcb;stroke:#bbcbcb;" x="155.230721" xlink:href="#m81be467898" y="159.029332"/>
     <use style="fill:#bbcbcb;stroke:#bbcbcb;" x="146.228944" xlink:href="#m81be467898" y="148.470191"/>
     <use style="fill:#bbcbcb;stroke:#bbcbcb;" x="141.282143" xlink:href="#m81be467898" y="124.316667"/>
     <use style="fill:#bbcbcb;stroke:#bbcbcb;" x="145.713533" xlink:href="#m81be467898" y="111.253388"/>
     <use style="fill:#bbcbcb;stroke:#bbcbcb;" x="156.039916" xlink:href="#m81be467898" y="117.372949"/>
     <use style="fill:#bbcbcb;stroke:#bbcbcb;" x="161.438704" xlink:href="#m81be467898" y="115.69465"/>
     <use style="fill:#bbcbcb;stroke:#bbcbcb;" x="143.635973" xlink:href="#m81be467898" y="147.058843"/>
     <use style="fill:#bbcbcb;stroke:#bbcbcb;" x="116.881488" xlink:href="#m81be467898" y="161.975774"/>
     <use style="fill:#bbcbcb;stroke:#bbcbcb;" x="122.559558" xlink:href="#m81be467898" y="186.501741"/>
     <use style="fill:#bbcbcb;stroke:#bbcbcb;" x="119.654351" xlink:href="#m81be467898" y="184.690166"/>
     <use style="fill:#bbcbcb;stroke:#bbcbcb;" x="127.450875" xlink:href="#m81be467898" y="158.028021"/>
     <use style="fill:#bbcbcb;stroke:#bbcbcb;" x="157.187738" xlink:href="#m81be467898" y="165.81159"/>
     <use style="fill:#bbcbcb;stroke:#bbcbcb;" x="138.248985" xlink:href="#m81be467898" y="170.42204"/>
     <use style="fill:#bbcbcb;stroke:#bbcbcb;" x="143.482163" xlink:href="#m81be467898" y="121.031612"/>
     <use style="fill:#bbcbcb;stroke:#bbcbcb;" x="153.377712" xlink:href="#m81be467898" y="105.49406"/>
     <use style="fill:#bbcbcb;stroke:#bbcbcb;" x="143.679124" xlink:href="#m81be467898" y="162.250572"/>
     <use style="fill:#bbcbcb;stroke:#bbcbcb;" x="130.069927" xlink:href="#m81be467898" y="154.715181"/>
     <use style="fill:#bbcbcb;stroke:#bbcbcb;" x="128.167863" xlink:href="#m81be467898" y="184.80955"/>
     <use style="fill:#bbcbcb;stroke:#bbcbcb;" x="135.302884" xlink:href="#m81be467898" y="183.99312"/>
     <use style="fill:#bbcbcb;stroke:#bbcbcb;" x="145.489737" xlink:href="#m81be467898" y="137.676365"/>
     <use style="fill:#bbcbcb;stroke:#bbcbcb;" x="129.701452" xlink:href="#m81be467898" y="164.605461"/>
     <use style="fill:#bbcbcb;stroke:#bbcbcb;" x="107.341859" xlink:href="#m81be467898" y="208.855899"/>
     <use style="fill:#bbcbcb;stroke:#bbcbcb;" x="132.724725" xlink:href="#m81be467898" y="171.923305"/>
     <use style="fill:#bbcbcb;stroke:#bbcbcb;" x="132.125801" xlink:href="#m81be467898" y="150.648045"/>
     <use style="fill:#bbcbcb;stroke:#bbcbcb;" x="133.184651" xlink:href="#m81be467898" y="156.512864"/>
     <use style="fill:#bbcbcb;stroke:#bbcbcb;" x="139.55385" xlink:href="#m81be467898" y="133.87618"/>
     <use style="fill:#bbcbcb;stroke:#bbcbcb;" x="102.513122" xlink:href="#m81be467898" y="190.208644"/>
     <use style="fill:#bbcbcb;stroke:#bbcbcb;" x="131.338294" xlink:href="#m81be467898" y="160.566109"/>
    </g>
   </g>
   <g id="PathCollection_3">
    <defs>
     <path d="M -0.615789 2.329263 
L 2.166947 2.329263 
L 2.166947 3 
L -1.574526 3 
L -1.574526 2.329263 
Q -1.121053 1.859368 -0.337895 1.068632 
Q 0.446526 0.276632 0.647368 0.046737 
Q 1.030105 -0.382737 1.181684 -0.680842 
Q 1.334526 -0.978947 1.334526 -1.266947 
Q 1.334526 -1.736842 1.004842 -2.032421 
Q 0.675158 -2.329263 0.145895 -2.329263 
Q -0.229263 -2.329263 -0.646105 -2.199158 
Q -1.061684 -2.069053 -1.535368 -1.803789 
L -1.535368 -2.609684 
Q -1.054105 -2.802947 -0.636 -2.901474 
Q -0.216632 -3 0.130737 -3 
Q 1.046526 -3 1.590947 -2.541474 
Q 2.135368 -2.084211 2.135368 -1.318737 
Q 2.135368 -0.954947 1.998947 -0.629053 
Q 1.863789 -0.304421 1.503789 0.137684 
Q 1.405263 0.252632 0.876 0.799579 
Q 0.348 1.346526 -0.615789 2.329263 
z
" id="mde02411c64" style="stroke:#23a98c;"/>
    </defs>
    <g clip-path="url(#p27ce8b148d)">
     <use style="fill:#23a98c;stroke:#23a98c;" x="184.714384" xlink:href="#mde02411c64" y="135.884447"/>
     <use style="fill:#23a98c;stroke:#23a98c;" x="158.029665" xlink:href="#mde02411c64" y="177.019536"/>
     <use style="fill:#23a98c;stroke:#23a98c;" x="186.758457" xlink:href="#mde02411c64" y="110.132413"/>
     <use style="fill:#23a98c;stroke:#23a98c;" x="171.331774" xlink:href="#mde02411c64" y="148.25108"/>
     <use style="fill:#23a98c;stroke:#23a98c;" x="180.381852" xlink:href="#mde02411c64" y="138.098332"/>
     <use style="fill:#23a98c;stroke:#23a98c;" x="205.418462" xlink:href="#mde02411c64" y="95.068314"/>
     <use style="fill:#23a98c;stroke:#23a98c;" x="136.652283" xlink:href="#mde02411c64" y="221.996487"/>
     <use style="fill:#23a98c;stroke:#23a98c;" x="194.312511" xlink:href="#mde02411c64" y="109.288199"/>
     <use style="fill:#23a98c;stroke:#23a98c;" x="179.693734" xlink:href="#mde02411c64" y="152.917617"/>
     <use style="fill:#23a98c;stroke:#23a98c;" x="193.933838" xlink:href="#mde02411c64" y="78.182711"/>
     <use style="fill:#23a98c;stroke:#23a98c;" x="163.924879" xlink:href="#mde02411c64" y="117.534009"/>
     <use style="fill:#23a98c;stroke:#23a98c;" x="167.311478" xlink:href="#mde02411c64" y="150.865193"/>
     <use style="fill:#23a98c;stroke:#23a98c;" x="175.972148" xlink:href="#mde02411c64" y="119.423292"/>
     <use style="fill:#23a98c;stroke:#23a98c;" x="156.37801" xlink:href="#mde02411c64" y="191.717356"/>
     <use style="fill:#23a98c;stroke:#23a98c;" x="162.111254" xlink:href="#mde02411c64" y="174.451583"/>
     <use style="fill:#23a98c;stroke:#23a98c;" x="169.727887" xlink:href="#mde02411c64" y="126.486394"/>
     <use style="fill:#23a98c;stroke:#23a98c;" x="170.809489" xlink:href="#mde02411c64" y="132.114128"/>
     <use style="fill:#23a98c;stroke:#23a98c;" x="207.570936" xlink:href="#mde02411c64" y="49.577398"/>
     <use style="fill:#23a98c;stroke:#23a98c;" x="214.94993" xlink:href="#mde02411c64" y="116.435173"/>
     <use style="fill:#23a98c;stroke:#23a98c;" x="155.29308" xlink:href="#mde02411c64" y="190.576724"/>
     <use style="fill:#23a98c;stroke:#23a98c;" x="182.242489" xlink:href="#mde02411c64" y="107.636002"/>
     <use style="fill:#23a98c;stroke:#23a98c;" x="152.859067" xlink:href="#mde02411c64" y="179.28899"/>
     <use style="fill:#23a98c;stroke:#23a98c;" x="207.878556" xlink:href="#mde02411c64" y="101.631861"/>
     <use style="fill:#23a98c;stroke:#23a98c;" x="157.396721" xlink:href="#mde02411c64" y="150.047081"/>
     <use style="fill:#23a98c;stroke:#23a98c;" x="178.598607" xlink:href="#mde02411c64" y="110.781218"/>
     <use style="fill:#23a98c;stroke:#23a98c;" x="186.696632" xlink:href="#mde02411c64" y="94.335637"/>
     <use style="fill:#23a98c;stroke:#23a98c;" x="154.281997" xlink:href="#mde02411c64" y="148.249398"/>
     <use style="fill:#23a98c;stroke:#23a98c;" x="155.062099" xlink:href="#mde02411c64" y="143.660568"/>
     <use style="fill:#23a98c;stroke:#23a98c;" x="174.96825" xlink:href="#mde02411c64" y="150.435099"/>
     <use style="fill:#23a98c;stroke:#23a98c;" x="181.290437" xlink:href="#mde02411c64" y="101.343171"/>
     <use style="fill:#23a98c;stroke:#23a98c;" x="192.138571" xlink:href="#mde02411c64" y="107.849067"/>
     <use style="fill:#23a98c;stroke:#23a98c;" x="201.440346" xlink:href="#mde02411c64" y="35.132637"/>
     <use style="fill:#23a98c;stroke:#23a98c;" x="175.82499" xlink:href="#mde02411c64" y="150.984577"/>
     <use style="fill:#23a98c;stroke:#23a98c;" x="158.721327" xlink:href="#mde02411c64" y="145.607501"/>
     <use style="fill:#23a98c;stroke:#23a98c;" x="166.782852" xlink:href="#mde02411c64" y="171.558708"/>
     <use style="fill:#23a98c;stroke:#23a98c;" x="197.75375" xlink:href="#mde02411c64" y="85.077025"/>
     <use style="fill:#23a98c;stroke:#23a98c;" x="175.461664" xlink:href="#mde02411c64" y="124.971237"/>
     <use style="fill:#23a98c;stroke:#23a98c;" x="169.743233" xlink:href="#mde02411c64" y="131.578543"/>
     <use style="fill:#23a98c;stroke:#23a98c;" x="152.149485" xlink:href="#mde02411c64" y="147.178227"/>
     <use style="fill:#23a98c;stroke:#23a98c;" x="174.585717" xlink:href="#mde02411c64" y="108.066096"/>
     <use style="fill:#23a98c;stroke:#23a98c;" x="179.524579" xlink:href="#mde02411c64" y="121.798237"/>
     <use style="fill:#23a98c;stroke:#23a98c;" x="170.153793" xlink:href="#mde02411c64" y="105.378759"/>
     <use style="fill:#23a98c;stroke:#23a98c;" x="158.029665" xlink:href="#mde02411c64" y="177.019536"/>
     <use style="fill:#23a98c;stroke:#23a98c;" x="185.475278" xlink:href="#mde02411c64" y="114.939954"/>
     <use style="fill:#23a98c;stroke:#23a98c;" x="182.025566" xlink:href="#mde02411c64" y="112.979129"/>
     <use style="fill:#23a98c;stroke:#23a98c;" x="170.676078" xlink:href="#mde02411c64" y="121.515711"/>
     <use style="fill:#23a98c;stroke:#23a98c;" x="160.706148" xlink:href="#mde02411c64" y="162.48934"/>
     <use style="fill:#23a98c;stroke:#23a98c;" x="166.377566" xlink:href="#mde02411c64" y="129.426791"/>
     <use style="fill:#23a98c;stroke:#23a98c;" x="169.643842" xlink:href="#mde02411c64" y="126.677321"/>
     <use style="fill:#23a98c;stroke:#23a98c;" x="157.430741" xlink:href="#mde02411c64" y="155.744276"/>
    </g>
   </g>
   <g id="text_1">
    <!-- PCA -->
    <defs>
     <path d="M 19.671875 64.796875 
L 19.671875 37.40625 
L 32.078125 37.40625 
Q 38.96875 37.40625 42.71875 40.96875 
Q 46.484375 44.53125 46.484375 51.125 
Q 46.484375 57.671875 42.71875 61.234375 
Q 38.96875 64.796875 32.078125 64.796875 
z
M 9.8125 72.90625 
L 32.078125 72.90625 
Q 44.34375 72.90625 50.609375 67.359375 
Q 56.890625 61.8125 56.890625 51.125 
Q 56.890625 40.328125 50.609375 34.8125 
Q 44.34375 29.296875 32.078125 29.296875 
L 19.671875 29.296875 
L 19.671875 0 
L 9.8125 0 
z
" id="DejaVuSans-80"/>
     <path d="M 64.40625 67.28125 
L 64.40625 56.890625 
Q 59.421875 61.53125 53.78125 63.8125 
Q 48.140625 66.109375 41.796875 66.109375 
Q 29.296875 66.109375 22.65625 58.46875 
Q 16.015625 50.828125 16.015625 36.375 
Q 16.015625 21.96875 22.65625 14.328125 
Q 29.296875 6.6875 41.796875 6.6875 
Q 48.140625 6.6875 53.78125 8.984375 
Q 59.421875 11.28125 64.40625 15.921875 
L 64.40625 5.609375 
Q 59.234375 2.09375 53.4375 0.328125 
Q 47.65625 -1.421875 41.21875 -1.421875 
Q 24.65625 -1.421875 15.125 8.703125 
Q 5.609375 18.84375 5.609375 36.375 
Q 5.609375 53.953125 15.125 64.078125 
Q 24.65625 74.21875 41.21875 74.21875 
Q 47.75 74.21875 53.53125 72.484375 
Q 59.328125 70.75 64.40625 67.28125 
z
" id="DejaVuSans-67"/>
     <path d="M 34.1875 63.1875 
L 20.796875 26.90625 
L 47.609375 26.90625 
z
M 28.609375 72.90625 
L 39.796875 72.90625 
L 67.578125 0 
L 57.328125 0 
L 50.6875 18.703125 
L 17.828125 18.703125 
L 11.1875 0 
L 0.78125 0 
z
" id="DejaVuSans-65"/>
    </defs>
    <g style="fill:#003847;" transform="translate(119.570938 16.318125)scale(0.12 -0.12)">
     <use xlink:href="#DejaVuSans-80"/>
     <use x="60.302734" xlink:href="#DejaVuSans-67"/>
     <use x="130.126953" xlink:href="#DejaVuSans-65"/>
    </g>
   </g>
  </g>
  <g id="axes_2">
   <g id="PathCollection_4">
    <g clip-path="url(#pe1220a1287)">
     <use style="fill:#0c6575;stroke:#0c6575;" x="576.991421" xlink:href="#m7353c8326f" y="216.740528"/>
     <use style="fill:#0c6575;stroke:#0c6575;" x="568.225412" xlink:href="#m7353c8326f" y="225.200436"/>
     <use style="fill:#0c6575;stroke:#0c6575;" x="566.485417" xlink:href="#m7353c8326f" y="219.202297"/>
     <use style="fill:#0c6575;stroke:#0c6575;" x="566.046834" xlink:href="#m7353c8326f" y="216.265888"/>
     <use style="fill:#0c6575;stroke:#0c6575;" x="576.865385" xlink:href="#m7353c8326f" y="212.724972"/>
     <use style="fill:#0c6575;stroke:#0c6575;" x="584.12829" xlink:href="#m7353c8326f" y="211.986486"/>
     <use style="fill:#0c6575;stroke:#0c6575;" x="567.483101" xlink:href="#m7353c8326f" y="211.660029"/>
     <use style="fill:#0c6575;stroke:#0c6575;" x="574.244995" xlink:href="#m7353c8326f" y="217.827525"/>
     <use style="fill:#0c6575;stroke:#0c6575;" x="563.150987" xlink:href="#m7353c8326f" y="215.20376"/>
     <use style="fill:#0c6575;stroke:#0c6575;" x="569.450246" xlink:href="#m7353c8326f" y="221.732519"/>
     <use style="fill:#0c6575;stroke:#0c6575;" x="582.708563" xlink:href="#m7353c8326f" y="217.945593"/>
     <use style="fill:#0c6575;stroke:#0c6575;" x="571.503125" xlink:href="#m7353c8326f" y="213.502849"/>
     <use style="fill:#0c6575;stroke:#0c6575;" x="566.876524" xlink:href="#m7353c8326f" y="223.366028"/>
     <use style="fill:#0c6575;stroke:#0c6575;" x="561.721092" xlink:href="#m7353c8326f" y="219.566807"/>
     <use style="fill:#0c6575;stroke:#0c6575;" x="587.633878" xlink:href="#m7353c8326f" y="216.931122"/>
     <use style="fill:#0c6575;stroke:#0c6575;" x="587.995413" xlink:href="#m7353c8326f" y="211.874423"/>
     <use style="fill:#0c6575;stroke:#0c6575;" x="584.84079" xlink:href="#m7353c8326f" y="215.075892"/>
     <use style="fill:#0c6575;stroke:#0c6575;" x="577.228073" xlink:href="#m7353c8326f" y="217.862478"/>
     <use style="fill:#0c6575;stroke:#0c6575;" x="585.759639" xlink:href="#m7353c8326f" y="219.3398"/>
     <use style="fill:#0c6575;stroke:#0c6575;" x="580.644615" xlink:href="#m7353c8326f" y="211.399774"/>
     <use style="fill:#0c6575;stroke:#0c6575;" x="580.780941" xlink:href="#m7353c8326f" y="225.309758"/>
     <use style="fill:#0c6575;stroke:#0c6575;" x="579.703515" xlink:href="#m7353c8326f" y="213.401743"/>
     <use style="fill:#0c6575;stroke:#0c6575;" x="563.553452" xlink:href="#m7353c8326f" y="229.756452"/>
     <use style="fill:#0c6575;stroke:#0c6575;" x="575.789865" xlink:href="#m7353c8326f" y="228.539524"/>
     <use style="fill:#0c6575;stroke:#0c6575;" x="571.373572" xlink:href="#m7353c8326f" y="208.109314"/>
     <use style="fill:#0c6575;stroke:#0c6575;" x="569.656777" xlink:href="#m7353c8326f" y="227.010172"/>
     <use style="fill:#0c6575;stroke:#0c6575;" x="575.196904" xlink:href="#m7353c8326f" y="223.741529"/>
     <use style="fill:#0c6575;stroke:#0c6575;" x="578.781537" xlink:href="#m7353c8326f" y="219.294248"/>
     <use style="fill:#0c6575;stroke:#0c6575;" x="577.544396" xlink:href="#m7353c8326f" y="221.073379"/>
     <use style="fill:#0c6575;stroke:#0c6575;" x="568.559141" xlink:href="#m7353c8326f" y="214.80459"/>
     <use style="fill:#0c6575;stroke:#0c6575;" x="568.855323" xlink:href="#m7353c8326f" y="218.228881"/>
     <use style="fill:#0c6575;stroke:#0c6575;" x="580.435165" xlink:href="#m7353c8326f" y="224.913216"/>
     <use style="fill:#0c6575;stroke:#0c6575;" x="584.453614" xlink:href="#m7353c8326f" y="208.014384"/>
     <use style="fill:#0c6575;stroke:#0c6575;" x="586.759376" xlink:href="#m7353c8326f" y="211.462255"/>
     <use style="fill:#0c6575;stroke:#0c6575;" x="569.633176" xlink:href="#m7353c8326f" y="221.633714"/>
     <use style="fill:#0c6575;stroke:#0c6575;" x="571.398847" xlink:href="#m7353c8326f" y="225.371481"/>
     <use style="fill:#0c6575;stroke:#0c6575;" x="582.69729" xlink:href="#m7353c8326f" y="223.447675"/>
     <use style="fill:#0c6575;stroke:#0c6575;" x="575.389419" xlink:href="#m7353c8326f" y="210.73046"/>
     <use style="fill:#0c6575;stroke:#0c6575;" x="563.137745" xlink:href="#m7353c8326f" y="217.800649"/>
     <use style="fill:#0c6575;stroke:#0c6575;" x="575.732655" xlink:href="#m7353c8326f" y="219.736457"/>
     <use style="fill:#0c6575;stroke:#0c6575;" x="575.553199" xlink:href="#m7353c8326f" y="215.137509"/>
     <use style="fill:#0c6575;stroke:#0c6575;" x="561.275222" xlink:href="#m7353c8326f" y="211.001461"/>
     <use style="fill:#0c6575;stroke:#0c6575;" x="563.589507" xlink:href="#m7353c8326f" y="219.590158"/>
     <use style="fill:#0c6575;stroke:#0c6575;" x="576.801163" xlink:href="#m7353c8326f" y="227.838365"/>
     <use style="fill:#0c6575;stroke:#0c6575;" x="581.270102" xlink:href="#m7353c8326f" y="205.503483"/>
     <use style="fill:#0c6575;stroke:#0c6575;" x="566.983482" xlink:href="#m7353c8326f" y="223.400573"/>
     <use style="fill:#0c6575;stroke:#0c6575;" x="580.776651" xlink:href="#m7353c8326f" y="210.321711"/>
     <use style="fill:#0c6575;stroke:#0c6575;" x="566.108446" xlink:href="#m7353c8326f" y="215.90491"/>
     <use style="fill:#0c6575;stroke:#0c6575;" x="581.662264" xlink:href="#m7353c8326f" y="216.546859"/>
     <use style="fill:#0c6575;stroke:#0c6575;" x="572.935398" xlink:href="#m7353c8326f" y="220.052479"/>
    </g>
   </g>
   <g id="PathCollection_5">
    <g clip-path="url(#pe1220a1287)">
     <use style="fill:#bbcbcb;stroke:#bbcbcb;" x="448.5208" xlink:href="#m81be467898" y="77.19554"/>
     <use style="fill:#bbcbcb;stroke:#bbcbcb;" x="453.693887" xlink:href="#m81be467898" y="67.762984"/>
     <use style="fill:#bbcbcb;stroke:#bbcbcb;" x="446.999608" xlink:href="#m81be467898" y="74.359034"/>
     <use style="fill:#bbcbcb;stroke:#bbcbcb;" x="472.137388" xlink:href="#m81be467898" y="64.053254"/>
     <use style="fill:#bbcbcb;stroke:#bbcbcb;" x="451.944575" xlink:href="#m81be467898" y="69.179656"/>
     <use style="fill:#bbcbcb;stroke:#bbcbcb;" x="464.085462" xlink:href="#m81be467898" y="57.76255"/>
     <use style="fill:#bbcbcb;stroke:#bbcbcb;" x="452.947381" xlink:href="#m81be467898" y="61.686999"/>
     <use style="fill:#bbcbcb;stroke:#bbcbcb;" x="477.823499" xlink:href="#m81be467898" y="66.881418"/>
     <use style="fill:#bbcbcb;stroke:#bbcbcb;" x="451.972775" xlink:href="#m81be467898" y="72.986163"/>
     <use style="fill:#bbcbcb;stroke:#bbcbcb;" x="472.452915" xlink:href="#m81be467898" y="57.70968"/>
     <use style="fill:#bbcbcb;stroke:#bbcbcb;" x="477.382447" xlink:href="#m81be467898" y="65.174657"/>
     <use style="fill:#bbcbcb;stroke:#bbcbcb;" x="462.998247" xlink:href="#m81be467898" y="62.927784"/>
     <use style="fill:#bbcbcb;stroke:#bbcbcb;" x="470.094297" xlink:href="#m81be467898" y="75.715844"/>
     <use style="fill:#bbcbcb;stroke:#bbcbcb;" x="455.917762" xlink:href="#m81be467898" y="60.825582"/>
     <use style="fill:#bbcbcb;stroke:#bbcbcb;" x="473.152868" xlink:href="#m81be467898" y="61.713275"/>
     <use style="fill:#bbcbcb;stroke:#bbcbcb;" x="452.138866" xlink:href="#m81be467898" y="75.632614"/>
     <use style="fill:#bbcbcb;stroke:#bbcbcb;" x="463.410047" xlink:href="#m81be467898" y="54.275887"/>
     <use style="fill:#bbcbcb;stroke:#bbcbcb;" x="468.271535" xlink:href="#m81be467898" y="68.816512"/>
     <use style="fill:#bbcbcb;stroke:#bbcbcb;" x="459.817376" xlink:href="#m81be467898" y="79.195967"/>
     <use style="fill:#bbcbcb;stroke:#bbcbcb;" x="471.528495" xlink:href="#m81be467898" y="67.879575"/>
     <use style="fill:#bbcbcb;stroke:#bbcbcb;" x="453.49435" xlink:href="#m81be467898" y="48.994126"/>
     <use style="fill:#bbcbcb;stroke:#bbcbcb;" x="464.966458" xlink:href="#m81be467898" y="70.289461"/>
     <use style="fill:#bbcbcb;stroke:#bbcbcb;" x="447.675775" xlink:href="#m81be467898" y="57.707554"/>
     <use style="fill:#bbcbcb;stroke:#bbcbcb;" x="457.196444" xlink:href="#m81be467898" y="63.627984"/>
     <use style="fill:#bbcbcb;stroke:#bbcbcb;" x="456.38687" xlink:href="#m81be467898" y="71.926838"/>
     <use style="fill:#bbcbcb;stroke:#bbcbcb;" x="453.204986" xlink:href="#m81be467898" y="73.700327"/>
     <use style="fill:#bbcbcb;stroke:#bbcbcb;" x="448.651685" xlink:href="#m81be467898" y="72.923612"/>
     <use style="fill:#bbcbcb;stroke:#bbcbcb;" x="444.372312" xlink:href="#m81be467898" y="68.694266"/>
     <use style="fill:#bbcbcb;stroke:#bbcbcb;" x="458.850948" xlink:href="#m81be467898" y="60.548242"/>
     <use style="fill:#bbcbcb;stroke:#bbcbcb;" x="473.755578" xlink:href="#m81be467898" y="71.429242"/>
     <use style="fill:#bbcbcb;stroke:#bbcbcb;" x="473.161361" xlink:href="#m81be467898" y="67.397478"/>
     <use style="fill:#bbcbcb;stroke:#bbcbcb;" x="474.007664" xlink:href="#m81be467898" y="68.543174"/>
     <use style="fill:#bbcbcb;stroke:#bbcbcb;" x="469.380388" xlink:href="#m81be467898" y="68.120074"/>
     <use style="fill:#bbcbcb;stroke:#bbcbcb;" x="447.506055" xlink:href="#m81be467898" y="48.220875"/>
     <use style="fill:#bbcbcb;stroke:#bbcbcb;" x="465.039449" xlink:href="#m81be467898" y="52.085825"/>
     <use style="fill:#bbcbcb;stroke:#bbcbcb;" x="456.81948" xlink:href="#m81be467898" y="54.101897"/>
     <use style="fill:#bbcbcb;stroke:#bbcbcb;" x="449.594571" xlink:href="#m81be467898" y="73.002285"/>
     <use style="fill:#bbcbcb;stroke:#bbcbcb;" x="460.071714" xlink:href="#m81be467898" y="78.575787"/>
     <use style="fill:#bbcbcb;stroke:#bbcbcb;" x="467.12426" xlink:href="#m81be467898" y="60.128707"/>
     <use style="fill:#bbcbcb;stroke:#bbcbcb;" x="471.130714" xlink:href="#m81be467898" y="62.506834"/>
     <use style="fill:#bbcbcb;stroke:#bbcbcb;" x="468.479567" xlink:href="#m81be467898" y="56.476568"/>
     <use style="fill:#bbcbcb;stroke:#bbcbcb;" x="456.767872" xlink:href="#m81be467898" y="61.604602"/>
     <use style="fill:#bbcbcb;stroke:#bbcbcb;" x="469.182004" xlink:href="#m81be467898" y="68.235817"/>
     <use style="fill:#bbcbcb;stroke:#bbcbcb;" x="477.585177" xlink:href="#m81be467898" y="67.111734"/>
     <use style="fill:#bbcbcb;stroke:#bbcbcb;" x="468.45207" xlink:href="#m81be467898" y="60.411926"/>
     <use style="fill:#bbcbcb;stroke:#bbcbcb;" x="465.857189" xlink:href="#m81be467898" y="61.965424"/>
     <use style="fill:#bbcbcb;stroke:#bbcbcb;" x="466.075109" xlink:href="#m81be467898" y="61.644556"/>
     <use style="fill:#bbcbcb;stroke:#bbcbcb;" x="459.383286" xlink:href="#m81be467898" y="68.012697"/>
     <use style="fill:#bbcbcb;stroke:#bbcbcb;" x="478.167034" xlink:href="#m81be467898" y="68.268534"/>
     <use style="fill:#bbcbcb;stroke:#bbcbcb;" x="467.633579" xlink:href="#m81be467898" y="63.564633"/>
    </g>
   </g>
   <g id="PathCollection_6">
    <g clip-path="url(#pe1220a1287)">
     <use style="fill:#23a98c;stroke:#23a98c;" x="427.806426" xlink:href="#mde02411c64" y="66.505513"/>
     <use style="fill:#23a98c;stroke:#23a98c;" x="448.611153" xlink:href="#mde02411c64" y="41.208599"/>
     <use style="fill:#23a98c;stroke:#23a98c;" x="426.289102" xlink:href="#mde02411c64" y="50.803943"/>
     <use style="fill:#23a98c;stroke:#23a98c;" x="436.49527" xlink:href="#mde02411c64" y="50.024924"/>
     <use style="fill:#23a98c;stroke:#23a98c;" x="430.894162" xlink:href="#mde02411c64" y="53.573183"/>
     <use style="fill:#23a98c;stroke:#23a98c;" x="420.989165" xlink:href="#mde02411c64" y="47.602979"/>
     <use style="fill:#23a98c;stroke:#23a98c;" x="469.334088" xlink:href="#mde02411c64" y="47.252535"/>
     <use style="fill:#23a98c;stroke:#23a98c;" x="423.425879" xlink:href="#mde02411c64" y="45.584268"/>
     <use style="fill:#23a98c;stroke:#23a98c;" x="432.231678" xlink:href="#mde02411c64" y="44.519293"/>
     <use style="fill:#23a98c;stroke:#23a98c;" x="423.425696" xlink:href="#mde02411c64" y="57.725361"/>
     <use style="fill:#23a98c;stroke:#23a98c;" x="437.318491" xlink:href="#mde02411c64" y="63.09335"/>
     <use style="fill:#23a98c;stroke:#23a98c;" x="439.405232" xlink:href="#mde02411c64" y="53.135021"/>
     <use style="fill:#23a98c;stroke:#23a98c;" x="431.646403" xlink:href="#mde02411c64" y="56.356284"/>
     <use style="fill:#23a98c;stroke:#23a98c;" x="448.897138" xlink:href="#mde02411c64" y="38.162313"/>
     <use style="fill:#23a98c;stroke:#23a98c;" x="447.70945" xlink:href="#mde02411c64" y="34.964286"/>
     <use style="fill:#23a98c;stroke:#23a98c;" x="433.305144" xlink:href="#mde02411c64" y="64.541218"/>
     <use style="fill:#23a98c;stroke:#23a98c;" x="435.84018" xlink:href="#mde02411c64" y="53.373524"/>
     <use style="fill:#23a98c;stroke:#23a98c;" x="419.919384" xlink:href="#mde02411c64" y="53.809075"/>
     <use style="fill:#23a98c;stroke:#23a98c;" x="420.013802" xlink:href="#mde02411c64" y="44.878149"/>
     <use style="fill:#23a98c;stroke:#23a98c;" x="445.644092" xlink:href="#mde02411c64" y="46.888293"/>
     <use style="fill:#23a98c;stroke:#23a98c;" x="428.035637" xlink:href="#mde02411c64" y="57.009709"/>
     <use style="fill:#23a98c;stroke:#23a98c;" x="450.601886" xlink:href="#mde02411c64" y="38.497826"/>
     <use style="fill:#23a98c;stroke:#23a98c;" x="420.658622" xlink:href="#mde02411c64" y="45.736613"/>
     <use style="fill:#23a98c;stroke:#23a98c;" x="447.28317" xlink:href="#mde02411c64" y="54.543208"/>
     <use style="fill:#23a98c;stroke:#23a98c;" x="429.336485" xlink:href="#mde02411c64" y="57.167393"/>
     <use style="fill:#23a98c;stroke:#23a98c;" x="425.147751" xlink:href="#mde02411c64" y="48.059564"/>
     <use style="fill:#23a98c;stroke:#23a98c;" x="449.51246" xlink:href="#mde02411c64" y="53.93199"/>
     <use style="fill:#23a98c;stroke:#23a98c;" x="450.70896" xlink:href="#mde02411c64" y="51.025329"/>
     <use style="fill:#23a98c;stroke:#23a98c;" x="434.006189" xlink:href="#mde02411c64" y="51.513228"/>
     <use style="fill:#23a98c;stroke:#23a98c;" x="426.197939" xlink:href="#mde02411c64" y="44.990955"/>
     <use style="fill:#23a98c;stroke:#23a98c;" x="423.782547" xlink:href="#mde02411c64" y="45.749789"/>
     <use style="fill:#23a98c;stroke:#23a98c;" x="419.988359" xlink:href="#mde02411c64" y="53.864034"/>
     <use style="fill:#23a98c;stroke:#23a98c;" x="433.41765" xlink:href="#mde02411c64" y="52.262793"/>
     <use style="fill:#23a98c;stroke:#23a98c;" x="446.26954" xlink:href="#mde02411c64" y="56.731561"/>
     <use style="fill:#23a98c;stroke:#23a98c;" x="441.279266" xlink:href="#mde02411c64" y="44.948806"/>
     <use style="fill:#23a98c;stroke:#23a98c;" x="422.09472" xlink:href="#mde02411c64" y="49.767581"/>
     <use style="fill:#23a98c;stroke:#23a98c;" x="430.162842" xlink:href="#mde02411c64" y="67.341711"/>
     <use style="fill:#23a98c;stroke:#23a98c;" x="436.150286" xlink:href="#mde02411c64" y="53.778932"/>
     <use style="fill:#23a98c;stroke:#23a98c;" x="452.017358" xlink:href="#mde02411c64" y="50.18023"/>
     <use style="fill:#23a98c;stroke:#23a98c;" x="431.688422" xlink:href="#mde02411c64" y="58.775292"/>
     <use style="fill:#23a98c;stroke:#23a98c;" x="429.985637" xlink:href="#mde02411c64" y="60.181724"/>
     <use style="fill:#23a98c;stroke:#23a98c;" x="434.089468" xlink:href="#mde02411c64" y="64.725864"/>
     <use style="fill:#23a98c;stroke:#23a98c;" x="448.609416" xlink:href="#mde02411c64" y="41.209439"/>
     <use style="fill:#23a98c;stroke:#23a98c;" x="427.267474" xlink:href="#mde02411c64" y="57.186514"/>
     <use style="fill:#23a98c;stroke:#23a98c;" x="428.239882" xlink:href="#mde02411c64" y="62.157417"/>
     <use style="fill:#23a98c;stroke:#23a98c;" x="433.988846" xlink:href="#mde02411c64" y="62.378334"/>
     <use style="fill:#23a98c;stroke:#23a98c;" x="445.233804" xlink:href="#mde02411c64" y="52.122777"/>
     <use style="fill:#23a98c;stroke:#23a98c;" x="437.148103" xlink:href="#mde02411c64" y="59.767077"/>
     <use style="fill:#23a98c;stroke:#23a98c;" x="431.794965" xlink:href="#mde02411c64" y="68.884639"/>
     <use style="fill:#23a98c;stroke:#23a98c;" x="450.065958" xlink:href="#mde02411c64" y="45.356828"/>
    </g>
   </g>
   <g id="text_2">
    <!-- t-SNE -->
    <defs>
     <path d="M 18.3125 70.21875 
L 18.3125 54.6875 
L 36.8125 54.6875 
L 36.8125 47.703125 
L 18.3125 47.703125 
L 18.3125 18.015625 
Q 18.3125 11.328125 20.140625 9.421875 
Q 21.96875 7.515625 27.59375 7.515625 
L 36.8125 7.515625 
L 36.8125 0 
L 27.59375 0 
Q 17.1875 0 13.234375 3.875 
Q 9.28125 7.765625 9.28125 18.015625 
L 9.28125 47.703125 
L 2.6875 47.703125 
L 2.6875 54.6875 
L 9.28125 54.6875 
L 9.28125 70.21875 
z
" id="DejaVuSans-116"/>
     <path d="M 4.890625 31.390625 
L 31.203125 31.390625 
L 31.203125 23.390625 
L 4.890625 23.390625 
z
" id="DejaVuSans-45"/>
     <path d="M 53.515625 70.515625 
L 53.515625 60.890625 
Q 47.90625 63.578125 42.921875 64.890625 
Q 37.9375 66.21875 33.296875 66.21875 
Q 25.25 66.21875 20.875 63.09375 
Q 16.5 59.96875 16.5 54.203125 
Q 16.5 49.359375 19.40625 46.890625 
Q 22.3125 44.4375 30.421875 42.921875 
L 36.375 41.703125 
Q 47.40625 39.59375 52.65625 34.296875 
Q 57.90625 29 57.90625 20.125 
Q 57.90625 9.515625 50.796875 4.046875 
Q 43.703125 -1.421875 29.984375 -1.421875 
Q 24.8125 -1.421875 18.96875 -0.25 
Q 13.140625 0.921875 6.890625 3.21875 
L 6.890625 13.375 
Q 12.890625 10.015625 18.65625 8.296875 
Q 24.421875 6.59375 29.984375 6.59375 
Q 38.421875 6.59375 43.015625 9.90625 
Q 47.609375 13.234375 47.609375 19.390625 
Q 47.609375 24.75 44.3125 27.78125 
Q 41.015625 30.8125 33.5 32.328125 
L 27.484375 33.5 
Q 16.453125 35.6875 11.515625 40.375 
Q 6.59375 45.0625 6.59375 53.421875 
Q 6.59375 63.09375 13.40625 68.65625 
Q 20.21875 74.21875 32.171875 74.21875 
Q 37.3125 74.21875 42.625 73.28125 
Q 47.953125 72.359375 53.515625 70.515625 
z
" id="DejaVuSans-83"/>
     <path d="M 9.8125 72.90625 
L 23.09375 72.90625 
L 55.421875 11.921875 
L 55.421875 72.90625 
L 64.984375 72.90625 
L 64.984375 0 
L 51.703125 0 
L 19.390625 60.984375 
L 19.390625 0 
L 9.8125 0 
z
" id="DejaVuSans-78"/>
     <path d="M 9.8125 72.90625 
L 55.90625 72.90625 
L 55.90625 64.59375 
L 19.671875 64.59375 
L 19.671875 43.015625 
L 54.390625 43.015625 
L 54.390625 34.71875 
L 19.671875 34.71875 
L 19.671875 8.296875 
L 56.78125 8.296875 
L 56.78125 0 
L 9.8125 0 
z
" id="DejaVuSans-69"/>
    </defs>
    <g style="fill:#003847;" transform="translate(486.876875 16.318125)scale(0.12 -0.12)">
     <use xlink:href="#DejaVuSans-116"/>
     <use x="39.208984" xlink:href="#DejaVuSans-45"/>
     <use x="75.292969" xlink:href="#DejaVuSans-83"/>
     <use x="138.769531" xlink:href="#DejaVuSans-78"/>
     <use x="213.574219" xlink:href="#DejaVuSans-69"/>
    </g>
   </g>
   <g id="legend_1">
    <g id="patch_2">
     <path d="M 231.482813 213.014125 
L 483.692188 213.014125 
Q 485.692188 213.014125 485.692188 211.014125 
L 485.692188 197.336 
Q 485.692188 195.336 483.692188 195.336 
L 231.482813 195.336 
Q 229.482813 195.336 229.482813 197.336 
L 229.482813 211.014125 
Q 229.482813 213.014125 231.482813 213.014125 
z
" style="fill:#bbcbcb;opacity:0.2;stroke:#0c6575;stroke-linejoin:miter;"/>
    </g>
    <g id="PathCollection_7">
     <path d="M 236.743709 201.929144 
Q 236.140115 201.929144 235.835219 202.524063 
Q 235.531563 203.117742 235.531563 204.311297 
Q 235.531563 205.499894 235.835219 206.094812 
Q 236.140115 206.689731 236.743709 206.689731 
Q 237.352261 206.689731 237.655917 206.094812 
Q 237.960813 205.499894 237.960813 204.311297 
Q 237.960813 203.117742 237.655917 202.524063 
Q 237.352261 201.929144 236.743709 201.929144 
z
M 236.743709 201.309438 
Q 237.716648 201.309438 238.229766 202.079113 
Q 238.742883 202.847549 238.742883 204.311297 
Q 238.742883 205.771326 238.229766 206.541001 
Q 237.716648 207.309438 236.743709 207.309438 
Q 235.772009 207.309438 235.258892 206.541001 
Q 234.745775 205.771326 234.745775 204.311297 
Q 234.745775 202.847549 235.258892 202.079113 
Q 235.772009 201.309438 236.743709 201.309438 
z
" style="fill:#0c6575;stroke:#0c6575;"/>
     <path d="M 243.743709 201.054144 
Q 243.140115 201.054144 242.835219 201.649063 
Q 242.531563 202.242742 242.531563 203.436297 
Q 242.531563 204.624894 242.835219 205.219812 
Q 243.140115 205.814731 243.743709 205.814731 
Q 244.352261 205.814731 244.655917 205.219812 
Q 244.960813 204.624894 244.960813 203.436297 
Q 244.960813 202.242742 244.655917 201.649063 
Q 244.352261 201.054144 243.743709 201.054144 
z
M 243.743709 200.434438 
Q 244.716648 200.434438 245.229766 201.204113 
Q 245.742883 201.972549 245.742883 203.436297 
Q 245.742883 204.896326 245.229766 205.666001 
Q 244.716648 206.434438 243.743709 206.434438 
Q 242.772009 206.434438 242.258892 205.666001 
Q 241.745775 204.896326 241.745775 203.436297 
Q 241.745775 201.972549 242.258892 201.204113 
Q 242.772009 200.434438 243.743709 200.434438 
z
" style="fill:#0c6575;stroke:#0c6575;"/>
     <path d="M 250.743709 202.366644 
Q 250.140115 202.366644 249.835219 202.961563 
Q 249.531563 203.555242 249.531563 204.748797 
Q 249.531563 205.937394 249.835219 206.532312 
Q 250.140115 207.127231 250.743709 207.127231 
Q 251.352261 207.127231 251.655917 206.532312 
Q 251.960813 205.937394 251.960813 204.748797 
Q 251.960813 203.555242 251.655917 202.961563 
Q 251.352261 202.366644 250.743709 202.366644 
z
M 250.743709 201.746938 
Q 251.716648 201.746938 252.229766 202.516613 
Q 252.742883 203.285049 252.742883 204.748797 
Q 252.742883 206.208826 252.229766 206.978501 
Q 251.716648 207.746938 250.743709 207.746938 
Q 249.772009 207.746938 249.258892 206.978501 
Q 248.745775 206.208826 248.745775 204.748797 
Q 248.745775 203.285049 249.258892 202.516613 
Q 249.772009 201.746938 250.743709 201.746938 
z
" style="fill:#0c6575;stroke:#0c6575;"/>
    </g>
    <g id="text_3">
     <!-- setosa -->
     <defs>
      <path d="M 44.28125 53.078125 
L 44.28125 44.578125 
Q 40.484375 46.53125 36.375 47.5 
Q 32.28125 48.484375 27.875 48.484375 
Q 21.1875 48.484375 17.84375 46.4375 
Q 14.5 44.390625 14.5 40.28125 
Q 14.5 37.15625 16.890625 35.375 
Q 19.28125 33.59375 26.515625 31.984375 
L 29.59375 31.296875 
Q 39.15625 29.25 43.1875 25.515625 
Q 47.21875 21.78125 47.21875 15.09375 
Q 47.21875 7.46875 41.1875 3.015625 
Q 35.15625 -1.421875 24.609375 -1.421875 
Q 20.21875 -1.421875 15.453125 -0.5625 
Q 10.6875 0.296875 5.421875 2 
L 5.421875 11.28125 
Q 10.40625 8.6875 15.234375 7.390625 
Q 20.0625 6.109375 24.8125 6.109375 
Q 31.15625 6.109375 34.5625 8.28125 
Q 37.984375 10.453125 37.984375 14.40625 
Q 37.984375 18.0625 35.515625 20.015625 
Q 33.0625 21.96875 24.703125 23.78125 
L 21.578125 24.515625 
Q 13.234375 26.265625 9.515625 29.90625 
Q 5.8125 33.546875 5.8125 39.890625 
Q 5.8125 47.609375 11.28125 51.796875 
Q 16.75 56 26.8125 56 
Q 31.78125 56 36.171875 55.265625 
Q 40.578125 54.546875 44.28125 53.078125 
z
" id="DejaVuSans-115"/>
      <path d="M 56.203125 29.59375 
L 56.203125 25.203125 
L 14.890625 25.203125 
Q 15.484375 15.921875 20.484375 11.0625 
Q 25.484375 6.203125 34.421875 6.203125 
Q 39.59375 6.203125 44.453125 7.46875 
Q 49.3125 8.734375 54.109375 11.28125 
L 54.109375 2.78125 
Q 49.265625 0.734375 44.1875 -0.34375 
Q 39.109375 -1.421875 33.890625 -1.421875 
Q 20.796875 -1.421875 13.15625 6.1875 
Q 5.515625 13.8125 5.515625 26.8125 
Q 5.515625 40.234375 12.765625 48.109375 
Q 20.015625 56 32.328125 56 
Q 43.359375 56 49.78125 48.890625 
Q 56.203125 41.796875 56.203125 29.59375 
z
M 47.21875 32.234375 
Q 47.125 39.59375 43.09375 43.984375 
Q 39.0625 48.390625 32.421875 48.390625 
Q 24.90625 48.390625 20.390625 44.140625 
Q 15.875 39.890625 15.1875 32.171875 
z
" id="DejaVuSans-101"/>
      <path d="M 30.609375 48.390625 
Q 23.390625 48.390625 19.1875 42.75 
Q 14.984375 37.109375 14.984375 27.296875 
Q 14.984375 17.484375 19.15625 11.84375 
Q 23.34375 6.203125 30.609375 6.203125 
Q 37.796875 6.203125 41.984375 11.859375 
Q 46.1875 17.53125 46.1875 27.296875 
Q 46.1875 37.015625 41.984375 42.703125 
Q 37.796875 48.390625 30.609375 48.390625 
z
M 30.609375 56 
Q 42.328125 56 49.015625 48.375 
Q 55.71875 40.765625 55.71875 27.296875 
Q 55.71875 13.875 49.015625 6.21875 
Q 42.328125 -1.421875 30.609375 -1.421875 
Q 18.84375 -1.421875 12.171875 6.21875 
Q 5.515625 13.875 5.515625 27.296875 
Q 5.515625 40.765625 12.171875 48.375 
Q 18.84375 56 30.609375 56 
z
" id="DejaVuSans-111"/>
      <path d="M 34.28125 27.484375 
Q 23.390625 27.484375 19.1875 25 
Q 14.984375 22.515625 14.984375 16.5 
Q 14.984375 11.71875 18.140625 8.90625 
Q 21.296875 6.109375 26.703125 6.109375 
Q 34.1875 6.109375 38.703125 11.40625 
Q 43.21875 16.703125 43.21875 25.484375 
L 43.21875 27.484375 
z
M 52.203125 31.203125 
L 52.203125 0 
L 43.21875 0 
L 43.21875 8.296875 
Q 40.140625 3.328125 35.546875 0.953125 
Q 30.953125 -1.421875 24.3125 -1.421875 
Q 15.921875 -1.421875 10.953125 3.296875 
Q 6 8.015625 6 15.921875 
Q 6 25.140625 12.171875 29.828125 
Q 18.359375 34.515625 30.609375 34.515625 
L 43.21875 34.515625 
L 43.21875 35.40625 
Q 43.21875 41.609375 39.140625 45 
Q 35.0625 48.390625 27.6875 48.390625 
Q 23 48.390625 18.546875 47.265625 
Q 14.109375 46.140625 10.015625 43.890625 
L 10.015625 52.203125 
Q 14.9375 54.109375 19.578125 55.046875 
Q 24.21875 56 28.609375 56 
Q 40.484375 56 46.34375 49.84375 
Q 52.203125 43.703125 52.203125 31.203125 
z
" id="DejaVuSans-97"/>
     </defs>
     <g transform="translate(261.482813 206.934438)scale(0.1 -0.1)">
      <use xlink:href="#DejaVuSans-115"/>
      <use x="52.099609" xlink:href="#DejaVuSans-101"/>
      <use x="113.623047" xlink:href="#DejaVuSans-116"/>
      <use x="152.832031" xlink:href="#DejaVuSans-111"/>
      <use x="214.013672" xlink:href="#DejaVuSans-115"/>
      <use x="266.113281" xlink:href="#DejaVuSans-97"/>
     </g>
    </g>
    <g id="PathCollection_8">
     <path d="M 316.004773 206.626626 
L 317.330533 206.626626 
L 317.330533 202.048829 
L 315.887756 202.338156 
L 315.887756 201.598765 
L 317.322818 201.309438 
L 318.13422 201.309438 
L 318.13422 206.626626 
L 319.45998 206.626626 
L 319.45998 207.309438 
L 316.004773 207.309438 
z
" style="fill:#bbcbcb;stroke:#bbcbcb;"/>
     <path d="M 323.004773 205.751626 
L 324.330533 205.751626 
L 324.330533 201.173829 
L 322.887756 201.463156 
L 322.887756 200.723765 
L 324.322818 200.434438 
L 325.13422 200.434438 
L 325.13422 205.751626 
L 326.45998 205.751626 
L 326.45998 206.434438 
L 323.004773 206.434438 
z
" style="fill:#bbcbcb;stroke:#bbcbcb;"/>
     <path d="M 330.004773 207.064126 
L 331.330533 207.064126 
L 331.330533 202.486329 
L 329.887756 202.775656 
L 329.887756 202.036265 
L 331.322818 201.746938 
L 332.13422 201.746938 
L 332.13422 207.064126 
L 333.45998 207.064126 
L 333.45998 207.746938 
L 330.004773 207.746938 
z
" style="fill:#bbcbcb;stroke:#bbcbcb;"/>
    </g>
    <g id="text_4">
     <!-- versicolor -->
     <defs>
      <path d="M 2.984375 54.6875 
L 12.5 54.6875 
L 29.59375 8.796875 
L 46.6875 54.6875 
L 56.203125 54.6875 
L 35.6875 0 
L 23.484375 0 
z
" id="DejaVuSans-118"/>
      <path d="M 41.109375 46.296875 
Q 39.59375 47.171875 37.8125 47.578125 
Q 36.03125 48 33.890625 48 
Q 26.265625 48 22.1875 43.046875 
Q 18.109375 38.09375 18.109375 28.8125 
L 18.109375 0 
L 9.078125 0 
L 9.078125 54.6875 
L 18.109375 54.6875 
L 18.109375 46.1875 
Q 20.953125 51.171875 25.484375 53.578125 
Q 30.03125 56 36.53125 56 
Q 37.453125 56 38.578125 55.875 
Q 39.703125 55.765625 41.0625 55.515625 
z
" id="DejaVuSans-114"/>
      <path d="M 9.421875 54.6875 
L 18.40625 54.6875 
L 18.40625 0 
L 9.421875 0 
z
M 9.421875 75.984375 
L 18.40625 75.984375 
L 18.40625 64.59375 
L 9.421875 64.59375 
z
" id="DejaVuSans-105"/>
      <path d="M 48.78125 52.59375 
L 48.78125 44.1875 
Q 44.96875 46.296875 41.140625 47.34375 
Q 37.3125 48.390625 33.40625 48.390625 
Q 24.65625 48.390625 19.8125 42.84375 
Q 14.984375 37.3125 14.984375 27.296875 
Q 14.984375 17.28125 19.8125 11.734375 
Q 24.65625 6.203125 33.40625 6.203125 
Q 37.3125 6.203125 41.140625 7.25 
Q 44.96875 8.296875 48.78125 10.40625 
L 48.78125 2.09375 
Q 45.015625 0.34375 40.984375 -0.53125 
Q 36.96875 -1.421875 32.421875 -1.421875 
Q 20.0625 -1.421875 12.78125 6.34375 
Q 5.515625 14.109375 5.515625 27.296875 
Q 5.515625 40.671875 12.859375 48.328125 
Q 20.21875 56 33.015625 56 
Q 37.15625 56 41.109375 55.140625 
Q 45.0625 54.296875 48.78125 52.59375 
z
" id="DejaVuSans-99"/>
      <path d="M 9.421875 75.984375 
L 18.40625 75.984375 
L 18.40625 0 
L 9.421875 0 
z
" id="DejaVuSans-108"/>
     </defs>
     <g transform="translate(342.221875 206.934438)scale(0.1 -0.1)">
      <use xlink:href="#DejaVuSans-118"/>
      <use x="59.179688" xlink:href="#DejaVuSans-101"/>
      <use x="120.703125" xlink:href="#DejaVuSans-114"/>
      <use x="161.816406" xlink:href="#DejaVuSans-115"/>
      <use x="213.916016" xlink:href="#DejaVuSans-105"/>
      <use x="241.699219" xlink:href="#DejaVuSans-99"/>
      <use x="296.679688" xlink:href="#DejaVuSans-111"/>
      <use x="357.861328" xlink:href="#DejaVuSans-108"/>
      <use x="385.644531" xlink:href="#DejaVuSans-111"/>
      <use x="446.826172" xlink:href="#DejaVuSans-114"/>
     </g>
    </g>
    <g id="PathCollection_9">
     <path d="M 413.401398 206.638701 
L 416.184135 206.638701 
L 416.184135 207.309438 
L 412.442661 207.309438 
L 412.442661 206.638701 
Q 412.896135 206.168806 413.679293 205.378069 
Q 414.463714 204.586069 414.664556 204.356174 
Q 415.047293 203.926701 415.198872 203.628595 
Q 415.351714 203.33049 415.351714 203.04249 
Q 415.351714 202.572595 415.02203 202.277016 
Q 414.692345 201.980174 414.163082 201.980174 
Q 413.787924 201.980174 413.371082 202.11028 
Q 412.955503 202.240385 412.481819 202.505648 
L 412.481819 201.699753 
Q 412.963082 201.50649 413.381188 201.407964 
Q 413.800556 201.309438 414.147924 201.309438 
Q 415.063714 201.309438 415.608135 201.767964 
Q 416.152556 202.225227 416.152556 202.990701 
Q 416.152556 203.35449 416.016135 203.680385 
Q 415.880977 204.005016 415.520977 204.447122 
Q 415.422451 204.562069 414.893188 205.109016 
Q 414.365188 205.655964 413.401398 206.638701 
z
" style="fill:#23a98c;stroke:#23a98c;"/>
     <path d="M 420.401398 205.763701 
L 423.184135 205.763701 
L 423.184135 206.434438 
L 419.442661 206.434438 
L 419.442661 205.763701 
Q 419.896135 205.293806 420.679293 204.503069 
Q 421.463714 203.711069 421.664556 203.481174 
Q 422.047293 203.051701 422.198872 202.753595 
Q 422.351714 202.45549 422.351714 202.16749 
Q 422.351714 201.697595 422.02203 201.402016 
Q 421.692345 201.105174 421.163082 201.105174 
Q 420.787924 201.105174 420.371082 201.23528 
Q 419.955503 201.365385 419.481819 201.630648 
L 419.481819 200.824753 
Q 419.963082 200.63149 420.381188 200.532964 
Q 420.800556 200.434438 421.147924 200.434438 
Q 422.063714 200.434438 422.608135 200.892964 
Q 423.152556 201.350227 423.152556 202.115701 
Q 423.152556 202.47949 423.016135 202.805385 
Q 422.880977 203.130016 422.520977 203.572122 
Q 422.422451 203.687069 421.893188 204.234016 
Q 421.365188 204.780964 420.401398 205.763701 
z
" style="fill:#23a98c;stroke:#23a98c;"/>
     <path d="M 427.401398 207.076201 
L 430.184135 207.076201 
L 430.184135 207.746938 
L 426.442661 207.746938 
L 426.442661 207.076201 
Q 426.896135 206.606306 427.679293 205.815569 
Q 428.463714 205.023569 428.664556 204.793674 
Q 429.047293 204.364201 429.198872 204.066095 
Q 429.351714 203.76799 429.351714 203.47999 
Q 429.351714 203.010095 429.02203 202.714516 
Q 428.692345 202.417674 428.163082 202.417674 
Q 427.787924 202.417674 427.371082 202.54778 
Q 426.955503 202.677885 426.481819 202.943148 
L 426.481819 202.137253 
Q 426.963082 201.94399 427.381188 201.845464 
Q 427.800556 201.746938 428.147924 201.746938 
Q 429.063714 201.746938 429.608135 202.205464 
Q 430.152556 202.662727 430.152556 203.428201 
Q 430.152556 203.79199 430.016135 204.117885 
Q 429.880977 204.442516 429.520977 204.884622 
Q 429.422451 204.999569 428.893188 205.546516 
Q 428.365188 206.093464 427.401398 207.076201 
z
" style="fill:#23a98c;stroke:#23a98c;"/>
    </g>
    <g id="text_5">
     <!-- virginica -->
     <defs>
      <path d="M 45.40625 27.984375 
Q 45.40625 37.75 41.375 43.109375 
Q 37.359375 48.484375 30.078125 48.484375 
Q 22.859375 48.484375 18.828125 43.109375 
Q 14.796875 37.75 14.796875 27.984375 
Q 14.796875 18.265625 18.828125 12.890625 
Q 22.859375 7.515625 30.078125 7.515625 
Q 37.359375 7.515625 41.375 12.890625 
Q 45.40625 18.265625 45.40625 27.984375 
z
M 54.390625 6.78125 
Q 54.390625 -7.171875 48.1875 -13.984375 
Q 42 -20.796875 29.203125 -20.796875 
Q 24.46875 -20.796875 20.265625 -20.09375 
Q 16.0625 -19.390625 12.109375 -17.921875 
L 12.109375 -9.1875 
Q 16.0625 -11.328125 19.921875 -12.34375 
Q 23.78125 -13.375 27.78125 -13.375 
Q 36.625 -13.375 41.015625 -8.765625 
Q 45.40625 -4.15625 45.40625 5.171875 
L 45.40625 9.625 
Q 42.625 4.78125 38.28125 2.390625 
Q 33.9375 0 27.875 0 
Q 17.828125 0 11.671875 7.65625 
Q 5.515625 15.328125 5.515625 27.984375 
Q 5.515625 40.671875 11.671875 48.328125 
Q 17.828125 56 27.875 56 
Q 33.9375 56 38.28125 53.609375 
Q 42.625 51.21875 45.40625 46.390625 
L 45.40625 54.6875 
L 54.390625 54.6875 
z
" id="DejaVuSans-103"/>
      <path d="M 54.890625 33.015625 
L 54.890625 0 
L 45.90625 0 
L 45.90625 32.71875 
Q 45.90625 40.484375 42.875 44.328125 
Q 39.84375 48.1875 33.796875 48.1875 
Q 26.515625 48.1875 22.3125 43.546875 
Q 18.109375 38.921875 18.109375 30.90625 
L 18.109375 0 
L 9.078125 0 
L 9.078125 54.6875 
L 18.109375 54.6875 
L 18.109375 46.1875 
Q 21.34375 51.125 25.703125 53.5625 
Q 30.078125 56 35.796875 56 
Q 45.21875 56 50.046875 50.171875 
Q 54.890625 44.34375 54.890625 33.015625 
z
" id="DejaVuSans-110"/>
     </defs>
     <g transform="translate(439.017188 206.934438)scale(0.1 -0.1)">
      <use xlink:href="#DejaVuSans-118"/>
      <use x="59.179688" xlink:href="#DejaVuSans-105"/>
      <use x="86.962891" xlink:href="#DejaVuSans-114"/>
      <use x="128.060547" xlink:href="#DejaVuSans-103"/>
      <use x="191.537109" xlink:href="#DejaVuSans-105"/>
      <use x="219.320312" xlink:href="#DejaVuSans-110"/>
      <use x="282.699219" xlink:href="#DejaVuSans-105"/>
      <use x="310.482422" xlink:href="#DejaVuSans-99"/>
      <use x="365.462891" xlink:href="#DejaVuSans-97"/>
     </g>
    </g>
   </g>
  </g>
 </g>
 <defs>
  <clipPath id="p27ce8b148d">
   <rect height="217.44" width="186" x="38.482813" y="22.318125"/>
  </clipPath>
  <clipPath id="pe1220a1287">
   <rect height="217.44" width="186" x="410.482813" y="22.318125"/>
  </clipPath>
 </defs>
</svg>
