<?xml version="1.0" encoding="utf-8" standalone="no"?>
<!DOCTYPE svg PUBLIC "-//W3C//DTD SVG 1.1//EN"
  "http://www.w3.org/Graphics/SVG/1.1/DTD/svg11.dtd">
<!-- Created with matplotlib (https://matplotlib.org/) -->
<svg height="130.12pt" version="1.1" viewBox="0 0 691 130.12" width="691pt" xmlns="http://www.w3.org/2000/svg" xmlns:xlink="http://www.w3.org/1999/xlink">
 <defs>
  <style type="text/css">
*{stroke-linecap:butt;stroke-linejoin:round;}
  </style>
 </defs>
 <g id="figure_1">
  <g id="patch_1">
   <path d="M 0 130.12 
L 691 130.12 
L 691 0 
L 0 0 
z
" style="fill:#ffffff;"/>
  </g>
  <g id="axes_1">
   <g id="patch_2">
    <path d="M 10.7 119.42 
L 680.3 119.42 
L 680.3 10.7 
L 10.7 10.7 
z
" style="fill:#ffffff;"/>
   </g>
   <g id="matplotlib.axis_1"/>
   <g id="matplotlib.axis_2"/>
   <g id="line2d_1">
    <defs>
     <path d="M -3 0 
L 3 0 
M 0 3 
L 0 -3 
" id="md356032176" style="stroke:#808080;"/>
    </defs>
    <g clip-path="url(#p4e73910058)">
     <use style="fill:#808080;stroke:#808080;" x="77.66" xlink:href="#md356032176" y="97.699759"/>
     <use style="fill:#808080;stroke:#808080;" x="184.796" xlink:href="#md356032176" y="47.115454"/>
     <use style="fill:#808080;stroke:#808080;" x="291.932" xlink:href="#md356032176" y="64.704608"/>
     <use style="fill:#808080;stroke:#808080;" x="399.068" xlink:href="#md356032176" y="83.643938"/>
     <use style="fill:#808080;stroke:#808080;" x="506.204" xlink:href="#md356032176" y="31.980683"/>
     <use style="fill:#808080;stroke:#808080;" x="613.34" xlink:href="#md356032176" y="105.989679"/>
    </g>
   </g>
   <g id="patch_3">
    <path d="M 10.7 119.42 
L 10.7 10.7 
" style="fill:none;stroke:#aaaaaa;stroke-linecap:square;stroke-linejoin:miter;stroke-width:0.8;"/>
   </g>
   <g id="patch_4">
    <path d="M 680.3 119.42 
L 680.3 10.7 
" style="fill:none;stroke:#aaaaaa;stroke-linecap:square;stroke-linejoin:miter;stroke-width:0.8;"/>
   </g>
   <g id="patch_5">
    <path d="M 10.7 119.42 
L 680.3 119.42 
" style="fill:none;stroke:#aaaaaa;stroke-linecap:square;stroke-linejoin:miter;stroke-width:0.8;"/>
   </g>
   <g id="patch_6">
    <path d="M 10.7 10.7 
L 680.3 10.7 
" style="fill:none;stroke:#aaaaaa;stroke-linecap:square;stroke-linejoin:miter;stroke-width:0.8;"/>
   </g>
   <g id="text_1">
    <!-- Simple text -->
    <defs>
     <path d="M 53.515625 70.515625 
L 53.515625 60.890625 
Q 47.90625 63.578125 42.921875 64.890625 
Q 37.9375 66.21875 33.296875 66.21875 
Q 25.25 66.21875 20.875 63.09375 
Q 16.5 59.96875 16.5 54.203125 
Q 16.5 49.359375 19.40625 46.890625 
Q 22.3125 44.4375 30.421875 42.921875 
L 36.375 41.703125 
Q 47.40625 39.59375 52.65625 34.296875 
Q 57.90625 29 57.90625 20.125 
Q 57.90625 9.515625 50.796875 4.046875 
Q 43.703125 -1.421875 29.984375 -1.421875 
Q 24.8125 -1.421875 18.96875 -0.25 
Q 13.140625 0.921875 6.890625 3.21875 
L 6.890625 13.375 
Q 12.890625 10.015625 18.65625 8.296875 
Q 24.421875 6.59375 29.984375 6.59375 
Q 38.421875 6.59375 43.015625 9.90625 
Q 47.609375 13.234375 47.609375 19.390625 
Q 47.609375 24.75 44.3125 27.78125 
Q 41.015625 30.8125 33.5 32.328125 
L 27.484375 33.5 
Q 16.453125 35.6875 11.515625 40.375 
Q 6.59375 45.0625 6.59375 53.421875 
Q 6.59375 63.09375 13.40625 68.65625 
Q 20.21875 74.21875 32.171875 74.21875 
Q 37.3125 74.21875 42.625 73.28125 
Q 47.953125 72.359375 53.515625 70.515625 
z
" id="DejaVuSans-83"/>
     <path d="M 9.421875 54.6875 
L 18.40625 54.6875 
L 18.40625 0 
L 9.421875 0 
z
M 9.421875 75.984375 
L 18.40625 75.984375 
L 18.40625 64.59375 
L 9.421875 64.59375 
z
" id="DejaVuSans-105"/>
     <path d="M 52 44.1875 
Q 55.375 50.25 60.0625 53.125 
Q 64.75 56 71.09375 56 
Q 79.640625 56 84.28125 50.015625 
Q 88.921875 44.046875 88.921875 33.015625 
L 88.921875 0 
L 79.890625 0 
L 79.890625 32.71875 
Q 79.890625 40.578125 77.09375 44.375 
Q 74.3125 48.1875 68.609375 48.1875 
Q 61.625 48.1875 57.5625 43.546875 
Q 53.515625 38.921875 53.515625 30.90625 
L 53.515625 0 
L 44.484375 0 
L 44.484375 32.71875 
Q 44.484375 40.625 41.703125 44.40625 
Q 38.921875 48.1875 33.109375 48.1875 
Q 26.21875 48.1875 22.15625 43.53125 
Q 18.109375 38.875 18.109375 30.90625 
L 18.109375 0 
L 9.078125 0 
L 9.078125 54.6875 
L 18.109375 54.6875 
L 18.109375 46.1875 
Q 21.1875 51.21875 25.484375 53.609375 
Q 29.78125 56 35.6875 56 
Q 41.65625 56 45.828125 52.96875 
Q 50 49.953125 52 44.1875 
z
" id="DejaVuSans-109"/>
     <path d="M 18.109375 8.203125 
L 18.109375 -20.796875 
L 9.078125 -20.796875 
L 9.078125 54.6875 
L 18.109375 54.6875 
L 18.109375 46.390625 
Q 20.953125 51.265625 25.265625 53.625 
Q 29.59375 56 35.59375 56 
Q 45.5625 56 51.78125 48.09375 
Q 58.015625 40.1875 58.015625 27.296875 
Q 58.015625 14.40625 51.78125 6.484375 
Q 45.5625 -1.421875 35.59375 -1.421875 
Q 29.59375 -1.421875 25.265625 0.953125 
Q 20.953125 3.328125 18.109375 8.203125 
z
M 48.6875 27.296875 
Q 48.6875 37.203125 44.609375 42.84375 
Q 40.53125 48.484375 33.40625 48.484375 
Q 26.265625 48.484375 22.1875 42.84375 
Q 18.109375 37.203125 18.109375 27.296875 
Q 18.109375 17.390625 22.1875 11.75 
Q 26.265625 6.109375 33.40625 6.109375 
Q 40.53125 6.109375 44.609375 11.75 
Q 48.6875 17.390625 48.6875 27.296875 
z
" id="DejaVuSans-112"/>
     <path d="M 9.421875 75.984375 
L 18.40625 75.984375 
L 18.40625 0 
L 9.421875 0 
z
" id="DejaVuSans-108"/>
     <path d="M 56.203125 29.59375 
L 56.203125 25.203125 
L 14.890625 25.203125 
Q 15.484375 15.921875 20.484375 11.0625 
Q 25.484375 6.203125 34.421875 6.203125 
Q 39.59375 6.203125 44.453125 7.46875 
Q 49.3125 8.734375 54.109375 11.28125 
L 54.109375 2.78125 
Q 49.265625 0.734375 44.1875 -0.34375 
Q 39.109375 -1.421875 33.890625 -1.421875 
Q 20.796875 -1.421875 13.15625 6.1875 
Q 5.515625 13.8125 5.515625 26.8125 
Q 5.515625 40.234375 12.765625 48.109375 
Q 20.015625 56 32.328125 56 
Q 43.359375 56 49.78125 48.890625 
Q 56.203125 41.796875 56.203125 29.59375 
z
M 47.21875 32.234375 
Q 47.125 39.59375 43.09375 43.984375 
Q 39.0625 48.390625 32.421875 48.390625 
Q 24.90625 48.390625 20.390625 44.140625 
Q 15.875 39.890625 15.1875 32.171875 
z
" id="DejaVuSans-101"/>
     <path id="DejaVuSans-32"/>
     <path d="M 18.3125 70.21875 
L 18.3125 54.6875 
L 36.8125 54.6875 
L 36.8125 47.703125 
L 18.3125 47.703125 
L 18.3125 18.015625 
Q 18.3125 11.328125 20.140625 9.421875 
Q 21.96875 7.515625 27.59375 7.515625 
L 36.8125 7.515625 
L 36.8125 0 
L 27.59375 0 
Q 17.1875 0 13.234375 3.875 
Q 9.28125 7.765625 9.28125 18.015625 
L 9.28125 47.703125 
L 2.6875 47.703125 
L 2.6875 54.6875 
L 9.28125 54.6875 
L 9.28125 70.21875 
z
" id="DejaVuSans-116"/>
     <path d="M 54.890625 54.6875 
L 35.109375 28.078125 
L 55.90625 0 
L 45.3125 0 
L 29.390625 21.484375 
L 13.484375 0 
L 2.875 0 
L 24.125 28.609375 
L 4.6875 54.6875 
L 15.28125 54.6875 
L 29.78125 35.203125 
L 44.28125 54.6875 
z
" id="DejaVuSans-120"/>
    </defs>
    <g transform="translate(77.66 97.699759)scale(0.1 -0.1)">
     <use xlink:href="#DejaVuSans-83"/>
     <use x="63.476562" xlink:href="#DejaVuSans-105"/>
     <use x="91.259766" xlink:href="#DejaVuSans-109"/>
     <use x="188.671875" xlink:href="#DejaVuSans-112"/>
     <use x="252.148438" xlink:href="#DejaVuSans-108"/>
     <use x="279.931641" xlink:href="#DejaVuSans-101"/>
     <use x="341.455078" xlink:href="#DejaVuSans-32"/>
     <use x="373.242188" xlink:href="#DejaVuSans-116"/>
     <use x="412.451172" xlink:href="#DejaVuSans-101"/>
     <use x="473.958984" xlink:href="#DejaVuSans-120"/>
     <use x="533.138672" xlink:href="#DejaVuSans-116"/>
    </g>
   </g>
   <g id="text_2">
    <!-- Alignement -->
    <defs>
     <path d="M 34.1875 63.1875 
L 20.796875 26.90625 
L 47.609375 26.90625 
z
M 28.609375 72.90625 
L 39.796875 72.90625 
L 67.578125 0 
L 57.328125 0 
L 50.6875 18.703125 
L 17.828125 18.703125 
L 11.1875 0 
L 0.78125 0 
z
" id="DejaVuSans-65"/>
     <path d="M 45.40625 27.984375 
Q 45.40625 37.75 41.375 43.109375 
Q 37.359375 48.484375 30.078125 48.484375 
Q 22.859375 48.484375 18.828125 43.109375 
Q 14.796875 37.75 14.796875 27.984375 
Q 14.796875 18.265625 18.828125 12.890625 
Q 22.859375 7.515625 30.078125 7.515625 
Q 37.359375 7.515625 41.375 12.890625 
Q 45.40625 18.265625 45.40625 27.984375 
z
M 54.390625 6.78125 
Q 54.390625 -7.171875 48.1875 -13.984375 
Q 42 -20.796875 29.203125 -20.796875 
Q 24.46875 -20.796875 20.265625 -20.09375 
Q 16.0625 -19.390625 12.109375 -17.921875 
L 12.109375 -9.1875 
Q 16.0625 -11.328125 19.921875 -12.34375 
Q 23.78125 -13.375 27.78125 -13.375 
Q 36.625 -13.375 41.015625 -8.765625 
Q 45.40625 -4.15625 45.40625 5.171875 
L 45.40625 9.625 
Q 42.625 4.78125 38.28125 2.390625 
Q 33.9375 0 27.875 0 
Q 17.828125 0 11.671875 7.65625 
Q 5.515625 15.328125 5.515625 27.984375 
Q 5.515625 40.671875 11.671875 48.328125 
Q 17.828125 56 27.875 56 
Q 33.9375 56 38.28125 53.609375 
Q 42.625 51.21875 45.40625 46.390625 
L 45.40625 54.6875 
L 54.390625 54.6875 
z
" id="DejaVuSans-103"/>
     <path d="M 54.890625 33.015625 
L 54.890625 0 
L 45.90625 0 
L 45.90625 32.71875 
Q 45.90625 40.484375 42.875 44.328125 
Q 39.84375 48.1875 33.796875 48.1875 
Q 26.515625 48.1875 22.3125 43.546875 
Q 18.109375 38.921875 18.109375 30.90625 
L 18.109375 0 
L 9.078125 0 
L 9.078125 54.6875 
L 18.109375 54.6875 
L 18.109375 46.1875 
Q 21.34375 51.125 25.703125 53.5625 
Q 30.078125 56 35.796875 56 
Q 45.21875 56 50.046875 50.171875 
Q 54.890625 44.34375 54.890625 33.015625 
z
" id="DejaVuSans-110"/>
    </defs>
    <g transform="translate(127.4085 54.713892)scale(0.1 -0.1)">
     <use xlink:href="#DejaVuSans-65"/>
     <use x="68.408203" xlink:href="#DejaVuSans-108"/>
     <use x="96.191406" xlink:href="#DejaVuSans-105"/>
     <use x="123.974609" xlink:href="#DejaVuSans-103"/>
     <use x="187.451172" xlink:href="#DejaVuSans-110"/>
     <use x="250.830078" xlink:href="#DejaVuSans-101"/>
     <use x="312.353516" xlink:href="#DejaVuSans-109"/>
     <use x="409.765625" xlink:href="#DejaVuSans-101"/>
     <use x="471.289062" xlink:href="#DejaVuSans-110"/>
     <use x="534.667969" xlink:href="#DejaVuSans-116"/>
    </g>
   </g>
   <g id="text_3">
    <!-- Rotation -->
    <defs>
     <path d="M 44.390625 34.1875 
Q 47.5625 33.109375 50.5625 29.59375 
Q 53.5625 26.078125 56.59375 19.921875 
L 66.609375 0 
L 56 0 
L 46.6875 18.703125 
Q 43.0625 26.03125 39.671875 28.421875 
Q 36.28125 30.8125 30.421875 30.8125 
L 19.671875 30.8125 
L 19.671875 0 
L 9.8125 0 
L 9.8125 72.90625 
L 32.078125 72.90625 
Q 44.578125 72.90625 50.734375 67.671875 
Q 56.890625 62.453125 56.890625 51.90625 
Q 56.890625 45.015625 53.6875 40.46875 
Q 50.484375 35.9375 44.390625 34.1875 
z
M 19.671875 64.796875 
L 19.671875 38.921875 
L 32.078125 38.921875 
Q 39.203125 38.921875 42.84375 42.21875 
Q 46.484375 45.515625 46.484375 51.90625 
Q 46.484375 58.296875 42.84375 61.546875 
Q 39.203125 64.796875 32.078125 64.796875 
z
" id="DejaVuSans-82"/>
     <path d="M 30.609375 48.390625 
Q 23.390625 48.390625 19.1875 42.75 
Q 14.984375 37.109375 14.984375 27.296875 
Q 14.984375 17.484375 19.15625 11.84375 
Q 23.34375 6.203125 30.609375 6.203125 
Q 37.796875 6.203125 41.984375 11.859375 
Q 46.1875 17.53125 46.1875 27.296875 
Q 46.1875 37.015625 41.984375 42.703125 
Q 37.796875 48.390625 30.609375 48.390625 
z
M 30.609375 56 
Q 42.328125 56 49.015625 48.375 
Q 55.71875 40.765625 55.71875 27.296875 
Q 55.71875 13.875 49.015625 6.21875 
Q 42.328125 -1.421875 30.609375 -1.421875 
Q 18.84375 -1.421875 12.171875 6.21875 
Q 5.515625 13.875 5.515625 27.296875 
Q 5.515625 40.765625 12.171875 48.375 
Q 18.84375 56 30.609375 56 
z
" id="DejaVuSans-111"/>
     <path d="M 34.28125 27.484375 
Q 23.390625 27.484375 19.1875 25 
Q 14.984375 22.515625 14.984375 16.5 
Q 14.984375 11.71875 18.140625 8.90625 
Q 21.296875 6.109375 26.703125 6.109375 
Q 34.1875 6.109375 38.703125 11.40625 
Q 43.21875 16.703125 43.21875 25.484375 
L 43.21875 27.484375 
z
M 52.203125 31.203125 
L 52.203125 0 
L 43.21875 0 
L 43.21875 8.296875 
Q 40.140625 3.328125 35.546875 0.953125 
Q 30.953125 -1.421875 24.3125 -1.421875 
Q 15.921875 -1.421875 10.953125 3.296875 
Q 6 8.015625 6 15.921875 
Q 6 25.140625 12.171875 29.828125 
Q 18.359375 34.515625 30.609375 34.515625 
L 43.21875 34.515625 
L 43.21875 35.40625 
Q 43.21875 41.609375 39.140625 45 
Q 35.0625 48.390625 27.6875 48.390625 
Q 23 48.390625 18.546875 47.265625 
Q 14.109375 46.140625 10.015625 43.890625 
L 10.015625 52.203125 
Q 14.9375 54.109375 19.578125 55.046875 
Q 24.21875 56 28.609375 56 
Q 40.484375 56 46.34375 49.84375 
Q 52.203125 43.703125 52.203125 31.203125 
z
" id="DejaVuSans-97"/>
    </defs>
    <g transform="translate(291.932 64.704608)rotate(-75)scale(0.1 -0.1)">
     <use xlink:href="#DejaVuSans-82"/>
     <use x="69.419922" xlink:href="#DejaVuSans-111"/>
     <use x="130.601562" xlink:href="#DejaVuSans-116"/>
     <use x="169.810547" xlink:href="#DejaVuSans-97"/>
     <use x="231.089844" xlink:href="#DejaVuSans-116"/>
     <use x="270.298828" xlink:href="#DejaVuSans-105"/>
     <use x="298.082031" xlink:href="#DejaVuSans-111"/>
     <use x="359.263672" xlink:href="#DejaVuSans-110"/>
    </g>
   </g>
   <g id="text_4">
    <!-- BIG IMPACT -->
    <defs>
     <path d="M 4.109375 79.046875 
L 24.609375 79.046875 
Q 34.328125 79.046875 39.328125 77.53125 
Q 44.34375 76.03125 47.40625 71.40625 
Q 50.484375 66.796875 50.484375 56.546875 
Q 50.484375 49.609375 48.3125 46.875 
Q 46.140625 44.140625 39.75 42.671875 
Q 46.875 41.0625 49.40625 37.328125 
Q 51.953125 33.59375 51.953125 25.875 
L 51.953125 18.5625 
Q 51.953125 10.546875 50.125 6.6875 
Q 48.296875 2.828125 44.28125 1.40625 
Q 40.28125 0 27.875 0 
L 4.109375 0 
z
M 24.65625 65.53125 
L 24.65625 47.953125 
Q 25.984375 48 26.703125 48 
Q 29.734375 48 30.5625 49.484375 
Q 31.390625 50.984375 31.390625 58.015625 
Q 31.390625 61.71875 30.703125 63.203125 
Q 30.03125 64.703125 28.921875 65.09375 
Q 27.828125 65.484375 24.65625 65.53125 
z
M 24.65625 35.640625 
L 24.65625 13.53125 
Q 29 13.671875 30.1875 14.890625 
Q 31.390625 16.109375 31.390625 20.90625 
L 31.390625 28.265625 
Q 31.390625 33.34375 30.3125 34.421875 
Q 29.25 35.5 24.65625 35.640625 
z
" id="Impact-66"/>
     <path d="M 24.65625 79.046875 
L 24.65625 0 
L 4.109375 0 
L 4.109375 79.046875 
z
" id="Impact-73"/>
     <path d="M 51.265625 49.953125 
L 30.71875 49.953125 
L 30.71875 57.125 
Q 30.71875 63.921875 30.125 65.625 
Q 29.546875 67.328125 27.34375 67.328125 
Q 25.4375 67.328125 24.75 65.859375 
Q 24.078125 64.40625 24.078125 58.34375 
L 24.078125 20.40625 
Q 24.078125 15.09375 24.75 13.40625 
Q 25.4375 11.71875 27.484375 11.71875 
Q 29.734375 11.71875 30.53125 13.625 
Q 31.34375 15.53125 31.34375 21.046875 
L 31.34375 30.421875 
L 27.203125 30.421875 
L 27.203125 42.4375 
L 51.265625 42.4375 
L 51.265625 0 
L 38.328125 0 
L 36.421875 5.671875 
Q 34.328125 2 31.125 0.171875 
Q 27.9375 -1.65625 23.578125 -1.65625 
Q 18.40625 -1.65625 13.890625 0.859375 
Q 9.375 3.375 7.03125 7.078125 
Q 4.6875 10.796875 4.09375 14.875 
Q 3.515625 18.953125 3.515625 27.09375 
L 3.515625 50.59375 
Q 3.515625 61.921875 4.734375 67.046875 
Q 5.953125 72.171875 11.734375 76.4375 
Q 17.53125 80.71875 26.703125 80.71875 
Q 35.75 80.71875 41.703125 77 
Q 47.65625 73.296875 49.453125 68.1875 
Q 51.265625 63.09375 51.265625 53.375 
z
" id="Impact-71"/>
     <path id="Impact-32"/>
     <path d="M 67.53125 79.046875 
L 67.53125 0 
L 49.5625 0 
L 49.5625 53.375 
L 42.390625 0 
L 29.640625 0 
L 22.078125 52.15625 
L 22.078125 0 
L 4.109375 0 
L 4.109375 79.046875 
L 30.71875 79.046875 
Q 31.890625 71.921875 33.203125 62.25 
L 36.03125 42.140625 
L 40.71875 79.046875 
z
" id="Impact-77"/>
     <path d="M 4.109375 79.046875 
L 24.8125 79.046875 
Q 33.203125 79.046875 37.71875 77.734375 
Q 42.234375 76.421875 44.5 73.921875 
Q 46.78125 71.4375 47.578125 67.890625 
Q 48.390625 64.359375 48.390625 56.9375 
L 48.390625 50.046875 
Q 48.390625 42.484375 46.828125 39.015625 
Q 45.265625 35.546875 41.09375 33.6875 
Q 36.921875 31.84375 30.171875 31.84375 
L 24.65625 31.84375 
L 24.65625 0 
L 4.109375 0 
z
M 24.65625 65.53125 
L 24.65625 45.40625 
Q 25.53125 45.359375 26.171875 45.359375 
Q 29 45.359375 30.09375 46.75 
Q 31.203125 48.140625 31.203125 52.546875 
L 31.203125 59.03125 
Q 31.203125 63.09375 29.921875 64.3125 
Q 28.65625 65.53125 24.65625 65.53125 
z
" id="Impact-80"/>
     <path d="M 39.59375 79.046875 
L 51.375 0 
L 30.328125 0 
L 29.296875 14.203125 
L 21.921875 14.203125 
L 20.703125 0 
L -0.59375 0 
L 9.859375 79.046875 
z
M 28.71875 28.21875 
Q 27.15625 41.65625 25.59375 61.375 
Q 22.46875 38.71875 21.6875 28.21875 
z
" id="Impact-65"/>
     <path d="M 52.09375 44.578125 
L 31.546875 44.578125 
L 31.546875 58.34375 
Q 31.546875 64.359375 30.875 65.84375 
Q 30.21875 67.328125 27.984375 67.328125 
Q 25.4375 67.328125 24.75 65.515625 
Q 24.078125 63.71875 24.078125 57.71875 
L 24.078125 21 
Q 24.078125 15.234375 24.75 13.46875 
Q 25.4375 11.71875 27.828125 11.71875 
Q 30.125 11.71875 30.828125 13.46875 
Q 31.546875 15.234375 31.546875 21.734375 
L 31.546875 31.640625 
L 52.09375 31.640625 
L 52.09375 28.5625 
Q 52.09375 16.3125 50.359375 11.1875 
Q 48.640625 6.0625 42.703125 2.203125 
Q 36.765625 -1.65625 28.078125 -1.65625 
Q 19.046875 -1.65625 13.1875 1.609375 
Q 7.328125 4.890625 5.421875 10.671875 
Q 3.515625 16.453125 3.515625 28.078125 
L 3.515625 51.171875 
Q 3.515625 59.71875 4.09375 63.984375 
Q 4.6875 68.265625 7.59375 72.21875 
Q 10.5 76.171875 15.640625 78.4375 
Q 20.796875 80.71875 27.484375 80.71875 
Q 36.578125 80.71875 42.484375 77.203125 
Q 48.390625 73.6875 50.234375 68.4375 
Q 52.09375 63.1875 52.09375 52.09375 
z
" id="Impact-67"/>
     <path d="M 45.515625 79.046875 
L 45.515625 63.234375 
L 33.296875 63.234375 
L 33.296875 0 
L 12.75 0 
L 12.75 63.234375 
L 0.59375 63.234375 
L 0.59375 79.046875 
z
" id="Impact-84"/>
    </defs>
    <g style="fill:#23a98c;" transform="translate(399.068 83.643938)scale(0.2 -0.2)">
     <use xlink:href="#Impact-66"/>
     <use x="55.224609" xlink:href="#Impact-73"/>
     <use x="84.033203" xlink:href="#Impact-71"/>
     <use x="139.160156" xlink:href="#Impact-32"/>
     <use x="156.787109" xlink:href="#Impact-73"/>
     <use x="185.595703" xlink:href="#Impact-77"/>
     <use x="257.275391" xlink:href="#Impact-80"/>
     <use x="307.439453" xlink:href="#Impact-65"/>
     <use x="358.220703" xlink:href="#Impact-67"/>
     <use x="413.591797" xlink:href="#Impact-84"/>
    </g>
   </g>
   <g id="text_5">
    <!-- $\Delta$ LaTeX is fine -->
    <defs>
     <path d="M 34.1875 63.1875 
L 14.15625 8.203125 
L 54.25 8.203125 
z
M 0.78125 0 
L 28.609375 72.90625 
L 39.796875 72.90625 
L 67.578125 0 
z
" id="DejaVuSans-916"/>
     <path d="M 9.8125 72.90625 
L 19.671875 72.90625 
L 19.671875 8.296875 
L 55.171875 8.296875 
L 55.171875 0 
L 9.8125 0 
z
" id="DejaVuSans-76"/>
     <path d="M -0.296875 72.90625 
L 61.375 72.90625 
L 61.375 64.59375 
L 35.5 64.59375 
L 35.5 0 
L 25.59375 0 
L 25.59375 64.59375 
L -0.296875 64.59375 
z
" id="DejaVuSans-84"/>
     <path d="M 6.296875 72.90625 
L 16.890625 72.90625 
L 35.015625 45.796875 
L 53.21875 72.90625 
L 63.8125 72.90625 
L 40.375 37.890625 
L 65.375 0 
L 54.78125 0 
L 34.28125 31 
L 13.625 0 
L 2.984375 0 
L 29 38.921875 
z
" id="DejaVuSans-88"/>
     <path d="M 44.28125 53.078125 
L 44.28125 44.578125 
Q 40.484375 46.53125 36.375 47.5 
Q 32.28125 48.484375 27.875 48.484375 
Q 21.1875 48.484375 17.84375 46.4375 
Q 14.5 44.390625 14.5 40.28125 
Q 14.5 37.15625 16.890625 35.375 
Q 19.28125 33.59375 26.515625 31.984375 
L 29.59375 31.296875 
Q 39.15625 29.25 43.1875 25.515625 
Q 47.21875 21.78125 47.21875 15.09375 
Q 47.21875 7.46875 41.1875 3.015625 
Q 35.15625 -1.421875 24.609375 -1.421875 
Q 20.21875 -1.421875 15.453125 -0.5625 
Q 10.6875 0.296875 5.421875 2 
L 5.421875 11.28125 
Q 10.40625 8.6875 15.234375 7.390625 
Q 20.0625 6.109375 24.8125 6.109375 
Q 31.15625 6.109375 34.5625 8.28125 
Q 37.984375 10.453125 37.984375 14.40625 
Q 37.984375 18.0625 35.515625 20.015625 
Q 33.0625 21.96875 24.703125 23.78125 
L 21.578125 24.515625 
Q 13.234375 26.265625 9.515625 29.90625 
Q 5.8125 33.546875 5.8125 39.890625 
Q 5.8125 47.609375 11.28125 51.796875 
Q 16.75 56 26.8125 56 
Q 31.78125 56 36.171875 55.265625 
Q 40.578125 54.546875 44.28125 53.078125 
z
" id="DejaVuSans-115"/>
     <path d="M 37.109375 75.984375 
L 37.109375 68.5 
L 28.515625 68.5 
Q 23.6875 68.5 21.796875 66.546875 
Q 19.921875 64.59375 19.921875 59.515625 
L 19.921875 54.6875 
L 34.71875 54.6875 
L 34.71875 47.703125 
L 19.921875 47.703125 
L 19.921875 0 
L 10.890625 0 
L 10.890625 47.703125 
L 2.296875 47.703125 
L 2.296875 54.6875 
L 10.890625 54.6875 
L 10.890625 58.5 
Q 10.890625 67.625 15.140625 71.796875 
Q 19.390625 75.984375 28.609375 75.984375 
z
" id="DejaVuSans-102"/>
    </defs>
    <g transform="translate(506.204 31.980683)scale(0.1 -0.1)">
     <use transform="translate(0 0.015625)" xlink:href="#DejaVuSans-916"/>
     <use transform="translate(68.408203 0.015625)" xlink:href="#DejaVuSans-32"/>
     <use transform="translate(100.195312 0.015625)" xlink:href="#DejaVuSans-76"/>
     <use transform="translate(155.908203 0.015625)" xlink:href="#DejaVuSans-97"/>
     <use transform="translate(217.1875 0.015625)" xlink:href="#DejaVuSans-84"/>
     <use transform="translate(278.271484 0.015625)" xlink:href="#DejaVuSans-101"/>
     <use transform="translate(339.794922 0.015625)" xlink:href="#DejaVuSans-88"/>
     <use transform="translate(408.300781 0.015625)" xlink:href="#DejaVuSans-32"/>
     <use transform="translate(440.087891 0.015625)" xlink:href="#DejaVuSans-105"/>
     <use transform="translate(467.871094 0.015625)" xlink:href="#DejaVuSans-115"/>
     <use transform="translate(519.970703 0.015625)" xlink:href="#DejaVuSans-32"/>
     <use transform="translate(551.757812 0.015625)" xlink:href="#DejaVuSans-102"/>
     <use transform="translate(586.962891 0.015625)" xlink:href="#DejaVuSans-105"/>
     <use transform="translate(614.746094 0.015625)" xlink:href="#DejaVuSans-110"/>
     <use transform="translate(678.125 0.015625)" xlink:href="#DejaVuSans-101"/>
    </g>
   </g>
   <g id="text_6">
    <g id="patch_7">
     <path d="M 613.34 116.069367 
L 638.069687 116.069367 
Q 646.069687 116.069367 646.069687 108.069367 
L 646.069687 98.391242 
Q 646.069687 90.391242 638.069687 90.391242 
L 613.34 90.391242 
Q 605.34 90.391242 605.34 98.391242 
L 605.34 108.069367 
Q 605.34 116.069367 613.34 116.069367 
z
" style="fill:#eeeeee;stroke:#0c6575;stroke-linejoin:miter;"/>
    </g>
    <!-- bbox -->
    <defs>
     <path d="M 48.6875 27.296875 
Q 48.6875 37.203125 44.609375 42.84375 
Q 40.53125 48.484375 33.40625 48.484375 
Q 26.265625 48.484375 22.1875 42.84375 
Q 18.109375 37.203125 18.109375 27.296875 
Q 18.109375 17.390625 22.1875 11.75 
Q 26.265625 6.109375 33.40625 6.109375 
Q 40.53125 6.109375 44.609375 11.75 
Q 48.6875 17.390625 48.6875 27.296875 
z
M 18.109375 46.390625 
Q 20.953125 51.265625 25.265625 53.625 
Q 29.59375 56 35.59375 56 
Q 45.5625 56 51.78125 48.09375 
Q 58.015625 40.1875 58.015625 27.296875 
Q 58.015625 14.40625 51.78125 6.484375 
Q 45.5625 -1.421875 35.59375 -1.421875 
Q 29.59375 -1.421875 25.265625 0.953125 
Q 20.953125 3.328125 18.109375 8.203125 
L 18.109375 0 
L 9.078125 0 
L 9.078125 75.984375 
L 18.109375 75.984375 
z
" id="DejaVuSans-98"/>
    </defs>
    <g transform="translate(613.34 105.989679)scale(0.1 -0.1)">
     <use xlink:href="#DejaVuSans-98"/>
     <use x="63.476562" xlink:href="#DejaVuSans-98"/>
     <use x="126.953125" xlink:href="#DejaVuSans-111"/>
     <use x="188.087891" xlink:href="#DejaVuSans-120"/>
    </g>
   </g>
  </g>
 </g>
 <defs>
  <clipPath id="p4e73910058">
   <rect height="108.72" width="669.6" x="10.7" y="10.7"/>
  </clipPath>
 </defs>
</svg>
