<?xml version="1.0" encoding="utf-8" standalone="no"?>
<!DOCTYPE svg PUBLIC "-//W3C//DTD SVG 1.1//EN"
  "http://www.w3.org/Graphics/SVG/1.1/DTD/svg11.dtd">
<!-- Created with matplotlib (http://matplotlib.org/) -->
<svg height="360pt" version="1.1" viewBox="0 0 576 360" width="576pt" xmlns="http://www.w3.org/2000/svg" xmlns:xlink="http://www.w3.org/1999/xlink">
 <defs>
  <style type="text/css">
*{stroke-linecap:butt;stroke-linejoin:round;}
  </style>
 </defs>
 <g id="figure_1">
  <g id="patch_1">
   <path d="M 0 360 
L 576 360 
L 576 0 
L 0 0 
z
" style="fill:#ffffff;"/>
  </g>
  <g id="axes_1">
   <g id="patch_2">
    <path d="M 72 315 
L 518.4 315 
L 518.4 43.2 
L 72 43.2 
z
" style="fill:#fefbf3;"/>
   </g>
   <g id="PolyCollection_1">
    <path clip-path="url(#p01fa634b85)" d="M 72 -122.914868 
L 72 -122.914868 
L 72.894589 -117.652946 
L 73.789178 -112.325499 
L 74.683768 -106.941615 
L 75.578357 -101.509868 
L 76.472946 -96.038322 
L 77.367535 -90.534569 
L 78.262124 -85.005733 
L 79.156713 -79.458519 
L 80.051303 -73.899186 
L 80.945892 -68.333605 
L 81.840481 -62.767259 
L 82.73507 -57.205267 
L 83.629659 -51.652384 
L 84.524248 -46.113028 
L 85.418838 -40.591292 
L 86.313427 -35.090952 
L 87.208016 -29.615482 
L 88.102605 -24.168068 
L 88.997194 -18.751606 
L 89.891784 -13.368721 
L 90.786373 -8.021774 
L 91.680962 -2.71287 
L 92.575551 2.556144 
L 93.47014 7.783664 
L 94.364729 12.968332 
L 95.259319 18.109027 
L 96.153908 23.204867 
L 97.048497 28.255207 
L 97.943086 33.259637 
L 98.837675 38.217984 
L 99.732265 43.130309 
L 100.626854 47.996919 
L 101.521443 52.818349 
L 102.416032 57.595382 
L 103.310621 62.329031 
L 104.20521 67.020544 
L 105.0998 71.671385 
L 105.994389 76.283224 
L 106.888978 80.857901 
L 107.783567 85.397388 
L 108.678156 89.903732 
L 109.572745 94.378969 
L 110.467335 98.825029 
L 111.361924 103.243602 
L 112.256513 107.63599 
L 113.151102 112.002938 
L 114.045691 116.344467 
L 114.940281 120.659715 
L 115.83487 124.946809 
L 116.729459 129.202806 
L 117.624048 133.423697 
L 118.518637 137.604504 
L 119.413226 141.739456 
L 120.307816 145.822227 
L 121.202405 149.846217 
L 122.096994 153.804832 
L 122.991583 157.691749 
L 123.886172 161.501129 
L 124.780762 165.22778 
L 125.675351 168.867258 
L 126.56994 172.415911 
L 127.464529 175.87089 
L 128.359118 179.230109 
L 129.253707 182.4922 
L 130.148297 185.65644 
L 131.042886 188.722677 
L 131.937475 191.691261 
L 132.832064 194.562963 
L 133.726653 197.338917 
L 134.621242 200.020553 
L 135.515832 202.609542 
L 136.410421 205.107756 
L 137.30501 207.517215 
L 138.199599 209.840062 
L 139.094188 212.078525 
L 139.988778 214.234895 
L 140.883367 216.311502 
L 141.777956 218.310699 
L 142.672545 220.234845 
L 143.567134 222.086292 
L 144.461723 223.867376 
L 145.356313 225.580409 
L 146.250902 227.227666 
L 147.145491 228.811389 
L 148.04008 230.333776 
L 148.934669 231.796976 
L 149.829259 233.203094 
L 150.723848 234.554181 
L 151.618437 235.852237 
L 152.513026 237.099209 
L 153.407615 238.296988 
L 154.302204 239.447416 
L 155.196794 240.552276 
L 156.091383 241.613301 
L 156.985972 242.63217 
L 157.880561 243.610509 
L 158.77515 244.549894 
L 159.669739 245.45185 
L 160.564329 246.317851 
L 161.458918 247.149324 
L 162.353507 247.947648 
L 163.248096 248.714157 
L 164.142685 249.450139 
L 165.037275 250.156837 
L 165.931864 250.835452 
L 166.826453 251.487145 
L 167.721042 252.113035 
L 168.615631 252.714201 
L 169.51022 253.291687 
L 170.40481 253.846495 
L 171.299399 254.379597 
L 172.193988 254.891925 
L 173.088577 255.384381 
L 173.983166 255.857832 
L 174.877756 256.313113 
L 175.772345 256.75103 
L 176.666934 257.172358 
L 177.561523 257.577842 
L 178.456112 257.968201 
L 179.350701 258.344124 
L 180.245291 258.706275 
L 181.13988 259.055291 
L 182.034469 259.391786 
L 182.929058 259.716348 
L 183.823647 260.02954 
L 184.718236 260.331903 
L 185.612826 260.623956 
L 186.507415 260.906195 
L 187.402004 261.179096 
L 188.296593 261.443112 
L 189.191182 261.698676 
L 190.085772 261.946203 
L 190.980361 262.186087 
L 191.87495 262.418703 
L 192.769539 262.644409 
L 193.664128 262.863543 
L 194.558717 263.076427 
L 195.453307 263.283365 
L 196.347896 263.484647 
L 197.242485 263.680543 
L 198.137074 263.871311 
L 199.031663 264.057192 
L 199.926253 264.238414 
L 200.820842 264.415188 
L 201.715431 264.587716 
L 202.61002 264.756182 
L 203.504609 264.920763 
L 204.399198 265.081619 
L 205.293788 265.238902 
L 206.188377 265.392752 
L 207.082966 265.543299 
L 207.977555 265.690664 
L 208.872144 265.834959 
L 209.766733 265.976286 
L 210.661323 266.11474 
L 211.555912 266.250408 
L 212.450501 266.383373 
L 213.34509 266.513708 
L 214.239679 266.641481 
L 215.134269 266.766757 
L 216.028858 266.889593 
L 216.923447 267.010044 
L 217.818036 267.12816 
L 218.712625 267.243987 
L 219.607214 267.357568 
L 220.501804 267.468944 
L 221.396393 267.578152 
L 222.290982 267.685229 
L 223.185571 267.790207 
L 224.08016 267.893119 
L 224.974749 267.993996 
L 225.869339 268.092867 
L 226.763928 268.18976 
L 227.658517 268.284702 
L 228.553106 268.37772 
L 229.447695 268.468841 
L 230.342285 268.558089 
L 231.236874 268.645491 
L 232.131463 268.731071 
L 233.026052 268.814854 
L 233.920641 268.896865 
L 234.81523 268.977128 
L 235.70982 269.055668 
L 236.604409 269.132509 
L 237.498998 269.207676 
L 238.393587 269.281194 
L 239.288176 269.353087 
L 240.182766 269.423379 
L 241.077355 269.492096 
L 241.971944 269.559262 
L 242.866533 269.624902 
L 243.761122 269.689041 
L 244.655711 269.751704 
L 245.550301 269.812915 
L 246.44489 269.872699 
L 247.339479 269.931081 
L 248.234068 269.988087 
L 249.128657 270.04374 
L 250.023246 270.098066 
L 250.917836 270.151088 
L 251.812425 270.202832 
L 252.707014 270.253321 
L 253.601603 270.302581 
L 254.496192 270.350635 
L 255.390782 270.397506 
L 256.285371 270.443219 
L 257.17996 270.487797 
L 258.074549 270.531264 
L 258.969138 270.573642 
L 259.863727 270.614954 
L 260.758317 270.655224 
L 261.652906 270.694472 
L 262.547495 270.732722 
L 263.442084 270.769994 
L 264.336673 270.806312 
L 265.231263 270.841694 
L 266.125852 270.876164 
L 267.020441 270.909741 
L 267.91503 270.942445 
L 268.809619 270.974297 
L 269.704208 271.005316 
L 270.598798 271.035522 
L 271.493387 271.064933 
L 272.387976 271.093568 
L 273.282565 271.121446 
L 274.177154 271.148585 
L 275.071743 271.175002 
L 275.966333 271.200715 
L 276.860922 271.225741 
L 277.755511 271.250096 
L 278.6501 271.273797 
L 279.544689 271.296861 
L 280.439279 271.319303 
L 281.333868 271.341138 
L 282.228457 271.362381 
L 283.123046 271.383048 
L 284.017635 271.403153 
L 284.912224 271.42271 
L 285.806814 271.441733 
L 286.701403 271.460236 
L 287.595992 271.478232 
L 288.490581 271.495734 
L 289.38517 271.512754 
L 290.27976 271.529306 
L 291.174349 271.545401 
L 292.068938 271.561051 
L 292.963527 271.576268 
L 293.858116 271.591063 
L 294.752705 271.605447 
L 295.647295 271.619432 
L 296.541884 271.633027 
L 297.436473 271.646243 
L 298.331062 271.659091 
L 299.225651 271.671579 
L 300.12024 271.683717 
L 301.01483 271.695516 
L 301.909419 271.706983 
L 302.804008 271.718128 
L 303.698597 271.72896 
L 304.593186 271.739486 
L 305.487776 271.749716 
L 306.382365 271.759657 
L 307.276954 271.769318 
L 308.171543 271.778705 
L 309.066132 271.787826 
L 309.960721 271.796689 
L 310.855311 271.805301 
L 311.7499 271.813667 
L 312.644489 271.821797 
L 313.539078 271.829694 
L 314.433667 271.837367 
L 315.328257 271.844822 
L 316.222846 271.852064 
L 317.117435 271.859099 
L 318.012024 271.865933 
L 318.906613 271.872571 
L 319.801202 271.87902 
L 320.695792 271.885284 
L 321.590381 271.891368 
L 322.48497 271.897278 
L 323.379559 271.903019 
L 324.274148 271.908594 
L 325.168737 271.914009 
L 326.063327 271.919269 
L 326.957916 271.924377 
L 327.852505 271.929338 
L 328.747094 271.934156 
L 329.641683 271.938835 
L 330.536273 271.943379 
L 331.430862 271.947792 
L 332.325451 271.952077 
L 333.22004 271.956238 
L 334.114629 271.96028 
L 335.009218 271.964204 
L 335.903808 271.968014 
L 336.798397 271.971714 
L 337.692986 271.975307 
L 338.587575 271.978796 
L 339.482164 271.982184 
L 340.376754 271.985473 
L 341.271343 271.988666 
L 342.165932 271.991767 
L 343.060521 271.994778 
L 343.95511 271.997701 
L 344.849699 272.000539 
L 345.744289 272.003295 
L 346.638878 272.00597 
L 347.533467 272.008567 
L 348.428056 272.011089 
L 349.322645 272.013537 
L 350.217234 272.015913 
L 351.111824 272.018221 
L 352.006413 272.02046 
L 352.901002 272.022635 
L 353.795591 272.024746 
L 354.69018 272.026795 
L 355.58477 272.028784 
L 356.479359 272.030716 
L 357.373948 272.03259 
L 358.268537 272.03441 
L 359.163126 272.036176 
L 360.057715 272.037891 
L 360.952305 272.039556 
L 361.846894 272.041171 
L 362.741483 272.04274 
L 363.636072 272.044262 
L 364.530661 272.04574 
L 365.425251 272.047174 
L 366.31984 272.048566 
L 367.214429 272.049918 
L 368.109018 272.051229 
L 369.003607 272.052502 
L 369.898196 272.053738 
L 370.792786 272.054937 
L 371.687375 272.056102 
L 372.581964 272.057231 
L 373.476553 272.058328 
L 374.371142 272.059392 
L 375.265731 272.060425 
L 376.160321 272.061428 
L 377.05491 272.062401 
L 377.949499 272.063346 
L 378.844088 272.064262 
L 379.738677 272.065152 
L 380.633267 272.066015 
L 381.527856 272.066853 
L 382.422445 272.067666 
L 383.317034 272.068455 
L 384.211623 272.069221 
L 385.106212 272.069965 
L 386.000802 272.070686 
L 386.895391 272.071386 
L 387.78998 272.072066 
L 388.684569 272.072725 
L 389.579158 272.073365 
L 390.473747 272.073986 
L 391.368337 272.074588 
L 392.262926 272.075173 
L 393.157515 272.075741 
L 394.052104 272.076291 
L 394.946693 272.076826 
L 395.841283 272.077345 
L 396.735872 272.077848 
L 397.630461 272.078336 
L 398.52505 272.07881 
L 399.419639 272.07927 
L 400.314228 272.079716 
L 401.208818 272.080149 
L 402.103407 272.08057 
L 402.997996 272.080977 
L 403.892585 272.081373 
L 404.787174 272.081757 
L 405.681764 272.08213 
L 406.576353 272.082491 
L 407.470942 272.082842 
L 408.365531 272.083183 
L 409.26012 272.083513 
L 410.154709 272.083834 
L 411.049299 272.084145 
L 411.943888 272.084446 
L 412.838477 272.084739 
L 413.733066 272.085023 
L 414.627655 272.085299 
L 415.522244 272.085567 
L 416.416834 272.085826 
L 417.311423 272.086078 
L 418.206012 272.086323 
L 419.100601 272.08656 
L 419.99519 272.08679 
L 420.88978 272.087013 
L 421.784369 272.08723 
L 422.678958 272.08744 
L 423.573547 272.087644 
L 424.468136 272.087842 
L 425.362725 272.088034 
L 426.257315 272.08822 
L 427.151904 272.088401 
L 428.046493 272.088576 
L 428.941082 272.088746 
L 429.835671 272.088911 
L 430.730261 272.089072 
L 431.62485 272.089227 
L 432.519439 272.089378 
L 433.414028 272.089524 
L 434.308617 272.089666 
L 435.203206 272.089804 
L 436.097796 272.089937 
L 436.992385 272.090067 
L 437.886974 272.090193 
L 438.781563 272.090315 
L 439.676152 272.090433 
L 440.570741 272.090548 
L 441.465331 272.09066 
L 442.35992 272.090768 
L 443.254509 272.090873 
L 444.149098 272.090974 
L 445.043687 272.091073 
L 445.938277 272.091169 
L 446.832866 272.091262 
L 447.727455 272.091352 
L 448.622044 272.091439 
L 449.516633 272.091524 
L 450.411222 272.091607 
L 451.305812 272.091687 
L 452.200401 272.091764 
L 453.09499 272.091839 
L 453.989579 272.091912 
L 454.884168 272.091983 
L 455.778758 272.092052 
L 456.673347 272.092118 
L 457.567936 272.092183 
L 458.462525 272.092246 
L 459.357114 272.092306 
L 460.251703 272.092365 
L 461.146293 272.092423 
L 462.040882 272.092478 
L 462.935471 272.092532 
L 463.83006 272.092584 
L 464.724649 272.092635 
L 465.619238 272.092684 
L 466.513828 272.092732 
L 467.408417 272.092778 
L 468.303006 272.092823 
L 469.197595 272.092867 
L 470.092184 272.092909 
L 470.986774 272.09295 
L 471.881363 272.09299 
L 472.775952 272.093028 
L 473.670541 272.093066 
L 474.56513 272.093102 
L 475.459719 272.093137 
L 476.354309 272.093171 
L 477.248898 272.093205 
L 478.143487 272.093237 
L 479.038076 272.093268 
L 479.932665 272.093298 
L 480.827255 272.093327 
L 481.721844 272.093356 
L 482.616433 272.093384 
L 483.511022 272.09341 
L 484.405611 272.093436 
L 485.3002 272.093462 
L 486.19479 272.093486 
L 487.089379 272.09351 
L 487.983968 272.093533 
L 488.878557 272.093555 
L 489.773146 272.093577 
L 490.667735 272.093598 
L 491.562325 272.093618 
L 492.456914 272.093638 
L 493.351503 272.093657 
L 494.246092 272.093676 
L 495.140681 272.093694 
L 496.035271 272.093711 
L 496.92986 272.093728 
L 497.824449 272.093745 
L 498.719038 272.093761 
L 499.613627 272.093776 
L 500.508216 272.093791 
L 501.402806 272.093806 
L 502.297395 272.09382 
L 503.191984 272.093834 
L 504.086573 272.093847 
L 504.981162 272.09386 
L 505.875752 272.093872 
L 506.770341 272.093885 
L 507.66493 272.093896 
L 508.559519 272.093908 
L 509.454108 272.093919 
L 510.348697 272.09393 
L 511.243287 272.09394 
L 512.137876 272.09395 
L 513.032465 272.09396 
L 513.927054 272.09397 
L 514.821643 272.093979 
L 515.716232 272.093988 
L 516.610822 272.093996 
L 517.505411 272.094005 
L 518.4 272.094013 
L 518.4 272.094013 
L 518.4 256.689138 
L 517.505411 256.689141 
L 516.610822 256.689143 
L 515.716232 256.689145 
L 514.821643 256.689148 
L 513.927054 256.68915 
L 513.032465 256.689153 
L 512.137876 256.689155 
L 511.243287 256.689158 
L 510.348697 256.689161 
L 509.454108 256.689164 
L 508.559519 256.689167 
L 507.66493 256.68917 
L 506.770341 256.689173 
L 505.875752 256.689176 
L 504.981162 256.689179 
L 504.086573 256.689182 
L 503.191984 256.689186 
L 502.297395 256.689189 
L 501.402806 256.689193 
L 500.508216 256.689197 
L 499.613627 256.6892 
L 498.719038 256.689204 
L 497.824449 256.689208 
L 496.92986 256.689212 
L 496.035271 256.689217 
L 495.140681 256.689221 
L 494.246092 256.689225 
L 493.351503 256.68923 
L 492.456914 256.689235 
L 491.562325 256.689239 
L 490.667735 256.689244 
L 489.773146 256.689249 
L 488.878557 256.689254 
L 487.983968 256.68926 
L 487.089379 256.689265 
L 486.19479 256.689271 
L 485.3002 256.689276 
L 484.405611 256.689282 
L 483.511022 256.689288 
L 482.616433 256.689294 
L 481.721844 256.689301 
L 480.827255 256.689307 
L 479.932665 256.689314 
L 479.038076 256.689321 
L 478.143487 256.689328 
L 477.248898 256.689335 
L 476.354309 256.689342 
L 475.459719 256.689349 
L 474.56513 256.689357 
L 473.670541 256.689365 
L 472.775952 256.689373 
L 471.881363 256.689381 
L 470.986774 256.68939 
L 470.092184 256.689399 
L 469.197595 256.689408 
L 468.303006 256.689417 
L 467.408417 256.689426 
L 466.513828 256.689436 
L 465.619238 256.689445 
L 464.724649 256.689455 
L 463.83006 256.689466 
L 462.935471 256.689476 
L 462.040882 256.689487 
L 461.146293 256.689498 
L 460.251703 256.689509 
L 459.357114 256.689521 
L 458.462525 256.689533 
L 457.567936 256.689545 
L 456.673347 256.689558 
L 455.778758 256.68957 
L 454.884168 256.689583 
L 453.989579 256.689597 
L 453.09499 256.68961 
L 452.200401 256.689624 
L 451.305812 256.689639 
L 450.411222 256.689653 
L 449.516633 256.689668 
L 448.622044 256.689684 
L 447.727455 256.689699 
L 446.832866 256.689715 
L 445.938277 256.689732 
L 445.043687 256.689748 
L 444.149098 256.689765 
L 443.254509 256.689783 
L 442.35992 256.689801 
L 441.465331 256.689819 
L 440.570741 256.689838 
L 439.676152 256.689857 
L 438.781563 256.689876 
L 437.886974 256.689896 
L 436.992385 256.689917 
L 436.097796 256.689938 
L 435.203206 256.689959 
L 434.308617 256.689981 
L 433.414028 256.690003 
L 432.519439 256.690025 
L 431.62485 256.690049 
L 430.730261 256.690072 
L 429.835671 256.690096 
L 428.941082 256.690121 
L 428.046493 256.690146 
L 427.151904 256.690171 
L 426.257315 256.690197 
L 425.362725 256.690224 
L 424.468136 256.690251 
L 423.573547 256.690279 
L 422.678958 256.690307 
L 421.784369 256.690336 
L 420.88978 256.690365 
L 419.99519 256.690395 
L 419.100601 256.690425 
L 418.206012 256.690456 
L 417.311423 256.690487 
L 416.416834 256.69052 
L 415.522244 256.690552 
L 414.627655 256.690585 
L 413.733066 256.690619 
L 412.838477 256.690653 
L 411.943888 256.690688 
L 411.049299 256.690724 
L 410.154709 256.69076 
L 409.26012 256.690796 
L 408.365531 256.690834 
L 407.470942 256.690871 
L 406.576353 256.69091 
L 405.681764 256.690949 
L 404.787174 256.690988 
L 403.892585 256.691028 
L 402.997996 256.691069 
L 402.103407 256.69111 
L 401.208818 256.691152 
L 400.314228 256.691194 
L 399.419639 256.691237 
L 398.52505 256.69128 
L 397.630461 256.691324 
L 396.735872 256.691368 
L 395.841283 256.691413 
L 394.946693 256.691458 
L 394.052104 256.691503 
L 393.157515 256.691549 
L 392.262926 256.691596 
L 391.368337 256.691643 
L 390.473747 256.69169 
L 389.579158 256.691737 
L 388.684569 256.691785 
L 387.78998 256.691833 
L 386.895391 256.691881 
L 386.000802 256.691929 
L 385.106212 256.691978 
L 384.211623 256.692026 
L 383.317034 256.692075 
L 382.422445 256.692123 
L 381.527856 256.692172 
L 380.633267 256.69222 
L 379.738677 256.692268 
L 378.844088 256.692316 
L 377.949499 256.692363 
L 377.05491 256.692411 
L 376.160321 256.692457 
L 375.265731 256.692503 
L 374.371142 256.692549 
L 373.476553 256.692593 
L 372.581964 256.692637 
L 371.687375 256.69268 
L 370.792786 256.692722 
L 369.898196 256.692763 
L 369.003607 256.692802 
L 368.109018 256.69284 
L 367.214429 256.692876 
L 366.31984 256.692911 
L 365.425251 256.692943 
L 364.530661 256.692974 
L 363.636072 256.693003 
L 362.741483 256.693029 
L 361.846894 256.693052 
L 360.952305 256.693072 
L 360.057715 256.69309 
L 359.163126 256.693104 
L 358.268537 256.693115 
L 357.373948 256.693122 
L 356.479359 256.693125 
L 355.58477 256.693124 
L 354.69018 256.693118 
L 353.795591 256.693107 
L 352.901002 256.693091 
L 352.006413 256.69307 
L 351.111824 256.693043 
L 350.217234 256.693009 
L 349.322645 256.692969 
L 348.428056 256.692921 
L 347.533467 256.692866 
L 346.638878 256.692803 
L 345.744289 256.692732 
L 344.849699 256.692652 
L 343.95511 256.692562 
L 343.060521 256.692462 
L 342.165932 256.692351 
L 341.271343 256.69223 
L 340.376754 256.692096 
L 339.482164 256.69195 
L 338.587575 256.69179 
L 337.692986 256.691617 
L 336.798397 256.691429 
L 335.903808 256.691225 
L 335.009218 256.691005 
L 334.114629 256.690768 
L 333.22004 256.690512 
L 332.325451 256.690237 
L 331.430862 256.689942 
L 330.536273 256.689626 
L 329.641683 256.689287 
L 328.747094 256.688925 
L 327.852505 256.688538 
L 326.957916 256.688124 
L 326.063327 256.687684 
L 325.168737 256.687214 
L 324.274148 256.686714 
L 323.379559 256.686183 
L 322.48497 256.685617 
L 321.590381 256.685017 
L 320.695792 256.68438 
L 319.801202 256.683703 
L 318.906613 256.682986 
L 318.012024 256.682227 
L 317.117435 256.681422 
L 316.222846 256.680571 
L 315.328257 256.679669 
L 314.433667 256.678716 
L 313.539078 256.677709 
L 312.644489 256.676644 
L 311.7499 256.67552 
L 310.855311 256.674333 
L 309.960721 256.67308 
L 309.066132 256.671758 
L 308.171543 256.670364 
L 307.276954 256.668894 
L 306.382365 256.667345 
L 305.487776 256.665712 
L 304.593186 256.663992 
L 303.698597 256.662181 
L 302.804008 256.660274 
L 301.909419 256.658266 
L 301.01483 256.656154 
L 300.12024 256.653932 
L 299.225651 256.651594 
L 298.331062 256.649136 
L 297.436473 256.646552 
L 296.541884 256.643835 
L 295.647295 256.640979 
L 294.752705 256.637979 
L 293.858116 256.634827 
L 292.963527 256.631516 
L 292.068938 256.628039 
L 291.174349 256.624388 
L 290.27976 256.620555 
L 289.38517 256.616531 
L 288.490581 256.612307 
L 287.595992 256.607875 
L 286.701403 256.603224 
L 285.806814 256.598345 
L 284.912224 256.593227 
L 284.017635 256.587859 
L 283.123046 256.582229 
L 282.228457 256.576325 
L 281.333868 256.570134 
L 280.439279 256.563644 
L 279.544689 256.556841 
L 278.6501 256.549709 
L 277.755511 256.542235 
L 276.860922 256.534402 
L 275.966333 256.526194 
L 275.071743 256.517594 
L 274.177154 256.508583 
L 273.282565 256.499144 
L 272.387976 256.489255 
L 271.493387 256.478897 
L 270.598798 256.468049 
L 269.704208 256.456687 
L 268.809619 256.444788 
L 267.91503 256.432328 
L 267.020441 256.419282 
L 266.125852 256.405622 
L 265.231263 256.39132 
L 264.336673 256.376348 
L 263.442084 256.360675 
L 262.547495 256.344268 
L 261.652906 256.327094 
L 260.758317 256.30912 
L 259.863727 256.290307 
L 258.969138 256.270619 
L 258.074549 256.250015 
L 257.17996 256.228453 
L 256.285371 256.205892 
L 255.390782 256.182284 
L 254.496192 256.157583 
L 253.601603 256.13174 
L 252.707014 256.104702 
L 251.812425 256.076416 
L 250.917836 256.046826 
L 250.023246 256.015873 
L 249.128657 255.983495 
L 248.234068 255.949629 
L 247.339479 255.914207 
L 246.44489 255.87716 
L 245.550301 255.838415 
L 244.655711 255.797897 
L 243.761122 255.755526 
L 242.866533 255.71122 
L 241.971944 255.664893 
L 241.077355 255.616455 
L 240.182766 255.565813 
L 239.288176 255.51287 
L 238.393587 255.457524 
L 237.498998 255.39967 
L 236.604409 255.339199 
L 235.70982 255.275997 
L 234.81523 255.209944 
L 233.920641 255.140918 
L 233.026052 255.068791 
L 232.131463 254.99343 
L 231.236874 254.914696 
L 230.342285 254.832447 
L 229.447695 254.746535 
L 228.553106 254.656805 
L 227.658517 254.563099 
L 226.763928 254.465252 
L 225.869339 254.363094 
L 224.974749 254.256448 
L 224.08016 254.145133 
L 223.185571 254.028962 
L 222.290982 253.90774 
L 221.396393 253.78127 
L 220.501804 253.649346 
L 219.607214 253.511757 
L 218.712625 253.368287 
L 217.818036 253.218713 
L 216.923447 253.062808 
L 216.028858 252.900338 
L 215.134269 252.731064 
L 214.239679 252.554741 
L 213.34509 252.37112 
L 212.450501 252.179946 
L 211.555912 251.980959 
L 210.661323 251.773895 
L 209.766733 251.558483 
L 208.872144 251.33445 
L 207.977555 251.101518 
L 207.082966 250.859405 
L 206.188377 250.607823 
L 205.293788 250.346482 
L 204.399198 250.075089 
L 203.504609 249.793345 
L 202.61002 249.500949 
L 201.715431 249.197597 
L 200.820842 248.882981 
L 199.926253 248.556789 
L 199.031663 248.218707 
L 198.137074 247.868418 
L 197.242485 247.505601 
L 196.347896 247.129931 
L 195.453307 246.741082 
L 194.558717 246.338722 
L 193.664128 245.922517 
L 192.769539 245.492129 
L 191.87495 245.047215 
L 190.980361 244.587431 
L 190.085772 244.112424 
L 189.191182 243.621841 
L 188.296593 243.11532 
L 187.402004 242.592499 
L 186.507415 242.053005 
L 185.612826 241.496462 
L 184.718236 240.92249 
L 183.823647 240.330699 
L 182.929058 239.720693 
L 182.034469 239.092072 
L 181.13988 238.444424 
L 180.245291 237.777332 
L 179.350701 237.090371 
L 178.456112 236.383106 
L 177.561523 235.655094 
L 176.666934 234.905882 
L 175.772345 234.135009 
L 174.877756 233.342002 
L 173.983166 232.526378 
L 173.088577 231.687644 
L 172.193988 230.825294 
L 171.299399 229.938812 
L 170.40481 229.02767 
L 169.51022 228.091324 
L 168.615631 227.129222 
L 167.721042 226.140794 
L 166.826453 225.125459 
L 165.931864 224.082619 
L 165.037275 223.011662 
L 164.142685 221.911961 
L 163.248096 220.78287 
L 162.353507 219.623729 
L 161.458918 218.433857 
L 160.564329 217.212555 
L 159.669739 215.959107 
L 158.77515 214.672771 
L 157.880561 213.352789 
L 156.985972 211.998376 
L 156.091383 210.608723 
L 155.196794 209.182996 
L 154.302204 207.720333 
L 153.407615 206.219844 
L 152.513026 204.680603 
L 151.618437 203.101654 
L 150.723848 201.482002 
L 149.829259 199.820613 
L 148.934669 198.116407 
L 148.04008 196.368259 
L 147.145491 194.574991 
L 146.250902 192.735365 
L 145.356313 190.848082 
L 144.461723 188.911769 
L 143.567134 186.924976 
L 142.672545 184.886163 
L 141.777956 182.793691 
L 140.883367 180.645809 
L 139.988778 178.440637 
L 139.094188 176.176153 
L 138.199599 173.850171 
L 137.30501 171.460318 
L 136.410421 169.004005 
L 135.515832 166.478404 
L 134.621242 163.880403 
L 133.726653 161.206572 
L 132.832064 158.453111 
L 131.937475 155.6158 
L 131.042886 152.689937 
L 130.148297 149.670275 
L 129.253707 146.550941 
L 128.359118 143.325365 
L 127.464529 139.986195 
L 126.56994 136.525216 
L 125.675351 132.933278 
L 124.780762 129.200234 
L 123.886172 125.314901 
L 122.991583 121.265055 
L 122.096994 117.037474 
L 121.202405 112.618028 
L 120.307816 107.991833 
L 119.413226 103.143457 
L 118.518637 98.057173 
L 117.624048 92.717233 
L 116.729459 87.108139 
L 115.83487 81.214867 
L 114.940281 75.02304 
L 114.045691 68.519004 
L 113.151102 61.689835 
L 112.256513 54.523253 
L 111.361924 47.007497 
L 110.467335 39.131142 
L 109.572745 30.882929 
L 108.678156 22.251577 
L 107.783567 13.225622 
L 106.888978 3.793274 
L 105.994389 -6.057696 
L 105.0998 -16.340057 
L 104.20521 -27.067187 
L 103.310621 -38.253131 
L 102.416032 -49.912646 
L 101.521443 -62.061236 
L 100.626854 -74.715182 
L 99.732265 -87.891558 
L 98.837675 -101.608265 
L 97.943086 -115.88403 
L 97.048497 -130.738446 
L 96.153908 -146.191978 
L 95.259319 -162.265987 
L 94.364729 -178.982749 
L 93.47014 -196.365479 
L 92.575551 -214.438359 
L 91.680962 -233.226554 
L 90.786373 -252.756249 
L 89.891784 -273.054673 
L 88.997194 -294.150133 
L 88.102605 -316.072048 
L 87.208016 -338.850975 
L 86.313427 -362.518653 
L 85.418838 -387.108045 
L 84.524248 -412.653372 
L 83.629659 -439.190154 
L 82.73507 -466.755259 
L 81.840481 -495.386944 
L 80.945892 -525.124904 
L 80.051303 -556.010332 
L 79.156713 -588.085955 
L 78.262124 -621.396102 
L 77.367535 -655.986734 
L 76.472946 -691.905549 
L 75.578357 -729.201999 
L 74.683768 -767.927375 
L 73.789178 -808.134862 
L 72.894589 -849.879617 
L 72 -893.218826 
z
" style="fill:#dfb4af;stroke:#dfb4af;"/>
   </g>
   <g id="matplotlib.axis_1">
    <g id="xtick_1">
     <g id="line2d_1">
      <path clip-path="url(#p01fa634b85)" d="M 109.2 315 
L 109.2 43.2 
" style="fill:none;stroke:#b0b0b0;stroke-dasharray:0.5,0.825;stroke-dashoffset:0;stroke-width:0.5;"/>
     </g>
     <g id="line2d_2">
      <defs>
       <path d="M 0 0 
L 0 3.5 
" id="m954c32ae78" style="stroke:#000000;stroke-width:0.8;"/>
      </defs>
      <g>
       <use style="stroke:#000000;stroke-width:0.8;" x="109.2" xlink:href="#m954c32ae78" y="315"/>
      </g>
     </g>
     <g id="text_1">
      <!-- 0 -->
      <defs>
       <path d="M 31.78125 66.40625 
Q 24.171875 66.40625 20.328125 58.90625 
Q 16.5 51.421875 16.5 36.375 
Q 16.5 21.390625 20.328125 13.890625 
Q 24.171875 6.390625 31.78125 6.390625 
Q 39.453125 6.390625 43.28125 13.890625 
Q 47.125 21.390625 47.125 36.375 
Q 47.125 51.421875 43.28125 58.90625 
Q 39.453125 66.40625 31.78125 66.40625 
z
M 31.78125 74.21875 
Q 44.046875 74.21875 50.515625 64.515625 
Q 56.984375 54.828125 56.984375 36.375 
Q 56.984375 17.96875 50.515625 8.265625 
Q 44.046875 -1.421875 31.78125 -1.421875 
Q 19.53125 -1.421875 13.0625 8.265625 
Q 6.59375 17.96875 6.59375 36.375 
Q 6.59375 54.828125 13.0625 64.515625 
Q 19.53125 74.21875 31.78125 74.21875 
z
" id="DejaVuSans-30"/>
      </defs>
      <g transform="translate(106.01875 329.598437)scale(0.1 -0.1)">
       <use xlink:href="#DejaVuSans-30"/>
      </g>
     </g>
    </g>
    <g id="xtick_2">
     <g id="line2d_3">
      <path clip-path="url(#p01fa634b85)" d="M 202.2 315 
L 202.2 43.2 
" style="fill:none;stroke:#b0b0b0;stroke-dasharray:0.5,0.825;stroke-dashoffset:0;stroke-width:0.5;"/>
     </g>
     <g id="line2d_4">
      <g>
       <use style="stroke:#000000;stroke-width:0.8;" x="202.2" xlink:href="#m954c32ae78" y="315"/>
      </g>
     </g>
     <g id="text_2">
      <!-- 5 -->
      <defs>
       <path d="M 10.796875 72.90625 
L 49.515625 72.90625 
L 49.515625 64.59375 
L 19.828125 64.59375 
L 19.828125 46.734375 
Q 21.96875 47.46875 24.109375 47.828125 
Q 26.265625 48.1875 28.421875 48.1875 
Q 40.625 48.1875 47.75 41.5 
Q 54.890625 34.8125 54.890625 23.390625 
Q 54.890625 11.625 47.5625 5.09375 
Q 40.234375 -1.421875 26.90625 -1.421875 
Q 22.3125 -1.421875 17.546875 -0.640625 
Q 12.796875 0.140625 7.71875 1.703125 
L 7.71875 11.625 
Q 12.109375 9.234375 16.796875 8.0625 
Q 21.484375 6.890625 26.703125 6.890625 
Q 35.15625 6.890625 40.078125 11.328125 
Q 45.015625 15.765625 45.015625 23.390625 
Q 45.015625 31 40.078125 35.4375 
Q 35.15625 39.890625 26.703125 39.890625 
Q 22.75 39.890625 18.8125 39.015625 
Q 14.890625 38.140625 10.796875 36.28125 
z
" id="DejaVuSans-35"/>
      </defs>
      <g transform="translate(199.01875 329.598437)scale(0.1 -0.1)">
       <use xlink:href="#DejaVuSans-35"/>
      </g>
     </g>
    </g>
    <g id="xtick_3">
     <g id="line2d_5">
      <path clip-path="url(#p01fa634b85)" d="M 295.2 315 
L 295.2 43.2 
" style="fill:none;stroke:#b0b0b0;stroke-dasharray:0.5,0.825;stroke-dashoffset:0;stroke-width:0.5;"/>
     </g>
     <g id="line2d_6">
      <g>
       <use style="stroke:#000000;stroke-width:0.8;" x="295.2" xlink:href="#m954c32ae78" y="315"/>
      </g>
     </g>
     <g id="text_3">
      <!-- 10 -->
      <defs>
       <path d="M 12.40625 8.296875 
L 28.515625 8.296875 
L 28.515625 63.921875 
L 10.984375 60.40625 
L 10.984375 69.390625 
L 28.421875 72.90625 
L 38.28125 72.90625 
L 38.28125 8.296875 
L 54.390625 8.296875 
L 54.390625 0 
L 12.40625 0 
z
" id="DejaVuSans-31"/>
      </defs>
      <g transform="translate(288.8375 329.598437)scale(0.1 -0.1)">
       <use xlink:href="#DejaVuSans-31"/>
       <use x="63.623047" xlink:href="#DejaVuSans-30"/>
      </g>
     </g>
    </g>
    <g id="xtick_4">
     <g id="line2d_7">
      <path clip-path="url(#p01fa634b85)" d="M 388.2 315 
L 388.2 43.2 
" style="fill:none;stroke:#b0b0b0;stroke-dasharray:0.5,0.825;stroke-dashoffset:0;stroke-width:0.5;"/>
     </g>
     <g id="line2d_8">
      <g>
       <use style="stroke:#000000;stroke-width:0.8;" x="388.2" xlink:href="#m954c32ae78" y="315"/>
      </g>
     </g>
     <g id="text_4">
      <!-- 15 -->
      <g transform="translate(381.8375 329.598437)scale(0.1 -0.1)">
       <use xlink:href="#DejaVuSans-31"/>
       <use x="63.623047" xlink:href="#DejaVuSans-35"/>
      </g>
     </g>
    </g>
    <g id="xtick_5">
     <g id="line2d_9">
      <path clip-path="url(#p01fa634b85)" d="M 481.2 315 
L 481.2 43.2 
" style="fill:none;stroke:#b0b0b0;stroke-dasharray:0.5,0.825;stroke-dashoffset:0;stroke-width:0.5;"/>
     </g>
     <g id="line2d_10">
      <g>
       <use style="stroke:#000000;stroke-width:0.8;" x="481.2" xlink:href="#m954c32ae78" y="315"/>
      </g>
     </g>
     <g id="text_5">
      <!-- 20 -->
      <defs>
       <path d="M 19.1875 8.296875 
L 53.609375 8.296875 
L 53.609375 0 
L 7.328125 0 
L 7.328125 8.296875 
Q 12.9375 14.109375 22.625 23.890625 
Q 32.328125 33.6875 34.8125 36.53125 
Q 39.546875 41.84375 41.421875 45.53125 
Q 43.3125 49.21875 43.3125 52.78125 
Q 43.3125 58.59375 39.234375 62.25 
Q 35.15625 65.921875 28.609375 65.921875 
Q 23.96875 65.921875 18.8125 64.3125 
Q 13.671875 62.703125 7.8125 59.421875 
L 7.8125 69.390625 
Q 13.765625 71.78125 18.9375 73 
Q 24.125 74.21875 28.421875 74.21875 
Q 39.75 74.21875 46.484375 68.546875 
Q 53.21875 62.890625 53.21875 53.421875 
Q 53.21875 48.921875 51.53125 44.890625 
Q 49.859375 40.875 45.40625 35.40625 
Q 44.1875 33.984375 37.640625 27.21875 
Q 31.109375 20.453125 19.1875 8.296875 
z
" id="DejaVuSans-32"/>
      </defs>
      <g transform="translate(474.8375 329.598437)scale(0.1 -0.1)">
       <use xlink:href="#DejaVuSans-32"/>
       <use x="63.623047" xlink:href="#DejaVuSans-30"/>
      </g>
     </g>
    </g>
   </g>
   <g id="matplotlib.axis_2">
    <g id="ytick_1">
     <g id="line2d_11">
      <path clip-path="url(#p01fa634b85)" d="M 72 308.03035 
L 518.4 308.03035 
" style="fill:none;stroke:#b0b0b0;stroke-dasharray:0.5,0.825;stroke-dashoffset:0;stroke-width:0.5;"/>
     </g>
     <g id="line2d_12">
      <defs>
       <path d="M 0 0 
L -3.5 0 
" id="mec45a88351" style="stroke:#000000;stroke-width:0.8;"/>
      </defs>
      <g>
       <use style="stroke:#000000;stroke-width:0.8;" x="72" xlink:href="#mec45a88351" y="308.03035"/>
      </g>
     </g>
     <g id="text_6">
      <!-- 0.0 -->
      <defs>
       <path d="M 10.6875 12.40625 
L 21 12.40625 
L 21 0 
L 10.6875 0 
z
" id="DejaVuSans-2e"/>
      </defs>
      <g transform="translate(49.096875 311.829569)scale(0.1 -0.1)">
       <use xlink:href="#DejaVuSans-30"/>
       <use x="63.623047" xlink:href="#DejaVuSans-2e"/>
       <use x="95.410156" xlink:href="#DejaVuSans-30"/>
      </g>
     </g>
    </g>
    <g id="ytick_2">
     <g id="line2d_13">
      <path clip-path="url(#p01fa634b85)" d="M 72 264.391667 
L 518.4 264.391667 
" style="fill:none;stroke:#b0b0b0;stroke-dasharray:0.5,0.825;stroke-dashoffset:0;stroke-width:0.5;"/>
     </g>
     <g id="line2d_14">
      <g>
       <use style="stroke:#000000;stroke-width:0.8;" x="72" xlink:href="#mec45a88351" y="264.391667"/>
      </g>
     </g>
     <g id="text_7">
      <!-- 0.2 -->
      <g transform="translate(49.096875 268.190886)scale(0.1 -0.1)">
       <use xlink:href="#DejaVuSans-30"/>
       <use x="63.623047" xlink:href="#DejaVuSans-2e"/>
       <use x="95.410156" xlink:href="#DejaVuSans-32"/>
      </g>
     </g>
    </g>
    <g id="ytick_3">
     <g id="line2d_15">
      <path clip-path="url(#p01fa634b85)" d="M 72 220.752984 
L 518.4 220.752984 
" style="fill:none;stroke:#b0b0b0;stroke-dasharray:0.5,0.825;stroke-dashoffset:0;stroke-width:0.5;"/>
     </g>
     <g id="line2d_16">
      <g>
       <use style="stroke:#000000;stroke-width:0.8;" x="72" xlink:href="#mec45a88351" y="220.752984"/>
      </g>
     </g>
     <g id="text_8">
      <!-- 0.4 -->
      <defs>
       <path d="M 37.796875 64.3125 
L 12.890625 25.390625 
L 37.796875 25.390625 
z
M 35.203125 72.90625 
L 47.609375 72.90625 
L 47.609375 25.390625 
L 58.015625 25.390625 
L 58.015625 17.1875 
L 47.609375 17.1875 
L 47.609375 0 
L 37.796875 0 
L 37.796875 17.1875 
L 4.890625 17.1875 
L 4.890625 26.703125 
z
" id="DejaVuSans-34"/>
      </defs>
      <g transform="translate(49.096875 224.552203)scale(0.1 -0.1)">
       <use xlink:href="#DejaVuSans-30"/>
       <use x="63.623047" xlink:href="#DejaVuSans-2e"/>
       <use x="95.410156" xlink:href="#DejaVuSans-34"/>
      </g>
     </g>
    </g>
    <g id="ytick_4">
     <g id="line2d_17">
      <path clip-path="url(#p01fa634b85)" d="M 72 177.114302 
L 518.4 177.114302 
" style="fill:none;stroke:#b0b0b0;stroke-dasharray:0.5,0.825;stroke-dashoffset:0;stroke-width:0.5;"/>
     </g>
     <g id="line2d_18">
      <g>
       <use style="stroke:#000000;stroke-width:0.8;" x="72" xlink:href="#mec45a88351" y="177.114302"/>
      </g>
     </g>
     <g id="text_9">
      <!-- 0.6 -->
      <defs>
       <path d="M 33.015625 40.375 
Q 26.375 40.375 22.484375 35.828125 
Q 18.609375 31.296875 18.609375 23.390625 
Q 18.609375 15.53125 22.484375 10.953125 
Q 26.375 6.390625 33.015625 6.390625 
Q 39.65625 6.390625 43.53125 10.953125 
Q 47.40625 15.53125 47.40625 23.390625 
Q 47.40625 31.296875 43.53125 35.828125 
Q 39.65625 40.375 33.015625 40.375 
z
M 52.59375 71.296875 
L 52.59375 62.3125 
Q 48.875 64.0625 45.09375 64.984375 
Q 41.3125 65.921875 37.59375 65.921875 
Q 27.828125 65.921875 22.671875 59.328125 
Q 17.53125 52.734375 16.796875 39.40625 
Q 19.671875 43.65625 24.015625 45.921875 
Q 28.375 48.1875 33.59375 48.1875 
Q 44.578125 48.1875 50.953125 41.515625 
Q 57.328125 34.859375 57.328125 23.390625 
Q 57.328125 12.15625 50.6875 5.359375 
Q 44.046875 -1.421875 33.015625 -1.421875 
Q 20.359375 -1.421875 13.671875 8.265625 
Q 6.984375 17.96875 6.984375 36.375 
Q 6.984375 53.65625 15.1875 63.9375 
Q 23.390625 74.21875 37.203125 74.21875 
Q 40.921875 74.21875 44.703125 73.484375 
Q 48.484375 72.75 52.59375 71.296875 
z
" id="DejaVuSans-36"/>
      </defs>
      <g transform="translate(49.096875 180.913521)scale(0.1 -0.1)">
       <use xlink:href="#DejaVuSans-30"/>
       <use x="63.623047" xlink:href="#DejaVuSans-2e"/>
       <use x="95.410156" xlink:href="#DejaVuSans-36"/>
      </g>
     </g>
    </g>
    <g id="ytick_5">
     <g id="line2d_19">
      <path clip-path="url(#p01fa634b85)" d="M 72 133.475619 
L 518.4 133.475619 
" style="fill:none;stroke:#b0b0b0;stroke-dasharray:0.5,0.825;stroke-dashoffset:0;stroke-width:0.5;"/>
     </g>
     <g id="line2d_20">
      <g>
       <use style="stroke:#000000;stroke-width:0.8;" x="72" xlink:href="#mec45a88351" y="133.475619"/>
      </g>
     </g>
     <g id="text_10">
      <!-- 0.8 -->
      <defs>
       <path d="M 31.78125 34.625 
Q 24.75 34.625 20.71875 30.859375 
Q 16.703125 27.09375 16.703125 20.515625 
Q 16.703125 13.921875 20.71875 10.15625 
Q 24.75 6.390625 31.78125 6.390625 
Q 38.8125 6.390625 42.859375 10.171875 
Q 46.921875 13.96875 46.921875 20.515625 
Q 46.921875 27.09375 42.890625 30.859375 
Q 38.875 34.625 31.78125 34.625 
z
M 21.921875 38.8125 
Q 15.578125 40.375 12.03125 44.71875 
Q 8.5 49.078125 8.5 55.328125 
Q 8.5 64.0625 14.71875 69.140625 
Q 20.953125 74.21875 31.78125 74.21875 
Q 42.671875 74.21875 48.875 69.140625 
Q 55.078125 64.0625 55.078125 55.328125 
Q 55.078125 49.078125 51.53125 44.71875 
Q 48 40.375 41.703125 38.8125 
Q 48.828125 37.15625 52.796875 32.3125 
Q 56.78125 27.484375 56.78125 20.515625 
Q 56.78125 9.90625 50.3125 4.234375 
Q 43.84375 -1.421875 31.78125 -1.421875 
Q 19.734375 -1.421875 13.25 4.234375 
Q 6.78125 9.90625 6.78125 20.515625 
Q 6.78125 27.484375 10.78125 32.3125 
Q 14.796875 37.15625 21.921875 38.8125 
z
M 18.3125 54.390625 
Q 18.3125 48.734375 21.84375 45.5625 
Q 25.390625 42.390625 31.78125 42.390625 
Q 38.140625 42.390625 41.71875 45.5625 
Q 45.3125 48.734375 45.3125 54.390625 
Q 45.3125 60.0625 41.71875 63.234375 
Q 38.140625 66.40625 31.78125 66.40625 
Q 25.390625 66.40625 21.84375 63.234375 
Q 18.3125 60.0625 18.3125 54.390625 
z
" id="DejaVuSans-38"/>
      </defs>
      <g transform="translate(49.096875 137.274838)scale(0.1 -0.1)">
       <use xlink:href="#DejaVuSans-30"/>
       <use x="63.623047" xlink:href="#DejaVuSans-2e"/>
       <use x="95.410156" xlink:href="#DejaVuSans-38"/>
      </g>
     </g>
    </g>
    <g id="ytick_6">
     <g id="line2d_21">
      <path clip-path="url(#p01fa634b85)" d="M 72 89.836936 
L 518.4 89.836936 
" style="fill:none;stroke:#b0b0b0;stroke-dasharray:0.5,0.825;stroke-dashoffset:0;stroke-width:0.5;"/>
     </g>
     <g id="line2d_22">
      <g>
       <use style="stroke:#000000;stroke-width:0.8;" x="72" xlink:href="#mec45a88351" y="89.836936"/>
      </g>
     </g>
     <g id="text_11">
      <!-- 1.0 -->
      <g transform="translate(49.096875 93.636155)scale(0.1 -0.1)">
       <use xlink:href="#DejaVuSans-31"/>
       <use x="63.623047" xlink:href="#DejaVuSans-2e"/>
       <use x="95.410156" xlink:href="#DejaVuSans-30"/>
      </g>
     </g>
    </g>
    <g id="ytick_7">
     <g id="line2d_23">
      <path clip-path="url(#p01fa634b85)" d="M 72 46.198254 
L 518.4 46.198254 
" style="fill:none;stroke:#b0b0b0;stroke-dasharray:0.5,0.825;stroke-dashoffset:0;stroke-width:0.5;"/>
     </g>
     <g id="line2d_24">
      <g>
       <use style="stroke:#000000;stroke-width:0.8;" x="72" xlink:href="#mec45a88351" y="46.198254"/>
      </g>
     </g>
     <g id="text_12">
      <!-- 1.2 -->
      <g transform="translate(49.096875 49.997473)scale(0.1 -0.1)">
       <use xlink:href="#DejaVuSans-31"/>
       <use x="63.623047" xlink:href="#DejaVuSans-2e"/>
       <use x="95.410156" xlink:href="#DejaVuSans-32"/>
      </g>
     </g>
    </g>
   </g>
   <g id="line2d_25">
    <path clip-path="url(#p01fa634b85)" d="M 101.904259 -1 
L 104.20521 19.976678 
L 106.888978 42.325588 
L 109.572745 62.630949 
L 112.256513 81.079622 
L 114.940281 97.841377 
L 117.624048 113.070465 
L 120.307816 126.90703 
L 122.991583 139.478402 
L 125.675351 150.900268 
L 128.359118 161.277737 
L 131.042886 170.706307 
L 133.726653 179.272745 
L 136.410421 187.055881 
L 139.094188 194.127339 
L 141.777956 200.552195 
L 144.461723 206.389573 
L 147.145491 211.69319 
L 149.829259 216.511853 
L 152.513026 220.889906 
L 155.196794 224.867636 
L 157.880561 228.481649 
L 160.564329 231.765203 
L 163.248096 234.748514 
L 165.931864 237.459036 
L 168.615631 239.921712 
L 172.193988 242.85861 
L 175.772345 245.44302 
L 179.350701 247.717247 
L 182.929058 249.718521 
L 186.507415 251.4796 
L 190.085772 253.029314 
L 194.558717 254.707574 
L 199.031663 256.13795 
L 203.504609 257.357054 
L 208.872144 258.584705 
L 214.239679 259.598111 
L 220.501804 260.559145 
L 227.658517 261.423901 
L 235.70982 262.165832 
L 245.550301 262.825665 
L 257.17996 263.358125 
L 271.493387 263.771915 
L 290.27976 264.07493 
L 318.012024 264.27408 
L 368.109018 264.372035 
L 518.4 264.391576 
L 518.4 264.391576 
" style="fill:none;stroke:#a52a2a;stroke-linecap:square;stroke-width:1.5;"/>
   </g>
   <g id="line2d_26">
    <defs>
     <path d="M 0 3.5 
C 0.928211 3.5 1.81853 3.131218 2.474874 2.474874 
C 3.131218 1.81853 3.5 0.928211 3.5 0 
C 3.5 -0.928211 3.131218 -1.81853 2.474874 -2.474874 
C 1.81853 -3.131218 0.928211 -3.5 0 -3.5 
C -0.928211 -3.5 -1.81853 -3.131218 -2.474874 -2.474874 
C -3.131218 -1.81853 -3.5 -0.928211 -3.5 0 
C -3.5 0.928211 -3.131218 1.81853 -2.474874 2.474874 
C -1.81853 3.131218 -0.928211 3.5 0 3.5 
z
" id="mf1af8d5a09" style="stroke:#a52a2a;stroke-width:0.8;"/>
    </defs>
    <g clip-path="url(#p01fa634b85)">
     <use style="fill:#59c48c;stroke:#a52a2a;stroke-width:0.8;" x="109.2" xlink:href="#mf1af8d5a09" y="65.85"/>
     <use style="fill:#59c48c;stroke:#a52a2a;stroke-width:0.8;" x="122.027586" xlink:href="#mf1af8d5a09" y="132.258714"/>
     <use style="fill:#59c48c;stroke:#a52a2a;stroke-width:0.8;" x="134.855172" xlink:href="#mf1af8d5a09" y="173.906242"/>
     <use style="fill:#59c48c;stroke:#a52a2a;stroke-width:0.8;" x="147.682759" xlink:href="#mf1af8d5a09" y="202.016549"/>
     <use style="fill:#59c48c;stroke:#a52a2a;stroke-width:0.8;" x="160.510345" xlink:href="#mf1af8d5a09" y="232.30217"/>
     <use style="fill:#59c48c;stroke:#a52a2a;stroke-width:0.8;" x="173.337931" xlink:href="#mf1af8d5a09" y="248.323037"/>
     <use style="fill:#59c48c;stroke:#a52a2a;stroke-width:0.8;" x="186.165517" xlink:href="#mf1af8d5a09" y="251.758128"/>
     <use style="fill:#59c48c;stroke:#a52a2a;stroke-width:0.8;" x="198.993103" xlink:href="#mf1af8d5a09" y="263.339112"/>
     <use style="fill:#59c48c;stroke:#a52a2a;stroke-width:0.8;" x="211.82069" xlink:href="#mf1af8d5a09" y="274.430825"/>
     <use style="fill:#59c48c;stroke:#a52a2a;stroke-width:0.8;" x="224.648276" xlink:href="#mf1af8d5a09" y="274.047745"/>
     <use style="fill:#59c48c;stroke:#a52a2a;stroke-width:0.8;" x="237.475862" xlink:href="#mf1af8d5a09" y="281.294661"/>
     <use style="fill:#59c48c;stroke:#a52a2a;stroke-width:0.8;" x="250.303448" xlink:href="#mf1af8d5a09" y="283.328457"/>
     <use style="fill:#59c48c;stroke:#a52a2a;stroke-width:0.8;" x="263.131034" xlink:href="#mf1af8d5a09" y="281.67366"/>
     <use style="fill:#59c48c;stroke:#a52a2a;stroke-width:0.8;" x="275.958621" xlink:href="#mf1af8d5a09" y="292.094248"/>
     <use style="fill:#59c48c;stroke:#a52a2a;stroke-width:0.8;" x="288.786207" xlink:href="#mf1af8d5a09" y="291.991505"/>
     <use style="fill:#59c48c;stroke:#a52a2a;stroke-width:0.8;" x="301.613793" xlink:href="#mf1af8d5a09" y="287.427412"/>
     <use style="fill:#59c48c;stroke:#a52a2a;stroke-width:0.8;" x="314.441379" xlink:href="#mf1af8d5a09" y="289.754406"/>
     <use style="fill:#59c48c;stroke:#a52a2a;stroke-width:0.8;" x="327.268966" xlink:href="#mf1af8d5a09" y="284.218838"/>
     <use style="fill:#59c48c;stroke:#a52a2a;stroke-width:0.8;" x="340.096552" xlink:href="#mf1af8d5a09" y="289.733741"/>
     <use style="fill:#59c48c;stroke:#a52a2a;stroke-width:0.8;" x="352.924138" xlink:href="#mf1af8d5a09" y="292.062612"/>
     <use style="fill:#59c48c;stroke:#a52a2a;stroke-width:0.8;" x="365.751724" xlink:href="#mf1af8d5a09" y="279.594459"/>
     <use style="fill:#59c48c;stroke:#a52a2a;stroke-width:0.8;" x="378.57931" xlink:href="#mf1af8d5a09" y="287.03997"/>
     <use style="fill:#59c48c;stroke:#a52a2a;stroke-width:0.8;" x="391.406897" xlink:href="#mf1af8d5a09" y="285.805612"/>
     <use style="fill:#59c48c;stroke:#a52a2a;stroke-width:0.8;" x="404.234483" xlink:href="#mf1af8d5a09" y="292.35"/>
     <use style="fill:#59c48c;stroke:#a52a2a;stroke-width:0.8;" x="417.062069" xlink:href="#mf1af8d5a09" y="288.531073"/>
     <use style="fill:#59c48c;stroke:#a52a2a;stroke-width:0.8;" x="429.889655" xlink:href="#mf1af8d5a09" y="285.687609"/>
     <use style="fill:#59c48c;stroke:#a52a2a;stroke-width:0.8;" x="442.717241" xlink:href="#mf1af8d5a09" y="291.205921"/>
     <use style="fill:#59c48c;stroke:#a52a2a;stroke-width:0.8;" x="455.544828" xlink:href="#mf1af8d5a09" y="284.551769"/>
     <use style="fill:#59c48c;stroke:#a52a2a;stroke-width:0.8;" x="468.372414" xlink:href="#mf1af8d5a09" y="288.818132"/>
     <use style="fill:#59c48c;stroke:#a52a2a;stroke-width:0.8;" x="481.2" xlink:href="#mf1af8d5a09" y="287.474016"/>
    </g>
   </g>
   <g id="patch_3">
    <path d="M 72 315 
L 72 43.2 
" style="fill:none;stroke:#000000;stroke-linecap:square;stroke-linejoin:miter;stroke-width:0.8;"/>
   </g>
   <g id="patch_4">
    <path d="M 518.4 315 
L 518.4 43.2 
" style="fill:none;stroke:#000000;stroke-linecap:square;stroke-linejoin:miter;stroke-width:0.8;"/>
   </g>
   <g id="patch_5">
    <path d="M 72 315 
L 518.4 315 
" style="fill:none;stroke:#000000;stroke-linecap:square;stroke-linejoin:miter;stroke-width:0.8;"/>
   </g>
   <g id="patch_6">
    <path d="M 72 43.2 
L 518.4 43.2 
" style="fill:none;stroke:#000000;stroke-linecap:square;stroke-linejoin:miter;stroke-width:0.8;"/>
   </g>
  </g>
 </g>
 <defs>
  <clipPath id="p01fa634b85">
   <rect height="271.8" width="446.4" x="72" y="43.2"/>
  </clipPath>
 </defs>
</svg>
