<?xml version="1.0" encoding="utf-8" standalone="no"?>
<!DOCTYPE svg PUBLIC "-//W3C//DTD SVG 1.1//EN"
  "http://www.w3.org/Graphics/SVG/1.1/DTD/svg11.dtd">
<!-- Created with matplotlib (http://matplotlib.org/) -->
<svg height="216pt" version="1.1" viewBox="0 0 720 216" width="720pt" xmlns="http://www.w3.org/2000/svg" xmlns:xlink="http://www.w3.org/1999/xlink">
 <defs>
  <style type="text/css">
*{stroke-linecap:butt;stroke-linejoin:round;}
  </style>
 </defs>
 <g id="figure_1">
  <g id="patch_1">
   <path d="M 0 216 
L 720 216 
L 720 0 
L 0 0 
z
" style="fill:#ffffff;"/>
  </g>
  <g id="axes_1">
   <g id="patch_2">
    <path d="M 90 189 
L 343.636364 189 
L 343.636364 25.92 
L 90 25.92 
z
" style="fill:#fefbf3;"/>
   </g>
   <g id="PolyCollection_1">
    <path clip-path="url(#p35757dc37e)" d="M 90 53.622095 
L 90 53.622095 
L 90.508289 54.497425 
L 91.016579 55.370909 
L 91.524868 56.242457 
L 92.033157 57.111978 
L 92.541447 57.979386 
L 93.049736 58.844597 
L 93.558025 59.707529 
L 94.066314 60.568102 
L 94.574604 61.42624 
L 95.082893 62.281867 
L 95.591182 63.134912 
L 96.099472 63.985306 
L 96.607761 64.83298 
L 97.11605 65.67787 
L 97.62434 66.519911 
L 98.132629 67.359043 
L 98.640918 68.195207 
L 99.149208 69.028345 
L 99.657497 69.858403 
L 100.165786 70.685328 
L 100.674075 71.509067 
L 101.182365 72.329574 
L 101.690654 73.146798 
L 102.198943 73.960695 
L 102.707233 74.771222 
L 103.215522 75.578335 
L 103.723811 76.381993 
L 104.232101 77.182159 
L 104.74039 77.978795 
L 105.248679 78.771865 
L 105.756968 79.561335 
L 106.265258 80.347171 
L 106.773547 81.129344 
L 107.281836 81.907824 
L 107.790126 82.682579 
L 108.298415 83.453587 
L 108.806704 84.220819 
L 109.314994 84.984252 
L 109.823283 85.743862 
L 110.331572 86.499629 
L 110.839862 87.251531 
L 111.348151 87.999549 
L 111.85644 88.743665 
L 112.364729 89.483861 
L 112.873019 90.220122 
L 113.381308 90.952433 
L 113.889597 91.680781 
L 114.397887 92.405152 
L 114.906176 93.125535 
L 115.414465 93.841919 
L 115.922755 94.554294 
L 116.431044 95.262652 
L 116.939333 95.966985 
L 117.447623 96.667286 
L 117.955912 97.363549 
L 118.464201 98.055768 
L 118.97249 98.743939 
L 119.48078 99.428059 
L 119.989069 100.108124 
L 120.497358 100.784133 
L 121.005648 101.456085 
L 121.513937 102.123978 
L 122.022226 102.787813 
L 122.530516 103.447592 
L 123.038805 104.103314 
L 123.547094 104.754983 
L 124.055383 105.402601 
L 124.563673 106.046171 
L 125.071962 106.685698 
L 125.580251 107.321186 
L 126.088541 107.95264 
L 126.59683 108.580065 
L 127.105119 109.203468 
L 127.613409 109.822855 
L 128.121698 110.438233 
L 128.629987 111.04961 
L 129.138277 111.656995 
L 129.646566 112.260393 
L 130.154855 112.859816 
L 130.663144 113.455272 
L 131.171434 114.04677 
L 131.679723 114.634321 
L 132.188012 115.217934 
L 132.696302 115.79762 
L 133.204591 116.37339 
L 133.71288 116.945255 
L 134.22117 117.513226 
L 134.729459 118.077316 
L 135.237748 118.637535 
L 135.746038 119.193896 
L 136.254327 119.74641 
L 136.762616 120.295092 
L 137.270905 120.839952 
L 137.779195 121.381003 
L 138.287484 121.918259 
L 138.795773 122.451734 
L 139.304063 122.981438 
L 139.812352 123.507386 
L 140.320641 124.029591 
L 140.828931 124.548067 
L 141.33722 125.062825 
L 141.845509 125.573881 
L 142.353799 126.081246 
L 142.862088 126.584936 
L 143.370377 127.084962 
L 143.878666 127.581337 
L 144.386956 128.074076 
L 144.895245 128.563191 
L 145.403534 129.048696 
L 145.911824 129.530602 
L 146.420113 130.008925 
L 146.928402 130.483674 
L 147.436692 130.954865 
L 147.944981 131.422507 
L 148.45327 131.886616 
L 148.961559 132.347201 
L 149.469849 132.804276 
L 149.978138 133.257851 
L 150.486427 133.70794 
L 150.994717 134.154552 
L 151.503006 134.5977 
L 152.011295 135.037393 
L 152.519585 135.473644 
L 153.027874 135.906462 
L 153.536163 136.335858 
L 154.044453 136.761842 
L 154.552742 137.184424 
L 155.061031 137.603614 
L 155.56932 138.01942 
L 156.07761 138.431852 
L 156.585899 138.84092 
L 157.094188 139.246631 
L 157.602478 139.648996 
L 158.110767 140.04802 
L 158.619056 140.443714 
L 159.127346 140.836086 
L 159.635635 141.225141 
L 160.143924 141.61089 
L 160.652214 141.993338 
L 161.160503 142.372494 
L 161.668792 142.748364 
L 162.177081 143.120956 
L 162.685371 143.490277 
L 163.19366 143.856333 
L 163.701949 144.219132 
L 164.210239 144.578679 
L 164.718528 144.934983 
L 165.226817 145.288049 
L 165.735107 145.637885 
L 166.243396 145.984497 
L 166.751685 146.327892 
L 167.259974 146.668076 
L 167.768264 147.005058 
L 168.276553 147.338843 
L 168.784842 147.669439 
L 169.293132 147.996853 
L 169.801421 148.321093 
L 170.30971 148.642166 
L 170.818 148.960081 
L 171.326289 149.274844 
L 171.834578 149.586465 
L 172.342868 149.894951 
L 172.851157 150.200312 
L 173.359446 150.502557 
L 173.867735 150.801694 
L 174.376025 151.097734 
L 174.884314 151.390686 
L 175.392603 151.68056 
L 175.900893 151.967368 
L 176.409182 152.25112 
L 176.917471 152.531827 
L 177.425761 152.809501 
L 177.93405 153.084153 
L 178.442339 153.355797 
L 178.950629 153.624445 
L 179.458918 153.890109 
L 179.967207 154.152804 
L 180.475496 154.412544 
L 180.983786 154.669342 
L 181.492075 154.923212 
L 182.000364 155.174171 
L 182.508654 155.422234 
L 183.016943 155.667415 
L 183.525232 155.909732 
L 184.033522 156.1492 
L 184.541811 156.385837 
L 185.0501 156.619659 
L 185.55839 156.850684 
L 186.066679 157.078931 
L 186.574968 157.304416 
L 187.083257 157.527158 
L 187.591547 157.747177 
L 188.099836 157.964491 
L 188.608125 158.179119 
L 189.116415 158.391082 
L 189.624704 158.600398 
L 190.132993 158.807089 
L 190.641283 159.011174 
L 191.149572 159.212674 
L 191.657861 159.41161 
L 192.16615 159.608003 
L 192.67444 159.801873 
L 193.182729 159.993243 
L 193.691018 160.182134 
L 194.199308 160.368568 
L 194.707597 160.552566 
L 195.215886 160.734151 
L 195.724176 160.913344 
L 196.232465 161.090168 
L 196.740754 161.264645 
L 197.249044 161.436797 
L 197.757333 161.606647 
L 198.265622 161.774218 
L 198.773911 161.939532 
L 199.282201 162.102612 
L 199.79049 162.26348 
L 200.298779 162.422159 
L 200.807069 162.578672 
L 201.315358 162.733042 
L 201.823647 162.885291 
L 202.331937 163.035442 
L 202.840226 163.183518 
L 203.348515 163.329541 
L 203.856805 163.473534 
L 204.365094 163.61552 
L 204.873383 163.755521 
L 205.381672 163.893559 
L 205.889962 164.029657 
L 206.398251 164.163838 
L 206.90654 164.296124 
L 207.41483 164.426536 
L 207.923119 164.555097 
L 208.431408 164.681829 
L 208.939698 164.806754 
L 209.447987 164.929894 
L 209.956276 165.051269 
L 210.464565 165.170903 
L 210.972855 165.288815 
L 211.481144 165.405028 
L 211.989433 165.519563 
L 212.497723 165.632441 
L 213.006012 165.743682 
L 213.514301 165.853308 
L 214.022591 165.961339 
L 214.53088 166.067795 
L 215.039169 166.172698 
L 215.547459 166.276066 
L 216.055748 166.377921 
L 216.564037 166.478282 
L 217.072326 166.577169 
L 217.580616 166.674601 
L 218.088905 166.770597 
L 218.597194 166.865178 
L 219.105484 166.958362 
L 219.613773 167.050169 
L 220.122062 167.140616 
L 220.630352 167.229722 
L 221.138641 167.317507 
L 221.64693 167.403988 
L 222.15522 167.489183 
L 222.663509 167.57311 
L 223.171798 167.655788 
L 223.680087 167.737233 
L 224.188377 167.817463 
L 224.696666 167.896496 
L 225.204955 167.974349 
L 225.713245 168.051038 
L 226.221534 168.12658 
L 226.729823 168.200992 
L 227.238113 168.27429 
L 227.746402 168.346492 
L 228.254691 168.417612 
L 228.762981 168.487667 
L 229.27127 168.556672 
L 229.779559 168.624644 
L 230.287848 168.691597 
L 230.796138 168.757547 
L 231.304427 168.82251 
L 231.812716 168.8865 
L 232.321006 168.949532 
L 232.829295 169.011621 
L 233.337584 169.072782 
L 233.845874 169.133028 
L 234.354163 169.192374 
L 234.862452 169.250835 
L 235.370741 169.308423 
L 235.879031 169.365154 
L 236.38732 169.42104 
L 236.895609 169.476096 
L 237.403899 169.530334 
L 237.912188 169.583768 
L 238.420477 169.636411 
L 238.928767 169.688276 
L 239.437056 169.739376 
L 239.945345 169.789723 
L 240.453635 169.839331 
L 240.961924 169.888211 
L 241.470213 169.936376 
L 241.978502 169.983838 
L 242.486792 170.03061 
L 242.995081 170.076703 
L 243.50337 170.122129 
L 244.01166 170.166899 
L 244.519949 170.211026 
L 245.028238 170.254522 
L 245.536528 170.297396 
L 246.044817 170.339661 
L 246.553106 170.381328 
L 247.061396 170.422408 
L 247.569685 170.462911 
L 248.077974 170.50285 
L 248.586263 170.542233 
L 249.094553 170.581073 
L 249.602842 170.61938 
L 250.111131 170.657163 
L 250.619421 170.694434 
L 251.12771 170.731203 
L 251.635999 170.767479 
L 252.144289 170.803274 
L 252.652578 170.838597 
L 253.160867 170.873457 
L 253.669156 170.907865 
L 254.177446 170.941831 
L 254.685735 170.975363 
L 255.194024 171.008472 
L 255.702314 171.041168 
L 256.210603 171.073458 
L 256.718892 171.105353 
L 257.227182 171.136862 
L 257.735471 171.167994 
L 258.24376 171.198758 
L 258.75205 171.229162 
L 259.260339 171.259217 
L 259.768628 171.28893 
L 260.276917 171.31831 
L 260.785207 171.347365 
L 261.293496 171.376105 
L 261.801785 171.404538 
L 262.310075 171.432671 
L 262.818364 171.460513 
L 263.326653 171.488073 
L 263.834943 171.515357 
L 264.343232 171.542374 
L 264.851521 171.569132 
L 265.359811 171.595638 
L 265.8681 171.6219 
L 266.376389 171.647926 
L 266.884678 171.673722 
L 267.392968 171.699295 
L 267.901257 171.724653 
L 268.409546 171.749803 
L 268.917836 171.774751 
L 269.426125 171.799504 
L 269.934414 171.824068 
L 270.442704 171.84845 
L 270.950993 171.872656 
L 271.459282 171.896691 
L 271.967572 171.920562 
L 272.475861 171.944274 
L 272.98415 171.967832 
L 273.492439 171.991242 
L 274.000729 172.014508 
L 274.509018 172.037637 
L 275.017307 172.060631 
L 275.525597 172.083497 
L 276.033886 172.106237 
L 276.542175 172.128856 
L 277.050465 172.151358 
L 277.558754 172.173746 
L 278.067043 172.196024 
L 278.575332 172.218195 
L 279.083622 172.240263 
L 279.591911 172.262228 
L 280.1002 172.284096 
L 280.60849 172.305866 
L 281.116779 172.327543 
L 281.625068 172.349127 
L 282.133358 172.37062 
L 282.641647 172.392024 
L 283.149936 172.41334 
L 283.658226 172.43457 
L 284.166515 172.455713 
L 284.674804 172.476772 
L 285.183093 172.497746 
L 285.691383 172.518635 
L 286.199672 172.539441 
L 286.707961 172.560163 
L 287.216251 172.580801 
L 287.72454 172.601355 
L 288.232829 172.621825 
L 288.741119 172.64221 
L 289.249408 172.662509 
L 289.757697 172.682722 
L 290.265987 172.702849 
L 290.774276 172.722888 
L 291.282565 172.742838 
L 291.790854 172.762699 
L 292.299144 172.782469 
L 292.807433 172.802147 
L 293.315722 172.821732 
L 293.824012 172.841224 
L 294.332301 172.86062 
L 294.84059 172.87992 
L 295.34888 172.899122 
L 295.857169 172.918225 
L 296.365458 172.937228 
L 296.873747 172.956129 
L 297.382037 172.974927 
L 297.890326 172.993622 
L 298.398615 173.012211 
L 298.906905 173.030693 
L 299.415194 173.049068 
L 299.923483 173.067334 
L 300.431773 173.08549 
L 300.940062 173.103536 
L 301.448351 173.121469 
L 301.956641 173.139288 
L 302.46493 173.156994 
L 302.973219 173.174585 
L 303.481508 173.192059 
L 303.989798 173.209417 
L 304.498087 173.226658 
L 305.006376 173.243779 
L 305.514666 173.260782 
L 306.022955 173.277665 
L 306.531244 173.294428 
L 307.039534 173.31107 
L 307.547823 173.32759 
L 308.056112 173.343988 
L 308.564402 173.360264 
L 309.072691 173.376417 
L 309.58098 173.392447 
L 310.089269 173.408354 
L 310.597559 173.424137 
L 311.105848 173.439796 
L 311.614137 173.455332 
L 312.122427 173.470743 
L 312.630716 173.486029 
L 313.139005 173.501192 
L 313.647295 173.51623 
L 314.155584 173.531145 
L 314.663873 173.545935 
L 315.172163 173.560601 
L 315.680452 173.575143 
L 316.188741 173.589561 
L 316.69703 173.603856 
L 317.20532 173.618028 
L 317.713609 173.632076 
L 318.221898 173.646002 
L 318.730188 173.659806 
L 319.238477 173.673488 
L 319.746766 173.687048 
L 320.255056 173.700486 
L 320.763345 173.713804 
L 321.271634 173.727002 
L 321.779923 173.74008 
L 322.288213 173.753038 
L 322.796502 173.765878 
L 323.304791 173.778599 
L 323.813081 173.791203 
L 324.32137 173.803689 
L 324.829659 173.816059 
L 325.337949 173.828313 
L 325.846238 173.840451 
L 326.354527 173.852475 
L 326.862817 173.864384 
L 327.371106 173.87618 
L 327.879395 173.887863 
L 328.387684 173.899434 
L 328.895974 173.910893 
L 329.404263 173.922242 
L 329.912552 173.933481 
L 330.420842 173.94461 
L 330.929131 173.955631 
L 331.43742 173.966544 
L 331.94571 173.97735 
L 332.453999 173.988049 
L 332.962288 173.998643 
L 333.470578 174.009132 
L 333.978867 174.019516 
L 334.487156 174.029797 
L 334.995445 174.039976 
L 335.503735 174.050053 
L 336.012024 174.060028 
L 336.520313 174.069904 
L 337.028603 174.079679 
L 337.536892 174.089356 
L 338.045181 174.098935 
L 338.553471 174.108417 
L 339.06176 174.117803 
L 339.570049 174.127092 
L 340.078338 174.136287 
L 340.586628 174.145388 
L 341.094917 174.154395 
L 341.603206 174.16331 
L 342.111496 174.172133 
L 342.619785 174.180866 
L 343.128074 174.189507 
L 343.636364 174.19806 
L 343.636364 174.19806 
L 343.636364 171.852703 
L 343.128074 171.850811 
L 342.619785 171.848873 
L 342.111496 171.84689 
L 341.603206 171.84486 
L 341.094917 171.842781 
L 340.586628 171.840654 
L 340.078338 171.838477 
L 339.570049 171.836249 
L 339.06176 171.833969 
L 338.553471 171.831636 
L 338.045181 171.829248 
L 337.536892 171.826804 
L 337.028603 171.824304 
L 336.520313 171.821746 
L 336.012024 171.819129 
L 335.503735 171.816452 
L 334.995445 171.813713 
L 334.487156 171.81091 
L 333.978867 171.808043 
L 333.470578 171.805111 
L 332.962288 171.802111 
L 332.453999 171.799043 
L 331.94571 171.795904 
L 331.43742 171.792694 
L 330.929131 171.789411 
L 330.420842 171.786052 
L 329.912552 171.782618 
L 329.404263 171.779105 
L 328.895974 171.775513 
L 328.387684 171.771839 
L 327.879395 171.768081 
L 327.371106 171.764239 
L 326.862817 171.76031 
L 326.354527 171.756291 
L 325.846238 171.752182 
L 325.337949 171.74798 
L 324.829659 171.743684 
L 324.32137 171.73929 
L 323.813081 171.734797 
L 323.304791 171.730203 
L 322.796502 171.725505 
L 322.288213 171.720702 
L 321.779923 171.71579 
L 321.271634 171.710768 
L 320.763345 171.705633 
L 320.255056 171.700382 
L 319.746766 171.695013 
L 319.238477 171.689523 
L 318.730188 171.68391 
L 318.221898 171.67817 
L 317.713609 171.672301 
L 317.20532 171.666301 
L 316.69703 171.660165 
L 316.188741 171.653891 
L 315.680452 171.647476 
L 315.172163 171.640917 
L 314.663873 171.63421 
L 314.155584 171.627351 
L 313.647295 171.620339 
L 313.139005 171.613168 
L 312.630716 171.605836 
L 312.122427 171.598339 
L 311.614137 171.590673 
L 311.105848 171.582834 
L 310.597559 171.574818 
L 310.089269 171.566622 
L 309.58098 171.55824 
L 309.072691 171.549669 
L 308.564402 171.540905 
L 308.056112 171.531943 
L 307.547823 171.522779 
L 307.039534 171.513407 
L 306.531244 171.503824 
L 306.022955 171.494025 
L 305.514666 171.484004 
L 305.006376 171.473756 
L 304.498087 171.463277 
L 303.989798 171.452561 
L 303.481508 171.441603 
L 302.973219 171.430398 
L 302.46493 171.418939 
L 301.956641 171.407222 
L 301.448351 171.39524 
L 300.940062 171.382988 
L 300.431773 171.370459 
L 299.923483 171.357648 
L 299.415194 171.344549 
L 298.906905 171.331155 
L 298.398615 171.317459 
L 297.890326 171.303456 
L 297.382037 171.289139 
L 296.873747 171.274501 
L 296.365458 171.259536 
L 295.857169 171.244237 
L 295.34888 171.228596 
L 294.84059 171.212607 
L 294.332301 171.196263 
L 293.824012 171.179557 
L 293.315722 171.162482 
L 292.807433 171.14503 
L 292.299144 171.127195 
L 291.790854 171.108968 
L 291.282565 171.090343 
L 290.774276 171.071312 
L 290.265987 171.051869 
L 289.757697 171.032005 
L 289.249408 171.011713 
L 288.741119 170.990986 
L 288.232829 170.969816 
L 287.72454 170.948197 
L 287.216251 170.926121 
L 286.707961 170.903579 
L 286.199672 170.880567 
L 285.691383 170.857075 
L 285.183093 170.833097 
L 284.674804 170.808626 
L 284.166515 170.783655 
L 283.658226 170.758176 
L 283.149936 170.732184 
L 282.641647 170.70567 
L 282.133358 170.678629 
L 281.625068 170.651054 
L 281.116779 170.622938 
L 280.60849 170.594275 
L 280.1002 170.565059 
L 279.591911 170.535283 
L 279.083622 170.504941 
L 278.575332 170.474027 
L 278.067043 170.442535 
L 277.558754 170.41046 
L 277.050465 170.377796 
L 276.542175 170.344537 
L 276.033886 170.310677 
L 275.525597 170.276212 
L 275.017307 170.241136 
L 274.509018 170.205443 
L 274.000729 170.169129 
L 273.492439 170.132189 
L 272.98415 170.094617 
L 272.475861 170.056408 
L 271.967572 170.017559 
L 271.459282 169.978063 
L 270.950993 169.937916 
L 270.442704 169.897114 
L 269.934414 169.855651 
L 269.426125 169.813524 
L 268.917836 169.770727 
L 268.409546 169.727256 
L 267.901257 169.683107 
L 267.392968 169.638274 
L 266.884678 169.592753 
L 266.376389 169.546539 
L 265.8681 169.499629 
L 265.359811 169.452017 
L 264.851521 169.403698 
L 264.343232 169.354668 
L 263.834943 169.304922 
L 263.326653 169.254455 
L 262.818364 169.203263 
L 262.310075 169.151341 
L 261.801785 169.098683 
L 261.293496 169.045284 
L 260.785207 168.991141 
L 260.276917 168.936246 
L 259.768628 168.880595 
L 259.260339 168.824183 
L 258.75205 168.767005 
L 258.24376 168.709054 
L 257.735471 168.650325 
L 257.227182 168.590813 
L 256.718892 168.530511 
L 256.210603 168.469414 
L 255.702314 168.407516 
L 255.194024 168.344811 
L 254.685735 168.281292 
L 254.177446 168.216952 
L 253.669156 168.151787 
L 253.160867 168.085788 
L 252.652578 168.01895 
L 252.144289 167.951265 
L 251.635999 167.882727 
L 251.12771 167.813328 
L 250.619421 167.743062 
L 250.111131 167.67192 
L 249.602842 167.599896 
L 249.094553 167.526982 
L 248.586263 167.45317 
L 248.077974 167.378452 
L 247.569685 167.302821 
L 247.061396 167.226267 
L 246.553106 167.148784 
L 246.044817 167.070362 
L 245.536528 166.990993 
L 245.028238 166.910668 
L 244.519949 166.829379 
L 244.01166 166.747116 
L 243.50337 166.663869 
L 242.995081 166.579631 
L 242.486792 166.494391 
L 241.978502 166.40814 
L 241.470213 166.320868 
L 240.961924 166.232565 
L 240.453635 166.143221 
L 239.945345 166.052826 
L 239.437056 165.961369 
L 238.928767 165.86884 
L 238.420477 165.775227 
L 237.912188 165.680521 
L 237.403899 165.58471 
L 236.895609 165.487782 
L 236.38732 165.389726 
L 235.879031 165.290531 
L 235.370741 165.190185 
L 234.862452 165.088675 
L 234.354163 164.98599 
L 233.845874 164.882117 
L 233.337584 164.777044 
L 232.829295 164.670758 
L 232.321006 164.563245 
L 231.812716 164.454493 
L 231.304427 164.344489 
L 230.796138 164.233218 
L 230.287848 164.120668 
L 229.779559 164.006823 
L 229.27127 163.89167 
L 228.762981 163.775194 
L 228.254691 163.657381 
L 227.746402 163.538216 
L 227.238113 163.417683 
L 226.729823 163.295768 
L 226.221534 163.172454 
L 225.713245 163.047725 
L 225.204955 162.921567 
L 224.696666 162.793961 
L 224.188377 162.664893 
L 223.680087 162.534344 
L 223.171798 162.402297 
L 222.663509 162.268736 
L 222.15522 162.133642 
L 221.64693 161.996997 
L 221.138641 161.858783 
L 220.630352 161.718982 
L 220.122062 161.577574 
L 219.613773 161.43454 
L 219.105484 161.289862 
L 218.597194 161.143517 
L 218.088905 160.995488 
L 217.580616 160.845752 
L 217.072326 160.69429 
L 216.564037 160.541079 
L 216.055748 160.386098 
L 215.547459 160.229326 
L 215.039169 160.07074 
L 214.53088 159.910316 
L 214.022591 159.748032 
L 213.514301 159.583865 
L 213.006012 159.41779 
L 212.497723 159.249783 
L 211.989433 159.079818 
L 211.481144 158.907872 
L 210.972855 158.733917 
L 210.464565 158.557927 
L 209.956276 158.379877 
L 209.447987 158.199738 
L 208.939698 158.017483 
L 208.431408 157.833084 
L 207.923119 157.646511 
L 207.41483 157.457736 
L 206.90654 157.266729 
L 206.398251 157.073458 
L 205.889962 156.877894 
L 205.381672 156.680005 
L 204.873383 156.479757 
L 204.365094 156.277119 
L 203.856805 156.072057 
L 203.348515 155.864536 
L 202.840226 155.654522 
L 202.331937 155.441979 
L 201.823647 155.226871 
L 201.315358 155.009161 
L 200.807069 154.788811 
L 200.298779 154.565782 
L 199.79049 154.340035 
L 199.282201 154.111531 
L 198.773911 153.880228 
L 198.265622 153.646084 
L 197.757333 153.409056 
L 197.249044 153.169102 
L 196.740754 152.926177 
L 196.232465 152.680235 
L 195.724176 152.43123 
L 195.215886 152.179114 
L 194.707597 151.92384 
L 194.199308 151.665358 
L 193.691018 151.403617 
L 193.182729 151.138567 
L 192.67444 150.870155 
L 192.16615 150.598326 
L 191.657861 150.323028 
L 191.149572 150.044202 
L 190.641283 149.761793 
L 190.132993 149.475742 
L 189.624704 149.185989 
L 189.116415 148.892474 
L 188.608125 148.595135 
L 188.099836 148.293908 
L 187.591547 147.988728 
L 187.083257 147.67953 
L 186.574968 147.366245 
L 186.066679 147.048806 
L 185.55839 146.727141 
L 185.0501 146.401179 
L 184.541811 146.070846 
L 184.033522 145.736069 
L 183.525232 145.39677 
L 183.016943 145.052872 
L 182.508654 144.704295 
L 182.000364 144.350959 
L 181.492075 143.992781 
L 180.983786 143.629676 
L 180.475496 143.261559 
L 179.967207 142.888341 
L 179.458918 142.509935 
L 178.950629 142.126249 
L 178.442339 141.73719 
L 177.93405 141.342663 
L 177.425761 140.942573 
L 176.917471 140.536822 
L 176.409182 140.125309 
L 175.900893 139.707934 
L 175.392603 139.284593 
L 174.884314 138.85518 
L 174.376025 138.419589 
L 173.867735 137.97771 
L 173.359446 137.529434 
L 172.851157 137.074648 
L 172.342868 136.613236 
L 171.834578 136.145083 
L 171.326289 135.67007 
L 170.818 135.188077 
L 170.30971 134.698983 
L 169.801421 134.202663 
L 169.293132 133.698992 
L 168.784842 133.187841 
L 168.276553 132.669082 
L 167.768264 132.142582 
L 167.259974 131.608208 
L 166.751685 131.065825 
L 166.243396 130.515295 
L 165.735107 129.956479 
L 165.226817 129.389236 
L 164.718528 128.813423 
L 164.210239 128.228894 
L 163.701949 127.635502 
L 163.19366 127.033099 
L 162.685371 126.421533 
L 162.177081 125.800652 
L 161.668792 125.1703 
L 161.160503 124.53032 
L 160.652214 123.880554 
L 160.143924 123.220841 
L 159.635635 122.551017 
L 159.127346 121.870917 
L 158.619056 121.180374 
L 158.110767 120.47922 
L 157.602478 119.767282 
L 157.094188 119.044388 
L 156.585899 118.310361 
L 156.07761 117.565024 
L 155.56932 116.808197 
L 155.061031 116.039697 
L 154.552742 115.259341 
L 154.044453 114.466942 
L 153.536163 113.662311 
L 153.027874 112.845256 
L 152.519585 112.015584 
L 152.011295 111.173098 
L 151.503006 110.317601 
L 150.994717 109.448891 
L 150.486427 108.566765 
L 149.978138 107.671017 
L 149.469849 106.761438 
L 148.961559 105.837817 
L 148.45327 104.899939 
L 147.944981 103.947589 
L 147.436692 102.980547 
L 146.928402 101.998591 
L 146.420113 101.001494 
L 145.911824 99.989031 
L 145.403534 98.960968 
L 144.895245 97.917073 
L 144.386956 96.857109 
L 143.878666 95.780835 
L 143.370377 94.688007 
L 142.862088 93.57838 
L 142.353799 92.451703 
L 141.845509 91.307722 
L 141.33722 90.146183 
L 140.828931 88.966823 
L 140.320641 87.76938 
L 139.812352 86.553586 
L 139.304063 85.319171 
L 138.795773 84.06586 
L 138.287484 82.793374 
L 137.779195 81.501432 
L 137.270905 80.189746 
L 136.762616 78.858029 
L 136.254327 77.505984 
L 135.746038 76.133315 
L 135.237748 74.739718 
L 134.729459 73.324887 
L 134.22117 71.888512 
L 133.71288 70.430277 
L 133.204591 68.949862 
L 132.696302 67.446944 
L 132.188012 65.921192 
L 131.679723 64.372275 
L 131.171434 62.799855 
L 130.663144 61.203587 
L 130.154855 59.583125 
L 129.646566 57.938115 
L 129.138277 56.268199 
L 128.629987 54.573016 
L 128.121698 52.852197 
L 127.613409 51.105368 
L 127.105119 49.33215 
L 126.59683 47.532161 
L 126.088541 45.70501 
L 125.580251 43.850302 
L 125.071962 41.967636 
L 124.563673 40.056605 
L 124.055383 38.116797 
L 123.547094 36.147793 
L 123.038805 34.149171 
L 122.530516 32.120497 
L 122.022226 30.061337 
L 121.513937 27.971246 
L 121.005648 25.849776 
L 120.497358 23.69647 
L 119.989069 21.510866 
L 119.48078 19.292496 
L 118.97249 17.040883 
L 118.464201 14.755544 
L 117.955912 12.43599 
L 117.447623 10.081724 
L 116.939333 7.692242 
L 116.431044 5.267032 
L 115.922755 2.805577 
L 115.414465 0.307349 
L 114.906176 -2.228183 
L 114.397887 -4.801562 
L 113.889597 -7.413338 
L 113.381308 -10.064066 
L 112.873019 -12.754313 
L 112.364729 -15.484652 
L 111.85644 -18.255664 
L 111.348151 -21.067938 
L 110.839862 -23.922073 
L 110.331572 -26.818678 
L 109.823283 -29.758367 
L 109.314994 -32.741765 
L 108.806704 -35.769505 
L 108.298415 -38.842232 
L 107.790126 -41.960595 
L 107.281836 -45.125259 
L 106.773547 -48.336892 
L 106.265258 -51.596176 
L 105.756968 -54.903802 
L 105.248679 -58.260469 
L 104.74039 -61.666889 
L 104.232101 -65.123782 
L 103.723811 -68.63188 
L 103.215522 -72.191923 
L 102.707233 -75.804664 
L 102.198943 -79.470867 
L 101.690654 -83.191306 
L 101.182365 -86.966764 
L 100.674075 -90.79804 
L 100.165786 -94.685942 
L 99.657497 -98.631288 
L 99.149208 -102.634911 
L 98.640918 -106.697653 
L 98.132629 -110.820369 
L 97.62434 -115.003929 
L 97.11605 -119.249211 
L 96.607761 -123.557109 
L 96.099472 -127.928529 
L 95.591182 -132.364388 
L 95.082893 -136.865619 
L 94.574604 -141.433167 
L 94.066314 -146.06799 
L 93.558025 -150.771061 
L 93.049736 -155.543367 
L 92.541447 -160.385908 
L 92.033157 -165.299698 
L 91.524868 -170.285769 
L 91.016579 -175.345162 
L 90.508289 -180.478939 
L 90 -185.688172 
z
" style="fill:#dfb4af;stroke:#dfb4af;"/>
   </g>
   <g id="matplotlib.axis_1">
    <g id="xtick_1">
     <g id="line2d_1">
      <path clip-path="url(#p35757dc37e)" d="M 111.136364 189 
L 111.136364 25.92 
" style="fill:none;stroke:#b0b0b0;stroke-dasharray:0.5,0.825;stroke-dashoffset:0;stroke-width:0.5;"/>
     </g>
     <g id="line2d_2">
      <defs>
       <path d="M 0 0 
L 0 3.5 
" id="mcf9dd9f027" style="stroke:#000000;stroke-width:0.8;"/>
      </defs>
      <g>
       <use style="stroke:#000000;stroke-width:0.8;" x="111.136364" xlink:href="#mcf9dd9f027" y="189"/>
      </g>
     </g>
     <g id="text_1">
      <!-- 0 -->
      <defs>
       <path d="M 31.78125 66.40625 
Q 24.171875 66.40625 20.328125 58.90625 
Q 16.5 51.421875 16.5 36.375 
Q 16.5 21.390625 20.328125 13.890625 
Q 24.171875 6.390625 31.78125 6.390625 
Q 39.453125 6.390625 43.28125 13.890625 
Q 47.125 21.390625 47.125 36.375 
Q 47.125 51.421875 43.28125 58.90625 
Q 39.453125 66.40625 31.78125 66.40625 
z
M 31.78125 74.21875 
Q 44.046875 74.21875 50.515625 64.515625 
Q 56.984375 54.828125 56.984375 36.375 
Q 56.984375 17.96875 50.515625 8.265625 
Q 44.046875 -1.421875 31.78125 -1.421875 
Q 19.53125 -1.421875 13.0625 8.265625 
Q 6.59375 17.96875 6.59375 36.375 
Q 6.59375 54.828125 13.0625 64.515625 
Q 19.53125 74.21875 31.78125 74.21875 
z
" id="DejaVuSans-30"/>
      </defs>
      <g transform="translate(107.955114 203.598437)scale(0.1 -0.1)">
       <use xlink:href="#DejaVuSans-30"/>
      </g>
     </g>
    </g>
    <g id="xtick_2">
     <g id="line2d_3">
      <path clip-path="url(#p35757dc37e)" d="M 153.409091 189 
L 153.409091 25.92 
" style="fill:none;stroke:#b0b0b0;stroke-dasharray:0.5,0.825;stroke-dashoffset:0;stroke-width:0.5;"/>
     </g>
     <g id="line2d_4">
      <g>
       <use style="stroke:#000000;stroke-width:0.8;" x="153.409091" xlink:href="#mcf9dd9f027" y="189"/>
      </g>
     </g>
     <g id="text_2">
      <!-- 2 -->
      <defs>
       <path d="M 19.1875 8.296875 
L 53.609375 8.296875 
L 53.609375 0 
L 7.328125 0 
L 7.328125 8.296875 
Q 12.9375 14.109375 22.625 23.890625 
Q 32.328125 33.6875 34.8125 36.53125 
Q 39.546875 41.84375 41.421875 45.53125 
Q 43.3125 49.21875 43.3125 52.78125 
Q 43.3125 58.59375 39.234375 62.25 
Q 35.15625 65.921875 28.609375 65.921875 
Q 23.96875 65.921875 18.8125 64.3125 
Q 13.671875 62.703125 7.8125 59.421875 
L 7.8125 69.390625 
Q 13.765625 71.78125 18.9375 73 
Q 24.125 74.21875 28.421875 74.21875 
Q 39.75 74.21875 46.484375 68.546875 
Q 53.21875 62.890625 53.21875 53.421875 
Q 53.21875 48.921875 51.53125 44.890625 
Q 49.859375 40.875 45.40625 35.40625 
Q 44.1875 33.984375 37.640625 27.21875 
Q 31.109375 20.453125 19.1875 8.296875 
z
" id="DejaVuSans-32"/>
      </defs>
      <g transform="translate(150.227841 203.598437)scale(0.1 -0.1)">
       <use xlink:href="#DejaVuSans-32"/>
      </g>
     </g>
    </g>
    <g id="xtick_3">
     <g id="line2d_5">
      <path clip-path="url(#p35757dc37e)" d="M 195.681818 189 
L 195.681818 25.92 
" style="fill:none;stroke:#b0b0b0;stroke-dasharray:0.5,0.825;stroke-dashoffset:0;stroke-width:0.5;"/>
     </g>
     <g id="line2d_6">
      <g>
       <use style="stroke:#000000;stroke-width:0.8;" x="195.681818" xlink:href="#mcf9dd9f027" y="189"/>
      </g>
     </g>
     <g id="text_3">
      <!-- 4 -->
      <defs>
       <path d="M 37.796875 64.3125 
L 12.890625 25.390625 
L 37.796875 25.390625 
z
M 35.203125 72.90625 
L 47.609375 72.90625 
L 47.609375 25.390625 
L 58.015625 25.390625 
L 58.015625 17.1875 
L 47.609375 17.1875 
L 47.609375 0 
L 37.796875 0 
L 37.796875 17.1875 
L 4.890625 17.1875 
L 4.890625 26.703125 
z
" id="DejaVuSans-34"/>
      </defs>
      <g transform="translate(192.500568 203.598437)scale(0.1 -0.1)">
       <use xlink:href="#DejaVuSans-34"/>
      </g>
     </g>
    </g>
    <g id="xtick_4">
     <g id="line2d_7">
      <path clip-path="url(#p35757dc37e)" d="M 237.954545 189 
L 237.954545 25.92 
" style="fill:none;stroke:#b0b0b0;stroke-dasharray:0.5,0.825;stroke-dashoffset:0;stroke-width:0.5;"/>
     </g>
     <g id="line2d_8">
      <g>
       <use style="stroke:#000000;stroke-width:0.8;" x="237.954545" xlink:href="#mcf9dd9f027" y="189"/>
      </g>
     </g>
     <g id="text_4">
      <!-- 6 -->
      <defs>
       <path d="M 33.015625 40.375 
Q 26.375 40.375 22.484375 35.828125 
Q 18.609375 31.296875 18.609375 23.390625 
Q 18.609375 15.53125 22.484375 10.953125 
Q 26.375 6.390625 33.015625 6.390625 
Q 39.65625 6.390625 43.53125 10.953125 
Q 47.40625 15.53125 47.40625 23.390625 
Q 47.40625 31.296875 43.53125 35.828125 
Q 39.65625 40.375 33.015625 40.375 
z
M 52.59375 71.296875 
L 52.59375 62.3125 
Q 48.875 64.0625 45.09375 64.984375 
Q 41.3125 65.921875 37.59375 65.921875 
Q 27.828125 65.921875 22.671875 59.328125 
Q 17.53125 52.734375 16.796875 39.40625 
Q 19.671875 43.65625 24.015625 45.921875 
Q 28.375 48.1875 33.59375 48.1875 
Q 44.578125 48.1875 50.953125 41.515625 
Q 57.328125 34.859375 57.328125 23.390625 
Q 57.328125 12.15625 50.6875 5.359375 
Q 44.046875 -1.421875 33.015625 -1.421875 
Q 20.359375 -1.421875 13.671875 8.265625 
Q 6.984375 17.96875 6.984375 36.375 
Q 6.984375 53.65625 15.1875 63.9375 
Q 23.390625 74.21875 37.203125 74.21875 
Q 40.921875 74.21875 44.703125 73.484375 
Q 48.484375 72.75 52.59375 71.296875 
z
" id="DejaVuSans-36"/>
      </defs>
      <g transform="translate(234.773295 203.598437)scale(0.1 -0.1)">
       <use xlink:href="#DejaVuSans-36"/>
      </g>
     </g>
    </g>
    <g id="xtick_5">
     <g id="line2d_9">
      <path clip-path="url(#p35757dc37e)" d="M 280.227273 189 
L 280.227273 25.92 
" style="fill:none;stroke:#b0b0b0;stroke-dasharray:0.5,0.825;stroke-dashoffset:0;stroke-width:0.5;"/>
     </g>
     <g id="line2d_10">
      <g>
       <use style="stroke:#000000;stroke-width:0.8;" x="280.227273" xlink:href="#mcf9dd9f027" y="189"/>
      </g>
     </g>
     <g id="text_5">
      <!-- 8 -->
      <defs>
       <path d="M 31.78125 34.625 
Q 24.75 34.625 20.71875 30.859375 
Q 16.703125 27.09375 16.703125 20.515625 
Q 16.703125 13.921875 20.71875 10.15625 
Q 24.75 6.390625 31.78125 6.390625 
Q 38.8125 6.390625 42.859375 10.171875 
Q 46.921875 13.96875 46.921875 20.515625 
Q 46.921875 27.09375 42.890625 30.859375 
Q 38.875 34.625 31.78125 34.625 
z
M 21.921875 38.8125 
Q 15.578125 40.375 12.03125 44.71875 
Q 8.5 49.078125 8.5 55.328125 
Q 8.5 64.0625 14.71875 69.140625 
Q 20.953125 74.21875 31.78125 74.21875 
Q 42.671875 74.21875 48.875 69.140625 
Q 55.078125 64.0625 55.078125 55.328125 
Q 55.078125 49.078125 51.53125 44.71875 
Q 48 40.375 41.703125 38.8125 
Q 48.828125 37.15625 52.796875 32.3125 
Q 56.78125 27.484375 56.78125 20.515625 
Q 56.78125 9.90625 50.3125 4.234375 
Q 43.84375 -1.421875 31.78125 -1.421875 
Q 19.734375 -1.421875 13.25 4.234375 
Q 6.78125 9.90625 6.78125 20.515625 
Q 6.78125 27.484375 10.78125 32.3125 
Q 14.796875 37.15625 21.921875 38.8125 
z
M 18.3125 54.390625 
Q 18.3125 48.734375 21.84375 45.5625 
Q 25.390625 42.390625 31.78125 42.390625 
Q 38.140625 42.390625 41.71875 45.5625 
Q 45.3125 48.734375 45.3125 54.390625 
Q 45.3125 60.0625 41.71875 63.234375 
Q 38.140625 66.40625 31.78125 66.40625 
Q 25.390625 66.40625 21.84375 63.234375 
Q 18.3125 60.0625 18.3125 54.390625 
z
" id="DejaVuSans-38"/>
      </defs>
      <g transform="translate(277.046023 203.598437)scale(0.1 -0.1)">
       <use xlink:href="#DejaVuSans-38"/>
      </g>
     </g>
    </g>
    <g id="xtick_6">
     <g id="line2d_11">
      <path clip-path="url(#p35757dc37e)" d="M 322.5 189 
L 322.5 25.92 
" style="fill:none;stroke:#b0b0b0;stroke-dasharray:0.5,0.825;stroke-dashoffset:0;stroke-width:0.5;"/>
     </g>
     <g id="line2d_12">
      <g>
       <use style="stroke:#000000;stroke-width:0.8;" x="322.5" xlink:href="#mcf9dd9f027" y="189"/>
      </g>
     </g>
     <g id="text_6">
      <!-- 10 -->
      <defs>
       <path d="M 12.40625 8.296875 
L 28.515625 8.296875 
L 28.515625 63.921875 
L 10.984375 60.40625 
L 10.984375 69.390625 
L 28.421875 72.90625 
L 38.28125 72.90625 
L 38.28125 8.296875 
L 54.390625 8.296875 
L 54.390625 0 
L 12.40625 0 
z
" id="DejaVuSans-31"/>
      </defs>
      <g transform="translate(316.1375 203.598437)scale(0.1 -0.1)">
       <use xlink:href="#DejaVuSans-31"/>
       <use x="63.623047" xlink:href="#DejaVuSans-30"/>
      </g>
     </g>
    </g>
   </g>
   <g id="matplotlib.axis_2">
    <g id="ytick_1">
     <g id="line2d_13">
      <path clip-path="url(#p35757dc37e)" d="M 90 185.381953 
L 343.636364 185.381953 
" style="fill:none;stroke:#b0b0b0;stroke-dasharray:0.5,0.825;stroke-dashoffset:0;stroke-width:0.5;"/>
     </g>
     <g id="line2d_14">
      <defs>
       <path d="M 0 0 
L -3.5 0 
" id="m01efff7144" style="stroke:#000000;stroke-width:0.8;"/>
      </defs>
      <g>
       <use style="stroke:#000000;stroke-width:0.8;" x="90" xlink:href="#m01efff7144" y="185.381953"/>
      </g>
     </g>
     <g id="text_7">
      <!-- 0.0 -->
      <defs>
       <path d="M 10.6875 12.40625 
L 21 12.40625 
L 21 0 
L 10.6875 0 
z
" id="DejaVuSans-2e"/>
      </defs>
      <g transform="translate(67.096875 189.181172)scale(0.1 -0.1)">
       <use xlink:href="#DejaVuSans-30"/>
       <use x="63.623047" xlink:href="#DejaVuSans-2e"/>
       <use x="95.410156" xlink:href="#DejaVuSans-30"/>
      </g>
     </g>
    </g>
    <g id="ytick_2">
     <g id="line2d_15">
      <path clip-path="url(#p35757dc37e)" d="M 90 159.214267 
L 343.636364 159.214267 
" style="fill:none;stroke:#b0b0b0;stroke-dasharray:0.5,0.825;stroke-dashoffset:0;stroke-width:0.5;"/>
     </g>
     <g id="line2d_16">
      <g>
       <use style="stroke:#000000;stroke-width:0.8;" x="90" xlink:href="#m01efff7144" y="159.214267"/>
      </g>
     </g>
     <g id="text_8">
      <!-- 0.2 -->
      <g transform="translate(67.096875 163.013486)scale(0.1 -0.1)">
       <use xlink:href="#DejaVuSans-30"/>
       <use x="63.623047" xlink:href="#DejaVuSans-2e"/>
       <use x="95.410156" xlink:href="#DejaVuSans-32"/>
      </g>
     </g>
    </g>
    <g id="ytick_3">
     <g id="line2d_17">
      <path clip-path="url(#p35757dc37e)" d="M 90 133.046581 
L 343.636364 133.046581 
" style="fill:none;stroke:#b0b0b0;stroke-dasharray:0.5,0.825;stroke-dashoffset:0;stroke-width:0.5;"/>
     </g>
     <g id="line2d_18">
      <g>
       <use style="stroke:#000000;stroke-width:0.8;" x="90" xlink:href="#m01efff7144" y="133.046581"/>
      </g>
     </g>
     <g id="text_9">
      <!-- 0.4 -->
      <g transform="translate(67.096875 136.8458)scale(0.1 -0.1)">
       <use xlink:href="#DejaVuSans-30"/>
       <use x="63.623047" xlink:href="#DejaVuSans-2e"/>
       <use x="95.410156" xlink:href="#DejaVuSans-34"/>
      </g>
     </g>
    </g>
    <g id="ytick_4">
     <g id="line2d_19">
      <path clip-path="url(#p35757dc37e)" d="M 90 106.878895 
L 343.636364 106.878895 
" style="fill:none;stroke:#b0b0b0;stroke-dasharray:0.5,0.825;stroke-dashoffset:0;stroke-width:0.5;"/>
     </g>
     <g id="line2d_20">
      <g>
       <use style="stroke:#000000;stroke-width:0.8;" x="90" xlink:href="#m01efff7144" y="106.878895"/>
      </g>
     </g>
     <g id="text_10">
      <!-- 0.6 -->
      <g transform="translate(67.096875 110.678113)scale(0.1 -0.1)">
       <use xlink:href="#DejaVuSans-30"/>
       <use x="63.623047" xlink:href="#DejaVuSans-2e"/>
       <use x="95.410156" xlink:href="#DejaVuSans-36"/>
      </g>
     </g>
    </g>
    <g id="ytick_5">
     <g id="line2d_21">
      <path clip-path="url(#p35757dc37e)" d="M 90 80.711208 
L 343.636364 80.711208 
" style="fill:none;stroke:#b0b0b0;stroke-dasharray:0.5,0.825;stroke-dashoffset:0;stroke-width:0.5;"/>
     </g>
     <g id="line2d_22">
      <g>
       <use style="stroke:#000000;stroke-width:0.8;" x="90" xlink:href="#m01efff7144" y="80.711208"/>
      </g>
     </g>
     <g id="text_11">
      <!-- 0.8 -->
      <g transform="translate(67.096875 84.510427)scale(0.1 -0.1)">
       <use xlink:href="#DejaVuSans-30"/>
       <use x="63.623047" xlink:href="#DejaVuSans-2e"/>
       <use x="95.410156" xlink:href="#DejaVuSans-38"/>
      </g>
     </g>
    </g>
    <g id="ytick_6">
     <g id="line2d_23">
      <path clip-path="url(#p35757dc37e)" d="M 90 54.543522 
L 343.636364 54.543522 
" style="fill:none;stroke:#b0b0b0;stroke-dasharray:0.5,0.825;stroke-dashoffset:0;stroke-width:0.5;"/>
     </g>
     <g id="line2d_24">
      <g>
       <use style="stroke:#000000;stroke-width:0.8;" x="90" xlink:href="#m01efff7144" y="54.543522"/>
      </g>
     </g>
     <g id="text_12">
      <!-- 1.0 -->
      <g transform="translate(67.096875 58.342741)scale(0.1 -0.1)">
       <use xlink:href="#DejaVuSans-31"/>
       <use x="63.623047" xlink:href="#DejaVuSans-2e"/>
       <use x="95.410156" xlink:href="#DejaVuSans-30"/>
      </g>
     </g>
    </g>
    <g id="ytick_7">
     <g id="line2d_25">
      <path clip-path="url(#p35757dc37e)" d="M 90 28.375836 
L 343.636364 28.375836 
" style="fill:none;stroke:#b0b0b0;stroke-dasharray:0.5,0.825;stroke-dashoffset:0;stroke-width:0.5;"/>
     </g>
     <g id="line2d_26">
      <g>
       <use style="stroke:#000000;stroke-width:0.8;" x="90" xlink:href="#m01efff7144" y="28.375836"/>
      </g>
     </g>
     <g id="text_13">
      <!-- 1.2 -->
      <g transform="translate(67.096875 32.175055)scale(0.1 -0.1)">
       <use xlink:href="#DejaVuSans-31"/>
       <use x="63.623047" xlink:href="#DejaVuSans-2e"/>
       <use x="95.410156" xlink:href="#DejaVuSans-32"/>
      </g>
     </g>
    </g>
   </g>
   <g id="LineCollection_1">
    <path clip-path="url(#p35757dc37e)" d="M 111.136364 105.583408 
L 111.136364 -1 
" style="fill:none;stroke:#a52a2a;stroke-width:1.5;"/>
    <path clip-path="url(#p35757dc37e)" d="M 118.424765 118.436182 
L 118.424765 7.010138 
" style="fill:none;stroke:#a52a2a;stroke-width:1.5;"/>
    <path clip-path="url(#p35757dc37e)" d="M 125.713166 124.070817 
L 125.713166 30.084015 
" style="fill:none;stroke:#a52a2a;stroke-width:1.5;"/>
    <path clip-path="url(#p35757dc37e)" d="M 133.001567 127.97367 
L 133.001567 48.664271 
" style="fill:none;stroke:#a52a2a;stroke-width:1.5;"/>
    <path clip-path="url(#p35757dc37e)" d="M 140.289969 141.047361 
L 140.289969 74.090917 
" style="fill:none;stroke:#a52a2a;stroke-width:1.5;"/>
    <path clip-path="url(#p35757dc37e)" d="M 147.57837 146.24561 
L 147.57837 89.685794 
" style="fill:none;stroke:#a52a2a;stroke-width:1.5;"/>
    <path clip-path="url(#p35757dc37e)" d="M 154.866771 143.502996 
L 154.866771 95.693303 
" style="fill:none;stroke:#a52a2a;stroke-width:1.5;"/>
    <path clip-path="url(#p35757dc37e)" d="M 162.155172 150.371536 
L 162.155172 109.926216 
" style="fill:none;stroke:#a52a2a;stroke-width:1.5;"/>
    <path clip-path="url(#p35757dc37e)" d="M 169.443574 158.325635 
L 169.443574 124.078399 
" style="fill:none;stroke:#a52a2a;stroke-width:1.5;"/>
    <path clip-path="url(#p35757dc37e)" d="M 176.731975 156.961495 
L 176.731975 127.930757 
" style="fill:none;stroke:#a52a2a;stroke-width:1.5;"/>
    <path clip-path="url(#p35757dc37e)" d="M 184.020376 163.105294 
L 184.020376 138.464922 
" style="fill:none;stroke:#a52a2a;stroke-width:1.5;"/>
    <path clip-path="url(#p35757dc37e)" d="M 191.308777 164.961903 
L 191.308777 144.016598 
" style="fill:none;stroke:#a52a2a;stroke-width:1.5;"/>
    <path clip-path="url(#p35757dc37e)" d="M 198.597179 163.739045 
L 198.597179 145.903622 
" style="fill:none;stroke:#a52a2a;stroke-width:1.5;"/>
    <path clip-path="url(#p35757dc37e)" d="M 205.88558 173.507388 
L 205.88558 158.289339 
" style="fill:none;stroke:#a52a2a;stroke-width:1.5;"/>
    <path clip-path="url(#p35757dc37e)" d="M 213.173981 173.869467 
L 213.173981 160.85428 
" style="fill:none;stroke:#a52a2a;stroke-width:1.5;"/>
    <path clip-path="url(#p35757dc37e)" d="M 220.462382 170.232964 
L 220.462382 159.071773 
" style="fill:none;stroke:#a52a2a;stroke-width:1.5;"/>
    <path clip-path="url(#p35757dc37e)" d="M 227.750784 172.781607 
L 227.750784 163.180797 
" style="fill:none;stroke:#a52a2a;stroke-width:1.5;"/>
    <path clip-path="url(#p35757dc37e)" d="M 235.039185 168.229253 
L 235.039185 159.941708 
" style="fill:none;stroke:#a52a2a;stroke-width:1.5;"/>
    <path clip-path="url(#p35757dc37e)" d="M 242.327586 173.579497 
L 242.327586 166.397236 
" style="fill:none;stroke:#a52a2a;stroke-width:1.5;"/>
    <path clip-path="url(#p35757dc37e)" d="M 249.615987 176.023992 
L 249.615987 169.771972 
" style="fill:none;stroke:#a52a2a;stroke-width:1.5;"/>
    <path clip-path="url(#p35757dc37e)" d="M 256.904389 165.119049 
L 256.904389 159.649947 
" style="fill:none;stroke:#a52a2a;stroke-width:1.5;"/>
    <path clip-path="url(#p35757dc37e)" d="M 264.19279 172.087615 
L 264.19279 167.277443 
" style="fill:none;stroke:#a52a2a;stroke-width:1.5;"/>
    <path clip-path="url(#p35757dc37e)" d="M 271.481191 171.213638 
L 271.481191 166.958041 
" style="fill:none;stroke:#a52a2a;stroke-width:1.5;"/>
    <path clip-path="url(#p35757dc37e)" d="M 278.769592 177.304425 
L 278.769592 173.515575 
" style="fill:none;stroke:#a52a2a;stroke-width:1.5;"/>
    <path clip-path="url(#p35757dc37e)" d="M 286.057994 174.04527 
L 286.057994 170.64925 
" style="fill:none;stroke:#a52a2a;stroke-width:1.5;"/>
    <path clip-path="url(#p35757dc37e)" d="M 293.346395 171.638405 
L 293.346395 168.573002 
" style="fill:none;stroke:#a52a2a;stroke-width:1.5;"/>
    <path clip-path="url(#p35757dc37e)" d="M 300.634796 176.730748 
L 300.634796 173.943602 
" style="fill:none;stroke:#a52a2a;stroke-width:1.5;"/>
    <path clip-path="url(#p35757dc37e)" d="M 307.923197 170.855345 
L 307.923197 168.30239 
" style="fill:none;stroke:#a52a2a;stroke-width:1.5;"/>
    <path clip-path="url(#p35757dc37e)" d="M 315.211599 174.786167 
L 315.211599 172.430313 
" style="fill:none;stroke:#a52a2a;stroke-width:1.5;"/>
    <path clip-path="url(#p35757dc37e)" d="M 322.5 173.656454 
L 322.5 171.466487 
" style="fill:none;stroke:#a52a2a;stroke-width:1.5;"/>
   </g>
   <g id="line2d_27">
    <path clip-path="url(#p35757dc37e)" d="M 102.597489 -1 
L 105.248679 10.255698 
L 108.298415 22.305677 
L 111.348151 33.465806 
L 114.397887 43.801795 
L 117.447623 53.374505 
L 120.497358 62.240302 
L 123.547094 70.451388 
L 126.59683 78.056113 
L 129.646566 85.099254 
L 132.696302 91.622282 
L 135.746038 97.663605 
L 138.795773 103.258797 
L 141.845509 108.440802 
L 144.895245 113.240132 
L 148.45327 118.393277 
L 152.011295 123.105246 
L 155.56932 127.413808 
L 159.127346 131.353501 
L 162.685371 134.955905 
L 166.243396 138.249896 
L 169.801421 141.261878 
L 173.867735 144.389702 
L 177.93405 147.213408 
L 182.000364 149.762565 
L 186.066679 152.063868 
L 190.641283 154.386483 
L 195.215886 156.456632 
L 200.298779 158.493971 
L 205.381672 160.286782 
L 210.972855 162.011366 
L 216.564037 163.50968 
L 222.663509 164.920923 
L 229.27127 166.224171 
L 236.38732 167.405383 
L 244.519949 168.520203 
L 253.160867 169.479623 
L 262.818364 170.331888 
L 274.000729 171.091819 
L 287.216251 171.753461 
L 302.46493 172.287967 
L 321.271634 172.718885 
L 343.636364 173.025382 
L 343.636364 173.025382 
" style="fill:none;stroke:#a52a2a;stroke-linecap:square;stroke-width:1.5;"/>
   </g>
   <g id="line2d_28">
    <defs>
     <path d="M 0 3.5 
C 0.928211 3.5 1.81853 3.131218 2.474874 2.474874 
C 3.131218 1.81853 3.5 0.928211 3.5 0 
C 3.5 -0.928211 3.131218 -1.81853 2.474874 -2.474874 
C 1.81853 -3.131218 0.928211 -3.5 0 -3.5 
C -0.928211 -3.5 -1.81853 -3.131218 -2.474874 -2.474874 
C -3.131218 -1.81853 -3.5 -0.928211 -3.5 0 
C -3.5 0.928211 -3.131218 1.81853 -2.474874 2.474874 
C -1.81853 3.131218 -0.928211 3.5 0 3.5 
z
" id="mdaa7a17dda" style="stroke:#a52a2a;stroke-width:0.8;"/>
    </defs>
    <g clip-path="url(#p35757dc37e)">
     <use style="fill:#59c48c;stroke:#a52a2a;stroke-width:0.8;" x="111.136364" xlink:href="#mdaa7a17dda" y="39.51"/>
     <use style="fill:#59c48c;stroke:#a52a2a;stroke-width:0.8;" x="118.424765" xlink:href="#mdaa7a17dda" y="62.72316"/>
     <use style="fill:#59c48c;stroke:#a52a2a;stroke-width:0.8;" x="125.713166" xlink:href="#mdaa7a17dda" y="77.077416"/>
     <use style="fill:#59c48c;stroke:#a52a2a;stroke-width:0.8;" x="133.001567" xlink:href="#mdaa7a17dda" y="88.318971"/>
     <use style="fill:#59c48c;stroke:#a52a2a;stroke-width:0.8;" x="140.289969" xlink:href="#mdaa7a17dda" y="107.569139"/>
     <use style="fill:#59c48c;stroke:#a52a2a;stroke-width:0.8;" x="147.57837" xlink:href="#mdaa7a17dda" y="117.965702"/>
     <use style="fill:#59c48c;stroke:#a52a2a;stroke-width:0.8;" x="154.866771" xlink:href="#mdaa7a17dda" y="119.59815"/>
     <use style="fill:#59c48c;stroke:#a52a2a;stroke-width:0.8;" x="162.155172" xlink:href="#mdaa7a17dda" y="130.148876"/>
     <use style="fill:#59c48c;stroke:#a52a2a;stroke-width:0.8;" x="169.443574" xlink:href="#mdaa7a17dda" y="141.202017"/>
     <use style="fill:#59c48c;stroke:#a52a2a;stroke-width:0.8;" x="176.731975" xlink:href="#mdaa7a17dda" y="142.446126"/>
     <use style="fill:#59c48c;stroke:#a52a2a;stroke-width:0.8;" x="184.020376" xlink:href="#mdaa7a17dda" y="150.785108"/>
     <use style="fill:#59c48c;stroke:#a52a2a;stroke-width:0.8;" x="191.308777" xlink:href="#mdaa7a17dda" y="154.48925"/>
     <use style="fill:#59c48c;stroke:#a52a2a;stroke-width:0.8;" x="198.597179" xlink:href="#mdaa7a17dda" y="154.821334"/>
     <use style="fill:#59c48c;stroke:#a52a2a;stroke-width:0.8;" x="205.88558" xlink:href="#mdaa7a17dda" y="165.898363"/>
     <use style="fill:#59c48c;stroke:#a52a2a;stroke-width:0.8;" x="213.173981" xlink:href="#mdaa7a17dda" y="167.361874"/>
     <use style="fill:#59c48c;stroke:#a52a2a;stroke-width:0.8;" x="220.462382" xlink:href="#mdaa7a17dda" y="164.652369"/>
     <use style="fill:#59c48c;stroke:#a52a2a;stroke-width:0.8;" x="227.750784" xlink:href="#mdaa7a17dda" y="167.981202"/>
     <use style="fill:#59c48c;stroke:#a52a2a;stroke-width:0.8;" x="235.039185" xlink:href="#mdaa7a17dda" y="164.08548"/>
     <use style="fill:#59c48c;stroke:#a52a2a;stroke-width:0.8;" x="242.327586" xlink:href="#mdaa7a17dda" y="169.988366"/>
     <use style="fill:#59c48c;stroke:#a52a2a;stroke-width:0.8;" x="249.615987" xlink:href="#mdaa7a17dda" y="172.897982"/>
     <use style="fill:#59c48c;stroke:#a52a2a;stroke-width:0.8;" x="256.904389" xlink:href="#mdaa7a17dda" y="162.384498"/>
     <use style="fill:#59c48c;stroke:#a52a2a;stroke-width:0.8;" x="264.19279" xlink:href="#mdaa7a17dda" y="169.682529"/>
     <use style="fill:#59c48c;stroke:#a52a2a;stroke-width:0.8;" x="271.481191" xlink:href="#mdaa7a17dda" y="169.085839"/>
     <use style="fill:#59c48c;stroke:#a52a2a;stroke-width:0.8;" x="278.769592" xlink:href="#mdaa7a17dda" y="175.41"/>
     <use style="fill:#59c48c;stroke:#a52a2a;stroke-width:0.8;" x="286.057994" xlink:href="#mdaa7a17dda" y="172.34726"/>
     <use style="fill:#59c48c;stroke:#a52a2a;stroke-width:0.8;" x="293.346395" xlink:href="#mdaa7a17dda" y="170.105704"/>
     <use style="fill:#59c48c;stroke:#a52a2a;stroke-width:0.8;" x="300.634796" xlink:href="#mdaa7a17dda" y="175.337175"/>
     <use style="fill:#59c48c;stroke:#a52a2a;stroke-width:0.8;" x="307.923197" xlink:href="#mdaa7a17dda" y="169.578867"/>
     <use style="fill:#59c48c;stroke:#a52a2a;stroke-width:0.8;" x="315.211599" xlink:href="#mdaa7a17dda" y="173.60824"/>
     <use style="fill:#59c48c;stroke:#a52a2a;stroke-width:0.8;" x="322.5" xlink:href="#mdaa7a17dda" y="172.56147"/>
    </g>
   </g>
   <g id="line2d_29"/>
   <g id="patch_3">
    <path d="M 90 189 
L 90 25.92 
" style="fill:none;stroke:#000000;stroke-linecap:square;stroke-linejoin:miter;stroke-width:0.8;"/>
   </g>
   <g id="patch_4">
    <path d="M 343.636364 189 
L 343.636364 25.92 
" style="fill:none;stroke:#000000;stroke-linecap:square;stroke-linejoin:miter;stroke-width:0.8;"/>
   </g>
   <g id="patch_5">
    <path d="M 90 189 
L 343.636364 189 
" style="fill:none;stroke:#000000;stroke-linecap:square;stroke-linejoin:miter;stroke-width:0.8;"/>
   </g>
   <g id="patch_6">
    <path d="M 90 25.92 
L 343.636364 25.92 
" style="fill:none;stroke:#000000;stroke-linecap:square;stroke-linejoin:miter;stroke-width:0.8;"/>
   </g>
  </g>
  <g id="axes_2">
   <g id="patch_7">
    <path d="M 394.363636 189 
L 648 189 
L 648 25.92 
L 394.363636 25.92 
z
" style="fill:#fefbf3;"/>
   </g>
   <g id="PolyCollection_2">
    <path clip-path="url(#p58dce737b6)" d="M 394.363636 -32.960833 
L 394.363636 -32.960833 
L 394.871926 -30.786659 
L 395.380215 -28.63399 
L 395.888504 -26.502611 
L 396.396794 -24.392309 
L 396.905083 -22.302871 
L 397.413372 -20.234087 
L 397.921662 -18.185747 
L 398.429951 -16.157644 
L 398.93824 -14.149573 
L 399.446529 -12.161328 
L 399.954819 -10.192707 
L 400.463108 -8.243506 
L 400.971397 -6.313527 
L 401.479687 -4.402567 
L 401.987976 -2.51043 
L 402.496265 -0.636916 
L 403.004555 1.218172 
L 403.512844 3.055029 
L 404.021133 4.873852 
L 404.529422 6.674837 
L 405.037712 8.458178 
L 405.546001 10.224072 
L 406.05429 11.972714 
L 406.56258 13.704299 
L 407.070869 15.419025 
L 407.579158 17.117087 
L 408.087448 18.798685 
L 408.595737 20.464019 
L 409.104026 22.113288 
L 409.612316 23.746697 
L 410.120605 25.364451 
L 410.628894 26.966758 
L 411.137183 28.553829 
L 411.645473 30.125877 
L 412.153762 31.683121 
L 412.662051 33.22578 
L 413.170341 34.754079 
L 413.67863 36.268247 
L 414.186919 37.768514 
L 414.695209 39.255114 
L 415.203498 40.72828 
L 415.711787 42.188248 
L 416.220077 43.635251 
L 416.728366 45.069516 
L 417.236655 46.491264 
L 417.744944 47.900704 
L 418.253234 49.29803 
L 418.761523 50.683414 
L 419.269812 52.057006 
L 419.778102 53.418927 
L 420.286391 54.769267 
L 420.79468 56.108084 
L 421.30297 57.435402 
L 421.811259 58.751215 
L 422.319548 60.055487 
L 422.827837 61.348161 
L 423.336127 62.629161 
L 423.844416 63.8984 
L 424.352705 65.155786 
L 424.860995 66.401227 
L 425.369284 67.634634 
L 425.877573 68.855931 
L 426.385863 70.065051 
L 426.894152 71.26194 
L 427.402441 72.446562 
L 427.910731 73.618894 
L 428.41902 74.778928 
L 428.927309 75.926673 
L 429.435598 77.062148 
L 429.943888 78.185387 
L 430.452177 79.296437 
L 430.960466 80.395353 
L 431.468756 81.482199 
L 431.977045 82.557051 
L 432.485334 83.619988 
L 432.993624 84.671099 
L 433.501913 85.710477 
L 434.010202 86.73822 
L 434.518492 87.75443 
L 435.026781 88.759214 
L 435.53507 89.75268 
L 436.043359 90.73494 
L 436.551649 91.706108 
L 437.059938 92.6663 
L 437.568227 93.615633 
L 438.076517 94.554226 
L 438.584806 95.482197 
L 439.093095 96.399668 
L 439.601385 97.306758 
L 440.109674 98.203589 
L 440.617963 99.090282 
L 441.126253 99.966958 
L 441.634542 100.833739 
L 442.142831 101.690745 
L 442.65112 102.538098 
L 443.15941 103.375919 
L 443.667699 104.204326 
L 444.175988 105.023441 
L 444.684278 105.833381 
L 445.192567 106.634267 
L 445.700856 107.426214 
L 446.209146 108.209341 
L 446.717435 108.983764 
L 447.225724 109.749599 
L 447.734013 110.50696 
L 448.242303 111.255961 
L 448.750592 111.996715 
L 449.258881 112.729333 
L 449.767171 113.453928 
L 450.27546 114.170608 
L 450.783749 114.879483 
L 451.292039 115.580659 
L 451.800328 116.274244 
L 452.308617 116.960342 
L 452.816907 117.639058 
L 453.325196 118.310494 
L 453.833485 118.974751 
L 454.341774 119.631929 
L 454.850064 120.282127 
L 455.358353 120.925441 
L 455.866642 121.561967 
L 456.374932 122.191799 
L 456.883221 122.815029 
L 457.39151 123.431748 
L 457.8998 124.042044 
L 458.408089 124.646006 
L 458.916378 125.243719 
L 459.424668 125.835267 
L 459.932957 126.420733 
L 460.441246 127.000196 
L 460.949535 127.573737 
L 461.457825 128.141433 
L 461.966114 128.703358 
L 462.474403 129.259588 
L 462.982693 129.810193 
L 463.490982 130.355245 
L 463.999271 130.894813 
L 464.507561 131.428964 
L 465.01585 131.957763 
L 465.524139 132.481275 
L 466.032428 132.999562 
L 466.540718 133.512686 
L 467.049007 134.020707 
L 467.557296 134.523682 
L 468.065586 135.02167 
L 468.573875 135.514726 
L 469.082164 136.002903 
L 469.590454 136.486257 
L 470.098743 136.964839 
L 470.607032 137.4387 
L 471.115322 137.90789 
L 471.623611 138.372458 
L 472.1319 138.832453 
L 472.640189 139.287921 
L 473.148479 139.73891 
L 473.656768 140.185463 
L 474.165057 140.627627 
L 474.673347 141.065445 
L 475.181636 141.49896 
L 475.689925 141.928214 
L 476.198215 142.35325 
L 476.706504 142.774109 
L 477.214793 143.190832 
L 477.723083 143.603458 
L 478.231372 144.012027 
L 478.739661 144.416578 
L 479.24795 144.817149 
L 479.75624 145.21378 
L 480.264529 145.606506 
L 480.772818 145.995366 
L 481.281108 146.380396 
L 481.789397 146.761632 
L 482.297686 147.13911 
L 482.805976 147.512867 
L 483.314265 147.882936 
L 483.822554 148.249354 
L 484.330844 148.612153 
L 484.839133 148.971369 
L 485.347422 149.327036 
L 485.855711 149.679186 
L 486.364001 150.027853 
L 486.87229 150.37307 
L 487.380579 150.71487 
L 487.888869 151.053284 
L 488.397158 151.388346 
L 488.905447 151.720085 
L 489.413737 152.048535 
L 489.922026 152.373725 
L 490.430315 152.695688 
L 490.938604 153.014453 
L 491.446894 153.330052 
L 491.955183 153.642513 
L 492.463472 153.951867 
L 492.971762 154.258144 
L 493.480051 154.561372 
L 493.98834 154.861582 
L 494.49663 155.158801 
L 495.004919 155.453058 
L 495.513208 155.744383 
L 496.021498 156.032802 
L 496.529787 156.318343 
L 497.038076 156.601035 
L 497.546365 156.880905 
L 498.054655 157.157979 
L 498.562944 157.432285 
L 499.071233 157.703849 
L 499.579523 157.972699 
L 500.087812 158.238859 
L 500.596101 158.502356 
L 501.104391 158.763216 
L 501.61268 159.021464 
L 502.120969 159.277126 
L 502.629259 159.530227 
L 503.137548 159.780791 
L 503.645837 160.028843 
L 504.154126 160.274408 
L 504.662416 160.51751 
L 505.170705 160.758173 
L 505.678994 160.99642 
L 506.187284 161.232275 
L 506.695573 161.465762 
L 507.203862 161.696904 
L 507.712152 161.925723 
L 508.220441 162.152242 
L 508.72873 162.376484 
L 509.237019 162.598472 
L 509.745309 162.818226 
L 510.253598 163.03577 
L 510.761887 163.251124 
L 511.270177 163.464311 
L 511.778466 163.675352 
L 512.286755 163.884267 
L 512.795045 164.091078 
L 513.303334 164.295806 
L 513.811623 164.49847 
L 514.319913 164.699092 
L 514.828202 164.897691 
L 515.336491 165.094288 
L 515.84478 165.288902 
L 516.35307 165.481552 
L 516.861359 165.672259 
L 517.369648 165.861041 
L 517.877938 166.047918 
L 518.386227 166.232908 
L 518.894516 166.41603 
L 519.402806 166.597302 
L 519.911095 166.776743 
L 520.419384 166.954372 
L 520.927674 167.130205 
L 521.435963 167.304261 
L 521.944252 167.476558 
L 522.452541 167.647113 
L 522.960831 167.815942 
L 523.46912 167.983065 
L 523.977409 168.148496 
L 524.485699 168.312254 
L 524.993988 168.474355 
L 525.502277 168.634815 
L 526.010567 168.793651 
L 526.518856 168.950879 
L 527.027145 169.106515 
L 527.535435 169.260575 
L 528.043724 169.413074 
L 528.552013 169.564028 
L 529.060302 169.713453 
L 529.568592 169.861364 
L 530.076881 170.007776 
L 530.58517 170.152703 
L 531.09346 170.296162 
L 531.601749 170.438166 
L 532.110038 170.578729 
L 532.618328 170.717868 
L 533.126617 170.855594 
L 533.634906 170.991924 
L 534.143195 171.12687 
L 534.651485 171.260447 
L 535.159774 171.392669 
L 535.668063 171.523548 
L 536.176353 171.653099 
L 536.684642 171.781334 
L 537.192931 171.908267 
L 537.701221 172.033912 
L 538.20951 172.15828 
L 538.717799 172.281384 
L 539.226089 172.403238 
L 539.734378 172.523854 
L 540.242667 172.643245 
L 540.750956 172.761422 
L 541.259246 172.878398 
L 541.767535 172.994184 
L 542.275824 173.108794 
L 542.784114 173.222238 
L 543.292403 173.334529 
L 543.800692 173.445678 
L 544.308982 173.555696 
L 544.817271 173.664595 
L 545.32556 173.772386 
L 545.83385 173.879081 
L 546.342139 173.98469 
L 546.850428 174.089224 
L 547.358717 174.192694 
L 547.867007 174.295111 
L 548.375296 174.396485 
L 548.883585 174.496828 
L 549.391875 174.596148 
L 549.900164 174.694458 
L 550.408453 174.791765 
L 550.916743 174.888082 
L 551.425032 174.983418 
L 551.933321 175.077783 
L 552.44161 175.171186 
L 552.9499 175.263637 
L 553.458189 175.355147 
L 553.966478 175.445723 
L 554.474768 175.535377 
L 554.983057 175.624116 
L 555.491346 175.711951 
L 555.999636 175.798891 
L 556.507925 175.884944 
L 557.016214 175.970119 
L 557.524504 176.054426 
L 558.032793 176.137873 
L 558.541082 176.220469 
L 559.049371 176.302222 
L 559.557661 176.383142 
L 560.06595 176.463235 
L 560.574239 176.542512 
L 561.082529 176.620979 
L 561.590818 176.698645 
L 562.099107 176.775519 
L 562.607397 176.851608 
L 563.115686 176.926921 
L 563.623975 177.001464 
L 564.132265 177.075246 
L 564.640554 177.148275 
L 565.148843 177.220558 
L 565.657132 177.292103 
L 566.165422 177.362918 
L 566.673711 177.433008 
L 567.182 177.502383 
L 567.69029 177.571049 
L 568.198579 177.639014 
L 568.706868 177.706284 
L 569.215158 177.772866 
L 569.723447 177.838768 
L 570.231736 177.903997 
L 570.740026 177.968559 
L 571.248315 178.03246 
L 571.756604 178.095709 
L 572.264893 178.158311 
L 572.773183 178.220273 
L 573.281472 178.281601 
L 573.789761 178.342302 
L 574.298051 178.402382 
L 574.80634 178.461847 
L 575.314629 178.520705 
L 575.822919 178.57896 
L 576.331208 178.636619 
L 576.839497 178.693689 
L 577.347786 178.750174 
L 577.856076 178.806081 
L 578.364365 178.861417 
L 578.872654 178.916185 
L 579.380944 178.970394 
L 579.889233 179.024047 
L 580.397522 179.077151 
L 580.905812 179.129712 
L 581.414101 179.181734 
L 581.92239 179.233224 
L 582.43068 179.284186 
L 582.938969 179.334627 
L 583.447258 179.384551 
L 583.955547 179.433963 
L 584.463837 179.48287 
L 584.972126 179.531275 
L 585.480415 179.579185 
L 585.988705 179.626604 
L 586.496994 179.673536 
L 587.005283 179.719988 
L 587.513573 179.765964 
L 588.021862 179.811469 
L 588.530151 179.856507 
L 589.038441 179.901084 
L 589.54673 179.945204 
L 590.055019 179.988871 
L 590.563308 180.032091 
L 591.071598 180.074868 
L 591.579887 180.117206 
L 592.088176 180.15911 
L 592.596466 180.200584 
L 593.104755 180.241633 
L 593.613044 180.282261 
L 594.121334 180.322472 
L 594.629623 180.362271 
L 595.137912 180.401661 
L 595.646201 180.440647 
L 596.154491 180.479234 
L 596.66278 180.517424 
L 597.171069 180.555222 
L 597.679359 180.592633 
L 598.187648 180.62966 
L 598.695937 180.666306 
L 599.204227 180.702577 
L 599.712516 180.738475 
L 600.220805 180.774005 
L 600.729095 180.80917 
L 601.237384 180.843973 
L 601.745673 180.87842 
L 602.253962 180.912513 
L 602.762252 180.946256 
L 603.270541 180.979652 
L 603.77883 181.012705 
L 604.28712 181.045419 
L 604.795409 181.077797 
L 605.303698 181.109842 
L 605.811988 181.141558 
L 606.320277 181.172948 
L 606.828566 181.204016 
L 607.336856 181.234764 
L 607.845145 181.265196 
L 608.353434 181.295316 
L 608.861723 181.325126 
L 609.370013 181.35463 
L 609.878302 181.383831 
L 610.386591 181.412731 
L 610.894881 181.441335 
L 611.40317 181.469644 
L 611.911459 181.497662 
L 612.419749 181.525392 
L 612.928038 181.552838 
L 613.436327 181.58 
L 613.944617 181.606884 
L 614.452906 181.633491 
L 614.961195 181.659825 
L 615.469484 181.685887 
L 615.977774 181.711682 
L 616.486063 181.737211 
L 616.994352 181.762478 
L 617.502642 181.787484 
L 618.010931 181.812234 
L 618.51922 181.836728 
L 619.02751 181.860971 
L 619.535799 181.884964 
L 620.044088 181.908711 
L 620.552377 181.932213 
L 621.060667 181.955473 
L 621.568956 181.978494 
L 622.077245 182.001277 
L 622.585535 182.023826 
L 623.093824 182.046144 
L 623.602113 182.068231 
L 624.110403 182.090091 
L 624.618692 182.111726 
L 625.126981 182.133138 
L 625.635271 182.154329 
L 626.14356 182.175303 
L 626.651849 182.19606 
L 627.160138 182.216604 
L 627.668428 182.236936 
L 628.176717 182.257058 
L 628.685006 182.276973 
L 629.193296 182.296684 
L 629.701585 182.316191 
L 630.209874 182.335497 
L 630.718164 182.354604 
L 631.226453 182.373514 
L 631.734742 182.39223 
L 632.243032 182.410752 
L 632.751321 182.429084 
L 633.25961 182.447227 
L 633.767899 182.465182 
L 634.276189 182.482953 
L 634.784478 182.500541 
L 635.292767 182.517947 
L 635.801057 182.535174 
L 636.309346 182.552223 
L 636.817635 182.569096 
L 637.325925 182.585796 
L 637.834214 182.602323 
L 638.342503 182.61868 
L 638.850792 182.634868 
L 639.359082 182.650889 
L 639.867371 182.666745 
L 640.37566 182.682437 
L 640.88395 182.697968 
L 641.392239 182.713338 
L 641.900528 182.72855 
L 642.408818 182.743605 
L 642.917107 182.758504 
L 643.425396 182.77325 
L 643.933686 182.787844 
L 644.441975 182.802287 
L 644.950264 182.816581 
L 645.458553 182.830727 
L 645.966843 182.844728 
L 646.475132 182.858584 
L 646.983421 182.872297 
L 647.491711 182.885868 
L 648 182.8993 
L 648 182.8993 
L 648 169.51524 
L 647.491711 169.509396 
L 646.983421 169.503478 
L 646.475132 169.497485 
L 645.966843 169.491415 
L 645.458553 169.485267 
L 644.950264 169.479042 
L 644.441975 169.472738 
L 643.933686 169.466353 
L 643.425396 169.459887 
L 642.917107 169.453339 
L 642.408818 169.446707 
L 641.900528 169.439992 
L 641.392239 169.433191 
L 640.88395 169.426303 
L 640.37566 169.419329 
L 639.867371 169.412265 
L 639.359082 169.405112 
L 638.850792 169.397868 
L 638.342503 169.390532 
L 637.834214 169.383103 
L 637.325925 169.37558 
L 636.817635 169.367962 
L 636.309346 169.360246 
L 635.801057 169.352433 
L 635.292767 169.344521 
L 634.784478 169.336509 
L 634.276189 169.328394 
L 633.767899 169.320178 
L 633.25961 169.311857 
L 632.751321 169.30343 
L 632.243032 169.294897 
L 631.734742 169.286256 
L 631.226453 169.277505 
L 630.718164 169.268644 
L 630.209874 169.25967 
L 629.701585 169.250583 
L 629.193296 169.241381 
L 628.685006 169.232063 
L 628.176717 169.222626 
L 627.668428 169.213071 
L 627.160138 169.203394 
L 626.651849 169.193595 
L 626.14356 169.183672 
L 625.635271 169.173624 
L 625.126981 169.163449 
L 624.618692 169.153145 
L 624.110403 169.142712 
L 623.602113 169.132146 
L 623.093824 169.121447 
L 622.585535 169.110613 
L 622.077245 169.099642 
L 621.568956 169.088532 
L 621.060667 169.077283 
L 620.552377 169.065891 
L 620.044088 169.054356 
L 619.535799 169.042675 
L 619.02751 169.030847 
L 618.51922 169.018869 
L 618.010931 169.006741 
L 617.502642 168.99446 
L 616.994352 168.982024 
L 616.486063 168.969431 
L 615.977774 168.95668 
L 615.469484 168.943768 
L 614.961195 168.930693 
L 614.452906 168.917453 
L 613.944617 168.904047 
L 613.436327 168.890472 
L 612.928038 168.876727 
L 612.419749 168.862808 
L 611.911459 168.848714 
L 611.40317 168.834442 
L 610.894881 168.819991 
L 610.386591 168.805359 
L 609.878302 168.790542 
L 609.370013 168.775539 
L 608.861723 168.760347 
L 608.353434 168.744964 
L 607.845145 168.729388 
L 607.336856 168.713616 
L 606.828566 168.697646 
L 606.320277 168.681475 
L 605.811988 168.665101 
L 605.303698 168.648522 
L 604.795409 168.631734 
L 604.28712 168.614735 
L 603.77883 168.597523 
L 603.270541 168.580095 
L 602.762252 168.562448 
L 602.253962 168.544579 
L 601.745673 168.526487 
L 601.237384 168.508167 
L 600.729095 168.489617 
L 600.220805 168.470835 
L 599.712516 168.451817 
L 599.204227 168.432561 
L 598.695937 168.413063 
L 598.187648 168.393321 
L 597.679359 168.373331 
L 597.171069 168.353091 
L 596.66278 168.332597 
L 596.154491 168.311847 
L 595.646201 168.290836 
L 595.137912 168.269562 
L 594.629623 168.248022 
L 594.121334 168.226212 
L 593.613044 168.204129 
L 593.104755 168.181769 
L 592.596466 168.15913 
L 592.088176 168.136207 
L 591.579887 168.112997 
L 591.071598 168.089497 
L 590.563308 168.065702 
L 590.055019 168.04161 
L 589.54673 168.017217 
L 589.038441 167.992519 
L 588.530151 167.967511 
L 588.021862 167.942192 
L 587.513573 167.916555 
L 587.005283 167.890598 
L 586.496994 167.864317 
L 585.988705 167.837707 
L 585.480415 167.810764 
L 584.972126 167.783485 
L 584.463837 167.755865 
L 583.955547 167.727901 
L 583.447258 167.699586 
L 582.938969 167.670919 
L 582.43068 167.641893 
L 581.92239 167.612505 
L 581.414101 167.58275 
L 580.905812 167.552624 
L 580.397522 167.522121 
L 579.889233 167.491238 
L 579.380944 167.45997 
L 578.872654 167.428311 
L 578.364365 167.396258 
L 577.856076 167.363805 
L 577.347786 167.330947 
L 576.839497 167.297679 
L 576.331208 167.263996 
L 575.822919 167.229894 
L 575.314629 167.195366 
L 574.80634 167.160408 
L 574.298051 167.125014 
L 573.789761 167.089179 
L 573.281472 167.052898 
L 572.773183 167.016165 
L 572.264893 166.978974 
L 571.756604 166.941319 
L 571.248315 166.903196 
L 570.740026 166.864598 
L 570.231736 166.825519 
L 569.723447 166.785954 
L 569.215158 166.745896 
L 568.706868 166.70534 
L 568.198579 166.664279 
L 567.69029 166.622707 
L 567.182 166.580617 
L 566.673711 166.538004 
L 566.165422 166.49486 
L 565.657132 166.45118 
L 565.148843 166.406956 
L 564.640554 166.362183 
L 564.132265 166.316852 
L 563.623975 166.270958 
L 563.115686 166.224494 
L 562.607397 166.177451 
L 562.099107 166.129824 
L 561.590818 166.081605 
L 561.082529 166.032786 
L 560.574239 165.983361 
L 560.06595 165.933322 
L 559.557661 165.88266 
L 559.049371 165.83137 
L 558.541082 165.779442 
L 558.032793 165.726869 
L 557.524504 165.673644 
L 557.016214 165.619757 
L 556.507925 165.565201 
L 555.999636 165.509968 
L 555.491346 165.454049 
L 554.983057 165.397435 
L 554.474768 165.340119 
L 553.966478 165.282092 
L 553.458189 165.223344 
L 552.9499 165.163867 
L 552.44161 165.103652 
L 551.933321 165.04269 
L 551.425032 164.980972 
L 550.916743 164.918488 
L 550.408453 164.855229 
L 549.900164 164.791185 
L 549.391875 164.726347 
L 548.883585 164.660705 
L 548.375296 164.594249 
L 547.867007 164.526969 
L 547.358717 164.458854 
L 546.850428 164.389896 
L 546.342139 164.320082 
L 545.83385 164.249403 
L 545.32556 164.177848 
L 544.817271 164.105406 
L 544.308982 164.032066 
L 543.800692 163.957818 
L 543.292403 163.882649 
L 542.784114 163.80655 
L 542.275824 163.729507 
L 541.767535 163.65151 
L 541.259246 163.572547 
L 540.750956 163.492605 
L 540.242667 163.411674 
L 539.734378 163.32974 
L 539.226089 163.246792 
L 538.717799 163.162816 
L 538.20951 163.077801 
L 537.701221 162.991733 
L 537.192931 162.904599 
L 536.684642 162.816387 
L 536.176353 162.727083 
L 535.668063 162.636673 
L 535.159774 162.545144 
L 534.651485 162.452482 
L 534.143195 162.358674 
L 533.634906 162.263704 
L 533.126617 162.167559 
L 532.618328 162.070225 
L 532.110038 161.971686 
L 531.601749 161.871928 
L 531.09346 161.770935 
L 530.58517 161.668693 
L 530.076881 161.565186 
L 529.568592 161.460399 
L 529.060302 161.354315 
L 528.552013 161.246919 
L 528.043724 161.138195 
L 527.535435 161.028126 
L 527.027145 160.916696 
L 526.518856 160.803887 
L 526.010567 160.689683 
L 525.502277 160.574067 
L 524.993988 160.45702 
L 524.485699 160.338527 
L 523.977409 160.218568 
L 523.46912 160.097126 
L 522.960831 159.974182 
L 522.452541 159.849717 
L 521.944252 159.723714 
L 521.435963 159.596152 
L 520.927674 159.467014 
L 520.419384 159.336278 
L 519.911095 159.203926 
L 519.402806 159.069938 
L 518.894516 158.934293 
L 518.386227 158.796971 
L 517.877938 158.657951 
L 517.369648 158.517212 
L 516.861359 158.374732 
L 516.35307 158.230492 
L 515.84478 158.084467 
L 515.336491 157.936638 
L 514.828202 157.78698 
L 514.319913 157.635472 
L 513.811623 157.48209 
L 513.303334 157.326812 
L 512.795045 157.169614 
L 512.286755 157.010471 
L 511.778466 156.849361 
L 511.270177 156.686259 
L 510.761887 156.521139 
L 510.253598 156.353977 
L 509.745309 156.184748 
L 509.237019 156.013425 
L 508.72873 155.839984 
L 508.220441 155.664396 
L 507.712152 155.486637 
L 507.203862 155.306679 
L 506.695573 155.124494 
L 506.187284 154.940056 
L 505.678994 154.753335 
L 505.170705 154.564303 
L 504.662416 154.372932 
L 504.154126 154.179193 
L 503.645837 153.983056 
L 503.137548 153.784491 
L 502.629259 153.583468 
L 502.120969 153.379956 
L 501.61268 153.173924 
L 501.104391 152.965341 
L 500.596101 152.754174 
L 500.087812 152.540393 
L 499.579523 152.323963 
L 499.071233 152.104851 
L 498.562944 151.883026 
L 498.054655 151.658451 
L 497.546365 151.431093 
L 497.038076 151.200917 
L 496.529787 150.967887 
L 496.021498 150.731969 
L 495.513208 150.493125 
L 495.004919 150.251319 
L 494.49663 150.006513 
L 493.98834 149.758671 
L 493.480051 149.507753 
L 492.971762 149.253722 
L 492.463472 148.996537 
L 491.955183 148.73616 
L 491.446894 148.47255 
L 490.938604 148.205667 
L 490.430315 147.935468 
L 489.922026 147.661914 
L 489.413737 147.38496 
L 488.905447 147.104565 
L 488.397158 146.820684 
L 487.888869 146.533274 
L 487.380579 146.242291 
L 486.87229 145.947689 
L 486.364001 145.649423 
L 485.855711 145.347447 
L 485.347422 145.041713 
L 484.839133 144.732174 
L 484.330844 144.418782 
L 483.822554 144.10149 
L 483.314265 143.780247 
L 482.805976 143.455004 
L 482.297686 143.12571 
L 481.789397 142.792315 
L 481.281108 142.454768 
L 480.772818 142.113015 
L 480.264529 141.767005 
L 479.75624 141.416683 
L 479.24795 141.061997 
L 478.739661 140.702892 
L 478.231372 140.339312 
L 477.723083 139.971203 
L 477.214793 139.598508 
L 476.706504 139.22117 
L 476.198215 138.839133 
L 475.689925 138.452338 
L 475.181636 138.060728 
L 474.673347 137.664244 
L 474.165057 137.262826 
L 473.656768 136.856415 
L 473.148479 136.444951 
L 472.640189 136.028374 
L 472.1319 135.606623 
L 471.623611 135.179636 
L 471.115322 134.747353 
L 470.607032 134.309711 
L 470.098743 133.866649 
L 469.590454 133.418105 
L 469.082164 132.964015 
L 468.573875 132.504318 
L 468.065586 132.03895 
L 467.557296 131.56785 
L 467.049007 131.090953 
L 466.540718 130.608198 
L 466.032428 130.11952 
L 465.524139 129.624858 
L 465.01585 129.124149 
L 464.507561 128.617329 
L 463.999271 128.104336 
L 463.490982 127.585108 
L 462.982693 127.059582 
L 462.474403 126.527696 
L 461.966114 125.989388 
L 461.457825 125.444597 
L 460.949535 124.893259 
L 460.441246 124.335315 
L 459.932957 123.770703 
L 459.424668 123.199361 
L 458.916378 122.621229 
L 458.408089 122.036245 
L 457.8998 121.444349 
L 457.39151 120.845481 
L 456.883221 120.239579 
L 456.374932 119.626584 
L 455.866642 119.006433 
L 455.358353 118.379067 
L 454.850064 117.744425 
L 454.341774 117.102445 
L 453.833485 116.453066 
L 453.325196 115.796227 
L 452.816907 115.131866 
L 452.308617 114.45992 
L 451.800328 113.780326 
L 451.292039 113.093022 
L 450.783749 112.397943 
L 450.27546 111.695024 
L 449.767171 110.984201 
L 449.258881 110.265407 
L 448.750592 109.538575 
L 448.242303 108.803638 
L 447.734013 108.060526 
L 447.225724 107.30917 
L 446.717435 106.549499 
L 446.209146 105.781441 
L 445.700856 105.004922 
L 445.192567 104.219868 
L 444.684278 103.426202 
L 444.175988 102.623848 
L 443.667699 101.812727 
L 443.15941 100.992757 
L 442.65112 100.163857 
L 442.142831 99.325943 
L 441.634542 98.478929 
L 441.126253 97.622726 
L 440.617963 96.757246 
L 440.109674 95.882396 
L 439.601385 94.998081 
L 439.093095 94.104206 
L 438.584806 93.200669 
L 438.076517 92.28737 
L 437.568227 91.364202 
L 437.059938 90.431057 
L 436.551649 89.487823 
L 436.043359 88.534384 
L 435.53507 87.57062 
L 435.026781 86.596406 
L 434.518492 85.611614 
L 434.010202 84.616109 
L 433.501913 83.60975 
L 432.993624 82.59239 
L 432.485334 81.563877 
L 431.977045 80.524048 
L 431.468756 79.472734 
L 430.960466 78.409755 
L 430.452177 77.334922 
L 429.943888 76.248033 
L 429.435598 75.148876 
L 428.927309 74.037224 
L 428.41902 72.912835 
L 427.910731 71.775452 
L 427.402441 70.624801 
L 426.894152 69.46059 
L 426.385863 68.282509 
L 425.877573 67.09023 
L 425.369284 65.883405 
L 424.860995 64.661671 
L 424.352705 63.424649 
L 423.844416 62.171949 
L 423.336127 60.903169 
L 422.827837 59.617907 
L 422.319548 58.315762 
L 421.811259 56.996339 
L 421.30297 55.659261 
L 420.79468 54.304168 
L 420.286391 52.930723 
L 419.778102 51.538621 
L 419.269812 50.127581 
L 418.761523 48.697355 
L 418.253234 47.24772 
L 417.744944 45.778478 
L 417.236655 44.289452 
L 416.728366 42.780481 
L 416.220077 41.251413 
L 415.711787 39.702107 
L 415.203498 38.132424 
L 414.695209 36.542226 
L 414.186919 34.931371 
L 413.67863 33.299716 
L 413.170341 31.64711 
L 412.662051 29.973396 
L 412.153762 28.278409 
L 411.645473 26.561979 
L 411.137183 24.823924 
L 410.628894 23.064057 
L 410.120605 21.282182 
L 409.612316 19.478095 
L 409.104026 17.651585 
L 408.595737 15.802433 
L 408.087448 13.930416 
L 407.579158 12.035299 
L 407.070869 10.116846 
L 406.56258 8.174811 
L 406.05429 6.208944 
L 405.546001 4.218988 
L 405.037712 2.204681 
L 404.529422 0.165757 
L 404.021133 -1.898059 
L 403.512844 -3.987043 
L 403.004555 -6.101479 
L 402.496265 -8.241655 
L 401.987976 -10.407863 
L 401.479687 -12.600401 
L 400.971397 -14.819571 
L 400.463108 -17.065682 
L 399.954819 -19.339042 
L 399.446529 -21.63997 
L 398.93824 -23.968786 
L 398.429951 -26.325815 
L 397.921662 -28.711388 
L 397.413372 -31.125838 
L 396.905083 -33.569506 
L 396.396794 -36.042734 
L 395.888504 -38.545871 
L 395.380215 -41.07927 
L 394.871926 -43.643287 
L 394.363636 -46.238286 
z
" style="fill:#dfb4af;stroke:#dfb4af;"/>
   </g>
   <g id="matplotlib.axis_3">
    <g id="xtick_7">
     <g id="line2d_30">
      <path clip-path="url(#p58dce737b6)" d="M 415.5 189 
L 415.5 25.92 
" style="fill:none;stroke:#b0b0b0;stroke-dasharray:0.5,0.825;stroke-dashoffset:0;stroke-width:0.5;"/>
     </g>
     <g id="line2d_31">
      <g>
       <use style="stroke:#000000;stroke-width:0.8;" x="415.5" xlink:href="#mcf9dd9f027" y="189"/>
      </g>
     </g>
     <g id="text_14">
      <!-- 0 -->
      <g transform="translate(412.31875 203.598437)scale(0.1 -0.1)">
       <use xlink:href="#DejaVuSans-30"/>
      </g>
     </g>
    </g>
    <g id="xtick_8">
     <g id="line2d_32">
      <path clip-path="url(#p58dce737b6)" d="M 457.772727 189 
L 457.772727 25.92 
" style="fill:none;stroke:#b0b0b0;stroke-dasharray:0.5,0.825;stroke-dashoffset:0;stroke-width:0.5;"/>
     </g>
     <g id="line2d_33">
      <g>
       <use style="stroke:#000000;stroke-width:0.8;" x="457.772727" xlink:href="#mcf9dd9f027" y="189"/>
      </g>
     </g>
     <g id="text_15">
      <!-- 2 -->
      <g transform="translate(454.591477 203.598437)scale(0.1 -0.1)">
       <use xlink:href="#DejaVuSans-32"/>
      </g>
     </g>
    </g>
    <g id="xtick_9">
     <g id="line2d_34">
      <path clip-path="url(#p58dce737b6)" d="M 500.045455 189 
L 500.045455 25.92 
" style="fill:none;stroke:#b0b0b0;stroke-dasharray:0.5,0.825;stroke-dashoffset:0;stroke-width:0.5;"/>
     </g>
     <g id="line2d_35">
      <g>
       <use style="stroke:#000000;stroke-width:0.8;" x="500.045455" xlink:href="#mcf9dd9f027" y="189"/>
      </g>
     </g>
     <g id="text_16">
      <!-- 4 -->
      <g transform="translate(496.864205 203.598437)scale(0.1 -0.1)">
       <use xlink:href="#DejaVuSans-34"/>
      </g>
     </g>
    </g>
    <g id="xtick_10">
     <g id="line2d_36">
      <path clip-path="url(#p58dce737b6)" d="M 542.318182 189 
L 542.318182 25.92 
" style="fill:none;stroke:#b0b0b0;stroke-dasharray:0.5,0.825;stroke-dashoffset:0;stroke-width:0.5;"/>
     </g>
     <g id="line2d_37">
      <g>
       <use style="stroke:#000000;stroke-width:0.8;" x="542.318182" xlink:href="#mcf9dd9f027" y="189"/>
      </g>
     </g>
     <g id="text_17">
      <!-- 6 -->
      <g transform="translate(539.136932 203.598437)scale(0.1 -0.1)">
       <use xlink:href="#DejaVuSans-36"/>
      </g>
     </g>
    </g>
    <g id="xtick_11">
     <g id="line2d_38">
      <path clip-path="url(#p58dce737b6)" d="M 584.590909 189 
L 584.590909 25.92 
" style="fill:none;stroke:#b0b0b0;stroke-dasharray:0.5,0.825;stroke-dashoffset:0;stroke-width:0.5;"/>
     </g>
     <g id="line2d_39">
      <g>
       <use style="stroke:#000000;stroke-width:0.8;" x="584.590909" xlink:href="#mcf9dd9f027" y="189"/>
      </g>
     </g>
     <g id="text_18">
      <!-- 8 -->
      <g transform="translate(581.409659 203.598437)scale(0.1 -0.1)">
       <use xlink:href="#DejaVuSans-38"/>
      </g>
     </g>
    </g>
    <g id="xtick_12">
     <g id="line2d_40">
      <path clip-path="url(#p58dce737b6)" d="M 626.863636 189 
L 626.863636 25.92 
" style="fill:none;stroke:#b0b0b0;stroke-dasharray:0.5,0.825;stroke-dashoffset:0;stroke-width:0.5;"/>
     </g>
     <g id="line2d_41">
      <g>
       <use style="stroke:#000000;stroke-width:0.8;" x="626.863636" xlink:href="#mcf9dd9f027" y="189"/>
      </g>
     </g>
     <g id="text_19">
      <!-- 10 -->
      <g transform="translate(620.501136 203.598437)scale(0.1 -0.1)">
       <use xlink:href="#DejaVuSans-31"/>
       <use x="63.623047" xlink:href="#DejaVuSans-30"/>
      </g>
     </g>
    </g>
   </g>
   <g id="matplotlib.axis_4">
    <g id="ytick_8">
     <g id="line2d_42">
      <path clip-path="url(#p58dce737b6)" d="M 394.363636 185.381953 
L 648 185.381953 
" style="fill:none;stroke:#b0b0b0;stroke-dasharray:0.5,0.825;stroke-dashoffset:0;stroke-width:0.5;"/>
     </g>
     <g id="line2d_43">
      <g>
       <use style="stroke:#000000;stroke-width:0.8;" x="394.363636" xlink:href="#m01efff7144" y="185.381953"/>
      </g>
     </g>
     <g id="text_20">
      <!-- 0.0 -->
      <g transform="translate(371.460511 189.181172)scale(0.1 -0.1)">
       <use xlink:href="#DejaVuSans-30"/>
       <use x="63.623047" xlink:href="#DejaVuSans-2e"/>
       <use x="95.410156" xlink:href="#DejaVuSans-30"/>
      </g>
     </g>
    </g>
    <g id="ytick_9">
     <g id="line2d_44">
      <path clip-path="url(#p58dce737b6)" d="M 394.363636 159.214267 
L 648 159.214267 
" style="fill:none;stroke:#b0b0b0;stroke-dasharray:0.5,0.825;stroke-dashoffset:0;stroke-width:0.5;"/>
     </g>
     <g id="line2d_45">
      <g>
       <use style="stroke:#000000;stroke-width:0.8;" x="394.363636" xlink:href="#m01efff7144" y="159.214267"/>
      </g>
     </g>
     <g id="text_21">
      <!-- 0.2 -->
      <g transform="translate(371.460511 163.013486)scale(0.1 -0.1)">
       <use xlink:href="#DejaVuSans-30"/>
       <use x="63.623047" xlink:href="#DejaVuSans-2e"/>
       <use x="95.410156" xlink:href="#DejaVuSans-32"/>
      </g>
     </g>
    </g>
    <g id="ytick_10">
     <g id="line2d_46">
      <path clip-path="url(#p58dce737b6)" d="M 394.363636 133.046581 
L 648 133.046581 
" style="fill:none;stroke:#b0b0b0;stroke-dasharray:0.5,0.825;stroke-dashoffset:0;stroke-width:0.5;"/>
     </g>
     <g id="line2d_47">
      <g>
       <use style="stroke:#000000;stroke-width:0.8;" x="394.363636" xlink:href="#m01efff7144" y="133.046581"/>
      </g>
     </g>
     <g id="text_22">
      <!-- 0.4 -->
      <g transform="translate(371.460511 136.8458)scale(0.1 -0.1)">
       <use xlink:href="#DejaVuSans-30"/>
       <use x="63.623047" xlink:href="#DejaVuSans-2e"/>
       <use x="95.410156" xlink:href="#DejaVuSans-34"/>
      </g>
     </g>
    </g>
    <g id="ytick_11">
     <g id="line2d_48">
      <path clip-path="url(#p58dce737b6)" d="M 394.363636 106.878895 
L 648 106.878895 
" style="fill:none;stroke:#b0b0b0;stroke-dasharray:0.5,0.825;stroke-dashoffset:0;stroke-width:0.5;"/>
     </g>
     <g id="line2d_49">
      <g>
       <use style="stroke:#000000;stroke-width:0.8;" x="394.363636" xlink:href="#m01efff7144" y="106.878895"/>
      </g>
     </g>
     <g id="text_23">
      <!-- 0.6 -->
      <g transform="translate(371.460511 110.678113)scale(0.1 -0.1)">
       <use xlink:href="#DejaVuSans-30"/>
       <use x="63.623047" xlink:href="#DejaVuSans-2e"/>
       <use x="95.410156" xlink:href="#DejaVuSans-36"/>
      </g>
     </g>
    </g>
    <g id="ytick_12">
     <g id="line2d_50">
      <path clip-path="url(#p58dce737b6)" d="M 394.363636 80.711208 
L 648 80.711208 
" style="fill:none;stroke:#b0b0b0;stroke-dasharray:0.5,0.825;stroke-dashoffset:0;stroke-width:0.5;"/>
     </g>
     <g id="line2d_51">
      <g>
       <use style="stroke:#000000;stroke-width:0.8;" x="394.363636" xlink:href="#m01efff7144" y="80.711208"/>
      </g>
     </g>
     <g id="text_24">
      <!-- 0.8 -->
      <g transform="translate(371.460511 84.510427)scale(0.1 -0.1)">
       <use xlink:href="#DejaVuSans-30"/>
       <use x="63.623047" xlink:href="#DejaVuSans-2e"/>
       <use x="95.410156" xlink:href="#DejaVuSans-38"/>
      </g>
     </g>
    </g>
    <g id="ytick_13">
     <g id="line2d_52">
      <path clip-path="url(#p58dce737b6)" d="M 394.363636 54.543522 
L 648 54.543522 
" style="fill:none;stroke:#b0b0b0;stroke-dasharray:0.5,0.825;stroke-dashoffset:0;stroke-width:0.5;"/>
     </g>
     <g id="line2d_53">
      <g>
       <use style="stroke:#000000;stroke-width:0.8;" x="394.363636" xlink:href="#m01efff7144" y="54.543522"/>
      </g>
     </g>
     <g id="text_25">
      <!-- 1.0 -->
      <g transform="translate(371.460511 58.342741)scale(0.1 -0.1)">
       <use xlink:href="#DejaVuSans-31"/>
       <use x="63.623047" xlink:href="#DejaVuSans-2e"/>
       <use x="95.410156" xlink:href="#DejaVuSans-30"/>
      </g>
     </g>
    </g>
    <g id="ytick_14">
     <g id="line2d_54">
      <path clip-path="url(#p58dce737b6)" d="M 394.363636 28.375836 
L 648 28.375836 
" style="fill:none;stroke:#b0b0b0;stroke-dasharray:0.5,0.825;stroke-dashoffset:0;stroke-width:0.5;"/>
     </g>
     <g id="line2d_55">
      <g>
       <use style="stroke:#000000;stroke-width:0.8;" x="394.363636" xlink:href="#m01efff7144" y="28.375836"/>
      </g>
     </g>
     <g id="text_26">
      <!-- 1.2 -->
      <g transform="translate(371.460511 32.175055)scale(0.1 -0.1)">
       <use xlink:href="#DejaVuSans-31"/>
       <use x="63.623047" xlink:href="#DejaVuSans-2e"/>
       <use x="95.410156" xlink:href="#DejaVuSans-32"/>
      </g>
     </g>
    </g>
   </g>
   <g id="LineCollection_2">
    <path clip-path="url(#p58dce737b6)" d="M 415.5 39.769086 
L 415.5 39.250914 
" style="fill:none;stroke:#a52a2a;stroke-width:1.5;"/>
    <path clip-path="url(#p58dce737b6)" d="M 422.788401 63.030426 
L 422.788401 62.415894 
" style="fill:none;stroke:#a52a2a;stroke-width:1.5;"/>
    <path clip-path="url(#p58dce737b6)" d="M 430.076803 77.441695 
L 430.076803 76.713137 
" style="fill:none;stroke:#a52a2a;stroke-width:1.5;"/>
    <path clip-path="url(#p58dce737b6)" d="M 437.365204 88.750665 
L 437.365204 87.887277 
" style="fill:none;stroke:#a52a2a;stroke-width:1.5;"/>
    <path clip-path="url(#p58dce737b6)" d="M 444.653605 108.080477 
L 444.653605 107.0578 
" style="fill:none;stroke:#a52a2a;stroke-width:1.5;"/>
    <path clip-path="url(#p58dce737b6)" d="M 451.942006 118.571033 
L 451.942006 117.360372 
" style="fill:none;stroke:#a52a2a;stroke-width:1.5;"/>
    <path clip-path="url(#p58dce737b6)" d="M 459.230408 120.314268 
L 459.230408 118.882032 
" style="fill:none;stroke:#a52a2a;stroke-width:1.5;"/>
    <path clip-path="url(#p58dce737b6)" d="M 466.518809 130.995387 
L 466.518809 129.302366 
" style="fill:none;stroke:#a52a2a;stroke-width:1.5;"/>
    <path clip-path="url(#p58dce737b6)" d="M 473.80721 142.20173 
L 473.80721 140.202305 
" style="fill:none;stroke:#a52a2a;stroke-width:1.5;"/>
    <path clip-path="url(#p58dce737b6)" d="M 481.095611 143.625475 
L 481.095611 141.266776 
" style="fill:none;stroke:#a52a2a;stroke-width:1.5;"/>
    <path clip-path="url(#p58dce737b6)" d="M 488.384013 152.174591 
L 488.384013 149.395624 
" style="fill:none;stroke:#a52a2a;stroke-width:1.5;"/>
    <path clip-path="url(#p58dce737b6)" d="M 495.672414 156.12386 
L 495.672414 152.854641 
" style="fill:none;stroke:#a52a2a;stroke-width:1.5;"/>
    <path clip-path="url(#p58dce737b6)" d="M 502.960815 156.740962 
L 502.960815 152.901705 
" style="fill:none;stroke:#a52a2a;stroke-width:1.5;"/>
    <path clip-path="url(#p58dce737b6)" d="M 510.249216 168.148152 
L 510.249216 163.648575 
" style="fill:none;stroke:#a52a2a;stroke-width:1.5;"/>
    <path clip-path="url(#p58dce737b6)" d="M 517.537618 169.992446 
L 517.537618 164.731302 
" style="fill:none;stroke:#a52a2a;stroke-width:1.5;"/>
    <path clip-path="url(#p58dce737b6)" d="M 524.826019 167.719908 
L 524.826019 161.584829 
" style="fill:none;stroke:#a52a2a;stroke-width:1.5;"/>
    <path clip-path="url(#p58dce737b6)" d="M 532.11442 171.547296 
L 532.11442 164.415108 
" style="fill:none;stroke:#a52a2a;stroke-width:1.5;"/>
    <path clip-path="url(#p58dce737b6)" d="M 539.402821 168.216666 
L 539.402821 159.954294 
" style="fill:none;stroke:#a52a2a;stroke-width:1.5;"/>
    <path clip-path="url(#p58dce737b6)" d="M 546.691223 174.755304 
L 546.691223 165.221429 
" style="fill:none;stroke:#a52a2a;stroke-width:1.5;"/>
    <path clip-path="url(#p58dce737b6)" d="M 553.979624 178.374194 
L 553.979624 167.42177 
" style="fill:none;stroke:#a52a2a;stroke-width:1.5;"/>
    <path clip-path="url(#p58dce737b6)" d="M 561.268025 168.644647 
L 561.268025 156.124348 
" style="fill:none;stroke:#a52a2a;stroke-width:1.5;"/>
    <path clip-path="url(#p58dce737b6)" d="M 568.556426 176.800236 
L 568.556426 162.564823 
" style="fill:none;stroke:#a52a2a;stroke-width:1.5;"/>
    <path clip-path="url(#p58dce737b6)" d="M 575.844828 177.131101 
L 575.844828 161.040577 
" style="fill:none;stroke:#a52a2a;stroke-width:1.5;"/>
    <path clip-path="url(#p58dce737b6)" d="M 583.133229 184.446356 
L 583.133229 166.373644 
" style="fill:none;stroke:#a52a2a;stroke-width:1.5;"/>
    <path clip-path="url(#p58dce737b6)" d="M 590.42163 182.428882 
L 590.42163 162.265638 
" style="fill:none;stroke:#a52a2a;stroke-width:1.5;"/>
    <path clip-path="url(#p58dce737b6)" d="M 597.710031 181.274673 
L 597.710031 158.936734 
" style="fill:none;stroke:#a52a2a;stroke-width:1.5;"/>
    <path clip-path="url(#p58dce737b6)" d="M 604.998433 187.62121 
L 604.998433 163.05314 
" style="fill:none;stroke:#a52a2a;stroke-width:1.5;"/>
    <path clip-path="url(#p58dce737b6)" d="M 612.286834 182.989753 
L 612.286834 156.167982 
" style="fill:none;stroke:#a52a2a;stroke-width:1.5;"/>
    <path clip-path="url(#p58dce737b6)" d="M 619.575235 188.141142 
L 619.575235 159.075337 
" style="fill:none;stroke:#a52a2a;stroke-width:1.5;"/>
    <path clip-path="url(#p58dce737b6)" d="M 626.863636 188.195219 
L 626.863636 156.927721 
" style="fill:none;stroke:#a52a2a;stroke-width:1.5;"/>
   </g>
   <g id="line2d_56">
    <path clip-path="url(#p58dce737b6)" d="M 403.37546 -1 
L 406.05429 9.090829 
L 409.104026 19.882437 
L 412.662051 31.599588 
L 416.220077 42.443332 
L 419.778102 52.478774 
L 423.336127 61.766165 
L 426.894152 70.361265 
L 430.452177 78.315679 
L 434.010202 85.677164 
L 437.568227 92.489918 
L 441.126253 98.794842 
L 444.684278 104.629792 
L 448.242303 110.029799 
L 451.800328 115.027285 
L 455.358353 119.652254 
L 458.916378 123.932474 
L 462.474403 127.893642 
L 466.032428 131.559541 
L 470.098743 135.415744 
L 474.165057 138.945226 
L 478.231372 142.17567 
L 482.297686 145.13241 
L 486.364001 147.838638 
L 490.938604 150.61006 
L 495.513208 153.118754 
L 500.087812 155.389626 
L 505.170705 157.661238 
L 510.253598 159.694873 
L 515.84478 161.686685 
L 521.435963 163.450207 
L 527.535435 165.14435 
L 534.143195 166.742772 
L 541.259246 168.225472 
L 548.883585 169.578766 
L 557.016214 170.794938 
L 566.165422 171.928889 
L 576.331208 172.950308 
L 587.513573 173.84126 
L 600.220805 174.62242 
L 614.961195 175.295259 
L 632.243032 175.852825 
L 648 176.20727 
L 648 176.20727 
" style="fill:none;stroke:#a52a2a;stroke-linecap:square;stroke-width:1.5;"/>
   </g>
   <g id="line2d_57">
    <g clip-path="url(#p58dce737b6)">
     <use style="fill:#59c48c;stroke:#a52a2a;stroke-width:0.8;" x="415.5" xlink:href="#mdaa7a17dda" y="39.51"/>
     <use style="fill:#59c48c;stroke:#a52a2a;stroke-width:0.8;" x="422.788401" xlink:href="#mdaa7a17dda" y="62.72316"/>
     <use style="fill:#59c48c;stroke:#a52a2a;stroke-width:0.8;" x="430.076803" xlink:href="#mdaa7a17dda" y="77.077416"/>
     <use style="fill:#59c48c;stroke:#a52a2a;stroke-width:0.8;" x="437.365204" xlink:href="#mdaa7a17dda" y="88.318971"/>
     <use style="fill:#59c48c;stroke:#a52a2a;stroke-width:0.8;" x="444.653605" xlink:href="#mdaa7a17dda" y="107.569139"/>
     <use style="fill:#59c48c;stroke:#a52a2a;stroke-width:0.8;" x="451.942006" xlink:href="#mdaa7a17dda" y="117.965702"/>
     <use style="fill:#59c48c;stroke:#a52a2a;stroke-width:0.8;" x="459.230408" xlink:href="#mdaa7a17dda" y="119.59815"/>
     <use style="fill:#59c48c;stroke:#a52a2a;stroke-width:0.8;" x="466.518809" xlink:href="#mdaa7a17dda" y="130.148876"/>
     <use style="fill:#59c48c;stroke:#a52a2a;stroke-width:0.8;" x="473.80721" xlink:href="#mdaa7a17dda" y="141.202017"/>
     <use style="fill:#59c48c;stroke:#a52a2a;stroke-width:0.8;" x="481.095611" xlink:href="#mdaa7a17dda" y="142.446126"/>
     <use style="fill:#59c48c;stroke:#a52a2a;stroke-width:0.8;" x="488.384013" xlink:href="#mdaa7a17dda" y="150.785108"/>
     <use style="fill:#59c48c;stroke:#a52a2a;stroke-width:0.8;" x="495.672414" xlink:href="#mdaa7a17dda" y="154.48925"/>
     <use style="fill:#59c48c;stroke:#a52a2a;stroke-width:0.8;" x="502.960815" xlink:href="#mdaa7a17dda" y="154.821334"/>
     <use style="fill:#59c48c;stroke:#a52a2a;stroke-width:0.8;" x="510.249216" xlink:href="#mdaa7a17dda" y="165.898363"/>
     <use style="fill:#59c48c;stroke:#a52a2a;stroke-width:0.8;" x="517.537618" xlink:href="#mdaa7a17dda" y="167.361874"/>
     <use style="fill:#59c48c;stroke:#a52a2a;stroke-width:0.8;" x="524.826019" xlink:href="#mdaa7a17dda" y="164.652369"/>
     <use style="fill:#59c48c;stroke:#a52a2a;stroke-width:0.8;" x="532.11442" xlink:href="#mdaa7a17dda" y="167.981202"/>
     <use style="fill:#59c48c;stroke:#a52a2a;stroke-width:0.8;" x="539.402821" xlink:href="#mdaa7a17dda" y="164.08548"/>
     <use style="fill:#59c48c;stroke:#a52a2a;stroke-width:0.8;" x="546.691223" xlink:href="#mdaa7a17dda" y="169.988366"/>
     <use style="fill:#59c48c;stroke:#a52a2a;stroke-width:0.8;" x="553.979624" xlink:href="#mdaa7a17dda" y="172.897982"/>
     <use style="fill:#59c48c;stroke:#a52a2a;stroke-width:0.8;" x="561.268025" xlink:href="#mdaa7a17dda" y="162.384498"/>
     <use style="fill:#59c48c;stroke:#a52a2a;stroke-width:0.8;" x="568.556426" xlink:href="#mdaa7a17dda" y="169.682529"/>
     <use style="fill:#59c48c;stroke:#a52a2a;stroke-width:0.8;" x="575.844828" xlink:href="#mdaa7a17dda" y="169.085839"/>
     <use style="fill:#59c48c;stroke:#a52a2a;stroke-width:0.8;" x="583.133229" xlink:href="#mdaa7a17dda" y="175.41"/>
     <use style="fill:#59c48c;stroke:#a52a2a;stroke-width:0.8;" x="590.42163" xlink:href="#mdaa7a17dda" y="172.34726"/>
     <use style="fill:#59c48c;stroke:#a52a2a;stroke-width:0.8;" x="597.710031" xlink:href="#mdaa7a17dda" y="170.105704"/>
     <use style="fill:#59c48c;stroke:#a52a2a;stroke-width:0.8;" x="604.998433" xlink:href="#mdaa7a17dda" y="175.337175"/>
     <use style="fill:#59c48c;stroke:#a52a2a;stroke-width:0.8;" x="612.286834" xlink:href="#mdaa7a17dda" y="169.578867"/>
     <use style="fill:#59c48c;stroke:#a52a2a;stroke-width:0.8;" x="619.575235" xlink:href="#mdaa7a17dda" y="173.60824"/>
     <use style="fill:#59c48c;stroke:#a52a2a;stroke-width:0.8;" x="626.863636" xlink:href="#mdaa7a17dda" y="172.56147"/>
    </g>
   </g>
   <g id="line2d_58"/>
   <g id="patch_8">
    <path d="M 394.363636 189 
L 394.363636 25.92 
" style="fill:none;stroke:#000000;stroke-linecap:square;stroke-linejoin:miter;stroke-width:0.8;"/>
   </g>
   <g id="patch_9">
    <path d="M 648 189 
L 648 25.92 
" style="fill:none;stroke:#000000;stroke-linecap:square;stroke-linejoin:miter;stroke-width:0.8;"/>
   </g>
   <g id="patch_10">
    <path d="M 394.363636 189 
L 648 189 
" style="fill:none;stroke:#000000;stroke-linecap:square;stroke-linejoin:miter;stroke-width:0.8;"/>
   </g>
   <g id="patch_11">
    <path d="M 394.363636 25.92 
L 648 25.92 
" style="fill:none;stroke:#000000;stroke-linecap:square;stroke-linejoin:miter;stroke-width:0.8;"/>
   </g>
  </g>
 </g>
 <defs>
  <clipPath id="p35757dc37e">
   <rect height="163.08" width="253.636364" x="90" y="25.92"/>
  </clipPath>
  <clipPath id="p58dce737b6">
   <rect height="163.08" width="253.636364" x="394.363636" y="25.92"/>
  </clipPath>
 </defs>
</svg>
