<?xml version="1.0" encoding="utf-8" standalone="no"?>
<!DOCTYPE svg PUBLIC "-//W3C//DTD SVG 1.1//EN"
  "http://www.w3.org/Graphics/SVG/1.1/DTD/svg11.dtd">
<!-- Created with matplotlib (http://matplotlib.org/) -->
<svg height="360pt" version="1.1" viewBox="0 0 576 360" width="576pt" xmlns="http://www.w3.org/2000/svg" xmlns:xlink="http://www.w3.org/1999/xlink">
 <defs>
  <style type="text/css">
*{stroke-linecap:butt;stroke-linejoin:round;}
  </style>
 </defs>
 <g id="figure_1">
  <g id="patch_1">
   <path d="M 0 360 
L 576 360 
L 576 0 
L 0 0 
z
" style="fill:#ffffff;"/>
  </g>
  <g id="axes_1">
   <g id="patch_2">
    <path d="M 72 315 
L 518.4 315 
L 518.4 43.2 
L 72 43.2 
z
" style="fill:#fefbf3;"/>
   </g>
   <g id="PolyCollection_1">
    <path clip-path="url(#pffdedc3e51)" d="M 72 -54.318099 
L 72 -54.318099 
L 72.894589 -49.489095 
L 73.789178 -44.720224 
L 74.683768 -40.010737 
L 75.578357 -35.359885 
L 76.472946 -30.766938 
L 77.367535 -26.231159 
L 78.262124 -21.751825 
L 79.156713 -17.328218 
L 80.051303 -12.959629 
L 80.945892 -8.645348 
L 81.840481 -4.384677 
L 82.73507 -0.176922 
L 83.629659 3.978607 
L 84.524248 8.082589 
L 85.418838 12.135706 
L 86.313427 16.138628 
L 87.208016 20.092024 
L 88.102605 23.996553 
L 88.997194 27.852876 
L 89.891784 31.661643 
L 90.786373 35.423506 
L 91.680962 39.139105 
L 92.575551 42.809083 
L 93.47014 46.434075 
L 94.364729 50.014712 
L 95.259319 53.551623 
L 96.153908 57.045432 
L 97.048497 60.496762 
L 97.943086 63.906229 
L 98.837675 67.274448 
L 99.732265 70.602031 
L 100.626854 73.889585 
L 101.521443 77.137714 
L 102.416032 80.347024 
L 103.310621 83.51811 
L 104.20521 86.65157 
L 105.0998 89.747997 
L 105.994389 92.807977 
L 106.888978 95.8321 
L 107.783567 98.820943 
L 108.678156 101.775087 
L 109.572745 104.695104 
L 110.467335 107.581559 
L 111.361924 110.435017 
L 112.256513 113.256032 
L 113.151102 116.04515 
L 114.045691 118.802912 
L 114.940281 121.529847 
L 115.83487 124.226474 
L 116.729459 126.8933 
L 117.624048 129.530817 
L 118.518637 132.139505 
L 119.413226 134.719824 
L 120.307816 137.272217 
L 121.202405 139.797107 
L 122.096994 142.294894 
L 122.991583 144.765955 
L 123.886172 147.210641 
L 124.780762 149.629277 
L 125.675351 152.022158 
L 126.56994 154.389554 
L 127.464529 156.731699 
L 128.359118 159.048802 
L 129.253707 161.341038 
L 130.148297 163.608555 
L 131.042886 165.85147 
L 131.937475 168.069874 
L 132.832064 170.263829 
L 133.726653 172.433376 
L 134.621242 174.578534 
L 135.515832 176.699303 
L 136.410421 178.795666 
L 137.30501 180.867595 
L 138.199599 182.915053 
L 139.094188 184.937996 
L 139.988778 186.936376 
L 140.883367 188.910147 
L 141.777956 190.859264 
L 142.672545 192.783688 
L 143.567134 194.683387 
L 144.461723 196.55834 
L 145.356313 198.408536 
L 146.250902 200.233975 
L 147.145491 202.034674 
L 148.04008 203.810662 
L 148.934669 205.561984 
L 149.829259 207.288699 
L 150.723848 208.990883 
L 151.618437 210.668626 
L 152.513026 212.322032 
L 153.407615 213.951223 
L 154.302204 215.55633 
L 155.196794 217.1375 
L 156.091383 218.694894 
L 156.985972 220.228682 
L 157.880561 221.739046 
L 158.77515 223.226178 
L 159.669739 224.690282 
L 160.564329 226.131567 
L 161.458918 227.550253 
L 162.353507 228.946565 
L 163.248096 230.320737 
L 164.142685 231.673005 
L 165.037275 233.003614 
L 165.931864 234.312811 
L 166.826453 235.600848 
L 167.721042 236.86798 
L 168.615631 238.114464 
L 169.51022 239.340561 
L 170.40481 240.546532 
L 171.299399 241.732641 
L 172.193988 242.899151 
L 173.088577 244.046328 
L 173.983166 245.174435 
L 174.877756 246.283739 
L 175.772345 247.374503 
L 176.666934 248.446991 
L 177.561523 249.501467 
L 178.456112 250.538191 
L 179.350701 251.557424 
L 180.245291 252.559426 
L 181.13988 253.544453 
L 182.034469 254.512761 
L 182.929058 255.464604 
L 183.823647 256.400232 
L 184.718236 257.319895 
L 185.612826 258.22384 
L 186.507415 259.112311 
L 187.402004 259.985551 
L 188.296593 260.843798 
L 189.191182 261.687289 
L 190.085772 262.516259 
L 190.980361 263.330939 
L 191.87495 264.131558 
L 192.769539 264.918342 
L 193.664128 265.691513 
L 194.558717 266.451293 
L 195.453307 267.197898 
L 196.347896 267.931544 
L 197.242485 268.652443 
L 198.137074 269.360802 
L 199.031663 270.056829 
L 199.926253 270.740726 
L 200.820842 271.412695 
L 201.715431 272.072932 
L 202.61002 272.721633 
L 203.504609 273.358989 
L 204.399198 273.98519 
L 205.293788 274.600421 
L 206.188377 275.204867 
L 207.082966 275.798709 
L 207.977555 276.382125 
L 208.872144 276.955289 
L 209.766733 277.518376 
L 210.661323 278.071556 
L 211.555912 278.614995 
L 212.450501 279.148859 
L 213.34509 279.67331 
L 214.239679 280.188508 
L 215.134269 280.694611 
L 216.028858 281.191774 
L 216.923447 281.680149 
L 217.818036 282.159885 
L 218.712625 282.631131 
L 219.607214 283.094033 
L 220.501804 283.548732 
L 221.396393 283.99537 
L 222.290982 284.434084 
L 223.185571 284.865012 
L 224.08016 285.288288 
L 224.974749 285.704042 
L 225.869339 286.112404 
L 226.763928 286.513503 
L 227.658517 286.907463 
L 228.553106 287.294408 
L 229.447695 287.674459 
L 230.342285 288.047736 
L 231.236874 288.414355 
L 232.131463 288.774432 
L 233.026052 289.128081 
L 233.920641 289.475414 
L 234.81523 289.816539 
L 235.70982 290.151566 
L 236.604409 290.4806 
L 237.498998 290.803744 
L 238.393587 291.121103 
L 239.288176 291.432777 
L 240.182766 291.738865 
L 241.077355 292.039464 
L 241.971944 292.334671 
L 242.866533 292.624579 
L 243.761122 292.909282 
L 244.655711 293.18887 
L 245.550301 293.463433 
L 246.44489 293.73306 
L 247.339479 293.997835 
L 248.234068 294.257845 
L 249.128657 294.513173 
L 250.023246 294.763902 
L 250.917836 295.010112 
L 251.812425 295.251882 
L 252.707014 295.489291 
L 253.601603 295.722415 
L 254.496192 295.95133 
L 255.390782 296.17611 
L 256.285371 296.396828 
L 257.17996 296.613555 
L 258.074549 296.826362 
L 258.969138 297.035318 
L 259.863727 297.24049 
L 260.758317 297.441947 
L 261.652906 297.639753 
L 262.547495 297.833972 
L 263.442084 298.024669 
L 264.336673 298.211906 
L 265.231263 298.395744 
L 266.125852 298.576243 
L 267.020441 298.753462 
L 267.91503 298.927459 
L 268.809619 299.098292 
L 269.704208 299.266017 
L 270.598798 299.430688 
L 271.493387 299.592361 
L 272.387976 299.751088 
L 273.282565 299.906922 
L 274.177154 300.059913 
L 275.071743 300.210114 
L 275.966333 300.357573 
L 276.860922 300.502339 
L 277.755511 300.64446 
L 278.6501 300.783983 
L 279.544689 300.920955 
L 280.439279 301.055421 
L 281.333868 301.187426 
L 282.228457 301.317013 
L 283.123046 301.444226 
L 284.017635 301.569108 
L 284.912224 301.691699 
L 285.806814 301.812041 
L 286.701403 301.930174 
L 287.595992 302.046138 
L 288.490581 302.159971 
L 289.38517 302.271712 
L 290.27976 302.381397 
L 291.174349 302.489065 
L 292.068938 302.594751 
L 292.963527 302.69849 
L 293.858116 302.800318 
L 294.752705 302.900268 
L 295.647295 302.998375 
L 296.541884 303.094672 
L 297.436473 303.18919 
L 298.331062 303.281963 
L 299.225651 303.373022 
L 300.12024 303.462397 
L 301.01483 303.550118 
L 301.909419 303.636216 
L 302.804008 303.720719 
L 303.698597 303.803657 
L 304.593186 303.885058 
L 305.487776 303.964949 
L 306.382365 304.043358 
L 307.276954 304.120311 
L 308.171543 304.195834 
L 309.066132 304.269954 
L 309.960721 304.342696 
L 310.855311 304.414085 
L 311.7499 304.484145 
L 312.644489 304.5529 
L 313.539078 304.620374 
L 314.433667 304.68659 
L 315.328257 304.751571 
L 316.222846 304.815339 
L 317.117435 304.877917 
L 318.012024 304.939325 
L 318.906613 304.999586 
L 319.801202 305.058719 
L 320.695792 305.116746 
L 321.590381 305.173686 
L 322.48497 305.22956 
L 323.379559 305.284386 
L 324.274148 305.338184 
L 325.168737 305.390972 
L 326.063327 305.442769 
L 326.957916 305.493593 
L 327.852505 305.543461 
L 328.747094 305.592392 
L 329.641683 305.640401 
L 330.536273 305.687507 
L 331.430862 305.733725 
L 332.325451 305.779071 
L 333.22004 305.823562 
L 334.114629 305.867213 
L 335.009218 305.91004 
L 335.903808 305.952058 
L 336.798397 305.993281 
L 337.692986 306.033723 
L 338.587575 306.073401 
L 339.482164 306.112326 
L 340.376754 306.150514 
L 341.271343 306.187977 
L 342.165932 306.224729 
L 343.060521 306.260783 
L 343.95511 306.296152 
L 344.849699 306.330848 
L 345.744289 306.364884 
L 346.638878 306.398272 
L 347.533467 306.431024 
L 348.428056 306.463152 
L 349.322645 306.494666 
L 350.217234 306.525579 
L 351.111824 306.555901 
L 352.006413 306.585644 
L 352.901002 306.614817 
L 353.795591 306.643433 
L 354.69018 306.6715 
L 355.58477 306.699029 
L 356.479359 306.72603 
L 357.373948 306.752512 
L 358.268537 306.778486 
L 359.163126 306.803961 
L 360.057715 306.828946 
L 360.952305 306.853449 
L 361.846894 306.877481 
L 362.741483 306.901049 
L 363.636072 306.924163 
L 364.530661 306.946831 
L 365.425251 306.96906 
L 366.31984 306.99086 
L 367.214429 307.012238 
L 368.109018 307.033202 
L 369.003607 307.05376 
L 369.898196 307.073919 
L 370.792786 307.093687 
L 371.687375 307.113071 
L 372.581964 307.132079 
L 373.476553 307.150716 
L 374.371142 307.168991 
L 375.265731 307.186909 
L 376.160321 307.204478 
L 377.05491 307.221705 
L 377.949499 307.238595 
L 378.844088 307.255155 
L 379.738677 307.27139 
L 380.633267 307.287308 
L 381.527856 307.302914 
L 382.422445 307.318215 
L 383.317034 307.333214 
L 384.211623 307.347919 
L 385.106212 307.362335 
L 386.000802 307.376467 
L 386.895391 307.390321 
L 387.78998 307.403902 
L 388.684569 307.417215 
L 389.579158 307.430265 
L 390.473747 307.443057 
L 391.368337 307.455596 
L 392.262926 307.467887 
L 393.157515 307.479934 
L 394.052104 307.491742 
L 394.946693 307.503316 
L 395.841283 307.514659 
L 396.735872 307.525777 
L 397.630461 307.536674 
L 398.52505 307.547353 
L 399.419639 307.55782 
L 400.314228 307.568077 
L 401.208818 307.578129 
L 402.103407 307.58798 
L 402.997996 307.597634 
L 403.892585 307.607095 
L 404.787174 307.616365 
L 405.681764 307.625449 
L 406.576353 307.634351 
L 407.470942 307.643073 
L 408.365531 307.65162 
L 409.26012 307.659994 
L 410.154709 307.668199 
L 411.049299 307.676238 
L 411.943888 307.684114 
L 412.838477 307.691831 
L 413.733066 307.699391 
L 414.627655 307.706798 
L 415.522244 307.714055 
L 416.416834 307.721163 
L 417.311423 307.728127 
L 418.206012 307.734949 
L 419.100601 307.741631 
L 419.99519 307.748177 
L 420.88978 307.754589 
L 421.784369 307.760869 
L 422.678958 307.767021 
L 423.573547 307.773046 
L 424.468136 307.778947 
L 425.362725 307.784727 
L 426.257315 307.790387 
L 427.151904 307.795931 
L 428.046493 307.80136 
L 428.941082 307.806677 
L 429.835671 307.811884 
L 430.730261 307.816982 
L 431.62485 307.821975 
L 432.519439 307.826864 
L 433.414028 307.831651 
L 434.308617 307.836338 
L 435.203206 307.840927 
L 436.097796 307.84542 
L 436.992385 307.849819 
L 437.886974 307.854126 
L 438.781563 307.858342 
L 439.676152 307.86247 
L 440.570741 307.866511 
L 441.465331 307.870466 
L 442.35992 307.874338 
L 443.254509 307.878128 
L 444.149098 307.881838 
L 445.043687 307.885469 
L 445.938277 307.889023 
L 446.832866 307.892501 
L 447.727455 307.895905 
L 448.622044 307.899237 
L 449.516633 307.902497 
L 450.411222 307.905687 
L 451.305812 307.908809 
L 452.200401 307.911864 
L 453.09499 307.914853 
L 453.989579 307.917778 
L 454.884168 307.920639 
L 455.778758 307.923439 
L 456.673347 307.926177 
L 457.567936 307.928857 
L 458.462525 307.931478 
L 459.357114 307.934042 
L 460.251703 307.93655 
L 461.146293 307.939004 
L 462.040882 307.941403 
L 462.935471 307.94375 
L 463.83006 307.946045 
L 464.724649 307.94829 
L 465.619238 307.950485 
L 466.513828 307.952632 
L 467.408417 307.954731 
L 468.303006 307.956784 
L 469.197595 307.95879 
L 470.092184 307.960753 
L 470.986774 307.962671 
L 471.881363 307.964546 
L 472.775952 307.96638 
L 473.670541 307.968172 
L 474.56513 307.969923 
L 475.459719 307.971636 
L 476.354309 307.973309 
L 477.248898 307.974945 
L 478.143487 307.976543 
L 479.038076 307.978105 
L 479.932665 307.979632 
L 480.827255 307.981123 
L 481.721844 307.98258 
L 482.616433 307.984004 
L 483.511022 307.985395 
L 484.405611 307.986754 
L 485.3002 307.988081 
L 486.19479 307.989377 
L 487.089379 307.990644 
L 487.983968 307.99188 
L 488.878557 307.993088 
L 489.773146 307.994268 
L 490.667735 307.995419 
L 491.562325 307.996544 
L 492.456914 307.997642 
L 493.351503 307.998714 
L 494.246092 307.99976 
L 495.140681 308.000782 
L 496.035271 308.001779 
L 496.92986 308.002752 
L 497.824449 308.003702 
L 498.719038 308.004629 
L 499.613627 308.005533 
L 500.508216 308.006415 
L 501.402806 308.007276 
L 502.297395 308.008116 
L 503.191984 308.008935 
L 504.086573 308.009734 
L 504.981162 308.010513 
L 505.875752 308.011274 
L 506.770341 308.012015 
L 507.66493 308.012737 
L 508.559519 308.013442 
L 509.454108 308.014129 
L 510.348697 308.014798 
L 511.243287 308.015451 
L 512.137876 308.016087 
L 513.032465 308.016706 
L 513.927054 308.01731 
L 514.821643 308.017899 
L 515.716232 308.018472 
L 516.610822 308.01903 
L 517.505411 308.019574 
L 518.4 308.020103 
L 518.4 308.020103 
L 518.4 307.706138 
L 517.505411 307.701361 
L 516.610822 307.696514 
L 515.716232 307.691596 
L 514.821643 307.686606 
L 513.927054 307.681543 
L 513.032465 307.676405 
L 512.137876 307.671193 
L 511.243287 307.665904 
L 510.348697 307.660538 
L 509.454108 307.655093 
L 508.559519 307.649569 
L 507.66493 307.643963 
L 506.770341 307.638276 
L 505.875752 307.632506 
L 504.981162 307.626651 
L 504.086573 307.62071 
L 503.191984 307.614683 
L 502.297395 307.608567 
L 501.402806 307.602362 
L 500.508216 307.596066 
L 499.613627 307.589678 
L 498.719038 307.583197 
L 497.824449 307.576621 
L 496.92986 307.569949 
L 496.035271 307.56318 
L 495.140681 307.556311 
L 494.246092 307.549342 
L 493.351503 307.542272 
L 492.456914 307.535098 
L 491.562325 307.527819 
L 490.667735 307.520434 
L 489.773146 307.512941 
L 488.878557 307.505339 
L 487.983968 307.497625 
L 487.089379 307.489799 
L 486.19479 307.481859 
L 485.3002 307.473803 
L 484.405611 307.46563 
L 483.511022 307.457337 
L 482.616433 307.448923 
L 481.721844 307.440386 
L 480.827255 307.431725 
L 479.932665 307.422937 
L 479.038076 307.414022 
L 478.143487 307.404976 
L 477.248898 307.395798 
L 476.354309 307.386487 
L 475.459719 307.37704 
L 474.56513 307.367455 
L 473.670541 307.35773 
L 472.775952 307.347864 
L 471.881363 307.337854 
L 470.986774 307.327698 
L 470.092184 307.317394 
L 469.197595 307.30694 
L 468.303006 307.296334 
L 467.408417 307.285573 
L 466.513828 307.274656 
L 465.619238 307.263579 
L 464.724649 307.252342 
L 463.83006 307.24094 
L 462.935471 307.229373 
L 462.040882 307.217637 
L 461.146293 307.205731 
L 460.251703 307.193652 
L 459.357114 307.181396 
L 458.462525 307.168963 
L 457.567936 307.156348 
L 456.673347 307.14355 
L 455.778758 307.130566 
L 454.884168 307.117393 
L 453.989579 307.104029 
L 453.09499 307.09047 
L 452.200401 307.076714 
L 451.305812 307.062759 
L 450.411222 307.0486 
L 449.516633 307.034236 
L 448.622044 307.019663 
L 447.727455 307.004878 
L 446.832866 306.989879 
L 445.938277 306.974662 
L 445.043687 306.959223 
L 444.149098 306.943561 
L 443.254509 306.927671 
L 442.35992 306.911551 
L 441.465331 306.895196 
L 440.570741 306.878605 
L 439.676152 306.861772 
L 438.781563 306.844695 
L 437.886974 306.827371 
L 436.992385 306.809795 
L 436.097796 306.791964 
L 435.203206 306.773875 
L 434.308617 306.755523 
L 433.414028 306.736905 
L 432.519439 306.718017 
L 431.62485 306.698856 
L 430.730261 306.679417 
L 429.835671 306.659696 
L 428.941082 306.639689 
L 428.046493 306.619393 
L 427.151904 306.598802 
L 426.257315 306.577913 
L 425.362725 306.556722 
L 424.468136 306.535224 
L 423.573547 306.513414 
L 422.678958 306.491289 
L 421.784369 306.468843 
L 420.88978 306.446073 
L 419.99519 306.422973 
L 419.100601 306.399539 
L 418.206012 306.375766 
L 417.311423 306.351648 
L 416.416834 306.327182 
L 415.522244 306.302363 
L 414.627655 306.277184 
L 413.733066 306.251641 
L 412.838477 306.225729 
L 411.943888 306.199442 
L 411.049299 306.172776 
L 410.154709 306.145724 
L 409.26012 306.118281 
L 408.365531 306.090442 
L 407.470942 306.0622 
L 406.576353 306.033551 
L 405.681764 306.004488 
L 404.787174 305.975005 
L 403.892585 305.945097 
L 402.997996 305.914757 
L 402.103407 305.883979 
L 401.208818 305.852756 
L 400.314228 305.821083 
L 399.419639 305.788954 
L 398.52505 305.75636 
L 397.630461 305.723297 
L 396.735872 305.689756 
L 395.841283 305.655732 
L 394.946693 305.621218 
L 394.052104 305.586206 
L 393.157515 305.550689 
L 392.262926 305.51466 
L 391.368337 305.478112 
L 390.473747 305.441038 
L 389.579158 305.403429 
L 388.684569 305.365279 
L 387.78998 305.326579 
L 386.895391 305.287322 
L 386.000802 305.2475 
L 385.106212 305.207104 
L 384.211623 305.166127 
L 383.317034 305.12456 
L 382.422445 305.082395 
L 381.527856 305.039623 
L 380.633267 304.996236 
L 379.738677 304.952225 
L 378.844088 304.907581 
L 377.949499 304.862295 
L 377.05491 304.816358 
L 376.160321 304.76976 
L 375.265731 304.722493 
L 374.371142 304.674546 
L 373.476553 304.62591 
L 372.581964 304.576576 
L 371.687375 304.526533 
L 370.792786 304.475771 
L 369.898196 304.42428 
L 369.003607 304.372049 
L 368.109018 304.319069 
L 367.214429 304.265328 
L 366.31984 304.210816 
L 365.425251 304.155522 
L 364.530661 304.099434 
L 363.636072 304.042542 
L 362.741483 303.984833 
L 361.846894 303.926297 
L 360.952305 303.866921 
L 360.057715 303.806694 
L 359.163126 303.745604 
L 358.268537 303.683638 
L 357.373948 303.620784 
L 356.479359 303.557029 
L 355.58477 303.49236 
L 354.69018 303.426766 
L 353.795591 303.360232 
L 352.901002 303.292745 
L 352.006413 303.224291 
L 351.111824 303.154858 
L 350.217234 303.084431 
L 349.322645 303.012996 
L 348.428056 302.940539 
L 347.533467 302.867044 
L 346.638878 302.792499 
L 345.744289 302.716887 
L 344.849699 302.640194 
L 343.95511 302.562405 
L 343.060521 302.483503 
L 342.165932 302.403474 
L 341.271343 302.3223 
L 340.376754 302.239967 
L 339.482164 302.156457 
L 338.587575 302.071755 
L 337.692986 301.985842 
L 336.798397 301.898703 
L 335.903808 301.810319 
L 335.009218 301.720674 
L 334.114629 301.629749 
L 333.22004 301.537526 
L 332.325451 301.443987 
L 331.430862 301.349114 
L 330.536273 301.252888 
L 329.641683 301.155288 
L 328.747094 301.056298 
L 327.852505 300.955895 
L 326.957916 300.854061 
L 326.063327 300.750776 
L 325.168737 300.646019 
L 324.274148 300.539769 
L 323.379559 300.432005 
L 322.48497 300.322707 
L 321.590381 300.211851 
L 320.695792 300.099417 
L 319.801202 299.985382 
L 318.906613 299.869724 
L 318.012024 299.75242 
L 317.117435 299.633446 
L 316.222846 299.51278 
L 315.328257 299.390396 
L 314.433667 299.266272 
L 313.539078 299.140383 
L 312.644489 299.012704 
L 311.7499 298.883209 
L 310.855311 298.751874 
L 309.960721 298.618672 
L 309.066132 298.483578 
L 308.171543 298.346564 
L 307.276954 298.207603 
L 306.382365 298.066669 
L 305.487776 297.923733 
L 304.593186 297.778768 
L 303.698597 297.631745 
L 302.804008 297.482635 
L 301.909419 297.331409 
L 301.01483 297.178037 
L 300.12024 297.02249 
L 299.225651 296.864736 
L 298.331062 296.704744 
L 297.436473 296.542484 
L 296.541884 296.377923 
L 295.647295 296.211029 
L 294.752705 296.04177 
L 293.858116 295.870113 
L 292.963527 295.696023 
L 292.068938 295.519467 
L 291.174349 295.34041 
L 290.27976 295.158817 
L 289.38517 294.974653 
L 288.490581 294.787882 
L 287.595992 294.598467 
L 286.701403 294.406371 
L 285.806814 294.211557 
L 284.912224 294.013986 
L 284.017635 293.813621 
L 283.123046 293.610422 
L 282.228457 293.404349 
L 281.333868 293.195362 
L 280.439279 292.98342 
L 279.544689 292.768483 
L 278.6501 292.550508 
L 277.755511 292.329453 
L 276.860922 292.105274 
L 275.966333 291.877929 
L 275.071743 291.647372 
L 274.177154 291.41356 
L 273.282565 291.176446 
L 272.387976 290.935984 
L 271.493387 290.692128 
L 270.598798 290.44483 
L 269.704208 290.194042 
L 268.809619 289.939716 
L 267.91503 289.681802 
L 267.020441 289.420249 
L 266.125852 289.155008 
L 265.231263 288.886026 
L 264.336673 288.613251 
L 263.442084 288.336631 
L 262.547495 288.056111 
L 261.652906 287.771638 
L 260.758317 287.483156 
L 259.863727 287.190609 
L 258.969138 286.89394 
L 258.074549 286.593092 
L 257.17996 286.288006 
L 256.285371 285.978624 
L 255.390782 285.664885 
L 254.496192 285.346728 
L 253.601603 285.024092 
L 252.707014 284.696914 
L 251.812425 284.365131 
L 250.917836 284.028679 
L 250.023246 283.687492 
L 249.128657 283.341503 
L 248.234068 282.990647 
L 247.339479 282.634855 
L 246.44489 282.274058 
L 245.550301 281.908186 
L 244.655711 281.537168 
L 243.761122 281.160932 
L 242.866533 280.779405 
L 241.971944 280.392514 
L 241.077355 280.000182 
L 240.182766 279.602335 
L 239.288176 279.198894 
L 238.393587 278.789782 
L 237.498998 278.374919 
L 236.604409 277.954224 
L 235.70982 277.527616 
L 234.81523 277.095012 
L 233.920641 276.656327 
L 233.026052 276.211477 
L 232.131463 275.760374 
L 231.236874 275.302931 
L 230.342285 274.839059 
L 229.447695 274.368668 
L 228.553106 273.891666 
L 227.658517 273.407959 
L 226.763928 272.917453 
L 225.869339 272.420053 
L 224.974749 271.915661 
L 224.08016 271.404179 
L 223.185571 270.885506 
L 222.290982 270.35954 
L 221.396393 269.826179 
L 220.501804 269.285318 
L 219.607214 268.736851 
L 218.712625 268.180669 
L 217.818036 267.616663 
L 216.923447 267.044722 
L 216.028858 266.464733 
L 215.134269 265.876581 
L 214.239679 265.28015 
L 213.34509 264.675321 
L 212.450501 264.061974 
L 211.555912 263.439988 
L 210.661323 262.809237 
L 209.766733 262.169597 
L 208.872144 261.520939 
L 207.977555 260.863133 
L 207.082966 260.196047 
L 206.188377 259.519547 
L 205.293788 258.833495 
L 204.399198 258.137754 
L 203.504609 257.432181 
L 202.61002 256.716634 
L 201.715431 255.990966 
L 200.820842 255.255028 
L 199.926253 254.50867 
L 199.031663 253.751737 
L 198.137074 252.984073 
L 197.242485 252.205519 
L 196.347896 251.415911 
L 195.453307 250.615086 
L 194.558717 249.802873 
L 193.664128 248.979103 
L 192.769539 248.143599 
L 191.87495 247.296184 
L 190.980361 246.436675 
L 190.085772 245.564888 
L 189.191182 244.680633 
L 188.296593 243.783717 
L 187.402004 242.873942 
L 186.507415 241.951109 
L 185.612826 241.01501 
L 184.718236 240.065436 
L 183.823647 239.102173 
L 182.929058 238.124999 
L 182.034469 237.133691 
L 181.13988 236.128018 
L 180.245291 235.107744 
L 179.350701 234.072628 
L 178.456112 233.022423 
L 177.561523 231.956874 
L 176.666934 230.875722 
L 175.772345 229.778698 
L 174.877756 228.665528 
L 173.983166 227.535929 
L 173.088577 226.389612 
L 172.193988 225.226277 
L 171.299399 224.045617 
L 170.40481 222.847314 
L 169.51022 221.631043 
L 168.615631 220.396465 
L 167.721042 219.143233 
L 166.826453 217.870988 
L 165.931864 216.579357 
L 165.037275 215.267958 
L 164.142685 213.936391 
L 163.248096 212.584245 
L 162.353507 211.211093 
L 161.458918 209.816492 
L 160.564329 208.399984 
L 159.669739 206.961092 
L 158.77515 205.499321 
L 157.880561 204.014156 
L 156.985972 202.505063 
L 156.091383 200.971486 
L 155.196794 199.412849 
L 154.302204 197.828548 
L 153.407615 196.21796 
L 152.513026 194.580434 
L 151.618437 192.915295 
L 150.723848 191.221839 
L 149.829259 189.499336 
L 148.934669 187.747027 
L 148.04008 185.964126 
L 147.145491 184.149817 
L 146.250902 182.303254 
L 145.356313 180.423563 
L 144.461723 178.509842 
L 143.567134 176.56116 
L 142.672545 174.576557 
L 141.777956 172.55505 
L 140.883367 170.495629 
L 139.988778 168.397262 
L 139.094188 166.258895 
L 138.199599 164.079455 
L 137.30501 161.857855 
L 136.410421 159.592993 
L 135.515832 157.283756 
L 134.621242 154.929024 
L 133.726653 152.527673 
L 132.832064 150.078575 
L 131.937475 147.580605 
L 131.042886 145.03264 
L 130.148297 142.433562 
L 129.253707 139.782263 
L 128.359118 137.07764 
L 127.464529 134.318601 
L 126.56994 131.504067 
L 125.675351 128.632965 
L 124.780762 125.704235 
L 123.886172 122.716826 
L 122.991583 119.669693 
L 122.096994 116.561801 
L 121.202405 113.392117 
L 120.307816 110.159616 
L 119.413226 106.86327 
L 118.518637 103.502053 
L 117.624048 100.074934 
L 116.729459 96.58088 
L 115.83487 93.01885 
L 114.940281 89.387792 
L 114.045691 85.686647 
L 113.151102 81.914339 
L 112.256513 78.06978 
L 111.361924 74.151866 
L 110.467335 70.159474 
L 109.572745 66.091463 
L 108.678156 61.946671 
L 107.783567 57.723915 
L 106.888978 53.421989 
L 105.994389 49.039664 
L 105.0998 44.575686 
L 104.20521 40.028777 
L 103.310621 35.39763 
L 102.416032 30.680916 
L 101.521443 25.877275 
L 100.626854 20.985319 
L 99.732265 16.003635 
L 98.837675 10.930778 
L 97.943086 5.765275 
L 97.048497 0.505622 
L 96.153908 -4.849714 
L 95.259319 -10.302299 
L 94.364729 -15.853728 
L 93.47014 -21.505628 
L 92.575551 -27.259658 
L 91.680962 -33.117512 
L 90.786373 -39.080915 
L 89.891784 -45.151624 
L 88.997194 -51.331433 
L 88.102605 -57.622167 
L 87.208016 -64.025691 
L 86.313427 -70.543898 
L 85.418838 -77.178722 
L 84.524248 -83.932133 
L 83.629659 -90.806137 
L 82.73507 -97.802773 
L 81.840481 -104.924125 
L 80.945892 -112.172311 
L 80.051303 -119.549489 
L 79.156713 -127.057858 
L 78.262124 -134.699652 
L 77.367535 -142.477151 
L 76.472946 -150.392673 
L 75.578357 -158.448582 
L 74.683768 -166.647276 
L 73.789178 -174.991208 
L 72.894589 -183.482865 
L 72 -192.124782 
z
" style="fill:#dfb4af;stroke:#dfb4af;"/>
   </g>
   <g id="matplotlib.axis_1">
    <g id="xtick_1">
     <g id="line2d_1">
      <path clip-path="url(#pffdedc3e51)" d="M 109.2 315 
L 109.2 43.2 
" style="fill:none;stroke:#b0b0b0;stroke-dasharray:0.5,0.825;stroke-dashoffset:0;stroke-width:0.5;"/>
     </g>
     <g id="line2d_2">
      <defs>
       <path d="M 0 0 
L 0 3.5 
" id="m2d5fe1fba5" style="stroke:#000000;stroke-width:0.8;"/>
      </defs>
      <g>
       <use style="stroke:#000000;stroke-width:0.8;" x="109.2" xlink:href="#m2d5fe1fba5" y="315"/>
      </g>
     </g>
     <g id="text_1">
      <!-- 0 -->
      <defs>
       <path d="M 31.78125 66.40625 
Q 24.171875 66.40625 20.328125 58.90625 
Q 16.5 51.421875 16.5 36.375 
Q 16.5 21.390625 20.328125 13.890625 
Q 24.171875 6.390625 31.78125 6.390625 
Q 39.453125 6.390625 43.28125 13.890625 
Q 47.125 21.390625 47.125 36.375 
Q 47.125 51.421875 43.28125 58.90625 
Q 39.453125 66.40625 31.78125 66.40625 
z
M 31.78125 74.21875 
Q 44.046875 74.21875 50.515625 64.515625 
Q 56.984375 54.828125 56.984375 36.375 
Q 56.984375 17.96875 50.515625 8.265625 
Q 44.046875 -1.421875 31.78125 -1.421875 
Q 19.53125 -1.421875 13.0625 8.265625 
Q 6.59375 17.96875 6.59375 36.375 
Q 6.59375 54.828125 13.0625 64.515625 
Q 19.53125 74.21875 31.78125 74.21875 
z
" id="DejaVuSans-30"/>
      </defs>
      <g transform="translate(106.01875 329.598437)scale(0.1 -0.1)">
       <use xlink:href="#DejaVuSans-30"/>
      </g>
     </g>
    </g>
    <g id="xtick_2">
     <g id="line2d_3">
      <path clip-path="url(#pffdedc3e51)" d="M 202.2 315 
L 202.2 43.2 
" style="fill:none;stroke:#b0b0b0;stroke-dasharray:0.5,0.825;stroke-dashoffset:0;stroke-width:0.5;"/>
     </g>
     <g id="line2d_4">
      <g>
       <use style="stroke:#000000;stroke-width:0.8;" x="202.2" xlink:href="#m2d5fe1fba5" y="315"/>
      </g>
     </g>
     <g id="text_2">
      <!-- 5 -->
      <defs>
       <path d="M 10.796875 72.90625 
L 49.515625 72.90625 
L 49.515625 64.59375 
L 19.828125 64.59375 
L 19.828125 46.734375 
Q 21.96875 47.46875 24.109375 47.828125 
Q 26.265625 48.1875 28.421875 48.1875 
Q 40.625 48.1875 47.75 41.5 
Q 54.890625 34.8125 54.890625 23.390625 
Q 54.890625 11.625 47.5625 5.09375 
Q 40.234375 -1.421875 26.90625 -1.421875 
Q 22.3125 -1.421875 17.546875 -0.640625 
Q 12.796875 0.140625 7.71875 1.703125 
L 7.71875 11.625 
Q 12.109375 9.234375 16.796875 8.0625 
Q 21.484375 6.890625 26.703125 6.890625 
Q 35.15625 6.890625 40.078125 11.328125 
Q 45.015625 15.765625 45.015625 23.390625 
Q 45.015625 31 40.078125 35.4375 
Q 35.15625 39.890625 26.703125 39.890625 
Q 22.75 39.890625 18.8125 39.015625 
Q 14.890625 38.140625 10.796875 36.28125 
z
" id="DejaVuSans-35"/>
      </defs>
      <g transform="translate(199.01875 329.598437)scale(0.1 -0.1)">
       <use xlink:href="#DejaVuSans-35"/>
      </g>
     </g>
    </g>
    <g id="xtick_3">
     <g id="line2d_5">
      <path clip-path="url(#pffdedc3e51)" d="M 295.2 315 
L 295.2 43.2 
" style="fill:none;stroke:#b0b0b0;stroke-dasharray:0.5,0.825;stroke-dashoffset:0;stroke-width:0.5;"/>
     </g>
     <g id="line2d_6">
      <g>
       <use style="stroke:#000000;stroke-width:0.8;" x="295.2" xlink:href="#m2d5fe1fba5" y="315"/>
      </g>
     </g>
     <g id="text_3">
      <!-- 10 -->
      <defs>
       <path d="M 12.40625 8.296875 
L 28.515625 8.296875 
L 28.515625 63.921875 
L 10.984375 60.40625 
L 10.984375 69.390625 
L 28.421875 72.90625 
L 38.28125 72.90625 
L 38.28125 8.296875 
L 54.390625 8.296875 
L 54.390625 0 
L 12.40625 0 
z
" id="DejaVuSans-31"/>
      </defs>
      <g transform="translate(288.8375 329.598437)scale(0.1 -0.1)">
       <use xlink:href="#DejaVuSans-31"/>
       <use x="63.623047" xlink:href="#DejaVuSans-30"/>
      </g>
     </g>
    </g>
    <g id="xtick_4">
     <g id="line2d_7">
      <path clip-path="url(#pffdedc3e51)" d="M 388.2 315 
L 388.2 43.2 
" style="fill:none;stroke:#b0b0b0;stroke-dasharray:0.5,0.825;stroke-dashoffset:0;stroke-width:0.5;"/>
     </g>
     <g id="line2d_8">
      <g>
       <use style="stroke:#000000;stroke-width:0.8;" x="388.2" xlink:href="#m2d5fe1fba5" y="315"/>
      </g>
     </g>
     <g id="text_4">
      <!-- 15 -->
      <g transform="translate(381.8375 329.598437)scale(0.1 -0.1)">
       <use xlink:href="#DejaVuSans-31"/>
       <use x="63.623047" xlink:href="#DejaVuSans-35"/>
      </g>
     </g>
    </g>
    <g id="xtick_5">
     <g id="line2d_9">
      <path clip-path="url(#pffdedc3e51)" d="M 481.2 315 
L 481.2 43.2 
" style="fill:none;stroke:#b0b0b0;stroke-dasharray:0.5,0.825;stroke-dashoffset:0;stroke-width:0.5;"/>
     </g>
     <g id="line2d_10">
      <g>
       <use style="stroke:#000000;stroke-width:0.8;" x="481.2" xlink:href="#m2d5fe1fba5" y="315"/>
      </g>
     </g>
     <g id="text_5">
      <!-- 20 -->
      <defs>
       <path d="M 19.1875 8.296875 
L 53.609375 8.296875 
L 53.609375 0 
L 7.328125 0 
L 7.328125 8.296875 
Q 12.9375 14.109375 22.625 23.890625 
Q 32.328125 33.6875 34.8125 36.53125 
Q 39.546875 41.84375 41.421875 45.53125 
Q 43.3125 49.21875 43.3125 52.78125 
Q 43.3125 58.59375 39.234375 62.25 
Q 35.15625 65.921875 28.609375 65.921875 
Q 23.96875 65.921875 18.8125 64.3125 
Q 13.671875 62.703125 7.8125 59.421875 
L 7.8125 69.390625 
Q 13.765625 71.78125 18.9375 73 
Q 24.125 74.21875 28.421875 74.21875 
Q 39.75 74.21875 46.484375 68.546875 
Q 53.21875 62.890625 53.21875 53.421875 
Q 53.21875 48.921875 51.53125 44.890625 
Q 49.859375 40.875 45.40625 35.40625 
Q 44.1875 33.984375 37.640625 27.21875 
Q 31.109375 20.453125 19.1875 8.296875 
z
" id="DejaVuSans-32"/>
      </defs>
      <g transform="translate(474.8375 329.598437)scale(0.1 -0.1)">
       <use xlink:href="#DejaVuSans-32"/>
       <use x="63.623047" xlink:href="#DejaVuSans-30"/>
      </g>
     </g>
    </g>
   </g>
   <g id="matplotlib.axis_2">
    <g id="ytick_1">
     <g id="line2d_11">
      <path clip-path="url(#pffdedc3e51)" d="M 72 308.03035 
L 518.4 308.03035 
" style="fill:none;stroke:#b0b0b0;stroke-dasharray:0.5,0.825;stroke-dashoffset:0;stroke-width:0.5;"/>
     </g>
     <g id="line2d_12">
      <defs>
       <path d="M 0 0 
L -3.5 0 
" id="mbbd0939c8d" style="stroke:#000000;stroke-width:0.8;"/>
      </defs>
      <g>
       <use style="stroke:#000000;stroke-width:0.8;" x="72" xlink:href="#mbbd0939c8d" y="308.03035"/>
      </g>
     </g>
     <g id="text_6">
      <!-- 0.0 -->
      <defs>
       <path d="M 10.6875 12.40625 
L 21 12.40625 
L 21 0 
L 10.6875 0 
z
" id="DejaVuSans-2e"/>
      </defs>
      <g transform="translate(49.096875 311.829569)scale(0.1 -0.1)">
       <use xlink:href="#DejaVuSans-30"/>
       <use x="63.623047" xlink:href="#DejaVuSans-2e"/>
       <use x="95.410156" xlink:href="#DejaVuSans-30"/>
      </g>
     </g>
    </g>
    <g id="ytick_2">
     <g id="line2d_13">
      <path clip-path="url(#pffdedc3e51)" d="M 72 264.391667 
L 518.4 264.391667 
" style="fill:none;stroke:#b0b0b0;stroke-dasharray:0.5,0.825;stroke-dashoffset:0;stroke-width:0.5;"/>
     </g>
     <g id="line2d_14">
      <g>
       <use style="stroke:#000000;stroke-width:0.8;" x="72" xlink:href="#mbbd0939c8d" y="264.391667"/>
      </g>
     </g>
     <g id="text_7">
      <!-- 0.2 -->
      <g transform="translate(49.096875 268.190886)scale(0.1 -0.1)">
       <use xlink:href="#DejaVuSans-30"/>
       <use x="63.623047" xlink:href="#DejaVuSans-2e"/>
       <use x="95.410156" xlink:href="#DejaVuSans-32"/>
      </g>
     </g>
    </g>
    <g id="ytick_3">
     <g id="line2d_15">
      <path clip-path="url(#pffdedc3e51)" d="M 72 220.752984 
L 518.4 220.752984 
" style="fill:none;stroke:#b0b0b0;stroke-dasharray:0.5,0.825;stroke-dashoffset:0;stroke-width:0.5;"/>
     </g>
     <g id="line2d_16">
      <g>
       <use style="stroke:#000000;stroke-width:0.8;" x="72" xlink:href="#mbbd0939c8d" y="220.752984"/>
      </g>
     </g>
     <g id="text_8">
      <!-- 0.4 -->
      <defs>
       <path d="M 37.796875 64.3125 
L 12.890625 25.390625 
L 37.796875 25.390625 
z
M 35.203125 72.90625 
L 47.609375 72.90625 
L 47.609375 25.390625 
L 58.015625 25.390625 
L 58.015625 17.1875 
L 47.609375 17.1875 
L 47.609375 0 
L 37.796875 0 
L 37.796875 17.1875 
L 4.890625 17.1875 
L 4.890625 26.703125 
z
" id="DejaVuSans-34"/>
      </defs>
      <g transform="translate(49.096875 224.552203)scale(0.1 -0.1)">
       <use xlink:href="#DejaVuSans-30"/>
       <use x="63.623047" xlink:href="#DejaVuSans-2e"/>
       <use x="95.410156" xlink:href="#DejaVuSans-34"/>
      </g>
     </g>
    </g>
    <g id="ytick_4">
     <g id="line2d_17">
      <path clip-path="url(#pffdedc3e51)" d="M 72 177.114302 
L 518.4 177.114302 
" style="fill:none;stroke:#b0b0b0;stroke-dasharray:0.5,0.825;stroke-dashoffset:0;stroke-width:0.5;"/>
     </g>
     <g id="line2d_18">
      <g>
       <use style="stroke:#000000;stroke-width:0.8;" x="72" xlink:href="#mbbd0939c8d" y="177.114302"/>
      </g>
     </g>
     <g id="text_9">
      <!-- 0.6 -->
      <defs>
       <path d="M 33.015625 40.375 
Q 26.375 40.375 22.484375 35.828125 
Q 18.609375 31.296875 18.609375 23.390625 
Q 18.609375 15.53125 22.484375 10.953125 
Q 26.375 6.390625 33.015625 6.390625 
Q 39.65625 6.390625 43.53125 10.953125 
Q 47.40625 15.53125 47.40625 23.390625 
Q 47.40625 31.296875 43.53125 35.828125 
Q 39.65625 40.375 33.015625 40.375 
z
M 52.59375 71.296875 
L 52.59375 62.3125 
Q 48.875 64.0625 45.09375 64.984375 
Q 41.3125 65.921875 37.59375 65.921875 
Q 27.828125 65.921875 22.671875 59.328125 
Q 17.53125 52.734375 16.796875 39.40625 
Q 19.671875 43.65625 24.015625 45.921875 
Q 28.375 48.1875 33.59375 48.1875 
Q 44.578125 48.1875 50.953125 41.515625 
Q 57.328125 34.859375 57.328125 23.390625 
Q 57.328125 12.15625 50.6875 5.359375 
Q 44.046875 -1.421875 33.015625 -1.421875 
Q 20.359375 -1.421875 13.671875 8.265625 
Q 6.984375 17.96875 6.984375 36.375 
Q 6.984375 53.65625 15.1875 63.9375 
Q 23.390625 74.21875 37.203125 74.21875 
Q 40.921875 74.21875 44.703125 73.484375 
Q 48.484375 72.75 52.59375 71.296875 
z
" id="DejaVuSans-36"/>
      </defs>
      <g transform="translate(49.096875 180.913521)scale(0.1 -0.1)">
       <use xlink:href="#DejaVuSans-30"/>
       <use x="63.623047" xlink:href="#DejaVuSans-2e"/>
       <use x="95.410156" xlink:href="#DejaVuSans-36"/>
      </g>
     </g>
    </g>
    <g id="ytick_5">
     <g id="line2d_19">
      <path clip-path="url(#pffdedc3e51)" d="M 72 133.475619 
L 518.4 133.475619 
" style="fill:none;stroke:#b0b0b0;stroke-dasharray:0.5,0.825;stroke-dashoffset:0;stroke-width:0.5;"/>
     </g>
     <g id="line2d_20">
      <g>
       <use style="stroke:#000000;stroke-width:0.8;" x="72" xlink:href="#mbbd0939c8d" y="133.475619"/>
      </g>
     </g>
     <g id="text_10">
      <!-- 0.8 -->
      <defs>
       <path d="M 31.78125 34.625 
Q 24.75 34.625 20.71875 30.859375 
Q 16.703125 27.09375 16.703125 20.515625 
Q 16.703125 13.921875 20.71875 10.15625 
Q 24.75 6.390625 31.78125 6.390625 
Q 38.8125 6.390625 42.859375 10.171875 
Q 46.921875 13.96875 46.921875 20.515625 
Q 46.921875 27.09375 42.890625 30.859375 
Q 38.875 34.625 31.78125 34.625 
z
M 21.921875 38.8125 
Q 15.578125 40.375 12.03125 44.71875 
Q 8.5 49.078125 8.5 55.328125 
Q 8.5 64.0625 14.71875 69.140625 
Q 20.953125 74.21875 31.78125 74.21875 
Q 42.671875 74.21875 48.875 69.140625 
Q 55.078125 64.0625 55.078125 55.328125 
Q 55.078125 49.078125 51.53125 44.71875 
Q 48 40.375 41.703125 38.8125 
Q 48.828125 37.15625 52.796875 32.3125 
Q 56.78125 27.484375 56.78125 20.515625 
Q 56.78125 9.90625 50.3125 4.234375 
Q 43.84375 -1.421875 31.78125 -1.421875 
Q 19.734375 -1.421875 13.25 4.234375 
Q 6.78125 9.90625 6.78125 20.515625 
Q 6.78125 27.484375 10.78125 32.3125 
Q 14.796875 37.15625 21.921875 38.8125 
z
M 18.3125 54.390625 
Q 18.3125 48.734375 21.84375 45.5625 
Q 25.390625 42.390625 31.78125 42.390625 
Q 38.140625 42.390625 41.71875 45.5625 
Q 45.3125 48.734375 45.3125 54.390625 
Q 45.3125 60.0625 41.71875 63.234375 
Q 38.140625 66.40625 31.78125 66.40625 
Q 25.390625 66.40625 21.84375 63.234375 
Q 18.3125 60.0625 18.3125 54.390625 
z
" id="DejaVuSans-38"/>
      </defs>
      <g transform="translate(49.096875 137.274838)scale(0.1 -0.1)">
       <use xlink:href="#DejaVuSans-30"/>
       <use x="63.623047" xlink:href="#DejaVuSans-2e"/>
       <use x="95.410156" xlink:href="#DejaVuSans-38"/>
      </g>
     </g>
    </g>
    <g id="ytick_6">
     <g id="line2d_21">
      <path clip-path="url(#pffdedc3e51)" d="M 72 89.836936 
L 518.4 89.836936 
" style="fill:none;stroke:#b0b0b0;stroke-dasharray:0.5,0.825;stroke-dashoffset:0;stroke-width:0.5;"/>
     </g>
     <g id="line2d_22">
      <g>
       <use style="stroke:#000000;stroke-width:0.8;" x="72" xlink:href="#mbbd0939c8d" y="89.836936"/>
      </g>
     </g>
     <g id="text_11">
      <!-- 1.0 -->
      <g transform="translate(49.096875 93.636155)scale(0.1 -0.1)">
       <use xlink:href="#DejaVuSans-31"/>
       <use x="63.623047" xlink:href="#DejaVuSans-2e"/>
       <use x="95.410156" xlink:href="#DejaVuSans-30"/>
      </g>
     </g>
    </g>
    <g id="ytick_7">
     <g id="line2d_23">
      <path clip-path="url(#pffdedc3e51)" d="M 72 46.198254 
L 518.4 46.198254 
" style="fill:none;stroke:#b0b0b0;stroke-dasharray:0.5,0.825;stroke-dashoffset:0;stroke-width:0.5;"/>
     </g>
     <g id="line2d_24">
      <g>
       <use style="stroke:#000000;stroke-width:0.8;" x="72" xlink:href="#mbbd0939c8d" y="46.198254"/>
      </g>
     </g>
     <g id="text_12">
      <!-- 1.2 -->
      <g transform="translate(49.096875 49.997473)scale(0.1 -0.1)">
       <use xlink:href="#DejaVuSans-31"/>
       <use x="63.623047" xlink:href="#DejaVuSans-2e"/>
       <use x="95.410156" xlink:href="#DejaVuSans-32"/>
      </g>
     </g>
    </g>
   </g>
   <g id="line2d_25">
    <path clip-path="url(#pffdedc3e51)" d="M 90.93956 -1 
L 94.364729 17.080492 
L 97.943086 34.835752 
L 101.521443 51.507494 
L 105.0998 67.161841 
L 108.678156 81.860879 
L 112.256513 95.662906 
L 115.83487 108.622662 
L 119.413226 120.791547 
L 122.991583 132.217824 
L 126.56994 142.94681 
L 130.148297 153.021059 
L 133.726653 162.480525 
L 137.30501 171.362725 
L 140.883367 179.702888 
L 144.461723 187.534091 
L 148.04008 194.887394 
L 151.618437 201.79196 
L 155.196794 208.275174 
L 158.77515 214.362749 
L 162.353507 220.078829 
L 165.931864 225.446084 
L 169.51022 230.485802 
L 173.983166 236.355182 
L 178.456112 241.780307 
L 182.929058 246.794801 
L 187.402004 251.429747 
L 191.87495 255.713871 
L 196.347896 259.673728 
L 200.820842 263.333862 
L 205.293788 266.716958 
L 209.766733 269.843987 
L 214.239679 272.734329 
L 219.607214 275.915442 
L 224.974749 278.809851 
L 230.342285 281.443398 
L 235.70982 283.839591 
L 241.077355 286.019823 
L 247.339479 288.316345 
L 253.601603 290.373254 
L 259.863727 292.21555 
L 267.020441 294.086855 
L 274.177154 295.736737 
L 282.228457 297.360681 
L 291.174349 298.914738 
L 300.12024 300.242443 
L 309.960721 301.480684 
L 320.695792 302.608082 
L 332.325451 303.611529 
L 345.744289 304.540886 
L 360.952305 305.360185 
L 377.949499 306.050445 
L 398.52505 306.651857 
L 422.678958 307.129155 
L 453.989579 307.510903 
L 496.035271 307.782479 
L 518.4 307.863121 
L 518.4 307.863121 
" style="fill:none;stroke:#a52a2a;stroke-linecap:square;stroke-width:1.5;"/>
   </g>
   <g id="line2d_26">
    <defs>
     <path d="M 0 3.5 
C 0.928211 3.5 1.81853 3.131218 2.474874 2.474874 
C 3.131218 1.81853 3.5 0.928211 3.5 0 
C 3.5 -0.928211 3.131218 -1.81853 2.474874 -2.474874 
C 1.81853 -3.131218 0.928211 -3.5 0 -3.5 
C -0.928211 -3.5 -1.81853 -3.131218 -2.474874 -2.474874 
C -3.131218 -1.81853 -3.5 -0.928211 -3.5 0 
C -3.5 0.928211 -3.131218 1.81853 -2.474874 2.474874 
C -1.81853 3.131218 -0.928211 3.5 0 3.5 
z
" id="mf2705200a1" style="stroke:#a52a2a;stroke-width:0.8;"/>
    </defs>
    <g clip-path="url(#pffdedc3e51)">
     <use style="fill:#59c48c;stroke:#a52a2a;stroke-width:0.8;" x="109.2" xlink:href="#mf2705200a1" y="65.85"/>
     <use style="fill:#59c48c;stroke:#a52a2a;stroke-width:0.8;" x="122.027586" xlink:href="#mf2705200a1" y="132.258714"/>
     <use style="fill:#59c48c;stroke:#a52a2a;stroke-width:0.8;" x="134.855172" xlink:href="#mf2705200a1" y="173.906242"/>
     <use style="fill:#59c48c;stroke:#a52a2a;stroke-width:0.8;" x="147.682759" xlink:href="#mf2705200a1" y="202.016549"/>
     <use style="fill:#59c48c;stroke:#a52a2a;stroke-width:0.8;" x="160.510345" xlink:href="#mf2705200a1" y="232.30217"/>
     <use style="fill:#59c48c;stroke:#a52a2a;stroke-width:0.8;" x="173.337931" xlink:href="#mf2705200a1" y="248.323037"/>
     <use style="fill:#59c48c;stroke:#a52a2a;stroke-width:0.8;" x="186.165517" xlink:href="#mf2705200a1" y="251.758128"/>
     <use style="fill:#59c48c;stroke:#a52a2a;stroke-width:0.8;" x="198.993103" xlink:href="#mf2705200a1" y="263.339112"/>
     <use style="fill:#59c48c;stroke:#a52a2a;stroke-width:0.8;" x="211.82069" xlink:href="#mf2705200a1" y="274.430825"/>
     <use style="fill:#59c48c;stroke:#a52a2a;stroke-width:0.8;" x="224.648276" xlink:href="#mf2705200a1" y="274.047745"/>
     <use style="fill:#59c48c;stroke:#a52a2a;stroke-width:0.8;" x="237.475862" xlink:href="#mf2705200a1" y="281.294661"/>
     <use style="fill:#59c48c;stroke:#a52a2a;stroke-width:0.8;" x="250.303448" xlink:href="#mf2705200a1" y="283.328457"/>
     <use style="fill:#59c48c;stroke:#a52a2a;stroke-width:0.8;" x="263.131034" xlink:href="#mf2705200a1" y="281.67366"/>
     <use style="fill:#59c48c;stroke:#a52a2a;stroke-width:0.8;" x="275.958621" xlink:href="#mf2705200a1" y="292.094248"/>
     <use style="fill:#59c48c;stroke:#a52a2a;stroke-width:0.8;" x="288.786207" xlink:href="#mf2705200a1" y="291.991505"/>
     <use style="fill:#59c48c;stroke:#a52a2a;stroke-width:0.8;" x="301.613793" xlink:href="#mf2705200a1" y="287.427412"/>
     <use style="fill:#59c48c;stroke:#a52a2a;stroke-width:0.8;" x="314.441379" xlink:href="#mf2705200a1" y="289.754406"/>
     <use style="fill:#59c48c;stroke:#a52a2a;stroke-width:0.8;" x="327.268966" xlink:href="#mf2705200a1" y="284.218838"/>
     <use style="fill:#59c48c;stroke:#a52a2a;stroke-width:0.8;" x="340.096552" xlink:href="#mf2705200a1" y="289.733741"/>
     <use style="fill:#59c48c;stroke:#a52a2a;stroke-width:0.8;" x="352.924138" xlink:href="#mf2705200a1" y="292.062612"/>
     <use style="fill:#59c48c;stroke:#a52a2a;stroke-width:0.8;" x="365.751724" xlink:href="#mf2705200a1" y="279.594459"/>
     <use style="fill:#59c48c;stroke:#a52a2a;stroke-width:0.8;" x="378.57931" xlink:href="#mf2705200a1" y="287.03997"/>
     <use style="fill:#59c48c;stroke:#a52a2a;stroke-width:0.8;" x="391.406897" xlink:href="#mf2705200a1" y="285.805612"/>
     <use style="fill:#59c48c;stroke:#a52a2a;stroke-width:0.8;" x="404.234483" xlink:href="#mf2705200a1" y="292.35"/>
     <use style="fill:#59c48c;stroke:#a52a2a;stroke-width:0.8;" x="417.062069" xlink:href="#mf2705200a1" y="288.531073"/>
     <use style="fill:#59c48c;stroke:#a52a2a;stroke-width:0.8;" x="429.889655" xlink:href="#mf2705200a1" y="285.687609"/>
     <use style="fill:#59c48c;stroke:#a52a2a;stroke-width:0.8;" x="442.717241" xlink:href="#mf2705200a1" y="291.205921"/>
     <use style="fill:#59c48c;stroke:#a52a2a;stroke-width:0.8;" x="455.544828" xlink:href="#mf2705200a1" y="284.551769"/>
     <use style="fill:#59c48c;stroke:#a52a2a;stroke-width:0.8;" x="468.372414" xlink:href="#mf2705200a1" y="288.818132"/>
     <use style="fill:#59c48c;stroke:#a52a2a;stroke-width:0.8;" x="481.2" xlink:href="#mf2705200a1" y="287.474016"/>
    </g>
   </g>
   <g id="patch_3">
    <path d="M 72 315 
L 72 43.2 
" style="fill:none;stroke:#000000;stroke-linecap:square;stroke-linejoin:miter;stroke-width:0.8;"/>
   </g>
   <g id="patch_4">
    <path d="M 518.4 315 
L 518.4 43.2 
" style="fill:none;stroke:#000000;stroke-linecap:square;stroke-linejoin:miter;stroke-width:0.8;"/>
   </g>
   <g id="patch_5">
    <path d="M 72 315 
L 518.4 315 
" style="fill:none;stroke:#000000;stroke-linecap:square;stroke-linejoin:miter;stroke-width:0.8;"/>
   </g>
   <g id="patch_6">
    <path d="M 72 43.2 
L 518.4 43.2 
" style="fill:none;stroke:#000000;stroke-linecap:square;stroke-linejoin:miter;stroke-width:0.8;"/>
   </g>
  </g>
 </g>
 <defs>
  <clipPath id="pffdedc3e51">
   <rect height="271.8" width="446.4" x="72" y="43.2"/>
  </clipPath>
 </defs>
</svg>
