<?xml version="1.0" encoding="utf-8" standalone="no"?>
<!DOCTYPE svg PUBLIC "-//W3C//DTD SVG 1.1//EN"
  "http://www.w3.org/Graphics/SVG/1.1/DTD/svg11.dtd">
<!-- Created with matplotlib (http://matplotlib.org/) -->
<svg height="216pt" version="1.1" viewBox="0 0 720 216" width="720pt" xmlns="http://www.w3.org/2000/svg" xmlns:xlink="http://www.w3.org/1999/xlink">
 <defs>
  <style type="text/css">
*{stroke-linecap:butt;stroke-linejoin:round;}
  </style>
 </defs>
 <g id="figure_1">
  <g id="patch_1">
   <path d="M 0 216 
L 720 216 
L 720 0 
L 0 0 
z
" style="fill:#ffffff;"/>
  </g>
  <g id="axes_1">
   <g id="patch_2">
    <path d="M 90 189 
L 343.636364 189 
L 343.636364 25.92 
L 90 25.92 
z
" style="fill:#ffffff;"/>
   </g>
   <g id="matplotlib.axis_1">
    <g id="xtick_1">
     <g id="line2d_1">
      <defs>
       <path d="M 0 0 
L 0 3.5 
" id="m6c9fd46233" style="stroke:#000000;stroke-width:0.8;"/>
      </defs>
      <g>
       <use style="stroke:#000000;stroke-width:0.8;" x="101.528926" xlink:href="#m6c9fd46233" y="189"/>
      </g>
     </g>
     <g id="text_1">
      <!-- 0 -->
      <defs>
       <path d="M 31.78125 66.40625 
Q 24.171875 66.40625 20.328125 58.90625 
Q 16.5 51.421875 16.5 36.375 
Q 16.5 21.390625 20.328125 13.890625 
Q 24.171875 6.390625 31.78125 6.390625 
Q 39.453125 6.390625 43.28125 13.890625 
Q 47.125 21.390625 47.125 36.375 
Q 47.125 51.421875 43.28125 58.90625 
Q 39.453125 66.40625 31.78125 66.40625 
z
M 31.78125 74.21875 
Q 44.046875 74.21875 50.515625 64.515625 
Q 56.984375 54.828125 56.984375 36.375 
Q 56.984375 17.96875 50.515625 8.265625 
Q 44.046875 -1.421875 31.78125 -1.421875 
Q 19.53125 -1.421875 13.0625 8.265625 
Q 6.59375 17.96875 6.59375 36.375 
Q 6.59375 54.828125 13.0625 64.515625 
Q 19.53125 74.21875 31.78125 74.21875 
z
" id="DejaVuSans-30"/>
      </defs>
      <g transform="translate(98.347676 203.598437)scale(0.1 -0.1)">
       <use xlink:href="#DejaVuSans-30"/>
      </g>
     </g>
    </g>
    <g id="xtick_2">
     <g id="line2d_2">
      <g>
       <use style="stroke:#000000;stroke-width:0.8;" x="147.644628" xlink:href="#m6c9fd46233" y="189"/>
      </g>
     </g>
     <g id="text_2">
      <!-- 2 -->
      <defs>
       <path d="M 19.1875 8.296875 
L 53.609375 8.296875 
L 53.609375 0 
L 7.328125 0 
L 7.328125 8.296875 
Q 12.9375 14.109375 22.625 23.890625 
Q 32.328125 33.6875 34.8125 36.53125 
Q 39.546875 41.84375 41.421875 45.53125 
Q 43.3125 49.21875 43.3125 52.78125 
Q 43.3125 58.59375 39.234375 62.25 
Q 35.15625 65.921875 28.609375 65.921875 
Q 23.96875 65.921875 18.8125 64.3125 
Q 13.671875 62.703125 7.8125 59.421875 
L 7.8125 69.390625 
Q 13.765625 71.78125 18.9375 73 
Q 24.125 74.21875 28.421875 74.21875 
Q 39.75 74.21875 46.484375 68.546875 
Q 53.21875 62.890625 53.21875 53.421875 
Q 53.21875 48.921875 51.53125 44.890625 
Q 49.859375 40.875 45.40625 35.40625 
Q 44.1875 33.984375 37.640625 27.21875 
Q 31.109375 20.453125 19.1875 8.296875 
z
" id="DejaVuSans-32"/>
      </defs>
      <g transform="translate(144.463378 203.598437)scale(0.1 -0.1)">
       <use xlink:href="#DejaVuSans-32"/>
      </g>
     </g>
    </g>
    <g id="xtick_3">
     <g id="line2d_3">
      <g>
       <use style="stroke:#000000;stroke-width:0.8;" x="193.760331" xlink:href="#m6c9fd46233" y="189"/>
      </g>
     </g>
     <g id="text_3">
      <!-- 4 -->
      <defs>
       <path d="M 37.796875 64.3125 
L 12.890625 25.390625 
L 37.796875 25.390625 
z
M 35.203125 72.90625 
L 47.609375 72.90625 
L 47.609375 25.390625 
L 58.015625 25.390625 
L 58.015625 17.1875 
L 47.609375 17.1875 
L 47.609375 0 
L 37.796875 0 
L 37.796875 17.1875 
L 4.890625 17.1875 
L 4.890625 26.703125 
z
" id="DejaVuSans-34"/>
      </defs>
      <g transform="translate(190.579081 203.598437)scale(0.1 -0.1)">
       <use xlink:href="#DejaVuSans-34"/>
      </g>
     </g>
    </g>
    <g id="xtick_4">
     <g id="line2d_4">
      <g>
       <use style="stroke:#000000;stroke-width:0.8;" x="239.876033" xlink:href="#m6c9fd46233" y="189"/>
      </g>
     </g>
     <g id="text_4">
      <!-- 6 -->
      <defs>
       <path d="M 33.015625 40.375 
Q 26.375 40.375 22.484375 35.828125 
Q 18.609375 31.296875 18.609375 23.390625 
Q 18.609375 15.53125 22.484375 10.953125 
Q 26.375 6.390625 33.015625 6.390625 
Q 39.65625 6.390625 43.53125 10.953125 
Q 47.40625 15.53125 47.40625 23.390625 
Q 47.40625 31.296875 43.53125 35.828125 
Q 39.65625 40.375 33.015625 40.375 
z
M 52.59375 71.296875 
L 52.59375 62.3125 
Q 48.875 64.0625 45.09375 64.984375 
Q 41.3125 65.921875 37.59375 65.921875 
Q 27.828125 65.921875 22.671875 59.328125 
Q 17.53125 52.734375 16.796875 39.40625 
Q 19.671875 43.65625 24.015625 45.921875 
Q 28.375 48.1875 33.59375 48.1875 
Q 44.578125 48.1875 50.953125 41.515625 
Q 57.328125 34.859375 57.328125 23.390625 
Q 57.328125 12.15625 50.6875 5.359375 
Q 44.046875 -1.421875 33.015625 -1.421875 
Q 20.359375 -1.421875 13.671875 8.265625 
Q 6.984375 17.96875 6.984375 36.375 
Q 6.984375 53.65625 15.1875 63.9375 
Q 23.390625 74.21875 37.203125 74.21875 
Q 40.921875 74.21875 44.703125 73.484375 
Q 48.484375 72.75 52.59375 71.296875 
z
" id="DejaVuSans-36"/>
      </defs>
      <g transform="translate(236.694783 203.598437)scale(0.1 -0.1)">
       <use xlink:href="#DejaVuSans-36"/>
      </g>
     </g>
    </g>
    <g id="xtick_5">
     <g id="line2d_5">
      <g>
       <use style="stroke:#000000;stroke-width:0.8;" x="285.991736" xlink:href="#m6c9fd46233" y="189"/>
      </g>
     </g>
     <g id="text_5">
      <!-- 8 -->
      <defs>
       <path d="M 31.78125 34.625 
Q 24.75 34.625 20.71875 30.859375 
Q 16.703125 27.09375 16.703125 20.515625 
Q 16.703125 13.921875 20.71875 10.15625 
Q 24.75 6.390625 31.78125 6.390625 
Q 38.8125 6.390625 42.859375 10.171875 
Q 46.921875 13.96875 46.921875 20.515625 
Q 46.921875 27.09375 42.890625 30.859375 
Q 38.875 34.625 31.78125 34.625 
z
M 21.921875 38.8125 
Q 15.578125 40.375 12.03125 44.71875 
Q 8.5 49.078125 8.5 55.328125 
Q 8.5 64.0625 14.71875 69.140625 
Q 20.953125 74.21875 31.78125 74.21875 
Q 42.671875 74.21875 48.875 69.140625 
Q 55.078125 64.0625 55.078125 55.328125 
Q 55.078125 49.078125 51.53125 44.71875 
Q 48 40.375 41.703125 38.8125 
Q 48.828125 37.15625 52.796875 32.3125 
Q 56.78125 27.484375 56.78125 20.515625 
Q 56.78125 9.90625 50.3125 4.234375 
Q 43.84375 -1.421875 31.78125 -1.421875 
Q 19.734375 -1.421875 13.25 4.234375 
Q 6.78125 9.90625 6.78125 20.515625 
Q 6.78125 27.484375 10.78125 32.3125 
Q 14.796875 37.15625 21.921875 38.8125 
z
M 18.3125 54.390625 
Q 18.3125 48.734375 21.84375 45.5625 
Q 25.390625 42.390625 31.78125 42.390625 
Q 38.140625 42.390625 41.71875 45.5625 
Q 45.3125 48.734375 45.3125 54.390625 
Q 45.3125 60.0625 41.71875 63.234375 
Q 38.140625 66.40625 31.78125 66.40625 
Q 25.390625 66.40625 21.84375 63.234375 
Q 18.3125 60.0625 18.3125 54.390625 
z
" id="DejaVuSans-38"/>
      </defs>
      <g transform="translate(282.810486 203.598437)scale(0.1 -0.1)">
       <use xlink:href="#DejaVuSans-38"/>
      </g>
     </g>
    </g>
    <g id="xtick_6">
     <g id="line2d_6">
      <g>
       <use style="stroke:#000000;stroke-width:0.8;" x="332.107438" xlink:href="#m6c9fd46233" y="189"/>
      </g>
     </g>
     <g id="text_6">
      <!-- 10 -->
      <defs>
       <path d="M 12.40625 8.296875 
L 28.515625 8.296875 
L 28.515625 63.921875 
L 10.984375 60.40625 
L 10.984375 69.390625 
L 28.421875 72.90625 
L 38.28125 72.90625 
L 38.28125 8.296875 
L 54.390625 8.296875 
L 54.390625 0 
L 12.40625 0 
z
" id="DejaVuSans-31"/>
      </defs>
      <g transform="translate(325.744938 203.598437)scale(0.1 -0.1)">
       <use xlink:href="#DejaVuSans-31"/>
       <use x="63.623047" xlink:href="#DejaVuSans-30"/>
      </g>
     </g>
    </g>
    <g id="text_7">
     <!-- time -->
     <defs>
      <path d="M 18.3125 70.21875 
L 18.3125 54.6875 
L 36.8125 54.6875 
L 36.8125 47.703125 
L 18.3125 47.703125 
L 18.3125 18.015625 
Q 18.3125 11.328125 20.140625 9.421875 
Q 21.96875 7.515625 27.59375 7.515625 
L 36.8125 7.515625 
L 36.8125 0 
L 27.59375 0 
Q 17.1875 0 13.234375 3.875 
Q 9.28125 7.765625 9.28125 18.015625 
L 9.28125 47.703125 
L 2.6875 47.703125 
L 2.6875 54.6875 
L 9.28125 54.6875 
L 9.28125 70.21875 
z
" id="DejaVuSans-74"/>
      <path d="M 9.421875 54.6875 
L 18.40625 54.6875 
L 18.40625 0 
L 9.421875 0 
z
M 9.421875 75.984375 
L 18.40625 75.984375 
L 18.40625 64.59375 
L 9.421875 64.59375 
z
" id="DejaVuSans-69"/>
      <path d="M 52 44.1875 
Q 55.375 50.25 60.0625 53.125 
Q 64.75 56 71.09375 56 
Q 79.640625 56 84.28125 50.015625 
Q 88.921875 44.046875 88.921875 33.015625 
L 88.921875 0 
L 79.890625 0 
L 79.890625 32.71875 
Q 79.890625 40.578125 77.09375 44.375 
Q 74.3125 48.1875 68.609375 48.1875 
Q 61.625 48.1875 57.5625 43.546875 
Q 53.515625 38.921875 53.515625 30.90625 
L 53.515625 0 
L 44.484375 0 
L 44.484375 32.71875 
Q 44.484375 40.625 41.703125 44.40625 
Q 38.921875 48.1875 33.109375 48.1875 
Q 26.21875 48.1875 22.15625 43.53125 
Q 18.109375 38.875 18.109375 30.90625 
L 18.109375 0 
L 9.078125 0 
L 9.078125 54.6875 
L 18.109375 54.6875 
L 18.109375 46.1875 
Q 21.1875 51.21875 25.484375 53.609375 
Q 29.78125 56 35.6875 56 
Q 41.65625 56 45.828125 52.96875 
Q 50 49.953125 52 44.1875 
z
" id="DejaVuSans-6d"/>
      <path d="M 56.203125 29.59375 
L 56.203125 25.203125 
L 14.890625 25.203125 
Q 15.484375 15.921875 20.484375 11.0625 
Q 25.484375 6.203125 34.421875 6.203125 
Q 39.59375 6.203125 44.453125 7.46875 
Q 49.3125 8.734375 54.109375 11.28125 
L 54.109375 2.78125 
Q 49.265625 0.734375 44.1875 -0.34375 
Q 39.109375 -1.421875 33.890625 -1.421875 
Q 20.796875 -1.421875 13.15625 6.1875 
Q 5.515625 13.8125 5.515625 26.8125 
Q 5.515625 40.234375 12.765625 48.109375 
Q 20.015625 56 32.328125 56 
Q 43.359375 56 49.78125 48.890625 
Q 56.203125 41.796875 56.203125 29.59375 
z
M 47.21875 32.234375 
Q 47.125 39.59375 43.09375 43.984375 
Q 39.0625 48.390625 32.421875 48.390625 
Q 24.90625 48.390625 20.390625 44.140625 
Q 15.875 39.890625 15.1875 32.171875 
z
" id="DejaVuSans-65"/>
     </defs>
     <g transform="translate(205.522088 217.276563)scale(0.1 -0.1)">
      <use xlink:href="#DejaVuSans-74"/>
      <use x="39.208984" xlink:href="#DejaVuSans-69"/>
      <use x="66.992188" xlink:href="#DejaVuSans-6d"/>
      <use x="164.404297" xlink:href="#DejaVuSans-65"/>
     </g>
    </g>
   </g>
   <g id="matplotlib.axis_2">
    <g id="ytick_1">
     <g id="line2d_7">
      <defs>
       <path d="M 0 0 
L -3.5 0 
" id="mf0b296f001" style="stroke:#000000;stroke-width:0.8;"/>
      </defs>
      <g>
       <use style="stroke:#000000;stroke-width:0.8;" x="90" xlink:href="#mf0b296f001" y="187.461325"/>
      </g>
     </g>
     <g id="text_8">
      <!-- 0.00 -->
      <defs>
       <path d="M 10.6875 12.40625 
L 21 12.40625 
L 21 0 
L 10.6875 0 
z
" id="DejaVuSans-2e"/>
      </defs>
      <g transform="translate(60.734375 191.260544)scale(0.1 -0.1)">
       <use xlink:href="#DejaVuSans-30"/>
       <use x="63.623047" xlink:href="#DejaVuSans-2e"/>
       <use x="95.410156" xlink:href="#DejaVuSans-30"/>
       <use x="159.033203" xlink:href="#DejaVuSans-30"/>
      </g>
     </g>
    </g>
    <g id="ytick_2">
     <g id="line2d_8">
      <g>
       <use style="stroke:#000000;stroke-width:0.8;" x="90" xlink:href="#mf0b296f001" y="163.6746"/>
      </g>
     </g>
     <g id="text_9">
      <!-- 0.25 -->
      <defs>
       <path d="M 10.796875 72.90625 
L 49.515625 72.90625 
L 49.515625 64.59375 
L 19.828125 64.59375 
L 19.828125 46.734375 
Q 21.96875 47.46875 24.109375 47.828125 
Q 26.265625 48.1875 28.421875 48.1875 
Q 40.625 48.1875 47.75 41.5 
Q 54.890625 34.8125 54.890625 23.390625 
Q 54.890625 11.625 47.5625 5.09375 
Q 40.234375 -1.421875 26.90625 -1.421875 
Q 22.3125 -1.421875 17.546875 -0.640625 
Q 12.796875 0.140625 7.71875 1.703125 
L 7.71875 11.625 
Q 12.109375 9.234375 16.796875 8.0625 
Q 21.484375 6.890625 26.703125 6.890625 
Q 35.15625 6.890625 40.078125 11.328125 
Q 45.015625 15.765625 45.015625 23.390625 
Q 45.015625 31 40.078125 35.4375 
Q 35.15625 39.890625 26.703125 39.890625 
Q 22.75 39.890625 18.8125 39.015625 
Q 14.890625 38.140625 10.796875 36.28125 
z
" id="DejaVuSans-35"/>
      </defs>
      <g transform="translate(60.734375 167.473819)scale(0.1 -0.1)">
       <use xlink:href="#DejaVuSans-30"/>
       <use x="63.623047" xlink:href="#DejaVuSans-2e"/>
       <use x="95.410156" xlink:href="#DejaVuSans-32"/>
       <use x="159.033203" xlink:href="#DejaVuSans-35"/>
      </g>
     </g>
    </g>
    <g id="ytick_3">
     <g id="line2d_9">
      <g>
       <use style="stroke:#000000;stroke-width:0.8;" x="90" xlink:href="#mf0b296f001" y="139.887876"/>
      </g>
     </g>
     <g id="text_10">
      <!-- 0.50 -->
      <g transform="translate(60.734375 143.687094)scale(0.1 -0.1)">
       <use xlink:href="#DejaVuSans-30"/>
       <use x="63.623047" xlink:href="#DejaVuSans-2e"/>
       <use x="95.410156" xlink:href="#DejaVuSans-35"/>
       <use x="159.033203" xlink:href="#DejaVuSans-30"/>
      </g>
     </g>
    </g>
    <g id="ytick_4">
     <g id="line2d_10">
      <g>
       <use style="stroke:#000000;stroke-width:0.8;" x="90" xlink:href="#mf0b296f001" y="116.101151"/>
      </g>
     </g>
     <g id="text_11">
      <!-- 0.75 -->
      <defs>
       <path d="M 8.203125 72.90625 
L 55.078125 72.90625 
L 55.078125 68.703125 
L 28.609375 0 
L 18.3125 0 
L 43.21875 64.59375 
L 8.203125 64.59375 
z
" id="DejaVuSans-37"/>
      </defs>
      <g transform="translate(60.734375 119.900369)scale(0.1 -0.1)">
       <use xlink:href="#DejaVuSans-30"/>
       <use x="63.623047" xlink:href="#DejaVuSans-2e"/>
       <use x="95.410156" xlink:href="#DejaVuSans-37"/>
       <use x="159.033203" xlink:href="#DejaVuSans-35"/>
      </g>
     </g>
    </g>
    <g id="ytick_5">
     <g id="line2d_11">
      <g>
       <use style="stroke:#000000;stroke-width:0.8;" x="90" xlink:href="#mf0b296f001" y="92.314426"/>
      </g>
     </g>
     <g id="text_12">
      <!-- 1.00 -->
      <g transform="translate(60.734375 96.113645)scale(0.1 -0.1)">
       <use xlink:href="#DejaVuSans-31"/>
       <use x="63.623047" xlink:href="#DejaVuSans-2e"/>
       <use x="95.410156" xlink:href="#DejaVuSans-30"/>
       <use x="159.033203" xlink:href="#DejaVuSans-30"/>
      </g>
     </g>
    </g>
    <g id="ytick_6">
     <g id="line2d_12">
      <g>
       <use style="stroke:#000000;stroke-width:0.8;" x="90" xlink:href="#mf0b296f001" y="68.527701"/>
      </g>
     </g>
     <g id="text_13">
      <!-- 1.25 -->
      <g transform="translate(60.734375 72.32692)scale(0.1 -0.1)">
       <use xlink:href="#DejaVuSans-31"/>
       <use x="63.623047" xlink:href="#DejaVuSans-2e"/>
       <use x="95.410156" xlink:href="#DejaVuSans-32"/>
       <use x="159.033203" xlink:href="#DejaVuSans-35"/>
      </g>
     </g>
    </g>
    <g id="ytick_7">
     <g id="line2d_13">
      <g>
       <use style="stroke:#000000;stroke-width:0.8;" x="90" xlink:href="#mf0b296f001" y="44.740976"/>
      </g>
     </g>
     <g id="text_14">
      <!-- 1.50 -->
      <g transform="translate(60.734375 48.540195)scale(0.1 -0.1)">
       <use xlink:href="#DejaVuSans-31"/>
       <use x="63.623047" xlink:href="#DejaVuSans-2e"/>
       <use x="95.410156" xlink:href="#DejaVuSans-35"/>
       <use x="159.033203" xlink:href="#DejaVuSans-30"/>
      </g>
     </g>
    </g>
    <g id="text_15">
     <!-- y -->
     <defs>
      <path d="M 32.171875 -5.078125 
Q 28.375 -14.84375 24.75 -17.8125 
Q 21.140625 -20.796875 15.09375 -20.796875 
L 7.90625 -20.796875 
L 7.90625 -13.28125 
L 13.1875 -13.28125 
Q 16.890625 -13.28125 18.9375 -11.515625 
Q 21 -9.765625 23.484375 -3.21875 
L 25.09375 0.875 
L 2.984375 54.6875 
L 12.5 54.6875 
L 29.59375 11.921875 
L 46.6875 54.6875 
L 56.203125 54.6875 
z
" id="DejaVuSans-79"/>
     </defs>
     <g transform="translate(54.654688 110.419375)rotate(-90)scale(0.1 -0.1)">
      <use xlink:href="#DejaVuSans-79"/>
     </g>
    </g>
   </g>
   <g id="LineCollection_1">
    <path clip-path="url(#p1c8b2c4dd9)" d="M 101.528926 129.431096 
L 101.528926 33.332727 
" style="fill:none;stroke:#1f77b4;stroke-width:1.5;"/>
    <path clip-path="url(#p1c8b2c4dd9)" d="M 109.479909 138.77775 
L 109.479909 57.747716 
" style="fill:none;stroke:#1f77b4;stroke-width:1.5;"/>
    <path clip-path="url(#p1c8b2c4dd9)" d="M 117.430892 142.875308 
L 117.430892 74.527249 
" style="fill:none;stroke:#1f77b4;stroke-width:1.5;"/>
    <path clip-path="url(#p1c8b2c4dd9)" d="M 125.381875 145.713499 
L 125.381875 88.038981 
" style="fill:none;stroke:#1f77b4;stroke-width:1.5;"/>
    <path clip-path="url(#p1c8b2c4dd9)" d="M 133.332858 155.220805 
L 133.332858 106.529469 
" style="fill:none;stroke:#1f77b4;stroke-width:1.5;"/>
    <path clip-path="url(#p1c8b2c4dd9)" d="M 141.283842 159.00102 
L 141.283842 117.870206 
" style="fill:none;stroke:#1f77b4;stroke-width:1.5;"/>
    <path clip-path="url(#p1c8b2c4dd9)" d="M 149.234825 157.006566 
L 149.234825 122.238922 
" style="fill:none;stroke:#1f77b4;stroke-width:1.5;"/>
    <path clip-path="url(#p1c8b2c4dd9)" d="M 157.185808 162.001431 
L 157.185808 132.589226 
" style="fill:none;stroke:#1f77b4;stroke-width:1.5;"/>
    <path clip-path="url(#p1c8b2c4dd9)" d="M 165.136791 167.785724 
L 165.136791 142.880822 
" style="fill:none;stroke:#1f77b4;stroke-width:1.5;"/>
    <path clip-path="url(#p1c8b2c4dd9)" d="M 173.087774 166.793709 
L 173.087774 145.682292 
" style="fill:none;stroke:#1f77b4;stroke-width:1.5;"/>
    <path clip-path="url(#p1c8b2c4dd9)" d="M 181.038757 171.261536 
L 181.038757 153.342832 
" style="fill:none;stroke:#1f77b4;stroke-width:1.5;"/>
    <path clip-path="url(#p1c8b2c4dd9)" d="M 188.989741 172.611678 
L 188.989741 157.380062 
" style="fill:none;stroke:#1f77b4;stroke-width:1.5;"/>
    <path clip-path="url(#p1c8b2c4dd9)" d="M 196.940724 171.722405 
L 196.940724 158.752323 
" style="fill:none;stroke:#1f77b4;stroke-width:1.5;"/>
    <path clip-path="url(#p1c8b2c4dd9)" d="M 204.891707 178.826033 
L 204.891707 167.759329 
" style="fill:none;stroke:#1f77b4;stroke-width:1.5;"/>
    <path clip-path="url(#p1c8b2c4dd9)" d="M 212.84269 179.089341 
L 212.84269 169.624578 
" style="fill:none;stroke:#1f77b4;stroke-width:1.5;"/>
    <path clip-path="url(#p1c8b2c4dd9)" d="M 220.793673 176.444842 
L 220.793673 168.328323 
" style="fill:none;stroke:#1f77b4;stroke-width:1.5;"/>
    <path clip-path="url(#p1c8b2c4dd9)" d="M 228.744657 178.298238 
L 228.744657 171.316442 
" style="fill:none;stroke:#1f77b4;stroke-width:1.5;"/>
    <path clip-path="url(#p1c8b2c4dd9)" d="M 236.69564 174.987725 
L 236.69564 168.960947 
" style="fill:none;stroke:#1f77b4;stroke-width:1.5;"/>
    <path clip-path="url(#p1c8b2c4dd9)" d="M 244.646623 178.878472 
L 244.646623 173.655466 
" style="fill:none;stroke:#1f77b4;stroke-width:1.5;"/>
    <path clip-path="url(#p1c8b2c4dd9)" d="M 252.597606 180.656131 
L 252.597606 176.109604 
" style="fill:none;stroke:#1f77b4;stroke-width:1.5;"/>
    <path clip-path="url(#p1c8b2c4dd9)" d="M 260.548589 172.725956 
L 260.548589 168.748776 
" style="fill:none;stroke:#1f77b4;stroke-width:1.5;"/>
    <path clip-path="url(#p1c8b2c4dd9)" d="M 268.499573 177.793561 
L 268.499573 174.295561 
" style="fill:none;stroke:#1f77b4;stroke-width:1.5;"/>
    <path clip-path="url(#p1c8b2c4dd9)" d="M 276.450556 177.157997 
L 276.450556 174.063288 
" style="fill:none;stroke:#1f77b4;stroke-width:1.5;"/>
    <path clip-path="url(#p1c8b2c4dd9)" d="M 284.401539 181.587273 
L 284.401539 178.831987 
" style="fill:none;stroke:#1f77b4;stroke-width:1.5;"/>
    <path clip-path="url(#p1c8b2c4dd9)" d="M 292.352522 179.217186 
L 292.352522 176.747569 
" style="fill:none;stroke:#1f77b4;stroke-width:1.5;"/>
    <path clip-path="url(#p1c8b2c4dd9)" d="M 300.303505 177.466892 
L 300.303505 175.237703 
" style="fill:none;stroke:#1f77b4;stroke-width:1.5;"/>
    <path clip-path="url(#p1c8b2c4dd9)" d="M 308.254488 181.17009 
L 308.254488 179.143252 
" style="fill:none;stroke:#1f77b4;stroke-width:1.5;"/>
    <path clip-path="url(#p1c8b2c4dd9)" d="M 316.205472 176.897443 
L 316.205472 175.040911 
" style="fill:none;stroke:#1f77b4;stroke-width:1.5;"/>
    <path clip-path="url(#p1c8b2c4dd9)" d="M 324.156455 179.755973 
L 324.156455 178.042774 
" style="fill:none;stroke:#1f77b4;stroke-width:1.5;"/>
    <path clip-path="url(#p1c8b2c4dd9)" d="M 332.107438 178.934435 
L 332.107438 177.341871 
" style="fill:none;stroke:#1f77b4;stroke-width:1.5;"/>
   </g>
   <g id="line2d_14">
    <defs>
     <path d="M 0 3 
C 0.795609 3 1.55874 2.683901 2.12132 2.12132 
C 2.683901 1.55874 3 0.795609 3 0 
C 3 -0.795609 2.683901 -1.55874 2.12132 -2.12132 
C 1.55874 -2.683901 0.795609 -3 0 -3 
C -0.795609 -3 -1.55874 -2.683901 -2.12132 -2.12132 
C -2.683901 -1.55874 -3 -0.795609 -3 0 
C -3 0.795609 -2.683901 1.55874 -2.12132 2.12132 
C -1.55874 2.683901 -0.795609 3 0 3 
z
" id="med34f38ba8" style="stroke:#1f77b4;"/>
    </defs>
    <g clip-path="url(#p1c8b2c4dd9)">
     <use style="fill:#1f77b4;stroke:#1f77b4;" x="101.528926" xlink:href="#med34f38ba8" y="81.381912"/>
     <use style="fill:#1f77b4;stroke:#1f77b4;" x="109.479909" xlink:href="#med34f38ba8" y="98.262733"/>
     <use style="fill:#1f77b4;stroke:#1f77b4;" x="117.430892" xlink:href="#med34f38ba8" y="108.701279"/>
     <use style="fill:#1f77b4;stroke:#1f77b4;" x="125.381875" xlink:href="#med34f38ba8" y="116.87624"/>
     <use style="fill:#1f77b4;stroke:#1f77b4;" x="133.332858" xlink:href="#med34f38ba8" y="130.875137"/>
     <use style="fill:#1f77b4;stroke:#1f77b4;" x="141.283842" xlink:href="#med34f38ba8" y="138.435613"/>
     <use style="fill:#1f77b4;stroke:#1f77b4;" x="149.234825" xlink:href="#med34f38ba8" y="139.622744"/>
     <use style="fill:#1f77b4;stroke:#1f77b4;" x="157.185808" xlink:href="#med34f38ba8" y="147.295328"/>
     <use style="fill:#1f77b4;stroke:#1f77b4;" x="165.136791" xlink:href="#med34f38ba8" y="155.333273"/>
     <use style="fill:#1f77b4;stroke:#1f77b4;" x="173.087774" xlink:href="#med34f38ba8" y="156.238"/>
     <use style="fill:#1f77b4;stroke:#1f77b4;" x="181.038757" xlink:href="#med34f38ba8" y="162.302184"/>
     <use style="fill:#1f77b4;stroke:#1f77b4;" x="188.989741" xlink:href="#med34f38ba8" y="164.99587"/>
     <use style="fill:#1f77b4;stroke:#1f77b4;" x="196.940724" xlink:href="#med34f38ba8" y="165.237364"/>
     <use style="fill:#1f77b4;stroke:#1f77b4;" x="204.891707" xlink:href="#med34f38ba8" y="173.292681"/>
     <use style="fill:#1f77b4;stroke:#1f77b4;" x="212.84269" xlink:href="#med34f38ba8" y="174.356959"/>
     <use style="fill:#1f77b4;stroke:#1f77b4;" x="220.793673" xlink:href="#med34f38ba8" y="172.386582"/>
     <use style="fill:#1f77b4;stroke:#1f77b4;" x="228.744657" xlink:href="#med34f38ba8" y="174.80734"/>
     <use style="fill:#1f77b4;stroke:#1f77b4;" x="236.69564" xlink:href="#med34f38ba8" y="171.974336"/>
     <use style="fill:#1f77b4;stroke:#1f77b4;" x="244.646623" xlink:href="#med34f38ba8" y="176.266969"/>
     <use style="fill:#1f77b4;stroke:#1f77b4;" x="252.597606" xlink:href="#med34f38ba8" y="178.382868"/>
     <use style="fill:#1f77b4;stroke:#1f77b4;" x="260.548589" xlink:href="#med34f38ba8" y="170.737366"/>
     <use style="fill:#1f77b4;stroke:#1f77b4;" x="268.499573" xlink:href="#med34f38ba8" y="176.044561"/>
     <use style="fill:#1f77b4;stroke:#1f77b4;" x="276.450556" xlink:href="#med34f38ba8" y="175.610643"/>
     <use style="fill:#1f77b4;stroke:#1f77b4;" x="284.401539" xlink:href="#med34f38ba8" y="180.20963"/>
     <use style="fill:#1f77b4;stroke:#1f77b4;" x="292.352522" xlink:href="#med34f38ba8" y="177.982378"/>
     <use style="fill:#1f77b4;stroke:#1f77b4;" x="300.303505" xlink:href="#med34f38ba8" y="176.352297"/>
     <use style="fill:#1f77b4;stroke:#1f77b4;" x="308.254488" xlink:href="#med34f38ba8" y="180.156671"/>
     <use style="fill:#1f77b4;stroke:#1f77b4;" x="316.205472" xlink:href="#med34f38ba8" y="175.969177"/>
     <use style="fill:#1f77b4;stroke:#1f77b4;" x="324.156455" xlink:href="#med34f38ba8" y="178.899373"/>
     <use style="fill:#1f77b4;stroke:#1f77b4;" x="332.107438" xlink:href="#med34f38ba8" y="178.138153"/>
    </g>
   </g>
   <g id="patch_3">
    <path d="M 90 189 
L 90 25.92 
" style="fill:none;stroke:#000000;stroke-linecap:square;stroke-linejoin:miter;stroke-width:0.8;"/>
   </g>
   <g id="patch_4">
    <path d="M 343.636364 189 
L 343.636364 25.92 
" style="fill:none;stroke:#000000;stroke-linecap:square;stroke-linejoin:miter;stroke-width:0.8;"/>
   </g>
   <g id="patch_5">
    <path d="M 90 189 
L 343.636364 189 
" style="fill:none;stroke:#000000;stroke-linecap:square;stroke-linejoin:miter;stroke-width:0.8;"/>
   </g>
   <g id="patch_6">
    <path d="M 90 25.92 
L 343.636364 25.92 
" style="fill:none;stroke:#000000;stroke-linecap:square;stroke-linejoin:miter;stroke-width:0.8;"/>
   </g>
  </g>
  <g id="axes_2">
   <g id="patch_7">
    <path d="M 394.363636 189 
L 648 189 
L 648 25.92 
L 394.363636 25.92 
z
" style="fill:#ffffff;"/>
   </g>
   <g id="matplotlib.axis_3">
    <g id="xtick_7">
     <g id="line2d_15">
      <g>
       <use style="stroke:#000000;stroke-width:0.8;" x="405.892562" xlink:href="#m6c9fd46233" y="189"/>
      </g>
     </g>
     <g id="text_16">
      <!-- 0 -->
      <g transform="translate(402.711312 203.598437)scale(0.1 -0.1)">
       <use xlink:href="#DejaVuSans-30"/>
      </g>
     </g>
    </g>
    <g id="xtick_8">
     <g id="line2d_16">
      <g>
       <use style="stroke:#000000;stroke-width:0.8;" x="452.008264" xlink:href="#m6c9fd46233" y="189"/>
      </g>
     </g>
     <g id="text_17">
      <!-- 2 -->
      <g transform="translate(448.827014 203.598437)scale(0.1 -0.1)">
       <use xlink:href="#DejaVuSans-32"/>
      </g>
     </g>
    </g>
    <g id="xtick_9">
     <g id="line2d_17">
      <g>
       <use style="stroke:#000000;stroke-width:0.8;" x="498.123967" xlink:href="#m6c9fd46233" y="189"/>
      </g>
     </g>
     <g id="text_18">
      <!-- 4 -->
      <g transform="translate(494.942717 203.598437)scale(0.1 -0.1)">
       <use xlink:href="#DejaVuSans-34"/>
      </g>
     </g>
    </g>
    <g id="xtick_10">
     <g id="line2d_18">
      <g>
       <use style="stroke:#000000;stroke-width:0.8;" x="544.239669" xlink:href="#m6c9fd46233" y="189"/>
      </g>
     </g>
     <g id="text_19">
      <!-- 6 -->
      <g transform="translate(541.058419 203.598437)scale(0.1 -0.1)">
       <use xlink:href="#DejaVuSans-36"/>
      </g>
     </g>
    </g>
    <g id="xtick_11">
     <g id="line2d_19">
      <g>
       <use style="stroke:#000000;stroke-width:0.8;" x="590.355372" xlink:href="#m6c9fd46233" y="189"/>
      </g>
     </g>
     <g id="text_20">
      <!-- 8 -->
      <g transform="translate(587.174122 203.598437)scale(0.1 -0.1)">
       <use xlink:href="#DejaVuSans-38"/>
      </g>
     </g>
    </g>
    <g id="xtick_12">
     <g id="line2d_20">
      <g>
       <use style="stroke:#000000;stroke-width:0.8;" x="636.471074" xlink:href="#m6c9fd46233" y="189"/>
      </g>
     </g>
     <g id="text_21">
      <!-- 10 -->
      <g transform="translate(630.108574 203.598437)scale(0.1 -0.1)">
       <use xlink:href="#DejaVuSans-31"/>
       <use x="63.623047" xlink:href="#DejaVuSans-30"/>
      </g>
     </g>
    </g>
    <g id="text_22">
     <!-- time -->
     <g transform="translate(509.885724 217.276563)scale(0.1 -0.1)">
      <use xlink:href="#DejaVuSans-74"/>
      <use x="39.208984" xlink:href="#DejaVuSans-69"/>
      <use x="66.992188" xlink:href="#DejaVuSans-6d"/>
      <use x="164.404297" xlink:href="#DejaVuSans-65"/>
     </g>
    </g>
   </g>
   <g id="matplotlib.axis_4">
    <g id="ytick_8">
     <g id="line2d_21">
      <g>
       <use style="stroke:#000000;stroke-width:0.8;" x="394.363636" xlink:href="#mf0b296f001" y="178.787035"/>
      </g>
     </g>
     <g id="text_23">
      <!-- 0.0 -->
      <g transform="translate(371.460511 182.586254)scale(0.1 -0.1)">
       <use xlink:href="#DejaVuSans-30"/>
       <use x="63.623047" xlink:href="#DejaVuSans-2e"/>
       <use x="95.410156" xlink:href="#DejaVuSans-30"/>
      </g>
     </g>
    </g>
    <g id="ytick_9">
     <g id="line2d_22">
      <g>
       <use style="stroke:#000000;stroke-width:0.8;" x="394.363636" xlink:href="#mf0b296f001" y="152.740531"/>
      </g>
     </g>
     <g id="text_24">
      <!-- 0.2 -->
      <g transform="translate(371.460511 156.53975)scale(0.1 -0.1)">
       <use xlink:href="#DejaVuSans-30"/>
       <use x="63.623047" xlink:href="#DejaVuSans-2e"/>
       <use x="95.410156" xlink:href="#DejaVuSans-32"/>
      </g>
     </g>
    </g>
    <g id="ytick_10">
     <g id="line2d_23">
      <g>
       <use style="stroke:#000000;stroke-width:0.8;" x="394.363636" xlink:href="#mf0b296f001" y="126.694027"/>
      </g>
     </g>
     <g id="text_25">
      <!-- 0.4 -->
      <g transform="translate(371.460511 130.493246)scale(0.1 -0.1)">
       <use xlink:href="#DejaVuSans-30"/>
       <use x="63.623047" xlink:href="#DejaVuSans-2e"/>
       <use x="95.410156" xlink:href="#DejaVuSans-34"/>
      </g>
     </g>
    </g>
    <g id="ytick_11">
     <g id="line2d_24">
      <g>
       <use style="stroke:#000000;stroke-width:0.8;" x="394.363636" xlink:href="#mf0b296f001" y="100.647523"/>
      </g>
     </g>
     <g id="text_26">
      <!-- 0.6 -->
      <g transform="translate(371.460511 104.446742)scale(0.1 -0.1)">
       <use xlink:href="#DejaVuSans-30"/>
       <use x="63.623047" xlink:href="#DejaVuSans-2e"/>
       <use x="95.410156" xlink:href="#DejaVuSans-36"/>
      </g>
     </g>
    </g>
    <g id="ytick_12">
     <g id="line2d_25">
      <g>
       <use style="stroke:#000000;stroke-width:0.8;" x="394.363636" xlink:href="#mf0b296f001" y="74.601019"/>
      </g>
     </g>
     <g id="text_27">
      <!-- 0.8 -->
      <g transform="translate(371.460511 78.400238)scale(0.1 -0.1)">
       <use xlink:href="#DejaVuSans-30"/>
       <use x="63.623047" xlink:href="#DejaVuSans-2e"/>
       <use x="95.410156" xlink:href="#DejaVuSans-38"/>
      </g>
     </g>
    </g>
    <g id="ytick_13">
     <g id="line2d_26">
      <g>
       <use style="stroke:#000000;stroke-width:0.8;" x="394.363636" xlink:href="#mf0b296f001" y="48.554515"/>
      </g>
     </g>
     <g id="text_28">
      <!-- 1.0 -->
      <g transform="translate(371.460511 52.353734)scale(0.1 -0.1)">
       <use xlink:href="#DejaVuSans-31"/>
       <use x="63.623047" xlink:href="#DejaVuSans-2e"/>
       <use x="95.410156" xlink:href="#DejaVuSans-30"/>
      </g>
     </g>
    </g>
    <g id="text_29">
     <!-- y -->
     <g transform="translate(365.380824 110.419375)rotate(-90)scale(0.1 -0.1)">
      <use xlink:href="#DejaVuSans-79"/>
     </g>
    </g>
   </g>
   <g id="LineCollection_2">
    <path clip-path="url(#pff3f784f48)" d="M 405.892562 33.8485 
L 405.892562 33.332727 
" style="fill:none;stroke:#1f77b4;stroke-width:1.5;"/>
    <path clip-path="url(#pff3f784f48)" d="M 413.843545 57.002116 
L 413.843545 56.390431 
" style="fill:none;stroke:#1f77b4;stroke-width:1.5;"/>
    <path clip-path="url(#pff3f784f48)" d="M 421.794528 71.346647 
L 421.794528 70.621463 
" style="fill:none;stroke:#1f77b4;stroke-width:1.5;"/>
    <path clip-path="url(#pff3f784f48)" d="M 429.745512 82.603245 
L 429.745512 81.743855 
" style="fill:none;stroke:#1f77b4;stroke-width:1.5;"/>
    <path clip-path="url(#pff3f784f48)" d="M 437.696495 101.843541 
L 437.696495 100.825601 
" style="fill:none;stroke:#1f77b4;stroke-width:1.5;"/>
    <path clip-path="url(#pff3f784f48)" d="M 445.647478 112.285515 
L 445.647478 111.080461 
" style="fill:none;stroke:#1f77b4;stroke-width:1.5;"/>
    <path clip-path="url(#pff3f784f48)" d="M 453.598461 114.020677 
L 453.598461 112.595074 
" style="fill:none;stroke:#1f77b4;stroke-width:1.5;"/>
    <path clip-path="url(#pff3f784f48)" d="M 461.549444 124.652332 
L 461.549444 122.967151 
" style="fill:none;stroke:#1f77b4;stroke-width:1.5;"/>
    <path clip-path="url(#pff3f784f48)" d="M 469.500427 135.806778 
L 469.500427 133.816613 
" style="fill:none;stroke:#1f77b4;stroke-width:1.5;"/>
    <path clip-path="url(#pff3f784f48)" d="M 477.451411 137.223931 
L 477.451411 134.876154 
" style="fill:none;stroke:#1f77b4;stroke-width:1.5;"/>
    <path clip-path="url(#pff3f784f48)" d="M 485.402394 145.733456 
L 485.402394 142.967358 
" style="fill:none;stroke:#1f77b4;stroke-width:1.5;"/>
    <path clip-path="url(#pff3f784f48)" d="M 493.353377 149.664435 
L 493.353377 146.410356 
" style="fill:none;stroke:#1f77b4;stroke-width:1.5;"/>
    <path clip-path="url(#pff3f784f48)" d="M 501.30436 150.27868 
L 501.30436 146.457202 
" style="fill:none;stroke:#1f77b4;stroke-width:1.5;"/>
    <path clip-path="url(#pff3f784f48)" d="M 509.255343 161.633043 
L 509.255343 157.154303 
" style="fill:none;stroke:#1f77b4;stroke-width:1.5;"/>
    <path clip-path="url(#pff3f784f48)" d="M 517.206327 163.468796 
L 517.206327 158.232016 
" style="fill:none;stroke:#1f77b4;stroke-width:1.5;"/>
    <path clip-path="url(#pff3f784f48)" d="M 525.15731 161.206782 
L 525.15731 155.100115 
" style="fill:none;stroke:#1f77b4;stroke-width:1.5;"/>
    <path clip-path="url(#pff3f784f48)" d="M 533.108293 165.016445 
L 533.108293 157.917287 
" style="fill:none;stroke:#1f77b4;stroke-width:1.5;"/>
    <path clip-path="url(#pff3f784f48)" d="M 541.059276 161.70124 
L 541.059276 153.477131 
" style="fill:none;stroke:#1f77b4;stroke-width:1.5;"/>
    <path clip-path="url(#pff3f784f48)" d="M 549.010259 168.209597 
L 549.010259 158.719874 
" style="fill:none;stroke:#1f77b4;stroke-width:1.5;"/>
    <path clip-path="url(#pff3f784f48)" d="M 556.961243 171.811728 
L 556.961243 160.910025 
" style="fill:none;stroke:#1f77b4;stroke-width:1.5;"/>
    <path clip-path="url(#pff3f784f48)" d="M 564.912226 162.127239 
L 564.912226 149.664922 
" style="fill:none;stroke:#1f77b4;stroke-width:1.5;"/>
    <path clip-path="url(#pff3f784f48)" d="M 572.863209 170.245059 
L 572.863209 156.07557 
" style="fill:none;stroke:#1f77b4;stroke-width:1.5;"/>
    <path clip-path="url(#pff3f784f48)" d="M 580.814192 170.574392 
L 580.814192 154.558384 
" style="fill:none;stroke:#1f77b4;stroke-width:1.5;"/>
    <path clip-path="url(#pff3f784f48)" d="M 588.765175 177.85577 
L 588.765175 159.866753 
" style="fill:none;stroke:#1f77b4;stroke-width:1.5;"/>
    <path clip-path="url(#pff3f784f48)" d="M 596.716158 175.847639 
L 596.716158 155.777771 
" style="fill:none;stroke:#1f77b4;stroke-width:1.5;"/>
    <path clip-path="url(#pff3f784f48)" d="M 604.667142 174.698775 
L 604.667142 152.464284 
" style="fill:none;stroke:#1f77b4;stroke-width:1.5;"/>
    <path clip-path="url(#pff3f784f48)" d="M 612.618125 181.015921 
L 612.618125 156.561626 
" style="fill:none;stroke:#1f77b4;stroke-width:1.5;"/>
    <path clip-path="url(#pff3f784f48)" d="M 620.569108 176.405913 
L 620.569108 149.708353 
" style="fill:none;stroke:#1f77b4;stroke-width:1.5;"/>
    <path clip-path="url(#pff3f784f48)" d="M 628.520091 181.533446 
L 628.520091 152.602244 
" style="fill:none;stroke:#1f77b4;stroke-width:1.5;"/>
    <path clip-path="url(#pff3f784f48)" d="M 636.471074 181.587273 
L 636.471074 150.464574 
" style="fill:none;stroke:#1f77b4;stroke-width:1.5;"/>
   </g>
   <g id="line2d_27">
    <g clip-path="url(#pff3f784f48)">
     <use style="fill:#1f77b4;stroke:#1f77b4;" x="405.892562" xlink:href="#med34f38ba8" y="33.590613"/>
     <use style="fill:#1f77b4;stroke:#1f77b4;" x="413.843545" xlink:href="#med34f38ba8" y="56.696273"/>
     <use style="fill:#1f77b4;stroke:#1f77b4;" x="421.794528" xlink:href="#med34f38ba8" y="70.984055"/>
     <use style="fill:#1f77b4;stroke:#1f77b4;" x="429.745512" xlink:href="#med34f38ba8" y="82.17355"/>
     <use style="fill:#1f77b4;stroke:#1f77b4;" x="437.696495" xlink:href="#med34f38ba8" y="101.334571"/>
     <use style="fill:#1f77b4;stroke:#1f77b4;" x="445.647478" xlink:href="#med34f38ba8" y="111.682988"/>
     <use style="fill:#1f77b4;stroke:#1f77b4;" x="453.598461" xlink:href="#med34f38ba8" y="113.307876"/>
     <use style="fill:#1f77b4;stroke:#1f77b4;" x="461.549444" xlink:href="#med34f38ba8" y="123.809742"/>
     <use style="fill:#1f77b4;stroke:#1f77b4;" x="469.500427" xlink:href="#med34f38ba8" y="134.811696"/>
     <use style="fill:#1f77b4;stroke:#1f77b4;" x="477.451411" xlink:href="#med34f38ba8" y="136.050043"/>
     <use style="fill:#1f77b4;stroke:#1f77b4;" x="485.402394" xlink:href="#med34f38ba8" y="144.350407"/>
     <use style="fill:#1f77b4;stroke:#1f77b4;" x="493.353377" xlink:href="#med34f38ba8" y="148.037396"/>
     <use style="fill:#1f77b4;stroke:#1f77b4;" x="501.30436" xlink:href="#med34f38ba8" y="148.367941"/>
     <use style="fill:#1f77b4;stroke:#1f77b4;" x="509.255343" xlink:href="#med34f38ba8" y="159.393673"/>
     <use style="fill:#1f77b4;stroke:#1f77b4;" x="517.206327" xlink:href="#med34f38ba8" y="160.850406"/>
     <use style="fill:#1f77b4;stroke:#1f77b4;" x="525.15731" xlink:href="#med34f38ba8" y="158.153449"/>
     <use style="fill:#1f77b4;stroke:#1f77b4;" x="533.108293" xlink:href="#med34f38ba8" y="161.466866"/>
     <use style="fill:#1f77b4;stroke:#1f77b4;" x="541.059276" xlink:href="#med34f38ba8" y="157.589186"/>
     <use style="fill:#1f77b4;stroke:#1f77b4;" x="549.010259" xlink:href="#med34f38ba8" y="163.464735"/>
     <use style="fill:#1f77b4;stroke:#1f77b4;" x="556.961243" xlink:href="#med34f38ba8" y="166.360877"/>
     <use style="fill:#1f77b4;stroke:#1f77b4;" x="564.912226" xlink:href="#med34f38ba8" y="155.896081"/>
     <use style="fill:#1f77b4;stroke:#1f77b4;" x="572.863209" xlink:href="#med34f38ba8" y="163.160315"/>
     <use style="fill:#1f77b4;stroke:#1f77b4;" x="580.814192" xlink:href="#med34f38ba8" y="162.566388"/>
     <use style="fill:#1f77b4;stroke:#1f77b4;" x="588.765175" xlink:href="#med34f38ba8" y="168.861262"/>
     <use style="fill:#1f77b4;stroke:#1f77b4;" x="596.716158" xlink:href="#med34f38ba8" y="165.812705"/>
     <use style="fill:#1f77b4;stroke:#1f77b4;" x="604.667142" xlink:href="#med34f38ba8" y="163.581529"/>
     <use style="fill:#1f77b4;stroke:#1f77b4;" x="612.618125" xlink:href="#med34f38ba8" y="168.788774"/>
     <use style="fill:#1f77b4;stroke:#1f77b4;" x="620.569108" xlink:href="#med34f38ba8" y="163.057133"/>
     <use style="fill:#1f77b4;stroke:#1f77b4;" x="628.520091" xlink:href="#med34f38ba8" y="167.067845"/>
     <use style="fill:#1f77b4;stroke:#1f77b4;" x="636.471074" xlink:href="#med34f38ba8" y="166.025923"/>
    </g>
   </g>
   <g id="patch_8">
    <path d="M 394.363636 189 
L 394.363636 25.92 
" style="fill:none;stroke:#000000;stroke-linecap:square;stroke-linejoin:miter;stroke-width:0.8;"/>
   </g>
   <g id="patch_9">
    <path d="M 648 189 
L 648 25.92 
" style="fill:none;stroke:#000000;stroke-linecap:square;stroke-linejoin:miter;stroke-width:0.8;"/>
   </g>
   <g id="patch_10">
    <path d="M 394.363636 189 
L 648 189 
" style="fill:none;stroke:#000000;stroke-linecap:square;stroke-linejoin:miter;stroke-width:0.8;"/>
   </g>
   <g id="patch_11">
    <path d="M 394.363636 25.92 
L 648 25.92 
" style="fill:none;stroke:#000000;stroke-linecap:square;stroke-linejoin:miter;stroke-width:0.8;"/>
   </g>
  </g>
 </g>
 <defs>
  <clipPath id="p1c8b2c4dd9">
   <rect height="163.08" width="253.636364" x="90" y="25.92"/>
  </clipPath>
  <clipPath id="pff3f784f48">
   <rect height="163.08" width="253.636364" x="394.363636" y="25.92"/>
  </clipPath>
 </defs>
</svg>
