<?xml version="1.0" encoding="utf-8" standalone="no"?>
<!DOCTYPE svg PUBLIC "-//W3C//DTD SVG 1.1//EN"
  "http://www.w3.org/Graphics/SVG/1.1/DTD/svg11.dtd">
<!-- Created with matplotlib (http://matplotlib.org/) -->
<svg height="360pt" version="1.1" viewBox="0 0 576 360" width="576pt" xmlns="http://www.w3.org/2000/svg" xmlns:xlink="http://www.w3.org/1999/xlink">
 <defs>
  <style type="text/css">
*{stroke-linecap:butt;stroke-linejoin:round;}
  </style>
 </defs>
 <g id="figure_1">
  <g id="patch_1">
   <path d="M 0 360 
L 576 360 
L 576 0 
L 0 0 
z
" style="fill:#ffffff;"/>
  </g>
  <g id="axes_1">
   <g id="patch_2">
    <path d="M 72 315 
L 518.4 315 
L 518.4 43.2 
L 72 43.2 
z
" style="fill:#fefbf3;"/>
   </g>
   <g id="PolyCollection_1">
    <defs>
     <path d="M 72 -218.058615 
L 72 -218.058615 
L 72.894589 -216.847937 
L 73.789178 -215.643019 
L 74.683768 -214.44386 
L 75.578357 -213.250458 
L 76.472946 -212.06281 
L 77.367535 -210.880913 
L 78.262124 -209.704766 
L 79.156713 -208.534366 
L 80.051303 -207.369711 
L 80.945892 -206.210798 
L 81.840481 -205.057624 
L 82.73507 -203.910187 
L 83.629659 -202.768485 
L 84.524248 -201.632513 
L 85.418838 -200.50227 
L 86.313427 -199.377753 
L 87.208016 -198.258959 
L 88.102605 -197.145885 
L 88.997194 -196.038527 
L 89.891784 -194.936884 
L 90.786373 -193.840951 
L 91.680962 -192.750725 
L 92.575551 -191.666204 
L 93.47014 -190.587383 
L 94.364729 -189.51426 
L 95.259319 -188.44683 
L 96.153908 -187.385091 
L 97.048497 -186.329039 
L 97.943086 -185.278669 
L 98.837675 -184.233979 
L 99.732265 -183.194965 
L 100.626854 -182.161622 
L 101.521443 -181.133946 
L 102.416032 -180.111934 
L 103.310621 -179.095582 
L 104.20521 -178.084884 
L 105.0998 -177.079838 
L 105.994389 -176.080438 
L 106.888978 -175.08668 
L 107.783567 -174.098559 
L 108.678156 -173.116071 
L 109.572745 -172.139212 
L 110.467335 -171.167976 
L 111.361924 -170.202359 
L 112.256513 -169.242355 
L 113.151102 -168.28796 
L 114.045691 -167.339168 
L 114.940281 -166.395974 
L 115.83487 -165.458373 
L 116.729459 -164.52636 
L 117.624048 -163.599929 
L 118.518637 -162.679075 
L 119.413226 -161.763791 
L 120.307816 -160.854073 
L 121.202405 -159.949914 
L 122.096994 -159.051308 
L 122.991583 -158.15825 
L 123.886172 -157.270734 
L 124.780762 -156.388753 
L 125.675351 -155.512301 
L 126.56994 -154.641373 
L 127.464529 -153.77596 
L 128.359118 -152.916059 
L 129.253707 -152.06166 
L 130.148297 -151.212759 
L 131.042886 -150.369349 
L 131.937475 -149.531422 
L 132.832064 -148.698973 
L 133.726653 -147.871995 
L 134.621242 -147.05048 
L 135.515832 -146.234422 
L 136.410421 -145.423814 
L 137.30501 -144.61865 
L 138.199599 -143.818922 
L 139.094188 -143.024623 
L 139.988778 -142.235747 
L 140.883367 -141.452287 
L 141.777956 -140.674236 
L 142.672545 -139.901586 
L 143.567134 -139.134332 
L 144.461723 -138.372467 
L 145.356313 -137.615983 
L 146.250902 -136.864875 
L 147.145491 -136.119135 
L 148.04008 -135.378758 
L 148.934669 -134.643737 
L 149.829259 -133.914065 
L 150.723848 -133.189737 
L 151.618437 -132.470748 
L 152.513026 -131.75709 
L 153.407615 -131.048758 
L 154.302204 -130.345748 
L 155.196794 -129.648054 
L 156.091383 -128.955672 
L 156.985972 -128.268595 
L 157.880561 -127.586821 
L 158.77515 -126.910345 
L 159.669739 -126.239164 
L 160.564329 -125.573273 
L 161.458918 -124.91267 
L 162.353507 -124.257352 
L 163.248096 -123.607317 
L 164.142685 -122.962562 
L 165.037275 -122.323087 
L 165.931864 -121.688891 
L 166.826453 -121.059971 
L 167.721042 -120.436329 
L 168.615631 -119.817965 
L 169.51022 -119.20488 
L 170.40481 -118.597074 
L 171.299399 -117.994551 
L 172.193988 -117.397312 
L 173.088577 -116.80536 
L 173.983166 -116.2187 
L 174.877756 -115.637335 
L 175.772345 -115.06127 
L 176.666934 -114.490511 
L 177.561523 -113.925063 
L 178.456112 -113.364934 
L 179.350701 -112.810131 
L 180.245291 -112.260661 
L 181.13988 -111.716533 
L 182.034469 -111.177757 
L 182.929058 -110.644342 
L 183.823647 -110.116298 
L 184.718236 -109.593638 
L 185.612826 -109.076372 
L 186.507415 -108.564512 
L 187.402004 -108.058072 
L 188.296593 -107.557066 
L 189.191182 -107.061506 
L 190.085772 -106.571409 
L 190.980361 -106.086788 
L 191.87495 -105.60766 
L 192.769539 -105.13404 
L 193.664128 -104.665946 
L 194.558717 -104.203394 
L 195.453307 -103.746402 
L 196.347896 -103.294988 
L 197.242485 -102.849171 
L 198.137074 -102.408968 
L 199.031663 -101.9744 
L 199.926253 -101.545484 
L 200.820842 -101.122242 
L 201.715431 -100.704693 
L 202.61002 -100.292857 
L 203.504609 -99.886754 
L 204.399198 -99.486405 
L 205.293788 -99.091831 
L 206.188377 -98.703052 
L 207.082966 -98.32009 
L 207.977555 -97.942965 
L 208.872144 -97.571698 
L 209.766733 -97.206311 
L 210.661323 -96.846825 
L 211.555912 -96.493261 
L 212.450501 -96.145639 
L 213.34509 -95.803982 
L 214.239679 -95.468309 
L 215.134269 -95.138641 
L 216.028858 -94.815 
L 216.923447 -94.497405 
L 217.818036 -94.185878 
L 218.712625 -93.880438 
L 219.607214 -93.581106 
L 220.501804 -93.287902 
L 221.396393 -93.000844 
L 222.290982 -92.719953 
L 223.185571 -92.445247 
L 224.08016 -92.176746 
L 224.974749 -91.914469 
L 225.869339 -91.658433 
L 226.763928 -91.408657 
L 227.658517 -91.165159 
L 228.553106 -90.927957 
L 229.447695 -90.697068 
L 230.342285 -90.472508 
L 231.236874 -90.254295 
L 232.131463 -90.042445 
L 233.026052 -89.836974 
L 233.920641 -89.637898 
L 234.81523 -89.445233 
L 235.70982 -89.258994 
L 236.604409 -89.079195 
L 237.498998 -88.905851 
L 238.393587 -88.738978 
L 239.288176 -88.578587 
L 240.182766 -88.424694 
L 241.077355 -88.277311 
L 241.971944 -88.136452 
L 242.866533 -88.002129 
L 243.761122 -87.874356 
L 244.655711 -87.753143 
L 245.550301 -87.638503 
L 246.44489 -87.530447 
L 247.339479 -87.428987 
L 248.234068 -87.334134 
L 249.128657 -87.245898 
L 250.023246 -87.16429 
L 250.917836 -87.08932 
L 251.812425 -87.020997 
L 252.707014 -86.959333 
L 253.601603 -86.904334 
L 254.496192 -86.856012 
L 255.390782 -86.814374 
L 256.285371 -86.77943 
L 257.17996 -86.751187 
L 258.074549 -86.729654 
L 258.969138 -86.714838 
L 259.863727 -86.706747 
L 260.758317 -86.705388 
L 261.652906 -86.710768 
L 262.547495 -86.722895 
L 263.442084 -86.741775 
L 264.336673 -86.767414 
L 265.231263 -86.799819 
L 266.125852 -86.838995 
L 267.020441 -86.884948 
L 267.91503 -86.937685 
L 268.809619 -86.997209 
L 269.704208 -87.063527 
L 270.598798 -87.136643 
L 271.493387 -87.216563 
L 272.387976 -87.30329 
L 273.282565 -87.396829 
L 274.177154 -87.497184 
L 275.071743 -87.604359 
L 275.966333 -87.718358 
L 276.860922 -87.839185 
L 277.755511 -87.966843 
L 278.6501 -88.101336 
L 279.544689 -88.242665 
L 280.439279 -88.390836 
L 281.333868 -88.545849 
L 282.228457 -88.707708 
L 283.123046 -88.876414 
L 284.017635 -89.051972 
L 284.912224 -89.234381 
L 285.806814 -89.423645 
L 286.701403 -89.619765 
L 287.595992 -89.822743 
L 288.490581 -90.032579 
L 289.38517 -90.249276 
L 290.27976 -90.472834 
L 291.174349 -90.703255 
L 292.068938 -90.940539 
L 292.963527 -91.184686 
L 293.858116 -91.435698 
L 294.752705 -91.693574 
L 295.647295 -91.958315 
L 296.541884 -92.229921 
L 297.436473 -92.508391 
L 298.331062 -92.793726 
L 299.225651 -93.085924 
L 300.12024 -93.384985 
L 301.01483 -93.690909 
L 301.909419 -94.003694 
L 302.804008 -94.323339 
L 303.698597 -94.649844 
L 304.593186 -94.983206 
L 305.487776 -95.323424 
L 306.382365 -95.670496 
L 307.276954 -96.024421 
L 308.171543 -96.385196 
L 309.066132 -96.752819 
L 309.960721 -97.127288 
L 310.855311 -97.5086 
L 311.7499 -97.896752 
L 312.644489 -98.291742 
L 313.539078 -98.693566 
L 314.433667 -99.102221 
L 315.328257 -99.517703 
L 316.222846 -99.94001 
L 317.117435 -100.369137 
L 318.012024 -100.80508 
L 318.906613 -101.247835 
L 319.801202 -101.697397 
L 320.695792 -102.153763 
L 321.590381 -102.616927 
L 322.48497 -103.086885 
L 323.379559 -103.56363 
L 324.274148 -104.047159 
L 325.168737 -104.537465 
L 326.063327 -105.034542 
L 326.957916 -105.538385 
L 327.852505 -106.048987 
L 328.747094 -106.566342 
L 329.641683 -107.090443 
L 330.536273 -107.621284 
L 331.430862 -108.158857 
L 332.325451 -108.703155 
L 333.22004 -109.254171 
L 334.114629 -109.811895 
L 335.009218 -110.376322 
L 335.903808 -110.947441 
L 336.798397 -111.525246 
L 337.692986 -112.109726 
L 338.587575 -112.700873 
L 339.482164 -113.298677 
L 340.376754 -113.903129 
L 341.271343 -114.514219 
L 342.165932 -115.131937 
L 343.060521 -115.756272 
L 343.95511 -116.387214 
L 344.849699 -117.024752 
L 345.744289 -117.668874 
L 346.638878 -118.319568 
L 347.533467 -118.976824 
L 348.428056 -119.640629 
L 349.322645 -120.31097 
L 350.217234 -120.987835 
L 351.111824 -121.67121 
L 352.006413 -122.361082 
L 352.901002 -123.057438 
L 353.795591 -123.760264 
L 354.69018 -124.469544 
L 355.58477 -125.185266 
L 356.479359 -125.907413 
L 357.373948 -126.63597 
L 358.268537 -127.370923 
L 359.163126 -128.112255 
L 360.057715 -128.85995 
L 360.952305 -129.613992 
L 361.846894 -130.374363 
L 362.741483 -131.141047 
L 363.636072 -131.914027 
L 364.530661 -132.693285 
L 365.425251 -133.478802 
L 366.31984 -134.270562 
L 367.214429 -135.068545 
L 368.109018 -135.872732 
L 369.003607 -136.683105 
L 369.898196 -137.499645 
L 370.792786 -138.322332 
L 371.687375 -139.151146 
L 372.581964 -139.986068 
L 373.476553 -140.827077 
L 374.371142 -141.674153 
L 375.265731 -142.527276 
L 376.160321 -143.386426 
L 377.05491 -144.251581 
L 377.949499 -145.12272 
L 378.844088 -145.999824 
L 379.738677 -146.88287 
L 380.633267 -147.771838 
L 381.527856 -148.666707 
L 382.422445 -149.567455 
L 383.317034 -150.474062 
L 384.211623 -151.386507 
L 385.106212 -152.304767 
L 386.000802 -153.228823 
L 386.895391 -154.158654 
L 387.78998 -155.094239 
L 388.684569 -156.035557 
L 389.579158 -156.982588 
L 390.473747 -157.935313 
L 391.368337 -158.89371 
L 392.262926 -159.85776 
L 393.157515 -160.827445 
L 394.052104 -161.802744 
L 394.946693 -162.78364 
L 395.841283 -163.770114 
L 396.735872 -164.762148 
L 397.630461 -165.759724 
L 398.52505 -166.762825 
L 399.419639 -167.771435 
L 400.314228 -168.785538 
L 401.208818 -169.805118 
L 402.103407 -170.830159 
L 402.997996 -171.860648 
L 403.892585 -172.896569 
L 404.787174 -173.937911 
L 405.681764 -174.984659 
L 406.576353 -176.036801 
L 407.470942 -177.094327 
L 408.365531 -178.157224 
L 409.26012 -179.225482 
L 410.154709 -180.299091 
L 411.049299 -181.378043 
L 411.943888 -182.462329 
L 412.838477 -183.55194 
L 413.733066 -184.646869 
L 414.627655 -185.74711 
L 415.522244 -186.852657 
L 416.416834 -187.963504 
L 417.311423 -189.079646 
L 418.206012 -190.20108 
L 419.100601 -191.327801 
L 419.99519 -192.459806 
L 420.88978 -193.597093 
L 421.784369 -194.739661 
L 422.678958 -195.887507 
L 423.573547 -197.040631 
L 424.468136 -198.199032 
L 425.362725 -199.362711 
L 426.257315 -200.531668 
L 427.151904 -201.705904 
L 428.046493 -202.885421 
L 428.941082 -204.070221 
L 429.835671 -205.260306 
L 430.730261 -206.455678 
L 431.62485 -207.656342 
L 432.519439 -208.8623 
L 433.414028 -210.073556 
L 434.308617 -211.290114 
L 435.203206 -212.511979 
L 436.097796 -213.739155 
L 436.992385 -214.971647 
L 437.886974 -216.20946 
L 438.781563 -217.4526 
L 439.676152 -218.701072 
L 440.570741 -219.954881 
L 441.465331 -221.214035 
L 442.35992 -222.478538 
L 443.254509 -223.748397 
L 444.149098 -225.023619 
L 445.043687 -226.304209 
L 445.938277 -227.590174 
L 446.832866 -228.881522 
L 447.727455 -230.178258 
L 448.622044 -231.480389 
L 449.516633 -232.787922 
L 450.411222 -234.100864 
L 451.305812 -235.419222 
L 452.200401 -236.743003 
L 453.09499 -238.072213 
L 453.989579 -239.406859 
L 454.884168 -240.746949 
L 455.778758 -242.092489 
L 456.673347 -243.443485 
L 457.567936 -244.799946 
L 458.462525 -246.161877 
L 459.357114 -247.529285 
L 460.251703 -248.902178 
L 461.146293 -250.280561 
L 462.040882 -251.664441 
L 462.935471 -253.053825 
L 463.83006 -254.448719 
L 464.724649 -255.849129 
L 465.619238 -257.255063 
L 466.513828 -258.666526 
L 467.408417 -260.083524 
L 468.303006 -261.506064 
L 469.197595 -262.934151 
L 470.092184 -264.367792 
L 470.986774 -265.806992 
L 471.881363 -267.251758 
L 472.775952 -268.702094 
L 473.670541 -270.158007 
L 474.56513 -271.619502 
L 475.459719 -273.086585 
L 476.354309 -274.55926 
L 477.248898 -276.037534 
L 478.143487 -277.521412 
L 479.038076 -279.010897 
L 479.932665 -280.505997 
L 480.827255 -282.006715 
L 481.721844 -283.513056 
L 482.616433 -285.025026 
L 483.511022 -286.542628 
L 484.405611 -288.065868 
L 485.3002 -289.59475 
L 486.19479 -291.129278 
L 487.089379 -292.669458 
L 487.983968 -294.215292 
L 488.878557 -295.766786 
L 489.773146 -297.323944 
L 490.667735 -298.886769 
L 491.562325 -300.455265 
L 492.456914 -302.029437 
L 493.351503 -303.609288 
L 494.246092 -305.194823 
L 495.140681 -306.786044 
L 496.035271 -308.382955 
L 496.92986 -309.98556 
L 497.824449 -311.593863 
L 498.719038 -313.207866 
L 499.613627 -314.827574 
L 500.508216 -316.452989 
L 501.402806 -318.084115 
L 502.297395 -319.720954 
L 503.191984 -321.36351 
L 504.086573 -323.011786 
L 504.981162 -324.665785 
L 505.875752 -326.32551 
L 506.770341 -327.990963 
L 507.66493 -329.662148 
L 508.559519 -331.339067 
L 509.454108 -333.021722 
L 510.348697 -334.710117 
L 511.243287 -336.404255 
L 512.137876 -338.104136 
L 513.032465 -339.809765 
L 513.927054 -341.521143 
L 514.821643 -343.238274 
L 515.716232 -344.961158 
L 516.610822 -346.689799 
L 517.505411 -348.424198 
L 518.4 -350.164359 
L 518.4 -350.164359 
L 518.4 -388.017469 
L 517.505411 -385.960205 
L 516.610822 -383.910304 
L 515.716232 -381.867769 
L 514.821643 -379.832602 
L 513.927054 -377.804804 
L 513.032465 -375.78438 
L 512.137876 -373.771329 
L 511.243287 -371.765656 
L 510.348697 -369.767363 
L 509.454108 -367.776452 
L 508.559519 -365.792926 
L 507.66493 -363.816787 
L 506.770341 -361.848039 
L 505.875752 -359.886683 
L 504.981162 -357.932723 
L 504.086573 -355.986161 
L 503.191984 -354.047001 
L 502.297395 -352.115245 
L 501.402806 -350.190897 
L 500.508216 -348.273959 
L 499.613627 -346.364435 
L 498.719038 -344.462327 
L 497.824449 -342.56764 
L 496.92986 -340.680376 
L 496.035271 -338.800539 
L 495.140681 -336.928133 
L 494.246092 -335.06316 
L 493.351503 -333.205626 
L 492.456914 -331.355532 
L 491.562325 -329.512883 
L 490.667735 -327.677683 
L 489.773146 -325.849936 
L 488.878557 -324.029645 
L 487.983968 -322.216815 
L 487.089379 -320.41145 
L 486.19479 -318.613554 
L 485.3002 -316.823132 
L 484.405611 -315.040187 
L 483.511022 -313.264725 
L 482.616433 -311.496749 
L 481.721844 -309.736265 
L 480.827255 -307.983277 
L 479.932665 -306.237789 
L 479.038076 -304.499808 
L 478.143487 -302.769337 
L 477.248898 -301.046381 
L 476.354309 -299.330947 
L 475.459719 -297.623038 
L 474.56513 -295.922661 
L 473.670541 -294.229821 
L 472.775952 -292.544523 
L 471.881363 -290.866772 
L 470.986774 -289.196575 
L 470.092184 -287.533937 
L 469.197595 -285.878864 
L 468.303006 -284.231361 
L 467.408417 -282.591436 
L 466.513828 -280.959092 
L 465.619238 -279.334338 
L 464.724649 -277.717179 
L 463.83006 -276.107621 
L 462.935471 -274.505671 
L 462.040882 -272.911335 
L 461.146293 -271.32462 
L 460.251703 -269.745531 
L 459.357114 -268.174076 
L 458.462525 -266.610262 
L 457.567936 -265.054094 
L 456.673347 -263.50558 
L 455.778758 -261.964727 
L 454.884168 -260.431541 
L 453.989579 -258.906029 
L 453.09499 -257.388198 
L 452.200401 -255.878055 
L 451.305812 -254.375607 
L 450.411222 -252.88086 
L 449.516633 -251.393822 
L 448.622044 -249.9145 
L 447.727455 -248.442899 
L 446.832866 -246.979028 
L 445.938277 -245.522892 
L 445.043687 -244.074499 
L 444.149098 -242.633854 
L 443.254509 -241.200965 
L 442.35992 -239.775838 
L 441.465331 -238.35848 
L 440.570741 -236.948896 
L 439.676152 -235.547092 
L 438.781563 -234.153075 
L 437.886974 -232.76685 
L 436.992385 -231.388423 
L 436.097796 -230.017798 
L 435.203206 -228.654982 
L 434.308617 -227.299979 
L 433.414028 -225.952794 
L 432.519439 -224.613431 
L 431.62485 -223.281894 
L 430.730261 -221.958187 
L 429.835671 -220.642313 
L 428.941082 -219.334276 
L 428.046493 -218.034078 
L 427.151904 -216.741722 
L 426.257315 -215.457209 
L 425.362725 -214.180541 
L 424.468136 -212.911719 
L 423.573547 -211.650744 
L 422.678958 -210.397615 
L 421.784369 -209.152333 
L 420.88978 -207.914897 
L 419.99519 -206.685305 
L 419.100601 -205.463555 
L 418.206012 -204.249645 
L 417.311423 -203.043572 
L 416.416834 -201.845332 
L 415.522244 -200.654921 
L 414.627655 -199.472334 
L 413.733066 -198.297566 
L 412.838477 -197.13061 
L 411.943888 -195.97146 
L 411.049299 -194.820109 
L 410.154709 -193.676548 
L 409.26012 -192.540769 
L 408.365531 -191.412764 
L 407.470942 -190.292521 
L 406.576353 -189.180031 
L 405.681764 -188.075282 
L 404.787174 -186.978264 
L 403.892585 -185.888962 
L 402.997996 -184.807366 
L 402.103407 -183.73346 
L 401.208818 -182.667232 
L 400.314228 -181.608666 
L 399.419639 -180.557747 
L 398.52505 -179.514461 
L 397.630461 -178.478789 
L 396.735872 -177.450717 
L 395.841283 -176.430227 
L 394.946693 -175.4173 
L 394.052104 -174.411921 
L 393.157515 -173.414069 
L 392.262926 -172.423726 
L 391.368337 -171.440874 
L 390.473747 -170.465493 
L 389.579158 -169.497562 
L 388.684569 -168.537064 
L 387.78998 -167.583976 
L 386.895391 -166.638279 
L 386.000802 -165.699953 
L 385.106212 -164.768976 
L 384.211623 -163.845328 
L 383.317034 -162.928988 
L 382.422445 -162.019935 
L 381.527856 -161.118147 
L 380.633267 -160.223604 
L 379.738677 -159.336285 
L 378.844088 -158.456168 
L 377.949499 -157.583233 
L 377.05491 -156.717458 
L 376.160321 -155.858823 
L 375.265731 -155.007306 
L 374.371142 -154.162887 
L 373.476553 -153.325546 
L 372.581964 -152.495262 
L 371.687375 -151.672015 
L 370.792786 -150.855784 
L 369.898196 -150.046551 
L 369.003607 -149.244294 
L 368.109018 -148.448996 
L 367.214429 -147.660635 
L 366.31984 -146.879195 
L 365.425251 -146.104655 
L 364.530661 -145.336998 
L 363.636072 -144.576205 
L 362.741483 -143.822259 
L 361.846894 -143.075141 
L 360.952305 -142.334835 
L 360.057715 -141.601323 
L 359.163126 -140.874589 
L 358.268537 -140.154616 
L 357.373948 -139.441388 
L 356.479359 -138.734889 
L 355.58477 -138.035104 
L 354.69018 -137.342017 
L 353.795591 -136.655615 
L 352.901002 -135.975881 
L 352.006413 -135.302802 
L 351.111824 -134.636363 
L 350.217234 -133.976552 
L 349.322645 -133.323354 
L 348.428056 -132.676757 
L 347.533467 -132.036748 
L 346.638878 -131.403314 
L 345.744289 -130.776444 
L 344.849699 -130.156125 
L 343.95511 -129.542346 
L 343.060521 -128.935096 
L 342.165932 -128.334363 
L 341.271343 -127.740137 
L 340.376754 -127.152407 
L 339.482164 -126.571164 
L 338.587575 -125.996397 
L 337.692986 -125.428097 
L 336.798397 -124.866255 
L 335.903808 -124.310861 
L 335.009218 -123.761906 
L 334.114629 -123.219383 
L 333.22004 -122.683282 
L 332.325451 -122.153597 
L 331.430862 -121.630318 
L 330.536273 -121.113438 
L 329.641683 -120.60295 
L 328.747094 -120.098848 
L 327.852505 -119.601123 
L 326.957916 -119.109769 
L 326.063327 -118.624781 
L 325.168737 -118.146151 
L 324.274148 -117.673874 
L 323.379559 -117.207944 
L 322.48497 -116.748356 
L 321.590381 -116.295103 
L 320.695792 -115.848182 
L 319.801202 -115.407586 
L 318.906613 -114.973311 
L 318.012024 -114.545353 
L 317.117435 -114.123708 
L 316.222846 -113.70837 
L 315.328257 -113.299337 
L 314.433667 -112.896604 
L 313.539078 -112.500167 
L 312.644489 -112.110024 
L 311.7499 -111.72617 
L 310.855311 -111.348604 
L 309.960721 -110.977321 
L 309.066132 -110.61232 
L 308.171543 -110.253597 
L 307.276954 -109.90115 
L 306.382365 -109.554977 
L 305.487776 -109.215077 
L 304.593186 -108.881446 
L 303.698597 -108.554083 
L 302.804008 -108.232987 
L 301.909419 -107.918157 
L 301.01483 -107.60959 
L 300.12024 -107.307286 
L 299.225651 -107.011244 
L 298.331062 -106.721463 
L 297.436473 -106.437943 
L 296.541884 -106.160683 
L 295.647295 -105.889682 
L 294.752705 -105.624941 
L 293.858116 -105.36646 
L 292.963527 -105.114238 
L 292.068938 -104.868276 
L 291.174349 -104.628575 
L 290.27976 -104.395135 
L 289.38517 -104.167957 
L 288.490581 -103.947042 
L 287.595992 -103.732391 
L 286.701403 -103.524005 
L 285.806814 -103.321885 
L 284.912224 -103.126034 
L 284.017635 -102.936453 
L 283.123046 -102.753144 
L 282.228457 -102.576109 
L 281.333868 -102.40535 
L 280.439279 -102.240869 
L 279.544689 -102.08267 
L 278.6501 -101.930754 
L 277.755511 -101.785126 
L 276.860922 -101.645787 
L 275.966333 -101.512742 
L 275.071743 -101.385993 
L 274.177154 -101.265545 
L 273.282565 -101.1514 
L 272.387976 -101.043564 
L 271.493387 -100.94204 
L 270.598798 -100.846832 
L 269.704208 -100.757946 
L 268.809619 -100.675386 
L 267.91503 -100.599156 
L 267.020441 -100.529263 
L 266.125852 -100.465711 
L 265.231263 -100.408506 
L 264.336673 -100.357654 
L 263.442084 -100.31316 
L 262.547495 -100.275032 
L 261.652906 -100.243275 
L 260.758317 -100.217896 
L 259.863727 -100.198901 
L 258.969138 -100.186299 
L 258.074549 -100.180096 
L 257.17996 -100.1803 
L 256.285371 -100.186918 
L 255.390782 -100.19996 
L 254.496192 -100.219432 
L 253.601603 -100.245344 
L 252.707014 -100.277705 
L 251.812425 -100.316523 
L 250.917836 -100.361808 
L 250.023246 -100.413569 
L 249.128657 -100.471817 
L 248.234068 -100.536561 
L 247.339479 -100.607812 
L 246.44489 -100.68558 
L 245.550301 -100.769877 
L 244.655711 -100.860714 
L 243.761122 -100.958103 
L 242.866533 -101.062054 
L 241.971944 -101.172582 
L 241.077355 -101.289697 
L 240.182766 -101.413412 
L 239.288176 -101.543742 
L 238.393587 -101.680698 
L 237.498998 -101.824295 
L 236.604409 -101.974547 
L 235.70982 -102.131468 
L 234.81523 -102.295073 
L 233.920641 -102.465376 
L 233.026052 -102.642392 
L 232.131463 -102.826138 
L 231.236874 -103.01663 
L 230.342285 -103.213882 
L 229.447695 -103.417912 
L 228.553106 -103.628736 
L 227.658517 -103.846372 
L 226.763928 -104.070836 
L 225.869339 -104.302147 
L 224.974749 -104.540322 
L 224.08016 -104.78538 
L 223.185571 -105.037339 
L 222.290982 -105.296217 
L 221.396393 -105.562034 
L 220.501804 -105.834808 
L 219.607214 -106.11456 
L 218.712625 -106.401308 
L 217.818036 -106.695074 
L 216.923447 -106.995876 
L 216.028858 -107.303735 
L 215.134269 -107.618672 
L 214.239679 -107.940706 
L 213.34509 -108.26986 
L 212.450501 -108.606153 
L 211.555912 -108.949606 
L 210.661323 -109.300241 
L 209.766733 -109.658078 
L 208.872144 -110.023139 
L 207.977555 -110.395444 
L 207.082966 -110.775016 
L 206.188377 -111.161874 
L 205.293788 -111.55604 
L 204.399198 -111.957535 
L 203.504609 -112.366379 
L 202.61002 -112.782594 
L 201.715431 -113.2062 
L 200.820842 -113.637217 
L 199.926253 -114.075665 
L 199.031663 -114.521564 
L 198.137074 -114.974934 
L 197.242485 -115.435795 
L 196.347896 -115.904165 
L 195.453307 -116.380063 
L 194.558717 -116.863507 
L 193.664128 -117.354515 
L 192.769539 -117.853106 
L 191.87495 -118.359295 
L 190.980361 -118.8731 
L 190.085772 -119.394536 
L 189.191182 -119.92362 
L 188.296593 -120.460367 
L 187.402004 -121.00479 
L 186.507415 -121.556905 
L 185.612826 -122.116724 
L 184.718236 -122.684261 
L 183.823647 -123.259528 
L 182.929058 -123.842536 
L 182.034469 -124.433296 
L 181.13988 -125.03182 
L 180.245291 -125.638117 
L 179.350701 -126.252195 
L 178.456112 -126.874065 
L 177.561523 -127.503733 
L 176.666934 -128.141206 
L 175.772345 -128.786493 
L 174.877756 -129.439598 
L 173.983166 -130.100527 
L 173.088577 -130.769285 
L 172.193988 -131.445876 
L 171.299399 -132.130304 
L 170.40481 -132.822572 
L 169.51022 -133.522682 
L 168.615631 -134.230636 
L 167.721042 -134.946436 
L 166.826453 -135.670083 
L 165.931864 -136.401576 
L 165.037275 -137.140916 
L 164.142685 -137.888102 
L 163.248096 -138.643133 
L 162.353507 -139.406007 
L 161.458918 -140.176723 
L 160.564329 -140.955278 
L 159.669739 -141.74167 
L 158.77515 -142.535895 
L 157.880561 -143.33795 
L 156.985972 -144.147831 
L 156.091383 -144.965535 
L 155.196794 -145.791056 
L 154.302204 -146.62439 
L 153.407615 -147.465532 
L 152.513026 -148.314477 
L 151.618437 -149.17122 
L 150.723848 -150.035755 
L 149.829259 -150.908077 
L 148.934669 -151.788179 
L 148.04008 -152.676056 
L 147.145491 -153.571701 
L 146.250902 -154.475107 
L 145.356313 -155.38627 
L 144.461723 -156.305181 
L 143.567134 -157.231835 
L 142.672545 -158.166224 
L 141.777956 -159.108343 
L 140.883367 -160.058184 
L 139.988778 -161.01574 
L 139.094188 -161.981004 
L 138.199599 -162.953971 
L 137.30501 -163.934632 
L 136.410421 -164.922981 
L 135.515832 -165.91901 
L 134.621242 -166.922714 
L 133.726653 -167.934086 
L 132.832064 -168.953118 
L 131.937475 -169.979803 
L 131.042886 -171.014136 
L 130.148297 -172.056109 
L 129.253707 -173.105715 
L 128.359118 -174.162949 
L 127.464529 -175.227803 
L 126.56994 -176.300271 
L 125.675351 -177.380347 
L 124.780762 -178.468024 
L 123.886172 -179.563296 
L 122.991583 -180.666157 
L 122.096994 -181.776601 
L 121.202405 -182.894621 
L 120.307816 -184.020213 
L 119.413226 -185.153369 
L 118.518637 -186.294084 
L 117.624048 -187.442353 
L 116.729459 -188.598169 
L 115.83487 -189.761527 
L 114.940281 -190.932422 
L 114.045691 -192.110849 
L 113.151102 -193.296801 
L 112.256513 -194.490274 
L 111.361924 -195.691264 
L 110.467335 -196.899763 
L 109.572745 -198.115769 
L 108.678156 -199.339275 
L 107.783567 -200.570277 
L 106.888978 -201.808771 
L 105.994389 -203.054751 
L 105.0998 -204.308214 
L 104.20521 -205.569155 
L 103.310621 -206.837568 
L 102.416032 -208.113451 
L 101.521443 -209.396799 
L 100.626854 -210.687608 
L 99.732265 -211.985873 
L 98.837675 -213.291591 
L 97.943086 -214.604758 
L 97.048497 -215.92537 
L 96.153908 -217.253423 
L 95.259319 -218.588913 
L 94.364729 -219.931838 
L 93.47014 -221.282193 
L 92.575551 -222.639974 
L 91.680962 -224.00518 
L 90.786373 -225.377805 
L 89.891784 -226.757847 
L 88.997194 -228.145303 
L 88.102605 -229.54017 
L 87.208016 -230.942444 
L 86.313427 -232.352122 
L 85.418838 -233.769201 
L 84.524248 -235.19368 
L 83.629659 -236.625553 
L 82.73507 -238.06482 
L 81.840481 -239.511477 
L 80.945892 -240.965521 
L 80.051303 -242.42695 
L 79.156713 -243.895761 
L 78.262124 -245.371952 
L 77.367535 -246.85552 
L 76.472946 -248.346463 
L 75.578357 -249.844779 
L 74.683768 -251.350464 
L 73.789178 -252.863517 
L 72.894589 -254.383936 
L 72 -255.911718 
z
" id="m1a4eadbd66" style="stroke:#dfb4af;"/>
    </defs>
    <g clip-path="url(#p697040d923)">
     <use style="fill:#dfb4af;stroke:#dfb4af;" x="0" xlink:href="#m1a4eadbd66" y="360"/>
    </g>
   </g>
   <g id="matplotlib.axis_1">
    <g id="xtick_1">
     <g id="line2d_1">
      <path clip-path="url(#p697040d923)" d="M 109.2 315 
L 109.2 43.2 
" style="fill:none;stroke:#b0b0b0;stroke-dasharray:0.5,0.825;stroke-dashoffset:0;stroke-width:0.5;"/>
     </g>
     <g id="line2d_2">
      <defs>
       <path d="M 0 0 
L 0 3.5 
" id="m2d6f3ada84" style="stroke:#000000;stroke-width:0.8;"/>
      </defs>
      <g>
       <use style="stroke:#000000;stroke-width:0.8;" x="109.2" xlink:href="#m2d6f3ada84" y="315"/>
      </g>
     </g>
     <g id="text_1">
      <!-- −2 -->
      <defs>
       <path d="M 10.59375 35.5 
L 73.1875 35.5 
L 73.1875 27.203125 
L 10.59375 27.203125 
z
" id="DejaVuSans-2212"/>
       <path d="M 19.1875 8.296875 
L 53.609375 8.296875 
L 53.609375 0 
L 7.328125 0 
L 7.328125 8.296875 
Q 12.9375 14.109375 22.625 23.890625 
Q 32.328125 33.6875 34.8125 36.53125 
Q 39.546875 41.84375 41.421875 45.53125 
Q 43.3125 49.21875 43.3125 52.78125 
Q 43.3125 58.59375 39.234375 62.25 
Q 35.15625 65.921875 28.609375 65.921875 
Q 23.96875 65.921875 18.8125 64.3125 
Q 13.671875 62.703125 7.8125 59.421875 
L 7.8125 69.390625 
Q 13.765625 71.78125 18.9375 73 
Q 24.125 74.21875 28.421875 74.21875 
Q 39.75 74.21875 46.484375 68.546875 
Q 53.21875 62.890625 53.21875 53.421875 
Q 53.21875 48.921875 51.53125 44.890625 
Q 49.859375 40.875 45.40625 35.40625 
Q 44.1875 33.984375 37.640625 27.21875 
Q 31.109375 20.453125 19.1875 8.296875 
z
" id="DejaVuSans-32"/>
      </defs>
      <g transform="translate(101.828906 329.598437)scale(0.1 -0.1)">
       <use xlink:href="#DejaVuSans-2212"/>
       <use x="83.789062" xlink:href="#DejaVuSans-32"/>
      </g>
     </g>
    </g>
    <g id="xtick_2">
     <g id="line2d_3">
      <path clip-path="url(#p697040d923)" d="M 171.2 315 
L 171.2 43.2 
" style="fill:none;stroke:#b0b0b0;stroke-dasharray:0.5,0.825;stroke-dashoffset:0;stroke-width:0.5;"/>
     </g>
     <g id="line2d_4">
      <g>
       <use style="stroke:#000000;stroke-width:0.8;" x="171.2" xlink:href="#m2d6f3ada84" y="315"/>
      </g>
     </g>
     <g id="text_2">
      <!-- 0 -->
      <defs>
       <path d="M 31.78125 66.40625 
Q 24.171875 66.40625 20.328125 58.90625 
Q 16.5 51.421875 16.5 36.375 
Q 16.5 21.390625 20.328125 13.890625 
Q 24.171875 6.390625 31.78125 6.390625 
Q 39.453125 6.390625 43.28125 13.890625 
Q 47.125 21.390625 47.125 36.375 
Q 47.125 51.421875 43.28125 58.90625 
Q 39.453125 66.40625 31.78125 66.40625 
z
M 31.78125 74.21875 
Q 44.046875 74.21875 50.515625 64.515625 
Q 56.984375 54.828125 56.984375 36.375 
Q 56.984375 17.96875 50.515625 8.265625 
Q 44.046875 -1.421875 31.78125 -1.421875 
Q 19.53125 -1.421875 13.0625 8.265625 
Q 6.59375 17.96875 6.59375 36.375 
Q 6.59375 54.828125 13.0625 64.515625 
Q 19.53125 74.21875 31.78125 74.21875 
z
" id="DejaVuSans-30"/>
      </defs>
      <g transform="translate(168.01875 329.598437)scale(0.1 -0.1)">
       <use xlink:href="#DejaVuSans-30"/>
      </g>
     </g>
    </g>
    <g id="xtick_3">
     <g id="line2d_5">
      <path clip-path="url(#p697040d923)" d="M 233.2 315 
L 233.2 43.2 
" style="fill:none;stroke:#b0b0b0;stroke-dasharray:0.5,0.825;stroke-dashoffset:0;stroke-width:0.5;"/>
     </g>
     <g id="line2d_6">
      <g>
       <use style="stroke:#000000;stroke-width:0.8;" x="233.2" xlink:href="#m2d6f3ada84" y="315"/>
      </g>
     </g>
     <g id="text_3">
      <!-- 2 -->
      <g transform="translate(230.01875 329.598437)scale(0.1 -0.1)">
       <use xlink:href="#DejaVuSans-32"/>
      </g>
     </g>
    </g>
    <g id="xtick_4">
     <g id="line2d_7">
      <path clip-path="url(#p697040d923)" d="M 295.2 315 
L 295.2 43.2 
" style="fill:none;stroke:#b0b0b0;stroke-dasharray:0.5,0.825;stroke-dashoffset:0;stroke-width:0.5;"/>
     </g>
     <g id="line2d_8">
      <g>
       <use style="stroke:#000000;stroke-width:0.8;" x="295.2" xlink:href="#m2d6f3ada84" y="315"/>
      </g>
     </g>
     <g id="text_4">
      <!-- 4 -->
      <defs>
       <path d="M 37.796875 64.3125 
L 12.890625 25.390625 
L 37.796875 25.390625 
z
M 35.203125 72.90625 
L 47.609375 72.90625 
L 47.609375 25.390625 
L 58.015625 25.390625 
L 58.015625 17.1875 
L 47.609375 17.1875 
L 47.609375 0 
L 37.796875 0 
L 37.796875 17.1875 
L 4.890625 17.1875 
L 4.890625 26.703125 
z
" id="DejaVuSans-34"/>
      </defs>
      <g transform="translate(292.01875 329.598437)scale(0.1 -0.1)">
       <use xlink:href="#DejaVuSans-34"/>
      </g>
     </g>
    </g>
    <g id="xtick_5">
     <g id="line2d_9">
      <path clip-path="url(#p697040d923)" d="M 357.2 315 
L 357.2 43.2 
" style="fill:none;stroke:#b0b0b0;stroke-dasharray:0.5,0.825;stroke-dashoffset:0;stroke-width:0.5;"/>
     </g>
     <g id="line2d_10">
      <g>
       <use style="stroke:#000000;stroke-width:0.8;" x="357.2" xlink:href="#m2d6f3ada84" y="315"/>
      </g>
     </g>
     <g id="text_5">
      <!-- 6 -->
      <defs>
       <path d="M 33.015625 40.375 
Q 26.375 40.375 22.484375 35.828125 
Q 18.609375 31.296875 18.609375 23.390625 
Q 18.609375 15.53125 22.484375 10.953125 
Q 26.375 6.390625 33.015625 6.390625 
Q 39.65625 6.390625 43.53125 10.953125 
Q 47.40625 15.53125 47.40625 23.390625 
Q 47.40625 31.296875 43.53125 35.828125 
Q 39.65625 40.375 33.015625 40.375 
z
M 52.59375 71.296875 
L 52.59375 62.3125 
Q 48.875 64.0625 45.09375 64.984375 
Q 41.3125 65.921875 37.59375 65.921875 
Q 27.828125 65.921875 22.671875 59.328125 
Q 17.53125 52.734375 16.796875 39.40625 
Q 19.671875 43.65625 24.015625 45.921875 
Q 28.375 48.1875 33.59375 48.1875 
Q 44.578125 48.1875 50.953125 41.515625 
Q 57.328125 34.859375 57.328125 23.390625 
Q 57.328125 12.15625 50.6875 5.359375 
Q 44.046875 -1.421875 33.015625 -1.421875 
Q 20.359375 -1.421875 13.671875 8.265625 
Q 6.984375 17.96875 6.984375 36.375 
Q 6.984375 53.65625 15.1875 63.9375 
Q 23.390625 74.21875 37.203125 74.21875 
Q 40.921875 74.21875 44.703125 73.484375 
Q 48.484375 72.75 52.59375 71.296875 
z
" id="DejaVuSans-36"/>
      </defs>
      <g transform="translate(354.01875 329.598437)scale(0.1 -0.1)">
       <use xlink:href="#DejaVuSans-36"/>
      </g>
     </g>
    </g>
    <g id="xtick_6">
     <g id="line2d_11">
      <path clip-path="url(#p697040d923)" d="M 419.2 315 
L 419.2 43.2 
" style="fill:none;stroke:#b0b0b0;stroke-dasharray:0.5,0.825;stroke-dashoffset:0;stroke-width:0.5;"/>
     </g>
     <g id="line2d_12">
      <g>
       <use style="stroke:#000000;stroke-width:0.8;" x="419.2" xlink:href="#m2d6f3ada84" y="315"/>
      </g>
     </g>
     <g id="text_6">
      <!-- 8 -->
      <defs>
       <path d="M 31.78125 34.625 
Q 24.75 34.625 20.71875 30.859375 
Q 16.703125 27.09375 16.703125 20.515625 
Q 16.703125 13.921875 20.71875 10.15625 
Q 24.75 6.390625 31.78125 6.390625 
Q 38.8125 6.390625 42.859375 10.171875 
Q 46.921875 13.96875 46.921875 20.515625 
Q 46.921875 27.09375 42.890625 30.859375 
Q 38.875 34.625 31.78125 34.625 
z
M 21.921875 38.8125 
Q 15.578125 40.375 12.03125 44.71875 
Q 8.5 49.078125 8.5 55.328125 
Q 8.5 64.0625 14.71875 69.140625 
Q 20.953125 74.21875 31.78125 74.21875 
Q 42.671875 74.21875 48.875 69.140625 
Q 55.078125 64.0625 55.078125 55.328125 
Q 55.078125 49.078125 51.53125 44.71875 
Q 48 40.375 41.703125 38.8125 
Q 48.828125 37.15625 52.796875 32.3125 
Q 56.78125 27.484375 56.78125 20.515625 
Q 56.78125 9.90625 50.3125 4.234375 
Q 43.84375 -1.421875 31.78125 -1.421875 
Q 19.734375 -1.421875 13.25 4.234375 
Q 6.78125 9.90625 6.78125 20.515625 
Q 6.78125 27.484375 10.78125 32.3125 
Q 14.796875 37.15625 21.921875 38.8125 
z
M 18.3125 54.390625 
Q 18.3125 48.734375 21.84375 45.5625 
Q 25.390625 42.390625 31.78125 42.390625 
Q 38.140625 42.390625 41.71875 45.5625 
Q 45.3125 48.734375 45.3125 54.390625 
Q 45.3125 60.0625 41.71875 63.234375 
Q 38.140625 66.40625 31.78125 66.40625 
Q 25.390625 66.40625 21.84375 63.234375 
Q 18.3125 60.0625 18.3125 54.390625 
z
" id="DejaVuSans-38"/>
      </defs>
      <g transform="translate(416.01875 329.598437)scale(0.1 -0.1)">
       <use xlink:href="#DejaVuSans-38"/>
      </g>
     </g>
    </g>
    <g id="xtick_7">
     <g id="line2d_13">
      <path clip-path="url(#p697040d923)" d="M 481.2 315 
L 481.2 43.2 
" style="fill:none;stroke:#b0b0b0;stroke-dasharray:0.5,0.825;stroke-dashoffset:0;stroke-width:0.5;"/>
     </g>
     <g id="line2d_14">
      <g>
       <use style="stroke:#000000;stroke-width:0.8;" x="481.2" xlink:href="#m2d6f3ada84" y="315"/>
      </g>
     </g>
     <g id="text_7">
      <!-- 10 -->
      <defs>
       <path d="M 12.40625 8.296875 
L 28.515625 8.296875 
L 28.515625 63.921875 
L 10.984375 60.40625 
L 10.984375 69.390625 
L 28.421875 72.90625 
L 38.28125 72.90625 
L 38.28125 8.296875 
L 54.390625 8.296875 
L 54.390625 0 
L 12.40625 0 
z
" id="DejaVuSans-31"/>
      </defs>
      <g transform="translate(474.8375 329.598437)scale(0.1 -0.1)">
       <use xlink:href="#DejaVuSans-31"/>
       <use x="63.623047" xlink:href="#DejaVuSans-30"/>
      </g>
     </g>
    </g>
   </g>
   <g id="matplotlib.axis_2">
    <g id="ytick_1">
     <g id="line2d_15">
      <path clip-path="url(#p697040d923)" d="M 72 310.006938 
L 518.4 310.006938 
" style="fill:none;stroke:#b0b0b0;stroke-dasharray:0.5,0.825;stroke-dashoffset:0;stroke-width:0.5;"/>
     </g>
     <g id="line2d_16">
      <defs>
       <path d="M 0 0 
L -3.5 0 
" id="m0fd00906ba" style="stroke:#000000;stroke-width:0.8;"/>
      </defs>
      <g>
       <use style="stroke:#000000;stroke-width:0.8;" x="72" xlink:href="#m0fd00906ba" y="310.006938"/>
      </g>
     </g>
     <g id="text_8">
      <!-- −2 -->
      <g transform="translate(50.257812 313.806157)scale(0.1 -0.1)">
       <use xlink:href="#DejaVuSans-2212"/>
       <use x="83.789062" xlink:href="#DejaVuSans-32"/>
      </g>
     </g>
    </g>
    <g id="ytick_2">
     <g id="line2d_17">
      <path clip-path="url(#p697040d923)" d="M 72 274.385187 
L 518.4 274.385187 
" style="fill:none;stroke:#b0b0b0;stroke-dasharray:0.5,0.825;stroke-dashoffset:0;stroke-width:0.5;"/>
     </g>
     <g id="line2d_18">
      <g>
       <use style="stroke:#000000;stroke-width:0.8;" x="72" xlink:href="#m0fd00906ba" y="274.385187"/>
      </g>
     </g>
     <g id="text_9">
      <!-- −1 -->
      <g transform="translate(50.257812 278.184405)scale(0.1 -0.1)">
       <use xlink:href="#DejaVuSans-2212"/>
       <use x="83.789062" xlink:href="#DejaVuSans-31"/>
      </g>
     </g>
    </g>
    <g id="ytick_3">
     <g id="line2d_19">
      <path clip-path="url(#p697040d923)" d="M 72 238.763435 
L 518.4 238.763435 
" style="fill:none;stroke:#b0b0b0;stroke-dasharray:0.5,0.825;stroke-dashoffset:0;stroke-width:0.5;"/>
     </g>
     <g id="line2d_20">
      <g>
       <use style="stroke:#000000;stroke-width:0.8;" x="72" xlink:href="#m0fd00906ba" y="238.763435"/>
      </g>
     </g>
     <g id="text_10">
      <!-- 0 -->
      <g transform="translate(58.6375 242.562654)scale(0.1 -0.1)">
       <use xlink:href="#DejaVuSans-30"/>
      </g>
     </g>
    </g>
    <g id="ytick_4">
     <g id="line2d_21">
      <path clip-path="url(#p697040d923)" d="M 72 203.141684 
L 518.4 203.141684 
" style="fill:none;stroke:#b0b0b0;stroke-dasharray:0.5,0.825;stroke-dashoffset:0;stroke-width:0.5;"/>
     </g>
     <g id="line2d_22">
      <g>
       <use style="stroke:#000000;stroke-width:0.8;" x="72" xlink:href="#m0fd00906ba" y="203.141684"/>
      </g>
     </g>
     <g id="text_11">
      <!-- 1 -->
      <g transform="translate(58.6375 206.940903)scale(0.1 -0.1)">
       <use xlink:href="#DejaVuSans-31"/>
      </g>
     </g>
    </g>
    <g id="ytick_5">
     <g id="line2d_23">
      <path clip-path="url(#p697040d923)" d="M 72 167.519933 
L 518.4 167.519933 
" style="fill:none;stroke:#b0b0b0;stroke-dasharray:0.5,0.825;stroke-dashoffset:0;stroke-width:0.5;"/>
     </g>
     <g id="line2d_24">
      <g>
       <use style="stroke:#000000;stroke-width:0.8;" x="72" xlink:href="#m0fd00906ba" y="167.519933"/>
      </g>
     </g>
     <g id="text_12">
      <!-- 2 -->
      <g transform="translate(58.6375 171.319151)scale(0.1 -0.1)">
       <use xlink:href="#DejaVuSans-32"/>
      </g>
     </g>
    </g>
    <g id="ytick_6">
     <g id="line2d_25">
      <path clip-path="url(#p697040d923)" d="M 72 131.898181 
L 518.4 131.898181 
" style="fill:none;stroke:#b0b0b0;stroke-dasharray:0.5,0.825;stroke-dashoffset:0;stroke-width:0.5;"/>
     </g>
     <g id="line2d_26">
      <g>
       <use style="stroke:#000000;stroke-width:0.8;" x="72" xlink:href="#m0fd00906ba" y="131.898181"/>
      </g>
     </g>
     <g id="text_13">
      <!-- 3 -->
      <defs>
       <path d="M 40.578125 39.3125 
Q 47.65625 37.796875 51.625 33 
Q 55.609375 28.21875 55.609375 21.1875 
Q 55.609375 10.40625 48.1875 4.484375 
Q 40.765625 -1.421875 27.09375 -1.421875 
Q 22.515625 -1.421875 17.65625 -0.515625 
Q 12.796875 0.390625 7.625 2.203125 
L 7.625 11.71875 
Q 11.71875 9.328125 16.59375 8.109375 
Q 21.484375 6.890625 26.8125 6.890625 
Q 36.078125 6.890625 40.9375 10.546875 
Q 45.796875 14.203125 45.796875 21.1875 
Q 45.796875 27.640625 41.28125 31.265625 
Q 36.765625 34.90625 28.71875 34.90625 
L 20.21875 34.90625 
L 20.21875 43.015625 
L 29.109375 43.015625 
Q 36.375 43.015625 40.234375 45.921875 
Q 44.09375 48.828125 44.09375 54.296875 
Q 44.09375 59.90625 40.109375 62.90625 
Q 36.140625 65.921875 28.71875 65.921875 
Q 24.65625 65.921875 20.015625 65.03125 
Q 15.375 64.15625 9.8125 62.3125 
L 9.8125 71.09375 
Q 15.4375 72.65625 20.34375 73.4375 
Q 25.25 74.21875 29.59375 74.21875 
Q 40.828125 74.21875 47.359375 69.109375 
Q 53.90625 64.015625 53.90625 55.328125 
Q 53.90625 49.265625 50.4375 45.09375 
Q 46.96875 40.921875 40.578125 39.3125 
z
" id="DejaVuSans-33"/>
      </defs>
      <g transform="translate(58.6375 135.6974)scale(0.1 -0.1)">
       <use xlink:href="#DejaVuSans-33"/>
      </g>
     </g>
    </g>
    <g id="ytick_7">
     <g id="line2d_27">
      <path clip-path="url(#p697040d923)" d="M 72 96.27643 
L 518.4 96.27643 
" style="fill:none;stroke:#b0b0b0;stroke-dasharray:0.5,0.825;stroke-dashoffset:0;stroke-width:0.5;"/>
     </g>
     <g id="line2d_28">
      <g>
       <use style="stroke:#000000;stroke-width:0.8;" x="72" xlink:href="#m0fd00906ba" y="96.27643"/>
      </g>
     </g>
     <g id="text_14">
      <!-- 4 -->
      <g transform="translate(58.6375 100.075649)scale(0.1 -0.1)">
       <use xlink:href="#DejaVuSans-34"/>
      </g>
     </g>
    </g>
    <g id="ytick_8">
     <g id="line2d_29">
      <path clip-path="url(#p697040d923)" d="M 72 60.654679 
L 518.4 60.654679 
" style="fill:none;stroke:#b0b0b0;stroke-dasharray:0.5,0.825;stroke-dashoffset:0;stroke-width:0.5;"/>
     </g>
     <g id="line2d_30">
      <g>
       <use style="stroke:#000000;stroke-width:0.8;" x="72" xlink:href="#m0fd00906ba" y="60.654679"/>
      </g>
     </g>
     <g id="text_15">
      <!-- 5 -->
      <defs>
       <path d="M 10.796875 72.90625 
L 49.515625 72.90625 
L 49.515625 64.59375 
L 19.828125 64.59375 
L 19.828125 46.734375 
Q 21.96875 47.46875 24.109375 47.828125 
Q 26.265625 48.1875 28.421875 48.1875 
Q 40.625 48.1875 47.75 41.5 
Q 54.890625 34.8125 54.890625 23.390625 
Q 54.890625 11.625 47.5625 5.09375 
Q 40.234375 -1.421875 26.90625 -1.421875 
Q 22.3125 -1.421875 17.546875 -0.640625 
Q 12.796875 0.140625 7.71875 1.703125 
L 7.71875 11.625 
Q 12.109375 9.234375 16.796875 8.0625 
Q 21.484375 6.890625 26.703125 6.890625 
Q 35.15625 6.890625 40.078125 11.328125 
Q 45.015625 15.765625 45.015625 23.390625 
Q 45.015625 31 40.078125 35.4375 
Q 35.15625 39.890625 26.703125 39.890625 
Q 22.75 39.890625 18.8125 39.015625 
Q 14.890625 38.140625 10.796875 36.28125 
z
" id="DejaVuSans-35"/>
      </defs>
      <g transform="translate(58.6375 64.453898)scale(0.1 -0.1)">
       <use xlink:href="#DejaVuSans-35"/>
      </g>
     </g>
    </g>
   </g>
   <g id="line2d_31">
    <path clip-path="url(#p697040d923)" d="M 72 123.014833 
L 79.156713 133.784936 
L 86.313427 144.135062 
L 93.47014 154.065212 
L 100.626854 163.575385 
L 106.888978 171.552275 
L 113.151102 179.20762 
L 119.413226 186.54142 
L 125.675351 193.553676 
L 131.937475 200.244387 
L 138.199599 206.613554 
L 144.461723 212.661176 
L 150.723848 218.387254 
L 156.985972 223.791787 
L 163.248096 228.874775 
L 169.51022 233.636219 
L 174.877756 237.461534 
L 180.245291 241.050611 
L 185.612826 244.403452 
L 190.980361 247.520056 
L 196.347896 250.400423 
L 201.715431 253.044554 
L 207.082966 255.452447 
L 212.450501 257.624104 
L 217.818036 259.559524 
L 223.185571 261.258707 
L 228.553106 262.721653 
L 233.920641 263.948363 
L 239.288176 264.938836 
L 244.655711 265.693072 
L 250.023246 266.211071 
L 255.390782 266.492833 
L 260.758317 266.538358 
L 266.125852 266.347647 
L 271.493387 265.920699 
L 276.860922 265.257514 
L 282.228457 264.358092 
L 287.595992 263.222433 
L 292.963527 261.850538 
L 298.331062 260.242406 
L 303.698597 258.398036 
L 309.066132 256.317431 
L 314.433667 254.000588 
L 319.801202 251.447508 
L 325.168737 248.658192 
L 330.536273 245.632639 
L 335.903808 242.370849 
L 341.271343 238.872822 
L 346.638878 235.138559 
L 352.006413 231.168058 
L 358.268537 226.237231 
L 364.530661 220.984859 
L 370.792786 215.410942 
L 377.05491 209.515481 
L 383.317034 203.298475 
L 389.579158 196.759925 
L 395.841283 189.89983 
L 402.103407 182.71819 
L 408.365531 175.215006 
L 414.627655 167.390278 
L 420.88978 159.244005 
L 428.046493 149.54025 
L 435.203206 139.416519 
L 442.35992 128.872812 
L 449.516633 117.909128 
L 456.673347 106.525467 
L 463.83006 94.72183 
L 470.986774 82.498216 
L 478.143487 69.854626 
L 485.3002 56.791059 
L 492.456914 43.307516 
L 500.508216 27.636526 
L 508.559519 11.434004 
L 514.565832 -1 
L 514.565832 -1 
" style="fill:none;stroke:#a52a2a;stroke-linecap:square;stroke-width:1.5;"/>
   </g>
   <g id="line2d_32">
    <defs>
     <path d="M 0 3.5 
C 0.928211 3.5 1.81853 3.131218 2.474874 2.474874 
C 3.131218 1.81853 3.5 0.928211 3.5 0 
C 3.5 -0.928211 3.131218 -1.81853 2.474874 -2.474874 
C 1.81853 -3.131218 0.928211 -3.5 0 -3.5 
C -0.928211 -3.5 -1.81853 -3.131218 -2.474874 -2.474874 
C -3.131218 -1.81853 -3.5 -0.928211 -3.5 0 
C -3.5 0.928211 -3.131218 1.81853 -2.474874 2.474874 
C -1.81853 3.131218 -0.928211 3.5 0 3.5 
z
" id="m4ce0558e3f" style="stroke:#a52a2a;stroke-width:0.8;"/>
    </defs>
    <g clip-path="url(#p697040d923)">
     <use style="fill:#59c48c;stroke:#a52a2a;stroke-width:0.8;" x="109.2" xlink:href="#m4ce0558e3f" y="180.04607"/>
     <use style="fill:#59c48c;stroke:#a52a2a;stroke-width:0.8;" x="122.027586" xlink:href="#m4ce0558e3f" y="204.011691"/>
     <use style="fill:#59c48c;stroke:#a52a2a;stroke-width:0.8;" x="134.855172" xlink:href="#m4ce0558e3f" y="201.449417"/>
     <use style="fill:#59c48c;stroke:#a52a2a;stroke-width:0.8;" x="147.682759" xlink:href="#m4ce0558e3f" y="196.07519"/>
     <use style="fill:#59c48c;stroke:#a52a2a;stroke-width:0.8;" x="160.510345" xlink:href="#m4ce0558e3f" y="236.368666"/>
     <use style="fill:#59c48c;stroke:#a52a2a;stroke-width:0.8;" x="173.337931" xlink:href="#m4ce0558e3f" y="244.145013"/>
     <use style="fill:#59c48c;stroke:#a52a2a;stroke-width:0.8;" x="186.165517" xlink:href="#m4ce0558e3f" y="218.40444"/>
     <use style="fill:#59c48c;stroke:#a52a2a;stroke-width:0.8;" x="198.993103" xlink:href="#m4ce0558e3f" y="238.199828"/>
     <use style="fill:#59c48c;stroke:#a52a2a;stroke-width:0.8;" x="211.82069" xlink:href="#m4ce0558e3f" y="264.347307"/>
     <use style="fill:#59c48c;stroke:#a52a2a;stroke-width:0.8;" x="224.648276" xlink:href="#m4ce0558e3f" y="249.219267"/>
     <use style="fill:#59c48c;stroke:#a52a2a;stroke-width:0.8;" x="237.475862" xlink:href="#m4ce0558e3f" y="268.813925"/>
     <use style="fill:#59c48c;stroke:#a52a2a;stroke-width:0.8;" x="250.303448" xlink:href="#m4ce0558e3f" y="269.312554"/>
     <use style="fill:#59c48c;stroke:#a52a2a;stroke-width:0.8;" x="263.131034" xlink:href="#m4ce0558e3f" y="255.945524"/>
     <use style="fill:#59c48c;stroke:#a52a2a;stroke-width:0.8;" x="275.958621" xlink:href="#m4ce0558e3f" y="292.35"/>
     <use style="fill:#59c48c;stroke:#a52a2a;stroke-width:0.8;" x="288.786207" xlink:href="#m4ce0558e3f" y="285.792955"/>
     <use style="fill:#59c48c;stroke:#a52a2a;stroke-width:0.8;" x="301.613793" xlink:href="#m4ce0558e3f" y="260.663481"/>
     <use style="fill:#59c48c;stroke:#a52a2a;stroke-width:0.8;" x="314.441379" xlink:href="#m4ce0558e3f" y="263.046181"/>
     <use style="fill:#59c48c;stroke:#a52a2a;stroke-width:0.8;" x="327.268966" xlink:href="#m4ce0558e3f" y="232.548011"/>
     <use style="fill:#59c48c;stroke:#a52a2a;stroke-width:0.8;" x="340.096552" xlink:href="#m4ce0558e3f" y="246.23613"/>
     <use style="fill:#59c48c;stroke:#a52a2a;stroke-width:0.8;" x="352.924138" xlink:href="#m4ce0558e3f" y="245.916321"/>
     <use style="fill:#59c48c;stroke:#a52a2a;stroke-width:0.8;" x="365.751724" xlink:href="#m4ce0558e3f" y="184.136132"/>
     <use style="fill:#59c48c;stroke:#a52a2a;stroke-width:0.8;" x="378.57931" xlink:href="#m4ce0558e3f" y="202.520694"/>
     <use style="fill:#59c48c;stroke:#a52a2a;stroke-width:0.8;" x="391.406897" xlink:href="#m4ce0558e3f" y="184.335618"/>
     <use style="fill:#59c48c;stroke:#a52a2a;stroke-width:0.8;" x="404.234483" xlink:href="#m4ce0558e3f" y="196.733437"/>
     <use style="fill:#59c48c;stroke:#a52a2a;stroke-width:0.8;" x="417.062069" xlink:href="#m4ce0558e3f" y="165.652562"/>
     <use style="fill:#59c48c;stroke:#a52a2a;stroke-width:0.8;" x="429.889655" xlink:href="#m4ce0558e3f" y="137.360341"/>
     <use style="fill:#59c48c;stroke:#a52a2a;stroke-width:0.8;" x="442.717241" xlink:href="#m4ce0558e3f" y="141.995648"/>
     <use style="fill:#59c48c;stroke:#a52a2a;stroke-width:0.8;" x="455.544828" xlink:href="#m4ce0558e3f" y="95.743543"/>
     <use style="fill:#59c48c;stroke:#a52a2a;stroke-width:0.8;" x="468.372414" xlink:href="#m4ce0558e3f" y="92.8527"/>
     <use style="fill:#59c48c;stroke:#a52a2a;stroke-width:0.8;" x="481.2" xlink:href="#m4ce0558e3f" y="65.85"/>
    </g>
   </g>
   <g id="patch_3">
    <path d="M 72 315 
L 72 43.2 
" style="fill:none;stroke:#000000;stroke-linecap:square;stroke-linejoin:miter;stroke-width:0.8;"/>
   </g>
   <g id="patch_4">
    <path d="M 518.4 315 
L 518.4 43.2 
" style="fill:none;stroke:#000000;stroke-linecap:square;stroke-linejoin:miter;stroke-width:0.8;"/>
   </g>
   <g id="patch_5">
    <path d="M 72 315 
L 518.4 315 
" style="fill:none;stroke:#000000;stroke-linecap:square;stroke-linejoin:miter;stroke-width:0.8;"/>
   </g>
   <g id="patch_6">
    <path d="M 72 43.2 
L 518.4 43.2 
" style="fill:none;stroke:#000000;stroke-linecap:square;stroke-linejoin:miter;stroke-width:0.8;"/>
   </g>
  </g>
 </g>
 <defs>
  <clipPath id="p697040d923">
   <rect height="271.8" width="446.4" x="72" y="43.2"/>
  </clipPath>
 </defs>
</svg>
