<?xml version="1.0" encoding="utf-8" standalone="no"?>
<!-- Created with matplotlib (http://matplotlib.org/) -->
<svg height="288pt" version="1.1" viewBox="0 0 432 288" width="432pt" xmlns="http://www.w3.org/2000/svg" xmlns:xlink="http://www.w3.org/1999/xlink">
 <defs>
  <style type="text/css">
*{stroke-linecap:butt;stroke-linejoin:round;stroke-miterlimit:100000;}
  </style>
 </defs>
 <g id="figure_1">
  <g id="patch_1">
   <path d="M 0 288 
L 432 288 
L 432 0 
L 0 0 
z
" style="fill:#ffffff;"/>
  </g>
  <g id="axes_1">
   <g id="patch_2">
    <path d="M 54 252 
L 388.8 252 
L 388.8 28.8 
L 54 28.8 
z
" style="fill:#ffffff;"/>
   </g>
   <g id="PathCollection_1">
    <defs>
     <path d="M 0 2.236068 
C 0.593012 2.236068 1.161816 2.000462 1.581139 1.581139 
C 2.000462 1.161816 2.236068 0.593012 2.236068 0 
C 2.236068 -0.593012 2.000462 -1.161816 1.581139 -1.581139 
C 1.161816 -2.000462 0.593012 -2.236068 0 -2.236068 
C -0.593012 -2.236068 -1.161816 -2.000462 -1.581139 -1.581139 
C -2.000462 -1.161816 -2.236068 -0.593012 -2.236068 0 
C -2.236068 0.593012 -2.000462 1.161816 -1.581139 1.581139 
C -1.161816 2.000462 -0.593012 2.236068 0 2.236068 
z
" id="m7df2a4f4ef" style="stroke:#000000;"/>
    </defs>
    <g clip-path="url(#p841397397c)">
     <use style="fill:#0000ff;stroke:#000000;" x="319.411746954" xlink:href="#m7df2a4f4ef" y="131.007929124"/>
     <use style="fill:#0000ff;stroke:#000000;" x="267.758567985" xlink:href="#m7df2a4f4ef" y="185.425486022"/>
     <use style="fill:#0000ff;stroke:#000000;" x="306.978824948" xlink:href="#m7df2a4f4ef" y="131.806373739"/>
     <use style="fill:#0000ff;stroke:#000000;" x="209.014835456" xlink:href="#m7df2a4f4ef" y="113.867555232"/>
     <use style="fill:#0000ff;stroke:#000000;" x="302.990864311" xlink:href="#m7df2a4f4ef" y="155.132630868"/>
     <use style="fill:#0000ff;stroke:#000000;" x="105.15613201" xlink:href="#m7df2a4f4ef" y="80.7208625258"/>
     <use style="fill:#0000ff;stroke:#000000;" x="193.032048614" xlink:href="#m7df2a4f4ef" y="124.970224086"/>
     <use style="fill:#0000ff;stroke:#000000;" x="89.9290613861" xlink:href="#m7df2a4f4ef" y="67.5654943798"/>
     <use style="fill:#0000ff;stroke:#000000;" x="127.395977931" xlink:href="#m7df2a4f4ef" y="100.294227786"/>
     <use style="fill:#0000ff;stroke:#000000;" x="298.110941018" xlink:href="#m7df2a4f4ef" y="193.881721127"/>
     <use style="fill:#0000ff;stroke:#000000;" x="283.246774715" xlink:href="#m7df2a4f4ef" y="212.754906462"/>
     <use style="fill:#0000ff;stroke:#000000;" x="163.12702414" xlink:href="#m7df2a4f4ef" y="83.974387939"/>
     <use style="fill:#0000ff;stroke:#000000;" x="295.673401896" xlink:href="#m7df2a4f4ef" y="190.409326677"/>
     <use style="fill:#0000ff;stroke:#000000;" x="161.346889936" xlink:href="#m7df2a4f4ef" y="113.902513391"/>
     <use style="fill:#0000ff;stroke:#000000;" x="354.054812009" xlink:href="#m7df2a4f4ef" y="96.0867615012"/>
     <use style="fill:#0000ff;stroke:#000000;" x="179.021461412" xlink:href="#m7df2a4f4ef" y="81.9960978228"/>
     <use style="fill:#0000ff;stroke:#000000;" x="170.881752676" xlink:href="#m7df2a4f4ef" y="98.8633402143"/>
     <use style="fill:#0000ff;stroke:#000000;" x="126.475121665" xlink:href="#m7df2a4f4ef" y="87.9575161254"/>
     <use style="fill:#0000ff;stroke:#000000;" x="316.058728183" xlink:href="#m7df2a4f4ef" y="102.890358113"/>
     <use style="fill:#0000ff;stroke:#000000;" x="113.364767041" xlink:href="#m7df2a4f4ef" y="96.759678263"/>
     <use style="fill:#0000ff;stroke:#000000;" x="113.827596997" xlink:href="#m7df2a4f4ef" y="137.907184969"/>
     <use style="fill:#0000ff;stroke:#000000;" x="329.487049631" xlink:href="#m7df2a4f4ef" y="104.060461163"/>
     <use style="fill:#0000ff;stroke:#000000;" x="279.507416141" xlink:href="#m7df2a4f4ef" y="197.539320367"/>
     <use style="fill:#0000ff;stroke:#000000;" x="256.654608354" xlink:href="#m7df2a4f4ef" y="175.925530992"/>
     <use style="fill:#0000ff;stroke:#000000;" x="344.706396284" xlink:href="#m7df2a4f4ef" y="104.690843961"/>
     <use style="fill:#0000ff;stroke:#000000;" x="308.296871241" xlink:href="#m7df2a4f4ef" y="151.063087135"/>
     <use style="fill:#0000ff;stroke:#000000;" x="159.941554288" xlink:href="#m7df2a4f4ef" y="107.960370793"/>
     <use style="fill:#0000ff;stroke:#000000;" x="299.328459212" xlink:href="#m7df2a4f4ef" y="190.278637391"/>
     <use style="fill:#0000ff;stroke:#000000;" x="233.966444061" xlink:href="#m7df2a4f4ef" y="159.314856599"/>
     <use style="fill:#0000ff;stroke:#000000;" x="157.596782857" xlink:href="#m7df2a4f4ef" y="108.98167714"/>
     <use style="fill:#0000ff;stroke:#000000;" x="140.484597613" xlink:href="#m7df2a4f4ef" y="122.277100184"/>
     <use style="fill:#0000ff;stroke:#000000;" x="192.938202442" xlink:href="#m7df2a4f4ef" y="110.854910518"/>
     <use style="fill:#0000ff;stroke:#000000;" x="89.030482382" xlink:href="#m7df2a4f4ef" y="68.9503070902"/>
     <use style="fill:#0000ff;stroke:#000000;" x="220.573206001" xlink:href="#m7df2a4f4ef" y="139.784574421"/>
     <use style="fill:#0000ff;stroke:#000000;" x="203.785733041" xlink:href="#m7df2a4f4ef" y="112.49377275"/>
     <use style="fill:#0000ff;stroke:#000000;" x="190.93573462" xlink:href="#m7df2a4f4ef" y="69.4134602465"/>
     <use style="fill:#0000ff;stroke:#000000;" x="260.086925139" xlink:href="#m7df2a4f4ef" y="157.025720155"/>
     <use style="fill:#0000ff;stroke:#000000;" x="266.19331587" xlink:href="#m7df2a4f4ef" y="152.314760858"/>
     <use style="fill:#0000ff;stroke:#000000;" x="186.236324783" xlink:href="#m7df2a4f4ef" y="103.190657729"/>
     <use style="fill:#0000ff;stroke:#000000;" x="334.955666941" xlink:href="#m7df2a4f4ef" y="85.6248907724"/>
     <use style="fill:#0000ff;stroke:#000000;" x="226.637048423" xlink:href="#m7df2a4f4ef" y="111.945782109"/>
     <use style="fill:#0000ff;stroke:#000000;" x="302.058368713" xlink:href="#m7df2a4f4ef" y="186.870697692"/>
     <use style="fill:#0000ff;stroke:#000000;" x="243.492430086" xlink:href="#m7df2a4f4ef" y="113.324720526"/>
     <use style="fill:#0000ff;stroke:#000000;" x="324.086331295" xlink:href="#m7df2a4f4ef" y="131.719236"/>
     <use style="fill:#0000ff;stroke:#000000;" x="358.774679763" xlink:href="#m7df2a4f4ef" y="70.0223954681"/>
     <use style="fill:#0000ff;stroke:#000000;" x="178.215638922" xlink:href="#m7df2a4f4ef" y="89.2383416547"/>
     <use style="fill:#0000ff;stroke:#000000;" x="148.338898607" xlink:href="#m7df2a4f4ef" y="89.9834150646"/>
     <use style="fill:#0000ff;stroke:#000000;" x="320.272716642" xlink:href="#m7df2a4f4ef" y="105.733278144"/>
     <use style="fill:#0000ff;stroke:#000000;" x="331.236176347" xlink:href="#m7df2a4f4ef" y="77.4067642374"/>
     <use style="fill:#0000ff;stroke:#000000;" x="327.716129815" xlink:href="#m7df2a4f4ef" y="90.3663002783"/>
     <use style="fill:#0000ff;stroke:#000000;" x="254.784363845" xlink:href="#m7df2a4f4ef" y="156.589311312"/>
     <use style="fill:#0000ff;stroke:#000000;" x="296.503286691" xlink:href="#m7df2a4f4ef" y="135.276313834"/>
     <use style="fill:#0000ff;stroke:#000000;" x="226.236487929" xlink:href="#m7df2a4f4ef" y="96.5644253913"/>
     <use style="fill:#0000ff;stroke:#000000;" x="91.5903716822" xlink:href="#m7df2a4f4ef" y="79.8942568262"/>
     <use style="fill:#0000ff;stroke:#000000;" x="232.44202799" xlink:href="#m7df2a4f4ef" y="141.391985861"/>
     <use style="fill:#0000ff;stroke:#000000;" x="124.795358052" xlink:href="#m7df2a4f4ef" y="76.9700655101"/>
     <use style="fill:#0000ff;stroke:#000000;" x="220.60883092" xlink:href="#m7df2a4f4ef" y="138.589185343"/>
     <use style="fill:#0000ff;stroke:#000000;" x="224.056841779" xlink:href="#m7df2a4f4ef" y="94.3456193798"/>
     <use style="fill:#0000ff;stroke:#000000;" x="347.959327214" xlink:href="#m7df2a4f4ef" y="141.36994212"/>
     <use style="fill:#0000ff;stroke:#000000;" x="339.993655657" xlink:href="#m7df2a4f4ef" y="136.239862909"/>
     <use style="fill:#0000ff;stroke:#000000;" x="206.201411044" xlink:href="#m7df2a4f4ef" y="86.2943226892"/>
     <use style="fill:#0000ff;stroke:#000000;" x="277.694642687" xlink:href="#m7df2a4f4ef" y="191.557706996"/>
     <use style="fill:#0000ff;stroke:#000000;" x="304.054162641" xlink:href="#m7df2a4f4ef" y="156.433419296"/>
     <use style="fill:#0000ff;stroke:#000000;" x="169.310116158" xlink:href="#m7df2a4f4ef" y="97.4379128252"/>
     <use style="fill:#0000ff;stroke:#000000;" x="258.345714664" xlink:href="#m7df2a4f4ef" y="193.215955772"/>
     <use style="fill:#0000ff;stroke:#000000;" x="238.669060725" xlink:href="#m7df2a4f4ef" y="115.289990519"/>
     <use style="fill:#0000ff;stroke:#000000;" x="270.608476243" xlink:href="#m7df2a4f4ef" y="169.297291701"/>
     <use style="fill:#0000ff;stroke:#000000;" x="212.94613723" xlink:href="#m7df2a4f4ef" y="142.369804712"/>
     <use style="fill:#0000ff;stroke:#000000;" x="202.266294374" xlink:href="#m7df2a4f4ef" y="93.9513997212"/>
     <use style="fill:#0000ff;stroke:#000000;" x="293.362352244" xlink:href="#m7df2a4f4ef" y="175.022458599"/>
     <use style="fill:#0000ff;stroke:#000000;" x="213.303412502" xlink:href="#m7df2a4f4ef" y="73.9894758646"/>
     <use style="fill:#0000ff;stroke:#000000;" x="267.583747918" xlink:href="#m7df2a4f4ef" y="210.007352904"/>
     <use style="fill:#0000ff;stroke:#000000;" x="156.794392074" xlink:href="#m7df2a4f4ef" y="137.707933081"/>
     <use style="fill:#0000ff;stroke:#000000;" x="336.360566487" xlink:href="#m7df2a4f4ef" y="101.707802528"/>
     <use style="fill:#0000ff;stroke:#000000;" x="131.367813489" xlink:href="#m7df2a4f4ef" y="138.757036606"/>
     <use style="fill:#0000ff;stroke:#000000;" x="195.216179022" xlink:href="#m7df2a4f4ef" y="126.86545291"/>
     <use style="fill:#0000ff;stroke:#000000;" x="212.671501569" xlink:href="#m7df2a4f4ef" y="87.3324512289"/>
     <use style="fill:#0000ff;stroke:#000000;" x="285.591779781" xlink:href="#m7df2a4f4ef" y="162.303184211"/>
     <use style="fill:#0000ff;stroke:#000000;" x="135.064991678" xlink:href="#m7df2a4f4ef" y="130.974162777"/>
     <use style="fill:#0000ff;stroke:#000000;" x="245.412454014" xlink:href="#m7df2a4f4ef" y="124.361287356"/>
     <use style="fill:#0000ff;stroke:#000000;" x="352.788878962" xlink:href="#m7df2a4f4ef" y="92.6607789961"/>
     <use style="fill:#0000ff;stroke:#000000;" x="307.323292202" xlink:href="#m7df2a4f4ef" y="110.250246337"/>
     <use style="fill:#0000ff;stroke:#000000;" x="261.910641814" xlink:href="#m7df2a4f4ef" y="204.126463867"/>
     <use style="fill:#0000ff;stroke:#000000;" x="307.715809061" xlink:href="#m7df2a4f4ef" y="178.667004125"/>
     <use style="fill:#0000ff;stroke:#000000;" x="186.523706735" xlink:href="#m7df2a4f4ef" y="99.9324651685"/>
     <use style="fill:#0000ff;stroke:#000000;" x="309.093285611" xlink:href="#m7df2a4f4ef" y="154.61999871"/>
     <use style="fill:#0000ff;stroke:#000000;" x="320.387437432" xlink:href="#m7df2a4f4ef" y="147.946759059"/>
     <use style="fill:#0000ff;stroke:#000000;" x="181.382973114" xlink:href="#m7df2a4f4ef" y="122.56105454"/>
     <use style="fill:#0000ff;stroke:#000000;" x="188.789127661" xlink:href="#m7df2a4f4ef" y="124.081565474"/>
     <use style="fill:#0000ff;stroke:#000000;" x="177.738733246" xlink:href="#m7df2a4f4ef" y="98.0587779023"/>
     <use style="fill:#0000ff;stroke:#000000;" x="97.4787951664" xlink:href="#m7df2a4f4ef" y="110.195561908"/>
     <use style="fill:#0000ff;stroke:#000000;" x="177.04566479" xlink:href="#m7df2a4f4ef" y="114.082859301"/>
     <use style="fill:#0000ff;stroke:#000000;" x="347.195995036" xlink:href="#m7df2a4f4ef" y="123.031736738"/>
     <use style="fill:#0000ff;stroke:#000000;" x="329.106708619" xlink:href="#m7df2a4f4ef" y="124.257893975"/>
     <use style="fill:#0000ff;stroke:#000000;" x="134.380609402" xlink:href="#m7df2a4f4ef" y="115.546297793"/>
     <use style="fill:#0000ff;stroke:#000000;" x="186.650820855" xlink:href="#m7df2a4f4ef" y="98.8346908516"/>
     <use style="fill:#0000ff;stroke:#000000;" x="309.416924547" xlink:href="#m7df2a4f4ef" y="109.45268338"/>
     <use style="fill:#0000ff;stroke:#000000;" x="224.426483827" xlink:href="#m7df2a4f4ef" y="136.484681832"/>
     <use style="fill:#0000ff;stroke:#000000;" x="105.159387298" xlink:href="#m7df2a4f4ef" y="139.775676345"/>
     <use style="fill:#0000ff;stroke:#000000;" x="125.363925039" xlink:href="#m7df2a4f4ef" y="109.254002894"/>
    </g>
   </g>
   <g id="line2d_1">
    <path clip-path="url(#p841397397c)" d="M 89.030482 103.976584 
L 91.755171 103.976584 
L 94.47986 103.976584 
L 97.204549 103.976584 
L 99.929238 103.976584 
L 102.653927 103.976584 
L 105.378616 103.976584 
L 108.103304 103.976584 
L 110.827993 103.976584 
L 113.552682 103.976584 
L 116.277371 103.976584 
L 119.00206 103.976584 
L 121.726749 103.976584 
L 124.451438 103.976585 
L 127.176126 103.976585 
L 129.900815 103.976585 
L 132.625504 103.976586 
L 135.350193 103.976588 
L 138.074882 103.976591 
L 140.799571 103.976597 
L 143.52426 103.976608 
L 146.248948 103.976629 
L 148.973637 103.976665 
L 151.698326 103.976729 
L 154.423015 103.976841 
L 157.147704 103.977034 
L 159.872393 103.977361 
L 162.597082 103.97791 
L 165.321771 103.978819 
L 168.046459 103.980305 
L 170.771148 103.9827 
L 173.495837 103.986512 
L 176.220526 103.992499 
L 178.945215 104.00178 
L 181.669904 104.015975 
L 184.394593 104.037401 
L 187.119281 104.06931 
L 189.84397 104.116199 
L 192.568659 104.18418 
L 195.293348 104.281414 
L 198.018037 104.418613 
L 200.742726 104.609575 
L 203.467415 104.871737 
L 206.192103 105.226701 
L 208.916792 105.700665 
L 211.641481 106.324692 
L 214.36617 107.134728 
L 217.090859 108.171267 
L 219.815548 109.478575 
L 222.540237 111.103375 
L 225.264926 113.092948 
L 227.989614 115.492613 
L 230.714303 118.34263 
L 233.438992 121.674627 
L 236.163681 125.507706 
L 238.88837 129.844505 
L 241.613059 134.6675 
L 244.337748 139.935916 
L 247.062436 145.583625 
L 249.787125 151.518371 
L 252.511814 157.622617 
L 255.236503 163.756207 
L 257.961192 169.760873 
L 260.685881 175.466476 
L 263.41057 180.698696 
L 266.135258 185.287697 
L 268.859947 189.077201 
L 271.584636 191.933291 
L 274.309325 193.752255 
L 277.034014 194.466838 
L 279.758703 194.050368 
L 282.483392 192.518405 
L 285.20808 189.927784 
L 287.932769 186.373107 
L 290.657458 181.981015 
L 293.382147 176.902705 
L 296.106836 171.305311 
L 298.831525 165.362839 
L 301.556214 159.247329 
L 304.280903 153.120861 
L 307.005591 147.128892 
L 309.73028 141.395272 
L 312.454969 136.019095 
L 315.179658 131.073381 
L 317.904347 126.605452 
L 320.629036 122.638712 
L 323.353725 119.175511 
L 326.078413 116.200719 
L 328.803102 113.685636 
L 331.527791 111.591918 
L 334.25248 109.87526 
L 336.977169 108.48863 
L 339.701858 107.384948 
L 342.426547 106.519148 
L 345.151235 105.849642 
L 347.875924 105.339233 
L 350.600613 104.955556 
L 353.325302 104.671145 
L 356.049991 104.463219 
L 358.77468 104.313289 
" style="fill:none;stroke:#008000;stroke-linecap:square;"/>
   </g>
   <g id="patch_3">
    <path d="M 54 252 
L 54 28.8 
" style="fill:none;stroke:#000000;stroke-linecap:square;stroke-linejoin:miter;"/>
   </g>
   <g id="patch_4">
    <path d="M 388.8 252 
L 388.8 28.8 
" style="fill:none;stroke:#000000;stroke-linecap:square;stroke-linejoin:miter;"/>
   </g>
   <g id="patch_5">
    <path d="M 54 252 
L 388.8 252 
" style="fill:none;stroke:#000000;stroke-linecap:square;stroke-linejoin:miter;"/>
   </g>
   <g id="patch_6">
    <path d="M 54 28.8 
L 388.8 28.8 
" style="fill:none;stroke:#000000;stroke-linecap:square;stroke-linejoin:miter;"/>
   </g>
   <g id="matplotlib.axis_1">
    <g id="xtick_1">
     <g id="line2d_2">
      <defs>
       <path d="M 0 0 
L 0 -4 
" id="mc5d3ae63fd" style="stroke:#000000;stroke-width:0.5;"/>
      </defs>
      <g>
       <use style="stroke:#000000;stroke-width:0.5;" x="54.0" xlink:href="#mc5d3ae63fd" y="252.0"/>
      </g>
     </g>
     <g id="line2d_3">
      <defs>
       <path d="M 0 0 
L 0 4 
" id="m997c32293f" style="stroke:#000000;stroke-width:0.5;"/>
      </defs>
      <g>
       <use style="stroke:#000000;stroke-width:0.5;" x="54.0" xlink:href="#m997c32293f" y="28.8"/>
      </g>
     </g>
     <g id="text_1">
      <!-- −6 -->
      <defs>
       <path d="M 33.015625 40.375 
Q 26.375 40.375 22.484375 35.828125 
Q 18.609375 31.296875 18.609375 23.390625 
Q 18.609375 15.53125 22.484375 10.953125 
Q 26.375 6.390625 33.015625 6.390625 
Q 39.65625 6.390625 43.53125 10.953125 
Q 47.40625 15.53125 47.40625 23.390625 
Q 47.40625 31.296875 43.53125 35.828125 
Q 39.65625 40.375 33.015625 40.375 
M 52.59375 71.296875 
L 52.59375 62.3125 
Q 48.875 64.0625 45.09375 64.984375 
Q 41.3125 65.921875 37.59375 65.921875 
Q 27.828125 65.921875 22.671875 59.328125 
Q 17.53125 52.734375 16.796875 39.40625 
Q 19.671875 43.65625 24.015625 45.921875 
Q 28.375 48.1875 33.59375 48.1875 
Q 44.578125 48.1875 50.953125 41.515625 
Q 57.328125 34.859375 57.328125 23.390625 
Q 57.328125 12.15625 50.6875 5.359375 
Q 44.046875 -1.421875 33.015625 -1.421875 
Q 20.359375 -1.421875 13.671875 8.265625 
Q 6.984375 17.96875 6.984375 36.375 
Q 6.984375 53.65625 15.1875 63.9375 
Q 23.390625 74.21875 37.203125 74.21875 
Q 40.921875 74.21875 44.703125 73.484375 
Q 48.484375 72.75 52.59375 71.296875 
" id="BitstreamVeraSans-Roman-36"/>
       <path d="M 10.59375 35.5 
L 73.1875 35.5 
L 73.1875 27.203125 
L 10.59375 27.203125 
z
" id="BitstreamVeraSans-Roman-2212"/>
      </defs>
      <g transform="translate(46.62890625 263.5984375)scale(0.1 -0.1)">
       <use xlink:href="#BitstreamVeraSans-Roman-2212"/>
       <use x="83.7890625" xlink:href="#BitstreamVeraSans-Roman-36"/>
      </g>
     </g>
    </g>
    <g id="xtick_2">
     <g id="line2d_4">
      <g>
       <use style="stroke:#000000;stroke-width:0.5;" x="109.8" xlink:href="#mc5d3ae63fd" y="252.0"/>
      </g>
     </g>
     <g id="line2d_5">
      <g>
       <use style="stroke:#000000;stroke-width:0.5;" x="109.8" xlink:href="#m997c32293f" y="28.8"/>
      </g>
     </g>
     <g id="text_2">
      <!-- −4 -->
      <defs>
       <path d="M 37.796875 64.3125 
L 12.890625 25.390625 
L 37.796875 25.390625 
z
M 35.203125 72.90625 
L 47.609375 72.90625 
L 47.609375 25.390625 
L 58.015625 25.390625 
L 58.015625 17.1875 
L 47.609375 17.1875 
L 47.609375 0 
L 37.796875 0 
L 37.796875 17.1875 
L 4.890625 17.1875 
L 4.890625 26.703125 
z
" id="BitstreamVeraSans-Roman-34"/>
      </defs>
      <g transform="translate(102.42890625 263.5984375)scale(0.1 -0.1)">
       <use xlink:href="#BitstreamVeraSans-Roman-2212"/>
       <use x="83.7890625" xlink:href="#BitstreamVeraSans-Roman-34"/>
      </g>
     </g>
    </g>
    <g id="xtick_3">
     <g id="line2d_6">
      <g>
       <use style="stroke:#000000;stroke-width:0.5;" x="165.6" xlink:href="#mc5d3ae63fd" y="252.0"/>
      </g>
     </g>
     <g id="line2d_7">
      <g>
       <use style="stroke:#000000;stroke-width:0.5;" x="165.6" xlink:href="#m997c32293f" y="28.8"/>
      </g>
     </g>
     <g id="text_3">
      <!-- −2 -->
      <defs>
       <path d="M 19.1875 8.296875 
L 53.609375 8.296875 
L 53.609375 0 
L 7.328125 0 
L 7.328125 8.296875 
Q 12.9375 14.109375 22.625 23.890625 
Q 32.328125 33.6875 34.8125 36.53125 
Q 39.546875 41.84375 41.421875 45.53125 
Q 43.3125 49.21875 43.3125 52.78125 
Q 43.3125 58.59375 39.234375 62.25 
Q 35.15625 65.921875 28.609375 65.921875 
Q 23.96875 65.921875 18.8125 64.3125 
Q 13.671875 62.703125 7.8125 59.421875 
L 7.8125 69.390625 
Q 13.765625 71.78125 18.9375 73 
Q 24.125 74.21875 28.421875 74.21875 
Q 39.75 74.21875 46.484375 68.546875 
Q 53.21875 62.890625 53.21875 53.421875 
Q 53.21875 48.921875 51.53125 44.890625 
Q 49.859375 40.875 45.40625 35.40625 
Q 44.1875 33.984375 37.640625 27.21875 
Q 31.109375 20.453125 19.1875 8.296875 
" id="BitstreamVeraSans-Roman-32"/>
      </defs>
      <g transform="translate(158.22890625 263.5984375)scale(0.1 -0.1)">
       <use xlink:href="#BitstreamVeraSans-Roman-2212"/>
       <use x="83.7890625" xlink:href="#BitstreamVeraSans-Roman-32"/>
      </g>
     </g>
    </g>
    <g id="xtick_4">
     <g id="line2d_8">
      <g>
       <use style="stroke:#000000;stroke-width:0.5;" x="221.4" xlink:href="#mc5d3ae63fd" y="252.0"/>
      </g>
     </g>
     <g id="line2d_9">
      <g>
       <use style="stroke:#000000;stroke-width:0.5;" x="221.4" xlink:href="#m997c32293f" y="28.8"/>
      </g>
     </g>
     <g id="text_4">
      <!-- 0 -->
      <defs>
       <path d="M 31.78125 66.40625 
Q 24.171875 66.40625 20.328125 58.90625 
Q 16.5 51.421875 16.5 36.375 
Q 16.5 21.390625 20.328125 13.890625 
Q 24.171875 6.390625 31.78125 6.390625 
Q 39.453125 6.390625 43.28125 13.890625 
Q 47.125 21.390625 47.125 36.375 
Q 47.125 51.421875 43.28125 58.90625 
Q 39.453125 66.40625 31.78125 66.40625 
M 31.78125 74.21875 
Q 44.046875 74.21875 50.515625 64.515625 
Q 56.984375 54.828125 56.984375 36.375 
Q 56.984375 17.96875 50.515625 8.265625 
Q 44.046875 -1.421875 31.78125 -1.421875 
Q 19.53125 -1.421875 13.0625 8.265625 
Q 6.59375 17.96875 6.59375 36.375 
Q 6.59375 54.828125 13.0625 64.515625 
Q 19.53125 74.21875 31.78125 74.21875 
" id="BitstreamVeraSans-Roman-30"/>
      </defs>
      <g transform="translate(218.21875 263.5984375)scale(0.1 -0.1)">
       <use xlink:href="#BitstreamVeraSans-Roman-30"/>
      </g>
     </g>
    </g>
    <g id="xtick_5">
     <g id="line2d_10">
      <g>
       <use style="stroke:#000000;stroke-width:0.5;" x="277.2" xlink:href="#mc5d3ae63fd" y="252.0"/>
      </g>
     </g>
     <g id="line2d_11">
      <g>
       <use style="stroke:#000000;stroke-width:0.5;" x="277.2" xlink:href="#m997c32293f" y="28.8"/>
      </g>
     </g>
     <g id="text_5">
      <!-- 2 -->
      <g transform="translate(274.01875 263.5984375)scale(0.1 -0.1)">
       <use xlink:href="#BitstreamVeraSans-Roman-32"/>
      </g>
     </g>
    </g>
    <g id="xtick_6">
     <g id="line2d_12">
      <g>
       <use style="stroke:#000000;stroke-width:0.5;" x="333.0" xlink:href="#mc5d3ae63fd" y="252.0"/>
      </g>
     </g>
     <g id="line2d_13">
      <g>
       <use style="stroke:#000000;stroke-width:0.5;" x="333.0" xlink:href="#m997c32293f" y="28.8"/>
      </g>
     </g>
     <g id="text_6">
      <!-- 4 -->
      <g transform="translate(329.81875 263.5984375)scale(0.1 -0.1)">
       <use xlink:href="#BitstreamVeraSans-Roman-34"/>
      </g>
     </g>
    </g>
    <g id="xtick_7">
     <g id="line2d_14">
      <g>
       <use style="stroke:#000000;stroke-width:0.5;" x="388.8" xlink:href="#mc5d3ae63fd" y="252.0"/>
      </g>
     </g>
     <g id="line2d_15">
      <g>
       <use style="stroke:#000000;stroke-width:0.5;" x="388.8" xlink:href="#m997c32293f" y="28.8"/>
      </g>
     </g>
     <g id="text_7">
      <!-- 6 -->
      <g transform="translate(385.61875 263.5984375)scale(0.1 -0.1)">
       <use xlink:href="#BitstreamVeraSans-Roman-36"/>
      </g>
     </g>
    </g>
    <g id="text_8">
     <!-- x_data -->
     <defs>
      <path d="M 50.984375 -16.609375 
L 50.984375 -23.578125 
L -0.984375 -23.578125 
L -0.984375 -16.609375 
z
" id="BitstreamVeraSans-Roman-5f"/>
      <path d="M 34.28125 27.484375 
Q 23.390625 27.484375 19.1875 25 
Q 14.984375 22.515625 14.984375 16.5 
Q 14.984375 11.71875 18.140625 8.90625 
Q 21.296875 6.109375 26.703125 6.109375 
Q 34.1875 6.109375 38.703125 11.40625 
Q 43.21875 16.703125 43.21875 25.484375 
L 43.21875 27.484375 
z
M 52.203125 31.203125 
L 52.203125 0 
L 43.21875 0 
L 43.21875 8.296875 
Q 40.140625 3.328125 35.546875 0.953125 
Q 30.953125 -1.421875 24.3125 -1.421875 
Q 15.921875 -1.421875 10.953125 3.296875 
Q 6 8.015625 6 15.921875 
Q 6 25.140625 12.171875 29.828125 
Q 18.359375 34.515625 30.609375 34.515625 
L 43.21875 34.515625 
L 43.21875 35.40625 
Q 43.21875 41.609375 39.140625 45 
Q 35.0625 48.390625 27.6875 48.390625 
Q 23 48.390625 18.546875 47.265625 
Q 14.109375 46.140625 10.015625 43.890625 
L 10.015625 52.203125 
Q 14.9375 54.109375 19.578125 55.046875 
Q 24.21875 56 28.609375 56 
Q 40.484375 56 46.34375 49.84375 
Q 52.203125 43.703125 52.203125 31.203125 
" id="BitstreamVeraSans-Roman-61"/>
      <path d="M 54.890625 54.6875 
L 35.109375 28.078125 
L 55.90625 0 
L 45.3125 0 
L 29.390625 21.484375 
L 13.484375 0 
L 2.875 0 
L 24.125 28.609375 
L 4.6875 54.6875 
L 15.28125 54.6875 
L 29.78125 35.203125 
L 44.28125 54.6875 
z
" id="BitstreamVeraSans-Roman-78"/>
      <path d="M 45.40625 46.390625 
L 45.40625 75.984375 
L 54.390625 75.984375 
L 54.390625 0 
L 45.40625 0 
L 45.40625 8.203125 
Q 42.578125 3.328125 38.25 0.953125 
Q 33.9375 -1.421875 27.875 -1.421875 
Q 17.96875 -1.421875 11.734375 6.484375 
Q 5.515625 14.40625 5.515625 27.296875 
Q 5.515625 40.1875 11.734375 48.09375 
Q 17.96875 56 27.875 56 
Q 33.9375 56 38.25 53.625 
Q 42.578125 51.265625 45.40625 46.390625 
M 14.796875 27.296875 
Q 14.796875 17.390625 18.875 11.75 
Q 22.953125 6.109375 30.078125 6.109375 
Q 37.203125 6.109375 41.296875 11.75 
Q 45.40625 17.390625 45.40625 27.296875 
Q 45.40625 37.203125 41.296875 42.84375 
Q 37.203125 48.484375 30.078125 48.484375 
Q 22.953125 48.484375 18.875 42.84375 
Q 14.796875 37.203125 14.796875 27.296875 
" id="BitstreamVeraSans-Roman-64"/>
      <path d="M 18.3125 70.21875 
L 18.3125 54.6875 
L 36.8125 54.6875 
L 36.8125 47.703125 
L 18.3125 47.703125 
L 18.3125 18.015625 
Q 18.3125 11.328125 20.140625 9.421875 
Q 21.96875 7.515625 27.59375 7.515625 
L 36.8125 7.515625 
L 36.8125 0 
L 27.59375 0 
Q 17.1875 0 13.234375 3.875 
Q 9.28125 7.765625 9.28125 18.015625 
L 9.28125 47.703125 
L 2.6875 47.703125 
L 2.6875 54.6875 
L 9.28125 54.6875 
L 9.28125 70.21875 
z
" id="BitstreamVeraSans-Roman-74"/>
     </defs>
     <g transform="translate(204.678125 278.2765625)scale(0.1 -0.1)">
      <use xlink:href="#BitstreamVeraSans-Roman-78"/>
      <use x="59.1796875" xlink:href="#BitstreamVeraSans-Roman-5f"/>
      <use x="109.1796875" xlink:href="#BitstreamVeraSans-Roman-64"/>
      <use x="172.65625" xlink:href="#BitstreamVeraSans-Roman-61"/>
      <use x="233.935546875" xlink:href="#BitstreamVeraSans-Roman-74"/>
      <use x="273.14453125" xlink:href="#BitstreamVeraSans-Roman-61"/>
     </g>
    </g>
   </g>
   <g id="matplotlib.axis_2">
    <g id="ytick_1">
     <g id="line2d_16">
      <defs>
       <path d="M 0 0 
L 4 0 
" id="m4c45590834" style="stroke:#000000;stroke-width:0.5;"/>
      </defs>
      <g>
       <use style="stroke:#000000;stroke-width:0.5;" x="54.0" xlink:href="#m4c45590834" y="252.0"/>
      </g>
     </g>
     <g id="line2d_17">
      <defs>
       <path d="M 0 0 
L -4 0 
" id="m934fc5289f" style="stroke:#000000;stroke-width:0.5;"/>
      </defs>
      <g>
       <use style="stroke:#000000;stroke-width:0.5;" x="388.8" xlink:href="#m934fc5289f" y="252.0"/>
      </g>
     </g>
     <g id="text_9">
      <!-- −3 -->
      <defs>
       <path d="M 40.578125 39.3125 
Q 47.65625 37.796875 51.625 33 
Q 55.609375 28.21875 55.609375 21.1875 
Q 55.609375 10.40625 48.1875 4.484375 
Q 40.765625 -1.421875 27.09375 -1.421875 
Q 22.515625 -1.421875 17.65625 -0.515625 
Q 12.796875 0.390625 7.625 2.203125 
L 7.625 11.71875 
Q 11.71875 9.328125 16.59375 8.109375 
Q 21.484375 6.890625 26.8125 6.890625 
Q 36.078125 6.890625 40.9375 10.546875 
Q 45.796875 14.203125 45.796875 21.1875 
Q 45.796875 27.640625 41.28125 31.265625 
Q 36.765625 34.90625 28.71875 34.90625 
L 20.21875 34.90625 
L 20.21875 43.015625 
L 29.109375 43.015625 
Q 36.375 43.015625 40.234375 45.921875 
Q 44.09375 48.828125 44.09375 54.296875 
Q 44.09375 59.90625 40.109375 62.90625 
Q 36.140625 65.921875 28.71875 65.921875 
Q 24.65625 65.921875 20.015625 65.03125 
Q 15.375 64.15625 9.8125 62.3125 
L 9.8125 71.09375 
Q 15.4375 72.65625 20.34375 73.4375 
Q 25.25 74.21875 29.59375 74.21875 
Q 40.828125 74.21875 47.359375 69.109375 
Q 53.90625 64.015625 53.90625 55.328125 
Q 53.90625 49.265625 50.4375 45.09375 
Q 46.96875 40.921875 40.578125 39.3125 
" id="BitstreamVeraSans-Roman-33"/>
      </defs>
      <g transform="translate(35.2578125 254.759375)scale(0.1 -0.1)">
       <use xlink:href="#BitstreamVeraSans-Roman-2212"/>
       <use x="83.7890625" xlink:href="#BitstreamVeraSans-Roman-33"/>
      </g>
     </g>
    </g>
    <g id="ytick_2">
     <g id="line2d_18">
      <g>
       <use style="stroke:#000000;stroke-width:0.5;" x="54.0" xlink:href="#m4c45590834" y="214.8"/>
      </g>
     </g>
     <g id="line2d_19">
      <g>
       <use style="stroke:#000000;stroke-width:0.5;" x="388.8" xlink:href="#m934fc5289f" y="214.8"/>
      </g>
     </g>
     <g id="text_10">
      <!-- −2 -->
      <g transform="translate(35.2578125 217.559375)scale(0.1 -0.1)">
       <use xlink:href="#BitstreamVeraSans-Roman-2212"/>
       <use x="83.7890625" xlink:href="#BitstreamVeraSans-Roman-32"/>
      </g>
     </g>
    </g>
    <g id="ytick_3">
     <g id="line2d_20">
      <g>
       <use style="stroke:#000000;stroke-width:0.5;" x="54.0" xlink:href="#m4c45590834" y="177.6"/>
      </g>
     </g>
     <g id="line2d_21">
      <g>
       <use style="stroke:#000000;stroke-width:0.5;" x="388.8" xlink:href="#m934fc5289f" y="177.6"/>
      </g>
     </g>
     <g id="text_11">
      <!-- −1 -->
      <defs>
       <path d="M 12.40625 8.296875 
L 28.515625 8.296875 
L 28.515625 63.921875 
L 10.984375 60.40625 
L 10.984375 69.390625 
L 28.421875 72.90625 
L 38.28125 72.90625 
L 38.28125 8.296875 
L 54.390625 8.296875 
L 54.390625 0 
L 12.40625 0 
z
" id="BitstreamVeraSans-Roman-31"/>
      </defs>
      <g transform="translate(35.2578125 180.359375)scale(0.1 -0.1)">
       <use xlink:href="#BitstreamVeraSans-Roman-2212"/>
       <use x="83.7890625" xlink:href="#BitstreamVeraSans-Roman-31"/>
      </g>
     </g>
    </g>
    <g id="ytick_4">
     <g id="line2d_22">
      <g>
       <use style="stroke:#000000;stroke-width:0.5;" x="54.0" xlink:href="#m4c45590834" y="140.4"/>
      </g>
     </g>
     <g id="line2d_23">
      <g>
       <use style="stroke:#000000;stroke-width:0.5;" x="388.8" xlink:href="#m934fc5289f" y="140.4"/>
      </g>
     </g>
     <g id="text_12">
      <!-- 0 -->
      <g transform="translate(43.6375 143.159375)scale(0.1 -0.1)">
       <use xlink:href="#BitstreamVeraSans-Roman-30"/>
      </g>
     </g>
    </g>
    <g id="ytick_5">
     <g id="line2d_24">
      <g>
       <use style="stroke:#000000;stroke-width:0.5;" x="54.0" xlink:href="#m4c45590834" y="103.2"/>
      </g>
     </g>
     <g id="line2d_25">
      <g>
       <use style="stroke:#000000;stroke-width:0.5;" x="388.8" xlink:href="#m934fc5289f" y="103.2"/>
      </g>
     </g>
     <g id="text_13">
      <!-- 1 -->
      <g transform="translate(43.6375 105.959375)scale(0.1 -0.1)">
       <use xlink:href="#BitstreamVeraSans-Roman-31"/>
      </g>
     </g>
    </g>
    <g id="ytick_6">
     <g id="line2d_26">
      <g>
       <use style="stroke:#000000;stroke-width:0.5;" x="54.0" xlink:href="#m4c45590834" y="66.0"/>
      </g>
     </g>
     <g id="line2d_27">
      <g>
       <use style="stroke:#000000;stroke-width:0.5;" x="388.8" xlink:href="#m934fc5289f" y="66.0"/>
      </g>
     </g>
     <g id="text_14">
      <!-- 2 -->
      <g transform="translate(43.6375 68.759375)scale(0.1 -0.1)">
       <use xlink:href="#BitstreamVeraSans-Roman-32"/>
      </g>
     </g>
    </g>
    <g id="ytick_7">
     <g id="line2d_28">
      <g>
       <use style="stroke:#000000;stroke-width:0.5;" x="54.0" xlink:href="#m4c45590834" y="28.8"/>
      </g>
     </g>
     <g id="line2d_29">
      <g>
       <use style="stroke:#000000;stroke-width:0.5;" x="388.8" xlink:href="#m934fc5289f" y="28.8"/>
      </g>
     </g>
     <g id="text_15">
      <!-- 3 -->
      <g transform="translate(43.6375 31.559375)scale(0.1 -0.1)">
       <use xlink:href="#BitstreamVeraSans-Roman-33"/>
      </g>
     </g>
    </g>
    <g id="text_16">
     <!-- y_data -->
     <defs>
      <path d="M 32.171875 -5.078125 
Q 28.375 -14.84375 24.75 -17.8125 
Q 21.140625 -20.796875 15.09375 -20.796875 
L 7.90625 -20.796875 
L 7.90625 -13.28125 
L 13.1875 -13.28125 
Q 16.890625 -13.28125 18.9375 -11.515625 
Q 21 -9.765625 23.484375 -3.21875 
L 25.09375 0.875 
L 2.984375 54.6875 
L 12.5 54.6875 
L 29.59375 11.921875 
L 46.6875 54.6875 
L 56.203125 54.6875 
z
" id="BitstreamVeraSans-Roman-79"/>
     </defs>
     <g transform="translate(27.9 157.121875)rotate(-90.0)scale(0.1 -0.1)">
      <use xlink:href="#BitstreamVeraSans-Roman-79"/>
      <use x="59.1796875" xlink:href="#BitstreamVeraSans-Roman-5f"/>
      <use x="109.1796875" xlink:href="#BitstreamVeraSans-Roman-64"/>
      <use x="172.65625" xlink:href="#BitstreamVeraSans-Roman-61"/>
      <use x="233.935546875" xlink:href="#BitstreamVeraSans-Roman-74"/>
      <use x="273.14453125" xlink:href="#BitstreamVeraSans-Roman-61"/>
     </g>
    </g>
   </g>
  </g>
 </g>
 <defs>
  <clipPath id="p841397397c">
   <rect height="223.2" width="334.8" x="54.0" y="28.8"/>
  </clipPath>
 </defs>
</svg>
