<?xml version="1.0" encoding="utf-8" standalone="no"?>
<!-- Created with matplotlib (http://matplotlib.org/) -->
<svg height="216pt" version="1.1" viewBox="0 0 576 216" width="576pt" xmlns="http://www.w3.org/2000/svg" xmlns:xlink="http://www.w3.org/1999/xlink">
 <defs>
  <style type="text/css">
*{stroke-linecap:butt;stroke-linejoin:round;stroke-miterlimit:100000;}
  </style>
 </defs>
 <g id="figure_1">
  <g id="patch_1">
   <path d="M 0 216 
L 576 216 
L 576 0 
L 0 0 
z
" style="fill:#ffffff;"/>
  </g>
  <g id="axes_1">
   <g id="patch_2">
    <path d="M 72 189 
L 274.909091 189 
L 274.909091 21.6 
L 72 21.6 
z
" style="fill:#ffffff;"/>
   </g>
   <g id="PathCollection_1">
    <defs>
     <path d="M 0 2.236068 
C 0.593012 2.236068 1.161816 2.000462 1.581139 1.581139 
C 2.000462 1.161816 2.236068 0.593012 2.236068 0 
C 2.236068 -0.593012 2.000462 -1.161816 1.581139 -1.581139 
C 1.161816 -2.000462 0.593012 -2.236068 0 -2.236068 
C -0.593012 -2.236068 -1.161816 -2.000462 -1.581139 -1.581139 
C -2.000462 -1.161816 -2.236068 -0.593012 -2.236068 0 
C -2.236068 0.593012 -2.000462 1.161816 -1.581139 1.581139 
C -1.161816 2.000462 -0.593012 2.236068 0 2.236068 
z
" id="m81ecaa02d3" style="stroke:#000000;"/>
    </defs>
    <g clip-path="url(#p60da0e6fb9)">
     <use style="fill:#0000ff;stroke:#000000;" x="108.636363636" xlink:href="#m81ecaa02d3" y="140.321756129"/>
     <use style="fill:#0000ff;stroke:#000000;" x="110.031221304" xlink:href="#m81ecaa02d3" y="140.553590565"/>
     <use style="fill:#0000ff;stroke:#000000;" x="111.426078972" xlink:href="#m81ecaa02d3" y="140.907430752"/>
     <use style="fill:#0000ff;stroke:#000000;" x="112.820936639" xlink:href="#m81ecaa02d3" y="141.438468698"/>
     <use style="fill:#0000ff;stroke:#000000;" x="114.215794307" xlink:href="#m81ecaa02d3" y="142.260312496"/>
     <use style="fill:#0000ff;stroke:#000000;" x="115.610651974" xlink:href="#m81ecaa02d3" y="143.566223818"/>
     <use style="fill:#0000ff;stroke:#000000;" x="117.005509642" xlink:href="#m81ecaa02d3" y="145.592245052"/>
     <use style="fill:#0000ff;stroke:#000000;" x="118.400367309" xlink:href="#m81ecaa02d3" y="148.488210617"/>
     <use style="fill:#0000ff;stroke:#000000;" x="119.795224977" xlink:href="#m81ecaa02d3" y="152.202784092"/>
     <use style="fill:#0000ff;stroke:#000000;" x="121.190082645" xlink:href="#m81ecaa02d3" y="156.396256225"/>
     <use style="fill:#0000ff;stroke:#000000;" x="122.584940312" xlink:href="#m81ecaa02d3" y="158.079700353"/>
     <use style="fill:#0000ff;stroke:#000000;" x="123.97979798" xlink:href="#m81ecaa02d3" y="153.440763848"/>
     <use style="fill:#0000ff;stroke:#000000;" x="125.374655647" xlink:href="#m81ecaa02d3" y="147.715463857"/>
     <use style="fill:#0000ff;stroke:#000000;" x="126.769513315" xlink:href="#m81ecaa02d3" y="142.223689423"/>
     <use style="fill:#0000ff;stroke:#000000;" x="128.164370983" xlink:href="#m81ecaa02d3" y="137.637679818"/>
     <use style="fill:#0000ff;stroke:#000000;" x="129.55922865" xlink:href="#m81ecaa02d3" y="134.385826835"/>
     <use style="fill:#0000ff;stroke:#000000;" x="130.954086318" xlink:href="#m81ecaa02d3" y="132.617571069"/>
     <use style="fill:#0000ff;stroke:#000000;" x="132.348943985" xlink:href="#m81ecaa02d3" y="132.302160274"/>
     <use style="fill:#0000ff;stroke:#000000;" x="133.743801653" xlink:href="#m81ecaa02d3" y="133.341000462"/>
     <use style="fill:#0000ff;stroke:#000000;" x="135.13865932" xlink:href="#m81ecaa02d3" y="135.573619439"/>
     <use style="fill:#0000ff;stroke:#000000;" x="136.533516988" xlink:href="#m81ecaa02d3" y="138.665850296"/>
     <use style="fill:#0000ff;stroke:#000000;" x="137.928374656" xlink:href="#m81ecaa02d3" y="141.881850877"/>
     <use style="fill:#0000ff;stroke:#000000;" x="139.323232323" xlink:href="#m81ecaa02d3" y="143.712200716"/>
     <use style="fill:#0000ff;stroke:#000000;" x="140.718089991" xlink:href="#m81ecaa02d3" y="142.087033744"/>
     <use style="fill:#0000ff;stroke:#000000;" x="142.112947658" xlink:href="#m81ecaa02d3" y="136.37707233"/>
     <use style="fill:#0000ff;stroke:#000000;" x="143.507805326" xlink:href="#m81ecaa02d3" y="127.723683366"/>
     <use style="fill:#0000ff;stroke:#000000;" x="144.902662994" xlink:href="#m81ecaa02d3" y="117.341623446"/>
     <use style="fill:#0000ff;stroke:#000000;" x="146.297520661" xlink:href="#m81ecaa02d3" y="106.096293053"/>
     <use style="fill:#0000ff;stroke:#000000;" x="147.692378329" xlink:href="#m81ecaa02d3" y="94.643262533"/>
     <use style="fill:#0000ff;stroke:#000000;" x="149.087235996" xlink:href="#m81ecaa02d3" y="83.5477616519"/>
     <use style="fill:#0000ff;stroke:#000000;" x="150.482093664" xlink:href="#m81ecaa02d3" y="73.383615973"/>
     <use style="fill:#0000ff;stroke:#000000;" x="151.876951331" xlink:href="#m81ecaa02d3" y="64.7744994641"/>
     <use style="fill:#0000ff;stroke:#000000;" x="153.271808999" xlink:href="#m81ecaa02d3" y="58.3205877146"/>
     <use style="fill:#0000ff;stroke:#000000;" x="154.666666667" xlink:href="#m81ecaa02d3" y="54.4432384216"/>
     <use style="fill:#0000ff;stroke:#000000;" x="156.061524334" xlink:href="#m81ecaa02d3" y="53.2705429551"/>
     <use style="fill:#0000ff;stroke:#000000;" x="157.456382002" xlink:href="#m81ecaa02d3" y="54.6563990967"/>
     <use style="fill:#0000ff;stroke:#000000;" x="158.851239669" xlink:href="#m81ecaa02d3" y="58.3005656803"/>
     <use style="fill:#0000ff;stroke:#000000;" x="160.246097337" xlink:href="#m81ecaa02d3" y="63.8663547366"/>
     <use style="fill:#0000ff;stroke:#000000;" x="161.640955005" xlink:href="#m81ecaa02d3" y="71.0362245454"/>
     <use style="fill:#0000ff;stroke:#000000;" x="163.035812672" xlink:href="#m81ecaa02d3" y="79.5216604817"/>
     <use style="fill:#0000ff;stroke:#000000;" x="164.43067034" xlink:href="#m81ecaa02d3" y="89.0662520283"/>
     <use style="fill:#0000ff;stroke:#000000;" x="165.825528007" xlink:href="#m81ecaa02d3" y="99.4469087674"/>
     <use style="fill:#0000ff;stroke:#000000;" x="167.220385675" xlink:href="#m81ecaa02d3" y="110.44682483"/>
     <use style="fill:#0000ff;stroke:#000000;" x="168.615243343" xlink:href="#m81ecaa02d3" y="121.7878431"/>
     <use style="fill:#0000ff;stroke:#000000;" x="170.01010101" xlink:href="#m81ecaa02d3" y="133.042472358"/>
     <use style="fill:#0000ff;stroke:#000000;" x="171.404958678" xlink:href="#m81ecaa02d3" y="143.506909483"/>
     <use style="fill:#0000ff;stroke:#000000;" x="172.799816345" xlink:href="#m81ecaa02d3" y="151.566434986"/>
     <use style="fill:#0000ff;stroke:#000000;" x="174.194674013" xlink:href="#m81ecaa02d3" y="152.5720914"/>
     <use style="fill:#0000ff;stroke:#000000;" x="175.58953168" xlink:href="#m81ecaa02d3" y="147.808420479"/>
     <use style="fill:#0000ff;stroke:#000000;" x="176.984389348" xlink:href="#m81ecaa02d3" y="143.04135566"/>
     <use style="fill:#0000ff;stroke:#000000;" x="178.379247016" xlink:href="#m81ecaa02d3" y="139.61948225"/>
     <use style="fill:#0000ff;stroke:#000000;" x="179.774104683" xlink:href="#m81ecaa02d3" y="137.739538952"/>
     <use style="fill:#0000ff;stroke:#000000;" x="181.168962351" xlink:href="#m81ecaa02d3" y="137.353794661"/>
     <use style="fill:#0000ff;stroke:#000000;" x="182.563820018" xlink:href="#m81ecaa02d3" y="138.339169664"/>
     <use style="fill:#0000ff;stroke:#000000;" x="183.958677686" xlink:href="#m81ecaa02d3" y="140.541388494"/>
     <use style="fill:#0000ff;stroke:#000000;" x="185.353535354" xlink:href="#m81ecaa02d3" y="143.774295357"/>
     <use style="fill:#0000ff;stroke:#000000;" x="186.748393021" xlink:href="#m81ecaa02d3" y="147.797643084"/>
     <use style="fill:#0000ff;stroke:#000000;" x="188.143250689" xlink:href="#m81ecaa02d3" y="152.29156677"/>
     <use style="fill:#0000ff;stroke:#000000;" x="189.538108356" xlink:href="#m81ecaa02d3" y="156.778914766"/>
     <use style="fill:#0000ff;stroke:#000000;" x="190.932966024" xlink:href="#m81ecaa02d3" y="158.970051851"/>
     <use style="fill:#0000ff;stroke:#000000;" x="192.327823691" xlink:href="#m81ecaa02d3" y="155.837082013"/>
     <use style="fill:#0000ff;stroke:#000000;" x="193.722681359" xlink:href="#m81ecaa02d3" y="152.530301041"/>
     <use style="fill:#0000ff;stroke:#000000;" x="195.117539027" xlink:href="#m81ecaa02d3" y="149.893198333"/>
     <use style="fill:#0000ff;stroke:#000000;" x="196.512396694" xlink:href="#m81ecaa02d3" y="148.030232117"/>
     <use style="fill:#0000ff;stroke:#000000;" x="197.907254362" xlink:href="#m81ecaa02d3" y="146.937511575"/>
     <use style="fill:#0000ff;stroke:#000000;" x="199.302112029" xlink:href="#m81ecaa02d3" y="146.559076715"/>
     <use style="fill:#0000ff;stroke:#000000;" x="200.696969697" xlink:href="#m81ecaa02d3" y="146.788692183"/>
     <use style="fill:#0000ff;stroke:#000000;" x="202.091827365" xlink:href="#m81ecaa02d3" y="147.443230235"/>
     <use style="fill:#0000ff;stroke:#000000;" x="203.486685032" xlink:href="#m81ecaa02d3" y="148.225909607"/>
     <use style="fill:#0000ff;stroke:#000000;" x="204.8815427" xlink:href="#m81ecaa02d3" y="148.733425217"/>
     <use style="fill:#0000ff;stroke:#000000;" x="206.276400367" xlink:href="#m81ecaa02d3" y="148.599306106"/>
     <use style="fill:#0000ff;stroke:#000000;" x="207.671258035" xlink:href="#m81ecaa02d3" y="147.741402079"/>
     <use style="fill:#0000ff;stroke:#000000;" x="209.066115702" xlink:href="#m81ecaa02d3" y="146.422348223"/>
     <use style="fill:#0000ff;stroke:#000000;" x="210.46097337" xlink:href="#m81ecaa02d3" y="145.041213876"/>
     <use style="fill:#0000ff;stroke:#000000;" x="211.855831038" xlink:href="#m81ecaa02d3" y="143.937806613"/>
     <use style="fill:#0000ff;stroke:#000000;" x="213.250688705" xlink:href="#m81ecaa02d3" y="143.332183515"/>
     <use style="fill:#0000ff;stroke:#000000;" x="214.645546373" xlink:href="#m81ecaa02d3" y="143.336500946"/>
     <use style="fill:#0000ff;stroke:#000000;" x="216.04040404" xlink:href="#m81ecaa02d3" y="143.984844895"/>
     <use style="fill:#0000ff;stroke:#000000;" x="217.435261708" xlink:href="#m81ecaa02d3" y="145.261107818"/>
     <use style="fill:#0000ff;stroke:#000000;" x="218.830119376" xlink:href="#m81ecaa02d3" y="147.116517921"/>
     <use style="fill:#0000ff;stroke:#000000;" x="220.224977043" xlink:href="#m81ecaa02d3" y="149.47329206"/>
     <use style="fill:#0000ff;stroke:#000000;" x="221.619834711" xlink:href="#m81ecaa02d3" y="152.218093292"/>
     <use style="fill:#0000ff;stroke:#000000;" x="223.014692378" xlink:href="#m81ecaa02d3" y="155.193946715"/>
     <use style="fill:#0000ff;stroke:#000000;" x="224.409550046" xlink:href="#m81ecaa02d3" y="158.181700475"/>
     <use style="fill:#0000ff;stroke:#000000;" x="225.804407713" xlink:href="#m81ecaa02d3" y="160.177987251"/>
     <use style="fill:#0000ff;stroke:#000000;" x="227.199265381" xlink:href="#m81ecaa02d3" y="158.171812348"/>
     <use style="fill:#0000ff;stroke:#000000;" x="228.594123049" xlink:href="#m81ecaa02d3" y="156.064369677"/>
     <use style="fill:#0000ff;stroke:#000000;" x="229.988980716" xlink:href="#m81ecaa02d3" y="154.475469791"/>
     <use style="fill:#0000ff;stroke:#000000;" x="231.383838384" xlink:href="#m81ecaa02d3" y="153.499130557"/>
     <use style="fill:#0000ff;stroke:#000000;" x="232.778696051" xlink:href="#m81ecaa02d3" y="153.168507338"/>
     <use style="fill:#0000ff;stroke:#000000;" x="234.173553719" xlink:href="#m81ecaa02d3" y="153.478568851"/>
     <use style="fill:#0000ff;stroke:#000000;" x="235.568411387" xlink:href="#m81ecaa02d3" y="154.388860502"/>
     <use style="fill:#0000ff;stroke:#000000;" x="236.963269054" xlink:href="#m81ecaa02d3" y="155.816739088"/>
     <use style="fill:#0000ff;stroke:#000000;" x="238.358126722" xlink:href="#m81ecaa02d3" y="157.608463746"/>
     <use style="fill:#0000ff;stroke:#000000;" x="239.752984389" xlink:href="#m81ecaa02d3" y="159.325906968"/>
     <use style="fill:#0000ff;stroke:#000000;" x="241.147842057" xlink:href="#m81ecaa02d3" y="159.057304861"/>
     <use style="fill:#0000ff;stroke:#000000;" x="242.542699725" xlink:href="#m81ecaa02d3" y="157.147161395"/>
     <use style="fill:#0000ff;stroke:#000000;" x="243.937557392" xlink:href="#m81ecaa02d3" y="155.204130615"/>
     <use style="fill:#0000ff;stroke:#000000;" x="245.33241506" xlink:href="#m81ecaa02d3" y="153.567638438"/>
     <use style="fill:#0000ff;stroke:#000000;" x="246.727272727" xlink:href="#m81ecaa02d3" y="152.374975921"/>
    </g>
   </g>
   <g id="line2d_1">
    <path clip-path="url(#p60da0e6fb9)" d="M 156.061524 189 
L 156.061524 21.6 
" style="fill:none;stroke:#008000;stroke-linecap:square;"/>
   </g>
   <g id="patch_3">
    <path d="M 274.909091 189 
L 274.909091 21.6 
" style="fill:none;stroke:#000000;stroke-linecap:square;stroke-linejoin:miter;"/>
   </g>
   <g id="patch_4">
    <path d="M 72 189 
L 72 21.6 
" style="fill:none;stroke:#000000;stroke-linecap:square;stroke-linejoin:miter;"/>
   </g>
   <g id="patch_5">
    <path d="M 72 189 
L 274.909091 189 
" style="fill:none;stroke:#000000;stroke-linecap:square;stroke-linejoin:miter;"/>
   </g>
   <g id="patch_6">
    <path d="M 72 21.6 
L 274.909091 21.6 
" style="fill:none;stroke:#000000;stroke-linecap:square;stroke-linejoin:miter;"/>
   </g>
   <g id="matplotlib.axis_1">
    <g id="xtick_1">
     <g id="line2d_2">
      <defs>
       <path d="M 0 0 
L 0 -4 
" id="m8cf184e67b" style="stroke:#000000;stroke-width:0.5;"/>
      </defs>
      <g>
       <use style="stroke:#000000;stroke-width:0.5;" x="72.0" xlink:href="#m8cf184e67b" y="189.0"/>
      </g>
     </g>
     <g id="line2d_3">
      <defs>
       <path d="M 0 0 
L 0 4 
" id="m70ea6a86a0" style="stroke:#000000;stroke-width:0.5;"/>
      </defs>
      <g>
       <use style="stroke:#000000;stroke-width:0.5;" x="72.0" xlink:href="#m70ea6a86a0" y="21.6"/>
      </g>
     </g>
     <g id="text_1">
      <!-- −2 -->
      <defs>
       <path d="M 10.59375 35.5 
L 73.1875 35.5 
L 73.1875 27.203125 
L 10.59375 27.203125 
z
" id="BitstreamVeraSans-Roman-2212"/>
       <path d="M 19.1875 8.296875 
L 53.609375 8.296875 
L 53.609375 0 
L 7.328125 0 
L 7.328125 8.296875 
Q 12.9375 14.109375 22.625 23.890625 
Q 32.328125 33.6875 34.8125 36.53125 
Q 39.546875 41.84375 41.421875 45.53125 
Q 43.3125 49.21875 43.3125 52.78125 
Q 43.3125 58.59375 39.234375 62.25 
Q 35.15625 65.921875 28.609375 65.921875 
Q 23.96875 65.921875 18.8125 64.3125 
Q 13.671875 62.703125 7.8125 59.421875 
L 7.8125 69.390625 
Q 13.765625 71.78125 18.9375 73 
Q 24.125 74.21875 28.421875 74.21875 
Q 39.75 74.21875 46.484375 68.546875 
Q 53.21875 62.890625 53.21875 53.421875 
Q 53.21875 48.921875 51.53125 44.890625 
Q 49.859375 40.875 45.40625 35.40625 
Q 44.1875 33.984375 37.640625 27.21875 
Q 31.109375 20.453125 19.1875 8.296875 
" id="BitstreamVeraSans-Roman-32"/>
      </defs>
      <g transform="translate(64.62890625 200.5984375)scale(0.1 -0.1)">
       <use xlink:href="#BitstreamVeraSans-Roman-2212"/>
       <use x="83.7890625" xlink:href="#BitstreamVeraSans-Roman-32"/>
      </g>
     </g>
    </g>
    <g id="xtick_2">
     <g id="line2d_4">
      <g>
       <use style="stroke:#000000;stroke-width:0.5;" x="105.818181818" xlink:href="#m8cf184e67b" y="189.0"/>
      </g>
     </g>
     <g id="line2d_5">
      <g>
       <use style="stroke:#000000;stroke-width:0.5;" x="105.818181818" xlink:href="#m70ea6a86a0" y="21.6"/>
      </g>
     </g>
     <g id="text_2">
      <!-- 0 -->
      <defs>
       <path d="M 31.78125 66.40625 
Q 24.171875 66.40625 20.328125 58.90625 
Q 16.5 51.421875 16.5 36.375 
Q 16.5 21.390625 20.328125 13.890625 
Q 24.171875 6.390625 31.78125 6.390625 
Q 39.453125 6.390625 43.28125 13.890625 
Q 47.125 21.390625 47.125 36.375 
Q 47.125 51.421875 43.28125 58.90625 
Q 39.453125 66.40625 31.78125 66.40625 
M 31.78125 74.21875 
Q 44.046875 74.21875 50.515625 64.515625 
Q 56.984375 54.828125 56.984375 36.375 
Q 56.984375 17.96875 50.515625 8.265625 
Q 44.046875 -1.421875 31.78125 -1.421875 
Q 19.53125 -1.421875 13.0625 8.265625 
Q 6.59375 17.96875 6.59375 36.375 
Q 6.59375 54.828125 13.0625 64.515625 
Q 19.53125 74.21875 31.78125 74.21875 
" id="BitstreamVeraSans-Roman-30"/>
      </defs>
      <g transform="translate(102.636931818 200.5984375)scale(0.1 -0.1)">
       <use xlink:href="#BitstreamVeraSans-Roman-30"/>
      </g>
     </g>
    </g>
    <g id="xtick_3">
     <g id="line2d_6">
      <g>
       <use style="stroke:#000000;stroke-width:0.5;" x="139.636363636" xlink:href="#m8cf184e67b" y="189.0"/>
      </g>
     </g>
     <g id="line2d_7">
      <g>
       <use style="stroke:#000000;stroke-width:0.5;" x="139.636363636" xlink:href="#m70ea6a86a0" y="21.6"/>
      </g>
     </g>
     <g id="text_3">
      <!-- 2 -->
      <g transform="translate(136.455113636 200.5984375)scale(0.1 -0.1)">
       <use xlink:href="#BitstreamVeraSans-Roman-32"/>
      </g>
     </g>
    </g>
    <g id="xtick_4">
     <g id="line2d_8">
      <g>
       <use style="stroke:#000000;stroke-width:0.5;" x="173.454545455" xlink:href="#m8cf184e67b" y="189.0"/>
      </g>
     </g>
     <g id="line2d_9">
      <g>
       <use style="stroke:#000000;stroke-width:0.5;" x="173.454545455" xlink:href="#m70ea6a86a0" y="21.6"/>
      </g>
     </g>
     <g id="text_4">
      <!-- 4 -->
      <defs>
       <path d="M 37.796875 64.3125 
L 12.890625 25.390625 
L 37.796875 25.390625 
z
M 35.203125 72.90625 
L 47.609375 72.90625 
L 47.609375 25.390625 
L 58.015625 25.390625 
L 58.015625 17.1875 
L 47.609375 17.1875 
L 47.609375 0 
L 37.796875 0 
L 37.796875 17.1875 
L 4.890625 17.1875 
L 4.890625 26.703125 
z
" id="BitstreamVeraSans-Roman-34"/>
      </defs>
      <g transform="translate(170.273295455 200.5984375)scale(0.1 -0.1)">
       <use xlink:href="#BitstreamVeraSans-Roman-34"/>
      </g>
     </g>
    </g>
    <g id="xtick_5">
     <g id="line2d_10">
      <g>
       <use style="stroke:#000000;stroke-width:0.5;" x="207.272727273" xlink:href="#m8cf184e67b" y="189.0"/>
      </g>
     </g>
     <g id="line2d_11">
      <g>
       <use style="stroke:#000000;stroke-width:0.5;" x="207.272727273" xlink:href="#m70ea6a86a0" y="21.6"/>
      </g>
     </g>
     <g id="text_5">
      <!-- 6 -->
      <defs>
       <path d="M 33.015625 40.375 
Q 26.375 40.375 22.484375 35.828125 
Q 18.609375 31.296875 18.609375 23.390625 
Q 18.609375 15.53125 22.484375 10.953125 
Q 26.375 6.390625 33.015625 6.390625 
Q 39.65625 6.390625 43.53125 10.953125 
Q 47.40625 15.53125 47.40625 23.390625 
Q 47.40625 31.296875 43.53125 35.828125 
Q 39.65625 40.375 33.015625 40.375 
M 52.59375 71.296875 
L 52.59375 62.3125 
Q 48.875 64.0625 45.09375 64.984375 
Q 41.3125 65.921875 37.59375 65.921875 
Q 27.828125 65.921875 22.671875 59.328125 
Q 17.53125 52.734375 16.796875 39.40625 
Q 19.671875 43.65625 24.015625 45.921875 
Q 28.375 48.1875 33.59375 48.1875 
Q 44.578125 48.1875 50.953125 41.515625 
Q 57.328125 34.859375 57.328125 23.390625 
Q 57.328125 12.15625 50.6875 5.359375 
Q 44.046875 -1.421875 33.015625 -1.421875 
Q 20.359375 -1.421875 13.671875 8.265625 
Q 6.984375 17.96875 6.984375 36.375 
Q 6.984375 53.65625 15.1875 63.9375 
Q 23.390625 74.21875 37.203125 74.21875 
Q 40.921875 74.21875 44.703125 73.484375 
Q 48.484375 72.75 52.59375 71.296875 
" id="BitstreamVeraSans-Roman-36"/>
      </defs>
      <g transform="translate(204.091477273 200.5984375)scale(0.1 -0.1)">
       <use xlink:href="#BitstreamVeraSans-Roman-36"/>
      </g>
     </g>
    </g>
    <g id="xtick_6">
     <g id="line2d_12">
      <g>
       <use style="stroke:#000000;stroke-width:0.5;" x="241.090909091" xlink:href="#m8cf184e67b" y="189.0"/>
      </g>
     </g>
     <g id="line2d_13">
      <g>
       <use style="stroke:#000000;stroke-width:0.5;" x="241.090909091" xlink:href="#m70ea6a86a0" y="21.6"/>
      </g>
     </g>
     <g id="text_6">
      <!-- 8 -->
      <defs>
       <path d="M 31.78125 34.625 
Q 24.75 34.625 20.71875 30.859375 
Q 16.703125 27.09375 16.703125 20.515625 
Q 16.703125 13.921875 20.71875 10.15625 
Q 24.75 6.390625 31.78125 6.390625 
Q 38.8125 6.390625 42.859375 10.171875 
Q 46.921875 13.96875 46.921875 20.515625 
Q 46.921875 27.09375 42.890625 30.859375 
Q 38.875 34.625 31.78125 34.625 
M 21.921875 38.8125 
Q 15.578125 40.375 12.03125 44.71875 
Q 8.5 49.078125 8.5 55.328125 
Q 8.5 64.0625 14.71875 69.140625 
Q 20.953125 74.21875 31.78125 74.21875 
Q 42.671875 74.21875 48.875 69.140625 
Q 55.078125 64.0625 55.078125 55.328125 
Q 55.078125 49.078125 51.53125 44.71875 
Q 48 40.375 41.703125 38.8125 
Q 48.828125 37.15625 52.796875 32.3125 
Q 56.78125 27.484375 56.78125 20.515625 
Q 56.78125 9.90625 50.3125 4.234375 
Q 43.84375 -1.421875 31.78125 -1.421875 
Q 19.734375 -1.421875 13.25 4.234375 
Q 6.78125 9.90625 6.78125 20.515625 
Q 6.78125 27.484375 10.78125 32.3125 
Q 14.796875 37.15625 21.921875 38.8125 
M 18.3125 54.390625 
Q 18.3125 48.734375 21.84375 45.5625 
Q 25.390625 42.390625 31.78125 42.390625 
Q 38.140625 42.390625 41.71875 45.5625 
Q 45.3125 48.734375 45.3125 54.390625 
Q 45.3125 60.0625 41.71875 63.234375 
Q 38.140625 66.40625 31.78125 66.40625 
Q 25.390625 66.40625 21.84375 63.234375 
Q 18.3125 60.0625 18.3125 54.390625 
" id="BitstreamVeraSans-Roman-38"/>
      </defs>
      <g transform="translate(237.909659091 200.5984375)scale(0.1 -0.1)">
       <use xlink:href="#BitstreamVeraSans-Roman-38"/>
      </g>
     </g>
    </g>
    <g id="xtick_7">
     <g id="line2d_14">
      <g>
       <use style="stroke:#000000;stroke-width:0.5;" x="274.909090909" xlink:href="#m8cf184e67b" y="189.0"/>
      </g>
     </g>
     <g id="line2d_15">
      <g>
       <use style="stroke:#000000;stroke-width:0.5;" x="274.909090909" xlink:href="#m70ea6a86a0" y="21.6"/>
      </g>
     </g>
     <g id="text_7">
      <!-- 10 -->
      <defs>
       <path d="M 12.40625 8.296875 
L 28.515625 8.296875 
L 28.515625 63.921875 
L 10.984375 60.40625 
L 10.984375 69.390625 
L 28.421875 72.90625 
L 38.28125 72.90625 
L 38.28125 8.296875 
L 54.390625 8.296875 
L 54.390625 0 
L 12.40625 0 
z
" id="BitstreamVeraSans-Roman-31"/>
      </defs>
      <g transform="translate(268.546590909 200.5984375)scale(0.1 -0.1)">
       <use xlink:href="#BitstreamVeraSans-Roman-31"/>
       <use x="63.623046875" xlink:href="#BitstreamVeraSans-Roman-30"/>
      </g>
     </g>
    </g>
    <g id="text_8">
     <!-- x_data -->
     <defs>
      <path d="M 45.40625 46.390625 
L 45.40625 75.984375 
L 54.390625 75.984375 
L 54.390625 0 
L 45.40625 0 
L 45.40625 8.203125 
Q 42.578125 3.328125 38.25 0.953125 
Q 33.9375 -1.421875 27.875 -1.421875 
Q 17.96875 -1.421875 11.734375 6.484375 
Q 5.515625 14.40625 5.515625 27.296875 
Q 5.515625 40.1875 11.734375 48.09375 
Q 17.96875 56 27.875 56 
Q 33.9375 56 38.25 53.625 
Q 42.578125 51.265625 45.40625 46.390625 
M 14.796875 27.296875 
Q 14.796875 17.390625 18.875 11.75 
Q 22.953125 6.109375 30.078125 6.109375 
Q 37.203125 6.109375 41.296875 11.75 
Q 45.40625 17.390625 45.40625 27.296875 
Q 45.40625 37.203125 41.296875 42.84375 
Q 37.203125 48.484375 30.078125 48.484375 
Q 22.953125 48.484375 18.875 42.84375 
Q 14.796875 37.203125 14.796875 27.296875 
" id="BitstreamVeraSans-Roman-64"/>
      <path d="M 34.28125 27.484375 
Q 23.390625 27.484375 19.1875 25 
Q 14.984375 22.515625 14.984375 16.5 
Q 14.984375 11.71875 18.140625 8.90625 
Q 21.296875 6.109375 26.703125 6.109375 
Q 34.1875 6.109375 38.703125 11.40625 
Q 43.21875 16.703125 43.21875 25.484375 
L 43.21875 27.484375 
z
M 52.203125 31.203125 
L 52.203125 0 
L 43.21875 0 
L 43.21875 8.296875 
Q 40.140625 3.328125 35.546875 0.953125 
Q 30.953125 -1.421875 24.3125 -1.421875 
Q 15.921875 -1.421875 10.953125 3.296875 
Q 6 8.015625 6 15.921875 
Q 6 25.140625 12.171875 29.828125 
Q 18.359375 34.515625 30.609375 34.515625 
L 43.21875 34.515625 
L 43.21875 35.40625 
Q 43.21875 41.609375 39.140625 45 
Q 35.0625 48.390625 27.6875 48.390625 
Q 23 48.390625 18.546875 47.265625 
Q 14.109375 46.140625 10.015625 43.890625 
L 10.015625 52.203125 
Q 14.9375 54.109375 19.578125 55.046875 
Q 24.21875 56 28.609375 56 
Q 40.484375 56 46.34375 49.84375 
Q 52.203125 43.703125 52.203125 31.203125 
" id="BitstreamVeraSans-Roman-61"/>
      <path d="M 54.890625 54.6875 
L 35.109375 28.078125 
L 55.90625 0 
L 45.3125 0 
L 29.390625 21.484375 
L 13.484375 0 
L 2.875 0 
L 24.125 28.609375 
L 4.6875 54.6875 
L 15.28125 54.6875 
L 29.78125 35.203125 
L 44.28125 54.6875 
z
" id="BitstreamVeraSans-Roman-78"/>
      <path d="M 18.3125 70.21875 
L 18.3125 54.6875 
L 36.8125 54.6875 
L 36.8125 47.703125 
L 18.3125 47.703125 
L 18.3125 18.015625 
Q 18.3125 11.328125 20.140625 9.421875 
Q 21.96875 7.515625 27.59375 7.515625 
L 36.8125 7.515625 
L 36.8125 0 
L 27.59375 0 
Q 17.1875 0 13.234375 3.875 
Q 9.28125 7.765625 9.28125 18.015625 
L 9.28125 47.703125 
L 2.6875 47.703125 
L 2.6875 54.6875 
L 9.28125 54.6875 
L 9.28125 70.21875 
z
" id="BitstreamVeraSans-Roman-74"/>
      <path d="M 50.984375 -16.609375 
L 50.984375 -23.578125 
L -0.984375 -23.578125 
L -0.984375 -16.609375 
z
" id="BitstreamVeraSans-Roman-5f"/>
     </defs>
     <g transform="translate(156.732670455 215.2765625)scale(0.1 -0.1)">
      <use xlink:href="#BitstreamVeraSans-Roman-78"/>
      <use x="59.1796875" xlink:href="#BitstreamVeraSans-Roman-5f"/>
      <use x="109.1796875" xlink:href="#BitstreamVeraSans-Roman-64"/>
      <use x="172.65625" xlink:href="#BitstreamVeraSans-Roman-61"/>
      <use x="233.935546875" xlink:href="#BitstreamVeraSans-Roman-74"/>
      <use x="273.14453125" xlink:href="#BitstreamVeraSans-Roman-61"/>
     </g>
    </g>
   </g>
   <g id="matplotlib.axis_2">
    <g id="ytick_1">
     <g id="line2d_16">
      <defs>
       <path d="M 0 0 
L 4 0 
" id="m7cf505f2cd" style="stroke:#000000;stroke-width:0.5;"/>
      </defs>
      <g>
       <use style="stroke:#000000;stroke-width:0.5;" x="72.0" xlink:href="#m7cf505f2cd" y="189.0"/>
      </g>
     </g>
     <g id="line2d_17">
      <defs>
       <path d="M 0 0 
L -4 0 
" id="me15135c539" style="stroke:#000000;stroke-width:0.5;"/>
      </defs>
      <g>
       <use style="stroke:#000000;stroke-width:0.5;" x="274.909090909" xlink:href="#me15135c539" y="189.0"/>
      </g>
     </g>
     <g id="text_9">
      <!-- −0.5 -->
      <defs>
       <path d="M 10.796875 72.90625 
L 49.515625 72.90625 
L 49.515625 64.59375 
L 19.828125 64.59375 
L 19.828125 46.734375 
Q 21.96875 47.46875 24.109375 47.828125 
Q 26.265625 48.1875 28.421875 48.1875 
Q 40.625 48.1875 47.75 41.5 
Q 54.890625 34.8125 54.890625 23.390625 
Q 54.890625 11.625 47.5625 5.09375 
Q 40.234375 -1.421875 26.90625 -1.421875 
Q 22.3125 -1.421875 17.546875 -0.640625 
Q 12.796875 0.140625 7.71875 1.703125 
L 7.71875 11.625 
Q 12.109375 9.234375 16.796875 8.0625 
Q 21.484375 6.890625 26.703125 6.890625 
Q 35.15625 6.890625 40.078125 11.328125 
Q 45.015625 15.765625 45.015625 23.390625 
Q 45.015625 31 40.078125 35.4375 
Q 35.15625 39.890625 26.703125 39.890625 
Q 22.75 39.890625 18.8125 39.015625 
Q 14.890625 38.140625 10.796875 36.28125 
z
" id="BitstreamVeraSans-Roman-35"/>
       <path d="M 10.6875 12.40625 
L 21 12.40625 
L 21 0 
L 10.6875 0 
z
" id="BitstreamVeraSans-Roman-2e"/>
      </defs>
      <g transform="translate(43.7171875 191.759375)scale(0.1 -0.1)">
       <use xlink:href="#BitstreamVeraSans-Roman-2212"/>
       <use x="83.7890625" xlink:href="#BitstreamVeraSans-Roman-30"/>
       <use x="147.412109375" xlink:href="#BitstreamVeraSans-Roman-2e"/>
       <use x="179.19921875" xlink:href="#BitstreamVeraSans-Roman-35"/>
      </g>
     </g>
    </g>
    <g id="ytick_2">
     <g id="line2d_18">
      <g>
       <use style="stroke:#000000;stroke-width:0.5;" x="72.0" xlink:href="#m7cf505f2cd" y="161.1"/>
      </g>
     </g>
     <g id="line2d_19">
      <g>
       <use style="stroke:#000000;stroke-width:0.5;" x="274.909090909" xlink:href="#me15135c539" y="161.1"/>
      </g>
     </g>
     <g id="text_10">
      <!-- 0.0 -->
      <g transform="translate(52.096875 163.859375)scale(0.1 -0.1)">
       <use xlink:href="#BitstreamVeraSans-Roman-30"/>
       <use x="63.623046875" xlink:href="#BitstreamVeraSans-Roman-2e"/>
       <use x="95.41015625" xlink:href="#BitstreamVeraSans-Roman-30"/>
      </g>
     </g>
    </g>
    <g id="ytick_3">
     <g id="line2d_20">
      <g>
       <use style="stroke:#000000;stroke-width:0.5;" x="72.0" xlink:href="#m7cf505f2cd" y="133.2"/>
      </g>
     </g>
     <g id="line2d_21">
      <g>
       <use style="stroke:#000000;stroke-width:0.5;" x="274.909090909" xlink:href="#me15135c539" y="133.2"/>
      </g>
     </g>
     <g id="text_11">
      <!-- 0.5 -->
      <g transform="translate(52.096875 135.959375)scale(0.1 -0.1)">
       <use xlink:href="#BitstreamVeraSans-Roman-30"/>
       <use x="63.623046875" xlink:href="#BitstreamVeraSans-Roman-2e"/>
       <use x="95.41015625" xlink:href="#BitstreamVeraSans-Roman-35"/>
      </g>
     </g>
    </g>
    <g id="ytick_4">
     <g id="line2d_22">
      <g>
       <use style="stroke:#000000;stroke-width:0.5;" x="72.0" xlink:href="#m7cf505f2cd" y="105.3"/>
      </g>
     </g>
     <g id="line2d_23">
      <g>
       <use style="stroke:#000000;stroke-width:0.5;" x="274.909090909" xlink:href="#me15135c539" y="105.3"/>
      </g>
     </g>
     <g id="text_12">
      <!-- 1.0 -->
      <g transform="translate(52.096875 108.059375)scale(0.1 -0.1)">
       <use xlink:href="#BitstreamVeraSans-Roman-31"/>
       <use x="63.623046875" xlink:href="#BitstreamVeraSans-Roman-2e"/>
       <use x="95.41015625" xlink:href="#BitstreamVeraSans-Roman-30"/>
      </g>
     </g>
    </g>
    <g id="ytick_5">
     <g id="line2d_24">
      <g>
       <use style="stroke:#000000;stroke-width:0.5;" x="72.0" xlink:href="#m7cf505f2cd" y="77.4"/>
      </g>
     </g>
     <g id="line2d_25">
      <g>
       <use style="stroke:#000000;stroke-width:0.5;" x="274.909090909" xlink:href="#me15135c539" y="77.4"/>
      </g>
     </g>
     <g id="text_13">
      <!-- 1.5 -->
      <g transform="translate(52.096875 80.159375)scale(0.1 -0.1)">
       <use xlink:href="#BitstreamVeraSans-Roman-31"/>
       <use x="63.623046875" xlink:href="#BitstreamVeraSans-Roman-2e"/>
       <use x="95.41015625" xlink:href="#BitstreamVeraSans-Roman-35"/>
      </g>
     </g>
    </g>
    <g id="ytick_6">
     <g id="line2d_26">
      <g>
       <use style="stroke:#000000;stroke-width:0.5;" x="72.0" xlink:href="#m7cf505f2cd" y="49.5"/>
      </g>
     </g>
     <g id="line2d_27">
      <g>
       <use style="stroke:#000000;stroke-width:0.5;" x="274.909090909" xlink:href="#me15135c539" y="49.5"/>
      </g>
     </g>
     <g id="text_14">
      <!-- 2.0 -->
      <g transform="translate(52.096875 52.259375)scale(0.1 -0.1)">
       <use xlink:href="#BitstreamVeraSans-Roman-32"/>
       <use x="63.623046875" xlink:href="#BitstreamVeraSans-Roman-2e"/>
       <use x="95.41015625" xlink:href="#BitstreamVeraSans-Roman-30"/>
      </g>
     </g>
    </g>
    <g id="ytick_7">
     <g id="line2d_28">
      <g>
       <use style="stroke:#000000;stroke-width:0.5;" x="72.0" xlink:href="#m7cf505f2cd" y="21.6"/>
      </g>
     </g>
     <g id="line2d_29">
      <g>
       <use style="stroke:#000000;stroke-width:0.5;" x="274.909090909" xlink:href="#me15135c539" y="21.6"/>
      </g>
     </g>
     <g id="text_15">
      <!-- 2.5 -->
      <g transform="translate(52.096875 24.359375)scale(0.1 -0.1)">
       <use xlink:href="#BitstreamVeraSans-Roman-32"/>
       <use x="63.623046875" xlink:href="#BitstreamVeraSans-Roman-2e"/>
       <use x="95.41015625" xlink:href="#BitstreamVeraSans-Roman-35"/>
      </g>
     </g>
    </g>
    <g id="text_16">
     <!-- Lomb Scargle spectrum -->
     <defs>
      <path id="BitstreamVeraSans-Roman-20"/>
      <path d="M 9.421875 75.984375 
L 18.40625 75.984375 
L 18.40625 0 
L 9.421875 0 
z
" id="BitstreamVeraSans-Roman-6c"/>
      <path d="M 45.40625 27.984375 
Q 45.40625 37.75 41.375 43.109375 
Q 37.359375 48.484375 30.078125 48.484375 
Q 22.859375 48.484375 18.828125 43.109375 
Q 14.796875 37.75 14.796875 27.984375 
Q 14.796875 18.265625 18.828125 12.890625 
Q 22.859375 7.515625 30.078125 7.515625 
Q 37.359375 7.515625 41.375 12.890625 
Q 45.40625 18.265625 45.40625 27.984375 
M 54.390625 6.78125 
Q 54.390625 -7.171875 48.1875 -13.984375 
Q 42 -20.796875 29.203125 -20.796875 
Q 24.46875 -20.796875 20.265625 -20.09375 
Q 16.0625 -19.390625 12.109375 -17.921875 
L 12.109375 -9.1875 
Q 16.0625 -11.328125 19.921875 -12.34375 
Q 23.78125 -13.375 27.78125 -13.375 
Q 36.625 -13.375 41.015625 -8.765625 
Q 45.40625 -4.15625 45.40625 5.171875 
L 45.40625 9.625 
Q 42.625 4.78125 38.28125 2.390625 
Q 33.9375 0 27.875 0 
Q 17.828125 0 11.671875 7.65625 
Q 5.515625 15.328125 5.515625 27.984375 
Q 5.515625 40.671875 11.671875 48.328125 
Q 17.828125 56 27.875 56 
Q 33.9375 56 38.28125 53.609375 
Q 42.625 51.21875 45.40625 46.390625 
L 45.40625 54.6875 
L 54.390625 54.6875 
z
" id="BitstreamVeraSans-Roman-67"/>
      <path d="M 56.203125 29.59375 
L 56.203125 25.203125 
L 14.890625 25.203125 
Q 15.484375 15.921875 20.484375 11.0625 
Q 25.484375 6.203125 34.421875 6.203125 
Q 39.59375 6.203125 44.453125 7.46875 
Q 49.3125 8.734375 54.109375 11.28125 
L 54.109375 2.78125 
Q 49.265625 0.734375 44.1875 -0.34375 
Q 39.109375 -1.421875 33.890625 -1.421875 
Q 20.796875 -1.421875 13.15625 6.1875 
Q 5.515625 13.8125 5.515625 26.8125 
Q 5.515625 40.234375 12.765625 48.109375 
Q 20.015625 56 32.328125 56 
Q 43.359375 56 49.78125 48.890625 
Q 56.203125 41.796875 56.203125 29.59375 
M 47.21875 32.234375 
Q 47.125 39.59375 43.09375 43.984375 
Q 39.0625 48.390625 32.421875 48.390625 
Q 24.90625 48.390625 20.390625 44.140625 
Q 15.875 39.890625 15.1875 32.171875 
z
" id="BitstreamVeraSans-Roman-65"/>
      <path d="M 48.6875 27.296875 
Q 48.6875 37.203125 44.609375 42.84375 
Q 40.53125 48.484375 33.40625 48.484375 
Q 26.265625 48.484375 22.1875 42.84375 
Q 18.109375 37.203125 18.109375 27.296875 
Q 18.109375 17.390625 22.1875 11.75 
Q 26.265625 6.109375 33.40625 6.109375 
Q 40.53125 6.109375 44.609375 11.75 
Q 48.6875 17.390625 48.6875 27.296875 
M 18.109375 46.390625 
Q 20.953125 51.265625 25.265625 53.625 
Q 29.59375 56 35.59375 56 
Q 45.5625 56 51.78125 48.09375 
Q 58.015625 40.1875 58.015625 27.296875 
Q 58.015625 14.40625 51.78125 6.484375 
Q 45.5625 -1.421875 35.59375 -1.421875 
Q 29.59375 -1.421875 25.265625 0.953125 
Q 20.953125 3.328125 18.109375 8.203125 
L 18.109375 0 
L 9.078125 0 
L 9.078125 75.984375 
L 18.109375 75.984375 
z
" id="BitstreamVeraSans-Roman-62"/>
      <path d="M 30.609375 48.390625 
Q 23.390625 48.390625 19.1875 42.75 
Q 14.984375 37.109375 14.984375 27.296875 
Q 14.984375 17.484375 19.15625 11.84375 
Q 23.34375 6.203125 30.609375 6.203125 
Q 37.796875 6.203125 41.984375 11.859375 
Q 46.1875 17.53125 46.1875 27.296875 
Q 46.1875 37.015625 41.984375 42.703125 
Q 37.796875 48.390625 30.609375 48.390625 
M 30.609375 56 
Q 42.328125 56 49.015625 48.375 
Q 55.71875 40.765625 55.71875 27.296875 
Q 55.71875 13.875 49.015625 6.21875 
Q 42.328125 -1.421875 30.609375 -1.421875 
Q 18.84375 -1.421875 12.171875 6.21875 
Q 5.515625 13.875 5.515625 27.296875 
Q 5.515625 40.765625 12.171875 48.375 
Q 18.84375 56 30.609375 56 
" id="BitstreamVeraSans-Roman-6f"/>
      <path d="M 8.5 21.578125 
L 8.5 54.6875 
L 17.484375 54.6875 
L 17.484375 21.921875 
Q 17.484375 14.15625 20.5 10.265625 
Q 23.53125 6.390625 29.59375 6.390625 
Q 36.859375 6.390625 41.078125 11.03125 
Q 45.3125 15.671875 45.3125 23.6875 
L 45.3125 54.6875 
L 54.296875 54.6875 
L 54.296875 0 
L 45.3125 0 
L 45.3125 8.40625 
Q 42.046875 3.421875 37.71875 1 
Q 33.40625 -1.421875 27.6875 -1.421875 
Q 18.265625 -1.421875 13.375 4.4375 
Q 8.5 10.296875 8.5 21.578125 
" id="BitstreamVeraSans-Roman-75"/>
      <path d="M 53.515625 70.515625 
L 53.515625 60.890625 
Q 47.90625 63.578125 42.921875 64.890625 
Q 37.9375 66.21875 33.296875 66.21875 
Q 25.25 66.21875 20.875 63.09375 
Q 16.5 59.96875 16.5 54.203125 
Q 16.5 49.359375 19.40625 46.890625 
Q 22.3125 44.4375 30.421875 42.921875 
L 36.375 41.703125 
Q 47.40625 39.59375 52.65625 34.296875 
Q 57.90625 29 57.90625 20.125 
Q 57.90625 9.515625 50.796875 4.046875 
Q 43.703125 -1.421875 29.984375 -1.421875 
Q 24.8125 -1.421875 18.96875 -0.25 
Q 13.140625 0.921875 6.890625 3.21875 
L 6.890625 13.375 
Q 12.890625 10.015625 18.65625 8.296875 
Q 24.421875 6.59375 29.984375 6.59375 
Q 38.421875 6.59375 43.015625 9.90625 
Q 47.609375 13.234375 47.609375 19.390625 
Q 47.609375 24.75 44.3125 27.78125 
Q 41.015625 30.8125 33.5 32.328125 
L 27.484375 33.5 
Q 16.453125 35.6875 11.515625 40.375 
Q 6.59375 45.0625 6.59375 53.421875 
Q 6.59375 63.09375 13.40625 68.65625 
Q 20.21875 74.21875 32.171875 74.21875 
Q 37.3125 74.21875 42.625 73.28125 
Q 47.953125 72.359375 53.515625 70.515625 
" id="BitstreamVeraSans-Roman-53"/>
      <path d="M 48.78125 52.59375 
L 48.78125 44.1875 
Q 44.96875 46.296875 41.140625 47.34375 
Q 37.3125 48.390625 33.40625 48.390625 
Q 24.65625 48.390625 19.8125 42.84375 
Q 14.984375 37.3125 14.984375 27.296875 
Q 14.984375 17.28125 19.8125 11.734375 
Q 24.65625 6.203125 33.40625 6.203125 
Q 37.3125 6.203125 41.140625 7.25 
Q 44.96875 8.296875 48.78125 10.40625 
L 48.78125 2.09375 
Q 45.015625 0.34375 40.984375 -0.53125 
Q 36.96875 -1.421875 32.421875 -1.421875 
Q 20.0625 -1.421875 12.78125 6.34375 
Q 5.515625 14.109375 5.515625 27.296875 
Q 5.515625 40.671875 12.859375 48.328125 
Q 20.21875 56 33.015625 56 
Q 37.15625 56 41.109375 55.140625 
Q 45.0625 54.296875 48.78125 52.59375 
" id="BitstreamVeraSans-Roman-63"/>
      <path d="M 41.109375 46.296875 
Q 39.59375 47.171875 37.8125 47.578125 
Q 36.03125 48 33.890625 48 
Q 26.265625 48 22.1875 43.046875 
Q 18.109375 38.09375 18.109375 28.8125 
L 18.109375 0 
L 9.078125 0 
L 9.078125 54.6875 
L 18.109375 54.6875 
L 18.109375 46.1875 
Q 20.953125 51.171875 25.484375 53.578125 
Q 30.03125 56 36.53125 56 
Q 37.453125 56 38.578125 55.875 
Q 39.703125 55.765625 41.0625 55.515625 
z
" id="BitstreamVeraSans-Roman-72"/>
      <path d="M 18.109375 8.203125 
L 18.109375 -20.796875 
L 9.078125 -20.796875 
L 9.078125 54.6875 
L 18.109375 54.6875 
L 18.109375 46.390625 
Q 20.953125 51.265625 25.265625 53.625 
Q 29.59375 56 35.59375 56 
Q 45.5625 56 51.78125 48.09375 
Q 58.015625 40.1875 58.015625 27.296875 
Q 58.015625 14.40625 51.78125 6.484375 
Q 45.5625 -1.421875 35.59375 -1.421875 
Q 29.59375 -1.421875 25.265625 0.953125 
Q 20.953125 3.328125 18.109375 8.203125 
M 48.6875 27.296875 
Q 48.6875 37.203125 44.609375 42.84375 
Q 40.53125 48.484375 33.40625 48.484375 
Q 26.265625 48.484375 22.1875 42.84375 
Q 18.109375 37.203125 18.109375 27.296875 
Q 18.109375 17.390625 22.1875 11.75 
Q 26.265625 6.109375 33.40625 6.109375 
Q 40.53125 6.109375 44.609375 11.75 
Q 48.6875 17.390625 48.6875 27.296875 
" id="BitstreamVeraSans-Roman-70"/>
      <path d="M 52 44.1875 
Q 55.375 50.25 60.0625 53.125 
Q 64.75 56 71.09375 56 
Q 79.640625 56 84.28125 50.015625 
Q 88.921875 44.046875 88.921875 33.015625 
L 88.921875 0 
L 79.890625 0 
L 79.890625 32.71875 
Q 79.890625 40.578125 77.09375 44.375 
Q 74.3125 48.1875 68.609375 48.1875 
Q 61.625 48.1875 57.5625 43.546875 
Q 53.515625 38.921875 53.515625 30.90625 
L 53.515625 0 
L 44.484375 0 
L 44.484375 32.71875 
Q 44.484375 40.625 41.703125 44.40625 
Q 38.921875 48.1875 33.109375 48.1875 
Q 26.21875 48.1875 22.15625 43.53125 
Q 18.109375 38.875 18.109375 30.90625 
L 18.109375 0 
L 9.078125 0 
L 9.078125 54.6875 
L 18.109375 54.6875 
L 18.109375 46.1875 
Q 21.1875 51.21875 25.484375 53.609375 
Q 29.78125 56 35.6875 56 
Q 41.65625 56 45.828125 52.96875 
Q 50 49.953125 52 44.1875 
" id="BitstreamVeraSans-Roman-6d"/>
      <path d="M 9.8125 72.90625 
L 19.671875 72.90625 
L 19.671875 8.296875 
L 55.171875 8.296875 
L 55.171875 0 
L 9.8125 0 
z
" id="BitstreamVeraSans-Roman-4c"/>
      <path d="M 44.28125 53.078125 
L 44.28125 44.578125 
Q 40.484375 46.53125 36.375 47.5 
Q 32.28125 48.484375 27.875 48.484375 
Q 21.1875 48.484375 17.84375 46.4375 
Q 14.5 44.390625 14.5 40.28125 
Q 14.5 37.15625 16.890625 35.375 
Q 19.28125 33.59375 26.515625 31.984375 
L 29.59375 31.296875 
Q 39.15625 29.25 43.1875 25.515625 
Q 47.21875 21.78125 47.21875 15.09375 
Q 47.21875 7.46875 41.1875 3.015625 
Q 35.15625 -1.421875 24.609375 -1.421875 
Q 20.21875 -1.421875 15.453125 -0.5625 
Q 10.6875 0.296875 5.421875 2 
L 5.421875 11.28125 
Q 10.40625 8.6875 15.234375 7.390625 
Q 20.0625 6.109375 24.8125 6.109375 
Q 31.15625 6.109375 34.5625 8.28125 
Q 37.984375 10.453125 37.984375 14.40625 
Q 37.984375 18.0625 35.515625 20.015625 
Q 33.0625 21.96875 24.703125 23.78125 
L 21.578125 24.515625 
Q 13.234375 26.265625 9.515625 29.90625 
Q 5.8125 33.546875 5.8125 39.890625 
Q 5.8125 47.609375 11.28125 51.796875 
Q 16.75 56 26.8125 56 
Q 31.78125 56 36.171875 55.265625 
Q 40.578125 54.546875 44.28125 53.078125 
" id="BitstreamVeraSans-Roman-73"/>
     </defs>
     <g transform="translate(36.6375 164.70859375)rotate(-90.0)scale(0.1 -0.1)">
      <use xlink:href="#BitstreamVeraSans-Roman-4c"/>
      <use x="55.697265625" xlink:href="#BitstreamVeraSans-Roman-6f"/>
      <use x="116.87890625" xlink:href="#BitstreamVeraSans-Roman-6d"/>
      <use x="214.291015625" xlink:href="#BitstreamVeraSans-Roman-62"/>
      <use x="277.767578125" xlink:href="#BitstreamVeraSans-Roman-20"/>
      <use x="309.5546875" xlink:href="#BitstreamVeraSans-Roman-53"/>
      <use x="373.03125" xlink:href="#BitstreamVeraSans-Roman-63"/>
      <use x="428.01171875" xlink:href="#BitstreamVeraSans-Roman-61"/>
      <use x="489.291015625" xlink:href="#BitstreamVeraSans-Roman-72"/>
      <use x="530.388671875" xlink:href="#BitstreamVeraSans-Roman-67"/>
      <use x="593.865234375" xlink:href="#BitstreamVeraSans-Roman-6c"/>
      <use x="621.6484375" xlink:href="#BitstreamVeraSans-Roman-65"/>
      <use x="683.171875" xlink:href="#BitstreamVeraSans-Roman-20"/>
      <use x="714.958984375" xlink:href="#BitstreamVeraSans-Roman-73"/>
      <use x="767.05859375" xlink:href="#BitstreamVeraSans-Roman-70"/>
      <use x="830.53515625" xlink:href="#BitstreamVeraSans-Roman-65"/>
      <use x="892.05859375" xlink:href="#BitstreamVeraSans-Roman-63"/>
      <use x="947.0390625" xlink:href="#BitstreamVeraSans-Roman-74"/>
      <use x="986.248046875" xlink:href="#BitstreamVeraSans-Roman-72"/>
      <use x="1027.361328125" xlink:href="#BitstreamVeraSans-Roman-75"/>
      <use x="1090.740234375" xlink:href="#BitstreamVeraSans-Roman-6d"/>
     </g>
    </g>
   </g>
  </g>
  <g id="axes_2">
   <g id="patch_7">
    <path d="M 315.490909 189 
L 518.4 189 
L 518.4 21.6 
L 315.490909 21.6 
z
" style="fill:#ffffff;"/>
   </g>
   <g id="PathCollection_2">
    <g clip-path="url(#pf36050d84d)">
     <use style="fill:#0000ff;stroke:#000000;" x="340.854545455" xlink:href="#m81ecaa02d3" y="32.9473621489"/>
     <use style="fill:#0000ff;stroke:#000000;" x="343.960296846" xlink:href="#m81ecaa02d3" y="54.2226357212"/>
     <use style="fill:#0000ff;stroke:#000000;" x="347.066048237" xlink:href="#m81ecaa02d3" y="96.5430883269"/>
     <use style="fill:#0000ff;stroke:#000000;" x="350.171799629" xlink:href="#m81ecaa02d3" y="67.4465851373"/>
     <use style="fill:#0000ff;stroke:#000000;" x="353.27755102" xlink:href="#m81ecaa02d3" y="94.2975700886"/>
     <use style="fill:#0000ff;stroke:#000000;" x="356.383302412" xlink:href="#m81ecaa02d3" y="86.3230683379"/>
     <use style="fill:#0000ff;stroke:#000000;" x="359.489053803" xlink:href="#m81ecaa02d3" y="150.758774542"/>
     <use style="fill:#0000ff;stroke:#000000;" x="362.594805195" xlink:href="#m81ecaa02d3" y="138.059898773"/>
     <use style="fill:#0000ff;stroke:#000000;" x="365.700556586" xlink:href="#m81ecaa02d3" y="115.2186639"/>
     <use style="fill:#0000ff;stroke:#000000;" x="368.806307978" xlink:href="#m81ecaa02d3" y="132.660709334"/>
     <use style="fill:#0000ff;stroke:#000000;" x="371.912059369" xlink:href="#m81ecaa02d3" y="145.912188473"/>
     <use style="fill:#0000ff;stroke:#000000;" x="375.017810761" xlink:href="#m81ecaa02d3" y="116.398750806"/>
     <use style="fill:#0000ff;stroke:#000000;" x="378.123562152" xlink:href="#m81ecaa02d3" y="112.605327287"/>
     <use style="fill:#0000ff;stroke:#000000;" x="381.229313544" xlink:href="#m81ecaa02d3" y="99.9390798093"/>
     <use style="fill:#0000ff;stroke:#000000;" x="384.335064935" xlink:href="#m81ecaa02d3" y="102.178108649"/>
     <use style="fill:#0000ff;stroke:#000000;" x="387.440816327" xlink:href="#m81ecaa02d3" y="77.2708519944"/>
     <use style="fill:#0000ff;stroke:#000000;" x="390.546567718" xlink:href="#m81ecaa02d3" y="63.8931798101"/>
     <use style="fill:#0000ff;stroke:#000000;" x="393.652319109" xlink:href="#m81ecaa02d3" y="57.5188904153"/>
     <use style="fill:#0000ff;stroke:#000000;" x="396.758070501" xlink:href="#m81ecaa02d3" y="52.7941712004"/>
     <use style="fill:#0000ff;stroke:#000000;" x="399.863821892" xlink:href="#m81ecaa02d3" y="87.2547259453"/>
     <use style="fill:#0000ff;stroke:#000000;" x="402.969573284" xlink:href="#m81ecaa02d3" y="114.232216007"/>
     <use style="fill:#0000ff;stroke:#000000;" x="406.075324675" xlink:href="#m81ecaa02d3" y="70.5090083266"/>
     <use style="fill:#0000ff;stroke:#000000;" x="409.181076067" xlink:href="#m81ecaa02d3" y="135.195457819"/>
     <use style="fill:#0000ff;stroke:#000000;" x="412.286827458" xlink:href="#m81ecaa02d3" y="157.23608315"/>
     <use style="fill:#0000ff;stroke:#000000;" x="415.39257885" xlink:href="#m81ecaa02d3" y="118.385039965"/>
     <use style="fill:#0000ff;stroke:#000000;" x="418.498330241" xlink:href="#m81ecaa02d3" y="160.303979589"/>
     <use style="fill:#0000ff;stroke:#000000;" x="421.604081633" xlink:href="#m81ecaa02d3" y="135.230318635"/>
     <use style="fill:#0000ff;stroke:#000000;" x="424.709833024" xlink:href="#m81ecaa02d3" y="119.344957263"/>
     <use style="fill:#0000ff;stroke:#000000;" x="427.815584416" xlink:href="#m81ecaa02d3" y="124.592208005"/>
     <use style="fill:#0000ff;stroke:#000000;" x="430.921335807" xlink:href="#m81ecaa02d3" y="120.689875607"/>
     <use style="fill:#0000ff;stroke:#000000;" x="434.027087199" xlink:href="#m81ecaa02d3" y="95.6803379362"/>
     <use style="fill:#0000ff;stroke:#000000;" x="437.13283859" xlink:href="#m81ecaa02d3" y="114.004349925"/>
     <use style="fill:#0000ff;stroke:#000000;" x="440.238589981" xlink:href="#m81ecaa02d3" y="45.5588822108"/>
     <use style="fill:#0000ff;stroke:#000000;" x="443.344341373" xlink:href="#m81ecaa02d3" y="40.0857235091"/>
     <use style="fill:#0000ff;stroke:#000000;" x="446.450092764" xlink:href="#m81ecaa02d3" y="93.2820485482"/>
     <use style="fill:#0000ff;stroke:#000000;" x="449.555844156" xlink:href="#m81ecaa02d3" y="62.4848308649"/>
     <use style="fill:#0000ff;stroke:#000000;" x="452.661595547" xlink:href="#m81ecaa02d3" y="44.4512095834"/>
     <use style="fill:#0000ff;stroke:#000000;" x="455.767346939" xlink:href="#m81ecaa02d3" y="81.6318759957"/>
     <use style="fill:#0000ff;stroke:#000000;" x="458.87309833" xlink:href="#m81ecaa02d3" y="78.8967566989"/>
     <use style="fill:#0000ff;stroke:#000000;" x="461.978849722" xlink:href="#m81ecaa02d3" y="109.89303371"/>
     <use style="fill:#0000ff;stroke:#000000;" x="465.084601113" xlink:href="#m81ecaa02d3" y="144.953967705"/>
     <use style="fill:#0000ff;stroke:#000000;" x="468.190352505" xlink:href="#m81ecaa02d3" y="121.604561225"/>
     <use style="fill:#0000ff;stroke:#000000;" x="471.296103896" xlink:href="#m81ecaa02d3" y="134.549750048"/>
     <use style="fill:#0000ff;stroke:#000000;" x="474.401855288" xlink:href="#m81ecaa02d3" y="121.000441128"/>
     <use style="fill:#0000ff;stroke:#000000;" x="477.507606679" xlink:href="#m81ecaa02d3" y="171.091033788"/>
     <use style="fill:#0000ff;stroke:#000000;" x="480.613358071" xlink:href="#m81ecaa02d3" y="105.194626204"/>
     <use style="fill:#0000ff;stroke:#000000;" x="483.719109462" xlink:href="#m81ecaa02d3" y="145.334674206"/>
     <use style="fill:#0000ff;stroke:#000000;" x="486.824860853" xlink:href="#m81ecaa02d3" y="103.456802728"/>
     <use style="fill:#0000ff;stroke:#000000;" x="489.930612245" xlink:href="#m81ecaa02d3" y="101.801980702"/>
     <use style="fill:#0000ff;stroke:#000000;" x="493.036363636" xlink:href="#m81ecaa02d3" y="76.4925436219"/>
    </g>
   </g>
   <g id="line2d_30">
    <path clip-path="url(#pf36050d84d)" d="M 340.854545 60.87613 
L 342.391736 61.542225 
L 343.928926 63.5187 
L 345.466116 66.740824 
L 347.003306 71.103068 
L 348.540496 76.462563 
L 350.077686 82.643779 
L 351.614876 89.444273 
L 353.152066 96.64132 
L 354.689256 103.999208 
L 356.226446 111.276957 
L 357.763636 118.236211 
L 359.300826 124.649047 
L 360.838017 130.305436 
L 362.375207 135.020123 
L 363.912397 138.638697 
L 365.449587 141.042646 
L 366.986777 142.153236 
L 368.523967 141.934095 
L 370.061157 140.392399 
L 371.598347 137.578642 
L 373.135537 133.584977 
L 374.672727 128.542201 
L 376.209917 122.615473 
L 377.747107 115.998899 
L 379.284298 108.909182 
L 380.821488 101.578518 
L 382.358678 94.246995 
L 383.895868 87.15473 
L 385.433058 80.534004 
L 386.970248 74.601654 
L 388.507438 69.551972 
L 390.044628 65.550341 
L 391.581818 62.72782 
L 393.119008 61.17685 
L 394.656198 60.948226 
L 396.193388 62.049438 
L 397.730579 64.444418 
L 399.267769 68.054728 
L 400.804959 72.762126 
L 402.342149 78.412439 
L 403.879339 84.820611 
L 405.416529 91.776768 
L 406.953719 99.053085 
L 408.490909 106.411256 
L 410.028099 113.61029 
L 411.565289 120.41441 
L 413.102479 126.600772 
L 414.639669 131.966765 
L 416.17686 136.336647 
L 417.71405 139.567298 
L 419.25124 141.55291 
L 420.78843 142.228452 
L 422.32562 141.5718 
L 423.86281 139.604458 
L 425.4 136.390861 
L 426.93719 132.036257 
L 428.47438 126.683266 
L 430.01157 120.507204 
L 431.54876 113.710346 
L 433.08595 106.515296 
L 434.62314 99.157702 
L 436.160331 91.878535 
L 437.697521 84.916196 
L 439.234711 78.49871 
L 440.771901 72.836259 
L 442.309091 68.114295 
L 443.846281 64.487467 
L 445.383471 62.07456 
L 446.920661 60.954598 
L 448.457851 61.164263 
L 449.995041 62.696687 
L 451.532231 65.501681 
L 453.069421 69.487379 
L 454.606612 74.523243 
L 456.143802 80.444344 
L 457.680992 87.056756 
L 459.218182 94.143917 
L 460.755372 101.473711 
L 462.292562 108.806079 
L 463.829752 115.900878 
L 465.366942 122.525742 
L 466.904132 128.463701 
L 468.441322 133.520277 
L 469.978512 137.529862 
L 471.515702 140.361137 
L 473.052893 141.921374 
L 474.590083 142.159473 
L 476.127273 141.067637 
L 477.664463 138.681624 
L 479.201653 135.079579 
L 480.738843 130.379474 
L 482.276033 124.735242 
L 483.813223 118.331741 
L 485.350413 111.378692 
L 486.887603 104.103816 
L 488.424793 96.745376 
L 489.961983 89.544368 
L 491.499174 82.736636 
L 493.036364 76.545141 
" style="fill:none;stroke:#008000;stroke-linecap:square;"/>
   </g>
   <g id="patch_8">
    <path d="M 518.4 189 
L 518.4 21.6 
" style="fill:none;stroke:#000000;stroke-linecap:square;stroke-linejoin:miter;"/>
   </g>
   <g id="patch_9">
    <path d="M 315.490909 189 
L 315.490909 21.6 
" style="fill:none;stroke:#000000;stroke-linecap:square;stroke-linejoin:miter;"/>
   </g>
   <g id="patch_10">
    <path d="M 315.490909 189 
L 518.4 189 
" style="fill:none;stroke:#000000;stroke-linecap:square;stroke-linejoin:miter;"/>
   </g>
   <g id="patch_11">
    <path d="M 315.490909 21.6 
L 518.4 21.6 
" style="fill:none;stroke:#000000;stroke-linecap:square;stroke-linejoin:miter;"/>
   </g>
   <g id="matplotlib.axis_3">
    <g id="xtick_8">
     <g id="line2d_31">
      <g>
       <use style="stroke:#000000;stroke-width:0.5;" x="315.490909091" xlink:href="#m8cf184e67b" y="189.0"/>
      </g>
     </g>
     <g id="line2d_32">
      <g>
       <use style="stroke:#000000;stroke-width:0.5;" x="315.490909091" xlink:href="#m70ea6a86a0" y="21.6"/>
      </g>
     </g>
     <g id="text_17">
      <!-- −1 -->
      <g transform="translate(308.119815341 200.5984375)scale(0.1 -0.1)">
       <use xlink:href="#BitstreamVeraSans-Roman-2212"/>
       <use x="83.7890625" xlink:href="#BitstreamVeraSans-Roman-31"/>
      </g>
     </g>
    </g>
    <g id="xtick_9">
     <g id="line2d_33">
      <g>
       <use style="stroke:#000000;stroke-width:0.5;" x="340.854545455" xlink:href="#m8cf184e67b" y="189.0"/>
      </g>
     </g>
     <g id="line2d_34">
      <g>
       <use style="stroke:#000000;stroke-width:0.5;" x="340.854545455" xlink:href="#m70ea6a86a0" y="21.6"/>
      </g>
     </g>
     <g id="text_18">
      <!-- 0 -->
      <g transform="translate(337.673295455 200.5984375)scale(0.1 -0.1)">
       <use xlink:href="#BitstreamVeraSans-Roman-30"/>
      </g>
     </g>
    </g>
    <g id="xtick_10">
     <g id="line2d_35">
      <g>
       <use style="stroke:#000000;stroke-width:0.5;" x="366.218181818" xlink:href="#m8cf184e67b" y="189.0"/>
      </g>
     </g>
     <g id="line2d_36">
      <g>
       <use style="stroke:#000000;stroke-width:0.5;" x="366.218181818" xlink:href="#m70ea6a86a0" y="21.6"/>
      </g>
     </g>
     <g id="text_19">
      <!-- 1 -->
      <g transform="translate(363.036931818 200.5984375)scale(0.1 -0.1)">
       <use xlink:href="#BitstreamVeraSans-Roman-31"/>
      </g>
     </g>
    </g>
    <g id="xtick_11">
     <g id="line2d_37">
      <g>
       <use style="stroke:#000000;stroke-width:0.5;" x="391.581818182" xlink:href="#m8cf184e67b" y="189.0"/>
      </g>
     </g>
     <g id="line2d_38">
      <g>
       <use style="stroke:#000000;stroke-width:0.5;" x="391.581818182" xlink:href="#m70ea6a86a0" y="21.6"/>
      </g>
     </g>
     <g id="text_20">
      <!-- 2 -->
      <g transform="translate(388.400568182 200.5984375)scale(0.1 -0.1)">
       <use xlink:href="#BitstreamVeraSans-Roman-32"/>
      </g>
     </g>
    </g>
    <g id="xtick_12">
     <g id="line2d_39">
      <g>
       <use style="stroke:#000000;stroke-width:0.5;" x="416.945454545" xlink:href="#m8cf184e67b" y="189.0"/>
      </g>
     </g>
     <g id="line2d_40">
      <g>
       <use style="stroke:#000000;stroke-width:0.5;" x="416.945454545" xlink:href="#m70ea6a86a0" y="21.6"/>
      </g>
     </g>
     <g id="text_21">
      <!-- 3 -->
      <defs>
       <path d="M 40.578125 39.3125 
Q 47.65625 37.796875 51.625 33 
Q 55.609375 28.21875 55.609375 21.1875 
Q 55.609375 10.40625 48.1875 4.484375 
Q 40.765625 -1.421875 27.09375 -1.421875 
Q 22.515625 -1.421875 17.65625 -0.515625 
Q 12.796875 0.390625 7.625 2.203125 
L 7.625 11.71875 
Q 11.71875 9.328125 16.59375 8.109375 
Q 21.484375 6.890625 26.8125 6.890625 
Q 36.078125 6.890625 40.9375 10.546875 
Q 45.796875 14.203125 45.796875 21.1875 
Q 45.796875 27.640625 41.28125 31.265625 
Q 36.765625 34.90625 28.71875 34.90625 
L 20.21875 34.90625 
L 20.21875 43.015625 
L 29.109375 43.015625 
Q 36.375 43.015625 40.234375 45.921875 
Q 44.09375 48.828125 44.09375 54.296875 
Q 44.09375 59.90625 40.109375 62.90625 
Q 36.140625 65.921875 28.71875 65.921875 
Q 24.65625 65.921875 20.015625 65.03125 
Q 15.375 64.15625 9.8125 62.3125 
L 9.8125 71.09375 
Q 15.4375 72.65625 20.34375 73.4375 
Q 25.25 74.21875 29.59375 74.21875 
Q 40.828125 74.21875 47.359375 69.109375 
Q 53.90625 64.015625 53.90625 55.328125 
Q 53.90625 49.265625 50.4375 45.09375 
Q 46.96875 40.921875 40.578125 39.3125 
" id="BitstreamVeraSans-Roman-33"/>
      </defs>
      <g transform="translate(413.764204545 200.5984375)scale(0.1 -0.1)">
       <use xlink:href="#BitstreamVeraSans-Roman-33"/>
      </g>
     </g>
    </g>
    <g id="xtick_13">
     <g id="line2d_41">
      <g>
       <use style="stroke:#000000;stroke-width:0.5;" x="442.309090909" xlink:href="#m8cf184e67b" y="189.0"/>
      </g>
     </g>
     <g id="line2d_42">
      <g>
       <use style="stroke:#000000;stroke-width:0.5;" x="442.309090909" xlink:href="#m70ea6a86a0" y="21.6"/>
      </g>
     </g>
     <g id="text_22">
      <!-- 4 -->
      <g transform="translate(439.127840909 200.5984375)scale(0.1 -0.1)">
       <use xlink:href="#BitstreamVeraSans-Roman-34"/>
      </g>
     </g>
    </g>
    <g id="xtick_14">
     <g id="line2d_43">
      <g>
       <use style="stroke:#000000;stroke-width:0.5;" x="467.672727273" xlink:href="#m8cf184e67b" y="189.0"/>
      </g>
     </g>
     <g id="line2d_44">
      <g>
       <use style="stroke:#000000;stroke-width:0.5;" x="467.672727273" xlink:href="#m70ea6a86a0" y="21.6"/>
      </g>
     </g>
     <g id="text_23">
      <!-- 5 -->
      <g transform="translate(464.491477273 200.5984375)scale(0.1 -0.1)">
       <use xlink:href="#BitstreamVeraSans-Roman-35"/>
      </g>
     </g>
    </g>
    <g id="xtick_15">
     <g id="line2d_45">
      <g>
       <use style="stroke:#000000;stroke-width:0.5;" x="493.036363636" xlink:href="#m8cf184e67b" y="189.0"/>
      </g>
     </g>
     <g id="line2d_46">
      <g>
       <use style="stroke:#000000;stroke-width:0.5;" x="493.036363636" xlink:href="#m70ea6a86a0" y="21.6"/>
      </g>
     </g>
     <g id="text_24">
      <!-- 6 -->
      <g transform="translate(489.855113636 200.5984375)scale(0.1 -0.1)">
       <use xlink:href="#BitstreamVeraSans-Roman-36"/>
      </g>
     </g>
    </g>
    <g id="xtick_16">
     <g id="line2d_47">
      <g>
       <use style="stroke:#000000;stroke-width:0.5;" x="518.4" xlink:href="#m8cf184e67b" y="189.0"/>
      </g>
     </g>
     <g id="line2d_48">
      <g>
       <use style="stroke:#000000;stroke-width:0.5;" x="518.4" xlink:href="#m70ea6a86a0" y="21.6"/>
      </g>
     </g>
     <g id="text_25">
      <!-- 7 -->
      <defs>
       <path d="M 8.203125 72.90625 
L 55.078125 72.90625 
L 55.078125 68.703125 
L 28.609375 0 
L 18.3125 0 
L 43.21875 64.59375 
L 8.203125 64.59375 
z
" id="BitstreamVeraSans-Roman-37"/>
      </defs>
      <g transform="translate(515.21875 200.5984375)scale(0.1 -0.1)">
       <use xlink:href="#BitstreamVeraSans-Roman-37"/>
      </g>
     </g>
    </g>
    <g id="text_26">
     <!-- x_data -->
     <g transform="translate(400.223579545 215.2765625)scale(0.1 -0.1)">
      <use xlink:href="#BitstreamVeraSans-Roman-78"/>
      <use x="59.1796875" xlink:href="#BitstreamVeraSans-Roman-5f"/>
      <use x="109.1796875" xlink:href="#BitstreamVeraSans-Roman-64"/>
      <use x="172.65625" xlink:href="#BitstreamVeraSans-Roman-61"/>
      <use x="233.935546875" xlink:href="#BitstreamVeraSans-Roman-74"/>
      <use x="273.14453125" xlink:href="#BitstreamVeraSans-Roman-61"/>
     </g>
    </g>
   </g>
   <g id="matplotlib.axis_4">
    <g id="ytick_8">
     <g id="line2d_49">
      <g>
       <use style="stroke:#000000;stroke-width:0.5;" x="315.490909091" xlink:href="#m7cf505f2cd" y="189.0"/>
      </g>
     </g>
     <g id="line2d_50">
      <g>
       <use style="stroke:#000000;stroke-width:0.5;" x="518.4" xlink:href="#me15135c539" y="189.0"/>
      </g>
     </g>
     <g id="text_27">
      <!-- 1 -->
      <g transform="translate(305.128409091 191.759375)scale(0.1 -0.1)">
       <use xlink:href="#BitstreamVeraSans-Roman-31"/>
      </g>
     </g>
    </g>
    <g id="ytick_9">
     <g id="line2d_51">
      <g>
       <use style="stroke:#000000;stroke-width:0.5;" x="315.490909091" xlink:href="#m7cf505f2cd" y="168.075"/>
      </g>
     </g>
     <g id="line2d_52">
      <g>
       <use style="stroke:#000000;stroke-width:0.5;" x="518.4" xlink:href="#me15135c539" y="168.075"/>
      </g>
     </g>
     <g id="text_28">
      <!-- 2 -->
      <g transform="translate(305.128409091 170.834375)scale(0.1 -0.1)">
       <use xlink:href="#BitstreamVeraSans-Roman-32"/>
      </g>
     </g>
    </g>
    <g id="ytick_10">
     <g id="line2d_53">
      <g>
       <use style="stroke:#000000;stroke-width:0.5;" x="315.490909091" xlink:href="#m7cf505f2cd" y="147.15"/>
      </g>
     </g>
     <g id="line2d_54">
      <g>
       <use style="stroke:#000000;stroke-width:0.5;" x="518.4" xlink:href="#me15135c539" y="147.15"/>
      </g>
     </g>
     <g id="text_29">
      <!-- 3 -->
      <g transform="translate(305.128409091 149.909375)scale(0.1 -0.1)">
       <use xlink:href="#BitstreamVeraSans-Roman-33"/>
      </g>
     </g>
    </g>
    <g id="ytick_11">
     <g id="line2d_55">
      <g>
       <use style="stroke:#000000;stroke-width:0.5;" x="315.490909091" xlink:href="#m7cf505f2cd" y="126.225"/>
      </g>
     </g>
     <g id="line2d_56">
      <g>
       <use style="stroke:#000000;stroke-width:0.5;" x="518.4" xlink:href="#me15135c539" y="126.225"/>
      </g>
     </g>
     <g id="text_30">
      <!-- 4 -->
      <g transform="translate(305.128409091 128.984375)scale(0.1 -0.1)">
       <use xlink:href="#BitstreamVeraSans-Roman-34"/>
      </g>
     </g>
    </g>
    <g id="ytick_12">
     <g id="line2d_57">
      <g>
       <use style="stroke:#000000;stroke-width:0.5;" x="315.490909091" xlink:href="#m7cf505f2cd" y="105.3"/>
      </g>
     </g>
     <g id="line2d_58">
      <g>
       <use style="stroke:#000000;stroke-width:0.5;" x="518.4" xlink:href="#me15135c539" y="105.3"/>
      </g>
     </g>
     <g id="text_31">
      <!-- 5 -->
      <g transform="translate(305.128409091 108.059375)scale(0.1 -0.1)">
       <use xlink:href="#BitstreamVeraSans-Roman-35"/>
      </g>
     </g>
    </g>
    <g id="ytick_13">
     <g id="line2d_59">
      <g>
       <use style="stroke:#000000;stroke-width:0.5;" x="315.490909091" xlink:href="#m7cf505f2cd" y="84.375"/>
      </g>
     </g>
     <g id="line2d_60">
      <g>
       <use style="stroke:#000000;stroke-width:0.5;" x="518.4" xlink:href="#me15135c539" y="84.375"/>
      </g>
     </g>
     <g id="text_32">
      <!-- 6 -->
      <g transform="translate(305.128409091 87.134375)scale(0.1 -0.1)">
       <use xlink:href="#BitstreamVeraSans-Roman-36"/>
      </g>
     </g>
    </g>
    <g id="ytick_14">
     <g id="line2d_61">
      <g>
       <use style="stroke:#000000;stroke-width:0.5;" x="315.490909091" xlink:href="#m7cf505f2cd" y="63.45"/>
      </g>
     </g>
     <g id="line2d_62">
      <g>
       <use style="stroke:#000000;stroke-width:0.5;" x="518.4" xlink:href="#me15135c539" y="63.45"/>
      </g>
     </g>
     <g id="text_33">
      <!-- 7 -->
      <g transform="translate(305.128409091 66.209375)scale(0.1 -0.1)">
       <use xlink:href="#BitstreamVeraSans-Roman-37"/>
      </g>
     </g>
    </g>
    <g id="ytick_15">
     <g id="line2d_63">
      <g>
       <use style="stroke:#000000;stroke-width:0.5;" x="315.490909091" xlink:href="#m7cf505f2cd" y="42.525"/>
      </g>
     </g>
     <g id="line2d_64">
      <g>
       <use style="stroke:#000000;stroke-width:0.5;" x="518.4" xlink:href="#me15135c539" y="42.525"/>
      </g>
     </g>
     <g id="text_34">
      <!-- 8 -->
      <g transform="translate(305.128409091 45.284375)scale(0.1 -0.1)">
       <use xlink:href="#BitstreamVeraSans-Roman-38"/>
      </g>
     </g>
    </g>
    <g id="ytick_16">
     <g id="line2d_65">
      <g>
       <use style="stroke:#000000;stroke-width:0.5;" x="315.490909091" xlink:href="#m7cf505f2cd" y="21.6"/>
      </g>
     </g>
     <g id="line2d_66">
      <g>
       <use style="stroke:#000000;stroke-width:0.5;" x="518.4" xlink:href="#me15135c539" y="21.6"/>
      </g>
     </g>
     <g id="text_35">
      <!-- 9 -->
      <defs>
       <path d="M 10.984375 1.515625 
L 10.984375 10.5 
Q 14.703125 8.734375 18.5 7.8125 
Q 22.3125 6.890625 25.984375 6.890625 
Q 35.75 6.890625 40.890625 13.453125 
Q 46.046875 20.015625 46.78125 33.40625 
Q 43.953125 29.203125 39.59375 26.953125 
Q 35.25 24.703125 29.984375 24.703125 
Q 19.046875 24.703125 12.671875 31.3125 
Q 6.296875 37.9375 6.296875 49.421875 
Q 6.296875 60.640625 12.9375 67.421875 
Q 19.578125 74.21875 30.609375 74.21875 
Q 43.265625 74.21875 49.921875 64.515625 
Q 56.59375 54.828125 56.59375 36.375 
Q 56.59375 19.140625 48.40625 8.859375 
Q 40.234375 -1.421875 26.421875 -1.421875 
Q 22.703125 -1.421875 18.890625 -0.6875 
Q 15.09375 0.046875 10.984375 1.515625 
M 30.609375 32.421875 
Q 37.25 32.421875 41.125 36.953125 
Q 45.015625 41.5 45.015625 49.421875 
Q 45.015625 57.28125 41.125 61.84375 
Q 37.25 66.40625 30.609375 66.40625 
Q 23.96875 66.40625 20.09375 61.84375 
Q 16.21875 57.28125 16.21875 49.421875 
Q 16.21875 41.5 20.09375 36.953125 
Q 23.96875 32.421875 30.609375 32.421875 
" id="BitstreamVeraSans-Roman-39"/>
      </defs>
      <g transform="translate(305.128409091 24.359375)scale(0.1 -0.1)">
       <use xlink:href="#BitstreamVeraSans-Roman-39"/>
      </g>
     </g>
    </g>
    <g id="text_36">
     <!-- y_data -->
     <defs>
      <path d="M 32.171875 -5.078125 
Q 28.375 -14.84375 24.75 -17.8125 
Q 21.140625 -20.796875 15.09375 -20.796875 
L 7.90625 -20.796875 
L 7.90625 -13.28125 
L 13.1875 -13.28125 
Q 16.890625 -13.28125 18.9375 -11.515625 
Q 21 -9.765625 23.484375 -3.21875 
L 25.09375 0.875 
L 2.984375 54.6875 
L 12.5 54.6875 
L 29.59375 11.921875 
L 46.6875 54.6875 
L 56.203125 54.6875 
z
" id="BitstreamVeraSans-Roman-79"/>
     </defs>
     <g transform="translate(297.770596591 122.021875)rotate(-90.0)scale(0.1 -0.1)">
      <use xlink:href="#BitstreamVeraSans-Roman-79"/>
      <use x="59.1796875" xlink:href="#BitstreamVeraSans-Roman-5f"/>
      <use x="109.1796875" xlink:href="#BitstreamVeraSans-Roman-64"/>
      <use x="172.65625" xlink:href="#BitstreamVeraSans-Roman-61"/>
      <use x="233.935546875" xlink:href="#BitstreamVeraSans-Roman-74"/>
      <use x="273.14453125" xlink:href="#BitstreamVeraSans-Roman-61"/>
     </g>
    </g>
   </g>
  </g>
 </g>
 <defs>
  <clipPath id="pf36050d84d">
   <rect height="167.4" width="202.909090909" x="315.490909091" y="21.6"/>
  </clipPath>
  <clipPath id="p60da0e6fb9">
   <rect height="167.4" width="202.909090909" x="72.0" y="21.6"/>
  </clipPath>
 </defs>
</svg>
