<?xml version="1.0" encoding="utf-8" standalone="no"?>
<svg height="288pt" version="1.1" viewBox="0 0 720 288" width="720pt" xmlns="http://www.w3.org/2000/svg" xmlns:xlink="http://www.w3.org/1999/xlink">
 <defs>
  <style type="text/css">
*{stroke-linecap:butt;stroke-linejoin:round;}
  </style>
 </defs>
 <g id="figure_1">
  <g id="patch_1">
   <path d="M 0 288 
L 720 288 
L 720 0 
L 0 0 
z
" style="fill:#ffffff;"/>
  </g>
  <g id="axes_1">
   <g id="patch_2">
    <path d="M 90 252 
L 343.636364 252 
L 343.636364 34.56 
L 90 34.56 
z
" style="fill:#fefbf3;"/>
   </g>
   <g id="PolyCollection_1">
    <defs>
     <path d="M 90 -64.087799 
L 90 -64.087799 
L 92.561983 -64.166963 
L 95.123967 -64.283258 
L 97.68595 -64.451661 
L 100.247934 -64.692017 
L 102.809917 -65.030098 
L 105.371901 -65.498691 
L 107.933884 -66.138605 
L 110.495868 -66.99946 
L 113.057851 -68.140103 
L 115.619835 -69.628428 
L 118.181818 -71.540428 
L 120.743802 -73.958234 
L 123.305785 -76.967044 
L 125.867769 -80.650837 
L 128.429752 -85.087018 
L 130.991736 -90.340254 
L 133.553719 -96.456064 
L 136.115702 -103.454833 
L 138.677686 -111.326848 
L 141.239669 -120.028525 
L 143.801653 -129.479373 
L 146.363636 -139.559093 
L 148.92562 -150.104869 
L 151.487603 -160.910004 
L 154.049587 -171.725412 
L 156.61157 -182.265014 
L 159.173554 -192.215127 
L 161.735537 -201.247145 
L 164.297521 -209.032547 
L 166.859504 -215.259636 
L 169.421488 -219.652825 
L 171.983471 -221.996839 
L 174.545455 -222.165522 
L 177.107438 -220.144716 
L 179.669421 -216.033965 
L 182.231405 -210.026917 
L 184.793388 -202.384979 
L 187.355372 -193.414061 
L 189.917355 -183.445043 
L 192.479339 -172.816168 
L 195.041322 -161.856781 
L 197.603306 -150.872938 
L 200.165289 -140.135717 
L 202.727273 -129.872873 
L 205.289256 -120.26412 
L 207.85124 -111.439898 
L 210.413223 -103.483178 
L 212.975207 -96.433588 
L 215.53719 -90.293149 
L 218.099174 -85.032894 
L 220.661157 -80.599834 
L 223.22314 -76.92383 
L 225.785124 -73.924023 
L 228.347107 -71.51458 
L 230.909091 -69.609537 
L 233.471074 -68.126614 
L 236.033058 -66.989986 
L 238.595041 -66.132022 
L 241.157025 -65.494151 
L 243.719008 -65.026983 
L 246.280992 -64.68989 
L 248.842975 -64.450216 
L 251.404959 -64.282281 
L 253.966942 -64.166307 
L 256.528926 -64.087363 
L 259.090909 -64.034388 
L 261.652893 -63.999343 
L 264.214876 -63.976484 
L 266.77686 -63.961783 
L 269.338843 -63.95246 
L 271.900826 -63.94663 
L 274.46281 -63.943034 
L 277.024793 -63.940847 
L 279.586777 -63.939536 
L 282.14876 -63.93876 
L 284.710744 -63.938307 
L 287.272727 -63.938046 
L 289.834711 -63.937898 
L 292.396694 -63.937816 
L 294.958678 -63.93777 
L 297.520661 -63.937745 
L 300.082645 -63.937732 
L 302.644628 -63.937725 
L 305.206612 -63.937721 
L 307.768595 -63.937719 
L 310.330579 -63.937718 
L 312.892562 -63.937717 
L 315.454545 -63.937717 
L 318.016529 -63.937717 
L 320.578512 -63.937717 
L 323.140496 -63.937717 
L 325.702479 -63.937717 
L 328.264463 -63.937717 
L 330.826446 -63.937717 
L 333.38843 -63.937717 
L 335.950413 -63.937717 
L 338.512397 -63.937717 
L 341.07438 -63.937717 
L 343.636364 -63.937717 
L 343.636364 -63.937717 
L 343.636364 -77.722984 
L 341.07438 -77.722984 
L 338.512397 -77.722984 
L 335.950413 -77.722984 
L 333.38843 -77.722984 
L 330.826446 -77.722984 
L 328.264463 -77.722984 
L 325.702479 -77.722984 
L 323.140496 -77.722984 
L 320.578512 -77.722984 
L 318.016529 -77.722984 
L 315.454545 -77.722985 
L 312.892562 -77.722985 
L 310.330579 -77.722985 
L 307.768595 -77.722986 
L 305.206612 -77.722989 
L 302.644628 -77.722993 
L 300.082645 -77.723 
L 297.520661 -77.723014 
L 294.958678 -77.723041 
L 292.396694 -77.723089 
L 289.834711 -77.723176 
L 287.272727 -77.723331 
L 284.710744 -77.723603 
L 282.14876 -77.724075 
L 279.586777 -77.724879 
L 277.024793 -77.726235 
L 274.46281 -77.728487 
L 271.900826 -77.732177 
L 269.338843 -77.738138 
L 266.77686 -77.747638 
L 264.214876 -77.762565 
L 261.652893 -77.785695 
L 259.090909 -77.821039 
L 256.528926 -77.874291 
L 253.966942 -77.953402 
L 251.404959 -78.069285 
L 248.842975 -78.236646 
L 246.280992 -78.474947 
L 243.719008 -78.809465 
L 241.157025 -79.27239 
L 238.595041 -79.903893 
L 236.033058 -80.75303 
L 233.471074 -81.87835 
L 230.909091 -83.347995 
L 228.347107 -85.23909 
L 225.785124 -87.636184 
L 223.22314 -90.628499 
L 220.661157 -94.305834 
L 218.099174 -98.753005 
L 215.53719 -104.042909 
L 212.975207 -110.228483 
L 210.413223 -117.334103 
L 207.85124 -125.347193 
L 205.289256 -134.210972 
L 202.727273 -143.819302 
L 200.165289 -154.014481 
L 197.603306 -164.588605 
L 195.041322 -175.288861 
L 192.479339 -185.826793 
L 189.917355 -195.891278 
L 187.355372 -205.164638 
L 184.793388 -213.340932 
L 182.231405 -220.145051 
L 179.669421 -225.350469 
L 177.107438 -228.792222 
L 174.545455 -230.370543 
L 171.983471 -230.043428 
L 169.421488 -227.816287 
L 166.859504 -223.742353 
L 164.297521 -217.933886 
L 161.735537 -210.569958 
L 159.173554 -201.892168 
L 156.61157 -192.190476 
L 154.049587 -181.78432 
L 151.487603 -171.002682 
L 148.92562 -160.165082 
L 146.363636 -149.564616 
L 143.801653 -139.453736 
L 141.239669 -130.033585 
L 138.677686 -121.447845 
L 136.115702 -113.782009 
L 133.553719 -107.068044 
L 130.991736 -101.293105 
L 128.429752 -96.410126 
L 125.867769 -92.348359 
L 123.305785 -89.022711 
L 120.743802 -86.341431 
L 118.181818 -84.212117 
L 115.619835 -82.546161 
L 113.057851 -81.2618 
L 110.495868 -80.285986 
L 107.933884 -79.55527 
L 105.371901 -79.015921 
L 102.809917 -78.623494 
L 100.247934 -78.342017 
L 97.68595 -78.142977 
L 95.123967 -78.004215 
L 92.561983 -77.908836 
L 90 -77.844196 
z
" id="me77e3874fd" style="stroke:#dfb4af;"/>
    </defs>
    <g clip-path="url(#pb65fdcbf4d)">
     <use style="fill:#dfb4af;stroke:#dfb4af;" x="0" xlink:href="#me77e3874fd" y="288"/>
    </g>
   </g>
   <g id="matplotlib.axis_1">
    <g id="xtick_1">
     <g id="line2d_1">
      <path clip-path="url(#pb65fdcbf4d)" d="M 128.81792 252 
L 128.81792 34.56 
" style="fill:none;stroke:#b0b0b0;stroke-dasharray:0.5,0.825;stroke-dashoffset:0;stroke-width:0.5;"/>
     </g>
     <g id="line2d_2">
      <defs>
       <path d="M 0 0 
L 0 3.5 
" id="me721994bda" style="stroke:#000000;stroke-width:0.8;"/>
      </defs>
      <g>
       <use style="stroke:#000000;stroke-width:0.8;" x="128.81792" xlink:href="#me721994bda" y="252"/>
      </g>
     </g>
     <g id="text_1">
      <!-- 6 -->
      <defs>
       <path d="M 33.015625 40.375 
Q 26.375 40.375 22.484375 35.828125 
Q 18.609375 31.296875 18.609375 23.390625 
Q 18.609375 15.53125 22.484375 10.953125 
Q 26.375 6.390625 33.015625 6.390625 
Q 39.65625 6.390625 43.53125 10.953125 
Q 47.40625 15.53125 47.40625 23.390625 
Q 47.40625 31.296875 43.53125 35.828125 
Q 39.65625 40.375 33.015625 40.375 
z
M 52.59375 71.296875 
L 52.59375 62.3125 
Q 48.875 64.0625 45.09375 64.984375 
Q 41.3125 65.921875 37.59375 65.921875 
Q 27.828125 65.921875 22.671875 59.328125 
Q 17.53125 52.734375 16.796875 39.40625 
Q 19.671875 43.65625 24.015625 45.921875 
Q 28.375 48.1875 33.59375 48.1875 
Q 44.578125 48.1875 50.953125 41.515625 
Q 57.328125 34.859375 57.328125 23.390625 
Q 57.328125 12.15625 50.6875 5.359375 
Q 44.046875 -1.421875 33.015625 -1.421875 
Q 20.359375 -1.421875 13.671875 8.265625 
Q 6.984375 17.96875 6.984375 36.375 
Q 6.984375 53.65625 15.1875 63.9375 
Q 23.390625 74.21875 37.203125 74.21875 
Q 40.921875 74.21875 44.703125 73.484375 
Q 48.484375 72.75 52.59375 71.296875 
z
" id="DejaVuSans-36"/>
      </defs>
      <g transform="translate(125.63667 266.598437)scale(0.1 -0.1)">
       <use xlink:href="#DejaVuSans-36"/>
      </g>
     </g>
    </g>
    <g id="xtick_2">
     <g id="line2d_3">
      <path clip-path="url(#pb65fdcbf4d)" d="M 173.34715 252 
L 173.34715 34.56 
" style="fill:none;stroke:#b0b0b0;stroke-dasharray:0.5,0.825;stroke-dashoffset:0;stroke-width:0.5;"/>
     </g>
     <g id="line2d_4">
      <g>
       <use style="stroke:#000000;stroke-width:0.8;" x="173.34715" xlink:href="#me721994bda" y="252"/>
      </g>
     </g>
     <g id="text_2">
      <!-- 8 -->
      <defs>
       <path d="M 31.78125 34.625 
Q 24.75 34.625 20.71875 30.859375 
Q 16.703125 27.09375 16.703125 20.515625 
Q 16.703125 13.921875 20.71875 10.15625 
Q 24.75 6.390625 31.78125 6.390625 
Q 38.8125 6.390625 42.859375 10.171875 
Q 46.921875 13.96875 46.921875 20.515625 
Q 46.921875 27.09375 42.890625 30.859375 
Q 38.875 34.625 31.78125 34.625 
z
M 21.921875 38.8125 
Q 15.578125 40.375 12.03125 44.71875 
Q 8.5 49.078125 8.5 55.328125 
Q 8.5 64.0625 14.71875 69.140625 
Q 20.953125 74.21875 31.78125 74.21875 
Q 42.671875 74.21875 48.875 69.140625 
Q 55.078125 64.0625 55.078125 55.328125 
Q 55.078125 49.078125 51.53125 44.71875 
Q 48 40.375 41.703125 38.8125 
Q 48.828125 37.15625 52.796875 32.3125 
Q 56.78125 27.484375 56.78125 20.515625 
Q 56.78125 9.90625 50.3125 4.234375 
Q 43.84375 -1.421875 31.78125 -1.421875 
Q 19.734375 -1.421875 13.25 4.234375 
Q 6.78125 9.90625 6.78125 20.515625 
Q 6.78125 27.484375 10.78125 32.3125 
Q 14.796875 37.15625 21.921875 38.8125 
z
M 18.3125 54.390625 
Q 18.3125 48.734375 21.84375 45.5625 
Q 25.390625 42.390625 31.78125 42.390625 
Q 38.140625 42.390625 41.71875 45.5625 
Q 45.3125 48.734375 45.3125 54.390625 
Q 45.3125 60.0625 41.71875 63.234375 
Q 38.140625 66.40625 31.78125 66.40625 
Q 25.390625 66.40625 21.84375 63.234375 
Q 18.3125 60.0625 18.3125 54.390625 
z
" id="DejaVuSans-38"/>
      </defs>
      <g transform="translate(170.1659 266.598437)scale(0.1 -0.1)">
       <use xlink:href="#DejaVuSans-38"/>
      </g>
     </g>
    </g>
    <g id="xtick_3">
     <g id="line2d_5">
      <path clip-path="url(#pb65fdcbf4d)" d="M 217.87638 252 
L 217.87638 34.56 
" style="fill:none;stroke:#b0b0b0;stroke-dasharray:0.5,0.825;stroke-dashoffset:0;stroke-width:0.5;"/>
     </g>
     <g id="line2d_6">
      <g>
       <use style="stroke:#000000;stroke-width:0.8;" x="217.87638" xlink:href="#me721994bda" y="252"/>
      </g>
     </g>
     <g id="text_3">
      <!-- 10 -->
      <defs>
       <path d="M 12.40625 8.296875 
L 28.515625 8.296875 
L 28.515625 63.921875 
L 10.984375 60.40625 
L 10.984375 69.390625 
L 28.421875 72.90625 
L 38.28125 72.90625 
L 38.28125 8.296875 
L 54.390625 8.296875 
L 54.390625 0 
L 12.40625 0 
z
" id="DejaVuSans-31"/>
       <path d="M 31.78125 66.40625 
Q 24.171875 66.40625 20.328125 58.90625 
Q 16.5 51.421875 16.5 36.375 
Q 16.5 21.390625 20.328125 13.890625 
Q 24.171875 6.390625 31.78125 6.390625 
Q 39.453125 6.390625 43.28125 13.890625 
Q 47.125 21.390625 47.125 36.375 
Q 47.125 51.421875 43.28125 58.90625 
Q 39.453125 66.40625 31.78125 66.40625 
z
M 31.78125 74.21875 
Q 44.046875 74.21875 50.515625 64.515625 
Q 56.984375 54.828125 56.984375 36.375 
Q 56.984375 17.96875 50.515625 8.265625 
Q 44.046875 -1.421875 31.78125 -1.421875 
Q 19.53125 -1.421875 13.0625 8.265625 
Q 6.59375 17.96875 6.59375 36.375 
Q 6.59375 54.828125 13.0625 64.515625 
Q 19.53125 74.21875 31.78125 74.21875 
z
" id="DejaVuSans-30"/>
      </defs>
      <g transform="translate(211.51388 266.598437)scale(0.1 -0.1)">
       <use xlink:href="#DejaVuSans-31"/>
       <use x="63.623047" xlink:href="#DejaVuSans-30"/>
      </g>
     </g>
    </g>
    <g id="xtick_4">
     <g id="line2d_7">
      <path clip-path="url(#pb65fdcbf4d)" d="M 262.40561 252 
L 262.40561 34.56 
" style="fill:none;stroke:#b0b0b0;stroke-dasharray:0.5,0.825;stroke-dashoffset:0;stroke-width:0.5;"/>
     </g>
     <g id="line2d_8">
      <g>
       <use style="stroke:#000000;stroke-width:0.8;" x="262.40561" xlink:href="#me721994bda" y="252"/>
      </g>
     </g>
     <g id="text_4">
      <!-- 12 -->
      <defs>
       <path d="M 19.1875 8.296875 
L 53.609375 8.296875 
L 53.609375 0 
L 7.328125 0 
L 7.328125 8.296875 
Q 12.9375 14.109375 22.625 23.890625 
Q 32.328125 33.6875 34.8125 36.53125 
Q 39.546875 41.84375 41.421875 45.53125 
Q 43.3125 49.21875 43.3125 52.78125 
Q 43.3125 58.59375 39.234375 62.25 
Q 35.15625 65.921875 28.609375 65.921875 
Q 23.96875 65.921875 18.8125 64.3125 
Q 13.671875 62.703125 7.8125 59.421875 
L 7.8125 69.390625 
Q 13.765625 71.78125 18.9375 73 
Q 24.125 74.21875 28.421875 74.21875 
Q 39.75 74.21875 46.484375 68.546875 
Q 53.21875 62.890625 53.21875 53.421875 
Q 53.21875 48.921875 51.53125 44.890625 
Q 49.859375 40.875 45.40625 35.40625 
Q 44.1875 33.984375 37.640625 27.21875 
Q 31.109375 20.453125 19.1875 8.296875 
z
" id="DejaVuSans-32"/>
      </defs>
      <g transform="translate(256.04311 266.598437)scale(0.1 -0.1)">
       <use xlink:href="#DejaVuSans-31"/>
       <use x="63.623047" xlink:href="#DejaVuSans-32"/>
      </g>
     </g>
    </g>
    <g id="xtick_5">
     <g id="line2d_9">
      <path clip-path="url(#pb65fdcbf4d)" d="M 306.934841 252 
L 306.934841 34.56 
" style="fill:none;stroke:#b0b0b0;stroke-dasharray:0.5,0.825;stroke-dashoffset:0;stroke-width:0.5;"/>
     </g>
     <g id="line2d_10">
      <g>
       <use style="stroke:#000000;stroke-width:0.8;" x="306.934841" xlink:href="#me721994bda" y="252"/>
      </g>
     </g>
     <g id="text_5">
      <!-- 14 -->
      <defs>
       <path d="M 37.796875 64.3125 
L 12.890625 25.390625 
L 37.796875 25.390625 
z
M 35.203125 72.90625 
L 47.609375 72.90625 
L 47.609375 25.390625 
L 58.015625 25.390625 
L 58.015625 17.1875 
L 47.609375 17.1875 
L 47.609375 0 
L 37.796875 0 
L 37.796875 17.1875 
L 4.890625 17.1875 
L 4.890625 26.703125 
z
" id="DejaVuSans-34"/>
      </defs>
      <g transform="translate(300.572341 266.598437)scale(0.1 -0.1)">
       <use xlink:href="#DejaVuSans-31"/>
       <use x="63.623047" xlink:href="#DejaVuSans-34"/>
      </g>
     </g>
    </g>
   </g>
   <g id="matplotlib.axis_2">
    <g id="ytick_1">
     <g id="line2d_11">
      <path clip-path="url(#pb65fdcbf4d)" d="M 90 236.031406 
L 343.636364 236.031406 
" style="fill:none;stroke:#b0b0b0;stroke-dasharray:0.5,0.825;stroke-dashoffset:0;stroke-width:0.5;"/>
     </g>
     <g id="line2d_12">
      <defs>
       <path d="M 0 0 
L -3.5 0 
" id="m84bd8a9064" style="stroke:#000000;stroke-width:0.8;"/>
      </defs>
      <g>
       <use style="stroke:#000000;stroke-width:0.8;" x="90" xlink:href="#m84bd8a9064" y="236.031406"/>
      </g>
     </g>
     <g id="text_6">
      <!-- 0.2 -->
      <defs>
       <path d="M 10.6875 12.40625 
L 21 12.40625 
L 21 0 
L 10.6875 0 
z
" id="DejaVuSans-2e"/>
      </defs>
      <g transform="translate(67.096875 239.830625)scale(0.1 -0.1)">
       <use xlink:href="#DejaVuSans-30"/>
       <use x="63.623047" xlink:href="#DejaVuSans-2e"/>
       <use x="95.410156" xlink:href="#DejaVuSans-32"/>
      </g>
     </g>
    </g>
    <g id="ytick_2">
     <g id="line2d_13">
      <path clip-path="url(#pb65fdcbf4d)" d="M 90 203.563276 
L 343.636364 203.563276 
" style="fill:none;stroke:#b0b0b0;stroke-dasharray:0.5,0.825;stroke-dashoffset:0;stroke-width:0.5;"/>
     </g>
     <g id="line2d_14">
      <g>
       <use style="stroke:#000000;stroke-width:0.8;" x="90" xlink:href="#m84bd8a9064" y="203.563276"/>
      </g>
     </g>
     <g id="text_7">
      <!-- 0.4 -->
      <g transform="translate(67.096875 207.362495)scale(0.1 -0.1)">
       <use xlink:href="#DejaVuSans-30"/>
       <use x="63.623047" xlink:href="#DejaVuSans-2e"/>
       <use x="95.410156" xlink:href="#DejaVuSans-34"/>
      </g>
     </g>
    </g>
    <g id="ytick_3">
     <g id="line2d_15">
      <path clip-path="url(#pb65fdcbf4d)" d="M 90 171.095147 
L 343.636364 171.095147 
" style="fill:none;stroke:#b0b0b0;stroke-dasharray:0.5,0.825;stroke-dashoffset:0;stroke-width:0.5;"/>
     </g>
     <g id="line2d_16">
      <g>
       <use style="stroke:#000000;stroke-width:0.8;" x="90" xlink:href="#m84bd8a9064" y="171.095147"/>
      </g>
     </g>
     <g id="text_8">
      <!-- 0.6 -->
      <g transform="translate(67.096875 174.894365)scale(0.1 -0.1)">
       <use xlink:href="#DejaVuSans-30"/>
       <use x="63.623047" xlink:href="#DejaVuSans-2e"/>
       <use x="95.410156" xlink:href="#DejaVuSans-36"/>
      </g>
     </g>
    </g>
    <g id="ytick_4">
     <g id="line2d_17">
      <path clip-path="url(#pb65fdcbf4d)" d="M 90 138.627017 
L 343.636364 138.627017 
" style="fill:none;stroke:#b0b0b0;stroke-dasharray:0.5,0.825;stroke-dashoffset:0;stroke-width:0.5;"/>
     </g>
     <g id="line2d_18">
      <g>
       <use style="stroke:#000000;stroke-width:0.8;" x="90" xlink:href="#m84bd8a9064" y="138.627017"/>
      </g>
     </g>
     <g id="text_9">
      <!-- 0.8 -->
      <g transform="translate(67.096875 142.426236)scale(0.1 -0.1)">
       <use xlink:href="#DejaVuSans-30"/>
       <use x="63.623047" xlink:href="#DejaVuSans-2e"/>
       <use x="95.410156" xlink:href="#DejaVuSans-38"/>
      </g>
     </g>
    </g>
    <g id="ytick_5">
     <g id="line2d_19">
      <path clip-path="url(#pb65fdcbf4d)" d="M 90 106.158887 
L 343.636364 106.158887 
" style="fill:none;stroke:#b0b0b0;stroke-dasharray:0.5,0.825;stroke-dashoffset:0;stroke-width:0.5;"/>
     </g>
     <g id="line2d_20">
      <g>
       <use style="stroke:#000000;stroke-width:0.8;" x="90" xlink:href="#m84bd8a9064" y="106.158887"/>
      </g>
     </g>
     <g id="text_10">
      <!-- 1.0 -->
      <g transform="translate(67.096875 109.958106)scale(0.1 -0.1)">
       <use xlink:href="#DejaVuSans-31"/>
       <use x="63.623047" xlink:href="#DejaVuSans-2e"/>
       <use x="95.410156" xlink:href="#DejaVuSans-30"/>
      </g>
     </g>
    </g>
    <g id="ytick_6">
     <g id="line2d_21">
      <path clip-path="url(#pb65fdcbf4d)" d="M 90 73.690757 
L 343.636364 73.690757 
" style="fill:none;stroke:#b0b0b0;stroke-dasharray:0.5,0.825;stroke-dashoffset:0;stroke-width:0.5;"/>
     </g>
     <g id="line2d_22">
      <g>
       <use style="stroke:#000000;stroke-width:0.8;" x="90" xlink:href="#m84bd8a9064" y="73.690757"/>
      </g>
     </g>
     <g id="text_11">
      <!-- 1.2 -->
      <g transform="translate(67.096875 77.489976)scale(0.1 -0.1)">
       <use xlink:href="#DejaVuSans-31"/>
       <use x="63.623047" xlink:href="#DejaVuSans-2e"/>
       <use x="95.410156" xlink:href="#DejaVuSans-32"/>
      </g>
     </g>
    </g>
    <g id="ytick_7">
     <g id="line2d_23">
      <path clip-path="url(#pb65fdcbf4d)" d="M 90 41.222628 
L 343.636364 41.222628 
" style="fill:none;stroke:#b0b0b0;stroke-dasharray:0.5,0.825;stroke-dashoffset:0;stroke-width:0.5;"/>
     </g>
     <g id="line2d_24">
      <g>
       <use style="stroke:#000000;stroke-width:0.8;" x="90" xlink:href="#m84bd8a9064" y="41.222628"/>
      </g>
     </g>
     <g id="text_12">
      <!-- 1.4 -->
      <g transform="translate(67.096875 45.021846)scale(0.1 -0.1)">
       <use xlink:href="#DejaVuSans-31"/>
       <use x="63.623047" xlink:href="#DejaVuSans-2e"/>
       <use x="95.410156" xlink:href="#DejaVuSans-34"/>
      </g>
     </g>
    </g>
   </g>
   <g id="LineCollection_1">
    <path clip-path="url(#pb65fdcbf4d)" d="M 189.943221 109.048255 
L 189.943221 93.297914 
" style="fill:none;stroke:#a52a2a;stroke-width:1.5;"/>
    <path clip-path="url(#pb65fdcbf4d)" d="M 318.226186 249.096751 
L 318.226186 193.350582 
" style="fill:none;stroke:#a52a2a;stroke-width:1.5;"/>
    <path clip-path="url(#pb65fdcbf4d)" d="M 269.528938 233.252723 
L 269.528938 187.79492 
" style="fill:none;stroke:#a52a2a;stroke-width:1.5;"/>
    <path clip-path="url(#pb65fdcbf4d)" d="M 239.842312 259.94566 
L 239.842312 195.396417 
" style="fill:none;stroke:#a52a2a;stroke-width:1.5;"/>
    <path clip-path="url(#pb65fdcbf4d)" d="M 141.290255 174.100491 
L 141.290255 149.41101 
" style="fill:none;stroke:#a52a2a;stroke-width:1.5;"/>
    <path clip-path="url(#pb65fdcbf4d)" d="M 141.284885 171.297591 
L 141.284885 147.177174 
" style="fill:none;stroke:#a52a2a;stroke-width:1.5;"/>
    <path clip-path="url(#pb65fdcbf4d)" d="M 119.485398 256.697496 
L 119.485398 194.945573 
" style="fill:none;stroke:#a52a2a;stroke-width:1.5;"/>
    <path clip-path="url(#pb65fdcbf4d)" d="M 299.40409 241.55221 
L 299.40409 191.058877 
" style="fill:none;stroke:#a52a2a;stroke-width:1.5;"/>
    <path clip-path="url(#pb65fdcbf4d)" d="M 240.389249 261.902154 
L 240.389249 195.599449 
" style="fill:none;stroke:#a52a2a;stroke-width:1.5;"/>
    <path clip-path="url(#pb65fdcbf4d)" d="M 264.202939 271.943026 
L 264.202939 195.816974 
" style="fill:none;stroke:#a52a2a;stroke-width:1.5;"/>
    <path clip-path="url(#pb65fdcbf4d)" d="M 111.136364 221.749043 
L 111.136364 182.148474 
" style="fill:none;stroke:#a52a2a;stroke-width:1.5;"/>
    <path clip-path="url(#pb65fdcbf4d)" d="M 322.5 225.326525 
L 322.5 184.031755 
" style="fill:none;stroke:#a52a2a;stroke-width:1.5;"/>
    <path clip-path="url(#pb65fdcbf4d)" d="M 291.893455 232.226713 
L 291.893455 187.341573 
" style="fill:none;stroke:#a52a2a;stroke-width:1.5;"/>
    <path clip-path="url(#pb65fdcbf4d)" d="M 153.829791 124.208039 
L 153.829791 106.972655 
" style="fill:none;stroke:#a52a2a;stroke-width:1.5;"/>
    <path clip-path="url(#pb65fdcbf4d)" d="M 147.035934 163.425484 
L 147.035934 140.783235 
" style="fill:none;stroke:#a52a2a;stroke-width:1.5;"/>
    <path clip-path="url(#pb65fdcbf4d)" d="M 147.387613 141.170388 
L 147.387613 121.926656 
" style="fill:none;stroke:#a52a2a;stroke-width:1.5;"/>
    <path clip-path="url(#pb65fdcbf4d)" d="M 174.291669 65.852141 
L 174.291669 53.239544 
" style="fill:none;stroke:#a52a2a;stroke-width:1.5;"/>
    <path clip-path="url(#pb65fdcbf4d)" d="M 223.388305 245.74769 
L 223.388305 192.417056 
" style="fill:none;stroke:#a52a2a;stroke-width:1.5;"/>
    <path clip-path="url(#pb65fdcbf4d)" d="M 202.724201 163.281724 
L 202.724201 140.664935 
" style="fill:none;stroke:#a52a2a;stroke-width:1.5;"/>
    <path clip-path="url(#pb65fdcbf4d)" d="M 171.394352 79.944562 
L 171.394352 66.450346 
" style="fill:none;stroke:#a52a2a;stroke-width:1.5;"/>
    <path clip-path="url(#pb65fdcbf4d)" d="M 242.779997 226.08711 
L 242.779997 184.417962 
" style="fill:none;stroke:#a52a2a;stroke-width:1.5;"/>
    <path clip-path="url(#pb65fdcbf4d)" d="M 137.611076 198.243535 
L 137.611076 167.470812 
" style="fill:none;stroke:#a52a2a;stroke-width:1.5;"/>
    <path clip-path="url(#pb65fdcbf4d)" d="M 171.598187 58.785677 
L 171.598187 46.574323 
" style="fill:none;stroke:#a52a2a;stroke-width:1.5;"/>
   </g>
   <g id="line2d_25">
    <path clip-path="url(#pb65fdcbf4d)" d="M 90 217.034002 
L 92.561983 216.962101 
L 95.123967 216.856264 
L 97.68595 216.702681 
L 100.247934 216.482983 
L 102.809917 216.173204 
L 105.371901 215.742694 
L 107.933884 215.153063 
L 110.495868 214.357277 
L 113.057851 213.299049 
L 115.619835 211.912705 
L 118.181818 210.123728 
L 120.743802 207.850167 
L 123.305785 205.005123 
L 125.867769 201.500402 
L 128.429752 197.251428 
L 130.991736 192.18332 
L 133.553719 186.237946 
L 136.115702 179.381579 
L 138.677686 171.612653 
L 141.239669 162.968945 
L 143.801653 153.533445 
L 146.363636 143.438146 
L 148.92562 132.865024 
L 151.487603 122.043657 
L 154.049587 111.245134 
L 156.61157 100.772255 
L 159.173554 90.946353 
L 161.735537 82.091449 
L 164.297521 74.516784 
L 166.859504 68.499006 
L 169.421488 64.265444 
L 171.983471 61.979866 
L 174.545455 61.731968 
L 177.107438 63.531531 
L 179.669421 67.307783 
L 182.231405 72.914016 
L 184.793388 80.137044 
L 187.355372 88.710651 
L 189.917355 98.33184 
L 192.479339 108.67852 
L 195.041322 119.427179 
L 197.603306 130.269229 
L 200.165289 140.924901 
L 202.727273 151.153912 
L 205.289256 160.762454 
L 207.85124 169.606454 
L 210.413223 177.59136 
L 212.975207 184.668964 
L 215.53719 190.831971 
L 218.099174 196.10705 
L 220.661157 200.547166 
L 223.22314 204.223836 
L 225.785124 207.219897 
L 228.347107 209.623165 
L 230.909091 211.521234 
L 233.471074 212.997518 
L 236.033058 214.128492 
L 238.595041 214.982043 
L 241.157025 215.616729 
L 243.719008 216.081776 
L 246.280992 216.417581 
L 248.842975 216.656569 
L 251.404959 216.824217 
L 253.966942 216.940145 
L 256.528926 217.019173 
L 259.090909 217.072286 
L 261.652893 217.107481 
L 264.214876 217.130476 
L 266.77686 217.14529 
L 269.338843 217.154701 
L 271.900826 217.160597 
L 274.46281 217.164239 
L 277.024793 217.166459 
L 279.586777 217.167792 
L 282.14876 217.168583 
L 284.710744 217.169045 
L 287.272727 217.169311 
L 289.834711 217.169463 
L 292.396694 217.169548 
L 294.958678 217.169595 
L 297.520661 217.16962 
L 300.082645 217.169634 
L 302.644628 217.169641 
L 305.206612 217.169645 
L 307.768595 217.169647 
L 310.330579 217.169648 
L 312.892562 217.169649 
L 315.454545 217.169649 
L 318.016529 217.169649 
L 320.578512 217.169649 
L 323.140496 217.169649 
L 325.702479 217.169649 
L 328.264463 217.169649 
L 330.826446 217.169649 
L 333.38843 217.169649 
L 335.950413 217.169649 
L 338.512397 217.169649 
L 341.07438 217.169649 
L 343.636364 217.169649 
" style="fill:none;stroke:#a52a2a;stroke-linecap:square;stroke-width:1.5;"/>
   </g>
   <g id="line2d_26">
    <defs>
     <path d="M 0 3.5 
C 0.928211 3.5 1.81853 3.131218 2.474874 2.474874 
C 3.131218 1.81853 3.5 0.928211 3.5 0 
C 3.5 -0.928211 3.131218 -1.81853 2.474874 -2.474874 
C 1.81853 -3.131218 0.928211 -3.5 0 -3.5 
C -0.928211 -3.5 -1.81853 -3.131218 -2.474874 -2.474874 
C -3.131218 -1.81853 -3.5 -0.928211 -3.5 0 
C -3.5 0.928211 -3.131218 1.81853 -2.474874 2.474874 
C -1.81853 3.131218 -0.928211 3.5 0 3.5 
z
" id="mfbdf8e2100" style="stroke:#a52a2a;stroke-width:0.8;"/>
    </defs>
    <g clip-path="url(#pb65fdcbf4d)">
     <use style="fill:#59c48c;stroke:#a52a2a;stroke-width:0.8;" x="189.943221" xlink:href="#mfbdf8e2100" y="101.173084"/>
     <use style="fill:#59c48c;stroke:#a52a2a;stroke-width:0.8;" x="318.226186" xlink:href="#mfbdf8e2100" y="221.223667"/>
     <use style="fill:#59c48c;stroke:#a52a2a;stroke-width:0.8;" x="269.528938" xlink:href="#mfbdf8e2100" y="210.523821"/>
     <use style="fill:#59c48c;stroke:#a52a2a;stroke-width:0.8;" x="239.842312" xlink:href="#mfbdf8e2100" y="227.671038"/>
     <use style="fill:#59c48c;stroke:#a52a2a;stroke-width:0.8;" x="141.290255" xlink:href="#mfbdf8e2100" y="161.75575"/>
     <use style="fill:#59c48c;stroke:#a52a2a;stroke-width:0.8;" x="141.284885" xlink:href="#mfbdf8e2100" y="159.237382"/>
     <use style="fill:#59c48c;stroke:#a52a2a;stroke-width:0.8;" x="119.485398" xlink:href="#mfbdf8e2100" y="225.821535"/>
     <use style="fill:#59c48c;stroke:#a52a2a;stroke-width:0.8;" x="299.40409" xlink:href="#mfbdf8e2100" y="216.305543"/>
     <use style="fill:#59c48c;stroke:#a52a2a;stroke-width:0.8;" x="240.389249" xlink:href="#mfbdf8e2100" y="228.750801"/>
     <use style="fill:#59c48c;stroke:#a52a2a;stroke-width:0.8;" x="264.202939" xlink:href="#mfbdf8e2100" y="233.88"/>
     <use style="fill:#59c48c;stroke:#a52a2a;stroke-width:0.8;" x="111.136364" xlink:href="#mfbdf8e2100" y="201.948759"/>
     <use style="fill:#59c48c;stroke:#a52a2a;stroke-width:0.8;" x="322.5" xlink:href="#mfbdf8e2100" y="204.67914"/>
     <use style="fill:#59c48c;stroke:#a52a2a;stroke-width:0.8;" x="291.893455" xlink:href="#mfbdf8e2100" y="209.784143"/>
     <use style="fill:#59c48c;stroke:#a52a2a;stroke-width:0.8;" x="153.829791" xlink:href="#mfbdf8e2100" y="115.590347"/>
     <use style="fill:#59c48c;stroke:#a52a2a;stroke-width:0.8;" x="147.035934" xlink:href="#mfbdf8e2100" y="152.10436"/>
     <use style="fill:#59c48c;stroke:#a52a2a;stroke-width:0.8;" x="147.387613" xlink:href="#mfbdf8e2100" y="131.548522"/>
     <use style="fill:#59c48c;stroke:#a52a2a;stroke-width:0.8;" x="174.291669" xlink:href="#mfbdf8e2100" y="59.545843"/>
     <use style="fill:#59c48c;stroke:#a52a2a;stroke-width:0.8;" x="223.388305" xlink:href="#mfbdf8e2100" y="219.082373"/>
     <use style="fill:#59c48c;stroke:#a52a2a;stroke-width:0.8;" x="202.724201" xlink:href="#mfbdf8e2100" y="151.973329"/>
     <use style="fill:#59c48c;stroke:#a52a2a;stroke-width:0.8;" x="171.394352" xlink:href="#mfbdf8e2100" y="73.197454"/>
     <use style="fill:#59c48c;stroke:#a52a2a;stroke-width:0.8;" x="242.779997" xlink:href="#mfbdf8e2100" y="205.252536"/>
     <use style="fill:#59c48c;stroke:#a52a2a;stroke-width:0.8;" x="137.611076" xlink:href="#mfbdf8e2100" y="182.857174"/>
     <use style="fill:#59c48c;stroke:#a52a2a;stroke-width:0.8;" x="171.598187" xlink:href="#mfbdf8e2100" y="52.68"/>
    </g>
   </g>
   <g id="line2d_27"/>
   <g id="patch_3">
    <path d="M 90 252 
L 90 34.56 
" style="fill:none;stroke:#000000;stroke-linecap:square;stroke-linejoin:miter;stroke-width:0.8;"/>
   </g>
   <g id="patch_4">
    <path d="M 343.636364 252 
L 343.636364 34.56 
" style="fill:none;stroke:#000000;stroke-linecap:square;stroke-linejoin:miter;stroke-width:0.8;"/>
   </g>
   <g id="patch_5">
    <path d="M 90 252 
L 343.636364 252 
" style="fill:none;stroke:#000000;stroke-linecap:square;stroke-linejoin:miter;stroke-width:0.8;"/>
   </g>
   <g id="patch_6">
    <path d="M 90 34.56 
L 343.636364 34.56 
" style="fill:none;stroke:#000000;stroke-linecap:square;stroke-linejoin:miter;stroke-width:0.8;"/>
   </g>
  </g>
  <g id="axes_2">
   <g id="patch_7">
    <path d="M 394.363636 252 
L 648 252 
L 648 34.56 
L 394.363636 34.56 
z
" style="fill:#fefbf3;"/>
   </g>
   <g id="PolyCollection_2">
    <defs>
     <path d="M 394.363636 -60.243282 
L 394.363636 -60.243282 
L 396.92562 -60.326619 
L 399.487603 -60.448412 
L 402.049587 -60.623629 
L 404.61157 -60.871652 
L 407.173554 -61.216916 
L 409.735537 -61.689316 
L 412.297521 -62.324245 
L 414.859504 -63.162171 
L 417.421488 -64.24782 
L 419.983471 -65.629383 
L 422.545455 -67.358534 
L 425.107438 -69.491964 
L 427.669421 -72.094049 
L 430.231405 -75.238593 
L 432.793388 -79.007097 
L 435.355372 -83.48268 
L 437.917355 -88.740848 
L 440.479339 -94.838915 
L 443.041322 -101.805322 
L 445.603306 -109.629522 
L 448.165289 -118.252995 
L 450.727273 -127.562077 
L 453.289256 -137.383537 
L 455.85124 -147.483976 
L 458.413223 -157.57421 
L 460.975207 -167.31971 
L 463.53719 -176.357789 
L 466.099174 -184.321274 
L 468.661157 -190.866795 
L 471.22314 -195.70388 
L 473.785124 -198.619911 
L 476.347107 -199.496644 
L 478.909091 -198.316341 
L 481.471074 -195.158199 
L 484.033058 -190.18734 
L 486.595041 -183.63886 
L 489.157025 -175.799045 
L 491.719008 -166.985389 
L 494.280992 -157.526788 
L 496.842975 -147.745113 
L 499.404959 -137.939209 
L 501.966942 -128.37213 
L 504.528926 -119.262122 
L 507.090909 -110.777528 
L 509.652893 -103.035432 
L 512.214876 -96.103592 
L 514.77686 -90.005017 
L 517.338843 -84.724431 
L 519.900826 -80.215928 
L 522.46281 -76.411262 
L 525.024793 -73.228502 
L 527.586777 -70.580928 
L 530.14876 -68.385805 
L 532.710744 -66.571658 
L 535.272727 -65.081672 
L 537.834711 -63.871822 
L 540.396694 -62.905607 
L 542.958678 -62.149264 
L 545.520661 -61.569735 
L 548.082645 -61.13504 
L 550.644628 -60.815585 
L 553.206612 -60.585327 
L 555.768595 -60.422378 
L 558.330579 -60.309053 
L 560.892562 -60.231538 
L 563.454545 -60.179359 
L 566.016529 -60.144773 
L 568.578512 -60.122192 
L 571.140496 -60.107664 
L 573.702479 -60.098452 
L 576.264463 -60.092694 
L 578.826446 -60.089145 
L 581.38843 -60.086988 
L 583.950413 -60.085695 
L 586.512397 -60.084931 
L 589.07438 -60.084486 
L 591.636364 -60.08423 
L 594.198347 -60.084085 
L 596.760331 -60.084004 
L 599.322314 -60.083959 
L 601.884298 -60.083934 
L 604.446281 -60.083921 
L 607.008264 -60.083914 
L 609.570248 -60.083911 
L 612.132231 -60.083909 
L 614.694215 -60.083908 
L 617.256198 -60.083907 
L 619.818182 -60.083907 
L 622.380165 -60.083907 
L 624.942149 -60.083907 
L 627.504132 -60.083907 
L 630.066116 -60.083907 
L 632.628099 -60.083907 
L 635.190083 -60.083907 
L 637.752066 -60.083907 
L 640.31405 -60.083907 
L 642.876033 -60.083907 
L 645.438017 -60.083907 
L 648 -60.083907 
L 648 -60.083907 
L 648 -68.732526 
L 645.438017 -68.732526 
L 642.876033 -68.732526 
L 640.31405 -68.732526 
L 637.752066 -68.732526 
L 635.190083 -68.732526 
L 632.628099 -68.732526 
L 630.066116 -68.732526 
L 627.504132 -68.732526 
L 624.942149 -68.732526 
L 622.380165 -68.732526 
L 619.818182 -68.732526 
L 617.256198 -68.732526 
L 614.694215 -68.732527 
L 612.132231 -68.732528 
L 609.570248 -68.732529 
L 607.008264 -68.732533 
L 604.446281 -68.732539 
L 601.884298 -68.732551 
L 599.322314 -68.732573 
L 596.760331 -68.732613 
L 594.198347 -68.732686 
L 591.636364 -68.732817 
L 589.07438 -68.733048 
L 586.512397 -68.73345 
L 583.950413 -68.734139 
L 581.38843 -68.735305 
L 578.826446 -68.737251 
L 576.264463 -68.740453 
L 573.702479 -68.745654 
L 571.140496 -68.753983 
L 568.578512 -68.767144 
L 566.016529 -68.787662 
L 563.454545 -68.819228 
L 560.892562 -68.86716 
L 558.330579 -68.939023 
L 555.768595 -69.045447 
L 553.206612 -69.20119 
L 550.644628 -69.426543 
L 548.082645 -69.749118 
L 545.520661 -70.206131 
L 542.958678 -70.847144 
L 540.396694 -71.737067 
L 537.834711 -72.958673 
L 535.272727 -74.613195 
L 532.710744 -76.817125 
L 530.14876 -79.694442 
L 527.586777 -83.366196 
L 525.024793 -87.941044 
L 522.46281 -93.50852 
L 519.900826 -100.133791 
L 517.338843 -107.851949 
L 514.77686 -116.661224 
L 512.214876 -126.51582 
L 509.652893 -137.319604 
L 507.090909 -148.92191 
L 504.528926 -161.116478 
L 501.966942 -173.644284 
L 499.404959 -186.200662 
L 496.842975 -198.446706 
L 494.280992 -210.024517 
L 491.719008 -220.575375 
L 489.157025 -229.759539 
L 486.595041 -237.276034 
L 484.033058 -242.880582 
L 481.471074 -246.399826 
L 478.909091 -247.740179 
L 476.347107 -246.890151 
L 473.785124 -243.915908 
L 471.22314 -238.951109 
L 468.661157 -232.183466 
L 466.099174 -223.841158 
L 463.53719 -214.181588 
L 460.975207 -203.482936 
L 458.413223 -192.037072 
L 455.85124 -180.141777 
L 453.289256 -168.091189 
L 450.727273 -156.164838 
L 448.165289 -144.616602 
L 445.603306 -133.665118 
L 443.041322 -123.486838 
L 440.479339 -114.21232 
L 437.917355 -105.92577 
L 435.355372 -98.667328 
L 432.793388 -92.43723 
L 430.231405 -87.200847 
L 427.669421 -82.89389 
L 425.107438 -79.427908 
L 422.545455 -76.697075 
L 419.983471 -74.586978 
L 417.421488 -72.984352 
L 414.859504 -71.785269 
L 412.297521 -70.899978 
L 409.735537 -70.254345 
L 407.173554 -69.78903 
L 404.61157 -69.457594 
L 402.049587 -69.224311 
L 399.487603 -69.062099 
L 396.92562 -68.950701 
L 394.363636 -68.875167 
z
" id="ma1f16e7242" style="stroke:#dfb4af;"/>
    </defs>
    <g clip-path="url(#pb40c6759d5)">
     <use style="fill:#dfb4af;stroke:#dfb4af;" x="0" xlink:href="#ma1f16e7242" y="288"/>
    </g>
   </g>
   <g id="matplotlib.axis_3">
    <g id="xtick_6">
     <g id="line2d_28">
      <path clip-path="url(#pb40c6759d5)" d="M 433.181557 252 
L 433.181557 34.56 
" style="fill:none;stroke:#b0b0b0;stroke-dasharray:0.5,0.825;stroke-dashoffset:0;stroke-width:0.5;"/>
     </g>
     <g id="line2d_29">
      <g>
       <use style="stroke:#000000;stroke-width:0.8;" x="433.181557" xlink:href="#me721994bda" y="252"/>
      </g>
     </g>
     <g id="text_13">
      <!-- 6 -->
      <g transform="translate(430.000307 266.598437)scale(0.1 -0.1)">
       <use xlink:href="#DejaVuSans-36"/>
      </g>
     </g>
    </g>
    <g id="xtick_7">
     <g id="line2d_30">
      <path clip-path="url(#pb40c6759d5)" d="M 477.710787 252 
L 477.710787 34.56 
" style="fill:none;stroke:#b0b0b0;stroke-dasharray:0.5,0.825;stroke-dashoffset:0;stroke-width:0.5;"/>
     </g>
     <g id="line2d_31">
      <g>
       <use style="stroke:#000000;stroke-width:0.8;" x="477.710787" xlink:href="#me721994bda" y="252"/>
      </g>
     </g>
     <g id="text_14">
      <!-- 8 -->
      <g transform="translate(474.529537 266.598437)scale(0.1 -0.1)">
       <use xlink:href="#DejaVuSans-38"/>
      </g>
     </g>
    </g>
    <g id="xtick_8">
     <g id="line2d_32">
      <path clip-path="url(#pb40c6759d5)" d="M 522.240017 252 
L 522.240017 34.56 
" style="fill:none;stroke:#b0b0b0;stroke-dasharray:0.5,0.825;stroke-dashoffset:0;stroke-width:0.5;"/>
     </g>
     <g id="line2d_33">
      <g>
       <use style="stroke:#000000;stroke-width:0.8;" x="522.240017" xlink:href="#me721994bda" y="252"/>
      </g>
     </g>
     <g id="text_15">
      <!-- 10 -->
      <g transform="translate(515.877517 266.598437)scale(0.1 -0.1)">
       <use xlink:href="#DejaVuSans-31"/>
       <use x="63.623047" xlink:href="#DejaVuSans-30"/>
      </g>
     </g>
    </g>
    <g id="xtick_9">
     <g id="line2d_34">
      <path clip-path="url(#pb40c6759d5)" d="M 566.769247 252 
L 566.769247 34.56 
" style="fill:none;stroke:#b0b0b0;stroke-dasharray:0.5,0.825;stroke-dashoffset:0;stroke-width:0.5;"/>
     </g>
     <g id="line2d_35">
      <g>
       <use style="stroke:#000000;stroke-width:0.8;" x="566.769247" xlink:href="#me721994bda" y="252"/>
      </g>
     </g>
     <g id="text_16">
      <!-- 12 -->
      <g transform="translate(560.406747 266.598437)scale(0.1 -0.1)">
       <use xlink:href="#DejaVuSans-31"/>
       <use x="63.623047" xlink:href="#DejaVuSans-32"/>
      </g>
     </g>
    </g>
    <g id="xtick_10">
     <g id="line2d_36">
      <path clip-path="url(#pb40c6759d5)" d="M 611.298477 252 
L 611.298477 34.56 
" style="fill:none;stroke:#b0b0b0;stroke-dasharray:0.5,0.825;stroke-dashoffset:0;stroke-width:0.5;"/>
     </g>
     <g id="line2d_37">
      <g>
       <use style="stroke:#000000;stroke-width:0.8;" x="611.298477" xlink:href="#me721994bda" y="252"/>
      </g>
     </g>
     <g id="text_17">
      <!-- 14 -->
      <g transform="translate(604.935977 266.598437)scale(0.1 -0.1)">
       <use xlink:href="#DejaVuSans-31"/>
       <use x="63.623047" xlink:href="#DejaVuSans-34"/>
      </g>
     </g>
    </g>
   </g>
   <g id="matplotlib.axis_4">
    <g id="ytick_8">
     <g id="line2d_38">
      <path clip-path="url(#pb40c6759d5)" d="M 394.363636 236.031406 
L 648 236.031406 
" style="fill:none;stroke:#b0b0b0;stroke-dasharray:0.5,0.825;stroke-dashoffset:0;stroke-width:0.5;"/>
     </g>
     <g id="line2d_39">
      <g>
       <use style="stroke:#000000;stroke-width:0.8;" x="394.363636" xlink:href="#m84bd8a9064" y="236.031406"/>
      </g>
     </g>
     <g id="text_18">
      <!-- 0.2 -->
      <g transform="translate(371.460511 239.830625)scale(0.1 -0.1)">
       <use xlink:href="#DejaVuSans-30"/>
       <use x="63.623047" xlink:href="#DejaVuSans-2e"/>
       <use x="95.410156" xlink:href="#DejaVuSans-32"/>
      </g>
     </g>
    </g>
    <g id="ytick_9">
     <g id="line2d_40">
      <path clip-path="url(#pb40c6759d5)" d="M 394.363636 203.563276 
L 648 203.563276 
" style="fill:none;stroke:#b0b0b0;stroke-dasharray:0.5,0.825;stroke-dashoffset:0;stroke-width:0.5;"/>
     </g>
     <g id="line2d_41">
      <g>
       <use style="stroke:#000000;stroke-width:0.8;" x="394.363636" xlink:href="#m84bd8a9064" y="203.563276"/>
      </g>
     </g>
     <g id="text_19">
      <!-- 0.4 -->
      <g transform="translate(371.460511 207.362495)scale(0.1 -0.1)">
       <use xlink:href="#DejaVuSans-30"/>
       <use x="63.623047" xlink:href="#DejaVuSans-2e"/>
       <use x="95.410156" xlink:href="#DejaVuSans-34"/>
      </g>
     </g>
    </g>
    <g id="ytick_10">
     <g id="line2d_42">
      <path clip-path="url(#pb40c6759d5)" d="M 394.363636 171.095147 
L 648 171.095147 
" style="fill:none;stroke:#b0b0b0;stroke-dasharray:0.5,0.825;stroke-dashoffset:0;stroke-width:0.5;"/>
     </g>
     <g id="line2d_43">
      <g>
       <use style="stroke:#000000;stroke-width:0.8;" x="394.363636" xlink:href="#m84bd8a9064" y="171.095147"/>
      </g>
     </g>
     <g id="text_20">
      <!-- 0.6 -->
      <g transform="translate(371.460511 174.894365)scale(0.1 -0.1)">
       <use xlink:href="#DejaVuSans-30"/>
       <use x="63.623047" xlink:href="#DejaVuSans-2e"/>
       <use x="95.410156" xlink:href="#DejaVuSans-36"/>
      </g>
     </g>
    </g>
    <g id="ytick_11">
     <g id="line2d_44">
      <path clip-path="url(#pb40c6759d5)" d="M 394.363636 138.627017 
L 648 138.627017 
" style="fill:none;stroke:#b0b0b0;stroke-dasharray:0.5,0.825;stroke-dashoffset:0;stroke-width:0.5;"/>
     </g>
     <g id="line2d_45">
      <g>
       <use style="stroke:#000000;stroke-width:0.8;" x="394.363636" xlink:href="#m84bd8a9064" y="138.627017"/>
      </g>
     </g>
     <g id="text_21">
      <!-- 0.8 -->
      <g transform="translate(371.460511 142.426236)scale(0.1 -0.1)">
       <use xlink:href="#DejaVuSans-30"/>
       <use x="63.623047" xlink:href="#DejaVuSans-2e"/>
       <use x="95.410156" xlink:href="#DejaVuSans-38"/>
      </g>
     </g>
    </g>
    <g id="ytick_12">
     <g id="line2d_46">
      <path clip-path="url(#pb40c6759d5)" d="M 394.363636 106.158887 
L 648 106.158887 
" style="fill:none;stroke:#b0b0b0;stroke-dasharray:0.5,0.825;stroke-dashoffset:0;stroke-width:0.5;"/>
     </g>
     <g id="line2d_47">
      <g>
       <use style="stroke:#000000;stroke-width:0.8;" x="394.363636" xlink:href="#m84bd8a9064" y="106.158887"/>
      </g>
     </g>
     <g id="text_22">
      <!-- 1.0 -->
      <g transform="translate(371.460511 109.958106)scale(0.1 -0.1)">
       <use xlink:href="#DejaVuSans-31"/>
       <use x="63.623047" xlink:href="#DejaVuSans-2e"/>
       <use x="95.410156" xlink:href="#DejaVuSans-30"/>
      </g>
     </g>
    </g>
    <g id="ytick_13">
     <g id="line2d_48">
      <path clip-path="url(#pb40c6759d5)" d="M 394.363636 73.690757 
L 648 73.690757 
" style="fill:none;stroke:#b0b0b0;stroke-dasharray:0.5,0.825;stroke-dashoffset:0;stroke-width:0.5;"/>
     </g>
     <g id="line2d_49">
      <g>
       <use style="stroke:#000000;stroke-width:0.8;" x="394.363636" xlink:href="#m84bd8a9064" y="73.690757"/>
      </g>
     </g>
     <g id="text_23">
      <!-- 1.2 -->
      <g transform="translate(371.460511 77.489976)scale(0.1 -0.1)">
       <use xlink:href="#DejaVuSans-31"/>
       <use x="63.623047" xlink:href="#DejaVuSans-2e"/>
       <use x="95.410156" xlink:href="#DejaVuSans-32"/>
      </g>
     </g>
    </g>
    <g id="ytick_14">
     <g id="line2d_50">
      <path clip-path="url(#pb40c6759d5)" d="M 394.363636 41.222628 
L 648 41.222628 
" style="fill:none;stroke:#b0b0b0;stroke-dasharray:0.5,0.825;stroke-dashoffset:0;stroke-width:0.5;"/>
     </g>
     <g id="line2d_51">
      <g>
       <use style="stroke:#000000;stroke-width:0.8;" x="394.363636" xlink:href="#m84bd8a9064" y="41.222628"/>
      </g>
     </g>
     <g id="text_24">
      <!-- 1.4 -->
      <g transform="translate(371.460511 45.021846)scale(0.1 -0.1)">
       <use xlink:href="#DejaVuSans-31"/>
       <use x="63.623047" xlink:href="#DejaVuSans-2e"/>
       <use x="95.410156" xlink:href="#DejaVuSans-34"/>
      </g>
     </g>
    </g>
   </g>
   <g id="LineCollection_2">
    <path clip-path="url(#pb40c6759d5)" d="M 494.306857 109.539407 
L 494.306857 92.806762 
" style="fill:none;stroke:#a52a2a;stroke-width:1.5;"/>
    <path clip-path="url(#pb40c6759d5)" d="M 622.589822 223.58746 
L 622.589822 218.859873 
" style="fill:none;stroke:#a52a2a;stroke-width:1.5;"/>
    <path clip-path="url(#pb40c6759d5)" d="M 573.892575 213.422607 
L 573.892575 207.625036 
" style="fill:none;stroke:#a52a2a;stroke-width:1.5;"/>
    <path clip-path="url(#pb40c6759d5)" d="M 544.205948 229.712463 
L 544.205948 225.629614 
" style="fill:none;stroke:#a52a2a;stroke-width:1.5;"/>
    <path clip-path="url(#pb40c6759d5)" d="M 445.653891 167.09294 
L 445.653891 156.418561 
" style="fill:none;stroke:#a52a2a;stroke-width:1.5;"/>
    <path clip-path="url(#pb40c6759d5)" d="M 445.648521 164.70049 
L 445.648521 153.774275 
" style="fill:none;stroke:#a52a2a;stroke-width:1.5;"/>
    <path clip-path="url(#pb40c6759d5)" d="M 423.849034 227.955435 
L 423.849034 223.687635 
" style="fill:none;stroke:#a52a2a;stroke-width:1.5;"/>
    <path clip-path="url(#pb40c6759d5)" d="M 603.767726 218.915243 
L 603.767726 213.695844 
" style="fill:none;stroke:#a52a2a;stroke-width:1.5;"/>
    <path clip-path="url(#pb40c6759d5)" d="M 544.752885 230.738238 
L 544.752885 226.763365 
" style="fill:none;stroke:#a52a2a;stroke-width:1.5;"/>
    <path clip-path="url(#pb40c6759d5)" d="M 568.566575 235.610977 
L 568.566575 232.149023 
" style="fill:none;stroke:#a52a2a;stroke-width:1.5;"/>
    <path clip-path="url(#pb40c6759d5)" d="M 415.5 205.276298 
L 415.5 198.62122 
" style="fill:none;stroke:#a52a2a;stroke-width:1.5;"/>
    <path clip-path="url(#pb40c6759d5)" d="M 626.863636 207.87016 
L 626.863636 201.48812 
" style="fill:none;stroke:#a52a2a;stroke-width:1.5;"/>
    <path clip-path="url(#pb40c6759d5)" d="M 596.257091 212.719912 
L 596.257091 206.848373 
" style="fill:none;stroke:#a52a2a;stroke-width:1.5;"/>
    <path clip-path="url(#pb40c6759d5)" d="M 458.193427 123.235807 
L 458.193427 107.944888 
" style="fill:none;stroke:#a52a2a;stroke-width:1.5;"/>
    <path clip-path="url(#pb40c6759d5)" d="M 451.399571 157.924119 
L 451.399571 146.284601 
" style="fill:none;stroke:#a52a2a;stroke-width:1.5;"/>
    <path clip-path="url(#pb40c6759d5)" d="M 451.75125 138.396073 
L 451.75125 124.700971 
" style="fill:none;stroke:#a52a2a;stroke-width:1.5;"/>
    <path clip-path="url(#pb40c6759d5)" d="M 478.655306 69.993527 
L 478.655306 49.098158 
" style="fill:none;stroke:#a52a2a;stroke-width:1.5;"/>
    <path clip-path="url(#pb40c6759d5)" d="M 527.751941 221.553231 
L 527.751941 216.611515 
" style="fill:none;stroke:#a52a2a;stroke-width:1.5;"/>
    <path clip-path="url(#pb40c6759d5)" d="M 507.087837 157.799639 
L 507.087837 146.147019 
" style="fill:none;stroke:#a52a2a;stroke-width:1.5;"/>
    <path clip-path="url(#pb40c6759d5)" d="M 475.757989 82.962558 
L 475.757989 63.43235 
" style="fill:none;stroke:#a52a2a;stroke-width:1.5;"/>
    <path clip-path="url(#pb40c6759d5)" d="M 547.143633 208.414886 
L 547.143633 202.090186 
" style="fill:none;stroke:#a52a2a;stroke-width:1.5;"/>
    <path clip-path="url(#pb40c6759d5)" d="M 441.974713 187.139292 
L 441.974713 178.575055 
" style="fill:none;stroke:#a52a2a;stroke-width:1.5;"/>
    <path clip-path="url(#pb40c6759d5)" d="M 475.961823 63.470977 
L 475.961823 41.889023 
" style="fill:none;stroke:#a52a2a;stroke-width:1.5;"/>
   </g>
   <g id="line2d_52">
    <path clip-path="url(#pb40c6759d5)" d="M 394.363636 223.440775 
L 396.92562 223.36134 
L 399.487603 223.244744 
L 402.049587 223.07603 
L 404.61157 222.835377 
L 407.173554 222.497027 
L 409.735537 222.02817 
L 412.297521 221.387888 
L 414.859504 220.52628 
L 417.421488 219.383914 
L 419.983471 217.891819 
L 422.545455 215.972195 
L 425.107438 213.540064 
L 427.669421 210.50603 
L 430.231405 206.78028 
L 432.793388 202.277836 
L 435.355372 196.924996 
L 437.917355 190.666691 
L 440.479339 183.474383 
L 443.041322 175.35392 
L 445.603306 166.35268 
L 448.165289 156.565201 
L 450.727273 146.136542 
L 453.289256 135.262637 
L 455.85124 124.187123 
L 458.413223 113.194359 
L 460.975207 102.598677 
L 463.53719 92.730312 
L 466.099174 83.918784 
L 468.661157 76.47487 
L 471.22314 70.672505 
L 473.785124 66.73209 
L 476.347107 64.806602 
L 478.909091 64.97174 
L 481.471074 67.220988 
L 484.033058 71.466039 
L 486.595041 77.542553 
L 489.157025 85.220708 
L 491.719008 94.219618 
L 494.280992 104.224347 
L 496.842975 114.90409 
L 499.404959 125.930065 
L 501.966942 136.991793 
L 504.528926 147.8107 
L 507.090909 158.150281 
L 509.652893 167.822482 
L 512.214876 176.690294 
L 514.77686 184.66688 
L 517.338843 191.71181 
L 519.900826 197.82514 
L 522.46281 203.040109 
L 525.024793 207.415227 
L 527.586777 211.026438 
L 530.14876 213.959877 
L 532.710744 216.305609 
L 535.272727 218.152566 
L 537.834711 219.584752 
L 540.396694 220.678663 
L 542.958678 221.501796 
L 545.520661 222.112067 
L 548.082645 222.557921 
L 550.644628 222.878936 
L 553.206612 223.106741 
L 555.768595 223.266088 
L 558.330579 223.375962 
L 560.892562 223.450651 
L 563.454545 223.500707 
L 566.016529 223.533782 
L 568.578512 223.555332 
L 571.140496 223.569176 
L 573.702479 223.577947 
L 576.264463 223.583426 
L 578.826446 223.586802 
L 581.38843 223.588854 
L 583.950413 223.590083 
L 586.512397 223.590809 
L 589.07438 223.591233 
L 591.636364 223.591476 
L 594.198347 223.591614 
L 596.760331 223.591692 
L 599.322314 223.591734 
L 601.884298 223.591757 
L 604.446281 223.59177 
L 607.008264 223.591777 
L 609.570248 223.59178 
L 612.132231 223.591782 
L 614.694215 223.591783 
L 617.256198 223.591783 
L 619.818182 223.591783 
L 622.380165 223.591783 
L 624.942149 223.591783 
L 627.504132 223.591784 
L 630.066116 223.591784 
L 632.628099 223.591784 
L 635.190083 223.591784 
L 637.752066 223.591784 
L 640.31405 223.591784 
L 642.876033 223.591784 
L 645.438017 223.591784 
L 648 223.591784 
" style="fill:none;stroke:#a52a2a;stroke-linecap:square;stroke-width:1.5;"/>
   </g>
   <g id="line2d_53">
    <g clip-path="url(#pb40c6759d5)">
     <use style="fill:#59c48c;stroke:#a52a2a;stroke-width:0.8;" x="494.306857" xlink:href="#mfbdf8e2100" y="101.173084"/>
     <use style="fill:#59c48c;stroke:#a52a2a;stroke-width:0.8;" x="622.589822" xlink:href="#mfbdf8e2100" y="221.223667"/>
     <use style="fill:#59c48c;stroke:#a52a2a;stroke-width:0.8;" x="573.892575" xlink:href="#mfbdf8e2100" y="210.523821"/>
     <use style="fill:#59c48c;stroke:#a52a2a;stroke-width:0.8;" x="544.205948" xlink:href="#mfbdf8e2100" y="227.671038"/>
     <use style="fill:#59c48c;stroke:#a52a2a;stroke-width:0.8;" x="445.653891" xlink:href="#mfbdf8e2100" y="161.75575"/>
     <use style="fill:#59c48c;stroke:#a52a2a;stroke-width:0.8;" x="445.648521" xlink:href="#mfbdf8e2100" y="159.237382"/>
     <use style="fill:#59c48c;stroke:#a52a2a;stroke-width:0.8;" x="423.849034" xlink:href="#mfbdf8e2100" y="225.821535"/>
     <use style="fill:#59c48c;stroke:#a52a2a;stroke-width:0.8;" x="603.767726" xlink:href="#mfbdf8e2100" y="216.305543"/>
     <use style="fill:#59c48c;stroke:#a52a2a;stroke-width:0.8;" x="544.752885" xlink:href="#mfbdf8e2100" y="228.750801"/>
     <use style="fill:#59c48c;stroke:#a52a2a;stroke-width:0.8;" x="568.566575" xlink:href="#mfbdf8e2100" y="233.88"/>
     <use style="fill:#59c48c;stroke:#a52a2a;stroke-width:0.8;" x="415.5" xlink:href="#mfbdf8e2100" y="201.948759"/>
     <use style="fill:#59c48c;stroke:#a52a2a;stroke-width:0.8;" x="626.863636" xlink:href="#mfbdf8e2100" y="204.67914"/>
     <use style="fill:#59c48c;stroke:#a52a2a;stroke-width:0.8;" x="596.257091" xlink:href="#mfbdf8e2100" y="209.784143"/>
     <use style="fill:#59c48c;stroke:#a52a2a;stroke-width:0.8;" x="458.193427" xlink:href="#mfbdf8e2100" y="115.590347"/>
     <use style="fill:#59c48c;stroke:#a52a2a;stroke-width:0.8;" x="451.399571" xlink:href="#mfbdf8e2100" y="152.10436"/>
     <use style="fill:#59c48c;stroke:#a52a2a;stroke-width:0.8;" x="451.75125" xlink:href="#mfbdf8e2100" y="131.548522"/>
     <use style="fill:#59c48c;stroke:#a52a2a;stroke-width:0.8;" x="478.655306" xlink:href="#mfbdf8e2100" y="59.545843"/>
     <use style="fill:#59c48c;stroke:#a52a2a;stroke-width:0.8;" x="527.751941" xlink:href="#mfbdf8e2100" y="219.082373"/>
     <use style="fill:#59c48c;stroke:#a52a2a;stroke-width:0.8;" x="507.087837" xlink:href="#mfbdf8e2100" y="151.973329"/>
     <use style="fill:#59c48c;stroke:#a52a2a;stroke-width:0.8;" x="475.757989" xlink:href="#mfbdf8e2100" y="73.197454"/>
     <use style="fill:#59c48c;stroke:#a52a2a;stroke-width:0.8;" x="547.143633" xlink:href="#mfbdf8e2100" y="205.252536"/>
     <use style="fill:#59c48c;stroke:#a52a2a;stroke-width:0.8;" x="441.974713" xlink:href="#mfbdf8e2100" y="182.857174"/>
     <use style="fill:#59c48c;stroke:#a52a2a;stroke-width:0.8;" x="475.961823" xlink:href="#mfbdf8e2100" y="52.68"/>
    </g>
   </g>
   <g id="line2d_54"/>
   <g id="patch_8">
    <path d="M 394.363636 252 
L 394.363636 34.56 
" style="fill:none;stroke:#000000;stroke-linecap:square;stroke-linejoin:miter;stroke-width:0.8;"/>
   </g>
   <g id="patch_9">
    <path d="M 648 252 
L 648 34.56 
" style="fill:none;stroke:#000000;stroke-linecap:square;stroke-linejoin:miter;stroke-width:0.8;"/>
   </g>
   <g id="patch_10">
    <path d="M 394.363636 252 
L 648 252 
" style="fill:none;stroke:#000000;stroke-linecap:square;stroke-linejoin:miter;stroke-width:0.8;"/>
   </g>
   <g id="patch_11">
    <path d="M 394.363636 34.56 
L 648 34.56 
" style="fill:none;stroke:#000000;stroke-linecap:square;stroke-linejoin:miter;stroke-width:0.8;"/>
   </g>
  </g>
 </g>
 <defs>
  <clipPath id="pb65fdcbf4d">
   <rect height="217.44" width="253.636364" x="90" y="34.56"/>
  </clipPath>
  <clipPath id="pb40c6759d5">
   <rect height="217.44" width="253.636364" x="394.363636" y="34.56"/>
  </clipPath>
 </defs>
</svg>
