<?xml version="1.0" encoding="utf-8" standalone="no"?>
<!-- Created with matplotlib (http://matplotlib.org/) -->
<svg height="197.658125pt" version="1.1" viewBox="0 0 589.2625 197.658125" width="589.2625pt" xmlns="http://www.w3.org/2000/svg" xmlns:xlink="http://www.w3.org/1999/xlink">
 <defs>
  <style type="text/css">
*{stroke-linecap:butt;stroke-linejoin:round;}
  </style>
 </defs>
 <g id="figure_1">
  <g id="patch_1">
   <path d="M 0 197.658125 
L 589.2625 197.658125 
L 589.2625 0 
L 0 0 
z
" style="fill:#ffffff;"/>
  </g>
  <g id="axes_1">
   <g id="patch_2">
    <path d="M 20.5625 173.78 
L 274.198864 173.78 
L 274.198864 10.7 
L 20.5625 10.7 
z
" style="fill:#fefbf3;"/>
   </g>
   <g id="PolyCollection_1">
    <defs>
     <path d="M 20.5625 -108.570541 
L 20.5625 -108.570541 
L 21.070789 -108.134731 
L 21.579079 -107.701122 
L 22.087368 -107.269711 
L 22.595657 -106.840502 
L 23.103947 -106.413493 
L 23.612236 -105.988684 
L 24.120525 -105.566076 
L 24.628814 -105.14567 
L 25.137104 -104.727465 
L 25.645393 -104.311461 
L 26.153682 -103.897661 
L 26.661972 -103.486061 
L 27.170261 -103.076663 
L 27.67855 -102.669468 
L 28.18684 -102.264477 
L 28.695129 -101.861687 
L 29.203418 -101.4611 
L 29.711708 -101.062719 
L 30.219997 -100.66654 
L 30.728286 -100.272565 
L 31.236575 -99.880794 
L 31.744865 -99.49123 
L 32.253154 -99.103868 
L 32.761443 -98.718711 
L 33.269733 -98.335761 
L 33.778022 -97.955017 
L 34.286311 -97.576477 
L 34.794601 -97.200146 
L 35.30289 -96.82602 
L 35.811179 -96.454102 
L 36.319468 -96.084389 
L 36.827758 -95.716886 
L 37.336047 -95.351588 
L 37.844336 -94.9885 
L 38.352626 -94.627621 
L 38.860915 -94.268951 
L 39.369204 -93.912489 
L 39.877494 -93.558238 
L 40.385783 -93.206195 
L 40.894072 -92.856364 
L 41.402362 -92.508743 
L 41.910651 -92.163333 
L 42.41894 -91.820135 
L 42.927229 -91.479148 
L 43.435519 -91.140374 
L 43.943808 -90.803813 
L 44.452097 -90.469464 
L 44.960387 -90.137329 
L 45.468676 -89.807407 
L 45.976965 -89.479701 
L 46.485255 -89.154209 
L 46.993544 -88.830932 
L 47.501833 -88.509872 
L 48.010123 -88.191027 
L 48.518412 -87.874399 
L 49.026701 -87.559987 
L 49.53499 -87.247794 
L 50.04328 -86.937818 
L 50.551569 -86.630061 
L 51.059858 -86.324523 
L 51.568148 -86.021205 
L 52.076437 -85.720107 
L 52.584726 -85.42123 
L 53.093016 -85.124574 
L 53.601305 -84.830139 
L 54.109594 -84.537928 
L 54.617883 -84.247938 
L 55.126173 -83.960173 
L 55.634462 -83.674631 
L 56.142751 -83.391314 
L 56.651041 -83.110224 
L 57.15933 -82.831358 
L 57.667619 -82.55472 
L 58.175909 -82.280308 
L 58.684198 -82.008124 
L 59.192487 -81.738169 
L 59.700777 -81.470442 
L 60.209066 -81.204946 
L 60.717355 -80.941681 
L 61.225644 -80.680648 
L 61.733934 -80.421846 
L 62.242223 -80.165276 
L 62.750512 -79.91094 
L 63.258802 -79.658839 
L 63.767091 -79.408972 
L 64.27538 -79.161341 
L 64.78367 -78.915948 
L 65.291959 -78.672791 
L 65.800248 -78.431873 
L 66.308538 -78.193194 
L 66.816827 -77.956755 
L 67.325116 -77.722556 
L 67.833405 -77.490599 
L 68.341695 -77.260885 
L 68.849984 -77.033415 
L 69.358273 -76.808189 
L 69.866563 -76.585208 
L 70.374852 -76.364473 
L 70.883141 -76.145986 
L 71.391431 -75.929746 
L 71.89972 -75.715757 
L 72.408009 -75.504017 
L 72.916299 -75.294529 
L 73.424588 -75.087293 
L 73.932877 -74.882311 
L 74.441166 -74.679582 
L 74.949456 -74.479109 
L 75.457745 -74.280893 
L 75.966034 -74.084935 
L 76.474324 -73.891236 
L 76.982613 -73.699797 
L 77.490902 -73.510619 
L 77.999192 -73.323704 
L 78.507481 -73.139051 
L 79.01577 -72.956665 
L 79.524059 -72.776544 
L 80.032349 -72.59869 
L 80.540638 -72.423106 
L 81.048927 -72.249791 
L 81.557217 -72.078748 
L 82.065506 -71.909977 
L 82.573795 -71.74348 
L 83.082085 -71.57926 
L 83.590374 -71.417315 
L 84.098663 -71.257649 
L 84.606953 -71.100263 
L 85.115242 -70.945158 
L 85.623531 -70.792336 
L 86.13182 -70.641798 
L 86.64011 -70.493545 
L 87.148399 -70.34758 
L 87.656688 -70.203904 
L 88.164978 -70.062518 
L 88.673267 -69.923424 
L 89.181556 -69.786624 
L 89.689846 -69.65212 
L 90.198135 -69.519912 
L 90.706424 -69.390004 
L 91.214714 -69.262395 
L 91.723003 -69.137089 
L 92.231292 -69.014087 
L 92.739581 -68.893391 
L 93.247871 -68.775002 
L 93.75616 -68.658923 
L 94.264449 -68.545156 
L 94.772739 -68.433701 
L 95.281028 -68.324562 
L 95.789317 -68.21774 
L 96.297607 -68.113237 
L 96.805896 -68.011055 
L 97.314185 -67.911196 
L 97.822474 -67.813662 
L 98.330764 -67.718456 
L 98.839053 -67.625578 
L 99.347342 -67.535032 
L 99.855632 -67.446819 
L 100.363921 -67.360943 
L 100.87221 -67.277403 
L 101.3805 -67.196204 
L 101.888789 -67.117348 
L 102.397078 -67.040836 
L 102.905368 -66.96667 
L 103.413657 -66.894853 
L 103.921946 -66.825388 
L 104.430235 -66.758277 
L 104.938525 -66.693522 
L 105.446814 -66.631125 
L 105.955103 -66.571089 
L 106.463393 -66.513417 
L 106.971682 -66.45811 
L 107.479971 -66.405172 
L 107.988261 -66.354604 
L 108.49655 -66.30641 
L 109.004839 -66.260592 
L 109.513129 -66.217153 
L 110.021418 -66.176094 
L 110.529707 -66.137419 
L 111.037996 -66.101131 
L 111.546286 -66.067232 
L 112.054575 -66.035724 
L 112.562864 -66.006611 
L 113.071154 -65.979895 
L 113.579443 -65.955579 
L 114.087732 -65.933666 
L 114.596022 -65.914158 
L 115.104311 -65.897059 
L 115.6126 -65.882371 
L 116.12089 -65.870096 
L 116.629179 -65.860239 
L 117.137468 -65.852802 
L 117.645757 -65.847787 
L 118.154047 -65.845197 
L 118.662336 -65.845037 
L 119.170625 -65.847308 
L 119.678915 -65.852013 
L 120.187204 -65.859156 
L 120.695493 -65.868739 
L 121.203783 -65.880766 
L 121.712072 -65.895239 
L 122.220361 -65.912162 
L 122.72865 -65.931538 
L 123.23694 -65.95337 
L 123.745229 -65.97766 
L 124.253518 -66.004413 
L 124.761808 -66.03363 
L 125.270097 -66.065316 
L 125.778386 -66.099473 
L 126.286676 -66.136105 
L 126.794965 -66.175214 
L 127.303254 -66.216804 
L 127.811544 -66.260878 
L 128.319833 -66.30744 
L 128.828122 -66.356492 
L 129.336411 -66.408038 
L 129.844701 -66.46208 
L 130.35299 -66.518623 
L 130.861279 -66.577668 
L 131.369569 -66.639221 
L 131.877858 -66.703283 
L 132.386147 -66.769858 
L 132.894437 -66.838949 
L 133.402726 -66.91056 
L 133.911015 -66.984694 
L 134.419305 -67.061353 
L 134.927594 -67.140542 
L 135.435883 -67.222263 
L 135.944172 -67.30652 
L 136.452462 -67.393316 
L 136.960751 -67.482654 
L 137.46904 -67.574537 
L 137.97733 -67.668969 
L 138.485619 -67.765953 
L 138.993908 -67.865492 
L 139.502198 -67.967589 
L 140.010487 -68.072248 
L 140.518776 -68.179472 
L 141.027065 -68.289263 
L 141.535355 -68.401626 
L 142.043644 -68.516563 
L 142.551933 -68.634078 
L 143.060223 -68.754174 
L 143.568512 -68.876854 
L 144.076801 -69.00212 
L 144.585091 -69.129977 
L 145.09338 -69.260427 
L 145.601669 -69.393474 
L 146.109959 -69.52912 
L 146.618248 -69.667369 
L 147.126537 -69.808224 
L 147.634826 -69.951687 
L 148.143116 -70.097763 
L 148.651405 -70.221049 
L 149.159694 -70.311493 
L 149.667984 -70.404405 
L 150.176273 -70.499783 
L 150.684562 -70.597623 
L 151.192852 -70.697923 
L 151.701141 -70.80068 
L 152.20943 -70.90589 
L 152.71772 -71.013551 
L 153.226009 -71.123659 
L 153.734298 -71.236213 
L 154.242587 -71.351209 
L 154.750877 -71.468644 
L 155.259166 -71.588515 
L 155.767455 -71.71082 
L 156.275745 -71.835556 
L 156.784034 -71.962719 
L 157.292323 -72.092307 
L 157.800613 -72.224319 
L 158.308902 -72.358749 
L 158.817191 -72.495597 
L 159.325481 -72.634859 
L 159.83377 -72.776532 
L 160.342059 -72.920615 
L 160.850348 -73.067104 
L 161.358638 -73.215997 
L 161.866927 -73.367292 
L 162.375216 -73.520984 
L 162.883506 -73.677073 
L 163.391795 -73.835556 
L 163.900084 -73.99643 
L 164.408374 -74.159692 
L 164.916663 -74.325341 
L 165.424952 -74.493373 
L 165.933241 -74.663787 
L 166.441531 -74.836581 
L 166.94982 -75.01175 
L 167.458109 -75.189294 
L 167.966399 -75.36921 
L 168.474688 -75.551495 
L 168.982977 -75.736149 
L 169.491267 -75.923167 
L 169.999556 -76.112548 
L 170.507845 -76.304291 
L 171.016135 -76.498391 
L 171.524424 -76.694849 
L 172.032713 -76.89366 
L 172.541002 -77.094824 
L 173.049292 -77.298338 
L 173.557581 -77.5042 
L 174.06587 -77.712409 
L 174.57416 -77.922961 
L 175.082449 -78.135855 
L 175.590738 -78.35109 
L 176.099028 -78.568662 
L 176.607317 -78.788571 
L 177.115606 -79.010814 
L 177.623896 -79.235389 
L 178.132185 -79.462295 
L 178.640474 -79.691529 
L 179.148763 -79.923091 
L 179.657053 -80.156978 
L 180.165342 -80.393187 
L 180.673631 -80.631718 
L 181.181921 -80.872569 
L 181.69021 -81.115738 
L 182.198499 -81.361223 
L 182.706789 -81.609024 
L 183.215078 -81.859137 
L 183.723367 -82.111561 
L 184.231656 -82.366296 
L 184.739946 -82.623337 
L 185.248235 -82.882687 
L 185.756524 -83.144341 
L 186.264814 -83.408298 
L 186.773103 -83.674558 
L 187.281392 -83.943118 
L 187.789682 -84.213977 
L 188.297971 -84.487134 
L 188.80626 -84.762586 
L 189.31455 -85.040334 
L 189.822839 -85.320375 
L 190.331128 -85.602707 
L 190.839417 -85.88733 
L 191.347707 -86.174243 
L 191.855996 -86.463443 
L 192.364285 -86.75493 
L 192.872575 -87.048701 
L 193.380864 -87.344757 
L 193.889153 -87.643096 
L 194.397443 -87.943716 
L 194.905732 -88.246616 
L 195.414021 -88.551795 
L 195.922311 -88.859252 
L 196.4306 -89.168985 
L 196.938889 -89.480995 
L 197.447178 -89.795278 
L 197.955468 -90.111834 
L 198.463757 -90.430663 
L 198.972046 -90.751762 
L 199.480336 -91.075131 
L 199.988625 -91.400769 
L 200.496914 -91.728675 
L 201.005204 -92.058847 
L 201.513493 -92.391285 
L 202.021782 -92.725987 
L 202.530072 -93.062953 
L 203.038361 -93.402182 
L 203.54665 -93.743672 
L 204.054939 -94.087424 
L 204.563229 -94.433433 
L 205.071518 -94.781703 
L 205.579807 -95.132231 
L 206.088097 -95.485015 
L 206.596386 -95.840054 
L 207.104675 -96.197349 
L 207.612965 -96.556899 
L 208.121254 -96.918702 
L 208.629543 -97.282757 
L 209.137832 -97.649065 
L 209.646122 -98.017622 
L 210.154411 -98.388431 
L 210.6627 -98.761489 
L 211.17099 -99.136795 
L 211.679279 -99.514348 
L 212.187568 -99.894149 
L 212.695858 -100.276194 
L 213.204147 -100.660487 
L 213.712436 -101.047024 
L 214.220726 -101.435804 
L 214.729015 -101.826828 
L 215.237304 -102.220094 
L 215.745593 -102.615603 
L 216.253883 -103.013352 
L 216.762172 -103.413342 
L 217.270461 -103.815571 
L 217.778751 -104.220039 
L 218.28704 -104.626746 
L 218.795329 -105.035691 
L 219.303619 -105.446873 
L 219.811908 -105.860292 
L 220.320197 -106.275946 
L 220.828487 -106.693835 
L 221.336776 -107.113961 
L 221.845065 -107.536319 
L 222.353354 -107.960911 
L 222.861644 -108.387736 
L 223.369933 -108.816794 
L 223.878222 -109.248083 
L 224.386512 -109.681604 
L 224.894801 -110.117355 
L 225.40309 -110.555336 
L 225.91138 -110.995548 
L 226.419669 -111.437988 
L 226.927958 -111.882657 
L 227.436247 -112.329554 
L 227.944537 -112.778679 
L 228.452826 -113.23003 
L 228.961115 -113.68361 
L 229.469405 -114.139414 
L 229.977694 -114.597446 
L 230.485983 -115.057702 
L 230.994273 -115.520182 
L 231.502562 -115.984886 
L 232.010851 -116.451815 
L 232.519141 -116.920967 
L 233.02743 -117.392342 
L 233.535719 -117.86594 
L 234.044008 -118.34176 
L 234.552298 -118.819802 
L 235.060587 -119.300065 
L 235.568876 -119.782549 
L 236.077166 -120.267254 
L 236.585455 -120.754177 
L 237.093744 -121.243322 
L 237.602034 -121.734685 
L 238.110323 -122.228268 
L 238.618612 -122.724069 
L 239.126902 -123.222089 
L 239.635191 -123.722326 
L 240.14348 -124.22478 
L 240.651769 -124.729453 
L 241.160059 -125.236341 
L 241.668348 -125.745445 
L 242.176637 -126.256767 
L 242.684927 -126.770304 
L 243.193216 -127.286056 
L 243.701505 -127.804025 
L 244.209795 -128.324206 
L 244.718084 -128.846602 
L 245.226373 -129.371214 
L 245.734663 -129.898038 
L 246.242952 -130.427077 
L 246.751241 -130.958329 
L 247.25953 -131.491792 
L 247.76782 -132.027471 
L 248.276109 -132.56536 
L 248.784398 -133.105462 
L 249.292688 -133.647774 
L 249.800977 -134.1923 
L 250.309266 -134.739036 
L 250.817556 -135.287983 
L 251.325845 -135.83914 
L 251.834134 -136.392509 
L 252.342423 -136.948087 
L 252.850713 -137.505876 
L 253.359002 -138.065874 
L 253.867291 -138.628081 
L 254.375581 -139.192498 
L 254.88387 -139.759123 
L 255.392159 -140.327958 
L 255.900449 -140.899 
L 256.408738 -141.472251 
L 256.917027 -142.047709 
L 257.425317 -142.625377 
L 257.933606 -143.205251 
L 258.441895 -143.787332 
L 258.950184 -144.37162 
L 259.458474 -144.958116 
L 259.966763 -145.546818 
L 260.475052 -146.137727 
L 260.983342 -146.730841 
L 261.491631 -147.326162 
L 261.99992 -147.923688 
L 262.50821 -148.52342 
L 263.016499 -149.125358 
L 263.524788 -149.729502 
L 264.033078 -150.335849 
L 264.541367 -150.944401 
L 265.049656 -151.555159 
L 265.557945 -152.168121 
L 266.066235 -152.783287 
L 266.574524 -153.400657 
L 267.082813 -154.020231 
L 267.591103 -154.642008 
L 268.099392 -155.265991 
L 268.607681 -155.892175 
L 269.115971 -156.520563 
L 269.62426 -157.151154 
L 270.132549 -157.78395 
L 270.640838 -158.418945 
L 271.149128 -159.056145 
L 271.657417 -159.695547 
L 272.165706 -160.337151 
L 272.673996 -160.980958 
L 273.182285 -161.626965 
L 273.690574 -162.275175 
L 274.198864 -162.925585 
L 274.198864 -162.925585 
L 274.198864 -191.882258 
L 273.690574 -191.038871 
L 273.182285 -190.198374 
L 272.673996 -189.360763 
L 272.165706 -188.526042 
L 271.657417 -187.694208 
L 271.149128 -186.865261 
L 270.640838 -186.039202 
L 270.132549 -185.216028 
L 269.62426 -184.395743 
L 269.115971 -183.578344 
L 268.607681 -182.763832 
L 268.099392 -181.952205 
L 267.591103 -181.143466 
L 267.082813 -180.337611 
L 266.574524 -179.534643 
L 266.066235 -178.734561 
L 265.557945 -177.937364 
L 265.049656 -177.143053 
L 264.541367 -176.351626 
L 264.033078 -175.563084 
L 263.524788 -174.777427 
L 263.016499 -173.994656 
L 262.50821 -173.214768 
L 261.99992 -172.437764 
L 261.491631 -171.663644 
L 260.983342 -170.892409 
L 260.475052 -170.124056 
L 259.966763 -169.358588 
L 259.458474 -168.596002 
L 258.950184 -167.8363 
L 258.441895 -167.079479 
L 257.933606 -166.325542 
L 257.425317 -165.574487 
L 256.917027 -164.826314 
L 256.408738 -164.081023 
L 255.900449 -163.338613 
L 255.392159 -162.599085 
L 254.88387 -161.862439 
L 254.375581 -161.128672 
L 253.867291 -160.397787 
L 253.359002 -159.669782 
L 252.850713 -158.944657 
L 252.342423 -158.222413 
L 251.834134 -157.503047 
L 251.325845 -156.786562 
L 250.817556 -156.072955 
L 250.309266 -155.362228 
L 249.800977 -154.654378 
L 249.292688 -153.949408 
L 248.784398 -153.247315 
L 248.276109 -152.548101 
L 247.76782 -151.851764 
L 247.25953 -151.158305 
L 246.751241 -150.467721 
L 246.242952 -149.780015 
L 245.734663 -149.095186 
L 245.226373 -148.413231 
L 244.718084 -147.734154 
L 244.209795 -147.057951 
L 243.701505 -146.384623 
L 243.193216 -145.714171 
L 242.684927 -145.046593 
L 242.176637 -144.381889 
L 241.668348 -143.720059 
L 241.160059 -143.061102 
L 240.651769 -142.405018 
L 240.14348 -141.751808 
L 239.635191 -141.101469 
L 239.126902 -140.454003 
L 238.618612 -139.809409 
L 238.110323 -139.167686 
L 237.602034 -138.528835 
L 237.093744 -137.892853 
L 236.585455 -137.259743 
L 236.077166 -136.629501 
L 235.568876 -136.002129 
L 235.060587 -135.377627 
L 234.552298 -134.755993 
L 234.044008 -134.137228 
L 233.535719 -133.52133 
L 233.02743 -132.908301 
L 232.519141 -132.298138 
L 232.010851 -131.690841 
L 231.502562 -131.086411 
L 230.994273 -130.484845 
L 230.485983 -129.886146 
L 229.977694 -129.290311 
L 229.469405 -128.697342 
L 228.961115 -128.107235 
L 228.452826 -127.519993 
L 227.944537 -126.935613 
L 227.436247 -126.354096 
L 226.927958 -125.775441 
L 226.419669 -125.199646 
L 225.91138 -124.626713 
L 225.40309 -124.056641 
L 224.894801 -123.489428 
L 224.386512 -122.925075 
L 223.878222 -122.363581 
L 223.369933 -121.804944 
L 222.861644 -121.249167 
L 222.353354 -120.696245 
L 221.845065 -120.146181 
L 221.336776 -119.598972 
L 220.828487 -119.05462 
L 220.320197 -118.513122 
L 219.811908 -117.974478 
L 219.303619 -117.438688 
L 218.795329 -116.905751 
L 218.28704 -116.375667 
L 217.778751 -115.848435 
L 217.270461 -115.324053 
L 216.762172 -114.802522 
L 216.253883 -114.283841 
L 215.745593 -113.768009 
L 215.237304 -113.255026 
L 214.729015 -112.74489 
L 214.220726 -112.237602 
L 213.712436 -111.733159 
L 213.204147 -111.231563 
L 212.695858 -110.732812 
L 212.187568 -110.236904 
L 211.679279 -109.74384 
L 211.17099 -109.253619 
L 210.6627 -108.766239 
L 210.154411 -108.281703 
L 209.646122 -107.800005 
L 209.137832 -107.321147 
L 208.629543 -106.845127 
L 208.121254 -106.371946 
L 207.612965 -105.901601 
L 207.104675 -105.434093 
L 206.596386 -104.96942 
L 206.088097 -104.507581 
L 205.579807 -104.048576 
L 205.071518 -103.592404 
L 204.563229 -103.139065 
L 204.054939 -102.688554 
L 203.54665 -102.240875 
L 203.038361 -101.796025 
L 202.530072 -101.354002 
L 202.021782 -100.914806 
L 201.513493 -100.478436 
L 201.005204 -100.044892 
L 200.496914 -99.614172 
L 199.988625 -99.186274 
L 199.480336 -98.761198 
L 198.972046 -98.338943 
L 198.463757 -97.919508 
L 197.955468 -97.502892 
L 197.447178 -97.089093 
L 196.938889 -96.67811 
L 196.4306 -96.269944 
L 195.922311 -95.864591 
L 195.414021 -95.462051 
L 194.905732 -95.062323 
L 194.397443 -94.665406 
L 193.889153 -94.271298 
L 193.380864 -93.879999 
L 192.872575 -93.491506 
L 192.364285 -93.105818 
L 191.855996 -92.722936 
L 191.347707 -92.342856 
L 190.839417 -91.965578 
L 190.331128 -91.591101 
L 189.822839 -91.219422 
L 189.31455 -90.850541 
L 188.80626 -90.484457 
L 188.297971 -90.121167 
L 187.789682 -89.760672 
L 187.281392 -89.402968 
L 186.773103 -89.048055 
L 186.264814 -88.69593 
L 185.756524 -88.346594 
L 185.248235 -88.000043 
L 184.739946 -87.656278 
L 184.231656 -87.315294 
L 183.723367 -86.977093 
L 183.215078 -86.641671 
L 182.706789 -86.309028 
L 182.198499 -85.979162 
L 181.69021 -85.65207 
L 181.181921 -85.327751 
L 180.673631 -85.006204 
L 180.165342 -84.687427 
L 179.657053 -84.371417 
L 179.148763 -84.058175 
L 178.640474 -83.747697 
L 178.132185 -83.439981 
L 177.623896 -83.135027 
L 177.115606 -82.832831 
L 176.607317 -82.533393 
L 176.099028 -82.23671 
L 175.590738 -81.942781 
L 175.082449 -81.651603 
L 174.57416 -81.363174 
L 174.06587 -81.077494 
L 173.557581 -80.794559 
L 173.049292 -80.514367 
L 172.541002 -80.236917 
L 172.032713 -79.962206 
L 171.524424 -79.690233 
L 171.016135 -79.420995 
L 170.507845 -79.15449 
L 169.999556 -78.890716 
L 169.491267 -78.62967 
L 168.982977 -78.371352 
L 168.474688 -78.115758 
L 167.966399 -77.862885 
L 167.458109 -77.612733 
L 166.94982 -77.365299 
L 166.441531 -77.120579 
L 165.933241 -76.878574 
L 165.424952 -76.639277 
L 164.916663 -76.40269 
L 164.408374 -76.168808 
L 163.900084 -75.93763 
L 163.391795 -75.709152 
L 162.883506 -75.483373 
L 162.375216 -75.26029 
L 161.866927 -75.0399 
L 161.358638 -74.822202 
L 160.850348 -74.607191 
L 160.342059 -74.394867 
L 159.83377 -74.185226 
L 159.325481 -73.978265 
L 158.817191 -73.773982 
L 158.308902 -73.572375 
L 157.800613 -73.37344 
L 157.292323 -73.177175 
L 156.784034 -72.983577 
L 156.275745 -72.792644 
L 155.767455 -72.604373 
L 155.259166 -72.41876 
L 154.750877 -72.235803 
L 154.242587 -72.0555 
L 153.734298 -71.877847 
L 153.226009 -71.702842 
L 152.71772 -71.530481 
L 152.20943 -71.360762 
L 151.701141 -71.193682 
L 151.192852 -71.029238 
L 150.684562 -70.867427 
L 150.176273 -70.708246 
L 149.667984 -70.551692 
L 149.159694 -70.397762 
L 148.651405 -70.246454 
L 148.143116 -70.133076 
L 147.634826 -70.047579 
L 147.126537 -69.964559 
L 146.618248 -69.88402 
L 146.109959 -69.805964 
L 145.601669 -69.730395 
L 145.09338 -69.657317 
L 144.585091 -69.586731 
L 144.076801 -69.518642 
L 143.568512 -69.453052 
L 143.060223 -69.389965 
L 142.551933 -69.329383 
L 142.043644 -69.27131 
L 141.535355 -69.21575 
L 141.027065 -69.162704 
L 140.518776 -69.112177 
L 140.010487 -69.064172 
L 139.502198 -69.018691 
L 138.993908 -68.975738 
L 138.485619 -68.935317 
L 137.97733 -68.89743 
L 137.46904 -68.862081 
L 136.960751 -68.829273 
L 136.452462 -68.799009 
L 135.944172 -68.771292 
L 135.435883 -68.746127 
L 134.927594 -68.723515 
L 134.419305 -68.70346 
L 133.911015 -68.685966 
L 133.402726 -68.671035 
L 132.894437 -68.658671 
L 132.386147 -68.648877 
L 131.877858 -68.641657 
L 131.369569 -68.637014 
L 130.861279 -68.63495 
L 130.35299 -68.635469 
L 129.844701 -68.638574 
L 129.336411 -68.64427 
L 128.828122 -68.652557 
L 128.319833 -68.663441 
L 127.811544 -68.676925 
L 127.303254 -68.69301 
L 126.794965 -68.711701 
L 126.286676 -68.733 
L 125.778386 -68.756912 
L 125.270097 -68.783439 
L 124.761808 -68.812584 
L 124.253518 -68.84435 
L 123.745229 -68.878741 
L 123.23694 -68.915759 
L 122.72865 -68.955408 
L 122.220361 -68.997691 
L 121.712072 -69.042611 
L 121.203783 -69.090171 
L 120.695493 -69.140374 
L 120.187204 -69.193223 
L 119.678915 -69.248721 
L 119.170625 -69.306871 
L 118.662336 -69.367677 
L 118.154047 -69.43114 
L 117.645757 -69.497265 
L 117.137468 -69.566053 
L 116.629179 -69.637508 
L 116.12089 -69.711634 
L 115.6126 -69.788432 
L 115.104311 -69.867905 
L 114.596022 -69.950057 
L 114.087732 -70.03489 
L 113.579443 -70.122407 
L 113.071154 -70.212612 
L 112.562864 -70.305506 
L 112.054575 -70.401092 
L 111.546286 -70.499374 
L 111.037996 -70.600353 
L 110.529707 -70.704033 
L 110.021418 -70.810416 
L 109.513129 -70.919505 
L 109.004839 -71.031302 
L 108.49655 -71.145811 
L 107.988261 -71.263033 
L 107.479971 -71.382972 
L 106.971682 -71.505629 
L 106.463393 -71.631008 
L 105.955103 -71.75911 
L 105.446814 -71.889938 
L 104.938525 -72.023496 
L 104.430235 -72.159784 
L 103.921946 -72.298806 
L 103.413657 -72.440564 
L 102.905368 -72.58506 
L 102.397078 -72.732296 
L 101.888789 -72.882276 
L 101.3805 -73.035 
L 100.87221 -73.190472 
L 100.363921 -73.348693 
L 99.855632 -73.509666 
L 99.347342 -73.673394 
L 98.839053 -73.839877 
L 98.330764 -74.009118 
L 97.822474 -74.18112 
L 97.314185 -74.355885 
L 96.805896 -74.533413 
L 96.297607 -74.713708 
L 95.789317 -74.896773 
L 95.281028 -75.082607 
L 94.772739 -75.271214 
L 94.264449 -75.462595 
L 93.75616 -75.656753 
L 93.247871 -75.853689 
L 92.739581 -76.053405 
L 92.231292 -76.255903 
L 91.723003 -76.461185 
L 91.214714 -76.669253 
L 90.706424 -76.880107 
L 90.198135 -77.093751 
L 89.689846 -77.310186 
L 89.181556 -77.529413 
L 88.673267 -77.751435 
L 88.164978 -77.976252 
L 87.656688 -78.203867 
L 87.148399 -78.434281 
L 86.64011 -78.667496 
L 86.13182 -78.903513 
L 85.623531 -79.142335 
L 85.115242 -79.383961 
L 84.606953 -79.628395 
L 84.098663 -79.875636 
L 83.590374 -80.125688 
L 83.082085 -80.378551 
L 82.573795 -80.634227 
L 82.065506 -80.892717 
L 81.557217 -81.154022 
L 81.048927 -81.418145 
L 80.540638 -81.685085 
L 80.032349 -81.954845 
L 79.524059 -82.227426 
L 79.01577 -82.50283 
L 78.507481 -82.781057 
L 77.999192 -83.062108 
L 77.490902 -83.345985 
L 76.982613 -83.63269 
L 76.474324 -83.922223 
L 75.966034 -84.214585 
L 75.457745 -84.509779 
L 74.949456 -84.807804 
L 74.441166 -85.108661 
L 73.932877 -85.412353 
L 73.424588 -85.718881 
L 72.916299 -86.028244 
L 72.408009 -86.340445 
L 71.89972 -86.655484 
L 71.391431 -86.973363 
L 70.883141 -87.294081 
L 70.374852 -87.617642 
L 69.866563 -87.944044 
L 69.358273 -88.27329 
L 68.849984 -88.60538 
L 68.341695 -88.940316 
L 67.833405 -89.278097 
L 67.325116 -89.618726 
L 66.816827 -89.962202 
L 66.308538 -90.308527 
L 65.800248 -90.657702 
L 65.291959 -91.009728 
L 64.78367 -91.364604 
L 64.27538 -91.722333 
L 63.767091 -92.082915 
L 63.258802 -92.44635 
L 62.750512 -92.812641 
L 62.242223 -93.181786 
L 61.733934 -93.553787 
L 61.225644 -93.928646 
L 60.717355 -94.306362 
L 60.209066 -94.686937 
L 59.700777 -95.07037 
L 59.192487 -95.456662 
L 58.684198 -95.845816 
L 58.175909 -96.23783 
L 57.667619 -96.632706 
L 57.15933 -97.030446 
L 56.651041 -97.431046 
L 56.142751 -97.834513 
L 55.634462 -98.240842 
L 55.126173 -98.650036 
L 54.617883 -99.062096 
L 54.109594 -99.477022 
L 53.601305 -99.894815 
L 53.093016 -100.315475 
L 52.584726 -100.739002 
L 52.076437 -101.165399 
L 51.568148 -101.594663 
L 51.059858 -102.026798 
L 50.551569 -102.461803 
L 50.04328 -102.899677 
L 49.53499 -103.340423 
L 49.026701 -103.784042 
L 48.518412 -104.230531 
L 48.010123 -104.679893 
L 47.501833 -105.132128 
L 46.993544 -105.587237 
L 46.485255 -106.045219 
L 45.976965 -106.506076 
L 45.468676 -106.969808 
L 44.960387 -107.436415 
L 44.452097 -107.905897 
L 43.943808 -108.378256 
L 43.435519 -108.853491 
L 42.927229 -109.331604 
L 42.41894 -109.812593 
L 41.910651 -110.296461 
L 41.402362 -110.783206 
L 40.894072 -111.27283 
L 40.385783 -111.765333 
L 39.877494 -112.260715 
L 39.369204 -112.758977 
L 38.860915 -113.260119 
L 38.352626 -113.764141 
L 37.844336 -114.271045 
L 37.336047 -114.78083 
L 36.827758 -115.293493 
L 36.319468 -115.809042 
L 35.811179 -116.32747 
L 35.30289 -116.848783 
L 34.794601 -117.372977 
L 34.286311 -117.900055 
L 33.778022 -118.430015 
L 33.269733 -118.96286 
L 32.761443 -119.498589 
L 32.253154 -120.0372 
L 31.744865 -120.578696 
L 31.236575 -121.12308 
L 30.728286 -121.670345 
L 30.219997 -122.220498 
L 29.711708 -122.773535 
L 29.203418 -123.32946 
L 28.695129 -123.888268 
L 28.18684 -124.449964 
L 27.67855 -125.014547 
L 27.170261 -125.582016 
L 26.661972 -126.152373 
L 26.153682 -126.725617 
L 25.645393 -127.301749 
L 25.137104 -127.880768 
L 24.628814 -128.462676 
L 24.120525 -129.047472 
L 23.612236 -129.635156 
L 23.103947 -130.225729 
L 22.595657 -130.81919 
L 22.087368 -131.415541 
L 21.579079 -132.014781 
L 21.070789 -132.616911 
L 20.5625 -133.221931 
z
" id="m0d5edaa456" style="stroke:#dfb4af;"/>
    </defs>
    <g clip-path="url(#p9002e6cbbb)">
     <use style="fill:#dfb4af;stroke:#dfb4af;" x="0" xlink:href="#m0d5edaa456" y="197.658125"/>
    </g>
   </g>
   <g id="matplotlib.axis_1">
    <g id="xtick_1">
     <g id="line2d_1">
      <path clip-path="url(#p9002e6cbbb)" d="M 59.38042 173.78 
L 59.38042 10.7 
" style="fill:none;stroke:#b0b0b0;stroke-dasharray:0.5,0.825;stroke-dashoffset:0;stroke-width:0.5;"/>
     </g>
     <g id="line2d_2">
      <defs>
       <path d="M 0 0 
L 0 3.5 
" id="m3e92b24f8b" style="stroke:#000000;stroke-width:0.8;"/>
      </defs>
      <g>
       <use style="stroke:#000000;stroke-width:0.8;" x="59.38042" xlink:href="#m3e92b24f8b" y="173.78"/>
      </g>
     </g>
     <g id="text_1">
      <!-- −0.4 -->
      <defs>
       <path d="M 10.59375 35.5 
L 73.1875 35.5 
L 73.1875 27.203125 
L 10.59375 27.203125 
z
" id="DejaVuSans-2212"/>
       <path d="M 31.78125 66.40625 
Q 24.171875 66.40625 20.328125 58.90625 
Q 16.5 51.421875 16.5 36.375 
Q 16.5 21.390625 20.328125 13.890625 
Q 24.171875 6.390625 31.78125 6.390625 
Q 39.453125 6.390625 43.28125 13.890625 
Q 47.125 21.390625 47.125 36.375 
Q 47.125 51.421875 43.28125 58.90625 
Q 39.453125 66.40625 31.78125 66.40625 
z
M 31.78125 74.21875 
Q 44.046875 74.21875 50.515625 64.515625 
Q 56.984375 54.828125 56.984375 36.375 
Q 56.984375 17.96875 50.515625 8.265625 
Q 44.046875 -1.421875 31.78125 -1.421875 
Q 19.53125 -1.421875 13.0625 8.265625 
Q 6.59375 17.96875 6.59375 36.375 
Q 6.59375 54.828125 13.0625 64.515625 
Q 19.53125 74.21875 31.78125 74.21875 
z
" id="DejaVuSans-30"/>
       <path d="M 10.6875 12.40625 
L 21 12.40625 
L 21 0 
L 10.6875 0 
z
" id="DejaVuSans-2e"/>
       <path d="M 37.796875 64.3125 
L 12.890625 25.390625 
L 37.796875 25.390625 
z
M 35.203125 72.90625 
L 47.609375 72.90625 
L 47.609375 25.390625 
L 58.015625 25.390625 
L 58.015625 17.1875 
L 47.609375 17.1875 
L 47.609375 0 
L 37.796875 0 
L 37.796875 17.1875 
L 4.890625 17.1875 
L 4.890625 26.703125 
z
" id="DejaVuSans-34"/>
      </defs>
      <g transform="translate(47.239014 188.378438)scale(0.1 -0.1)">
       <use xlink:href="#DejaVuSans-2212"/>
       <use x="83.789062" xlink:href="#DejaVuSans-30"/>
       <use x="147.412109" xlink:href="#DejaVuSans-2e"/>
       <use x="179.199219" xlink:href="#DejaVuSans-34"/>
      </g>
     </g>
    </g>
    <g id="xtick_2">
     <g id="line2d_3">
      <path clip-path="url(#p9002e6cbbb)" d="M 103.90965 173.78 
L 103.90965 10.7 
" style="fill:none;stroke:#b0b0b0;stroke-dasharray:0.5,0.825;stroke-dashoffset:0;stroke-width:0.5;"/>
     </g>
     <g id="line2d_4">
      <g>
       <use style="stroke:#000000;stroke-width:0.8;" x="103.90965" xlink:href="#m3e92b24f8b" y="173.78"/>
      </g>
     </g>
     <g id="text_2">
      <!-- −0.2 -->
      <defs>
       <path d="M 19.1875 8.296875 
L 53.609375 8.296875 
L 53.609375 0 
L 7.328125 0 
L 7.328125 8.296875 
Q 12.9375 14.109375 22.625 23.890625 
Q 32.328125 33.6875 34.8125 36.53125 
Q 39.546875 41.84375 41.421875 45.53125 
Q 43.3125 49.21875 43.3125 52.78125 
Q 43.3125 58.59375 39.234375 62.25 
Q 35.15625 65.921875 28.609375 65.921875 
Q 23.96875 65.921875 18.8125 64.3125 
Q 13.671875 62.703125 7.8125 59.421875 
L 7.8125 69.390625 
Q 13.765625 71.78125 18.9375 73 
Q 24.125 74.21875 28.421875 74.21875 
Q 39.75 74.21875 46.484375 68.546875 
Q 53.21875 62.890625 53.21875 53.421875 
Q 53.21875 48.921875 51.53125 44.890625 
Q 49.859375 40.875 45.40625 35.40625 
Q 44.1875 33.984375 37.640625 27.21875 
Q 31.109375 20.453125 19.1875 8.296875 
z
" id="DejaVuSans-32"/>
      </defs>
      <g transform="translate(91.768244 188.378438)scale(0.1 -0.1)">
       <use xlink:href="#DejaVuSans-2212"/>
       <use x="83.789062" xlink:href="#DejaVuSans-30"/>
       <use x="147.412109" xlink:href="#DejaVuSans-2e"/>
       <use x="179.199219" xlink:href="#DejaVuSans-32"/>
      </g>
     </g>
    </g>
    <g id="xtick_3">
     <g id="line2d_5">
      <path clip-path="url(#p9002e6cbbb)" d="M 148.43888 173.78 
L 148.43888 10.7 
" style="fill:none;stroke:#b0b0b0;stroke-dasharray:0.5,0.825;stroke-dashoffset:0;stroke-width:0.5;"/>
     </g>
     <g id="line2d_6">
      <g>
       <use style="stroke:#000000;stroke-width:0.8;" x="148.43888" xlink:href="#m3e92b24f8b" y="173.78"/>
      </g>
     </g>
     <g id="text_3">
      <!-- 0.0 -->
      <g transform="translate(140.487318 188.378438)scale(0.1 -0.1)">
       <use xlink:href="#DejaVuSans-30"/>
       <use x="63.623047" xlink:href="#DejaVuSans-2e"/>
       <use x="95.410156" xlink:href="#DejaVuSans-30"/>
      </g>
     </g>
    </g>
    <g id="xtick_4">
     <g id="line2d_7">
      <path clip-path="url(#p9002e6cbbb)" d="M 192.96811 173.78 
L 192.96811 10.7 
" style="fill:none;stroke:#b0b0b0;stroke-dasharray:0.5,0.825;stroke-dashoffset:0;stroke-width:0.5;"/>
     </g>
     <g id="line2d_8">
      <g>
       <use style="stroke:#000000;stroke-width:0.8;" x="192.96811" xlink:href="#m3e92b24f8b" y="173.78"/>
      </g>
     </g>
     <g id="text_4">
      <!-- 0.2 -->
      <g transform="translate(185.016548 188.378438)scale(0.1 -0.1)">
       <use xlink:href="#DejaVuSans-30"/>
       <use x="63.623047" xlink:href="#DejaVuSans-2e"/>
       <use x="95.410156" xlink:href="#DejaVuSans-32"/>
      </g>
     </g>
    </g>
    <g id="xtick_5">
     <g id="line2d_9">
      <path clip-path="url(#p9002e6cbbb)" d="M 237.497341 173.78 
L 237.497341 10.7 
" style="fill:none;stroke:#b0b0b0;stroke-dasharray:0.5,0.825;stroke-dashoffset:0;stroke-width:0.5;"/>
     </g>
     <g id="line2d_10">
      <g>
       <use style="stroke:#000000;stroke-width:0.8;" x="237.497341" xlink:href="#m3e92b24f8b" y="173.78"/>
      </g>
     </g>
     <g id="text_5">
      <!-- 0.4 -->
      <g transform="translate(229.545778 188.378438)scale(0.1 -0.1)">
       <use xlink:href="#DejaVuSans-30"/>
       <use x="63.623047" xlink:href="#DejaVuSans-2e"/>
       <use x="95.410156" xlink:href="#DejaVuSans-34"/>
      </g>
     </g>
    </g>
   </g>
   <g id="matplotlib.axis_2">
    <g id="ytick_1">
     <g id="line2d_11">
      <path clip-path="url(#p9002e6cbbb)" d="M 20.5625 153.436185 
L 274.198864 153.436185 
" style="fill:none;stroke:#b0b0b0;stroke-dasharray:0.5,0.825;stroke-dashoffset:0;stroke-width:0.5;"/>
     </g>
     <g id="line2d_12">
      <defs>
       <path d="M 0 0 
L -3.5 0 
" id="mdbf441da07" style="stroke:#000000;stroke-width:0.8;"/>
      </defs>
      <g>
       <use style="stroke:#000000;stroke-width:0.8;" x="20.5625" xlink:href="#mdbf441da07" y="153.436185"/>
      </g>
     </g>
     <g id="text_6">
      <!-- 3 -->
      <defs>
       <path d="M 40.578125 39.3125 
Q 47.65625 37.796875 51.625 33 
Q 55.609375 28.21875 55.609375 21.1875 
Q 55.609375 10.40625 48.1875 4.484375 
Q 40.765625 -1.421875 27.09375 -1.421875 
Q 22.515625 -1.421875 17.65625 -0.515625 
Q 12.796875 0.390625 7.625 2.203125 
L 7.625 11.71875 
Q 11.71875 9.328125 16.59375 8.109375 
Q 21.484375 6.890625 26.8125 6.890625 
Q 36.078125 6.890625 40.9375 10.546875 
Q 45.796875 14.203125 45.796875 21.1875 
Q 45.796875 27.640625 41.28125 31.265625 
Q 36.765625 34.90625 28.71875 34.90625 
L 20.21875 34.90625 
L 20.21875 43.015625 
L 29.109375 43.015625 
Q 36.375 43.015625 40.234375 45.921875 
Q 44.09375 48.828125 44.09375 54.296875 
Q 44.09375 59.90625 40.109375 62.90625 
Q 36.140625 65.921875 28.71875 65.921875 
Q 24.65625 65.921875 20.015625 65.03125 
Q 15.375 64.15625 9.8125 62.3125 
L 9.8125 71.09375 
Q 15.4375 72.65625 20.34375 73.4375 
Q 25.25 74.21875 29.59375 74.21875 
Q 40.828125 74.21875 47.359375 69.109375 
Q 53.90625 64.015625 53.90625 55.328125 
Q 53.90625 49.265625 50.4375 45.09375 
Q 46.96875 40.921875 40.578125 39.3125 
z
" id="DejaVuSans-33"/>
      </defs>
      <g transform="translate(7.2 157.235403)scale(0.1 -0.1)">
       <use xlink:href="#DejaVuSans-33"/>
      </g>
     </g>
    </g>
    <g id="ytick_2">
     <g id="line2d_13">
      <path clip-path="url(#p9002e6cbbb)" d="M 20.5625 127.47416 
L 274.198864 127.47416 
" style="fill:none;stroke:#b0b0b0;stroke-dasharray:0.5,0.825;stroke-dashoffset:0;stroke-width:0.5;"/>
     </g>
     <g id="line2d_14">
      <g>
       <use style="stroke:#000000;stroke-width:0.8;" x="20.5625" xlink:href="#mdbf441da07" y="127.47416"/>
      </g>
     </g>
     <g id="text_7">
      <!-- 4 -->
      <g transform="translate(7.2 131.273379)scale(0.1 -0.1)">
       <use xlink:href="#DejaVuSans-34"/>
      </g>
     </g>
    </g>
    <g id="ytick_3">
     <g id="line2d_15">
      <path clip-path="url(#p9002e6cbbb)" d="M 20.5625 101.512135 
L 274.198864 101.512135 
" style="fill:none;stroke:#b0b0b0;stroke-dasharray:0.5,0.825;stroke-dashoffset:0;stroke-width:0.5;"/>
     </g>
     <g id="line2d_16">
      <g>
       <use style="stroke:#000000;stroke-width:0.8;" x="20.5625" xlink:href="#mdbf441da07" y="101.512135"/>
      </g>
     </g>
     <g id="text_8">
      <!-- 5 -->
      <defs>
       <path d="M 10.796875 72.90625 
L 49.515625 72.90625 
L 49.515625 64.59375 
L 19.828125 64.59375 
L 19.828125 46.734375 
Q 21.96875 47.46875 24.109375 47.828125 
Q 26.265625 48.1875 28.421875 48.1875 
Q 40.625 48.1875 47.75 41.5 
Q 54.890625 34.8125 54.890625 23.390625 
Q 54.890625 11.625 47.5625 5.09375 
Q 40.234375 -1.421875 26.90625 -1.421875 
Q 22.3125 -1.421875 17.546875 -0.640625 
Q 12.796875 0.140625 7.71875 1.703125 
L 7.71875 11.625 
Q 12.109375 9.234375 16.796875 8.0625 
Q 21.484375 6.890625 26.703125 6.890625 
Q 35.15625 6.890625 40.078125 11.328125 
Q 45.015625 15.765625 45.015625 23.390625 
Q 45.015625 31 40.078125 35.4375 
Q 35.15625 39.890625 26.703125 39.890625 
Q 22.75 39.890625 18.8125 39.015625 
Q 14.890625 38.140625 10.796875 36.28125 
z
" id="DejaVuSans-35"/>
      </defs>
      <g transform="translate(7.2 105.311354)scale(0.1 -0.1)">
       <use xlink:href="#DejaVuSans-35"/>
      </g>
     </g>
    </g>
    <g id="ytick_4">
     <g id="line2d_17">
      <path clip-path="url(#p9002e6cbbb)" d="M 20.5625 75.55011 
L 274.198864 75.55011 
" style="fill:none;stroke:#b0b0b0;stroke-dasharray:0.5,0.825;stroke-dashoffset:0;stroke-width:0.5;"/>
     </g>
     <g id="line2d_18">
      <g>
       <use style="stroke:#000000;stroke-width:0.8;" x="20.5625" xlink:href="#mdbf441da07" y="75.55011"/>
      </g>
     </g>
     <g id="text_9">
      <!-- 6 -->
      <defs>
       <path d="M 33.015625 40.375 
Q 26.375 40.375 22.484375 35.828125 
Q 18.609375 31.296875 18.609375 23.390625 
Q 18.609375 15.53125 22.484375 10.953125 
Q 26.375 6.390625 33.015625 6.390625 
Q 39.65625 6.390625 43.53125 10.953125 
Q 47.40625 15.53125 47.40625 23.390625 
Q 47.40625 31.296875 43.53125 35.828125 
Q 39.65625 40.375 33.015625 40.375 
z
M 52.59375 71.296875 
L 52.59375 62.3125 
Q 48.875 64.0625 45.09375 64.984375 
Q 41.3125 65.921875 37.59375 65.921875 
Q 27.828125 65.921875 22.671875 59.328125 
Q 17.53125 52.734375 16.796875 39.40625 
Q 19.671875 43.65625 24.015625 45.921875 
Q 28.375 48.1875 33.59375 48.1875 
Q 44.578125 48.1875 50.953125 41.515625 
Q 57.328125 34.859375 57.328125 23.390625 
Q 57.328125 12.15625 50.6875 5.359375 
Q 44.046875 -1.421875 33.015625 -1.421875 
Q 20.359375 -1.421875 13.671875 8.265625 
Q 6.984375 17.96875 6.984375 36.375 
Q 6.984375 53.65625 15.1875 63.9375 
Q 23.390625 74.21875 37.203125 74.21875 
Q 40.921875 74.21875 44.703125 73.484375 
Q 48.484375 72.75 52.59375 71.296875 
z
" id="DejaVuSans-36"/>
      </defs>
      <g transform="translate(7.2 79.349329)scale(0.1 -0.1)">
       <use xlink:href="#DejaVuSans-36"/>
      </g>
     </g>
    </g>
    <g id="ytick_5">
     <g id="line2d_19">
      <path clip-path="url(#p9002e6cbbb)" d="M 20.5625 49.588086 
L 274.198864 49.588086 
" style="fill:none;stroke:#b0b0b0;stroke-dasharray:0.5,0.825;stroke-dashoffset:0;stroke-width:0.5;"/>
     </g>
     <g id="line2d_20">
      <g>
       <use style="stroke:#000000;stroke-width:0.8;" x="20.5625" xlink:href="#mdbf441da07" y="49.588086"/>
      </g>
     </g>
     <g id="text_10">
      <!-- 7 -->
      <defs>
       <path d="M 8.203125 72.90625 
L 55.078125 72.90625 
L 55.078125 68.703125 
L 28.609375 0 
L 18.3125 0 
L 43.21875 64.59375 
L 8.203125 64.59375 
z
" id="DejaVuSans-37"/>
      </defs>
      <g transform="translate(7.2 53.387304)scale(0.1 -0.1)">
       <use xlink:href="#DejaVuSans-37"/>
      </g>
     </g>
    </g>
    <g id="ytick_6">
     <g id="line2d_21">
      <path clip-path="url(#p9002e6cbbb)" d="M 20.5625 23.626061 
L 274.198864 23.626061 
" style="fill:none;stroke:#b0b0b0;stroke-dasharray:0.5,0.825;stroke-dashoffset:0;stroke-width:0.5;"/>
     </g>
     <g id="line2d_22">
      <g>
       <use style="stroke:#000000;stroke-width:0.8;" x="20.5625" xlink:href="#mdbf441da07" y="23.626061"/>
      </g>
     </g>
     <g id="text_11">
      <!-- 8 -->
      <defs>
       <path d="M 31.78125 34.625 
Q 24.75 34.625 20.71875 30.859375 
Q 16.703125 27.09375 16.703125 20.515625 
Q 16.703125 13.921875 20.71875 10.15625 
Q 24.75 6.390625 31.78125 6.390625 
Q 38.8125 6.390625 42.859375 10.171875 
Q 46.921875 13.96875 46.921875 20.515625 
Q 46.921875 27.09375 42.890625 30.859375 
Q 38.875 34.625 31.78125 34.625 
z
M 21.921875 38.8125 
Q 15.578125 40.375 12.03125 44.71875 
Q 8.5 49.078125 8.5 55.328125 
Q 8.5 64.0625 14.71875 69.140625 
Q 20.953125 74.21875 31.78125 74.21875 
Q 42.671875 74.21875 48.875 69.140625 
Q 55.078125 64.0625 55.078125 55.328125 
Q 55.078125 49.078125 51.53125 44.71875 
Q 48 40.375 41.703125 38.8125 
Q 48.828125 37.15625 52.796875 32.3125 
Q 56.78125 27.484375 56.78125 20.515625 
Q 56.78125 9.90625 50.3125 4.234375 
Q 43.84375 -1.421875 31.78125 -1.421875 
Q 19.734375 -1.421875 13.25 4.234375 
Q 6.78125 9.90625 6.78125 20.515625 
Q 6.78125 27.484375 10.78125 32.3125 
Q 14.796875 37.15625 21.921875 38.8125 
z
M 18.3125 54.390625 
Q 18.3125 48.734375 21.84375 45.5625 
Q 25.390625 42.390625 31.78125 42.390625 
Q 38.140625 42.390625 41.71875 45.5625 
Q 45.3125 48.734375 45.3125 54.390625 
Q 45.3125 60.0625 41.71875 63.234375 
Q 38.140625 66.40625 31.78125 66.40625 
Q 25.390625 66.40625 21.84375 63.234375 
Q 18.3125 60.0625 18.3125 54.390625 
z
" id="DejaVuSans-38"/>
      </defs>
      <g transform="translate(7.2 27.42528)scale(0.1 -0.1)">
       <use xlink:href="#DejaVuSans-38"/>
      </g>
     </g>
    </g>
   </g>
   <g id="line2d_23">
    <path clip-path="url(#p9002e6cbbb)" d="M 20.5625 76.761889 
L 26.153682 82.346486 
L 31.744865 87.623162 
L 37.336047 92.591916 
L 42.927229 97.252749 
L 48.518412 101.60566 
L 53.601305 105.295648 
L 58.684198 108.731155 
L 63.767091 111.912182 
L 68.849984 114.838728 
L 73.932877 117.510793 
L 79.01577 119.928378 
L 84.098663 122.091482 
L 89.181556 124.000106 
L 94.264449 125.654249 
L 99.347342 127.053912 
L 103.921946 128.096028 
L 108.49655 128.932014 
L 113.071154 129.561871 
L 117.645757 129.985599 
L 122.220361 130.203198 
L 126.794965 130.214668 
L 131.369569 130.020008 
L 135.944172 129.619219 
L 140.518776 129.012301 
L 145.09338 128.199253 
L 149.667984 127.180076 
L 154.242587 125.954771 
L 159.325481 124.351563 
L 164.408374 122.493875 
L 169.491267 120.381706 
L 174.57416 118.015057 
L 179.657053 115.393928 
L 184.739946 112.518317 
L 189.822839 109.388227 
L 194.905732 106.003655 
L 199.988625 102.364603 
L 205.071518 98.471071 
L 210.6627 93.894261 
L 216.253883 89.009528 
L 221.845065 83.816875 
L 227.436247 78.3163 
L 233.02743 72.507804 
L 238.618612 66.391386 
L 244.209795 59.967047 
L 250.309266 52.607493 
L 256.408738 44.881488 
L 262.50821 36.789031 
L 268.607681 28.330122 
L 274.198864 20.254204 
L 274.198864 20.254204 
" style="fill:none;stroke:#a52a2a;stroke-linecap:square;stroke-width:1.5;"/>
   </g>
   <g id="line2d_24">
    <defs>
     <path d="M 0 3.5 
C 0.928211 3.5 1.81853 3.131218 2.474874 2.474874 
C 3.131218 1.81853 3.5 0.928211 3.5 0 
C 3.5 -0.928211 3.131218 -1.81853 2.474874 -2.474874 
C 1.81853 -3.131218 0.928211 -3.5 0 -3.5 
C -0.928211 -3.5 -1.81853 -3.131218 -2.474874 -2.474874 
C -3.131218 -1.81853 -3.5 -0.928211 -3.5 0 
C -3.5 0.928211 -3.131218 1.81853 -2.474874 2.474874 
C -1.81853 3.131218 -0.928211 3.5 0 3.5 
z
" id="m88caebac48" style="stroke:#a52a2a;stroke-width:0.8;"/>
    </defs>
    <g clip-path="url(#p9002e6cbbb)">
     <use style="fill:#59c48c;stroke:#a52a2a;stroke-width:0.8;" x="120.505721" xlink:href="#m88caebac48" y="137.098082"/>
     <use style="fill:#59c48c;stroke:#a52a2a;stroke-width:0.8;" x="248.788686" xlink:href="#m88caebac48" y="24.29"/>
     <use style="fill:#59c48c;stroke:#a52a2a;stroke-width:0.8;" x="200.091438" xlink:href="#m88caebac48" y="95.208592"/>
     <use style="fill:#59c48c;stroke:#a52a2a;stroke-width:0.8;" x="170.404812" xlink:href="#m88caebac48" y="123.922419"/>
     <use style="fill:#59c48c;stroke:#a52a2a;stroke-width:0.8;" x="71.852755" xlink:href="#m88caebac48" y="123.818615"/>
     <use style="fill:#59c48c;stroke:#a52a2a;stroke-width:0.8;" x="71.847385" xlink:href="#m88caebac48" y="115.403004"/>
     <use style="fill:#59c48c;stroke:#a52a2a;stroke-width:0.8;" x="50.047898" xlink:href="#m88caebac48" y="114.698384"/>
     <use style="fill:#59c48c;stroke:#a52a2a;stroke-width:0.8;" x="229.96659" xlink:href="#m88caebac48" y="72.803696"/>
     <use style="fill:#59c48c;stroke:#a52a2a;stroke-width:0.8;" x="170.951749" xlink:href="#m88caebac48" y="145.597314"/>
     <use style="fill:#59c48c;stroke:#a52a2a;stroke-width:0.8;" x="194.765439" xlink:href="#m88caebac48" y="117.116324"/>
     <use style="fill:#59c48c;stroke:#a52a2a;stroke-width:0.8;" x="41.698864" xlink:href="#m88caebac48" y="96.371156"/>
     <use style="fill:#59c48c;stroke:#a52a2a;stroke-width:0.8;" x="253.0625" xlink:href="#m88caebac48" y="28.992214"/>
     <use style="fill:#59c48c;stroke:#a52a2a;stroke-width:0.8;" x="222.455955" xlink:href="#m88caebac48" y="68.181125"/>
     <use style="fill:#59c48c;stroke:#a52a2a;stroke-width:0.8;" x="84.392291" xlink:href="#m88caebac48" y="139.546437"/>
     <use style="fill:#59c48c;stroke:#a52a2a;stroke-width:0.8;" x="77.598434" xlink:href="#m88caebac48" y="136.692245"/>
     <use style="fill:#59c48c;stroke:#a52a2a;stroke-width:0.8;" x="77.950113" xlink:href="#m88caebac48" y="130.163821"/>
     <use style="fill:#59c48c;stroke:#a52a2a;stroke-width:0.8;" x="104.854169" xlink:href="#m88caebac48" y="155.293314"/>
     <use style="fill:#59c48c;stroke:#a52a2a;stroke-width:0.8;" x="153.950805" xlink:href="#m88caebac48" y="135.635076"/>
     <use style="fill:#59c48c;stroke:#a52a2a;stroke-width:0.8;" x="133.286701" xlink:href="#m88caebac48" y="160.19"/>
     <use style="fill:#59c48c;stroke:#a52a2a;stroke-width:0.8;" x="101.956852" xlink:href="#m88caebac48" y="132.293921"/>
     <use style="fill:#59c48c;stroke:#a52a2a;stroke-width:0.8;" x="173.342497" xlink:href="#m88caebac48" y="124.995578"/>
     <use style="fill:#59c48c;stroke:#a52a2a;stroke-width:0.8;" x="68.173576" xlink:href="#m88caebac48" y="130.935744"/>
     <use style="fill:#59c48c;stroke:#a52a2a;stroke-width:0.8;" x="102.160687" xlink:href="#m88caebac48" y="157.849371"/>
     <use style="fill:#59c48c;stroke:#a52a2a;stroke-width:0.8;" x="118.684859" xlink:href="#m88caebac48" y="140.911213"/>
     <use style="fill:#59c48c;stroke:#a52a2a;stroke-width:0.8;" x="138.658032" xlink:href="#m88caebac48" y="142.947137"/>
     <use style="fill:#59c48c;stroke:#a52a2a;stroke-width:0.8;" x="211.93221" xlink:href="#m88caebac48" y="85.820298"/>
     <use style="fill:#59c48c;stroke:#a52a2a;stroke-width:0.8;" x="81.572404" xlink:href="#m88caebac48" y="126.871081"/>
     <use style="fill:#59c48c;stroke:#a52a2a;stroke-width:0.8;" x="151.608123" xlink:href="#m88caebac48" y="155.51867"/>
     <use style="fill:#59c48c;stroke:#a52a2a;stroke-width:0.8;" x="169.014628" xlink:href="#m88caebac48" y="138.798374"/>
     <use style="fill:#59c48c;stroke:#a52a2a;stroke-width:0.8;" x="47.457811" xlink:href="#m88caebac48" y="110.836949"/>
     <use style="fill:#59c48c;stroke:#a52a2a;stroke-width:0.8;" x="172.383328" xlink:href="#m88caebac48" y="123.34032"/>
     <use style="fill:#59c48c;stroke:#a52a2a;stroke-width:0.8;" x="75.082345" xlink:href="#m88caebac48" y="125.833729"/>
     <use style="fill:#59c48c;stroke:#a52a2a;stroke-width:0.8;" x="51.599292" xlink:href="#m88caebac48" y="110.241748"/>
     <use style="fill:#59c48c;stroke:#a52a2a;stroke-width:0.8;" x="248.381517" xlink:href="#m88caebac48" y="43.547025"/>
     <use style="fill:#59c48c;stroke:#a52a2a;stroke-width:0.8;" x="252.11006" xlink:href="#m88caebac48" y="29.854967"/>
     <use style="fill:#59c48c;stroke:#a52a2a;stroke-width:0.8;" x="217.102363" xlink:href="#m88caebac48" y="89.12801"/>
     <use style="fill:#59c48c;stroke:#a52a2a;stroke-width:0.8;" x="104.936888" xlink:href="#m88caebac48" y="140.037594"/>
     <use style="fill:#59c48c;stroke:#a52a2a;stroke-width:0.8;" x="58.862125" xlink:href="#m88caebac48" y="110.375837"/>
     <use style="fill:#59c48c;stroke:#a52a2a;stroke-width:0.8;" x="189.457655" xlink:href="#m88caebac48" y="108.027592"/>
     <use style="fill:#59c48c;stroke:#a52a2a;stroke-width:0.8;" x="135.114064" xlink:href="#m88caebac48" y="149.635389"/>
     <use style="fill:#59c48c;stroke:#a52a2a;stroke-width:0.8;" x="64.287148" xlink:href="#m88caebac48" y="129.329526"/>
     <use style="fill:#59c48c;stroke:#a52a2a;stroke-width:0.8;" x="147.365038" xlink:href="#m88caebac48" y="140.477903"/>
     <use style="fill:#59c48c;stroke:#a52a2a;stroke-width:0.8;" x="44.772277" xlink:href="#m88caebac48" y="90.715532"/>
     <use style="fill:#59c48c;stroke:#a52a2a;stroke-width:0.8;" x="239.572492" xlink:href="#m88caebac48" y="46.929931"/>
     <use style="fill:#59c48c;stroke:#a52a2a;stroke-width:0.8;" x="94.732172" xlink:href="#m88caebac48" y="134.740578"/>
     <use style="fill:#59c48c;stroke:#a52a2a;stroke-width:0.8;" x="184.623841" xlink:href="#m88caebac48" y="122.864217"/>
     <use style="fill:#59c48c;stroke:#a52a2a;stroke-width:0.8;" x="106.517076" xlink:href="#m88caebac48" y="145.916106"/>
     <use style="fill:#59c48c;stroke:#a52a2a;stroke-width:0.8;" x="152.906948" xlink:href="#m88caebac48" y="145.808906"/>
     <use style="fill:#59c48c;stroke:#a52a2a;stroke-width:0.8;" x="158.838744" xlink:href="#m88caebac48" y="153.480898"/>
     <use style="fill:#59c48c;stroke:#a52a2a;stroke-width:0.8;" x="78.272938" xlink:href="#m88caebac48" y="141.696014"/>
    </g>
   </g>
   <g id="patch_3">
    <path d="M 20.5625 173.78 
L 20.5625 10.7 
" style="fill:none;stroke:#000000;stroke-linecap:square;stroke-linejoin:miter;stroke-width:0.8;"/>
   </g>
   <g id="patch_4">
    <path d="M 274.198864 173.78 
L 274.198864 10.7 
" style="fill:none;stroke:#000000;stroke-linecap:square;stroke-linejoin:miter;stroke-width:0.8;"/>
   </g>
   <g id="patch_5">
    <path d="M 20.5625 173.78 
L 274.198864 173.78 
" style="fill:none;stroke:#000000;stroke-linecap:square;stroke-linejoin:miter;stroke-width:0.8;"/>
   </g>
   <g id="patch_6">
    <path d="M 20.5625 10.7 
L 274.198864 10.7 
" style="fill:none;stroke:#000000;stroke-linecap:square;stroke-linejoin:miter;stroke-width:0.8;"/>
   </g>
  </g>
  <g id="axes_2">
   <g id="patch_7">
    <path d="M 324.926136 173.78 
L 578.5625 173.78 
L 578.5625 10.7 
L 324.926136 10.7 
z
" style="fill:#fefbf3;"/>
   </g>
   <g id="PolyCollection_2">
    <defs>
     <path d="M 324.926136 -122.542969 
L 324.926136 -122.542969 
L 325.434426 -121.82294 
L 325.942715 -121.106425 
L 326.451004 -120.393423 
L 326.959294 -119.683932 
L 327.467583 -118.977953 
L 327.975872 -118.275484 
L 328.484162 -117.576522 
L 328.992451 -116.881069 
L 329.50074 -116.189122 
L 330.009029 -115.500679 
L 330.517319 -114.815742 
L 331.025608 -114.134307 
L 331.533897 -113.456375 
L 332.042187 -112.781941 
L 332.550476 -112.111007 
L 333.058765 -111.443572 
L 333.567055 -110.779632 
L 334.075344 -110.119188 
L 334.583633 -109.462237 
L 335.091922 -108.80878 
L 335.600212 -108.158812 
L 336.108501 -107.512335 
L 336.61679 -106.869345 
L 337.12508 -106.229841 
L 337.633369 -105.593822 
L 338.141658 -104.961287 
L 338.649948 -104.332232 
L 339.158237 -103.706659 
L 339.666526 -103.084562 
L 340.174816 -102.465942 
L 340.683105 -101.850797 
L 341.191394 -101.239125 
L 341.699683 -100.630922 
L 342.207973 -100.02619 
L 342.716262 -99.424925 
L 343.224551 -98.827124 
L 343.732841 -98.232786 
L 344.24113 -97.641909 
L 344.749419 -97.054491 
L 345.257709 -96.470529 
L 345.765998 -95.890022 
L 346.274287 -95.312967 
L 346.782577 -94.739362 
L 347.290866 -94.169205 
L 347.799155 -93.602492 
L 348.307444 -93.039222 
L 348.815734 -92.479393 
L 349.324023 -91.923002 
L 349.832312 -91.370046 
L 350.340602 -90.820522 
L 350.848891 -90.274429 
L 351.35718 -89.731763 
L 351.86547 -89.192522 
L 352.373759 -88.656702 
L 352.882048 -88.124301 
L 353.390337 -87.595317 
L 353.898627 -87.069746 
L 354.406916 -86.547586 
L 354.915205 -86.028832 
L 355.423495 -85.513483 
L 355.931784 -85.001535 
L 356.440073 -84.492986 
L 356.948363 -83.987832 
L 357.456652 -83.48607 
L 357.964941 -82.987695 
L 358.473231 -82.492707 
L 358.98152 -82.001101 
L 359.489809 -81.512874 
L 359.998098 -81.028022 
L 360.506388 -80.546543 
L 361.014677 -80.068433 
L 361.522966 -79.593689 
L 362.031256 -79.122307 
L 362.539545 -78.654284 
L 363.047834 -78.189617 
L 363.556124 -77.728301 
L 364.064413 -77.270335 
L 364.572702 -76.815714 
L 365.080992 -76.364436 
L 365.589281 -75.916497 
L 366.09757 -75.471893 
L 366.605859 -75.030622 
L 367.114149 -74.59268 
L 367.622438 -74.158065 
L 368.130727 -73.726773 
L 368.639017 -73.298801 
L 369.147306 -72.874148 
L 369.655595 -72.452808 
L 370.163885 -72.03478 
L 370.672174 -71.620062 
L 371.180463 -71.20865 
L 371.688753 -70.800543 
L 372.197042 -70.395738 
L 372.705331 -69.994233 
L 373.21362 -69.596027 
L 373.72191 -69.201116 
L 374.230199 -68.8095 
L 374.738488 -68.421178 
L 375.246778 -68.036147 
L 375.755067 -67.654407 
L 376.263356 -67.275958 
L 376.771646 -66.900798 
L 377.279935 -66.528927 
L 377.788224 -66.160345 
L 378.296513 -65.795052 
L 378.804803 -65.433048 
L 379.313092 -65.074334 
L 379.821381 -64.718911 
L 380.329671 -64.36678 
L 380.83796 -64.017942 
L 381.346249 -63.672399 
L 381.854539 -63.330154 
L 382.362828 -62.991207 
L 382.871117 -62.655563 
L 383.379407 -62.323224 
L 383.887696 -61.994192 
L 384.395985 -61.668473 
L 384.904274 -61.346068 
L 385.412564 -61.026984 
L 385.920853 -60.711223 
L 386.429142 -60.398791 
L 386.937432 -60.089693 
L 387.445721 -59.783934 
L 387.95401 -59.48152 
L 388.4623 -59.182456 
L 388.970589 -58.886749 
L 389.478878 -58.594404 
L 389.987168 -58.30543 
L 390.495457 -58.019833 
L 391.003746 -57.737619 
L 391.512035 -57.458797 
L 392.020325 -57.183373 
L 392.528614 -56.911356 
L 393.036903 -56.642754 
L 393.545193 -56.377574 
L 394.053482 -56.115826 
L 394.561771 -55.857517 
L 395.070061 -55.602657 
L 395.57835 -55.351253 
L 396.086639 -55.103315 
L 396.594928 -54.858853 
L 397.103218 -54.617874 
L 397.611507 -54.380387 
L 398.119796 -54.146404 
L 398.628086 -53.915931 
L 399.136375 -53.688979 
L 399.644664 -53.465557 
L 400.152954 -53.245674 
L 400.661243 -53.02934 
L 401.169532 -52.816563 
L 401.677822 -52.607354 
L 402.186111 -52.40172 
L 402.6944 -52.199672 
L 403.202689 -52.001219 
L 403.710979 -51.806368 
L 404.219268 -51.615131 
L 404.727557 -51.427514 
L 405.235847 -51.243528 
L 405.744136 -51.063181 
L 406.252425 -50.886482 
L 406.760715 -50.713439 
L 407.269004 -50.54406 
L 407.777293 -50.378353 
L 408.285583 -50.216328 
L 408.793872 -50.057992 
L 409.302161 -49.903353 
L 409.81045 -49.752419 
L 410.31874 -49.605197 
L 410.827029 -49.461694 
L 411.335318 -49.321919 
L 411.843608 -49.185879 
L 412.351897 -49.05358 
L 412.860186 -48.92503 
L 413.368476 -48.800236 
L 413.876765 -48.679203 
L 414.385054 -48.561939 
L 414.893344 -48.44845 
L 415.401633 -48.338743 
L 415.909922 -48.232822 
L 416.418211 -48.130695 
L 416.926501 -48.032368 
L 417.43479 -47.937845 
L 417.943079 -47.847133 
L 418.451369 -47.760236 
L 418.959658 -47.677161 
L 419.467947 -47.597912 
L 419.976237 -47.522494 
L 420.484526 -47.450912 
L 420.992815 -47.383171 
L 421.501104 -47.319275 
L 422.009394 -47.25923 
L 422.517683 -47.203039 
L 423.025972 -47.150706 
L 423.534262 -47.102236 
L 424.042551 -47.057633 
L 424.55084 -47.0169 
L 425.05913 -46.980042 
L 425.567419 -46.947061 
L 426.075708 -46.917963 
L 426.583998 -46.892749 
L 427.092287 -46.871423 
L 427.600576 -46.853989 
L 428.108865 -46.84045 
L 428.617155 -46.830808 
L 429.125444 -46.825066 
L 429.633733 -46.823228 
L 430.142023 -46.825297 
L 430.650312 -46.831273 
L 431.158601 -46.841162 
L 431.666891 -46.854963 
L 432.17518 -46.872681 
L 432.683469 -46.894317 
L 433.191759 -46.919874 
L 433.700048 -46.949353 
L 434.208337 -46.982757 
L 434.716626 -47.020087 
L 435.224916 -47.061346 
L 435.733205 -47.106535 
L 436.241494 -47.155655 
L 436.749784 -47.208709 
L 437.258073 -47.265698 
L 437.766362 -47.326624 
L 438.274652 -47.391487 
L 438.782941 -47.460289 
L 439.29123 -47.533032 
L 439.799519 -47.609716 
L 440.307809 -47.690343 
L 440.816098 -47.774913 
L 441.324387 -47.863429 
L 441.832677 -47.955889 
L 442.340966 -48.052297 
L 442.849255 -48.152651 
L 443.357545 -48.256953 
L 443.865834 -48.365204 
L 444.374123 -48.477404 
L 444.882413 -48.593553 
L 445.390702 -48.713653 
L 445.898991 -48.837704 
L 446.40728 -48.965704 
L 446.91557 -49.097657 
L 447.423859 -49.23356 
L 447.932148 -49.373415 
L 448.440438 -49.517221 
L 448.948727 -49.664979 
L 449.457016 -49.816689 
L 449.965306 -49.97235 
L 450.473595 -50.131963 
L 450.981884 -50.295526 
L 451.490174 -50.463041 
L 451.998463 -50.634506 
L 452.506752 -50.809922 
L 453.015041 -50.989287 
L 453.523331 -51.172601 
L 454.03162 -51.359864 
L 454.539909 -51.551076 
L 455.048199 -51.746234 
L 455.556488 -51.94534 
L 456.064777 -52.148391 
L 456.573067 -52.355387 
L 457.081356 -52.566328 
L 457.589645 -52.781212 
L 458.097935 -53.000037 
L 458.606224 -53.222804 
L 459.114513 -53.449511 
L 459.622802 -53.680157 
L 460.131092 -53.91474 
L 460.639381 -54.153259 
L 461.14767 -54.395712 
L 461.65596 -54.642099 
L 462.164249 -54.892418 
L 462.672538 -55.146666 
L 463.180828 -55.404843 
L 463.689117 -55.666947 
L 464.197406 -55.932975 
L 464.705695 -56.202926 
L 465.213985 -56.476798 
L 465.722274 -56.75459 
L 466.230563 -57.036298 
L 466.738853 -57.321921 
L 467.247142 -57.611456 
L 467.755431 -57.904901 
L 468.263721 -58.202255 
L 468.77201 -58.503513 
L 469.280299 -58.808675 
L 469.788589 -59.117736 
L 470.296878 -59.430695 
L 470.805167 -59.74755 
L 471.313456 -60.068295 
L 471.821746 -60.39293 
L 472.330035 -60.721451 
L 472.838324 -61.053854 
L 473.346614 -61.390137 
L 473.854903 -61.730297 
L 474.363192 -62.074329 
L 474.871482 -62.422231 
L 475.379771 -62.773999 
L 475.88806 -63.12963 
L 476.39635 -63.489119 
L 476.904639 -63.852463 
L 477.412928 -64.219658 
L 477.921217 -64.590701 
L 478.429507 -64.965586 
L 478.937796 -65.34431 
L 479.446085 -65.726868 
L 479.954375 -66.113257 
L 480.462664 -66.503471 
L 480.970953 -66.897507 
L 481.479243 -67.295359 
L 481.987532 -67.697022 
L 482.495821 -68.102492 
L 483.00411 -68.511765 
L 483.5124 -68.924834 
L 484.020689 -69.341695 
L 484.528978 -69.762343 
L 485.037268 -70.186771 
L 485.545557 -70.614976 
L 486.053846 -71.046951 
L 486.562136 -71.48269 
L 487.070425 -71.922188 
L 487.578714 -72.365439 
L 488.087004 -72.812438 
L 488.595293 -73.263177 
L 489.103582 -73.717652 
L 489.611871 -74.175856 
L 490.120161 -74.637781 
L 490.62845 -75.103424 
L 491.136739 -75.572776 
L 491.645029 -76.045832 
L 492.153318 -76.522585 
L 492.661607 -77.003028 
L 493.169897 -77.487154 
L 493.678186 -77.974957 
L 494.186475 -78.466429 
L 494.694765 -78.961565 
L 495.203054 -79.460357 
L 495.711343 -79.962798 
L 496.219632 -80.46888 
L 496.727922 -80.978597 
L 497.236211 -81.491942 
L 497.7445 -82.008908 
L 498.25279 -82.529486 
L 498.761079 -83.053671 
L 499.269368 -83.581455 
L 499.777658 -84.112831 
L 500.285947 -84.647791 
L 500.794236 -85.186328 
L 501.302526 -85.728435 
L 501.810815 -86.274105 
L 502.319104 -86.82333 
L 502.827393 -87.376105 
L 503.335683 -87.93242 
L 503.843972 -88.49227 
L 504.352261 -89.055648 
L 504.860551 -89.622545 
L 505.36884 -90.192957 
L 505.877129 -90.766875 
L 506.385419 -91.344294 
L 506.893708 -91.925206 
L 507.401997 -92.509605 
L 507.910286 -93.097484 
L 508.418576 -93.688838 
L 508.926865 -94.28366 
L 509.435154 -94.881945 
L 509.943444 -95.483685 
L 510.451733 -96.088876 
L 510.960022 -96.697512 
L 511.468312 -97.309588 
L 511.976601 -97.925097 
L 512.48489 -98.544035 
L 512.99318 -99.166397 
L 513.501469 -99.792178 
L 514.009758 -100.421374 
L 514.518047 -101.053979 
L 515.026337 -101.68999 
L 515.534626 -102.329403 
L 516.042915 -102.972213 
L 516.551205 -103.618417 
L 517.059494 -104.268011 
L 517.567783 -104.920992 
L 518.076073 -105.577357 
L 518.584362 -106.237103 
L 519.092651 -106.900226 
L 519.600941 -107.566725 
L 520.10923 -108.236598 
L 520.617519 -108.90984 
L 521.125808 -109.586452 
L 521.634098 -110.26643 
L 522.142387 -110.949774 
L 522.650676 -111.636481 
L 523.158966 -112.32655 
L 523.667255 -113.019981 
L 524.175544 -113.716772 
L 524.683834 -114.416922 
L 525.192123 -115.120431 
L 525.700412 -115.827299 
L 526.208701 -116.537525 
L 526.716991 -117.251108 
L 527.22528 -117.968049 
L 527.733569 -118.688348 
L 528.241859 -119.412005 
L 528.750148 -120.139021 
L 529.258437 -120.869395 
L 529.766727 -121.603129 
L 530.275016 -122.340224 
L 530.783305 -123.080679 
L 531.291595 -123.824497 
L 531.799884 -124.571678 
L 532.308173 -125.322223 
L 532.816462 -126.076133 
L 533.324752 -126.833411 
L 533.833041 -127.594056 
L 534.34133 -128.358071 
L 534.84962 -129.125458 
L 535.357909 -129.896217 
L 535.866198 -130.670351 
L 536.374488 -131.447861 
L 536.882777 -132.228748 
L 537.391066 -133.013016 
L 537.899356 -133.800665 
L 538.407645 -134.591698 
L 538.915934 -135.386116 
L 539.424223 -136.183921 
L 539.932513 -136.985116 
L 540.440802 -137.789703 
L 540.949091 -138.597682 
L 541.457381 -139.409058 
L 541.96567 -140.223831 
L 542.473959 -141.042004 
L 542.982249 -141.863578 
L 543.490538 -142.688556 
L 543.998827 -143.516941 
L 544.507117 -144.348734 
L 545.015406 -145.183937 
L 545.523695 -146.022553 
L 546.031984 -146.864583 
L 546.540274 -147.71003 
L 547.048563 -148.558895 
L 547.556852 -149.411182 
L 548.065142 -150.266891 
L 548.573431 -151.126027 
L 549.08172 -151.988587 
L 549.59001 -152.854578 
L 550.098299 -153.724 
L 550.606588 -154.596856 
L 551.114877 -155.473146 
L 551.623167 -156.352874 
L 552.131456 -157.236041 
L 552.639745 -158.122649 
L 553.148035 -159.012701 
L 553.656324 -159.906197 
L 554.164613 -160.80314 
L 554.672903 -161.703533 
L 555.181192 -162.607375 
L 555.689481 -163.51467 
L 556.197771 -164.425419 
L 556.70606 -165.339625 
L 557.214349 -166.257288 
L 557.722638 -167.178411 
L 558.230928 -168.102995 
L 558.739217 -169.031042 
L 559.247506 -169.962553 
L 559.755796 -170.897532 
L 560.264085 -171.835976 
L 560.772374 -172.777892 
L 561.280664 -173.723278 
L 561.788953 -174.672137 
L 562.297242 -175.624468 
L 562.805532 -176.580277 
L 563.313821 -177.539563 
L 563.82211 -178.502326 
L 564.330399 -179.46857 
L 564.838689 -180.438295 
L 565.346978 -181.411503 
L 565.855267 -182.388195 
L 566.363557 -183.368372 
L 566.871846 -184.352036 
L 567.380135 -185.339188 
L 567.888425 -186.32983 
L 568.396714 -187.323961 
L 568.905003 -188.321584 
L 569.413292 -189.322702 
L 569.921582 -190.327312 
L 570.429871 -191.335419 
L 570.93816 -192.347021 
L 571.44645 -193.362123 
L 571.954739 -194.38072 
L 572.463028 -195.402821 
L 572.971318 -196.428419 
L 573.479607 -197.457522 
L 573.987896 -198.490126 
L 574.496186 -199.526234 
L 575.004475 -200.565848 
L 575.512764 -201.608966 
L 576.021053 -202.655594 
L 576.529343 -203.705729 
L 577.037632 -204.759372 
L 577.545921 -205.816525 
L 578.054211 -206.877187 
L 578.5625 -207.941364 
L 578.5625 -207.941364 
L 578.5625 -223.514258 
L 578.054211 -222.325002 
L 577.545921 -221.139896 
L 577.037632 -219.958944 
L 576.529343 -218.782147 
L 576.021053 -217.609506 
L 575.512764 -216.441022 
L 575.004475 -215.276692 
L 574.496186 -214.116522 
L 573.987896 -212.960512 
L 573.479607 -211.808661 
L 572.971318 -210.660973 
L 572.463028 -209.517445 
L 571.954739 -208.378083 
L 571.44645 -207.242882 
L 570.93816 -206.11185 
L 570.429871 -204.984983 
L 569.921582 -203.862283 
L 569.413292 -202.743753 
L 568.905003 -201.629393 
L 568.396714 -200.519203 
L 567.888425 -199.413186 
L 567.380135 -198.311343 
L 566.871846 -197.213675 
L 566.363557 -196.120182 
L 565.855267 -195.030868 
L 565.346978 -193.945733 
L 564.838689 -192.864777 
L 564.330399 -191.788002 
L 563.82211 -190.715412 
L 563.313821 -189.647004 
L 562.805532 -188.582783 
L 562.297242 -187.522749 
L 561.788953 -186.466903 
L 561.280664 -185.415248 
L 560.772374 -184.367784 
L 560.264085 -183.324514 
L 559.755796 -182.285438 
L 559.247506 -181.250559 
L 558.739217 -180.219877 
L 558.230928 -179.193396 
L 557.722638 -178.171115 
L 557.214349 -177.153037 
L 556.70606 -176.139164 
L 556.197771 -175.129498 
L 555.689481 -174.124039 
L 555.181192 -173.122791 
L 554.672903 -172.125754 
L 554.164613 -171.132932 
L 553.656324 -170.144324 
L 553.148035 -169.159933 
L 552.639745 -168.179763 
L 552.131456 -167.203813 
L 551.623167 -166.232085 
L 551.114877 -165.264584 
L 550.606588 -164.301309 
L 550.098299 -163.342263 
L 549.59001 -162.387448 
L 549.08172 -161.436865 
L 548.573431 -160.490517 
L 548.065142 -159.548408 
L 547.556852 -158.610537 
L 547.048563 -157.676908 
L 546.540274 -156.747521 
L 546.031984 -155.82238 
L 545.523695 -154.901487 
L 545.015406 -153.984843 
L 544.507117 -153.072451 
L 543.998827 -152.164313 
L 543.490538 -151.260432 
L 542.982249 -150.360807 
L 542.473959 -149.465443 
L 541.96567 -148.574342 
L 541.457381 -147.687505 
L 540.949091 -146.804936 
L 540.440802 -145.926633 
L 539.932513 -145.052603 
L 539.424223 -144.182844 
L 538.915934 -143.317362 
L 538.407645 -142.456155 
L 537.899356 -141.599227 
L 537.391066 -140.74658 
L 536.882777 -139.898216 
L 536.374488 -139.054135 
L 535.866198 -138.214342 
L 535.357909 -137.378836 
L 534.84962 -136.54762 
L 534.34133 -135.720696 
L 533.833041 -134.898064 
L 533.324752 -134.079727 
L 532.816462 -133.265686 
L 532.308173 -132.455942 
L 531.799884 -131.650497 
L 531.291595 -130.849353 
L 530.783305 -130.052509 
L 530.275016 -129.259968 
L 529.766727 -128.471729 
L 529.258437 -127.687794 
L 528.750148 -126.908164 
L 528.241859 -126.132839 
L 527.733569 -125.36182 
L 527.22528 -124.595107 
L 526.716991 -123.8327 
L 526.208701 -123.0746 
L 525.700412 -122.320806 
L 525.192123 -121.571319 
L 524.683834 -120.826137 
L 524.175544 -120.08526 
L 523.667255 -119.348689 
L 523.158966 -118.616421 
L 522.650676 -117.888457 
L 522.142387 -117.164794 
L 521.634098 -116.445432 
L 521.125808 -115.730368 
L 520.617519 -115.019602 
L 520.10923 -114.313132 
L 519.600941 -113.610955 
L 519.092651 -112.91307 
L 518.584362 -112.219473 
L 518.076073 -111.530162 
L 517.567783 -110.845135 
L 517.059494 -110.164389 
L 516.551205 -109.487919 
L 516.042915 -108.815724 
L 515.534626 -108.147799 
L 515.026337 -107.48414 
L 514.518047 -106.824744 
L 514.009758 -106.169607 
L 513.501469 -105.518724 
L 512.99318 -104.872091 
L 512.48489 -104.229703 
L 511.976601 -103.591556 
L 511.468312 -102.957644 
L 510.960022 -102.327961 
L 510.451733 -101.702504 
L 509.943444 -101.081266 
L 509.435154 -100.464242 
L 508.926865 -99.851426 
L 508.418576 -99.242812 
L 507.910286 -98.638394 
L 507.401997 -98.038166 
L 506.893708 -97.442121 
L 506.385419 -96.850253 
L 505.877129 -96.262557 
L 505.36884 -95.679024 
L 504.860551 -95.099649 
L 504.352261 -94.524424 
L 503.843972 -93.953343 
L 503.335683 -93.386398 
L 502.827393 -92.823584 
L 502.319104 -92.264892 
L 501.810815 -91.710316 
L 501.302526 -91.159849 
L 500.794236 -90.613483 
L 500.285947 -90.071211 
L 499.777658 -89.533026 
L 499.269368 -88.998921 
L 498.761079 -88.468889 
L 498.25279 -87.942921 
L 497.7445 -87.421012 
L 497.236211 -86.903154 
L 496.727922 -86.38934 
L 496.219632 -85.879562 
L 495.711343 -85.373813 
L 495.203054 -84.872087 
L 494.694765 -84.374376 
L 494.186475 -83.880673 
L 493.678186 -83.390972 
L 493.169897 -82.905264 
L 492.661607 -82.423545 
L 492.153318 -81.945806 
L 491.645029 -81.472041 
L 491.136739 -81.002244 
L 490.62845 -80.536407 
L 490.120161 -80.074525 
L 489.611871 -79.61659 
L 489.103582 -79.162597 
L 488.595293 -78.71254 
L 488.087004 -78.266412 
L 487.578714 -77.824206 
L 487.070425 -77.385918 
L 486.562136 -76.951541 
L 486.053846 -76.521069 
L 485.545557 -76.094496 
L 485.037268 -75.671818 
L 484.528978 -75.253028 
L 484.020689 -74.838121 
L 483.5124 -74.427092 
L 483.00411 -74.019936 
L 482.495821 -73.616647 
L 481.987532 -73.21722 
L 481.479243 -72.82165 
L 480.970953 -72.429933 
L 480.462664 -72.042063 
L 479.954375 -71.658037 
L 479.446085 -71.277849 
L 478.937796 -70.901495 
L 478.429507 -70.528972 
L 477.921217 -70.160273 
L 477.412928 -69.795396 
L 476.904639 -69.434335 
L 476.39635 -69.077088 
L 475.88806 -68.723651 
L 475.379771 -68.374019 
L 474.871482 -68.028188 
L 474.363192 -67.686156 
L 473.854903 -67.347918 
L 473.346614 -67.013472 
L 472.838324 -66.682813 
L 472.330035 -66.355939 
L 471.821746 -66.032847 
L 471.313456 -65.713532 
L 470.805167 -65.397993 
L 470.296878 -65.086226 
L 469.788589 -64.778229 
L 469.280299 -64.473998 
L 468.77201 -64.173532 
L 468.263721 -63.876827 
L 467.755431 -63.58388 
L 467.247142 -63.29469 
L 466.738853 -63.009254 
L 466.230563 -62.72757 
L 465.722274 -62.449635 
L 465.213985 -62.175448 
L 464.705695 -61.905006 
L 464.197406 -61.638307 
L 463.689117 -61.375349 
L 463.180828 -61.116131 
L 462.672538 -60.86065 
L 462.164249 -60.608906 
L 461.65596 -60.360895 
L 461.14767 -60.116617 
L 460.639381 -59.87607 
L 460.131092 -59.639252 
L 459.622802 -59.406163 
L 459.114513 -59.1768 
L 458.606224 -58.951164 
L 458.097935 -58.729251 
L 457.589645 -58.511061 
L 457.081356 -58.296594 
L 456.573067 -58.085847 
L 456.064777 -57.878821 
L 455.556488 -57.675514 
L 455.048199 -57.475925 
L 454.539909 -57.280053 
L 454.03162 -57.087898 
L 453.523331 -56.89946 
L 453.015041 -56.714737 
L 452.506752 -56.533728 
L 451.998463 -56.356435 
L 451.490174 -56.182855 
L 450.981884 -56.012989 
L 450.473595 -55.846836 
L 449.965306 -55.684396 
L 449.457016 -55.525669 
L 448.948727 -55.370655 
L 448.440438 -55.219353 
L 447.932148 -55.071764 
L 447.423859 -54.927888 
L 446.91557 -54.787724 
L 446.40728 -54.651273 
L 445.898991 -54.518536 
L 445.390702 -54.389511 
L 444.882413 -54.264201 
L 444.374123 -54.142604 
L 443.865834 -54.024722 
L 443.357545 -53.910556 
L 442.849255 -53.800105 
L 442.340966 -53.69337 
L 441.832677 -53.590352 
L 441.324387 -53.491052 
L 440.816098 -53.395471 
L 440.307809 -53.303609 
L 439.799519 -53.215468 
L 439.29123 -53.131048 
L 438.782941 -53.050351 
L 438.274652 -52.973377 
L 437.766362 -52.900129 
L 437.258073 -52.830608 
L 436.749784 -52.764814 
L 436.241494 -52.702749 
L 435.733205 -52.644415 
L 435.224916 -52.589814 
L 434.716626 -52.538946 
L 434.208337 -52.491815 
L 433.700048 -52.448421 
L 433.191759 -52.408766 
L 432.683469 -52.372854 
L 432.17518 -52.340685 
L 431.666891 -52.312262 
L 431.158601 -52.287587 
L 430.650312 -52.266663 
L 430.142023 -52.249491 
L 429.633733 -52.236076 
L 429.125444 -52.226418 
L 428.617155 -52.220521 
L 428.108865 -52.218388 
L 427.600576 -52.220021 
L 427.092287 -52.225424 
L 426.583998 -52.2346 
L 426.075708 -52.247551 
L 425.567419 -52.264282 
L 425.05913 -52.284796 
L 424.55084 -52.309096 
L 424.042551 -52.337185 
L 423.534262 -52.369068 
L 423.025972 -52.404749 
L 422.517683 -52.444231 
L 422.009394 -52.487519 
L 421.501104 -52.534617 
L 420.992815 -52.585529 
L 420.484526 -52.64026 
L 419.976237 -52.698814 
L 419.467947 -52.761196 
L 418.959658 -52.827412 
L 418.451369 -52.897465 
L 417.943079 -52.971361 
L 417.43479 -53.049106 
L 416.926501 -53.130704 
L 416.418211 -53.216162 
L 415.909922 -53.305485 
L 415.401633 -53.398678 
L 414.893344 -53.495749 
L 414.385054 -53.596702 
L 413.876765 -53.701545 
L 413.368476 -53.810283 
L 412.860186 -53.922923 
L 412.351897 -54.039472 
L 411.843608 -54.159937 
L 411.335318 -54.284324 
L 410.827029 -54.412641 
L 410.31874 -54.544894 
L 409.81045 -54.681093 
L 409.302161 -54.821242 
L 408.793872 -54.965352 
L 408.285583 -55.113428 
L 407.777293 -55.26548 
L 407.269004 -55.421515 
L 406.760715 -55.581542 
L 406.252425 -55.745568 
L 405.744136 -55.913602 
L 405.235847 -56.085653 
L 404.727557 -56.26173 
L 404.219268 -56.44184 
L 403.710979 -56.625993 
L 403.202689 -56.814197 
L 402.6944 -57.006463 
L 402.186111 -57.202798 
L 401.677822 -57.403212 
L 401.169532 -57.607714 
L 400.661243 -57.816313 
L 400.152954 -58.029019 
L 399.644664 -58.245841 
L 399.136375 -58.466787 
L 398.628086 -58.691868 
L 398.119796 -58.921092 
L 397.611507 -59.15447 
L 397.103218 -59.392009 
L 396.594928 -59.633719 
L 396.086639 -59.87961 
L 395.57835 -60.12969 
L 395.070061 -60.383969 
L 394.561771 -60.642455 
L 394.053482 -60.905157 
L 393.545193 -61.172083 
L 393.036903 -61.443243 
L 392.528614 -61.718644 
L 392.020325 -61.998294 
L 391.512035 -62.282202 
L 391.003746 -62.570376 
L 390.495457 -62.862822 
L 389.987168 -63.159549 
L 389.478878 -63.460563 
L 388.970589 -63.765872 
L 388.4623 -64.075482 
L 387.95401 -64.389399 
L 387.445721 -64.70763 
L 386.937432 -65.03018 
L 386.429142 -65.357056 
L 385.920853 -65.688262 
L 385.412564 -66.023803 
L 384.904274 -66.363685 
L 384.395985 -66.707911 
L 383.887696 -67.056486 
L 383.379407 -67.409414 
L 382.871117 -67.766698 
L 382.362828 -68.128341 
L 381.854539 -68.494346 
L 381.346249 -68.864717 
L 380.83796 -69.239454 
L 380.329671 -69.61856 
L 379.821381 -70.002038 
L 379.313092 -70.389887 
L 378.804803 -70.78211 
L 378.296513 -71.178707 
L 377.788224 -71.579679 
L 377.279935 -71.985027 
L 376.771646 -72.39475 
L 376.263356 -72.808847 
L 375.755067 -73.22732 
L 375.246778 -73.650167 
L 374.738488 -74.077387 
L 374.230199 -74.508979 
L 373.72191 -74.944942 
L 373.21362 -75.385275 
L 372.705331 -75.829975 
L 372.197042 -76.279042 
L 371.688753 -76.732473 
L 371.180463 -77.190266 
L 370.672174 -77.652418 
L 370.163885 -78.118928 
L 369.655595 -78.589793 
L 369.147306 -79.06501 
L 368.639017 -79.544577 
L 368.130727 -80.028491 
L 367.622438 -80.516748 
L 367.114149 -81.009347 
L 366.605859 -81.506283 
L 366.09757 -82.007554 
L 365.589281 -82.513157 
L 365.080992 -83.023088 
L 364.572702 -83.537344 
L 364.064413 -84.055923 
L 363.556124 -84.578819 
L 363.047834 -85.106031 
L 362.539545 -85.637556 
L 362.031256 -86.173389 
L 361.522966 -86.713526 
L 361.014677 -87.257966 
L 360.506388 -87.806704 
L 359.998098 -88.359738 
L 359.489809 -88.917063 
L 358.98152 -89.478677 
L 358.473231 -90.044576 
L 357.964941 -90.614758 
L 357.456652 -91.189217 
L 356.948363 -91.767952 
L 356.440073 -92.35096 
L 355.931784 -92.938237 
L 355.423495 -93.529779 
L 354.915205 -94.125585 
L 354.406916 -94.72565 
L 353.898627 -95.329973 
L 353.390337 -95.93855 
L 352.882048 -96.551377 
L 352.373759 -97.168452 
L 351.86547 -97.789772 
L 351.35718 -98.415335 
L 350.848891 -99.045137 
L 350.340602 -99.679176 
L 349.832312 -100.317449 
L 349.324023 -100.959955 
L 348.815734 -101.606689 
L 348.307444 -102.257648 
L 347.799155 -102.912833 
L 347.290866 -103.572238 
L 346.782577 -104.235863 
L 346.274287 -104.903703 
L 345.765998 -105.575759 
L 345.257709 -106.252026 
L 344.749419 -106.932504 
L 344.24113 -107.617189 
L 343.732841 -108.306079 
L 343.224551 -108.999172 
L 342.716262 -109.696466 
L 342.207973 -110.397961 
L 341.699683 -111.103653 
L 341.191394 -111.813539 
L 340.683105 -112.527619 
L 340.174816 -113.245891 
L 339.666526 -113.968352 
L 339.158237 -114.695 
L 338.649948 -115.425836 
L 338.141658 -116.160855 
L 337.633369 -116.900057 
L 337.12508 -117.64344 
L 336.61679 -118.391002 
L 336.108501 -119.142744 
L 335.600212 -119.898661 
L 335.091922 -120.658752 
L 334.583633 -121.423017 
L 334.075344 -122.191454 
L 333.567055 -122.964062 
L 333.058765 -123.740837 
L 332.550476 -124.521782 
L 332.042187 -125.306892 
L 331.533897 -126.096166 
L 331.025608 -126.889606 
L 330.517319 -127.687208 
L 330.009029 -128.488972 
L 329.50074 -129.294894 
L 328.992451 -130.104977 
L 328.484162 -130.919216 
L 327.975872 -131.737613 
L 327.467583 -132.560165 
L 326.959294 -133.386873 
L 326.451004 -134.217732 
L 325.942715 -135.052744 
L 325.434426 -135.891908 
L 324.926136 -136.735222 
z
" id="m0fb4ea3b84" style="stroke:#dfb4af;"/>
    </defs>
    <g clip-path="url(#p72c0ce376f)">
     <use style="fill:#dfb4af;stroke:#dfb4af;" x="0" xlink:href="#m0fb4ea3b84" y="197.658125"/>
    </g>
   </g>
   <g id="matplotlib.axis_3">
    <g id="xtick_6">
     <g id="line2d_25">
      <path clip-path="url(#p72c0ce376f)" d="M 363.744057 173.78 
L 363.744057 10.7 
" style="fill:none;stroke:#b0b0b0;stroke-dasharray:0.5,0.825;stroke-dashoffset:0;stroke-width:0.5;"/>
     </g>
     <g id="line2d_26">
      <g>
       <use style="stroke:#000000;stroke-width:0.8;" x="363.744057" xlink:href="#m3e92b24f8b" y="173.78"/>
      </g>
     </g>
     <g id="text_12">
      <!-- −0.4 -->
      <g transform="translate(351.60265 188.378438)scale(0.1 -0.1)">
       <use xlink:href="#DejaVuSans-2212"/>
       <use x="83.789062" xlink:href="#DejaVuSans-30"/>
       <use x="147.412109" xlink:href="#DejaVuSans-2e"/>
       <use x="179.199219" xlink:href="#DejaVuSans-34"/>
      </g>
     </g>
    </g>
    <g id="xtick_7">
     <g id="line2d_27">
      <path clip-path="url(#p72c0ce376f)" d="M 408.273287 173.78 
L 408.273287 10.7 
" style="fill:none;stroke:#b0b0b0;stroke-dasharray:0.5,0.825;stroke-dashoffset:0;stroke-width:0.5;"/>
     </g>
     <g id="line2d_28">
      <g>
       <use style="stroke:#000000;stroke-width:0.8;" x="408.273287" xlink:href="#m3e92b24f8b" y="173.78"/>
      </g>
     </g>
     <g id="text_13">
      <!-- −0.2 -->
      <g transform="translate(396.13188 188.378438)scale(0.1 -0.1)">
       <use xlink:href="#DejaVuSans-2212"/>
       <use x="83.789062" xlink:href="#DejaVuSans-30"/>
       <use x="147.412109" xlink:href="#DejaVuSans-2e"/>
       <use x="179.199219" xlink:href="#DejaVuSans-32"/>
      </g>
     </g>
    </g>
    <g id="xtick_8">
     <g id="line2d_29">
      <path clip-path="url(#p72c0ce376f)" d="M 452.802517 173.78 
L 452.802517 10.7 
" style="fill:none;stroke:#b0b0b0;stroke-dasharray:0.5,0.825;stroke-dashoffset:0;stroke-width:0.5;"/>
     </g>
     <g id="line2d_30">
      <g>
       <use style="stroke:#000000;stroke-width:0.8;" x="452.802517" xlink:href="#m3e92b24f8b" y="173.78"/>
      </g>
     </g>
     <g id="text_14">
      <!-- 0.0 -->
      <g transform="translate(444.850954 188.378438)scale(0.1 -0.1)">
       <use xlink:href="#DejaVuSans-30"/>
       <use x="63.623047" xlink:href="#DejaVuSans-2e"/>
       <use x="95.410156" xlink:href="#DejaVuSans-30"/>
      </g>
     </g>
    </g>
    <g id="xtick_9">
     <g id="line2d_31">
      <path clip-path="url(#p72c0ce376f)" d="M 497.331747 173.78 
L 497.331747 10.7 
" style="fill:none;stroke:#b0b0b0;stroke-dasharray:0.5,0.825;stroke-dashoffset:0;stroke-width:0.5;"/>
     </g>
     <g id="line2d_32">
      <g>
       <use style="stroke:#000000;stroke-width:0.8;" x="497.331747" xlink:href="#m3e92b24f8b" y="173.78"/>
      </g>
     </g>
     <g id="text_15">
      <!-- 0.2 -->
      <g transform="translate(489.380184 188.378438)scale(0.1 -0.1)">
       <use xlink:href="#DejaVuSans-30"/>
       <use x="63.623047" xlink:href="#DejaVuSans-2e"/>
       <use x="95.410156" xlink:href="#DejaVuSans-32"/>
      </g>
     </g>
    </g>
    <g id="xtick_10">
     <g id="line2d_33">
      <path clip-path="url(#p72c0ce376f)" d="M 541.860977 173.78 
L 541.860977 10.7 
" style="fill:none;stroke:#b0b0b0;stroke-dasharray:0.5,0.825;stroke-dashoffset:0;stroke-width:0.5;"/>
     </g>
     <g id="line2d_34">
      <g>
       <use style="stroke:#000000;stroke-width:0.8;" x="541.860977" xlink:href="#m3e92b24f8b" y="173.78"/>
      </g>
     </g>
     <g id="text_16">
      <!-- 0.4 -->
      <g transform="translate(533.909414 188.378438)scale(0.1 -0.1)">
       <use xlink:href="#DejaVuSans-30"/>
       <use x="63.623047" xlink:href="#DejaVuSans-2e"/>
       <use x="95.410156" xlink:href="#DejaVuSans-34"/>
      </g>
     </g>
    </g>
   </g>
   <g id="matplotlib.axis_4">
    <g id="ytick_7">
     <g id="line2d_35">
      <path clip-path="url(#p72c0ce376f)" d="M 324.926136 153.436185 
L 578.5625 153.436185 
" style="fill:none;stroke:#b0b0b0;stroke-dasharray:0.5,0.825;stroke-dashoffset:0;stroke-width:0.5;"/>
     </g>
     <g id="line2d_36">
      <g>
       <use style="stroke:#000000;stroke-width:0.8;" x="324.926136" xlink:href="#mdbf441da07" y="153.436185"/>
      </g>
     </g>
     <g id="text_17">
      <!-- 3 -->
      <g transform="translate(311.563636 157.235403)scale(0.1 -0.1)">
       <use xlink:href="#DejaVuSans-33"/>
      </g>
     </g>
    </g>
    <g id="ytick_8">
     <g id="line2d_37">
      <path clip-path="url(#p72c0ce376f)" d="M 324.926136 127.47416 
L 578.5625 127.47416 
" style="fill:none;stroke:#b0b0b0;stroke-dasharray:0.5,0.825;stroke-dashoffset:0;stroke-width:0.5;"/>
     </g>
     <g id="line2d_38">
      <g>
       <use style="stroke:#000000;stroke-width:0.8;" x="324.926136" xlink:href="#mdbf441da07" y="127.47416"/>
      </g>
     </g>
     <g id="text_18">
      <!-- 4 -->
      <g transform="translate(311.563636 131.273379)scale(0.1 -0.1)">
       <use xlink:href="#DejaVuSans-34"/>
      </g>
     </g>
    </g>
    <g id="ytick_9">
     <g id="line2d_39">
      <path clip-path="url(#p72c0ce376f)" d="M 324.926136 101.512135 
L 578.5625 101.512135 
" style="fill:none;stroke:#b0b0b0;stroke-dasharray:0.5,0.825;stroke-dashoffset:0;stroke-width:0.5;"/>
     </g>
     <g id="line2d_40">
      <g>
       <use style="stroke:#000000;stroke-width:0.8;" x="324.926136" xlink:href="#mdbf441da07" y="101.512135"/>
      </g>
     </g>
     <g id="text_19">
      <!-- 5 -->
      <g transform="translate(311.563636 105.311354)scale(0.1 -0.1)">
       <use xlink:href="#DejaVuSans-35"/>
      </g>
     </g>
    </g>
    <g id="ytick_10">
     <g id="line2d_41">
      <path clip-path="url(#p72c0ce376f)" d="M 324.926136 75.55011 
L 578.5625 75.55011 
" style="fill:none;stroke:#b0b0b0;stroke-dasharray:0.5,0.825;stroke-dashoffset:0;stroke-width:0.5;"/>
     </g>
     <g id="line2d_42">
      <g>
       <use style="stroke:#000000;stroke-width:0.8;" x="324.926136" xlink:href="#mdbf441da07" y="75.55011"/>
      </g>
     </g>
     <g id="text_20">
      <!-- 6 -->
      <g transform="translate(311.563636 79.349329)scale(0.1 -0.1)">
       <use xlink:href="#DejaVuSans-36"/>
      </g>
     </g>
    </g>
    <g id="ytick_11">
     <g id="line2d_43">
      <path clip-path="url(#p72c0ce376f)" d="M 324.926136 49.588086 
L 578.5625 49.588086 
" style="fill:none;stroke:#b0b0b0;stroke-dasharray:0.5,0.825;stroke-dashoffset:0;stroke-width:0.5;"/>
     </g>
     <g id="line2d_44">
      <g>
       <use style="stroke:#000000;stroke-width:0.8;" x="324.926136" xlink:href="#mdbf441da07" y="49.588086"/>
      </g>
     </g>
     <g id="text_21">
      <!-- 7 -->
      <g transform="translate(311.563636 53.387304)scale(0.1 -0.1)">
       <use xlink:href="#DejaVuSans-37"/>
      </g>
     </g>
    </g>
    <g id="ytick_12">
     <g id="line2d_45">
      <path clip-path="url(#p72c0ce376f)" d="M 324.926136 23.626061 
L 578.5625 23.626061 
" style="fill:none;stroke:#b0b0b0;stroke-dasharray:0.5,0.825;stroke-dashoffset:0;stroke-width:0.5;"/>
     </g>
     <g id="line2d_46">
      <g>
       <use style="stroke:#000000;stroke-width:0.8;" x="324.926136" xlink:href="#mdbf441da07" y="23.626061"/>
      </g>
     </g>
     <g id="text_22">
      <!-- 8 -->
      <g transform="translate(311.563636 27.42528)scale(0.1 -0.1)">
       <use xlink:href="#DejaVuSans-38"/>
      </g>
     </g>
    </g>
   </g>
   <g id="line2d_47">
    <path clip-path="url(#p72c0ce376f)" d="M 324.926136 68.01903 
L 330.009029 75.6633 
L 335.091922 82.924359 
L 340.174816 89.802208 
L 345.257709 96.296847 
L 350.340602 102.408276 
L 354.915205 107.580916 
L 359.489809 112.443157 
L 364.064413 116.994996 
L 368.639017 121.236436 
L 373.21362 125.167474 
L 377.788224 128.788113 
L 382.362828 132.098351 
L 386.429142 134.780202 
L 390.495457 137.216798 
L 394.561771 139.408139 
L 398.628086 141.354226 
L 402.6944 143.055058 
L 406.760715 144.510635 
L 410.827029 145.720957 
L 414.893344 146.686025 
L 418.959658 147.405839 
L 423.025972 147.880397 
L 427.092287 148.109701 
L 431.158601 148.093751 
L 435.224916 147.832545 
L 439.29123 147.326085 
L 443.357545 146.574371 
L 447.423859 145.577401 
L 451.490174 144.335177 
L 455.556488 142.847698 
L 459.622802 141.114965 
L 463.689117 139.136977 
L 467.755431 136.913734 
L 471.821746 134.445237 
L 475.88806 131.731485 
L 479.954375 128.772478 
L 484.528978 125.150439 
L 489.103582 121.218 
L 493.678186 116.975161 
L 498.25279 112.421921 
L 502.827393 107.558281 
L 507.401997 102.38424 
L 511.976601 96.899799 
L 517.059494 90.441925 
L 522.142387 83.600841 
L 527.22528 76.376547 
L 532.308173 68.769042 
L 537.391066 60.778327 
L 542.982249 51.545932 
L 548.573431 41.849853 
L 554.164613 31.690089 
L 559.755796 21.06664 
L 565.346978 9.979507 
L 570.666573 -1 
L 570.666573 -1 
" style="fill:none;stroke:#a52a2a;stroke-linecap:square;stroke-width:1.5;"/>
   </g>
   <g id="line2d_48">
    <g clip-path="url(#p72c0ce376f)">
     <use style="fill:#59c48c;stroke:#a52a2a;stroke-width:0.8;" x="424.869357" xlink:href="#m88caebac48" y="137.098082"/>
     <use style="fill:#59c48c;stroke:#a52a2a;stroke-width:0.8;" x="553.152322" xlink:href="#m88caebac48" y="24.29"/>
     <use style="fill:#59c48c;stroke:#a52a2a;stroke-width:0.8;" x="504.455075" xlink:href="#m88caebac48" y="95.208592"/>
     <use style="fill:#59c48c;stroke:#a52a2a;stroke-width:0.8;" x="474.768448" xlink:href="#m88caebac48" y="123.922419"/>
     <use style="fill:#59c48c;stroke:#a52a2a;stroke-width:0.8;" x="376.216391" xlink:href="#m88caebac48" y="123.818615"/>
     <use style="fill:#59c48c;stroke:#a52a2a;stroke-width:0.8;" x="376.211021" xlink:href="#m88caebac48" y="115.403004"/>
     <use style="fill:#59c48c;stroke:#a52a2a;stroke-width:0.8;" x="354.411534" xlink:href="#m88caebac48" y="114.698384"/>
     <use style="fill:#59c48c;stroke:#a52a2a;stroke-width:0.8;" x="534.330226" xlink:href="#m88caebac48" y="72.803696"/>
     <use style="fill:#59c48c;stroke:#a52a2a;stroke-width:0.8;" x="475.315385" xlink:href="#m88caebac48" y="145.597314"/>
     <use style="fill:#59c48c;stroke:#a52a2a;stroke-width:0.8;" x="499.129075" xlink:href="#m88caebac48" y="117.116324"/>
     <use style="fill:#59c48c;stroke:#a52a2a;stroke-width:0.8;" x="346.0625" xlink:href="#m88caebac48" y="96.371156"/>
     <use style="fill:#59c48c;stroke:#a52a2a;stroke-width:0.8;" x="557.426136" xlink:href="#m88caebac48" y="28.992214"/>
     <use style="fill:#59c48c;stroke:#a52a2a;stroke-width:0.8;" x="526.819591" xlink:href="#m88caebac48" y="68.181125"/>
     <use style="fill:#59c48c;stroke:#a52a2a;stroke-width:0.8;" x="388.755927" xlink:href="#m88caebac48" y="139.546437"/>
     <use style="fill:#59c48c;stroke:#a52a2a;stroke-width:0.8;" x="381.962071" xlink:href="#m88caebac48" y="136.692245"/>
     <use style="fill:#59c48c;stroke:#a52a2a;stroke-width:0.8;" x="382.31375" xlink:href="#m88caebac48" y="130.163821"/>
     <use style="fill:#59c48c;stroke:#a52a2a;stroke-width:0.8;" x="409.217806" xlink:href="#m88caebac48" y="155.293314"/>
     <use style="fill:#59c48c;stroke:#a52a2a;stroke-width:0.8;" x="458.314441" xlink:href="#m88caebac48" y="135.635076"/>
     <use style="fill:#59c48c;stroke:#a52a2a;stroke-width:0.8;" x="437.650337" xlink:href="#m88caebac48" y="160.19"/>
     <use style="fill:#59c48c;stroke:#a52a2a;stroke-width:0.8;" x="406.320489" xlink:href="#m88caebac48" y="132.293921"/>
     <use style="fill:#59c48c;stroke:#a52a2a;stroke-width:0.8;" x="477.706133" xlink:href="#m88caebac48" y="124.995578"/>
     <use style="fill:#59c48c;stroke:#a52a2a;stroke-width:0.8;" x="372.537213" xlink:href="#m88caebac48" y="130.935744"/>
     <use style="fill:#59c48c;stroke:#a52a2a;stroke-width:0.8;" x="406.524323" xlink:href="#m88caebac48" y="157.849371"/>
     <use style="fill:#59c48c;stroke:#a52a2a;stroke-width:0.8;" x="423.048496" xlink:href="#m88caebac48" y="140.911213"/>
     <use style="fill:#59c48c;stroke:#a52a2a;stroke-width:0.8;" x="443.021668" xlink:href="#m88caebac48" y="142.947137"/>
     <use style="fill:#59c48c;stroke:#a52a2a;stroke-width:0.8;" x="516.295847" xlink:href="#m88caebac48" y="85.820298"/>
     <use style="fill:#59c48c;stroke:#a52a2a;stroke-width:0.8;" x="385.936041" xlink:href="#m88caebac48" y="126.871081"/>
     <use style="fill:#59c48c;stroke:#a52a2a;stroke-width:0.8;" x="455.97176" xlink:href="#m88caebac48" y="155.51867"/>
     <use style="fill:#59c48c;stroke:#a52a2a;stroke-width:0.8;" x="473.378265" xlink:href="#m88caebac48" y="138.798374"/>
     <use style="fill:#59c48c;stroke:#a52a2a;stroke-width:0.8;" x="351.821447" xlink:href="#m88caebac48" y="110.836949"/>
     <use style="fill:#59c48c;stroke:#a52a2a;stroke-width:0.8;" x="476.746964" xlink:href="#m88caebac48" y="123.34032"/>
     <use style="fill:#59c48c;stroke:#a52a2a;stroke-width:0.8;" x="379.445981" xlink:href="#m88caebac48" y="125.833729"/>
     <use style="fill:#59c48c;stroke:#a52a2a;stroke-width:0.8;" x="355.962928" xlink:href="#m88caebac48" y="110.241748"/>
     <use style="fill:#59c48c;stroke:#a52a2a;stroke-width:0.8;" x="552.745154" xlink:href="#m88caebac48" y="43.547025"/>
     <use style="fill:#59c48c;stroke:#a52a2a;stroke-width:0.8;" x="556.473696" xlink:href="#m88caebac48" y="29.854967"/>
     <use style="fill:#59c48c;stroke:#a52a2a;stroke-width:0.8;" x="521.465999" xlink:href="#m88caebac48" y="89.12801"/>
     <use style="fill:#59c48c;stroke:#a52a2a;stroke-width:0.8;" x="409.300525" xlink:href="#m88caebac48" y="140.037594"/>
     <use style="fill:#59c48c;stroke:#a52a2a;stroke-width:0.8;" x="363.225762" xlink:href="#m88caebac48" y="110.375837"/>
     <use style="fill:#59c48c;stroke:#a52a2a;stroke-width:0.8;" x="493.821291" xlink:href="#m88caebac48" y="108.027592"/>
     <use style="fill:#59c48c;stroke:#a52a2a;stroke-width:0.8;" x="439.4777" xlink:href="#m88caebac48" y="149.635389"/>
     <use style="fill:#59c48c;stroke:#a52a2a;stroke-width:0.8;" x="368.650785" xlink:href="#m88caebac48" y="129.329526"/>
     <use style="fill:#59c48c;stroke:#a52a2a;stroke-width:0.8;" x="451.728674" xlink:href="#m88caebac48" y="140.477903"/>
     <use style="fill:#59c48c;stroke:#a52a2a;stroke-width:0.8;" x="349.135913" xlink:href="#m88caebac48" y="90.715532"/>
     <use style="fill:#59c48c;stroke:#a52a2a;stroke-width:0.8;" x="543.936129" xlink:href="#m88caebac48" y="46.929931"/>
     <use style="fill:#59c48c;stroke:#a52a2a;stroke-width:0.8;" x="399.095808" xlink:href="#m88caebac48" y="134.740578"/>
     <use style="fill:#59c48c;stroke:#a52a2a;stroke-width:0.8;" x="488.987478" xlink:href="#m88caebac48" y="122.864217"/>
     <use style="fill:#59c48c;stroke:#a52a2a;stroke-width:0.8;" x="410.880713" xlink:href="#m88caebac48" y="145.916106"/>
     <use style="fill:#59c48c;stroke:#a52a2a;stroke-width:0.8;" x="457.270584" xlink:href="#m88caebac48" y="145.808906"/>
     <use style="fill:#59c48c;stroke:#a52a2a;stroke-width:0.8;" x="463.202381" xlink:href="#m88caebac48" y="153.480898"/>
     <use style="fill:#59c48c;stroke:#a52a2a;stroke-width:0.8;" x="382.636574" xlink:href="#m88caebac48" y="141.696014"/>
    </g>
   </g>
   <g id="patch_8">
    <path d="M 324.926136 173.78 
L 324.926136 10.7 
" style="fill:none;stroke:#000000;stroke-linecap:square;stroke-linejoin:miter;stroke-width:0.8;"/>
   </g>
   <g id="patch_9">
    <path d="M 578.5625 173.78 
L 578.5625 10.7 
" style="fill:none;stroke:#000000;stroke-linecap:square;stroke-linejoin:miter;stroke-width:0.8;"/>
   </g>
   <g id="patch_10">
    <path d="M 324.926136 173.78 
L 578.5625 173.78 
" style="fill:none;stroke:#000000;stroke-linecap:square;stroke-linejoin:miter;stroke-width:0.8;"/>
   </g>
   <g id="patch_11">
    <path d="M 324.926136 10.7 
L 578.5625 10.7 
" style="fill:none;stroke:#000000;stroke-linecap:square;stroke-linejoin:miter;stroke-width:0.8;"/>
   </g>
  </g>
 </g>
 <defs>
  <clipPath id="p9002e6cbbb">
   <rect height="163.08" width="253.636364" x="20.5625" y="10.7"/>
  </clipPath>
  <clipPath id="p72c0ce376f">
   <rect height="163.08" width="253.636364" x="324.926136" y="10.7"/>
  </clipPath>
 </defs>
</svg>
