<?xml version="1.0" encoding="utf-8" standalone="no"?>
<!-- Created with matplotlib (http://matplotlib.org/) -->
<svg height="252.018125pt" version="1.1" viewBox="0 0 374.442187 252.018125" width="374.442187pt" xmlns="http://www.w3.org/2000/svg" xmlns:xlink="http://www.w3.org/1999/xlink">
 <defs>
  <style type="text/css">
*{stroke-linecap:butt;stroke-linejoin:round;}
  </style>
 </defs>
 <g id="figure_1">
  <g id="patch_1">
   <path d="M 0 252.018125 
L 374.442187 252.018125 
L 374.442187 0 
L 0 0 
z
" style="fill:#ffffff;"/>
  </g>
  <g id="axes_1">
   <g id="patch_2">
    <path d="M 28.942188 228.14 
L 363.742188 228.14 
L 363.742188 10.7 
L 28.942188 10.7 
z
" style="fill:#fefbf3;"/>
   </g>
   <g id="PolyCollection_1">
    <defs>
     <path d="M 28.942188 -60.533415 
L 28.942188 -60.533415 
L 29.613129 -61.196324 
L 30.284071 -62.073109 
L 30.955013 -63.151775 
L 31.625955 -64.417807 
L 32.296897 -65.854106 
L 32.967839 -67.441187 
L 33.638781 -69.157821 
L 34.309723 -70.982313 
L 34.980664 -72.894437 
L 35.651606 -74.877729 
L 36.322548 -76.921458 
L 36.99349 -79.021466 
L 37.664432 -81.17952 
L 38.335374 -83.401469 
L 39.006316 -85.695003 
L 39.677258 -88.067708 
L 40.3482 -90.525772 
L 41.019141 -93.073334 
L 41.690083 -95.712298 
L 42.361025 -98.442422 
L 43.031967 -101.261534 
L 43.702909 -104.165798 
L 44.373851 -107.149958 
L 45.044793 -110.207575 
L 45.715735 -113.331224 
L 46.386676 -116.512657 
L 47.057618 -119.742955 
L 47.72856 -123.012644 
L 48.399502 -126.311804 
L 49.070444 -129.630158 
L 49.741386 -132.957157 
L 50.412328 -136.282051 
L 51.08327 -139.593954 
L 51.754212 -142.881909 
L 52.425153 -146.134942 
L 53.096095 -149.342115 
L 53.767037 -152.492578 
L 54.437979 -155.575612 
L 55.108921 -158.580679 
L 55.779863 -161.497456 
L 56.450805 -164.31588 
L 57.121747 -167.026184 
L 57.792689 -169.618925 
L 58.46363 -172.08502 
L 59.134572 -174.415769 
L 59.805514 -176.602879 
L 60.476456 -178.638478 
L 61.147398 -180.515129 
L 61.81834 -182.22583 
L 62.489282 -183.764007 
L 63.160224 -185.123487 
L 63.831165 -186.298458 
L 64.502107 -187.283394 
L 65.173049 -188.072937 
L 65.843991 -188.661714 
L 66.514933 -189.044047 
L 67.185875 -189.21351 
L 67.856817 -189.162216 
L 68.527759 -188.879712 
L 69.198701 -188.351274 
L 69.869642 -187.555456 
L 70.540584 -186.461255 
L 71.211526 -185.026916 
L 71.882468 -183.205698 
L 72.55341 -180.964092 
L 73.224352 -178.30455 
L 73.895294 -175.269395 
L 74.566236 -171.920957 
L 75.237177 -168.320118 
L 75.908119 -164.517211 
L 76.579061 -160.551903 
L 77.250003 -156.455906 
L 77.920945 -152.255597 
L 78.591887 -147.973908 
L 79.262829 -143.631551 
L 79.933771 -139.24778 
L 80.604713 -134.840867 
L 81.275654 -130.428378 
L 81.946596 -126.027347 
L 82.617538 -121.65437 
L 83.28848 -117.325648 
L 83.959422 -113.057008 
L 84.630364 -108.863896 
L 85.301306 -104.761362 
L 85.972248 -100.764032 
L 86.64319 -96.886078 
L 87.314131 -93.141179 
L 87.985073 -89.542484 
L 88.656015 -86.102572 
L 89.326957 -82.833414 
L 89.997899 -79.74633 
L 90.668841 -76.851948 
L 91.339783 -74.16017 
L 92.010725 -71.680126 
L 92.681666 -69.420142 
L 93.352608 -67.387696 
L 94.02355 -65.589388 
L 94.694492 -64.030895 
L 95.365434 -62.716935 
L 96.036376 -61.651225 
L 96.707318 -60.836436 
L 97.37826 -60.274142 
L 98.049202 -59.964763 
L 98.720143 -59.907489 
L 99.391085 -60.100193 
L 100.062027 -60.53932 
L 100.732969 -61.219735 
L 101.403911 -62.134535 
L 102.074853 -63.274798 
L 102.745795 -64.62927 
L 103.416737 -66.183983 
L 104.087678 -67.921839 
L 104.75862 -69.822255 
L 105.429562 -71.861078 
L 106.100504 -74.011164 
L 106.771446 -76.244097 
L 107.442388 -78.533339 
L 108.11333 -80.858333 
L 108.784272 -83.207948 
L 109.455214 -85.581394 
L 110.126155 -87.986058 
L 110.797097 -90.433575 
L 111.468039 -92.936072 
L 112.138981 -95.503717 
L 112.809923 -98.143618 
L 113.480865 -100.859656 
L 114.151807 -103.652774 
L 114.822749 -106.521431 
L 115.493691 -109.46206 
L 116.164632 -112.469461 
L 116.835574 -115.537143 
L 117.506516 -118.657578 
L 118.177458 -121.822422 
L 118.8484 -125.022679 
L 119.519342 -128.248845 
L 120.190284 -131.491019 
L 120.861226 -134.739 
L 121.532167 -137.982375 
L 122.203109 -141.210589 
L 122.874051 -144.41301 
L 123.544993 -147.578992 
L 124.215935 -150.697929 
L 124.886877 -153.759304 
L 125.557819 -156.75274 
L 126.228761 -159.668041 
L 126.899703 -162.495236 
L 127.570644 -165.224622 
L 128.241586 -167.846793 
L 128.912528 -170.352681 
L 129.58347 -172.733586 
L 130.254412 -174.981206 
L 130.925354 -177.087658 
L 131.596296 -179.045506 
L 132.267238 -180.847777 
L 132.938179 -182.487972 
L 133.609121 -183.96007 
L 134.280063 -185.258531 
L 134.951005 -186.378275 
L 135.621947 -187.314651 
L 136.292889 -188.063382 
L 136.963831 -188.62047 
L 137.634773 -188.982035 
L 138.305715 -189.144068 
L 138.976656 -189.102008 
L 139.647598 -188.85003 
L 140.31854 -188.379818 
L 140.989482 -187.678408 
L 141.660424 -186.724453 
L 142.331366 -185.48236 
L 143.002308 -183.896052 
L 143.67325 -181.893179 
L 144.344192 -179.419661 
L 145.015133 -176.488668 
L 145.686075 -173.176579 
L 146.357017 -169.572317 
L 147.027959 -165.746618 
L 147.698901 -161.749939 
L 148.369843 -157.618919 
L 149.040785 -153.381978 
L 149.711727 -149.062791 
L 150.382668 -144.682267 
L 151.05361 -140.259647 
L 151.724552 -135.81313 
L 152.395494 -131.360216 
L 153.066436 -126.917902 
L 153.737378 -122.50278 
L 154.40832 -118.131088 
L 155.079262 -113.818722 
L 155.750204 -109.581226 
L 156.421145 -105.433775 
L 157.092087 -101.391142 
L 157.763029 -97.467662 
L 158.433971 -93.677198 
L 159.104913 -90.033094 
L 159.775855 -86.54814 
L 160.446797 -83.234527 
L 161.117739 -80.103804 
L 161.78868 -77.166845 
L 162.459622 -74.4338 
L 163.130564 -71.914066 
L 163.801506 -69.616243 
L 164.472448 -67.548101 
L 165.14339 -65.716547 
L 165.814332 -64.127587 
L 166.485274 -62.786295 
L 167.156216 -61.696775 
L 167.827157 -60.862128 
L 168.498099 -60.284411 
L 169.169041 -59.964592 
L 169.839983 -59.902496 
L 170.510925 -60.096741 
L 171.181867 -60.544648 
L 171.852809 -61.242133 
L 172.523751 -62.183546 
L 173.194693 -63.361461 
L 173.865634 -64.766375 
L 174.536576 -66.386297 
L 175.207518 -68.206192 
L 175.87846 -70.207273 
L 176.549402 -72.366203 
L 177.220344 -74.654473 
L 177.891286 -77.038577 
L 178.562228 -79.482092 
L 179.233169 -81.950679 
L 179.904111 -84.419398 
L 180.575053 -86.878717 
L 181.245995 -89.334901 
L 181.916937 -91.80448 
L 182.587879 -94.30691 
L 183.258821 -96.859309 
L 183.929763 -99.47417 
L 184.600705 -102.159094 
L 185.271646 -104.917428 
L 185.942588 -107.749124 
L 186.61353 -110.651506 
L 187.284472 -113.619909 
L 187.955414 -116.648142 
L 188.626356 -119.728857 
L 189.297298 -122.853811 
L 189.96824 -126.014071 
L 190.639181 -129.200173 
L 191.310123 -132.402251 
L 191.981065 -135.610136 
L 192.652007 -138.813447 
L 193.322949 -142.001661 
L 193.993891 -145.164185 
L 194.664833 -148.290411 
L 195.335775 -151.369769 
L 196.006717 -154.391782 
L 196.677658 -157.346106 
L 197.3486 -160.222577 
L 198.019542 -163.011252 
L 198.690484 -165.702443 
L 199.361426 -168.286754 
L 200.032368 -170.755115 
L 200.70331 -173.098808 
L 201.374252 -175.309495 
L 202.045194 -177.37924 
L 202.716135 -179.300526 
L 203.387077 -181.066264 
L 204.058019 -182.669807 
L 204.728961 -184.104935 
L 205.399903 -185.365846 
L 206.070845 -186.447122 
L 206.741787 -187.343672 
L 207.412729 -188.050643 
L 208.08367 -188.563282 
L 208.754612 -188.876714 
L 209.425554 -188.985609 
L 210.096496 -188.883651 
L 210.767438 -188.562716 
L 211.43838 -188.011588 
L 212.109322 -187.214036 
L 212.780264 -186.146237 
L 213.451206 -184.774346 
L 214.122147 -183.055277 
L 214.793089 -180.946607 
L 215.464031 -178.427521 
L 216.134973 -175.515969 
L 216.805915 -172.262594 
L 217.476857 -168.728823 
L 218.147799 -164.970458 
L 218.818741 -161.032807 
L 219.489682 -156.951931 
L 220.160624 -152.757275 
L 220.831566 -148.473892 
L 221.502508 -144.12399 
L 222.17345 -139.727909 
L 222.844392 -135.304747 
L 223.515334 -130.872726 
L 224.186276 -126.449425 
L 224.857218 -122.051906 
L 225.528159 -117.69679 
L 226.199101 -113.400284 
L 226.870043 -109.17819 
L 227.540985 -105.045892 
L 228.211927 -101.018336 
L 228.882869 -97.110002 
L 229.553811 -93.334865 
L 230.224753 -89.706363 
L 230.895695 -86.237356 
L 231.566636 -82.940086 
L 232.237578 -79.826142 
L 232.90852 -76.906413 
L 233.579462 -74.191057 
L 234.250404 -71.68946 
L 234.921346 -69.410199 
L 235.592288 -67.36101 
L 236.26323 -65.548746 
L 236.934171 -63.979351 
L 237.605113 -62.65782 
L 238.276055 -61.588163 
L 238.946997 -60.773371 
L 239.617939 -60.21537 
L 240.288881 -59.914976 
L 240.959823 -59.871836 
L 241.630765 -60.084357 
L 242.301707 -60.54961 
L 242.972648 -61.263204 
L 243.64359 -62.219117 
L 244.314532 -63.409458 
L 244.985474 -64.824138 
L 245.656416 -66.450427 
L 246.327358 -68.272358 
L 246.9983 -70.269999 
L 247.669242 -72.418704 
L 248.340183 -74.688676 
L 249.011125 -77.045603 
L 249.682067 -79.453486 
L 250.353009 -81.880354 
L 251.023951 -84.305467 
L 251.694893 -86.723957 
L 252.365835 -89.145452 
L 253.036777 -91.587778 
L 253.707719 -94.070097 
L 254.37866 -96.6085 
L 255.049602 -99.214342 
L 255.720544 -101.894257 
L 256.391486 -104.650854 
L 257.062428 -107.483548 
L 257.73337 -110.389284 
L 258.404312 -113.363119 
L 259.075254 -116.398662 
L 259.746196 -119.488406 
L 260.417137 -122.623982 
L 261.088079 -125.796343 
L 261.759021 -128.995922 
L 262.429963 -132.212748 
L 263.100905 -135.436546 
L 263.771847 -138.656819 
L 264.442789 -141.862922 
L 265.113731 -145.044126 
L 265.784672 -148.189673 
L 266.455614 -151.288832 
L 267.126556 -154.330942 
L 267.797498 -157.30546 
L 268.46844 -160.201999 
L 269.139382 -163.010369 
L 269.810324 -165.720607 
L 270.481266 -168.323013 
L 271.152208 -170.808172 
L 271.823149 -173.16698 
L 272.494091 -175.390661 
L 273.165033 -177.470779 
L 273.835975 -179.399241 
L 274.506917 -181.168289 
L 275.177859 -182.770489 
L 275.848801 -184.198688 
L 276.519743 -185.445965 
L 277.190684 -186.50554 
L 277.861626 -187.370656 
L 278.532568 -188.034394 
L 279.20351 -188.489428 
L 279.874452 -188.727674 
L 280.545394 -188.739829 
L 281.216336 -188.514774 
L 281.887278 -188.038898 
L 282.55822 -187.295475 
L 283.229161 -186.264525 
L 283.900103 -184.923876 
L 284.571045 -183.252345 
L 285.241987 -181.235252 
L 285.912929 -178.870508 
L 286.583871 -176.171742 
L 287.254813 -173.166249 
L 287.925755 -169.889217 
L 288.596697 -166.377841 
L 289.267638 -162.667533 
L 289.93858 -158.790404 
L 290.609522 -154.775139 
L 291.280464 -150.64748 
L 291.951406 -146.430852 
L 292.622348 -142.14691 
L 293.29329 -137.815985 
L 293.964232 -133.457399 
L 294.635173 -129.089687 
L 295.306115 -124.730745 
L 295.977057 -120.397923 
L 296.647999 -116.108081 
L 297.318941 -111.877615 
L 297.989883 -107.722461 
L 298.660825 -103.658087 
L 299.331767 -99.699475 
L 300.002709 -95.861094 
L 300.67365 -92.156869 
L 301.344592 -88.600148 
L 302.015534 -85.203664 
L 302.686476 -81.979499 
L 303.357418 -78.939044 
L 304.02836 -76.092961 
L 304.699302 -73.451143 
L 305.370244 -71.02268 
L 306.041185 -68.815816 
L 306.712127 -66.837912 
L 307.383069 -65.09541 
L 308.054011 -63.593788 
L 308.724953 -62.337524 
L 309.395895 -61.330043 
L 310.066837 -60.573675 
L 310.737779 -60.069588 
L 311.408721 -59.817722 
L 312.079662 -59.816699 
L 312.750604 -60.063717 
L 313.421546 -60.554399 
L 314.092488 -61.282616 
L 314.76343 -62.240239 
L 315.434372 -63.41683 
L 316.105314 -64.799264 
L 316.776256 -66.371289 
L 317.447198 -68.11312 
L 318.118139 -70.001229 
L 318.789081 -72.0087 
L 319.460023 -74.106643 
L 320.130965 -76.267101 
L 320.801907 -78.467217 
L 321.472849 -80.693286 
L 322.143791 -82.942593 
L 322.814733 -85.221918 
L 323.485674 -87.543665 
L 324.156616 -89.921664 
L 324.827558 -92.368174 
L 325.4985 -94.892393 
L 326.169442 -97.50008 
L 326.840384 -100.193779 
L 327.511326 -102.973276 
L 328.182268 -105.836087 
L 328.85321 -108.777887 
L 329.524151 -111.792879 
L 330.195093 -114.874084 
L 330.866035 -118.013568 
L 331.536977 -121.20263 
L 332.207919 -124.43195 
L 332.878861 -127.691709 
L 333.549803 -130.971693 
L 334.220745 -134.261378 
L 334.891686 -137.550005 
L 335.562628 -140.826646 
L 336.23357 -144.080265 
L 336.904512 -147.299772 
L 337.575454 -150.47407 
L 338.246396 -153.592101 
L 338.917338 -156.642887 
L 339.58828 -159.615565 
L 340.259222 -162.499426 
L 340.930163 -165.283934 
L 341.601105 -167.95876 
L 342.272047 -170.513791 
L 342.942989 -172.939146 
L 343.613931 -175.225179 
L 344.284873 -177.362466 
L 344.955815 -179.341791 
L 345.626757 -181.154103 
L 346.297699 -182.790462 
L 346.96864 -184.241956 
L 347.639582 -185.49958 
L 348.310524 -186.554088 
L 348.981466 -187.395787 
L 349.652408 -188.014296 
L 350.32335 -188.398256 
L 350.994292 -188.535053 
L 351.665234 -188.410604 
L 352.336175 -188.009397 
L 353.007117 -187.314988 
L 353.678059 -186.311266 
L 354.349001 -184.984634 
L 355.019943 -183.326842 
L 355.690885 -181.337646 
L 356.361827 -179.026157 
L 357.032769 -176.41018 
L 357.703711 -173.513907 
L 358.374652 -170.365016 
L 359.045594 -166.992178 
L 359.716536 -163.423427 
L 360.387478 -159.685363 
L 361.05842 -155.802917 
L 361.729362 -151.799435 
L 362.400304 -147.696884 
L 363.071246 -143.516085 
L 363.742188 -139.276925 
L 363.742188 -139.276925 
L 363.742188 -169.662905 
L 363.071246 -172.53123 
L 362.400304 -175.307091 
L 361.729362 -177.985931 
L 361.05842 -180.564744 
L 360.387478 -183.042369 
L 359.716536 -185.419805 
L 359.045594 -187.700495 
L 358.374652 -189.890487 
L 357.703711 -191.998268 
L 357.032769 -194.034039 
L 356.361827 -196.008148 
L 355.690885 -197.928661 
L 355.019943 -199.798513 
L 354.349001 -201.613253 
L 353.678059 -203.360438 
L 353.007117 -205.021018 
L 352.336175 -206.572033 
L 351.665234 -207.989483 
L 350.994292 -209.250535 
L 350.32335 -210.334806 
L 349.652408 -211.224887 
L 348.981466 -211.906383 
L 348.310524 -212.367716 
L 347.639582 -212.59984 
L 346.96864 -212.595953 
L 346.297699 -212.351239 
L 345.626757 -211.862656 
L 344.955815 -211.128757 
L 344.284873 -210.149547 
L 343.613931 -208.926372 
L 342.942989 -207.461823 
L 342.272047 -205.759655 
L 341.601105 -203.824723 
L 340.930163 -201.662923 
L 340.259222 -199.281137 
L 339.58828 -196.687187 
L 338.917338 -193.889787 
L 338.246396 -190.898498 
L 337.575454 -187.723689 
L 336.904512 -184.376494 
L 336.23357 -180.868768 
L 335.562628 -177.21305 
L 334.891686 -173.422529 
L 334.220745 -169.510999 
L 333.549803 -165.492831 
L 332.878861 -161.382945 
L 332.207919 -157.196781 
L 331.536977 -152.950288 
L 330.866035 -148.659913 
L 330.195093 -144.342618 
L 329.524151 -140.0159 
L 328.85321 -135.697858 
L 328.182268 -131.407275 
L 327.511326 -127.163767 
L 326.840384 -122.98798 
L 326.169442 -118.901866 
L 325.4985 -114.929033 
L 324.827558 -111.095149 
L 324.156616 -107.428311 
L 323.485674 -103.959198 
L 322.814733 -100.720614 
L 322.143791 -97.745926 
L 321.472849 -95.065997 
L 320.801907 -92.704929 
L 320.130965 -90.676124 
L 319.460023 -88.980735 
L 318.789081 -87.609454 
L 318.118139 -86.546514 
L 317.447198 -85.773812 
L 316.776256 -85.273782 
L 316.105314 -85.030773 
L 315.434372 -85.031377 
L 314.76343 -85.264199 
L 314.092488 -85.719428 
L 313.421546 -86.388392 
L 312.750604 -87.263171 
L 312.079662 -88.336284 
L 311.408721 -89.600455 
L 310.737779 -91.048433 
L 310.066837 -92.672869 
L 309.395895 -94.466225 
L 308.724953 -96.420709 
L 308.054011 -98.528243 
L 307.383069 -100.780435 
L 306.712127 -103.168571 
L 306.041185 -105.683617 
L 305.370244 -108.316227 
L 304.699302 -111.056759 
L 304.02836 -113.895295 
L 303.357418 -116.821667 
L 302.686476 -119.825488 
L 302.015534 -122.896182 
L 301.344592 -126.023021 
L 300.67365 -129.195167 
L 300.002709 -132.40171 
L 299.331767 -135.631715 
L 298.660825 -138.874273 
L 297.989883 -142.118549 
L 297.318941 -145.353847 
L 296.647999 -148.569665 
L 295.977057 -151.755777 
L 295.306115 -154.902311 
L 294.635173 -157.999845 
L 293.964232 -161.039533 
L 293.29329 -164.013241 
L 292.622348 -166.913744 
L 291.951406 -169.734952 
L 291.280464 -172.472231 
L 290.609522 -175.122806 
L 289.93858 -177.686282 
L 289.267638 -180.165288 
L 288.596697 -182.566174 
L 287.925755 -184.899579 
L 287.254813 -187.180379 
L 286.583871 -189.42624 
L 285.912929 -191.653899 
L 285.241987 -193.873341 
L 284.571045 -196.082088 
L 283.900103 -198.263202 
L 283.229161 -200.388467 
L 282.55822 -202.424523 
L 281.887278 -204.33842 
L 281.216336 -206.100841 
L 280.545394 -207.687196 
L 279.874452 -209.07751 
L 279.20351 -210.25582 
L 278.532568 -211.209521 
L 277.861626 -211.928777 
L 277.190684 -212.406066 
L 276.519743 -212.635834 
L 275.848801 -212.614236 
L 275.177859 -212.338953 
L 274.506917 -211.809049 
L 273.835975 -211.024863 
L 273.165033 -209.98793 
L 272.494091 -208.700914 
L 271.823149 -207.167552 
L 271.152208 -205.392608 
L 270.481266 -203.381832 
L 269.810324 -201.141915 
L 269.139382 -198.680459 
L 268.46844 -196.005933 
L 267.797498 -193.127641 
L 267.126556 -190.055683 
L 266.455614 -186.800917 
L 265.784672 -183.374925 
L 265.113731 -179.789974 
L 264.442789 -176.058981 
L 263.771847 -172.195475 
L 263.100905 -168.213566 
L 262.429963 -164.127916 
L 261.759021 -159.953712 
L 261.088079 -155.706648 
L 260.417137 -151.402917 
L 259.746196 -147.05922 
L 259.075254 -142.692792 
L 258.404312 -138.321459 
L 257.73337 -133.963741 
L 257.062428 -129.639009 
L 256.391486 -125.367723 
L 255.720544 -121.17179 
L 255.049602 -117.075053 
L 254.37866 -113.103933 
L 253.707719 -109.288172 
L 253.036777 -105.661452 
L 252.365835 -102.261329 
L 251.694893 -99.127493 
L 251.023951 -96.29729 
L 250.353009 -93.79879 
L 249.682067 -91.644424 
L 249.011125 -89.82955 
L 248.340183 -88.337034 
L 247.669242 -87.144401 
L 246.9983 -86.229508 
L 246.327358 -85.573322 
L 245.656416 -85.160519 
L 244.985474 -84.979022 
L 244.314532 -85.019215 
L 243.64359 -85.273197 
L 242.972648 -85.73417 
L 242.301707 -86.395981 
L 241.630765 -87.25279 
L 240.959823 -88.298831 
L 240.288881 -89.528247 
L 239.617939 -90.934971 
L 238.946997 -92.512654 
L 238.276055 -94.254607 
L 237.605113 -96.153773 
L 236.934171 -98.202711 
L 236.26323 -100.393589 
L 235.592288 -102.71819 
L 234.921346 -105.167921 
L 234.250404 -107.733829 
L 233.579462 -110.406624 
L 232.90852 -113.176704 
L 232.237578 -116.03418 
L 231.566636 -118.96891 
L 230.895695 -121.970533 
L 230.224753 -125.028503 
L 229.553811 -128.132129 
L 228.882869 -131.270617 
L 228.211927 -134.433113 
L 227.540985 -137.608749 
L 226.870043 -140.786692 
L 226.199101 -143.956205 
L 225.528159 -147.1067 
L 224.857218 -150.227813 
L 224.186276 -153.309482 
L 223.515334 -156.342048 
L 222.844392 -159.316376 
L 222.17345 -162.224022 
L 221.502508 -165.057451 
L 220.831566 -167.810356 
L 220.160624 -170.478124 
L 219.489682 -173.058536 
L 218.818741 -175.552842 
L 218.147799 -177.967382 
L 217.476857 -180.3159 
L 216.805915 -182.622244 
L 216.134973 -184.921698 
L 215.464031 -187.256176 
L 214.793089 -189.657891 
L 214.122147 -192.127501 
L 213.451206 -194.628106 
L 212.780264 -197.102455 
L 212.109322 -199.493949 
L 211.43838 -201.756587 
L 210.767438 -203.855794 
L 210.096496 -205.766027 
L 209.425554 -207.468231 
L 208.754612 -208.947941 
L 208.08367 -210.194026 
L 207.412729 -211.197879 
L 206.741787 -211.952898 
L 206.070845 -212.454162 
L 205.399903 -212.698206 
L 204.728961 -212.682881 
L 204.058019 -212.407254 
L 203.387077 -211.871534 
L 202.716135 -211.077018 
L 202.045194 -210.026053 
L 201.374252 -208.721995 
L 200.70331 -207.16918 
L 200.032368 -205.372897 
L 199.361426 -203.339354 
L 198.690484 -201.075651 
L 198.019542 -198.589752 
L 197.3486 -195.890452 
L 196.677658 -192.987346 
L 196.006717 -189.890798 
L 195.335775 -186.611905 
L 194.664833 -183.162462 
L 193.993891 -179.554931 
L 193.322949 -175.802404 
L 192.652007 -171.918569 
L 191.981065 -167.917681 
L 191.310123 -163.814531 
L 190.639181 -159.624427 
L 189.96824 -155.363172 
L 189.297298 -151.047068 
L 188.626356 -146.692921 
L 187.955414 -142.318077 
L 187.284472 -137.940489 
L 186.61353 -133.578829 
L 185.942588 -129.252664 
L 185.271646 -124.982725 
L 184.600705 -120.791291 
L 183.929763 -116.702731 
L 183.258821 -112.744193 
L 182.587879 -108.946375 
L 181.916937 -105.344081 
L 181.245995 -101.975879 
L 180.575053 -98.881738 
L 179.904111 -96.09769 
L 179.233169 -93.648422 
L 178.562228 -91.541683 
L 177.891286 -89.768609 
L 177.220344 -88.309677 
L 176.549402 -87.141966 
L 175.87846 -86.244115 
L 175.207518 -85.598354 
L 174.536576 -85.190647 
L 173.865634 -85.010032 
L 173.194693 -85.047802 
L 172.523751 -85.29677 
L 171.852809 -85.750697 
L 171.181867 -86.403869 
L 170.510925 -87.250792 
L 169.839983 -88.28598 
L 169.169041 -89.5038 
L 168.498099 -90.898371 
L 167.827157 -92.463496 
L 167.156216 -94.192614 
L 166.485274 -96.078772 
L 165.814332 -98.114616 
L 165.14339 -100.292385 
L 164.472448 -102.603918 
L 163.801506 -105.040663 
L 163.130564 -107.593698 
L 162.459622 -110.253749 
L 161.78868 -113.011217 
L 161.117739 -115.856205 
L 160.446797 -118.77855 
L 159.775855 -121.767856 
L 159.104913 -124.813526 
L 158.433971 -127.904806 
L 157.763029 -131.030817 
L 157.092087 -134.180604 
L 156.421145 -137.343175 
L 155.750204 -140.50755 
L 155.079262 -143.66281 
L 154.40832 -146.798155 
L 153.737378 -149.902959 
L 153.066436 -152.96685 
L 152.395494 -155.979785 
L 151.724552 -158.932163 
L 151.05361 -161.81496 
L 150.382668 -164.619925 
L 149.711727 -167.339859 
L 149.040785 -169.969058 
L 148.369843 -172.504014 
L 147.698901 -174.944609 
L 147.027959 -177.296172 
L 146.357017 -179.573038 
L 145.686075 -181.80422 
L 145.015133 -184.03995 
L 144.344192 -186.34966 
L 143.67325 -188.791313 
L 143.002308 -191.36081 
L 142.331366 -193.988005 
L 141.660424 -196.585743 
L 140.989482 -199.084456 
L 140.31854 -201.436417 
L 139.647598 -203.609554 
L 138.976656 -205.581613 
L 138.305715 -207.336464 
L 137.634773 -208.861968 
L 136.963831 -210.148774 
L 136.292889 -211.189621 
L 135.621947 -211.97893 
L 134.951005 -212.512561 
L 134.280063 -212.78765 
L 133.609121 -212.802515 
L 132.938179 -212.556588 
L 132.267238 -212.050362 
L 131.596296 -211.28536 
L 130.925354 -210.264104 
L 130.254412 -208.990087 
L 129.58347 -207.467751 
L 128.912528 -205.70246 
L 128.241586 -203.70048 
L 127.570644 -201.46895 
L 126.899703 -199.015856 
L 126.228761 -196.350003 
L 125.557819 -193.480986 
L 124.886877 -190.41916 
L 124.215935 -187.175605 
L 123.544993 -183.762096 
L 122.874051 -180.191071 
L 122.203109 -176.475594 
L 121.532167 -172.629325 
L 120.861226 -168.666491 
L 120.190284 -164.601857 
L 119.519342 -160.450703 
L 118.8484 -156.228807 
L 118.177458 -151.952437 
L 117.506516 -147.638359 
L 116.835574 -143.303856 
L 116.164632 -138.966777 
L 115.493691 -134.645614 
L 114.822749 -130.359623 
L 114.151807 -126.128999 
L 113.480865 -121.975117 
L 112.809923 -117.920846 
L 112.138981 -113.990918 
L 111.468039 -110.212298 
L 110.797097 -106.614392 
L 110.126155 -103.228802 
L 109.455214 -100.088153 
L 108.784272 -97.223563 
L 108.11333 -94.660823 
L 107.442388 -92.416403 
L 106.771446 -90.495229 
L 106.100504 -88.891537 
L 105.429562 -87.59227 
L 104.75862 -86.581131 
L 104.087678 -85.841692 
L 103.416737 -85.359078 
L 102.745795 -85.120506 
L 102.074853 -85.11518 
L 101.403911 -85.333908 
L 100.732969 -85.768676 
L 100.062027 -86.412249 
L 99.391085 -87.257851 
L 98.720143 -88.298921 
L 98.049202 -89.528922 
L 97.37826 -90.941203 
L 96.707318 -92.528908 
L 96.036376 -94.2849 
L 95.365434 -96.20172 
L 94.694492 -98.27156 
L 94.02355 -100.486248 
L 93.352608 -102.837245 
L 92.681666 -105.315648 
L 92.010725 -107.912206 
L 91.339783 -110.617334 
L 90.668841 -113.42114 
L 89.997899 -116.313444 
L 89.326957 -119.283814 
L 88.656015 -122.321596 
L 87.985073 -125.41595 
L 87.314131 -128.555885 
L 86.64319 -131.730306 
L 85.972248 -134.928048 
L 85.301306 -138.13793 
L 84.630364 -141.348798 
L 83.959422 -144.549584 
L 83.28848 -147.729356 
L 82.617538 -150.87739 
L 81.946596 -153.983242 
L 81.275654 -157.036836 
L 80.604713 -160.028574 
L 79.933771 -162.949474 
L 79.262829 -165.791356 
L 78.591887 -168.547101 
L 77.920945 -171.211025 
L 77.250003 -173.779435 
L 76.579061 -176.25148 
L 75.908119 -178.630459 
L 75.237177 -180.925792 
L 74.566236 -183.155719 
L 73.895294 -185.350087 
L 73.224352 -187.550302 
L 72.55341 -189.800297 
L 71.882468 -192.125146 
L 71.211526 -194.511256 
L 70.540584 -196.910336 
L 69.869642 -199.262174 
L 69.198701 -201.512906 
L 68.527759 -203.620827 
L 67.856817 -205.555227 
L 67.185875 -207.293591 
L 66.514933 -208.819179 
L 65.843991 -210.11934 
L 65.173049 -211.184421 
L 64.502107 -212.007073 
L 63.831165 -212.581804 
L 63.160224 -212.904699 
L 62.489282 -212.973225 
L 61.81834 -212.786105 
L 61.147398 -212.343232 
L 60.476456 -211.645595 
L 59.805514 -210.695238 
L 59.134572 -209.495216 
L 58.46363 -208.049559 
L 57.792689 -206.363242 
L 57.121747 -204.442156 
L 56.450805 -202.293077 
L 55.779863 -199.923637 
L 55.108921 -197.342297 
L 54.437979 -194.558311 
L 53.767037 -191.5817 
L 53.096095 -188.423214 
L 52.425153 -185.094305 
L 51.754212 -181.607085 
L 51.08327 -177.974301 
L 50.412328 -174.209296 
L 49.741386 -170.325978 
L 49.070444 -166.338789 
L 48.399502 -162.262678 
L 47.72856 -158.113077 
L 47.057618 -153.905883 
L 46.386676 -149.657446 
L 45.715735 -145.384569 
L 45.044793 -141.104526 
L 44.373851 -136.835083 
L 43.702909 -132.59456 
L 43.031967 -128.401901 
L 42.361025 -124.27679 
L 41.690083 -120.239786 
L 41.019141 -116.312498 
L 40.3482 -112.517753 
L 39.677258 -108.879741 
L 39.006316 -105.42402 
L 38.335374 -102.177257 
L 37.664432 -99.166506 
L 36.99349 -96.417841 
L 36.322548 -93.954353 
L 35.651606 -91.793843 
L 34.980664 -89.946925 
L 34.309723 -88.416326 
L 33.638781 -87.197679 
L 32.967839 -86.28145 
L 32.296897 -85.655195 
L 31.625955 -85.305462 
L 30.955013 -85.219042 
L 30.284071 -85.383587 
L 29.613129 -85.787796 
L 28.942188 -86.421331 
z
" id="m90d0d41009" style="stroke:#dfb4af;"/>
    </defs>
    <g clip-path="url(#pb962acce20)">
     <use style="fill:#dfb4af;stroke:#dfb4af;" x="0" xlink:href="#m90d0d41009" y="252.018125"/>
    </g>
   </g>
   <g id="matplotlib.axis_1">
    <g id="xtick_1">
     <g id="line2d_1">
      <path clip-path="url(#pb962acce20)" d="M 55.272261 228.14 
L 55.272261 10.7 
" style="fill:none;stroke:#b0b0b0;stroke-dasharray:0.5,0.825;stroke-dashoffset:0;stroke-width:0.5;"/>
     </g>
     <g id="line2d_2">
      <defs>
       <path d="M 0 0 
L 0 3.5 
" id="ma4bfaa0424" style="stroke:#000000;stroke-width:0.8;"/>
      </defs>
      <g>
       <use style="stroke:#000000;stroke-width:0.8;" x="55.272261" xlink:href="#ma4bfaa0424" y="228.14"/>
      </g>
     </g>
     <g id="text_1">
      <!-- 0.0 -->
      <defs>
       <path d="M 31.78125 66.40625 
Q 24.171875 66.40625 20.328125 58.90625 
Q 16.5 51.421875 16.5 36.375 
Q 16.5 21.390625 20.328125 13.890625 
Q 24.171875 6.390625 31.78125 6.390625 
Q 39.453125 6.390625 43.28125 13.890625 
Q 47.125 21.390625 47.125 36.375 
Q 47.125 51.421875 43.28125 58.90625 
Q 39.453125 66.40625 31.78125 66.40625 
z
M 31.78125 74.21875 
Q 44.046875 74.21875 50.515625 64.515625 
Q 56.984375 54.828125 56.984375 36.375 
Q 56.984375 17.96875 50.515625 8.265625 
Q 44.046875 -1.421875 31.78125 -1.421875 
Q 19.53125 -1.421875 13.0625 8.265625 
Q 6.59375 17.96875 6.59375 36.375 
Q 6.59375 54.828125 13.0625 64.515625 
Q 19.53125 74.21875 31.78125 74.21875 
z
" id="DejaVuSans-30"/>
       <path d="M 10.6875 12.40625 
L 21 12.40625 
L 21 0 
L 10.6875 0 
z
" id="DejaVuSans-2e"/>
      </defs>
      <g transform="translate(47.320698 242.738437)scale(0.1 -0.1)">
       <use xlink:href="#DejaVuSans-30"/>
       <use x="63.623047" xlink:href="#DejaVuSans-2e"/>
       <use x="95.410156" xlink:href="#DejaVuSans-30"/>
      </g>
     </g>
    </g>
    <g id="xtick_2">
     <g id="line2d_3">
      <path clip-path="url(#pb962acce20)" d="M 112.13185 228.14 
L 112.13185 10.7 
" style="fill:none;stroke:#b0b0b0;stroke-dasharray:0.5,0.825;stroke-dashoffset:0;stroke-width:0.5;"/>
     </g>
     <g id="line2d_4">
      <g>
       <use style="stroke:#000000;stroke-width:0.8;" x="112.13185" xlink:href="#ma4bfaa0424" y="228.14"/>
      </g>
     </g>
     <g id="text_2">
      <!-- 0.2 -->
      <defs>
       <path d="M 19.1875 8.296875 
L 53.609375 8.296875 
L 53.609375 0 
L 7.328125 0 
L 7.328125 8.296875 
Q 12.9375 14.109375 22.625 23.890625 
Q 32.328125 33.6875 34.8125 36.53125 
Q 39.546875 41.84375 41.421875 45.53125 
Q 43.3125 49.21875 43.3125 52.78125 
Q 43.3125 58.59375 39.234375 62.25 
Q 35.15625 65.921875 28.609375 65.921875 
Q 23.96875 65.921875 18.8125 64.3125 
Q 13.671875 62.703125 7.8125 59.421875 
L 7.8125 69.390625 
Q 13.765625 71.78125 18.9375 73 
Q 24.125 74.21875 28.421875 74.21875 
Q 39.75 74.21875 46.484375 68.546875 
Q 53.21875 62.890625 53.21875 53.421875 
Q 53.21875 48.921875 51.53125 44.890625 
Q 49.859375 40.875 45.40625 35.40625 
Q 44.1875 33.984375 37.640625 27.21875 
Q 31.109375 20.453125 19.1875 8.296875 
z
" id="DejaVuSans-32"/>
      </defs>
      <g transform="translate(104.180287 242.738437)scale(0.1 -0.1)">
       <use xlink:href="#DejaVuSans-30"/>
       <use x="63.623047" xlink:href="#DejaVuSans-2e"/>
       <use x="95.410156" xlink:href="#DejaVuSans-32"/>
      </g>
     </g>
    </g>
    <g id="xtick_3">
     <g id="line2d_5">
      <path clip-path="url(#pb962acce20)" d="M 168.991438 228.14 
L 168.991438 10.7 
" style="fill:none;stroke:#b0b0b0;stroke-dasharray:0.5,0.825;stroke-dashoffset:0;stroke-width:0.5;"/>
     </g>
     <g id="line2d_6">
      <g>
       <use style="stroke:#000000;stroke-width:0.8;" x="168.991438" xlink:href="#ma4bfaa0424" y="228.14"/>
      </g>
     </g>
     <g id="text_3">
      <!-- 0.4 -->
      <defs>
       <path d="M 37.796875 64.3125 
L 12.890625 25.390625 
L 37.796875 25.390625 
z
M 35.203125 72.90625 
L 47.609375 72.90625 
L 47.609375 25.390625 
L 58.015625 25.390625 
L 58.015625 17.1875 
L 47.609375 17.1875 
L 47.609375 0 
L 37.796875 0 
L 37.796875 17.1875 
L 4.890625 17.1875 
L 4.890625 26.703125 
z
" id="DejaVuSans-34"/>
      </defs>
      <g transform="translate(161.039876 242.738437)scale(0.1 -0.1)">
       <use xlink:href="#DejaVuSans-30"/>
       <use x="63.623047" xlink:href="#DejaVuSans-2e"/>
       <use x="95.410156" xlink:href="#DejaVuSans-34"/>
      </g>
     </g>
    </g>
    <g id="xtick_4">
     <g id="line2d_7">
      <path clip-path="url(#pb962acce20)" d="M 225.851027 228.14 
L 225.851027 10.7 
" style="fill:none;stroke:#b0b0b0;stroke-dasharray:0.5,0.825;stroke-dashoffset:0;stroke-width:0.5;"/>
     </g>
     <g id="line2d_8">
      <g>
       <use style="stroke:#000000;stroke-width:0.8;" x="225.851027" xlink:href="#ma4bfaa0424" y="228.14"/>
      </g>
     </g>
     <g id="text_4">
      <!-- 0.6 -->
      <defs>
       <path d="M 33.015625 40.375 
Q 26.375 40.375 22.484375 35.828125 
Q 18.609375 31.296875 18.609375 23.390625 
Q 18.609375 15.53125 22.484375 10.953125 
Q 26.375 6.390625 33.015625 6.390625 
Q 39.65625 6.390625 43.53125 10.953125 
Q 47.40625 15.53125 47.40625 23.390625 
Q 47.40625 31.296875 43.53125 35.828125 
Q 39.65625 40.375 33.015625 40.375 
z
M 52.59375 71.296875 
L 52.59375 62.3125 
Q 48.875 64.0625 45.09375 64.984375 
Q 41.3125 65.921875 37.59375 65.921875 
Q 27.828125 65.921875 22.671875 59.328125 
Q 17.53125 52.734375 16.796875 39.40625 
Q 19.671875 43.65625 24.015625 45.921875 
Q 28.375 48.1875 33.59375 48.1875 
Q 44.578125 48.1875 50.953125 41.515625 
Q 57.328125 34.859375 57.328125 23.390625 
Q 57.328125 12.15625 50.6875 5.359375 
Q 44.046875 -1.421875 33.015625 -1.421875 
Q 20.359375 -1.421875 13.671875 8.265625 
Q 6.984375 17.96875 6.984375 36.375 
Q 6.984375 53.65625 15.1875 63.9375 
Q 23.390625 74.21875 37.203125 74.21875 
Q 40.921875 74.21875 44.703125 73.484375 
Q 48.484375 72.75 52.59375 71.296875 
z
" id="DejaVuSans-36"/>
      </defs>
      <g transform="translate(217.899465 242.738437)scale(0.1 -0.1)">
       <use xlink:href="#DejaVuSans-30"/>
       <use x="63.623047" xlink:href="#DejaVuSans-2e"/>
       <use x="95.410156" xlink:href="#DejaVuSans-36"/>
      </g>
     </g>
    </g>
    <g id="xtick_5">
     <g id="line2d_9">
      <path clip-path="url(#pb962acce20)" d="M 282.710616 228.14 
L 282.710616 10.7 
" style="fill:none;stroke:#b0b0b0;stroke-dasharray:0.5,0.825;stroke-dashoffset:0;stroke-width:0.5;"/>
     </g>
     <g id="line2d_10">
      <g>
       <use style="stroke:#000000;stroke-width:0.8;" x="282.710616" xlink:href="#ma4bfaa0424" y="228.14"/>
      </g>
     </g>
     <g id="text_5">
      <!-- 0.8 -->
      <defs>
       <path d="M 31.78125 34.625 
Q 24.75 34.625 20.71875 30.859375 
Q 16.703125 27.09375 16.703125 20.515625 
Q 16.703125 13.921875 20.71875 10.15625 
Q 24.75 6.390625 31.78125 6.390625 
Q 38.8125 6.390625 42.859375 10.171875 
Q 46.921875 13.96875 46.921875 20.515625 
Q 46.921875 27.09375 42.890625 30.859375 
Q 38.875 34.625 31.78125 34.625 
z
M 21.921875 38.8125 
Q 15.578125 40.375 12.03125 44.71875 
Q 8.5 49.078125 8.5 55.328125 
Q 8.5 64.0625 14.71875 69.140625 
Q 20.953125 74.21875 31.78125 74.21875 
Q 42.671875 74.21875 48.875 69.140625 
Q 55.078125 64.0625 55.078125 55.328125 
Q 55.078125 49.078125 51.53125 44.71875 
Q 48 40.375 41.703125 38.8125 
Q 48.828125 37.15625 52.796875 32.3125 
Q 56.78125 27.484375 56.78125 20.515625 
Q 56.78125 9.90625 50.3125 4.234375 
Q 43.84375 -1.421875 31.78125 -1.421875 
Q 19.734375 -1.421875 13.25 4.234375 
Q 6.78125 9.90625 6.78125 20.515625 
Q 6.78125 27.484375 10.78125 32.3125 
Q 14.796875 37.15625 21.921875 38.8125 
z
M 18.3125 54.390625 
Q 18.3125 48.734375 21.84375 45.5625 
Q 25.390625 42.390625 31.78125 42.390625 
Q 38.140625 42.390625 41.71875 45.5625 
Q 45.3125 48.734375 45.3125 54.390625 
Q 45.3125 60.0625 41.71875 63.234375 
Q 38.140625 66.40625 31.78125 66.40625 
Q 25.390625 66.40625 21.84375 63.234375 
Q 18.3125 60.0625 18.3125 54.390625 
z
" id="DejaVuSans-38"/>
      </defs>
      <g transform="translate(274.759053 242.738437)scale(0.1 -0.1)">
       <use xlink:href="#DejaVuSans-30"/>
       <use x="63.623047" xlink:href="#DejaVuSans-2e"/>
       <use x="95.410156" xlink:href="#DejaVuSans-38"/>
      </g>
     </g>
    </g>
    <g id="xtick_6">
     <g id="line2d_11">
      <path clip-path="url(#pb962acce20)" d="M 339.570204 228.14 
L 339.570204 10.7 
" style="fill:none;stroke:#b0b0b0;stroke-dasharray:0.5,0.825;stroke-dashoffset:0;stroke-width:0.5;"/>
     </g>
     <g id="line2d_12">
      <g>
       <use style="stroke:#000000;stroke-width:0.8;" x="339.570204" xlink:href="#ma4bfaa0424" y="228.14"/>
      </g>
     </g>
     <g id="text_6">
      <!-- 1.0 -->
      <defs>
       <path d="M 12.40625 8.296875 
L 28.515625 8.296875 
L 28.515625 63.921875 
L 10.984375 60.40625 
L 10.984375 69.390625 
L 28.421875 72.90625 
L 38.28125 72.90625 
L 38.28125 8.296875 
L 54.390625 8.296875 
L 54.390625 0 
L 12.40625 0 
z
" id="DejaVuSans-31"/>
      </defs>
      <g transform="translate(331.618642 242.738437)scale(0.1 -0.1)">
       <use xlink:href="#DejaVuSans-31"/>
       <use x="63.623047" xlink:href="#DejaVuSans-2e"/>
       <use x="95.410156" xlink:href="#DejaVuSans-30"/>
      </g>
     </g>
    </g>
   </g>
   <g id="matplotlib.axis_2">
    <g id="ytick_1">
     <g id="line2d_13">
      <path clip-path="url(#pb962acce20)" d="M 28.942188 197.155387 
L 363.742188 197.155387 
" style="fill:none;stroke:#b0b0b0;stroke-dasharray:0.5,0.825;stroke-dashoffset:0;stroke-width:0.5;"/>
     </g>
     <g id="line2d_14">
      <defs>
       <path d="M 0 0 
L -3.5 0 
" id="m48620d158d" style="stroke:#000000;stroke-width:0.8;"/>
      </defs>
      <g>
       <use style="stroke:#000000;stroke-width:0.8;" x="28.942188" xlink:href="#m48620d158d" y="197.155387"/>
      </g>
     </g>
     <g id="text_7">
      <!-- −2 -->
      <defs>
       <path d="M 10.59375 35.5 
L 73.1875 35.5 
L 73.1875 27.203125 
L 10.59375 27.203125 
z
" id="DejaVuSans-2212"/>
      </defs>
      <g transform="translate(7.2 200.954606)scale(0.1 -0.1)">
       <use xlink:href="#DejaVuSans-2212"/>
       <use x="83.789062" xlink:href="#DejaVuSans-32"/>
      </g>
     </g>
    </g>
    <g id="ytick_2">
     <g id="line2d_15">
      <path clip-path="url(#pb962acce20)" d="M 28.942188 165.108202 
L 363.742188 165.108202 
" style="fill:none;stroke:#b0b0b0;stroke-dasharray:0.5,0.825;stroke-dashoffset:0;stroke-width:0.5;"/>
     </g>
     <g id="line2d_16">
      <g>
       <use style="stroke:#000000;stroke-width:0.8;" x="28.942188" xlink:href="#m48620d158d" y="165.108202"/>
      </g>
     </g>
     <g id="text_8">
      <!-- −1 -->
      <g transform="translate(7.2 168.907421)scale(0.1 -0.1)">
       <use xlink:href="#DejaVuSans-2212"/>
       <use x="83.789062" xlink:href="#DejaVuSans-31"/>
      </g>
     </g>
    </g>
    <g id="ytick_3">
     <g id="line2d_17">
      <path clip-path="url(#pb962acce20)" d="M 28.942188 133.061018 
L 363.742188 133.061018 
" style="fill:none;stroke:#b0b0b0;stroke-dasharray:0.5,0.825;stroke-dashoffset:0;stroke-width:0.5;"/>
     </g>
     <g id="line2d_18">
      <g>
       <use style="stroke:#000000;stroke-width:0.8;" x="28.942188" xlink:href="#m48620d158d" y="133.061018"/>
      </g>
     </g>
     <g id="text_9">
      <!-- 0 -->
      <g transform="translate(15.579688 136.860236)scale(0.1 -0.1)">
       <use xlink:href="#DejaVuSans-30"/>
      </g>
     </g>
    </g>
    <g id="ytick_4">
     <g id="line2d_19">
      <path clip-path="url(#pb962acce20)" d="M 28.942188 101.013833 
L 363.742188 101.013833 
" style="fill:none;stroke:#b0b0b0;stroke-dasharray:0.5,0.825;stroke-dashoffset:0;stroke-width:0.5;"/>
     </g>
     <g id="line2d_20">
      <g>
       <use style="stroke:#000000;stroke-width:0.8;" x="28.942188" xlink:href="#m48620d158d" y="101.013833"/>
      </g>
     </g>
     <g id="text_10">
      <!-- 1 -->
      <g transform="translate(15.579688 104.813052)scale(0.1 -0.1)">
       <use xlink:href="#DejaVuSans-31"/>
      </g>
     </g>
    </g>
    <g id="ytick_5">
     <g id="line2d_21">
      <path clip-path="url(#pb962acce20)" d="M 28.942188 68.966648 
L 363.742188 68.966648 
" style="fill:none;stroke:#b0b0b0;stroke-dasharray:0.5,0.825;stroke-dashoffset:0;stroke-width:0.5;"/>
     </g>
     <g id="line2d_22">
      <g>
       <use style="stroke:#000000;stroke-width:0.8;" x="28.942188" xlink:href="#m48620d158d" y="68.966648"/>
      </g>
     </g>
     <g id="text_11">
      <!-- 2 -->
      <g transform="translate(15.579688 72.765867)scale(0.1 -0.1)">
       <use xlink:href="#DejaVuSans-32"/>
      </g>
     </g>
    </g>
    <g id="ytick_6">
     <g id="line2d_23">
      <path clip-path="url(#pb962acce20)" d="M 28.942188 36.919464 
L 363.742188 36.919464 
" style="fill:none;stroke:#b0b0b0;stroke-dasharray:0.5,0.825;stroke-dashoffset:0;stroke-width:0.5;"/>
     </g>
     <g id="line2d_24">
      <g>
       <use style="stroke:#000000;stroke-width:0.8;" x="28.942188" xlink:href="#m48620d158d" y="36.919464"/>
      </g>
     </g>
     <g id="text_12">
      <!-- 3 -->
      <defs>
       <path d="M 40.578125 39.3125 
Q 47.65625 37.796875 51.625 33 
Q 55.609375 28.21875 55.609375 21.1875 
Q 55.609375 10.40625 48.1875 4.484375 
Q 40.765625 -1.421875 27.09375 -1.421875 
Q 22.515625 -1.421875 17.65625 -0.515625 
Q 12.796875 0.390625 7.625 2.203125 
L 7.625 11.71875 
Q 11.71875 9.328125 16.59375 8.109375 
Q 21.484375 6.890625 26.8125 6.890625 
Q 36.078125 6.890625 40.9375 10.546875 
Q 45.796875 14.203125 45.796875 21.1875 
Q 45.796875 27.640625 41.28125 31.265625 
Q 36.765625 34.90625 28.71875 34.90625 
L 20.21875 34.90625 
L 20.21875 43.015625 
L 29.109375 43.015625 
Q 36.375 43.015625 40.234375 45.921875 
Q 44.09375 48.828125 44.09375 54.296875 
Q 44.09375 59.90625 40.109375 62.90625 
Q 36.140625 65.921875 28.71875 65.921875 
Q 24.65625 65.921875 20.015625 65.03125 
Q 15.375 64.15625 9.8125 62.3125 
L 9.8125 71.09375 
Q 15.4375 72.65625 20.34375 73.4375 
Q 25.25 74.21875 29.59375 74.21875 
Q 40.828125 74.21875 47.359375 69.109375 
Q 53.90625 64.015625 53.90625 55.328125 
Q 53.90625 49.265625 50.4375 45.09375 
Q 46.96875 40.921875 40.578125 39.3125 
z
" id="DejaVuSans-33"/>
      </defs>
      <g transform="translate(15.579688 40.718682)scale(0.1 -0.1)">
       <use xlink:href="#DejaVuSans-33"/>
      </g>
     </g>
    </g>
   </g>
   <g id="LineCollection_1">
    <path clip-path="url(#pb962acce20)" d="M 161.753247 208.207888 
L 161.753247 175.5219 
" style="fill:none;stroke:#a52a2a;stroke-width:1.5;"/>
    <path clip-path="url(#pb962acce20)" d="M 325.558383 141.907453 
L 325.558383 130.817842 
" style="fill:none;stroke:#a52a2a;stroke-width:1.5;"/>
    <path clip-path="url(#pb962acce20)" d="M 263.376633 122.724811 
L 263.376633 93.262594 
" style="fill:none;stroke:#a52a2a;stroke-width:1.5;"/>
    <path clip-path="url(#pb962acce20)" d="M 225.469637 137.33394 
L 225.469637 111.415997 
" style="fill:none;stroke:#a52a2a;stroke-width:1.5;"/>
    <path clip-path="url(#pb962acce20)" d="M 99.62804 166.724548 
L 99.62804 143.291441 
" style="fill:none;stroke:#a52a2a;stroke-width:1.5;"/>
    <path clip-path="url(#pb962acce20)" d="M 99.621182 208.92281 
L 99.621182 185.47605 
" style="fill:none;stroke:#a52a2a;stroke-width:1.5;"/>
    <path clip-path="url(#pb962acce20)" d="M 71.785312 74.813898 
L 71.785312 70.623147 
" style="fill:none;stroke:#a52a2a;stroke-width:1.5;"/>
    <path clip-path="url(#pb962acce20)" d="M 301.524358 150.852658 
L 301.524358 118.949359 
" style="fill:none;stroke:#a52a2a;stroke-width:1.5;"/>
    <path clip-path="url(#pb962acce20)" d="M 226.168023 159.758999 
L 226.168023 132.673716 
" style="fill:none;stroke:#a52a2a;stroke-width:1.5;"/>
    <path clip-path="url(#pb962acce20)" d="M 256.575839 169.386 
L 256.575839 152.903691 
" style="fill:none;stroke:#a52a2a;stroke-width:1.5;"/>
    <path clip-path="url(#pb962acce20)" d="M 61.12439 82.954867 
L 61.12439 54.460579 
" style="fill:none;stroke:#a52a2a;stroke-width:1.5;"/>
    <path clip-path="url(#pb962acce20)" d="M 331.015637 148.859416 
L 331.015637 124.906844 
" style="fill:none;stroke:#a52a2a;stroke-width:1.5;"/>
    <path clip-path="url(#pb962acce20)" d="M 291.933992 79.545402 
L 291.933992 63.50611 
" style="fill:none;stroke:#a52a2a;stroke-width:1.5;"/>
    <path clip-path="url(#pb962acce20)" d="M 115.639833 117.257518 
L 115.639833 97.884702 
" style="fill:none;stroke:#a52a2a;stroke-width:1.5;"/>
    <path clip-path="url(#pb962acce20)" d="M 106.964725 162.388792 
L 106.964725 157.192468 
" style="fill:none;stroke:#a52a2a;stroke-width:1.5;"/>
    <path clip-path="url(#pb962acce20)" d="M 107.413786 144.934222 
L 107.413786 141.000455 
" style="fill:none;stroke:#a52a2a;stroke-width:1.5;"/>
    <path clip-path="url(#pb962acce20)" d="M 141.767705 47.508284 
L 141.767705 40.26391 
" style="fill:none;stroke:#a52a2a;stroke-width:1.5;"/>
    <path clip-path="url(#pb962acce20)" d="M 204.459435 87.225065 
L 204.459435 60.54258 
" style="fill:none;stroke:#a52a2a;stroke-width:1.5;"/>
    <path clip-path="url(#pb962acce20)" d="M 178.073341 145.614382 
L 178.073341 140.513791 
" style="fill:none;stroke:#a52a2a;stroke-width:1.5;"/>
    <path clip-path="url(#pb962acce20)" d="M 138.068107 60.911108 
L 138.068107 43.942361 
" style="fill:none;stroke:#a52a2a;stroke-width:1.5;"/>
    <path clip-path="url(#pb962acce20)" d="M 229.220781 140.975156 
L 229.220781 110.020612 
" style="fill:none;stroke:#a52a2a;stroke-width:1.5;"/>
    <path clip-path="url(#pb962acce20)" d="M 94.930079 165.437212 
L 94.930079 134.851894 
" style="fill:none;stroke:#a52a2a;stroke-width:1.5;"/>
    <path clip-path="url(#pb962acce20)" d="M 138.328384 75.160707 
L 138.328384 58.830724 
" style="fill:none;stroke:#a52a2a;stroke-width:1.5;"/>
    <path clip-path="url(#pb962acce20)" d="M 159.42818 192.494292 
L 159.42818 160.558436 
" style="fill:none;stroke:#a52a2a;stroke-width:1.5;"/>
    <path clip-path="url(#pb962acce20)" d="M 184.93202 162.087446 
L 184.93202 147.026721 
" style="fill:none;stroke:#a52a2a;stroke-width:1.5;"/>
    <path clip-path="url(#pb962acce20)" d="M 278.496172 68.406382 
L 278.496172 47.447195 
" style="fill:none;stroke:#a52a2a;stroke-width:1.5;"/>
    <path clip-path="url(#pb962acce20)" d="M 112.039107 131.366865 
L 112.039107 121.073014 
" style="fill:none;stroke:#a52a2a;stroke-width:1.5;"/>
    <path clip-path="url(#pb962acce20)" d="M 201.468054 50.923911 
L 201.468054 20.264789 
" style="fill:none;stroke:#a52a2a;stroke-width:1.5;"/>
    <path clip-path="url(#pb962acce20)" d="M 223.694505 157.75249 
L 223.694505 135.223949 
" style="fill:none;stroke:#a52a2a;stroke-width:1.5;"/>
    <path clip-path="url(#pb962acce20)" d="M 68.478018 63.484802 
L 68.478018 50.264691 
" style="fill:none;stroke:#a52a2a;stroke-width:1.5;"/>
    <path clip-path="url(#pb962acce20)" d="M 227.996013 158.936807 
L 227.996013 129.28334 
" style="fill:none;stroke:#a52a2a;stroke-width:1.5;"/>
    <path clip-path="url(#pb962acce20)" d="M 103.751919 201.814106 
L 103.751919 187.911277 
" style="fill:none;stroke:#a52a2a;stroke-width:1.5;"/>
    <path clip-path="url(#pb962acce20)" d="M 73.766295 100.425262 
L 73.766295 97.730588 
" style="fill:none;stroke:#a52a2a;stroke-width:1.5;"/>
    <path clip-path="url(#pb962acce20)" d="M 325.038468 162.974873 
L 325.038468 153.28827 
" style="fill:none;stroke:#a52a2a;stroke-width:1.5;"/>
    <path clip-path="url(#pb962acce20)" d="M 329.799462 104.396015 
L 329.799462 82.937783 
" style="fill:none;stroke:#a52a2a;stroke-width:1.5;"/>
    <path clip-path="url(#pb962acce20)" d="M 285.097965 80.593154 
L 285.097965 76.653649 
" style="fill:none;stroke:#a52a2a;stroke-width:1.5;"/>
    <path clip-path="url(#pb962acce20)" d="M 141.873329 65.950274 
L 141.873329 58.999002 
" style="fill:none;stroke:#a52a2a;stroke-width:1.5;"/>
    <path clip-path="url(#pb962acce20)" d="M 83.040242 123.043759 
L 83.040242 97.621903 
" style="fill:none;stroke:#a52a2a;stroke-width:1.5;"/>
    <path clip-path="url(#pb962acce20)" d="M 249.798303 176.298618 
L 249.798303 173.0293 
" style="fill:none;stroke:#a52a2a;stroke-width:1.5;"/>
    <path clip-path="url(#pb962acce20)" d="M 180.40671 130.388528 
L 180.40671 127.612759 
" style="fill:none;stroke:#a52a2a;stroke-width:1.5;"/>
    <path clip-path="url(#pb962acce20)" d="M 89.96748 145.52241 
L 89.96748 112.923026 
" style="fill:none;stroke:#a52a2a;stroke-width:1.5;"/>
    <path clip-path="url(#pb962acce20)" d="M 196.050038 109.664589 
L 196.050038 77.211618 
" style="fill:none;stroke:#a52a2a;stroke-width:1.5;"/>
    <path clip-path="url(#pb962acce20)" d="M 65.048847 64.041527 
L 65.048847 42.595884 
" style="fill:none;stroke:#a52a2a;stroke-width:1.5;"/>
    <path clip-path="url(#pb962acce20)" d="M 313.790181 204.447305 
L 313.790181 182.95996 
" style="fill:none;stroke:#a52a2a;stroke-width:1.5;"/>
    <path clip-path="url(#pb962acce20)" d="M 128.842878 92.640935 
L 128.842878 60.729883 
" style="fill:none;stroke:#a52a2a;stroke-width:1.5;"/>
    <path clip-path="url(#pb962acce20)" d="M 243.625984 219.751641 
L 243.625984 200.288359 
" style="fill:none;stroke:#a52a2a;stroke-width:1.5;"/>
    <path clip-path="url(#pb962acce20)" d="M 143.891079 64.441909 
L 143.891079 63.165581 
" style="fill:none;stroke:#a52a2a;stroke-width:1.5;"/>
    <path clip-path="url(#pb962acce20)" d="M 203.12653 69.634652 
L 203.12653 40.936981 
" style="fill:none;stroke:#a52a2a;stroke-width:1.5;"/>
    <path clip-path="url(#pb962acce20)" d="M 210.700869 92.98227 
L 210.700869 79.954932 
" style="fill:none;stroke:#a52a2a;stroke-width:1.5;"/>
    <path clip-path="url(#pb962acce20)" d="M 107.826003 180.842653 
L 107.826003 178.072469 
" style="fill:none;stroke:#a52a2a;stroke-width:1.5;"/>
    <path clip-path="url(#pb962acce20)" d="M 330.923177 101.411529 
L 330.923177 77.639481 
" style="fill:none;stroke:#a52a2a;stroke-width:1.5;"/>
    <path clip-path="url(#pb962acce20)" d="M 275.640929 83.64398 
L 275.640929 57.139345 
" style="fill:none;stroke:#a52a2a;stroke-width:1.5;"/>
    <path clip-path="url(#pb962acce20)" d="M 322.369878 183.911239 
L 322.369878 181.660957 
" style="fill:none;stroke:#a52a2a;stroke-width:1.5;"/>
    <path clip-path="url(#pb962acce20)" d="M 309.669836 193.580107 
L 309.669836 164.789275 
" style="fill:none;stroke:#a52a2a;stroke-width:1.5;"/>
    <path clip-path="url(#pb962acce20)" d="M 225.253995 105.351828 
L 225.253995 79.814005 
" style="fill:none;stroke:#a52a2a;stroke-width:1.5;"/>
    <path clip-path="url(#pb962acce20)" d="M 317.35921 199.238897 
L 317.35921 186.333458 
" style="fill:none;stroke:#a52a2a;stroke-width:1.5;"/>
    <path clip-path="url(#pb962acce20)" d="M 80.430497 107.6193 
L 80.430497 87.500697 
" style="fill:none;stroke:#a52a2a;stroke-width:1.5;"/>
    <path clip-path="url(#pb962acce20)" d="M 110.989786 138.685961 
L 110.989786 131.264276 
" style="fill:none;stroke:#a52a2a;stroke-width:1.5;"/>
    <path clip-path="url(#pb962acce20)" d="M 68.130286 80.733281 
L 68.130286 66.613175 
" style="fill:none;stroke:#a52a2a;stroke-width:1.5;"/>
    <path clip-path="url(#pb962acce20)" d="M 147.763005 79.185307 
L 147.763005 68.388546 
" style="fill:none;stroke:#a52a2a;stroke-width:1.5;"/>
    <path clip-path="url(#pb962acce20)" d="M 165.772415 198.86279 
L 165.772415 168.049479 
" style="fill:none;stroke:#a52a2a;stroke-width:1.5;"/>
    <path clip-path="url(#pb962acce20)" d="M 132.416233 60.529466 
L 132.416233 32.344852 
" style="fill:none;stroke:#a52a2a;stroke-width:1.5;"/>
    <path clip-path="url(#pb962acce20)" d="M 290.880631 91.545096 
L 290.880631 78.185914 
" style="fill:none;stroke:#a52a2a;stroke-width:1.5;"/>
    <path clip-path="url(#pb962acce20)" d="M 156.696498 150.008698 
L 156.696498 120.631748 
" style="fill:none;stroke:#a52a2a;stroke-width:1.5;"/>
    <path clip-path="url(#pb962acce20)" d="M 135.141364 90.945535 
L 135.141364 67.464844 
" style="fill:none;stroke:#a52a2a;stroke-width:1.5;"/>
    <path clip-path="url(#pb962acce20)" d="M 209.559641 42.05648 
L 209.559641 26.115271 
" style="fill:none;stroke:#a52a2a;stroke-width:1.5;"/>
    <path clip-path="url(#pb962acce20)" d="M 95.336728 203.00048 
L 95.336728 172.844863 
" style="fill:none;stroke:#a52a2a;stroke-width:1.5;"/>
    <path clip-path="url(#pb962acce20)" d="M 283.335213 86.137691 
L 283.335213 77.290776 
" style="fill:none;stroke:#a52a2a;stroke-width:1.5;"/>
    <path clip-path="url(#pb962acce20)" d="M 76.466856 121.829445 
L 76.466856 111.630214 
" style="fill:none;stroke:#a52a2a;stroke-width:1.5;"/>
    <path clip-path="url(#pb962acce20)" d="M 335.842187 98.478524 
L 335.842187 67.515095 
" style="fill:none;stroke:#a52a2a;stroke-width:1.5;"/>
    <path clip-path="url(#pb962acce20)" d="M 274.819861 57.101189 
L 274.819861 29.29232 
" style="fill:none;stroke:#a52a2a;stroke-width:1.5;"/>
    <path clip-path="url(#pb962acce20)" d="M 111.766721 183.725192 
L 111.766721 174.169916 
" style="fill:none;stroke:#a52a2a;stroke-width:1.5;"/>
    <path clip-path="url(#pb962acce20)" d="M 56.842188 81.296716 
L 56.842188 48.916732 
" style="fill:none;stroke:#a52a2a;stroke-width:1.5;"/>
    <path clip-path="url(#pb962acce20)" d="M 287.106268 94.253522 
L 287.106268 91.229546 
" style="fill:none;stroke:#a52a2a;stroke-width:1.5;"/>
    <path clip-path="url(#pb962acce20)" d="M 256.23035 134.418282 
L 256.23035 118.794075 
" style="fill:none;stroke:#a52a2a;stroke-width:1.5;"/>
    <path clip-path="url(#pb962acce20)" d="M 262.5275 135.733251 
L 262.5275 107.403087 
" style="fill:none;stroke:#a52a2a;stroke-width:1.5;"/>
    <path clip-path="url(#pb962acce20)" d="M 274.542834 56.819 
L 274.542834 28.602043 
" style="fill:none;stroke:#a52a2a;stroke-width:1.5;"/>
    <path clip-path="url(#pb962acce20)" d="M 76.323003 98.740869 
L 76.323003 88.931394 
" style="fill:none;stroke:#a52a2a;stroke-width:1.5;"/>
    <path clip-path="url(#pb962acce20)" d="M 157.18333 127.194195 
L 157.18333 97.233481 
" style="fill:none;stroke:#a52a2a;stroke-width:1.5;"/>
    <path clip-path="url(#pb962acce20)" d="M 88.213596 190.018071 
L 88.213596 158.170106 
" style="fill:none;stroke:#a52a2a;stroke-width:1.5;"/>
    <path clip-path="url(#pb962acce20)" d="M 300.65079 172.818278 
L 300.65079 141.551973 
" style="fill:none;stroke:#a52a2a;stroke-width:1.5;"/>
    <path clip-path="url(#pb962acce20)" d="M 232.474637 201.48318 
L 232.474637 168.824362 
" style="fill:none;stroke:#a52a2a;stroke-width:1.5;"/>
    <path clip-path="url(#pb962acce20)" d="M 149.345889 76.940704 
L 149.345889 62.003803 
" style="fill:none;stroke:#a52a2a;stroke-width:1.5;"/>
    <path clip-path="url(#pb962acce20)" d="M 73.341769 49.49858 
L 73.341769 48.005306 
" style="fill:none;stroke:#a52a2a;stroke-width:1.5;"/>
    <path clip-path="url(#pb962acce20)" d="M 143.683895 86.466625 
L 143.683895 84.603588 
" style="fill:none;stroke:#a52a2a;stroke-width:1.5;"/>
    <path clip-path="url(#pb962acce20)" d="M 147.721211 83.290738 
L 147.721211 72.606348 
" style="fill:none;stroke:#a52a2a;stroke-width:1.5;"/>
    <path clip-path="url(#pb962acce20)" d="M 262.697797 93.718541 
L 262.697797 65.148619 
" style="fill:none;stroke:#a52a2a;stroke-width:1.5;"/>
    <path clip-path="url(#pb962acce20)" d="M 236.528539 186.202481 
L 236.528539 155.09719 
" style="fill:none;stroke:#a52a2a;stroke-width:1.5;"/>
    <path clip-path="url(#pb962acce20)" d="M 307.505019 187.629093 
L 307.505019 156.438764 
" style="fill:none;stroke:#a52a2a;stroke-width:1.5;"/>
    <path clip-path="url(#pb962acce20)" d="M 189.521993 140.602124 
L 189.521993 115.415391 
" style="fill:none;stroke:#a52a2a;stroke-width:1.5;"/>
    <path clip-path="url(#pb962acce20)" d="M 89.272659 198.079053 
L 89.272659 165.686239 
" style="fill:none;stroke:#a52a2a;stroke-width:1.5;"/>
    <path clip-path="url(#pb962acce20)" d="M 258.046287 110.397925 
L 258.046287 90.438136 
" style="fill:none;stroke:#a52a2a;stroke-width:1.5;"/>
    <path clip-path="url(#pb962acce20)" d="M 271.561886 51.33022 
L 271.561886 19.812192 
" style="fill:none;stroke:#a52a2a;stroke-width:1.5;"/>
    <path clip-path="url(#pb962acce20)" d="M 214.842214 62.626426 
L 214.842214 61.000752 
" style="fill:none;stroke:#a52a2a;stroke-width:1.5;"/>
    <path clip-path="url(#pb962acce20)" d="M 274.456645 79.55913 
L 274.456645 51.218569 
" style="fill:none;stroke:#a52a2a;stroke-width:1.5;"/>
    <path clip-path="url(#pb962acce20)" d="M 195.657334 105.118769 
L 195.657334 72.819471 
" style="fill:none;stroke:#a52a2a;stroke-width:1.5;"/>
    <path clip-path="url(#pb962acce20)" d="M 203.884129 53.72259 
L 203.884129 26.124259 
" style="fill:none;stroke:#a52a2a;stroke-width:1.5;"/>
    <path clip-path="url(#pb962acce20)" d="M 176.821293 151.009322 
L 176.821293 142.430571 
" style="fill:none;stroke:#a52a2a;stroke-width:1.5;"/>
    <path clip-path="url(#pb962acce20)" d="M 62.498866 42.003901 
L 62.498866 15.636099 
" style="fill:none;stroke:#a52a2a;stroke-width:1.5;"/>
    <path clip-path="url(#pb962acce20)" d="M 85.945572 136.287838 
L 85.945572 106.516905 
" style="fill:none;stroke:#a52a2a;stroke-width:1.5;"/>
   </g>
   <g id="line2d_25">
    <path clip-path="url(#pb962acce20)" d="M 28.942188 178.540752 
L 29.613129 178.526065 
L 30.284071 178.289777 
L 30.955013 177.832717 
L 31.625955 177.156491 
L 32.296897 176.263475 
L 33.638781 173.840375 
L 34.980664 170.597444 
L 36.322548 166.580219 
L 37.664432 161.845112 
L 39.006316 156.458614 
L 41.019141 147.325209 
L 43.702909 133.637946 
L 47.72856 111.455264 
L 51.08327 93.233997 
L 53.096095 83.13546 
L 55.108921 74.056637 
L 56.450805 68.713646 
L 57.792689 64.027041 
L 59.134572 60.062632 
L 60.476456 56.876089 
L 61.81834 54.512157 
L 62.489282 53.649509 
L 63.160224 53.004032 
L 63.831165 52.577994 
L 64.502107 52.372892 
L 65.173049 52.389446 
L 65.843991 52.627598 
L 66.514933 53.086512 
L 67.185875 53.764575 
L 67.856817 54.659404 
L 69.198701 57.086035 
L 70.540584 60.33233 
L 71.882468 64.352703 
L 73.224352 69.090699 
L 74.566236 74.479787 
L 76.579061 83.616433 
L 79.262829 97.306672 
L 83.28848 119.490623 
L 86.64319 137.709933 
L 88.656015 147.806041 
L 90.668841 156.881581 
L 92.010725 162.221959 
L 93.352608 166.905654 
L 94.694492 170.866897 
L 96.036376 174.050063 
L 97.37826 176.410452 
L 98.049202 177.271283 
L 98.720143 177.91492 
L 99.391085 178.339103 
L 100.062027 178.542341 
L 100.732969 178.523919 
L 101.403911 178.283903 
L 102.074853 177.823136 
L 102.745795 177.143237 
L 103.416737 176.246594 
L 104.75862 173.816432 
L 106.100504 170.566774 
L 107.442388 166.543254 
L 108.784272 161.80237 
L 110.126155 156.410695 
L 112.138981 147.270808 
L 114.822749 133.577598 
L 118.8484 111.392382 
L 122.203109 93.175034 
L 124.215935 83.081358 
L 126.228761 74.009103 
L 127.570644 68.671339 
L 128.912528 63.990555 
L 130.254412 60.032479 
L 131.596296 56.852692 
L 132.938179 54.495845 
L 133.609121 53.636832 
L 134.280063 52.995035 
L 134.951005 52.572707 
L 135.621947 52.371334 
L 136.292889 52.391623 
L 136.963831 52.633503 
L 137.634773 53.096123 
L 138.305715 53.777859 
L 138.976656 54.676314 
L 140.31854 57.110007 
L 141.660424 60.363027 
L 143.002308 64.389694 
L 144.344192 69.133465 
L 145.686075 74.527726 
L 147.698901 83.670851 
L 150.382668 97.367029 
L 154.40832 119.553504 
L 157.763029 137.768885 
L 159.775855 147.860127 
L 161.78868 156.929094 
L 163.130564 162.264243 
L 164.472448 166.942115 
L 165.814332 170.897023 
L 167.156216 174.073431 
L 168.498099 176.426734 
L 169.169041 177.283929 
L 169.839983 177.923887 
L 170.510925 178.344358 
L 171.181867 178.543866 
L 171.852809 178.52171 
L 172.523751 178.277967 
L 173.194693 177.813493 
L 173.865634 177.129922 
L 174.536576 176.229653 
L 175.87846 173.792431 
L 177.220344 170.53605 
L 178.562228 166.506237 
L 179.904111 161.759581 
L 181.245995 156.362735 
L 183.258821 147.216374 
L 185.942588 133.517231 
L 189.96824 111.329504 
L 193.322949 93.116093 
L 195.335775 83.027288 
L 197.3486 73.96161 
L 198.690484 68.629078 
L 200.032368 63.954119 
L 201.374252 60.00238 
L 202.716135 56.829353 
L 204.058019 54.479594 
L 204.728961 53.624217 
L 205.399903 52.986099 
L 206.070845 52.567483 
L 206.741787 52.36984 
L 207.412729 52.393864 
L 208.08367 52.639471 
L 208.754612 53.105797 
L 209.425554 53.791205 
L 210.096496 54.693286 
L 211.43838 57.134038 
L 212.780264 60.393779 
L 214.122147 64.426736 
L 215.464031 69.176276 
L 216.805915 74.575706 
L 218.818741 83.725301 
L 221.502508 97.427405 
L 225.528159 119.61638 
L 228.882869 137.827816 
L 230.895695 147.914181 
L 232.90852 156.976567 
L 234.250404 162.306481 
L 235.592288 166.978525 
L 236.934171 170.927094 
L 238.276055 174.09674 
L 239.617939 176.442955 
L 240.288881 177.296514 
L 240.959823 177.932791 
L 241.630765 178.349551 
L 242.301707 178.545329 
L 242.972648 178.519438 
L 243.64359 178.271968 
L 244.314532 177.803788 
L 244.985474 177.116545 
L 245.656416 176.212652 
L 246.9983 173.768371 
L 248.340183 170.50527 
L 249.682067 166.46917 
L 251.023951 161.716747 
L 252.365835 156.314734 
L 254.37866 147.161909 
L 257.062428 133.456847 
L 261.759021 107.543308 
L 265.113731 89.601075 
L 267.126556 79.824812 
L 269.139382 71.172711 
L 270.481266 66.165703 
L 271.823149 61.850859 
L 273.165033 58.28877 
L 274.506917 55.529456 
L 275.177859 54.463404 
L 275.848801 53.611663 
L 276.519743 52.977226 
L 277.190684 52.562322 
L 277.861626 52.368408 
L 278.532568 52.396167 
L 279.20351 52.645501 
L 279.874452 53.115533 
L 280.545394 53.804612 
L 281.216336 54.710318 
L 282.55822 57.158126 
L 283.900103 60.424586 
L 285.241987 64.463829 
L 286.583871 69.219134 
L 287.925755 74.623727 
L 289.93858 83.779782 
L 292.622348 97.487798 
L 297.318941 123.402394 
L 300.67365 141.342107 
L 302.686476 151.115631 
L 304.699302 159.764174 
L 306.041185 164.768409 
L 307.383069 169.080203 
L 308.724953 172.639009 
L 310.066837 175.394853 
L 310.737779 176.459115 
L 311.408721 177.309037 
L 312.079662 177.941633 
L 312.750604 178.354681 
L 313.421546 178.54673 
L 314.092488 178.517103 
L 314.76343 178.265906 
L 315.434372 177.794021 
L 316.105314 177.103107 
L 316.776256 176.19559 
L 318.118139 173.744254 
L 319.460023 170.474436 
L 320.801907 166.432052 
L 322.143791 161.673866 
L 323.485674 156.266693 
L 325.4985 147.107412 
L 328.182268 133.396444 
L 332.878861 107.480798 
L 336.23357 89.543609 
L 338.246396 79.772825 
L 340.259222 71.127844 
L 341.601105 66.126384 
L 342.942989 61.81764 
L 344.284873 58.262119 
L 345.626757 55.509745 
L 346.297699 54.447274 
L 346.96864 53.599171 
L 347.639582 52.968415 
L 348.310524 52.557223 
L 348.981466 52.36704 
L 349.652408 52.398534 
L 350.32335 52.651594 
L 350.994292 53.125331 
L 351.665234 53.818081 
L 352.336175 54.72741 
L 353.678059 57.182273 
L 355.019943 60.455448 
L 356.361827 64.500972 
L 357.703711 69.262038 
L 359.045594 74.671788 
L 361.05842 83.834294 
L 363.742188 97.54821 
L 363.742188 97.54821 
" style="fill:none;stroke:#a52a2a;stroke-linecap:square;stroke-width:1.5;"/>
   </g>
   <g id="line2d_26">
    <defs>
     <path d="M 0 2 
C 0.530406 2 1.03916 1.789267 1.414214 1.414214 
C 1.789267 1.03916 2 0.530406 2 0 
C 2 -0.530406 1.789267 -1.03916 1.414214 -1.414214 
C 1.03916 -1.789267 0.530406 -2 0 -2 
C -0.530406 -2 -1.03916 -1.789267 -1.414214 -1.414214 
C -1.789267 -1.03916 -2 -0.530406 -2 0 
C -2 0.530406 -1.789267 1.03916 -1.414214 1.414214 
C -1.03916 1.789267 -0.530406 2 0 2 
z
" id="m1958ed8779" style="stroke:#a52a2a;stroke-width:0.6;"/>
    </defs>
    <g clip-path="url(#pb962acce20)">
     <use style="fill:#59c48c;stroke:#a52a2a;stroke-width:0.6;" x="161.753247" xlink:href="#m1958ed8779" y="191.864894"/>
     <use style="fill:#59c48c;stroke:#a52a2a;stroke-width:0.6;" x="325.558383" xlink:href="#m1958ed8779" y="136.362648"/>
     <use style="fill:#59c48c;stroke:#a52a2a;stroke-width:0.6;" x="263.376633" xlink:href="#m1958ed8779" y="107.993703"/>
     <use style="fill:#59c48c;stroke:#a52a2a;stroke-width:0.6;" x="225.469637" xlink:href="#m1958ed8779" y="124.374968"/>
     <use style="fill:#59c48c;stroke:#a52a2a;stroke-width:0.6;" x="99.62804" xlink:href="#m1958ed8779" y="155.007995"/>
     <use style="fill:#59c48c;stroke:#a52a2a;stroke-width:0.6;" x="99.621182" xlink:href="#m1958ed8779" y="197.19943"/>
     <use style="fill:#59c48c;stroke:#a52a2a;stroke-width:0.6;" x="71.785312" xlink:href="#m1958ed8779" y="72.718522"/>
     <use style="fill:#59c48c;stroke:#a52a2a;stroke-width:0.6;" x="301.524358" xlink:href="#m1958ed8779" y="134.901008"/>
     <use style="fill:#59c48c;stroke:#a52a2a;stroke-width:0.6;" x="226.168023" xlink:href="#m1958ed8779" y="146.216358"/>
     <use style="fill:#59c48c;stroke:#a52a2a;stroke-width:0.6;" x="256.575839" xlink:href="#m1958ed8779" y="161.144845"/>
     <use style="fill:#59c48c;stroke:#a52a2a;stroke-width:0.6;" x="61.12439" xlink:href="#m1958ed8779" y="68.707723"/>
     <use style="fill:#59c48c;stroke:#a52a2a;stroke-width:0.6;" x="331.015637" xlink:href="#m1958ed8779" y="136.88313"/>
     <use style="fill:#59c48c;stroke:#a52a2a;stroke-width:0.6;" x="291.933992" xlink:href="#m1958ed8779" y="71.525756"/>
     <use style="fill:#59c48c;stroke:#a52a2a;stroke-width:0.6;" x="115.639833" xlink:href="#m1958ed8779" y="107.57111"/>
     <use style="fill:#59c48c;stroke:#a52a2a;stroke-width:0.6;" x="106.964725" xlink:href="#m1958ed8779" y="159.79063"/>
     <use style="fill:#59c48c;stroke:#a52a2a;stroke-width:0.6;" x="107.413786" xlink:href="#m1958ed8779" y="142.967338"/>
     <use style="fill:#59c48c;stroke:#a52a2a;stroke-width:0.6;" x="141.767705" xlink:href="#m1958ed8779" y="43.886097"/>
     <use style="fill:#59c48c;stroke:#a52a2a;stroke-width:0.6;" x="204.459435" xlink:href="#m1958ed8779" y="73.883822"/>
     <use style="fill:#59c48c;stroke:#a52a2a;stroke-width:0.6;" x="178.073341" xlink:href="#m1958ed8779" y="143.064086"/>
     <use style="fill:#59c48c;stroke:#a52a2a;stroke-width:0.6;" x="138.068107" xlink:href="#m1958ed8779" y="52.426734"/>
     <use style="fill:#59c48c;stroke:#a52a2a;stroke-width:0.6;" x="229.220781" xlink:href="#m1958ed8779" y="125.497884"/>
     <use style="fill:#59c48c;stroke:#a52a2a;stroke-width:0.6;" x="94.930079" xlink:href="#m1958ed8779" y="150.144553"/>
     <use style="fill:#59c48c;stroke:#a52a2a;stroke-width:0.6;" x="138.328384" xlink:href="#m1958ed8779" y="66.995715"/>
     <use style="fill:#59c48c;stroke:#a52a2a;stroke-width:0.6;" x="159.42818" xlink:href="#m1958ed8779" y="176.526364"/>
     <use style="fill:#59c48c;stroke:#a52a2a;stroke-width:0.6;" x="184.93202" xlink:href="#m1958ed8779" y="154.557084"/>
     <use style="fill:#59c48c;stroke:#a52a2a;stroke-width:0.6;" x="278.496172" xlink:href="#m1958ed8779" y="57.926788"/>
     <use style="fill:#59c48c;stroke:#a52a2a;stroke-width:0.6;" x="112.039107" xlink:href="#m1958ed8779" y="126.219939"/>
     <use style="fill:#59c48c;stroke:#a52a2a;stroke-width:0.6;" x="201.468054" xlink:href="#m1958ed8779" y="35.59435"/>
     <use style="fill:#59c48c;stroke:#a52a2a;stroke-width:0.6;" x="223.694505" xlink:href="#m1958ed8779" y="146.488219"/>
     <use style="fill:#59c48c;stroke:#a52a2a;stroke-width:0.6;" x="68.478018" xlink:href="#m1958ed8779" y="56.874746"/>
     <use style="fill:#59c48c;stroke:#a52a2a;stroke-width:0.6;" x="227.996013" xlink:href="#m1958ed8779" y="144.110073"/>
     <use style="fill:#59c48c;stroke:#a52a2a;stroke-width:0.6;" x="103.751919" xlink:href="#m1958ed8779" y="194.862691"/>
     <use style="fill:#59c48c;stroke:#a52a2a;stroke-width:0.6;" x="73.766295" xlink:href="#m1958ed8779" y="99.077925"/>
     <use style="fill:#59c48c;stroke:#a52a2a;stroke-width:0.6;" x="325.038468" xlink:href="#m1958ed8779" y="158.131571"/>
     <use style="fill:#59c48c;stroke:#a52a2a;stroke-width:0.6;" x="329.799462" xlink:href="#m1958ed8779" y="93.666899"/>
     <use style="fill:#59c48c;stroke:#a52a2a;stroke-width:0.6;" x="285.097965" xlink:href="#m1958ed8779" y="78.623401"/>
     <use style="fill:#59c48c;stroke:#a52a2a;stroke-width:0.6;" x="141.873329" xlink:href="#m1958ed8779" y="62.474638"/>
     <use style="fill:#59c48c;stroke:#a52a2a;stroke-width:0.6;" x="83.040242" xlink:href="#m1958ed8779" y="110.332831"/>
     <use style="fill:#59c48c;stroke:#a52a2a;stroke-width:0.6;" x="249.798303" xlink:href="#m1958ed8779" y="174.663959"/>
     <use style="fill:#59c48c;stroke:#a52a2a;stroke-width:0.6;" x="180.40671" xlink:href="#m1958ed8779" y="129.000644"/>
     <use style="fill:#59c48c;stroke:#a52a2a;stroke-width:0.6;" x="89.96748" xlink:href="#m1958ed8779" y="129.222718"/>
     <use style="fill:#59c48c;stroke:#a52a2a;stroke-width:0.6;" x="196.050038" xlink:href="#m1958ed8779" y="93.438103"/>
     <use style="fill:#59c48c;stroke:#a52a2a;stroke-width:0.6;" x="65.048847" xlink:href="#m1958ed8779" y="53.318705"/>
     <use style="fill:#59c48c;stroke:#a52a2a;stroke-width:0.6;" x="313.790181" xlink:href="#m1958ed8779" y="193.703632"/>
     <use style="fill:#59c48c;stroke:#a52a2a;stroke-width:0.6;" x="128.842878" xlink:href="#m1958ed8779" y="76.685409"/>
     <use style="fill:#59c48c;stroke:#a52a2a;stroke-width:0.6;" x="243.625984" xlink:href="#m1958ed8779" y="210.02"/>
     <use style="fill:#59c48c;stroke:#a52a2a;stroke-width:0.6;" x="143.891079" xlink:href="#m1958ed8779" y="63.803745"/>
     <use style="fill:#59c48c;stroke:#a52a2a;stroke-width:0.6;" x="203.12653" xlink:href="#m1958ed8779" y="55.285817"/>
     <use style="fill:#59c48c;stroke:#a52a2a;stroke-width:0.6;" x="210.700869" xlink:href="#m1958ed8779" y="86.468601"/>
     <use style="fill:#59c48c;stroke:#a52a2a;stroke-width:0.6;" x="107.826003" xlink:href="#m1958ed8779" y="179.457561"/>
     <use style="fill:#59c48c;stroke:#a52a2a;stroke-width:0.6;" x="330.923177" xlink:href="#m1958ed8779" y="89.525505"/>
     <use style="fill:#59c48c;stroke:#a52a2a;stroke-width:0.6;" x="275.640929" xlink:href="#m1958ed8779" y="70.391662"/>
     <use style="fill:#59c48c;stroke:#a52a2a;stroke-width:0.6;" x="322.369878" xlink:href="#m1958ed8779" y="182.786098"/>
     <use style="fill:#59c48c;stroke:#a52a2a;stroke-width:0.6;" x="309.669836" xlink:href="#m1958ed8779" y="179.184691"/>
     <use style="fill:#59c48c;stroke:#a52a2a;stroke-width:0.6;" x="225.253995" xlink:href="#m1958ed8779" y="92.582916"/>
     <use style="fill:#59c48c;stroke:#a52a2a;stroke-width:0.6;" x="317.35921" xlink:href="#m1958ed8779" y="192.786177"/>
     <use style="fill:#59c48c;stroke:#a52a2a;stroke-width:0.6;" x="80.430497" xlink:href="#m1958ed8779" y="97.559998"/>
     <use style="fill:#59c48c;stroke:#a52a2a;stroke-width:0.6;" x="110.989786" xlink:href="#m1958ed8779" y="134.975119"/>
     <use style="fill:#59c48c;stroke:#a52a2a;stroke-width:0.6;" x="68.130286" xlink:href="#m1958ed8779" y="73.673228"/>
     <use style="fill:#59c48c;stroke:#a52a2a;stroke-width:0.6;" x="147.763005" xlink:href="#m1958ed8779" y="73.786926"/>
     <use style="fill:#59c48c;stroke:#a52a2a;stroke-width:0.6;" x="165.772415" xlink:href="#m1958ed8779" y="183.456134"/>
     <use style="fill:#59c48c;stroke:#a52a2a;stroke-width:0.6;" x="132.416233" xlink:href="#m1958ed8779" y="46.437159"/>
     <use style="fill:#59c48c;stroke:#a52a2a;stroke-width:0.6;" x="290.880631" xlink:href="#m1958ed8779" y="84.865505"/>
     <use style="fill:#59c48c;stroke:#a52a2a;stroke-width:0.6;" x="156.696498" xlink:href="#m1958ed8779" y="135.320223"/>
     <use style="fill:#59c48c;stroke:#a52a2a;stroke-width:0.6;" x="135.141364" xlink:href="#m1958ed8779" y="79.20519"/>
     <use style="fill:#59c48c;stroke:#a52a2a;stroke-width:0.6;" x="209.559641" xlink:href="#m1958ed8779" y="34.085875"/>
     <use style="fill:#59c48c;stroke:#a52a2a;stroke-width:0.6;" x="95.336728" xlink:href="#m1958ed8779" y="187.922672"/>
     <use style="fill:#59c48c;stroke:#a52a2a;stroke-width:0.6;" x="283.335213" xlink:href="#m1958ed8779" y="81.714233"/>
     <use style="fill:#59c48c;stroke:#a52a2a;stroke-width:0.6;" x="76.466856" xlink:href="#m1958ed8779" y="116.729829"/>
     <use style="fill:#59c48c;stroke:#a52a2a;stroke-width:0.6;" x="335.842187" xlink:href="#m1958ed8779" y="82.996809"/>
     <use style="fill:#59c48c;stroke:#a52a2a;stroke-width:0.6;" x="274.819861" xlink:href="#m1958ed8779" y="43.196754"/>
     <use style="fill:#59c48c;stroke:#a52a2a;stroke-width:0.6;" x="111.766721" xlink:href="#m1958ed8779" y="178.947554"/>
     <use style="fill:#59c48c;stroke:#a52a2a;stroke-width:0.6;" x="56.842188" xlink:href="#m1958ed8779" y="65.106724"/>
     <use style="fill:#59c48c;stroke:#a52a2a;stroke-width:0.6;" x="287.106268" xlink:href="#m1958ed8779" y="92.741534"/>
     <use style="fill:#59c48c;stroke:#a52a2a;stroke-width:0.6;" x="256.23035" xlink:href="#m1958ed8779" y="126.606179"/>
     <use style="fill:#59c48c;stroke:#a52a2a;stroke-width:0.6;" x="262.5275" xlink:href="#m1958ed8779" y="121.568169"/>
     <use style="fill:#59c48c;stroke:#a52a2a;stroke-width:0.6;" x="274.542834" xlink:href="#m1958ed8779" y="42.710522"/>
     <use style="fill:#59c48c;stroke:#a52a2a;stroke-width:0.6;" x="76.323003" xlink:href="#m1958ed8779" y="93.836131"/>
     <use style="fill:#59c48c;stroke:#a52a2a;stroke-width:0.6;" x="157.18333" xlink:href="#m1958ed8779" y="112.213838"/>
     <use style="fill:#59c48c;stroke:#a52a2a;stroke-width:0.6;" x="88.213596" xlink:href="#m1958ed8779" y="174.094089"/>
     <use style="fill:#59c48c;stroke:#a52a2a;stroke-width:0.6;" x="300.65079" xlink:href="#m1958ed8779" y="157.185126"/>
     <use style="fill:#59c48c;stroke:#a52a2a;stroke-width:0.6;" x="232.474637" xlink:href="#m1958ed8779" y="185.153771"/>
     <use style="fill:#59c48c;stroke:#a52a2a;stroke-width:0.6;" x="149.345889" xlink:href="#m1958ed8779" y="69.472253"/>
     <use style="fill:#59c48c;stroke:#a52a2a;stroke-width:0.6;" x="73.341769" xlink:href="#m1958ed8779" y="48.751943"/>
     <use style="fill:#59c48c;stroke:#a52a2a;stroke-width:0.6;" x="143.683895" xlink:href="#m1958ed8779" y="85.535106"/>
     <use style="fill:#59c48c;stroke:#a52a2a;stroke-width:0.6;" x="147.721211" xlink:href="#m1958ed8779" y="77.948543"/>
     <use style="fill:#59c48c;stroke:#a52a2a;stroke-width:0.6;" x="262.697797" xlink:href="#m1958ed8779" y="79.43358"/>
     <use style="fill:#59c48c;stroke:#a52a2a;stroke-width:0.6;" x="236.528539" xlink:href="#m1958ed8779" y="170.649835"/>
     <use style="fill:#59c48c;stroke:#a52a2a;stroke-width:0.6;" x="307.505019" xlink:href="#m1958ed8779" y="172.033928"/>
     <use style="fill:#59c48c;stroke:#a52a2a;stroke-width:0.6;" x="189.521993" xlink:href="#m1958ed8779" y="128.008757"/>
     <use style="fill:#59c48c;stroke:#a52a2a;stroke-width:0.6;" x="89.272659" xlink:href="#m1958ed8779" y="181.882646"/>
     <use style="fill:#59c48c;stroke:#a52a2a;stroke-width:0.6;" x="258.046287" xlink:href="#m1958ed8779" y="100.41803"/>
     <use style="fill:#59c48c;stroke:#a52a2a;stroke-width:0.6;" x="271.561886" xlink:href="#m1958ed8779" y="35.571206"/>
     <use style="fill:#59c48c;stroke:#a52a2a;stroke-width:0.6;" x="214.842214" xlink:href="#m1958ed8779" y="61.813589"/>
     <use style="fill:#59c48c;stroke:#a52a2a;stroke-width:0.6;" x="274.456645" xlink:href="#m1958ed8779" y="65.388849"/>
     <use style="fill:#59c48c;stroke:#a52a2a;stroke-width:0.6;" x="195.657334" xlink:href="#m1958ed8779" y="88.96912"/>
     <use style="fill:#59c48c;stroke:#a52a2a;stroke-width:0.6;" x="203.884129" xlink:href="#m1958ed8779" y="39.923424"/>
     <use style="fill:#59c48c;stroke:#a52a2a;stroke-width:0.6;" x="176.821293" xlink:href="#m1958ed8779" y="146.719947"/>
     <use style="fill:#59c48c;stroke:#a52a2a;stroke-width:0.6;" x="62.498866" xlink:href="#m1958ed8779" y="28.82"/>
     <use style="fill:#59c48c;stroke:#a52a2a;stroke-width:0.6;" x="85.945572" xlink:href="#m1958ed8779" y="121.402372"/>
    </g>
   </g>
   <g id="line2d_27"/>
   <g id="patch_3">
    <path d="M 28.942188 228.14 
L 28.942188 10.7 
" style="fill:none;stroke:#000000;stroke-linecap:square;stroke-linejoin:miter;stroke-width:0.8;"/>
   </g>
   <g id="patch_4">
    <path d="M 363.742188 228.14 
L 363.742188 10.7 
" style="fill:none;stroke:#000000;stroke-linecap:square;stroke-linejoin:miter;stroke-width:0.8;"/>
   </g>
   <g id="patch_5">
    <path d="M 28.942188 228.14 
L 363.742188 228.14 
" style="fill:none;stroke:#000000;stroke-linecap:square;stroke-linejoin:miter;stroke-width:0.8;"/>
   </g>
   <g id="patch_6">
    <path d="M 28.942188 10.7 
L 363.742188 10.7 
" style="fill:none;stroke:#000000;stroke-linecap:square;stroke-linejoin:miter;stroke-width:0.8;"/>
   </g>
  </g>
 </g>
 <defs>
  <clipPath id="pb962acce20">
   <rect height="217.44" width="334.8" x="28.942188" y="10.7"/>
  </clipPath>
 </defs>
</svg>
