<?xml version="1.0" encoding="utf-8" standalone="no"?>
<!-- Created with matplotlib (http://matplotlib.org/) -->
<svg height="432pt" version="1.1" viewBox="0 0 864 432" width="864pt" xmlns="http://www.w3.org/2000/svg" xmlns:xlink="http://www.w3.org/1999/xlink">
 <defs>
  <style type="text/css">
*{stroke-linecap:butt;stroke-linejoin:round;stroke-miterlimit:100000;}
  </style>
 </defs>
 <g id="figure_1">
  <g id="patch_1">
   <path d="M 0 432 
L 864 432 
L 864 0 
L 0 0 
z
" style="fill:#ffffff;"/>
  </g>
  <g id="axes_1">
   <g id="patch_2">
    <path d="M 108 378 
L 777.6 378 
L 777.6 43.2 
L 108 43.2 
z
" style="fill:#ffffff;"/>
   </g>
   <g id="LineCollection_1">
    <path clip-path="url(#p5280a00248)" d="M 227.499868 277.13637 
L 227.499868 262.397532 
" style="fill:none;stroke:#8080ff;stroke-opacity:0.7;stroke-width:2.0;"/>
    <path clip-path="url(#p5280a00248)" d="M 227.511088 277.033193 
L 227.511088 262.294355 
" style="fill:none;stroke:#8080ff;stroke-opacity:0.7;stroke-width:2.0;"/>
    <path clip-path="url(#p5280a00248)" d="M 247.168406 186.273023 
L 247.168406 171.534184 
" style="fill:none;stroke:#8080ff;stroke-opacity:0.7;stroke-width:2.0;"/>
    <path clip-path="url(#p5280a00248)" d="M 259.045192 160.228525 
L 259.045192 145.489686 
" style="fill:none;stroke:#8080ff;stroke-opacity:0.7;stroke-width:2.0;"/>
    <path clip-path="url(#p5280a00248)" d="M 271.680011 140.027197 
L 271.680011 125.288358 
" style="fill:none;stroke:#8080ff;stroke-opacity:0.7;stroke-width:2.0;"/>
    <path clip-path="url(#p5280a00248)" d="M 277.334398 132.533773 
L 277.334398 117.794935 
" style="fill:none;stroke:#8080ff;stroke-opacity:0.7;stroke-width:2.0;"/>
    <path clip-path="url(#p5280a00248)" d="M 290.755331 117.338407 
L 290.755331 102.599568 
" style="fill:none;stroke:#8080ff;stroke-opacity:0.7;stroke-width:2.0;"/>
    <path clip-path="url(#p5280a00248)" d="M 302.193656 106.501057 
L 302.193656 91.762219 
" style="fill:none;stroke:#8080ff;stroke-opacity:0.7;stroke-width:2.0;"/>
    <path clip-path="url(#p5280a00248)" d="M 325.838238 88.198517 
L 325.838238 73.459679 
" style="fill:none;stroke:#8080ff;stroke-opacity:0.7;stroke-width:2.0;"/>
    <path clip-path="url(#p5280a00248)" d="M 330.667123 84.966917 
L 330.667123 70.228078 
" style="fill:none;stroke:#8080ff;stroke-opacity:0.7;stroke-width:2.0;"/>
   </g>
   <g id="LineCollection_2">
    <path clip-path="url(#p5280a00248)" d="M 207.317708 25320.6 
" style="fill:none;stroke:#008000;stroke-opacity:0.5;"/>
    <path clip-path="url(#p5280a00248)" d="M 182.997003 234.128875 
L 292.472143 234.128875 
" style="fill:none;stroke:#008000;stroke-opacity:0.5;"/>
    <path clip-path="url(#p5280a00248)" d="M 222.904853 184.700542 
L 288.833438 184.700542 
" style="fill:none;stroke:#008000;stroke-opacity:0.5;"/>
    <path clip-path="url(#p5280a00248)" d="M 247.707257 156.841213 
L 300.300179 156.841213 
" style="fill:none;stroke:#008000;stroke-opacity:0.5;"/>
    <path clip-path="url(#p5280a00248)" d="M 247.843042 138.217008 
L 336.43354 138.217008 
" style="fill:none;stroke:#008000;stroke-opacity:0.5;"/>
    <path clip-path="url(#p5280a00248)" d="M 271.49038 124.98345 
L 349.055348 124.98345 
" style="fill:none;stroke:#008000;stroke-opacity:0.5;"/>
    <path clip-path="url(#p5280a00248)" d="M 300.493113 115.452823 
L 356.321761 115.452823 
" style="fill:none;stroke:#008000;stroke-opacity:0.5;"/>
    <path clip-path="url(#p5280a00248)" d="M 317.249937 108.754221 
L 375.834082 108.754221 
" style="fill:none;stroke:#008000;stroke-opacity:0.5;"/>
    <path clip-path="url(#p5280a00248)" d="M 361.335755 104.40324 
L 368.01741 104.40324 
" style="fill:none;stroke:#008000;stroke-opacity:0.5;"/>
    <path clip-path="url(#p5280a00248)" d="M 364.321394 102.131219 
L 401.300916 102.131219 
" style="fill:none;stroke:#008000;stroke-opacity:0.5;"/>
    <path clip-path="url(#p5280a00248)" d="M 348.220741 101.81049 
L 453.670714 101.81049 
" style="fill:none;stroke:#008000;stroke-opacity:0.5;"/>
    <path clip-path="url(#p5280a00248)" d="M 414.485486 103.42368 
L 423.675114 103.42368 
" style="fill:none;stroke:#008000;stroke-opacity:0.5;"/>
    <path clip-path="url(#p5280a00248)" d="M 429.836771 107.059781 
L 444.592975 107.059781 
" style="fill:none;stroke:#008000;stroke-opacity:0.5;"/>
    <path clip-path="url(#p5280a00248)" d="M 440.292313 112.934917 
L 470.406578 112.934917 
" style="fill:none;stroke:#008000;stroke-opacity:0.5;"/>
    <path clip-path="url(#p5280a00248)" d="M 469.311538 121.449067 
L 477.656499 121.449067 
" style="fill:none;stroke:#008000;stroke-opacity:0.5;"/>
    <path clip-path="url(#p5280a00248)" d="M 463.959358 133.31502 
L 519.277825 133.31502 
" style="fill:none;stroke:#008000;stroke-opacity:0.5;"/>
    <path clip-path="url(#p5280a00248)" d="M 493.349218 149.869115 
L 526.157111 149.869115 
" style="fill:none;stroke:#008000;stroke-opacity:0.5;"/>
    <path clip-path="url(#p5280a00248)" d="M 508.492537 173.95968 
L 547.282937 173.95968 
" style="fill:none;stroke:#008000;stroke-opacity:0.5;"/>
    <path clip-path="url(#p5280a00248)" d="M 517.398647 213.463587 
L 574.645973 213.463587 
" style="fill:none;stroke:#008000;stroke-opacity:0.5;"/>
    <path clip-path="url(#p5280a00248)" d="M 540.653372 313.7143 
L 587.660393 313.7143 
" style="fill:none;stroke:#008000;stroke-opacity:0.5;"/>
    <path clip-path="url(#p5280a00248)" d="M 536.145317 263.428579 
L 628.437594 263.428579 
" style="fill:none;stroke:#008000;stroke-opacity:0.5;"/>
    <path clip-path="url(#p5280a00248)" d="M 583.183928 197.562086 
L 617.668128 197.562086 
" style="fill:none;stroke:#008000;stroke-opacity:0.5;"/>
    <path clip-path="url(#p5280a00248)" d="M 570.876079 164.791057 
L 666.245123 164.791057 
" style="fill:none;stroke:#008000;stroke-opacity:0.5;"/>
    <path clip-path="url(#p5280a00248)" d="M 593.811291 143.703168 
L 679.579056 143.703168 
" style="fill:none;stroke:#008000;stroke-opacity:0.5;"/>
    <path clip-path="url(#p5280a00248)" d="M 604.208819 128.92325 
L 705.450674 128.92325 
" style="fill:none;stroke:#008000;stroke-opacity:0.5;"/>
    <path clip-path="url(#p5280a00248)" d="M 638.027237 118.282442 
L 707.901401 118.282442 
" style="fill:none;stroke:#008000;stroke-opacity:0.5;"/>
    <path clip-path="url(#p5280a00248)" d="M 686.726336 110.707821 
L 695.471447 110.707821 
" style="fill:none;stroke:#008000;stroke-opacity:0.5;"/>
    <path clip-path="url(#p5280a00248)" d="M 668.14962 105.612676 
L 750.317309 105.612676 
" style="fill:none;stroke:#008000;stroke-opacity:0.5;"/>
    <path clip-path="url(#p5280a00248)" d="M 693.859742 102.667877 
L 760.876333 102.667877 
" style="fill:none;stroke:#008000;stroke-opacity:0.5;"/>
    <path clip-path="url(#p5280a00248)" d="M 733.093524 101.703789 
L 757.911697 101.703789 
" style="fill:none;stroke:#008000;stroke-opacity:0.5;"/>
   </g>
   <g id="LineCollection_3">
    <path clip-path="url(#p5280a00248)" d="M 219.6 25320.6 
M 219.6 433 
L 219.6 159.545533 
" style="fill:none;stroke:#008000;stroke-opacity:0.5;"/>
    <path clip-path="url(#p5280a00248)" d="M 237.734573 25320.6 
M 237.734573 433 
L 237.734573 130.513634 
" style="fill:none;stroke:#008000;stroke-opacity:0.5;"/>
    <path clip-path="url(#p5280a00248)" d="M 255.869146 25320.6 
M 255.869146 433 
L 255.869146 134.78907 
" style="fill:none;stroke:#008000;stroke-opacity:0.5;"/>
    <path clip-path="url(#p5280a00248)" d="M 274.003718 25320.6 
M 274.003718 433 
L 274.003718 125.184347 
" style="fill:none;stroke:#008000;stroke-opacity:0.5;"/>
    <path clip-path="url(#p5280a00248)" d="M 292.138291 155.737537 
L 292.138291 126.444746 
" style="fill:none;stroke:#008000;stroke-opacity:0.5;"/>
    <path clip-path="url(#p5280a00248)" d="M 310.272864 197.13043 
L 310.272864 102.374701 
" style="fill:none;stroke:#008000;stroke-opacity:0.5;"/>
    <path clip-path="url(#p5280a00248)" d="M 328.407437 139.022268 
L 328.407437 101.27283 
" style="fill:none;stroke:#008000;stroke-opacity:0.5;"/>
    <path clip-path="url(#p5280a00248)" d="M 346.542009 120.786885 
L 346.542009 99.729439 
" style="fill:none;stroke:#008000;stroke-opacity:0.5;"/>
    <path clip-path="url(#p5280a00248)" d="M 364.676582 130.052919 
L 364.676582 89.514493 
" style="fill:none;stroke:#008000;stroke-opacity:0.5;"/>
    <path clip-path="url(#p5280a00248)" d="M 382.811155 109.289002 
L 382.811155 96.15366 
" style="fill:none;stroke:#008000;stroke-opacity:0.5;"/>
    <path clip-path="url(#p5280a00248)" d="M 400.945728 125.676906 
L 400.945728 87.525951 
" style="fill:none;stroke:#008000;stroke-opacity:0.5;"/>
    <path clip-path="url(#p5280a00248)" d="M 419.0803 126.168237 
L 419.0803 89.540235 
" style="fill:none;stroke:#008000;stroke-opacity:0.5;"/>
    <path clip-path="url(#p5280a00248)" d="M 437.214873 109.081023 
L 437.214873 105.145033 
" style="fill:none;stroke:#008000;stroke-opacity:0.5;"/>
    <path clip-path="url(#p5280a00248)" d="M 455.349446 118.033839 
L 455.349446 108.464033 
" style="fill:none;stroke:#008000;stroke-opacity:0.5;"/>
    <path clip-path="url(#p5280a00248)" d="M 473.484019 137.005273 
L 473.484019 110.589802 
" style="fill:none;stroke:#008000;stroke-opacity:0.5;"/>
    <path clip-path="url(#p5280a00248)" d="M 491.618591 139.397513 
L 491.618591 128.105908 
" style="fill:none;stroke:#008000;stroke-opacity:0.5;"/>
    <path clip-path="url(#p5280a00248)" d="M 509.753164 25320.6 
M 509.753164 433 
L 509.753164 115.273233 
" style="fill:none;stroke:#008000;stroke-opacity:0.5;"/>
    <path clip-path="url(#p5280a00248)" d="M 527.887737 25320.6 
M 527.887737 433 
L 527.887737 129.322299 
" style="fill:none;stroke:#008000;stroke-opacity:0.5;"/>
    <path clip-path="url(#p5280a00248)" d="M 546.02231 214.682508 
L 546.02231 212.284217 
" style="fill:none;stroke:#008000;stroke-opacity:0.5;"/>
    <path clip-path="url(#p5280a00248)" d="M 564.156883 25320.6 
M 564.156883 433 
L 564.156883 133.3525 
" style="fill:none;stroke:#008000;stroke-opacity:0.5;"/>
    <path clip-path="url(#p5280a00248)" d="M 582.291455 25320.6 
M 582.291455 433 
L 582.291455 134.773006 
" style="fill:none;stroke:#008000;stroke-opacity:0.5;"/>
    <path clip-path="url(#p5280a00248)" d="M 600.426028 25320.6 
M 600.426028 433 
L 600.426028 143.821388 
" style="fill:none;stroke:#008000;stroke-opacity:0.5;"/>
    <path clip-path="url(#p5280a00248)" d="M 618.560601 25320.6 
M 618.560601 433 
L 618.560601 133.314404 
" style="fill:none;stroke:#008000;stroke-opacity:0.5;"/>
    <path clip-path="url(#p5280a00248)" d="M 636.695174 144.639821 
L 636.695174 142.790045 
" style="fill:none;stroke:#008000;stroke-opacity:0.5;"/>
    <path clip-path="url(#p5280a00248)" d="M 654.829746 153.106417 
L 654.829746 114.528465 
" style="fill:none;stroke:#008000;stroke-opacity:0.5;"/>
    <path clip-path="url(#p5280a00248)" d="M 672.964319 146.028634 
L 672.964319 102.73187 
" style="fill:none;stroke:#008000;stroke-opacity:0.5;"/>
    <path clip-path="url(#p5280a00248)" d="M 691.098892 146.357398 
L 691.098892 93.060319 
" style="fill:none;stroke:#008000;stroke-opacity:0.5;"/>
    <path clip-path="url(#p5280a00248)" d="M 709.233465 131.647744 
L 709.233465 90.598466 
" style="fill:none;stroke:#008000;stroke-opacity:0.5;"/>
    <path clip-path="url(#p5280a00248)" d="M 727.368037 127.96568 
L 727.368037 87.895238 
" style="fill:none;stroke:#008000;stroke-opacity:0.5;"/>
    <path clip-path="url(#p5280a00248)" d="M 745.50261 102.552241 
L 745.50261 100.87469 
" style="fill:none;stroke:#008000;stroke-opacity:0.5;"/>
   </g>
   <g id="line2d_1">
    <defs>
     <path d="M 0 -5 
L -4.330127 -2.5 
L -4.330127 2.5 
L -0 5 
L 4.330127 2.5 
L 4.330127 -2.5 
z
" id="md7a2c18d36" style="stroke:#191970;stroke-linejoin:miter;"/>
    </defs>
    <g clip-path="url(#p5280a00248)">
     <use style="fill:#8080ff;fill-opacity:0.7;stroke:#191970;stroke-linejoin:miter;" x="227.499868287" xlink:href="#md7a2c18d36" y="269.025001942"/>
     <use style="fill:#8080ff;fill-opacity:0.7;stroke:#191970;stroke-linejoin:miter;" x="227.511087738" xlink:href="#md7a2c18d36" y="268.921824842"/>
     <use style="fill:#8080ff;fill-opacity:0.7;stroke:#191970;stroke-linejoin:miter;" x="247.16840571" xlink:href="#md7a2c18d36" y="178.161654452"/>
     <use style="fill:#8080ff;fill-opacity:0.7;stroke:#191970;stroke-linejoin:miter;" x="259.045192073" xlink:href="#md7a2c18d36" y="152.117156724"/>
     <use style="fill:#8080ff;fill-opacity:0.7;stroke:#191970;stroke-linejoin:miter;" x="271.680010768" xlink:href="#md7a2c18d36" y="131.915828562"/>
     <use style="fill:#8080ff;fill-opacity:0.7;stroke:#191970;stroke-linejoin:miter;" x="277.334398376" xlink:href="#md7a2c18d36" y="124.422405398"/>
     <use style="fill:#8080ff;fill-opacity:0.7;stroke:#191970;stroke-linejoin:miter;" x="290.755331143" xlink:href="#md7a2c18d36" y="109.227038757"/>
     <use style="fill:#8080ff;fill-opacity:0.7;stroke:#191970;stroke-linejoin:miter;" x="302.193655628" xlink:href="#md7a2c18d36" y="98.3896892334"/>
     <use style="fill:#8080ff;fill-opacity:0.7;stroke:#191970;stroke-linejoin:miter;" x="325.838237669" xlink:href="#md7a2c18d36" y="80.0871493065"/>
     <use style="fill:#8080ff;fill-opacity:0.7;stroke:#191970;stroke-linejoin:miter;" x="330.667122512" xlink:href="#md7a2c18d36" y="76.8555487762"/>
    </g>
   </g>
   <g id="line2d_2">
    <path clip-path="url(#p5280a00248)" d="M 219.6 25320.6 
M 237.590812 433 
L 237.734573 234.128875 
L 255.869146 184.700542 
L 274.003718 156.841213 
L 292.138291 138.217008 
L 310.272864 124.98345 
L 328.407437 115.452823 
L 346.542009 108.754221 
L 364.676582 104.40324 
L 382.811155 102.131219 
L 400.945728 101.81049 
L 419.0803 103.42368 
L 437.214873 107.059781 
L 455.349446 112.934917 
L 473.484019 121.449067 
L 491.618591 133.31502 
L 509.753164 149.869115 
L 527.887737 173.95968 
L 546.02231 213.463587 
L 564.156883 313.7143 
L 582.291455 263.428579 
L 600.426028 197.562086 
L 618.560601 164.791057 
L 636.695174 143.703168 
L 654.829746 128.92325 
L 672.964319 118.282442 
L 691.098892 110.707821 
L 709.233465 105.612676 
L 727.368037 102.667877 
L 745.50261 101.703789 
" style="fill:none;stroke:#008000;stroke-dasharray:1.000000,3.000000;stroke-dashoffset:0.0;stroke-width:2.0;"/>
   </g>
   <g id="line2d_3">
    <defs>
     <path d="M -2.5 -4.330127 
L -5 -0 
L -2.5 4.330127 
L 2.5 4.330127 
L 5 0 
L 2.5 -4.330127 
z
" id="m49134a8da3" style="stroke:#000000;stroke-linejoin:miter;stroke-width:0.5;"/>
    </defs>
    <g clip-path="url(#p5280a00248)">
     <use style="fill:#008000;opacity:0.5;stroke:#000000;stroke-linejoin:miter;stroke-width:0.5;" x="219.6" xlink:href="#m49134a8da3" y="25320.6"/>
     <use style="fill:#008000;opacity:0.5;stroke:#000000;stroke-linejoin:miter;stroke-width:0.5;" x="237.734572766" xlink:href="#m49134a8da3" y="234.128875432"/>
     <use style="fill:#008000;opacity:0.5;stroke:#000000;stroke-linejoin:miter;stroke-width:0.5;" x="255.869145532" xlink:href="#m49134a8da3" y="184.700542006"/>
     <use style="fill:#008000;opacity:0.5;stroke:#000000;stroke-linejoin:miter;stroke-width:0.5;" x="274.003718298" xlink:href="#m49134a8da3" y="156.841212501"/>
     <use style="fill:#008000;opacity:0.5;stroke:#000000;stroke-linejoin:miter;stroke-width:0.5;" x="292.138291064" xlink:href="#m49134a8da3" y="138.217007782"/>
     <use style="fill:#008000;opacity:0.5;stroke:#000000;stroke-linejoin:miter;stroke-width:0.5;" x="310.272863829" xlink:href="#m49134a8da3" y="124.983450493"/>
     <use style="fill:#008000;opacity:0.5;stroke:#000000;stroke-linejoin:miter;stroke-width:0.5;" x="328.407436595" xlink:href="#m49134a8da3" y="115.452823014"/>
     <use style="fill:#008000;opacity:0.5;stroke:#000000;stroke-linejoin:miter;stroke-width:0.5;" x="346.542009361" xlink:href="#m49134a8da3" y="108.754221172"/>
     <use style="fill:#008000;opacity:0.5;stroke:#000000;stroke-linejoin:miter;stroke-width:0.5;" x="364.676582127" xlink:href="#m49134a8da3" y="104.403239516"/>
     <use style="fill:#008000;opacity:0.5;stroke:#000000;stroke-linejoin:miter;stroke-width:0.5;" x="382.811154893" xlink:href="#m49134a8da3" y="102.131219165"/>
     <use style="fill:#008000;opacity:0.5;stroke:#000000;stroke-linejoin:miter;stroke-width:0.5;" x="400.945727659" xlink:href="#m49134a8da3" y="101.810489752"/>
     <use style="fill:#008000;opacity:0.5;stroke:#000000;stroke-linejoin:miter;stroke-width:0.5;" x="419.080300425" xlink:href="#m49134a8da3" y="103.423680234"/>
     <use style="fill:#008000;opacity:0.5;stroke:#000000;stroke-linejoin:miter;stroke-width:0.5;" x="437.214873191" xlink:href="#m49134a8da3" y="107.059780704"/>
     <use style="fill:#008000;opacity:0.5;stroke:#000000;stroke-linejoin:miter;stroke-width:0.5;" x="455.349445957" xlink:href="#m49134a8da3" y="112.934916793"/>
     <use style="fill:#008000;opacity:0.5;stroke:#000000;stroke-linejoin:miter;stroke-width:0.5;" x="473.484018723" xlink:href="#m49134a8da3" y="121.449067449"/>
     <use style="fill:#008000;opacity:0.5;stroke:#000000;stroke-linejoin:miter;stroke-width:0.5;" x="491.618591488" xlink:href="#m49134a8da3" y="133.315020399"/>
     <use style="fill:#008000;opacity:0.5;stroke:#000000;stroke-linejoin:miter;stroke-width:0.5;" x="509.753164254" xlink:href="#m49134a8da3" y="149.869114995"/>
     <use style="fill:#008000;opacity:0.5;stroke:#000000;stroke-linejoin:miter;stroke-width:0.5;" x="527.88773702" xlink:href="#m49134a8da3" y="173.959679829"/>
     <use style="fill:#008000;opacity:0.5;stroke:#000000;stroke-linejoin:miter;stroke-width:0.5;" x="546.022309786" xlink:href="#m49134a8da3" y="213.463587317"/>
     <use style="fill:#008000;opacity:0.5;stroke:#000000;stroke-linejoin:miter;stroke-width:0.5;" x="564.156882552" xlink:href="#m49134a8da3" y="313.714299673"/>
     <use style="fill:#008000;opacity:0.5;stroke:#000000;stroke-linejoin:miter;stroke-width:0.5;" x="582.291455318" xlink:href="#m49134a8da3" y="263.428578789"/>
     <use style="fill:#008000;opacity:0.5;stroke:#000000;stroke-linejoin:miter;stroke-width:0.5;" x="600.426028084" xlink:href="#m49134a8da3" y="197.562086116"/>
     <use style="fill:#008000;opacity:0.5;stroke:#000000;stroke-linejoin:miter;stroke-width:0.5;" x="618.56060085" xlink:href="#m49134a8da3" y="164.791056914"/>
     <use style="fill:#008000;opacity:0.5;stroke:#000000;stroke-linejoin:miter;stroke-width:0.5;" x="636.695173616" xlink:href="#m49134a8da3" y="143.703168327"/>
     <use style="fill:#008000;opacity:0.5;stroke:#000000;stroke-linejoin:miter;stroke-width:0.5;" x="654.829746381" xlink:href="#m49134a8da3" y="128.923249896"/>
     <use style="fill:#008000;opacity:0.5;stroke:#000000;stroke-linejoin:miter;stroke-width:0.5;" x="672.964319147" xlink:href="#m49134a8da3" y="118.28244237"/>
     <use style="fill:#008000;opacity:0.5;stroke:#000000;stroke-linejoin:miter;stroke-width:0.5;" x="691.098891913" xlink:href="#m49134a8da3" y="110.707821151"/>
     <use style="fill:#008000;opacity:0.5;stroke:#000000;stroke-linejoin:miter;stroke-width:0.5;" x="709.233464679" xlink:href="#m49134a8da3" y="105.612676413"/>
     <use style="fill:#008000;opacity:0.5;stroke:#000000;stroke-linejoin:miter;stroke-width:0.5;" x="727.368037445" xlink:href="#m49134a8da3" y="102.667877211"/>
     <use style="fill:#008000;opacity:0.5;stroke:#000000;stroke-linejoin:miter;stroke-width:0.5;" x="745.502610211" xlink:href="#m49134a8da3" y="101.703789363"/>
    </g>
   </g>
   <g id="patch_3">
    <path d="M 108 43.2 
L 777.6 43.2 
" style="fill:none;stroke:#000000;stroke-linecap:square;stroke-linejoin:miter;"/>
   </g>
   <g id="patch_4">
    <path d="M 777.6 378 
L 777.6 43.2 
" style="fill:none;stroke:#000000;stroke-linecap:square;stroke-linejoin:miter;"/>
   </g>
   <g id="patch_5">
    <path d="M 108 378 
L 108 43.2 
" style="fill:none;stroke:#000000;stroke-linecap:square;stroke-linejoin:miter;"/>
   </g>
   <g id="patch_6">
    <path d="M 108 378 
L 777.6 378 
" style="fill:none;stroke:#000000;stroke-linecap:square;stroke-linejoin:miter;"/>
   </g>
   <g id="matplotlib.axis_1">
    <g id="xtick_1">
     <g id="line2d_4">
      <path clip-path="url(#p5280a00248)" d="M 219.6 378 
L 219.6 43.2 
" style="fill:none;stroke:#000000;stroke-dasharray:1.000000,3.000000;stroke-dashoffset:0.0;stroke-width:0.5;"/>
     </g>
     <g id="line2d_5">
      <defs>
       <path d="M 0 0 
L 0 -4 
" id="m360f4143a9" style="stroke:#000000;stroke-width:0.5;"/>
      </defs>
      <g>
       <use style="stroke:#000000;stroke-width:0.5;" x="219.6" xlink:href="#m360f4143a9" y="378.0"/>
      </g>
     </g>
     <g id="line2d_6">
      <defs>
       <path d="M 0 0 
L 0 4 
" id="m89bc37c638" style="stroke:#000000;stroke-width:0.5;"/>
      </defs>
      <g>
       <use style="stroke:#000000;stroke-width:0.5;" x="219.6" xlink:href="#m89bc37c638" y="43.2"/>
      </g>
     </g>
     <g id="text_1">
      <!-- 0.00 -->
      <defs>
       <path d="M 9.078125 0 
L 9.078125 10.015625 
L 19.09375 10.015625 
L 19.09375 0 
z
" id="ArialMT-2e"/>
       <path d="M 4.15625 35.296875 
Q 4.15625 48 6.765625 55.734375 
Q 9.375 63.484375 14.515625 67.671875 
Q 19.671875 71.875 27.484375 71.875 
Q 33.25 71.875 37.59375 69.546875 
Q 41.9375 67.234375 44.765625 62.859375 
Q 47.609375 58.5 49.21875 52.21875 
Q 50.828125 45.953125 50.828125 35.296875 
Q 50.828125 22.703125 48.234375 14.96875 
Q 45.65625 7.234375 40.5 3 
Q 35.359375 -1.21875 27.484375 -1.21875 
Q 17.140625 -1.21875 11.234375 6.203125 
Q 4.15625 15.140625 4.15625 35.296875 
M 13.1875 35.296875 
Q 13.1875 17.671875 17.3125 11.828125 
Q 21.4375 6 27.484375 6 
Q 33.546875 6 37.671875 11.859375 
Q 41.796875 17.71875 41.796875 35.296875 
Q 41.796875 52.984375 37.671875 58.78125 
Q 33.546875 64.59375 27.390625 64.59375 
Q 21.34375 64.59375 17.71875 59.46875 
Q 13.1875 52.9375 13.1875 35.296875 
" id="ArialMT-30"/>
      </defs>
      <g transform="translate(205.97734375 392.0209375)scale(0.14 -0.14)">
       <use xlink:href="#ArialMT-30"/>
       <use x="55.615234375" xlink:href="#ArialMT-2e"/>
       <use x="83.3984375" xlink:href="#ArialMT-30"/>
       <use x="139.013671875" xlink:href="#ArialMT-30"/>
      </g>
     </g>
    </g>
    <g id="xtick_2">
     <g id="line2d_7">
      <path clip-path="url(#p5280a00248)" d="M 394.90087 378 
L 394.90087 43.2 
" style="fill:none;stroke:#000000;stroke-dasharray:1.000000,3.000000;stroke-dashoffset:0.0;stroke-width:0.5;"/>
     </g>
     <g id="line2d_8">
      <g>
       <use style="stroke:#000000;stroke-width:0.5;" x="394.90087007" xlink:href="#m360f4143a9" y="378.0"/>
      </g>
     </g>
     <g id="line2d_9">
      <g>
       <use style="stroke:#000000;stroke-width:0.5;" x="394.90087007" xlink:href="#m89bc37c638" y="43.2"/>
      </g>
     </g>
     <g id="text_2">
      <!-- 3.14 -->
      <defs>
       <path d="M 4.203125 18.890625 
L 12.984375 20.0625 
Q 14.5 12.59375 18.140625 9.296875 
Q 21.78125 6 27 6 
Q 33.203125 6 37.46875 10.296875 
Q 41.75 14.59375 41.75 20.953125 
Q 41.75 27 37.796875 30.921875 
Q 33.84375 34.859375 27.734375 34.859375 
Q 25.25 34.859375 21.53125 33.890625 
L 22.515625 41.609375 
Q 23.390625 41.5 23.921875 41.5 
Q 29.546875 41.5 34.03125 44.421875 
Q 38.53125 47.359375 38.53125 53.46875 
Q 38.53125 58.296875 35.25 61.46875 
Q 31.984375 64.65625 26.8125 64.65625 
Q 21.6875 64.65625 18.265625 61.421875 
Q 14.84375 58.203125 13.875 51.765625 
L 5.078125 53.328125 
Q 6.6875 62.15625 12.390625 67.015625 
Q 18.109375 71.875 26.609375 71.875 
Q 32.46875 71.875 37.390625 69.359375 
Q 42.328125 66.84375 44.9375 62.5 
Q 47.5625 58.15625 47.5625 53.265625 
Q 47.5625 48.640625 45.0625 44.828125 
Q 42.578125 41.015625 37.703125 38.765625 
Q 44.046875 37.3125 47.5625 32.6875 
Q 51.078125 28.078125 51.078125 21.140625 
Q 51.078125 11.765625 44.234375 5.25 
Q 37.40625 -1.265625 26.953125 -1.265625 
Q 17.53125 -1.265625 11.296875 4.34375 
Q 5.078125 9.96875 4.203125 18.890625 
" id="ArialMT-33"/>
       <path d="M 32.328125 0 
L 32.328125 17.140625 
L 1.265625 17.140625 
L 1.265625 25.203125 
L 33.9375 71.578125 
L 41.109375 71.578125 
L 41.109375 25.203125 
L 50.78125 25.203125 
L 50.78125 17.140625 
L 41.109375 17.140625 
L 41.109375 0 
z
M 32.328125 25.203125 
L 32.328125 57.46875 
L 9.90625 25.203125 
z
" id="ArialMT-34"/>
       <path d="M 37.25 0 
L 28.46875 0 
L 28.46875 56 
Q 25.296875 52.984375 20.140625 49.953125 
Q 14.984375 46.921875 10.890625 45.40625 
L 10.890625 53.90625 
Q 18.265625 57.375 23.78125 62.296875 
Q 29.296875 67.234375 31.59375 71.875 
L 37.25 71.875 
z
" id="ArialMT-31"/>
      </defs>
      <g transform="translate(381.27821382 392.0209375)scale(0.14 -0.14)">
       <use xlink:href="#ArialMT-33"/>
       <use x="55.615234375" xlink:href="#ArialMT-2e"/>
       <use x="83.3984375" xlink:href="#ArialMT-31"/>
       <use x="139.013671875" xlink:href="#ArialMT-34"/>
      </g>
     </g>
    </g>
    <g id="xtick_3">
     <g id="line2d_10">
      <path clip-path="url(#p5280a00248)" d="M 570.20174 378 
L 570.20174 43.2 
" style="fill:none;stroke:#000000;stroke-dasharray:1.000000,3.000000;stroke-dashoffset:0.0;stroke-width:0.5;"/>
     </g>
     <g id="line2d_11">
      <g>
       <use style="stroke:#000000;stroke-width:0.5;" x="570.201740141" xlink:href="#m360f4143a9" y="378.0"/>
      </g>
     </g>
     <g id="line2d_12">
      <g>
       <use style="stroke:#000000;stroke-width:0.5;" x="570.201740141" xlink:href="#m89bc37c638" y="43.2"/>
      </g>
     </g>
     <g id="text_3">
      <!-- 6.28 -->
      <defs>
       <path d="M 50.34375 8.453125 
L 50.34375 0 
L 3.03125 0 
Q 2.9375 3.171875 4.046875 6.109375 
Q 5.859375 10.9375 9.828125 15.625 
Q 13.8125 20.3125 21.34375 26.46875 
Q 33.015625 36.03125 37.109375 41.625 
Q 41.21875 47.21875 41.21875 52.203125 
Q 41.21875 57.421875 37.46875 61 
Q 33.734375 64.59375 27.734375 64.59375 
Q 21.390625 64.59375 17.578125 60.78125 
Q 13.765625 56.984375 13.71875 50.25 
L 4.6875 51.171875 
Q 5.609375 61.28125 11.65625 66.578125 
Q 17.71875 71.875 27.9375 71.875 
Q 38.234375 71.875 44.234375 66.15625 
Q 50.25 60.453125 50.25 52 
Q 50.25 47.703125 48.484375 43.546875 
Q 46.734375 39.40625 42.65625 34.8125 
Q 38.578125 30.21875 29.109375 22.21875 
Q 21.1875 15.578125 18.9375 13.203125 
Q 16.703125 10.84375 15.234375 8.453125 
z
" id="ArialMT-32"/>
       <path d="M 17.671875 38.8125 
Q 12.203125 40.828125 9.5625 44.53125 
Q 6.9375 48.25 6.9375 53.421875 
Q 6.9375 61.234375 12.546875 66.546875 
Q 18.171875 71.875 27.484375 71.875 
Q 36.859375 71.875 42.578125 66.421875 
Q 48.296875 60.984375 48.296875 53.171875 
Q 48.296875 48.1875 45.671875 44.5 
Q 43.0625 40.828125 37.75 38.8125 
Q 44.34375 36.671875 47.78125 31.875 
Q 51.21875 27.09375 51.21875 20.453125 
Q 51.21875 11.28125 44.71875 5.03125 
Q 38.234375 -1.21875 27.640625 -1.21875 
Q 17.046875 -1.21875 10.546875 5.046875 
Q 4.046875 11.328125 4.046875 20.703125 
Q 4.046875 27.6875 7.59375 32.390625 
Q 11.140625 37.109375 17.671875 38.8125 
M 15.921875 53.71875 
Q 15.921875 48.640625 19.1875 45.40625 
Q 22.46875 42.1875 27.6875 42.1875 
Q 32.765625 42.1875 36.015625 45.375 
Q 39.265625 48.578125 39.265625 53.21875 
Q 39.265625 58.0625 35.90625 61.359375 
Q 32.5625 64.65625 27.59375 64.65625 
Q 22.5625 64.65625 19.234375 61.421875 
Q 15.921875 58.203125 15.921875 53.71875 
M 13.09375 20.65625 
Q 13.09375 16.890625 14.875 13.375 
Q 16.65625 9.859375 20.171875 7.921875 
Q 23.6875 6 27.734375 6 
Q 34.03125 6 38.125 10.046875 
Q 42.234375 14.109375 42.234375 20.359375 
Q 42.234375 26.703125 38.015625 30.859375 
Q 33.796875 35.015625 27.4375 35.015625 
Q 21.234375 35.015625 17.15625 30.90625 
Q 13.09375 26.8125 13.09375 20.65625 
" id="ArialMT-38"/>
       <path d="M 49.75 54.046875 
L 41.015625 53.375 
Q 39.84375 58.546875 37.703125 60.890625 
Q 34.125 64.65625 28.90625 64.65625 
Q 24.703125 64.65625 21.53125 62.3125 
Q 17.390625 59.28125 14.984375 53.46875 
Q 12.59375 47.65625 12.5 36.921875 
Q 15.671875 41.75 20.265625 44.09375 
Q 24.859375 46.4375 29.890625 46.4375 
Q 38.671875 46.4375 44.84375 39.96875 
Q 51.03125 33.5 51.03125 23.25 
Q 51.03125 16.5 48.125 10.71875 
Q 45.21875 4.9375 40.140625 1.859375 
Q 35.0625 -1.21875 28.609375 -1.21875 
Q 17.625 -1.21875 10.6875 6.859375 
Q 3.765625 14.9375 3.765625 33.5 
Q 3.765625 54.25 11.421875 63.671875 
Q 18.109375 71.875 29.4375 71.875 
Q 37.890625 71.875 43.28125 67.140625 
Q 48.6875 62.40625 49.75 54.046875 
M 13.875 23.1875 
Q 13.875 18.65625 15.796875 14.5 
Q 17.71875 10.359375 21.1875 8.171875 
Q 24.65625 6 28.46875 6 
Q 34.03125 6 38.03125 10.484375 
Q 42.046875 14.984375 42.046875 22.703125 
Q 42.046875 30.125 38.078125 34.390625 
Q 34.125 38.671875 28.125 38.671875 
Q 22.171875 38.671875 18.015625 34.390625 
Q 13.875 30.125 13.875 23.1875 
" id="ArialMT-36"/>
      </defs>
      <g transform="translate(556.579083891 392.0209375)scale(0.14 -0.14)">
       <use xlink:href="#ArialMT-36"/>
       <use x="55.615234375" xlink:href="#ArialMT-2e"/>
       <use x="83.3984375" xlink:href="#ArialMT-32"/>
       <use x="139.013671875" xlink:href="#ArialMT-38"/>
      </g>
     </g>
    </g>
    <g id="xtick_4">
     <g id="line2d_13">
      <path clip-path="url(#p5280a00248)" d="M 745.50261 378 
L 745.50261 43.2 
" style="fill:none;stroke:#000000;stroke-dasharray:1.000000,3.000000;stroke-dashoffset:0.0;stroke-width:0.5;"/>
     </g>
     <g id="line2d_14">
      <g>
       <use style="stroke:#000000;stroke-width:0.5;" x="745.502610211" xlink:href="#m360f4143a9" y="378.0"/>
      </g>
     </g>
     <g id="line2d_15">
      <g>
       <use style="stroke:#000000;stroke-width:0.5;" x="745.502610211" xlink:href="#m89bc37c638" y="43.2"/>
      </g>
     </g>
     <g id="text_4">
      <!-- 9.42 -->
      <defs>
       <path d="M 5.46875 16.546875 
L 13.921875 17.328125 
Q 14.984375 11.375 18.015625 8.6875 
Q 21.046875 6 25.78125 6 
Q 29.828125 6 32.875 7.859375 
Q 35.9375 9.71875 37.890625 12.8125 
Q 39.84375 15.921875 41.15625 21.1875 
Q 42.484375 26.46875 42.484375 31.9375 
Q 42.484375 32.515625 42.4375 33.6875 
Q 39.796875 29.5 35.234375 26.875 
Q 30.671875 24.265625 25.34375 24.265625 
Q 16.453125 24.265625 10.296875 30.703125 
Q 4.15625 37.15625 4.15625 47.703125 
Q 4.15625 58.59375 10.578125 65.234375 
Q 17 71.875 26.65625 71.875 
Q 33.640625 71.875 39.421875 68.109375 
Q 45.21875 64.359375 48.21875 57.390625 
Q 51.21875 50.4375 51.21875 37.25 
Q 51.21875 23.53125 48.234375 15.40625 
Q 45.265625 7.28125 39.375 3.03125 
Q 33.5 -1.21875 25.59375 -1.21875 
Q 17.1875 -1.21875 11.859375 3.4375 
Q 6.546875 8.109375 5.46875 16.546875 
M 41.453125 48.140625 
Q 41.453125 55.71875 37.421875 60.15625 
Q 33.40625 64.59375 27.734375 64.59375 
Q 21.875 64.59375 17.53125 59.8125 
Q 13.1875 55.03125 13.1875 47.40625 
Q 13.1875 40.578125 17.3125 36.296875 
Q 21.4375 32.03125 27.484375 32.03125 
Q 33.59375 32.03125 37.515625 36.296875 
Q 41.453125 40.578125 41.453125 48.140625 
" id="ArialMT-39"/>
      </defs>
      <g transform="translate(731.879953961 392.0209375)scale(0.14 -0.14)">
       <use xlink:href="#ArialMT-39"/>
       <use x="55.615234375" xlink:href="#ArialMT-2e"/>
       <use x="83.3984375" xlink:href="#ArialMT-34"/>
       <use x="139.013671875" xlink:href="#ArialMT-32"/>
      </g>
     </g>
    </g>
    <g id="xtick_5">
     <g id="line2d_16">
      <defs>
       <path d="M 0 0 
L 0 -2 
" id="mfa03ccacd9" style="stroke:#000000;stroke-width:0.5;"/>
      </defs>
      <g>
       <use style="stroke:#000000;stroke-width:0.5;" x="131.949564965" xlink:href="#mfa03ccacd9" y="378.0"/>
      </g>
     </g>
     <g id="line2d_17">
      <defs>
       <path d="M 0 0 
L 0 2 
" id="m689bb96896" style="stroke:#000000;stroke-width:0.5;"/>
      </defs>
      <g>
       <use style="stroke:#000000;stroke-width:0.5;" x="131.949564965" xlink:href="#m689bb96896" y="43.2"/>
      </g>
     </g>
    </g>
    <g id="xtick_6">
     <g id="line2d_18">
      <g>
       <use style="stroke:#000000;stroke-width:0.5;" x="175.774782482" xlink:href="#mfa03ccacd9" y="378.0"/>
      </g>
     </g>
     <g id="line2d_19">
      <g>
       <use style="stroke:#000000;stroke-width:0.5;" x="175.774782482" xlink:href="#m689bb96896" y="43.2"/>
      </g>
     </g>
    </g>
    <g id="xtick_7">
     <g id="line2d_20">
      <g>
       <use style="stroke:#000000;stroke-width:0.5;" x="219.6" xlink:href="#mfa03ccacd9" y="378.0"/>
      </g>
     </g>
     <g id="line2d_21">
      <g>
       <use style="stroke:#000000;stroke-width:0.5;" x="219.6" xlink:href="#m689bb96896" y="43.2"/>
      </g>
     </g>
    </g>
    <g id="xtick_8">
     <g id="line2d_22">
      <g>
       <use style="stroke:#000000;stroke-width:0.5;" x="263.425217518" xlink:href="#mfa03ccacd9" y="378.0"/>
      </g>
     </g>
     <g id="line2d_23">
      <g>
       <use style="stroke:#000000;stroke-width:0.5;" x="263.425217518" xlink:href="#m689bb96896" y="43.2"/>
      </g>
     </g>
    </g>
    <g id="xtick_9">
     <g id="line2d_24">
      <g>
       <use style="stroke:#000000;stroke-width:0.5;" x="307.250435035" xlink:href="#mfa03ccacd9" y="378.0"/>
      </g>
     </g>
     <g id="line2d_25">
      <g>
       <use style="stroke:#000000;stroke-width:0.5;" x="307.250435035" xlink:href="#m689bb96896" y="43.2"/>
      </g>
     </g>
    </g>
    <g id="xtick_10">
     <g id="line2d_26">
      <g>
       <use style="stroke:#000000;stroke-width:0.5;" x="351.075652553" xlink:href="#mfa03ccacd9" y="378.0"/>
      </g>
     </g>
     <g id="line2d_27">
      <g>
       <use style="stroke:#000000;stroke-width:0.5;" x="351.075652553" xlink:href="#m689bb96896" y="43.2"/>
      </g>
     </g>
    </g>
    <g id="xtick_11">
     <g id="line2d_28">
      <g>
       <use style="stroke:#000000;stroke-width:0.5;" x="394.90087007" xlink:href="#mfa03ccacd9" y="378.0"/>
      </g>
     </g>
     <g id="line2d_29">
      <g>
       <use style="stroke:#000000;stroke-width:0.5;" x="394.90087007" xlink:href="#m689bb96896" y="43.2"/>
      </g>
     </g>
    </g>
    <g id="xtick_12">
     <g id="line2d_30">
      <g>
       <use style="stroke:#000000;stroke-width:0.5;" x="438.726087588" xlink:href="#mfa03ccacd9" y="378.0"/>
      </g>
     </g>
     <g id="line2d_31">
      <g>
       <use style="stroke:#000000;stroke-width:0.5;" x="438.726087588" xlink:href="#m689bb96896" y="43.2"/>
      </g>
     </g>
    </g>
    <g id="xtick_13">
     <g id="line2d_32">
      <g>
       <use style="stroke:#000000;stroke-width:0.5;" x="482.551305105" xlink:href="#mfa03ccacd9" y="378.0"/>
      </g>
     </g>
     <g id="line2d_33">
      <g>
       <use style="stroke:#000000;stroke-width:0.5;" x="482.551305105" xlink:href="#m689bb96896" y="43.2"/>
      </g>
     </g>
    </g>
    <g id="xtick_14">
     <g id="line2d_34">
      <g>
       <use style="stroke:#000000;stroke-width:0.5;" x="526.376522623" xlink:href="#mfa03ccacd9" y="378.0"/>
      </g>
     </g>
     <g id="line2d_35">
      <g>
       <use style="stroke:#000000;stroke-width:0.5;" x="526.376522623" xlink:href="#m689bb96896" y="43.2"/>
      </g>
     </g>
    </g>
    <g id="xtick_15">
     <g id="line2d_36">
      <g>
       <use style="stroke:#000000;stroke-width:0.5;" x="570.201740141" xlink:href="#mfa03ccacd9" y="378.0"/>
      </g>
     </g>
     <g id="line2d_37">
      <g>
       <use style="stroke:#000000;stroke-width:0.5;" x="570.201740141" xlink:href="#m689bb96896" y="43.2"/>
      </g>
     </g>
    </g>
    <g id="xtick_16">
     <g id="line2d_38">
      <g>
       <use style="stroke:#000000;stroke-width:0.5;" x="614.026957658" xlink:href="#mfa03ccacd9" y="378.0"/>
      </g>
     </g>
     <g id="line2d_39">
      <g>
       <use style="stroke:#000000;stroke-width:0.5;" x="614.026957658" xlink:href="#m689bb96896" y="43.2"/>
      </g>
     </g>
    </g>
    <g id="xtick_17">
     <g id="line2d_40">
      <g>
       <use style="stroke:#000000;stroke-width:0.5;" x="657.852175176" xlink:href="#mfa03ccacd9" y="378.0"/>
      </g>
     </g>
     <g id="line2d_41">
      <g>
       <use style="stroke:#000000;stroke-width:0.5;" x="657.852175176" xlink:href="#m689bb96896" y="43.2"/>
      </g>
     </g>
    </g>
    <g id="xtick_18">
     <g id="line2d_42">
      <g>
       <use style="stroke:#000000;stroke-width:0.5;" x="701.677392693" xlink:href="#mfa03ccacd9" y="378.0"/>
      </g>
     </g>
     <g id="line2d_43">
      <g>
       <use style="stroke:#000000;stroke-width:0.5;" x="701.677392693" xlink:href="#m689bb96896" y="43.2"/>
      </g>
     </g>
    </g>
    <g id="xtick_19">
     <g id="line2d_44">
      <g>
       <use style="stroke:#000000;stroke-width:0.5;" x="745.502610211" xlink:href="#mfa03ccacd9" y="378.0"/>
      </g>
     </g>
     <g id="line2d_45">
      <g>
       <use style="stroke:#000000;stroke-width:0.5;" x="745.502610211" xlink:href="#m689bb96896" y="43.2"/>
      </g>
     </g>
    </g>
    <g id="text_5">
     <!-- More ore less the x axis -->
     <defs>
      <path d="M 6.640625 61.46875 
L 6.640625 71.578125 
L 15.4375 71.578125 
L 15.4375 61.46875 
z
M 6.640625 0 
L 6.640625 51.859375 
L 15.4375 51.859375 
L 15.4375 0 
z
" id="ArialMT-69"/>
      <path d="M 7.421875 0 
L 7.421875 71.578125 
L 21.6875 71.578125 
L 38.625 20.90625 
Q 40.96875 13.8125 42.046875 10.296875 
Q 43.265625 14.203125 45.84375 21.78125 
L 62.984375 71.578125 
L 75.734375 71.578125 
L 75.734375 0 
L 66.609375 0 
L 66.609375 59.90625 
L 45.796875 0 
L 37.25 0 
L 16.546875 60.9375 
L 16.546875 0 
z
" id="ArialMT-4d"/>
      <path d="M 6.5 0 
L 6.5 51.859375 
L 14.40625 51.859375 
L 14.40625 44 
Q 17.4375 49.515625 20 51.265625 
Q 22.5625 53.03125 25.640625 53.03125 
Q 30.078125 53.03125 34.671875 50.203125 
L 31.640625 42.046875 
Q 28.421875 43.953125 25.203125 43.953125 
Q 22.3125 43.953125 20.015625 42.21875 
Q 17.71875 40.484375 16.75 37.40625 
Q 15.28125 32.71875 15.28125 27.15625 
L 15.28125 0 
z
" id="ArialMT-72"/>
      <path d="M 6.390625 0 
L 6.390625 71.578125 
L 15.1875 71.578125 
L 15.1875 0 
z
" id="ArialMT-6c"/>
      <path d="M 25.78125 7.859375 
L 27.046875 0.09375 
Q 23.34375 -0.6875 20.40625 -0.6875 
Q 15.625 -0.6875 12.984375 0.828125 
Q 10.359375 2.34375 9.28125 4.8125 
Q 8.203125 7.28125 8.203125 15.1875 
L 8.203125 45.015625 
L 1.765625 45.015625 
L 1.765625 51.859375 
L 8.203125 51.859375 
L 8.203125 64.703125 
L 16.9375 69.96875 
L 16.9375 51.859375 
L 25.78125 51.859375 
L 25.78125 45.015625 
L 16.9375 45.015625 
L 16.9375 14.703125 
Q 16.9375 10.9375 17.40625 9.859375 
Q 17.875 8.796875 18.921875 8.15625 
Q 19.96875 7.515625 21.921875 7.515625 
Q 23.390625 7.515625 25.78125 7.859375 
" id="ArialMT-74"/>
      <path d="M 40.4375 6.390625 
Q 35.546875 2.25 31.03125 0.53125 
Q 26.515625 -1.171875 21.34375 -1.171875 
Q 12.796875 -1.171875 8.203125 3 
Q 3.609375 7.171875 3.609375 13.671875 
Q 3.609375 17.484375 5.34375 20.625 
Q 7.078125 23.78125 9.890625 25.6875 
Q 12.703125 27.59375 16.21875 28.5625 
Q 18.796875 29.25 24.03125 29.890625 
Q 34.671875 31.15625 39.703125 32.90625 
Q 39.75 34.71875 39.75 35.203125 
Q 39.75 40.578125 37.25 42.78125 
Q 33.890625 45.75 27.25 45.75 
Q 21.046875 45.75 18.09375 43.578125 
Q 15.140625 41.40625 13.71875 35.890625 
L 5.125 37.0625 
Q 6.296875 42.578125 8.984375 45.96875 
Q 11.671875 49.359375 16.75 51.1875 
Q 21.828125 53.03125 28.515625 53.03125 
Q 35.15625 53.03125 39.296875 51.46875 
Q 43.453125 49.90625 45.40625 47.53125 
Q 47.359375 45.171875 48.140625 41.546875 
Q 48.578125 39.3125 48.578125 33.453125 
L 48.578125 21.734375 
Q 48.578125 9.46875 49.140625 6.21875 
Q 49.703125 2.984375 51.375 0 
L 42.1875 0 
Q 40.828125 2.734375 40.4375 6.390625 
M 39.703125 26.03125 
Q 34.90625 24.078125 25.34375 22.703125 
Q 19.921875 21.921875 17.671875 20.9375 
Q 15.4375 19.96875 14.203125 18.09375 
Q 12.984375 16.21875 12.984375 13.921875 
Q 12.984375 10.40625 15.640625 8.0625 
Q 18.3125 5.71875 23.4375 5.71875 
Q 28.515625 5.71875 32.46875 7.9375 
Q 36.421875 10.15625 38.28125 14.015625 
Q 39.703125 17 39.703125 22.796875 
z
" id="ArialMT-61"/>
      <path id="ArialMT-20"/>
      <path d="M 42.09375 16.703125 
L 51.171875 15.578125 
Q 49.03125 7.625 43.21875 3.21875 
Q 37.40625 -1.171875 28.375 -1.171875 
Q 17 -1.171875 10.328125 5.828125 
Q 3.65625 12.84375 3.65625 25.484375 
Q 3.65625 38.578125 10.390625 45.796875 
Q 17.140625 53.03125 27.875 53.03125 
Q 38.28125 53.03125 44.875 45.953125 
Q 51.46875 38.875 51.46875 26.03125 
Q 51.46875 25.25 51.421875 23.6875 
L 12.75 23.6875 
Q 13.234375 15.140625 17.578125 10.59375 
Q 21.921875 6.0625 28.421875 6.0625 
Q 33.25 6.0625 36.671875 8.59375 
Q 40.09375 11.140625 42.09375 16.703125 
M 13.234375 30.90625 
L 42.1875 30.90625 
Q 41.609375 37.453125 38.875 40.71875 
Q 34.671875 45.796875 27.984375 45.796875 
Q 21.921875 45.796875 17.796875 41.75 
Q 13.671875 37.703125 13.234375 30.90625 
" id="ArialMT-65"/>
      <path d="M 3.078125 15.484375 
L 11.765625 16.84375 
Q 12.5 11.625 15.84375 8.84375 
Q 19.1875 6.0625 25.203125 6.0625 
Q 31.25 6.0625 34.171875 8.515625 
Q 37.109375 10.984375 37.109375 14.3125 
Q 37.109375 17.28125 34.515625 19 
Q 32.71875 20.171875 25.53125 21.96875 
Q 15.875 24.421875 12.140625 26.203125 
Q 8.40625 27.984375 6.46875 31.125 
Q 4.546875 34.28125 4.546875 38.09375 
Q 4.546875 41.546875 6.125 44.5 
Q 7.71875 47.46875 10.453125 49.421875 
Q 12.5 50.921875 16.03125 51.96875 
Q 19.578125 53.03125 23.640625 53.03125 
Q 29.734375 53.03125 34.34375 51.265625 
Q 38.96875 49.515625 41.15625 46.5 
Q 43.359375 43.5 44.1875 38.484375 
L 35.59375 37.3125 
Q 35.015625 41.3125 32.203125 43.546875 
Q 29.390625 45.796875 24.265625 45.796875 
Q 18.21875 45.796875 15.625 43.796875 
Q 13.03125 41.796875 13.03125 39.109375 
Q 13.03125 37.40625 14.109375 36.03125 
Q 15.1875 34.625 17.484375 33.6875 
Q 18.796875 33.203125 25.25 31.453125 
Q 34.578125 28.953125 38.25 27.359375 
Q 41.9375 25.78125 44.03125 22.75 
Q 46.140625 19.734375 46.140625 15.234375 
Q 46.140625 10.84375 43.578125 6.953125 
Q 41.015625 3.078125 36.171875 0.953125 
Q 31.34375 -1.171875 25.25 -1.171875 
Q 15.140625 -1.171875 9.84375 3.03125 
Q 4.546875 7.234375 3.078125 15.484375 
" id="ArialMT-73"/>
      <path d="M 3.328125 25.921875 
Q 3.328125 40.328125 11.328125 47.265625 
Q 18.015625 53.03125 27.640625 53.03125 
Q 38.328125 53.03125 45.109375 46.015625 
Q 51.90625 39.015625 51.90625 26.65625 
Q 51.90625 16.65625 48.90625 10.90625 
Q 45.90625 5.171875 40.15625 2 
Q 34.421875 -1.171875 27.640625 -1.171875 
Q 16.75 -1.171875 10.03125 5.8125 
Q 3.328125 12.796875 3.328125 25.921875 
M 12.359375 25.921875 
Q 12.359375 15.96875 16.703125 11.015625 
Q 21.046875 6.0625 27.640625 6.0625 
Q 34.1875 6.0625 38.53125 11.03125 
Q 42.875 16.015625 42.875 26.21875 
Q 42.875 35.84375 38.5 40.796875 
Q 34.125 45.75 27.640625 45.75 
Q 21.046875 45.75 16.703125 40.8125 
Q 12.359375 35.890625 12.359375 25.921875 
" id="ArialMT-6f"/>
      <path d="M 6.59375 0 
L 6.59375 71.578125 
L 15.375 71.578125 
L 15.375 45.90625 
Q 21.53125 53.03125 30.90625 53.03125 
Q 36.671875 53.03125 40.921875 50.75 
Q 45.171875 48.484375 47 44.484375 
Q 48.828125 40.484375 48.828125 32.859375 
L 48.828125 0 
L 40.046875 0 
L 40.046875 32.859375 
Q 40.046875 39.453125 37.1875 42.453125 
Q 34.328125 45.453125 29.109375 45.453125 
Q 25.203125 45.453125 21.75 43.421875 
Q 18.3125 41.40625 16.84375 37.9375 
Q 15.375 34.46875 15.375 28.375 
L 15.375 0 
z
" id="ArialMT-68"/>
      <path d="M 0.734375 0 
L 19.671875 26.953125 
L 2.15625 51.859375 
L 13.140625 51.859375 
L 21.09375 39.703125 
Q 23.34375 36.234375 24.703125 33.890625 
Q 26.859375 37.109375 28.65625 39.59375 
L 37.40625 51.859375 
L 47.90625 51.859375 
L 29.984375 27.4375 
L 49.265625 0 
L 38.484375 0 
L 27.828125 16.109375 
L 25 20.453125 
L 11.375 0 
z
" id="ArialMT-78"/>
     </defs>
     <g style="fill:#333333;" transform="translate(358.32875 411.2559375)scale(0.16 -0.16)">
      <use xlink:href="#ArialMT-4d"/>
      <use x="83.30078125" xlink:href="#ArialMT-6f"/>
      <use x="138.916015625" xlink:href="#ArialMT-72"/>
      <use x="172.216796875" xlink:href="#ArialMT-65"/>
      <use x="227.83203125" xlink:href="#ArialMT-20"/>
      <use x="255.615234375" xlink:href="#ArialMT-6f"/>
      <use x="311.23046875" xlink:href="#ArialMT-72"/>
      <use x="344.53125" xlink:href="#ArialMT-65"/>
      <use x="400.146484375" xlink:href="#ArialMT-20"/>
      <use x="427.9296875" xlink:href="#ArialMT-6c"/>
      <use x="450.146484375" xlink:href="#ArialMT-65"/>
      <use x="505.76171875" xlink:href="#ArialMT-73"/>
      <use x="555.76171875" xlink:href="#ArialMT-73"/>
      <use x="605.76171875" xlink:href="#ArialMT-20"/>
      <use x="633.544921875" xlink:href="#ArialMT-74"/>
      <use x="661.328125" xlink:href="#ArialMT-68"/>
      <use x="716.943359375" xlink:href="#ArialMT-65"/>
      <use x="772.55859375" xlink:href="#ArialMT-20"/>
      <use x="800.341796875" xlink:href="#ArialMT-78"/>
      <use x="850.341796875" xlink:href="#ArialMT-20"/>
      <use x="878.125" xlink:href="#ArialMT-61"/>
      <use x="933.740234375" xlink:href="#ArialMT-78"/>
      <use x="983.740234375" xlink:href="#ArialMT-69"/>
      <use x="1005.95703125" xlink:href="#ArialMT-73"/>
     </g>
    </g>
   </g>
   <g id="matplotlib.axis_2">
    <g id="ytick_1">
     <g id="line2d_46">
      <path clip-path="url(#p5280a00248)" d="M 108 378 
L 777.6 378 
" style="fill:none;stroke:#000000;stroke-dasharray:1.000000,3.000000;stroke-dashoffset:0.0;stroke-width:0.5;"/>
     </g>
     <g id="line2d_47">
      <defs>
       <path d="M 0 0 
L 4 0 
" id="m05c7378c1d" style="stroke:#000000;stroke-width:0.5;"/>
      </defs>
      <g>
       <use style="stroke:#000000;stroke-width:0.5;" x="108.0" xlink:href="#m05c7378c1d" y="378.0"/>
      </g>
     </g>
     <g id="line2d_48">
      <defs>
       <path d="M 0 0 
L -4 0 
" id="m753dbe8d24" style="stroke:#000000;stroke-width:0.5;"/>
      </defs>
      <g>
       <use style="stroke:#000000;stroke-width:0.5;" x="777.6" xlink:href="#m753dbe8d24" y="378.0"/>
      </g>
     </g>
     <g id="text_6">
      <!-- $\mathdefault{10^{-3}}$ -->
      <defs>
       <path d="M 3.171875 21.484375 
L 3.171875 30.328125 
L 30.171875 30.328125 
L 30.171875 21.484375 
z
" id="ArialMT-2d"/>
      </defs>
      <g transform="translate(77.82 382.0775)scale(0.14 -0.14)">
       <use transform="translate(0.0 0.8843750000000057)" xlink:href="#ArialMT-31"/>
       <use transform="translate(55.615234375 0.8843750000000057)" xlink:href="#ArialMT-30"/>
       <use transform="translate(116.4575 45.68750000000001)scale(0.7)" xlink:href="#ArialMT-2d"/>
       <use transform="translate(139.76804687499998 45.68750000000001)scale(0.7)" xlink:href="#ArialMT-33"/>
      </g>
     </g>
    </g>
    <g id="ytick_2">
     <g id="line2d_49">
      <path clip-path="url(#p5280a00248)" d="M 108 294.3 
L 777.6 294.3 
" style="fill:none;stroke:#000000;stroke-dasharray:1.000000,3.000000;stroke-dashoffset:0.0;stroke-width:0.5;"/>
     </g>
     <g id="line2d_50">
      <g>
       <use style="stroke:#000000;stroke-width:0.5;" x="108.0" xlink:href="#m05c7378c1d" y="294.3"/>
      </g>
     </g>
     <g id="line2d_51">
      <g>
       <use style="stroke:#000000;stroke-width:0.5;" x="777.6" xlink:href="#m753dbe8d24" y="294.3"/>
      </g>
     </g>
     <g id="text_7">
      <!-- $\mathdefault{10^{-2}}$ -->
      <g transform="translate(77.82 298.3775)scale(0.14 -0.14)">
       <use transform="translate(0.0 0.8843750000000057)" xlink:href="#ArialMT-31"/>
       <use transform="translate(55.615234375 0.8843750000000057)" xlink:href="#ArialMT-30"/>
       <use transform="translate(116.4575 45.68750000000001)scale(0.7)" xlink:href="#ArialMT-2d"/>
       <use transform="translate(139.76804687499998 45.68750000000001)scale(0.7)" xlink:href="#ArialMT-32"/>
      </g>
     </g>
    </g>
    <g id="ytick_3">
     <g id="line2d_52">
      <path clip-path="url(#p5280a00248)" d="M 108 210.6 
L 777.6 210.6 
" style="fill:none;stroke:#000000;stroke-dasharray:1.000000,3.000000;stroke-dashoffset:0.0;stroke-width:0.5;"/>
     </g>
     <g id="line2d_53">
      <g>
       <use style="stroke:#000000;stroke-width:0.5;" x="108.0" xlink:href="#m05c7378c1d" y="210.6"/>
      </g>
     </g>
     <g id="line2d_54">
      <g>
       <use style="stroke:#000000;stroke-width:0.5;" x="777.6" xlink:href="#m753dbe8d24" y="210.6"/>
      </g>
     </g>
     <g id="text_8">
      <!-- $\mathdefault{10^{-1}}$ -->
      <g transform="translate(77.82 214.6775)scale(0.14 -0.14)">
       <use transform="translate(0.0 0.8843750000000057)" xlink:href="#ArialMT-31"/>
       <use transform="translate(55.615234375 0.8843750000000057)" xlink:href="#ArialMT-30"/>
       <use transform="translate(116.4575 45.68750000000001)scale(0.7)" xlink:href="#ArialMT-2d"/>
       <use transform="translate(139.76804687499998 45.68750000000001)scale(0.7)" xlink:href="#ArialMT-31"/>
      </g>
     </g>
    </g>
    <g id="ytick_4">
     <g id="line2d_55">
      <path clip-path="url(#p5280a00248)" d="M 108 126.9 
L 777.6 126.9 
" style="fill:none;stroke:#000000;stroke-dasharray:1.000000,3.000000;stroke-dashoffset:0.0;stroke-width:0.5;"/>
     </g>
     <g id="line2d_56">
      <g>
       <use style="stroke:#000000;stroke-width:0.5;" x="108.0" xlink:href="#m05c7378c1d" y="126.9"/>
      </g>
     </g>
     <g id="line2d_57">
      <g>
       <use style="stroke:#000000;stroke-width:0.5;" x="777.6" xlink:href="#m753dbe8d24" y="126.9"/>
      </g>
     </g>
     <g id="text_9">
      <!-- $\mathdefault{10^{0}}$ -->
      <g transform="translate(81.18 130.9775)scale(0.14 -0.14)">
       <use transform="translate(0.0 0.8843750000000057)" xlink:href="#ArialMT-31"/>
       <use transform="translate(55.615234375 0.8843750000000057)" xlink:href="#ArialMT-30"/>
       <use transform="translate(116.4575 45.68750000000001)scale(0.7)" xlink:href="#ArialMT-30"/>
      </g>
     </g>
    </g>
    <g id="ytick_5">
     <g id="line2d_58">
      <path clip-path="url(#p5280a00248)" d="M 108 43.2 
L 777.6 43.2 
" style="fill:none;stroke:#000000;stroke-dasharray:1.000000,3.000000;stroke-dashoffset:0.0;stroke-width:0.5;"/>
     </g>
     <g id="line2d_59">
      <g>
       <use style="stroke:#000000;stroke-width:0.5;" x="108.0" xlink:href="#m05c7378c1d" y="43.2"/>
      </g>
     </g>
     <g id="line2d_60">
      <g>
       <use style="stroke:#000000;stroke-width:0.5;" x="777.6" xlink:href="#m753dbe8d24" y="43.2"/>
      </g>
     </g>
     <g id="text_10">
      <!-- $\mathdefault{10^{1}}$ -->
      <g transform="translate(81.18 47.2775)scale(0.14 -0.14)">
       <use transform="translate(0.0 0.8843750000000057)" xlink:href="#ArialMT-31"/>
       <use transform="translate(55.615234375 0.8843750000000057)" xlink:href="#ArialMT-30"/>
       <use transform="translate(116.4575 45.68750000000001)scale(0.7)" xlink:href="#ArialMT-31"/>
      </g>
     </g>
    </g>
    <g id="ytick_6">
     <g id="line2d_61">
      <defs>
       <path d="M 0 0 
L 2 0 
" id="mee02c6d6f4" style="stroke:#000000;stroke-width:0.5;"/>
      </defs>
      <g>
       <use style="stroke:#000000;stroke-width:0.5;" x="108.0" xlink:href="#mee02c6d6f4" y="352.803789363"/>
      </g>
     </g>
     <g id="line2d_62">
      <defs>
       <path d="M 0 0 
L -2 0 
" id="m467549b887" style="stroke:#000000;stroke-width:0.5;"/>
      </defs>
      <g>
       <use style="stroke:#000000;stroke-width:0.5;" x="777.6" xlink:href="#m467549b887" y="352.803789363"/>
      </g>
     </g>
    </g>
    <g id="ytick_7">
     <g id="line2d_63">
      <g>
       <use style="stroke:#000000;stroke-width:0.5;" x="108.0" xlink:href="#mee02c6d6f4" y="338.06495098"/>
      </g>
     </g>
     <g id="line2d_64">
      <g>
       <use style="stroke:#000000;stroke-width:0.5;" x="777.6" xlink:href="#m467549b887" y="338.06495098"/>
      </g>
     </g>
    </g>
    <g id="ytick_8">
     <g id="line2d_65">
      <g>
       <use style="stroke:#000000;stroke-width:0.5;" x="108.0" xlink:href="#mee02c6d6f4" y="327.607578726"/>
      </g>
     </g>
     <g id="line2d_66">
      <g>
       <use style="stroke:#000000;stroke-width:0.5;" x="777.6" xlink:href="#m467549b887" y="327.607578726"/>
      </g>
     </g>
    </g>
    <g id="ytick_9">
     <g id="line2d_67">
      <g>
       <use style="stroke:#000000;stroke-width:0.5;" x="108.0" xlink:href="#mee02c6d6f4" y="319.496210637"/>
      </g>
     </g>
     <g id="line2d_68">
      <g>
       <use style="stroke:#000000;stroke-width:0.5;" x="777.6" xlink:href="#m467549b887" y="319.496210637"/>
      </g>
     </g>
    </g>
    <g id="ytick_10">
     <g id="line2d_69">
      <g>
       <use style="stroke:#000000;stroke-width:0.5;" x="108.0" xlink:href="#mee02c6d6f4" y="312.868740343"/>
      </g>
     </g>
     <g id="line2d_70">
      <g>
       <use style="stroke:#000000;stroke-width:0.5;" x="777.6" xlink:href="#m467549b887" y="312.868740343"/>
      </g>
     </g>
    </g>
    <g id="ytick_11">
     <g id="line2d_71">
      <g>
       <use style="stroke:#000000;stroke-width:0.5;" x="108.0" xlink:href="#mee02c6d6f4" y="307.265294051"/>
      </g>
     </g>
     <g id="line2d_72">
      <g>
       <use style="stroke:#000000;stroke-width:0.5;" x="777.6" xlink:href="#m467549b887" y="307.265294051"/>
      </g>
     </g>
    </g>
    <g id="ytick_12">
     <g id="line2d_73">
      <g>
       <use style="stroke:#000000;stroke-width:0.5;" x="108.0" xlink:href="#mee02c6d6f4" y="302.411368089"/>
      </g>
     </g>
     <g id="line2d_74">
      <g>
       <use style="stroke:#000000;stroke-width:0.5;" x="777.6" xlink:href="#m467549b887" y="302.411368089"/>
      </g>
     </g>
    </g>
    <g id="ytick_13">
     <g id="line2d_75">
      <g>
       <use style="stroke:#000000;stroke-width:0.5;" x="108.0" xlink:href="#mee02c6d6f4" y="298.12990196"/>
      </g>
     </g>
     <g id="line2d_76">
      <g>
       <use style="stroke:#000000;stroke-width:0.5;" x="777.6" xlink:href="#m467549b887" y="298.12990196"/>
      </g>
     </g>
    </g>
    <g id="ytick_14">
     <g id="line2d_77">
      <g>
       <use style="stroke:#000000;stroke-width:0.5;" x="108.0" xlink:href="#mee02c6d6f4" y="269.103789363"/>
      </g>
     </g>
     <g id="line2d_78">
      <g>
       <use style="stroke:#000000;stroke-width:0.5;" x="777.6" xlink:href="#m467549b887" y="269.103789363"/>
      </g>
     </g>
    </g>
    <g id="ytick_15">
     <g id="line2d_79">
      <g>
       <use style="stroke:#000000;stroke-width:0.5;" x="108.0" xlink:href="#mee02c6d6f4" y="254.36495098"/>
      </g>
     </g>
     <g id="line2d_80">
      <g>
       <use style="stroke:#000000;stroke-width:0.5;" x="777.6" xlink:href="#m467549b887" y="254.36495098"/>
      </g>
     </g>
    </g>
    <g id="ytick_16">
     <g id="line2d_81">
      <g>
       <use style="stroke:#000000;stroke-width:0.5;" x="108.0" xlink:href="#mee02c6d6f4" y="243.907578726"/>
      </g>
     </g>
     <g id="line2d_82">
      <g>
       <use style="stroke:#000000;stroke-width:0.5;" x="777.6" xlink:href="#m467549b887" y="243.907578726"/>
      </g>
     </g>
    </g>
    <g id="ytick_17">
     <g id="line2d_83">
      <g>
       <use style="stroke:#000000;stroke-width:0.5;" x="108.0" xlink:href="#mee02c6d6f4" y="235.796210637"/>
      </g>
     </g>
     <g id="line2d_84">
      <g>
       <use style="stroke:#000000;stroke-width:0.5;" x="777.6" xlink:href="#m467549b887" y="235.796210637"/>
      </g>
     </g>
    </g>
    <g id="ytick_18">
     <g id="line2d_85">
      <g>
       <use style="stroke:#000000;stroke-width:0.5;" x="108.0" xlink:href="#mee02c6d6f4" y="229.168740343"/>
      </g>
     </g>
     <g id="line2d_86">
      <g>
       <use style="stroke:#000000;stroke-width:0.5;" x="777.6" xlink:href="#m467549b887" y="229.168740343"/>
      </g>
     </g>
    </g>
    <g id="ytick_19">
     <g id="line2d_87">
      <g>
       <use style="stroke:#000000;stroke-width:0.5;" x="108.0" xlink:href="#mee02c6d6f4" y="223.565294051"/>
      </g>
     </g>
     <g id="line2d_88">
      <g>
       <use style="stroke:#000000;stroke-width:0.5;" x="777.6" xlink:href="#m467549b887" y="223.565294051"/>
      </g>
     </g>
    </g>
    <g id="ytick_20">
     <g id="line2d_89">
      <g>
       <use style="stroke:#000000;stroke-width:0.5;" x="108.0" xlink:href="#mee02c6d6f4" y="218.711368089"/>
      </g>
     </g>
     <g id="line2d_90">
      <g>
       <use style="stroke:#000000;stroke-width:0.5;" x="777.6" xlink:href="#m467549b887" y="218.711368089"/>
      </g>
     </g>
    </g>
    <g id="ytick_21">
     <g id="line2d_91">
      <g>
       <use style="stroke:#000000;stroke-width:0.5;" x="108.0" xlink:href="#mee02c6d6f4" y="214.42990196"/>
      </g>
     </g>
     <g id="line2d_92">
      <g>
       <use style="stroke:#000000;stroke-width:0.5;" x="777.6" xlink:href="#m467549b887" y="214.42990196"/>
      </g>
     </g>
    </g>
    <g id="ytick_22">
     <g id="line2d_93">
      <g>
       <use style="stroke:#000000;stroke-width:0.5;" x="108.0" xlink:href="#mee02c6d6f4" y="185.403789363"/>
      </g>
     </g>
     <g id="line2d_94">
      <g>
       <use style="stroke:#000000;stroke-width:0.5;" x="777.6" xlink:href="#m467549b887" y="185.403789363"/>
      </g>
     </g>
    </g>
    <g id="ytick_23">
     <g id="line2d_95">
      <g>
       <use style="stroke:#000000;stroke-width:0.5;" x="108.0" xlink:href="#mee02c6d6f4" y="170.66495098"/>
      </g>
     </g>
     <g id="line2d_96">
      <g>
       <use style="stroke:#000000;stroke-width:0.5;" x="777.6" xlink:href="#m467549b887" y="170.66495098"/>
      </g>
     </g>
    </g>
    <g id="ytick_24">
     <g id="line2d_97">
      <g>
       <use style="stroke:#000000;stroke-width:0.5;" x="108.0" xlink:href="#mee02c6d6f4" y="160.207578726"/>
      </g>
     </g>
     <g id="line2d_98">
      <g>
       <use style="stroke:#000000;stroke-width:0.5;" x="777.6" xlink:href="#m467549b887" y="160.207578726"/>
      </g>
     </g>
    </g>
    <g id="ytick_25">
     <g id="line2d_99">
      <g>
       <use style="stroke:#000000;stroke-width:0.5;" x="108.0" xlink:href="#mee02c6d6f4" y="152.096210637"/>
      </g>
     </g>
     <g id="line2d_100">
      <g>
       <use style="stroke:#000000;stroke-width:0.5;" x="777.6" xlink:href="#m467549b887" y="152.096210637"/>
      </g>
     </g>
    </g>
    <g id="ytick_26">
     <g id="line2d_101">
      <g>
       <use style="stroke:#000000;stroke-width:0.5;" x="108.0" xlink:href="#mee02c6d6f4" y="145.468740343"/>
      </g>
     </g>
     <g id="line2d_102">
      <g>
       <use style="stroke:#000000;stroke-width:0.5;" x="777.6" xlink:href="#m467549b887" y="145.468740343"/>
      </g>
     </g>
    </g>
    <g id="ytick_27">
     <g id="line2d_103">
      <g>
       <use style="stroke:#000000;stroke-width:0.5;" x="108.0" xlink:href="#mee02c6d6f4" y="139.865294051"/>
      </g>
     </g>
     <g id="line2d_104">
      <g>
       <use style="stroke:#000000;stroke-width:0.5;" x="777.6" xlink:href="#m467549b887" y="139.865294051"/>
      </g>
     </g>
    </g>
    <g id="ytick_28">
     <g id="line2d_105">
      <g>
       <use style="stroke:#000000;stroke-width:0.5;" x="108.0" xlink:href="#mee02c6d6f4" y="135.011368089"/>
      </g>
     </g>
     <g id="line2d_106">
      <g>
       <use style="stroke:#000000;stroke-width:0.5;" x="777.6" xlink:href="#m467549b887" y="135.011368089"/>
      </g>
     </g>
    </g>
    <g id="ytick_29">
     <g id="line2d_107">
      <g>
       <use style="stroke:#000000;stroke-width:0.5;" x="108.0" xlink:href="#mee02c6d6f4" y="130.72990196"/>
      </g>
     </g>
     <g id="line2d_108">
      <g>
       <use style="stroke:#000000;stroke-width:0.5;" x="777.6" xlink:href="#m467549b887" y="130.72990196"/>
      </g>
     </g>
    </g>
    <g id="ytick_30">
     <g id="line2d_109">
      <g>
       <use style="stroke:#000000;stroke-width:0.5;" x="108.0" xlink:href="#mee02c6d6f4" y="101.703789363"/>
      </g>
     </g>
     <g id="line2d_110">
      <g>
       <use style="stroke:#000000;stroke-width:0.5;" x="777.6" xlink:href="#m467549b887" y="101.703789363"/>
      </g>
     </g>
    </g>
    <g id="ytick_31">
     <g id="line2d_111">
      <g>
       <use style="stroke:#000000;stroke-width:0.5;" x="108.0" xlink:href="#mee02c6d6f4" y="86.96495098"/>
      </g>
     </g>
     <g id="line2d_112">
      <g>
       <use style="stroke:#000000;stroke-width:0.5;" x="777.6" xlink:href="#m467549b887" y="86.96495098"/>
      </g>
     </g>
    </g>
    <g id="ytick_32">
     <g id="line2d_113">
      <g>
       <use style="stroke:#000000;stroke-width:0.5;" x="108.0" xlink:href="#mee02c6d6f4" y="76.5075787258"/>
      </g>
     </g>
     <g id="line2d_114">
      <g>
       <use style="stroke:#000000;stroke-width:0.5;" x="777.6" xlink:href="#m467549b887" y="76.5075787258"/>
      </g>
     </g>
    </g>
    <g id="ytick_33">
     <g id="line2d_115">
      <g>
       <use style="stroke:#000000;stroke-width:0.5;" x="108.0" xlink:href="#mee02c6d6f4" y="68.3962106371"/>
      </g>
     </g>
     <g id="line2d_116">
      <g>
       <use style="stroke:#000000;stroke-width:0.5;" x="777.6" xlink:href="#m467549b887" y="68.3962106371"/>
      </g>
     </g>
    </g>
    <g id="ytick_34">
     <g id="line2d_117">
      <g>
       <use style="stroke:#000000;stroke-width:0.5;" x="108.0" xlink:href="#mee02c6d6f4" y="61.7687403429"/>
      </g>
     </g>
     <g id="line2d_118">
      <g>
       <use style="stroke:#000000;stroke-width:0.5;" x="777.6" xlink:href="#m467549b887" y="61.7687403429"/>
      </g>
     </g>
    </g>
    <g id="ytick_35">
     <g id="line2d_119">
      <g>
       <use style="stroke:#000000;stroke-width:0.5;" x="108.0" xlink:href="#mee02c6d6f4" y="56.1652940508"/>
      </g>
     </g>
     <g id="line2d_120">
      <g>
       <use style="stroke:#000000;stroke-width:0.5;" x="777.6" xlink:href="#m467549b887" y="56.1652940508"/>
      </g>
     </g>
    </g>
    <g id="ytick_36">
     <g id="line2d_121">
      <g>
       <use style="stroke:#000000;stroke-width:0.5;" x="108.0" xlink:href="#mee02c6d6f4" y="51.3113680888"/>
      </g>
     </g>
     <g id="line2d_122">
      <g>
       <use style="stroke:#000000;stroke-width:0.5;" x="777.6" xlink:href="#m467549b887" y="51.3113680888"/>
      </g>
     </g>
    </g>
    <g id="ytick_37">
     <g id="line2d_123">
      <g>
       <use style="stroke:#000000;stroke-width:0.5;" x="108.0" xlink:href="#mee02c6d6f4" y="47.0299019599"/>
      </g>
     </g>
     <g id="line2d_124">
      <g>
       <use style="stroke:#000000;stroke-width:0.5;" x="777.6" xlink:href="#m467549b887" y="47.0299019599"/>
      </g>
     </g>
    </g>
    <g id="text_11">
     <!-- The mighty Y axis -->
     <defs>
      <path d="M 4.984375 -4.296875 
L 13.53125 -5.5625 
Q 14.0625 -9.515625 16.5 -11.328125 
Q 19.78125 -13.765625 25.4375 -13.765625 
Q 31.546875 -13.765625 34.859375 -11.328125 
Q 38.1875 -8.890625 39.359375 -4.5 
Q 40.046875 -1.8125 39.984375 6.78125 
Q 34.234375 0 25.640625 0 
Q 14.9375 0 9.078125 7.71875 
Q 3.21875 15.4375 3.21875 26.21875 
Q 3.21875 33.640625 5.90625 39.90625 
Q 8.59375 46.1875 13.6875 49.609375 
Q 18.796875 53.03125 25.6875 53.03125 
Q 34.859375 53.03125 40.828125 45.609375 
L 40.828125 51.859375 
L 48.921875 51.859375 
L 48.921875 7.03125 
Q 48.921875 -5.078125 46.453125 -10.125 
Q 44 -15.1875 38.640625 -18.109375 
Q 33.296875 -21.046875 25.484375 -21.046875 
Q 16.21875 -21.046875 10.5 -16.875 
Q 4.78125 -12.703125 4.984375 -4.296875 
M 12.25 26.859375 
Q 12.25 16.65625 16.296875 11.96875 
Q 20.359375 7.28125 26.46875 7.28125 
Q 32.515625 7.28125 36.609375 11.9375 
Q 40.71875 16.609375 40.71875 26.5625 
Q 40.71875 36.078125 36.5 40.90625 
Q 32.28125 45.75 26.3125 45.75 
Q 20.453125 45.75 16.34375 40.984375 
Q 12.25 36.234375 12.25 26.859375 
" id="ArialMT-67"/>
      <path d="M 6.203125 -19.96875 
L 5.21875 -11.71875 
Q 8.109375 -12.5 10.25 -12.5 
Q 13.1875 -12.5 14.9375 -11.515625 
Q 16.703125 -10.546875 17.828125 -8.796875 
Q 18.65625 -7.46875 20.515625 -2.25 
Q 20.75 -1.515625 21.296875 -0.09375 
L 1.609375 51.859375 
L 11.078125 51.859375 
L 21.875 21.828125 
Q 23.96875 16.109375 25.640625 9.8125 
Q 27.15625 15.875 29.25 21.625 
L 40.328125 51.859375 
L 49.125 51.859375 
L 29.390625 -0.875 
Q 26.21875 -9.421875 24.46875 -12.640625 
Q 22.125 -17 19.09375 -19.015625 
Q 16.0625 -21.046875 11.859375 -21.046875 
Q 9.328125 -21.046875 6.203125 -19.96875 
" id="ArialMT-79"/>
      <path d="M 25.921875 0 
L 25.921875 63.140625 
L 2.34375 63.140625 
L 2.34375 71.578125 
L 59.078125 71.578125 
L 59.078125 63.140625 
L 35.40625 63.140625 
L 35.40625 0 
z
" id="ArialMT-54"/>
      <path d="M 6.59375 0 
L 6.59375 51.859375 
L 14.453125 51.859375 
L 14.453125 44.578125 
Q 16.890625 48.390625 20.9375 50.703125 
Q 25 53.03125 30.171875 53.03125 
Q 35.9375 53.03125 39.625 50.640625 
Q 43.3125 48.25 44.828125 43.953125 
Q 50.984375 53.03125 60.84375 53.03125 
Q 68.5625 53.03125 72.703125 48.75 
Q 76.859375 44.484375 76.859375 35.59375 
L 76.859375 0 
L 68.109375 0 
L 68.109375 32.671875 
Q 68.109375 37.9375 67.25 40.25 
Q 66.40625 42.578125 64.15625 43.984375 
Q 61.921875 45.40625 58.890625 45.40625 
Q 53.421875 45.40625 49.796875 41.765625 
Q 46.1875 38.140625 46.1875 30.125 
L 46.1875 0 
L 37.40625 0 
L 37.40625 33.6875 
Q 37.40625 39.546875 35.25 42.46875 
Q 33.109375 45.40625 28.21875 45.40625 
Q 24.515625 45.40625 21.359375 43.453125 
Q 18.21875 41.5 16.796875 37.734375 
Q 15.375 33.984375 15.375 26.90625 
L 15.375 0 
z
" id="ArialMT-6d"/>
      <path d="M 27.875 0 
L 27.875 30.328125 
L 0.296875 71.578125 
L 11.8125 71.578125 
L 25.921875 50 
Q 29.828125 43.953125 33.203125 37.890625 
Q 36.421875 43.5 41.015625 50.53125 
L 54.890625 71.578125 
L 65.921875 71.578125 
L 37.359375 30.328125 
L 37.359375 0 
z
" id="ArialMT-59"/>
     </defs>
     <g style="fill:#333333;" transform="translate(69.4525 274.1725)rotate(-90.0)scale(0.16 -0.16)">
      <use xlink:href="#ArialMT-54"/>
      <use x="61.083984375" xlink:href="#ArialMT-68"/>
      <use x="116.69921875" xlink:href="#ArialMT-65"/>
      <use x="172.314453125" xlink:href="#ArialMT-20"/>
      <use x="200.09765625" xlink:href="#ArialMT-6d"/>
      <use x="283.3984375" xlink:href="#ArialMT-69"/>
      <use x="305.615234375" xlink:href="#ArialMT-67"/>
      <use x="361.23046875" xlink:href="#ArialMT-68"/>
      <use x="416.845703125" xlink:href="#ArialMT-74"/>
      <use x="444.62890625" xlink:href="#ArialMT-79"/>
      <use x="494.62890625" xlink:href="#ArialMT-20"/>
      <use x="522.396484375" xlink:href="#ArialMT-59"/>
      <use x="589.080078125" xlink:href="#ArialMT-20"/>
      <use x="616.86328125" xlink:href="#ArialMT-61"/>
      <use x="672.478515625" xlink:href="#ArialMT-78"/>
      <use x="722.478515625" xlink:href="#ArialMT-69"/>
      <use x="744.6953125" xlink:href="#ArialMT-73"/>
     </g>
    </g>
   </g>
   <g id="text_12">
    <!-- Remember to set a good title -->
    <defs>
     <path d="M 7.859375 0 
L 7.859375 71.578125 
L 39.59375 71.578125 
Q 49.171875 71.578125 54.140625 69.640625 
Q 59.125 67.71875 62.109375 62.828125 
Q 65.09375 57.953125 65.09375 52.046875 
Q 65.09375 44.4375 60.15625 39.203125 
Q 55.21875 33.984375 44.921875 32.5625 
Q 48.6875 30.765625 50.640625 29 
Q 54.78125 25.203125 58.5 19.484375 
L 70.953125 0 
L 59.03125 0 
L 49.5625 14.890625 
Q 45.40625 21.34375 42.71875 24.75 
Q 40.046875 28.171875 37.921875 29.53125 
Q 35.796875 30.90625 33.59375 31.453125 
Q 31.984375 31.78125 28.328125 31.78125 
L 17.328125 31.78125 
L 17.328125 0 
z
M 17.328125 39.984375 
L 37.703125 39.984375 
Q 44.1875 39.984375 47.84375 41.328125 
Q 51.515625 42.671875 53.421875 45.625 
Q 55.328125 48.578125 55.328125 52.046875 
Q 55.328125 57.125 51.640625 60.390625 
Q 47.953125 63.671875 39.984375 63.671875 
L 17.328125 63.671875 
z
" id="ArialMT-52"/>
     <path d="M 14.703125 0 
L 6.546875 0 
L 6.546875 71.578125 
L 15.328125 71.578125 
L 15.328125 46.046875 
Q 20.90625 53.03125 29.546875 53.03125 
Q 34.328125 53.03125 38.59375 51.09375 
Q 42.875 49.171875 45.625 45.671875 
Q 48.390625 42.1875 49.953125 37.25 
Q 51.515625 32.328125 51.515625 26.703125 
Q 51.515625 13.375 44.921875 6.09375 
Q 38.328125 -1.171875 29.109375 -1.171875 
Q 19.921875 -1.171875 14.703125 6.5 
z
M 14.59375 26.3125 
Q 14.59375 17 17.140625 12.84375 
Q 21.296875 6.0625 28.375 6.0625 
Q 34.125 6.0625 38.328125 11.0625 
Q 42.53125 16.0625 42.53125 25.984375 
Q 42.53125 36.140625 38.5 40.96875 
Q 34.46875 45.796875 28.765625 45.796875 
Q 23 45.796875 18.796875 40.796875 
Q 14.59375 35.796875 14.59375 26.3125 
" id="ArialMT-62"/>
     <path d="M 40.234375 0 
L 40.234375 6.546875 
Q 35.296875 -1.171875 25.734375 -1.171875 
Q 19.53125 -1.171875 14.328125 2.25 
Q 9.125 5.671875 6.265625 11.796875 
Q 3.421875 17.921875 3.421875 25.875 
Q 3.421875 33.640625 6 39.96875 
Q 8.59375 46.296875 13.765625 49.65625 
Q 18.953125 53.03125 25.34375 53.03125 
Q 30.03125 53.03125 33.6875 51.046875 
Q 37.359375 49.078125 39.65625 45.90625 
L 39.65625 71.578125 
L 48.390625 71.578125 
L 48.390625 0 
z
M 12.453125 25.875 
Q 12.453125 15.921875 16.640625 10.984375 
Q 20.84375 6.0625 26.5625 6.0625 
Q 32.328125 6.0625 36.34375 10.765625 
Q 40.375 15.484375 40.375 25.140625 
Q 40.375 35.796875 36.265625 40.765625 
Q 32.171875 45.75 26.171875 45.75 
Q 20.3125 45.75 16.375 40.96875 
Q 12.453125 36.1875 12.453125 25.875 
" id="ArialMT-64"/>
    </defs>
    <g transform="translate(314.4109375 33.990625)scale(0.2 -0.2)">
     <use xlink:href="#ArialMT-52"/>
     <use x="72.216796875" xlink:href="#ArialMT-65"/>
     <use x="127.83203125" xlink:href="#ArialMT-6d"/>
     <use x="211.1328125" xlink:href="#ArialMT-65"/>
     <use x="266.748046875" xlink:href="#ArialMT-6d"/>
     <use x="350.048828125" xlink:href="#ArialMT-62"/>
     <use x="405.6640625" xlink:href="#ArialMT-65"/>
     <use x="461.279296875" xlink:href="#ArialMT-72"/>
     <use x="494.580078125" xlink:href="#ArialMT-20"/>
     <use x="522.36328125" xlink:href="#ArialMT-74"/>
     <use x="550.146484375" xlink:href="#ArialMT-6f"/>
     <use x="605.76171875" xlink:href="#ArialMT-20"/>
     <use x="633.544921875" xlink:href="#ArialMT-73"/>
     <use x="683.544921875" xlink:href="#ArialMT-65"/>
     <use x="739.16015625" xlink:href="#ArialMT-74"/>
     <use x="766.943359375" xlink:href="#ArialMT-20"/>
     <use x="794.7265625" xlink:href="#ArialMT-61"/>
     <use x="850.341796875" xlink:href="#ArialMT-20"/>
     <use x="878.125" xlink:href="#ArialMT-67"/>
     <use x="933.740234375" xlink:href="#ArialMT-6f"/>
     <use x="989.35546875" xlink:href="#ArialMT-6f"/>
     <use x="1044.970703125" xlink:href="#ArialMT-64"/>
     <use x="1100.5859375" xlink:href="#ArialMT-20"/>
     <use x="1128.369140625" xlink:href="#ArialMT-74"/>
     <use x="1156.15234375" xlink:href="#ArialMT-69"/>
     <use x="1178.369140625" xlink:href="#ArialMT-74"/>
     <use x="1206.15234375" xlink:href="#ArialMT-6c"/>
     <use x="1228.369140625" xlink:href="#ArialMT-65"/>
    </g>
   </g>
   <g id="legend_1">
    <g id="patch_7">
     <path d="M 664.162812 371 
L 770.6 371 
L 770.6 327.193125 
L 664.162812 327.193125 
z
" style="fill:#ffffff;stroke:#000000;stroke-linejoin:miter;"/>
    </g>
    <g id="LineCollection_4">
     <path d="M 683.762812 344.914062 
L 683.762812 330.914062 
" style="fill:none;stroke:#8080ff;stroke-opacity:0.7;stroke-width:2.0;"/>
    </g>
    <g id="line2d_125"/>
    <g id="line2d_126">
     <g>
      <use style="fill:#8080ff;fill-opacity:0.7;stroke:#191970;stroke-linejoin:miter;" x="683.7628125" xlink:href="#md7a2c18d36" y="337.9140625"/>
     </g>
    </g>
    <g id="text_13">
     <!-- Parabola -->
     <defs>
      <path d="M 7.71875 0 
L 7.71875 71.578125 
L 34.71875 71.578125 
Q 41.84375 71.578125 45.609375 70.90625 
Q 50.875 70.015625 54.4375 67.546875 
Q 58.015625 65.09375 60.1875 60.640625 
Q 62.359375 56.203125 62.359375 50.875 
Q 62.359375 41.75 56.546875 35.421875 
Q 50.734375 29.109375 35.546875 29.109375 
L 17.1875 29.109375 
L 17.1875 0 
z
M 17.1875 37.546875 
L 35.6875 37.546875 
Q 44.875 37.546875 48.734375 40.96875 
Q 52.59375 44.390625 52.59375 50.59375 
Q 52.59375 55.078125 50.3125 58.265625 
Q 48.046875 61.46875 44.34375 62.5 
Q 41.9375 63.140625 35.5 63.140625 
L 17.1875 63.140625 
z
" id="ArialMT-50"/>
     </defs>
     <g transform="translate(708.9628125 342.8140625)scale(0.14 -0.14)">
      <use xlink:href="#ArialMT-50"/>
      <use x="66.69921875" xlink:href="#ArialMT-61"/>
      <use x="122.314453125" xlink:href="#ArialMT-72"/>
      <use x="155.615234375" xlink:href="#ArialMT-61"/>
      <use x="211.23046875" xlink:href="#ArialMT-62"/>
      <use x="266.845703125" xlink:href="#ArialMT-6f"/>
      <use x="322.4609375" xlink:href="#ArialMT-6c"/>
      <use x="344.677734375" xlink:href="#ArialMT-61"/>
     </g>
    </g>
    <g id="LineCollection_5">
     <path d="M 676.762812 357.7175 
L 690.762812 357.7175 
" style="fill:none;stroke:#008000;stroke-opacity:0.5;"/>
    </g>
    <g id="LineCollection_6">
     <path d="M 683.762812 364.7175 
L 683.762812 350.7175 
" style="fill:none;stroke:#008000;stroke-opacity:0.5;"/>
    </g>
    <g id="line2d_127"/>
    <g id="line2d_128">
     <g>
      <use style="fill:#008000;opacity:0.5;stroke:#000000;stroke-linejoin:miter;stroke-width:0.5;" x="683.7628125" xlink:href="#m49134a8da3" y="357.7175"/>
     </g>
    </g>
    <g id="text_14">
     <!-- Sin -->
     <defs>
      <path d="M 6.59375 0 
L 6.59375 51.859375 
L 14.5 51.859375 
L 14.5 44.484375 
Q 20.21875 53.03125 31 53.03125 
Q 35.6875 53.03125 39.625 51.34375 
Q 43.5625 49.65625 45.515625 46.921875 
Q 47.46875 44.1875 48.25 40.4375 
Q 48.734375 37.984375 48.734375 31.890625 
L 48.734375 0 
L 39.9375 0 
L 39.9375 31.546875 
Q 39.9375 36.921875 38.90625 39.578125 
Q 37.890625 42.234375 35.28125 43.8125 
Q 32.671875 45.40625 29.15625 45.40625 
Q 23.53125 45.40625 19.453125 41.84375 
Q 15.375 38.28125 15.375 28.328125 
L 15.375 0 
z
" id="ArialMT-6e"/>
      <path d="M 4.5 23 
L 13.421875 23.78125 
Q 14.0625 18.40625 16.375 14.96875 
Q 18.703125 11.53125 23.578125 9.40625 
Q 28.46875 7.28125 34.578125 7.28125 
Q 39.984375 7.28125 44.140625 8.890625 
Q 48.296875 10.5 50.3125 13.296875 
Q 52.34375 16.109375 52.34375 19.4375 
Q 52.34375 22.796875 50.390625 25.3125 
Q 48.4375 27.828125 43.953125 29.546875 
Q 41.0625 30.671875 31.203125 33.03125 
Q 21.34375 35.40625 17.390625 37.5 
Q 12.25 40.1875 9.734375 44.15625 
Q 7.234375 48.140625 7.234375 53.078125 
Q 7.234375 58.5 10.296875 63.203125 
Q 13.375 67.921875 19.28125 70.359375 
Q 25.203125 72.796875 32.421875 72.796875 
Q 40.375 72.796875 46.453125 70.234375 
Q 52.546875 67.671875 55.8125 62.6875 
Q 59.078125 57.71875 59.328125 51.421875 
L 50.25 50.734375 
Q 49.515625 57.515625 45.28125 60.984375 
Q 41.0625 64.453125 32.8125 64.453125 
Q 24.21875 64.453125 20.28125 61.296875 
Q 16.359375 58.15625 16.359375 53.71875 
Q 16.359375 49.859375 19.140625 47.359375 
Q 21.875 44.875 33.421875 42.265625 
Q 44.96875 39.65625 49.265625 37.703125 
Q 55.515625 34.8125 58.484375 30.390625 
Q 61.46875 25.984375 61.46875 20.21875 
Q 61.46875 14.5 58.203125 9.4375 
Q 54.9375 4.390625 48.796875 1.578125 
Q 42.671875 -1.21875 35.015625 -1.21875 
Q 25.296875 -1.21875 18.71875 1.609375 
Q 12.15625 4.4375 8.421875 10.125 
Q 4.6875 15.828125 4.5 23 
" id="ArialMT-53"/>
     </defs>
     <g transform="translate(708.9628125 362.6175)scale(0.14 -0.14)">
      <use xlink:href="#ArialMT-53"/>
      <use x="66.69921875" xlink:href="#ArialMT-69"/>
      <use x="88.916015625" xlink:href="#ArialMT-6e"/>
     </g>
    </g>
   </g>
  </g>
 </g>
 <defs>
  <clipPath id="p5280a00248">
   <rect height="334.8" width="669.6" x="108.0" y="43.2"/>
  </clipPath>
 </defs>
</svg>
