<?xml version="1.0" encoding="utf-8" standalone="no"?>
<!DOCTYPE svg PUBLIC "-//W3C//DTD SVG 1.1//EN"
  "http://www.w3.org/Graphics/SVG/1.1/DTD/svg11.dtd">
<!-- Created with matplotlib (https://matplotlib.org/) -->
<svg height="250.458125pt" version="1.1" viewBox="0 0 914.2 250.458125" width="914.2pt" xmlns="http://www.w3.org/2000/svg" xmlns:xlink="http://www.w3.org/1999/xlink">
 <defs>
  <style type="text/css">
*{stroke-linecap:butt;stroke-linejoin:round;}
  </style>
 </defs>
 <g id="figure_1">
  <g id="patch_1">
   <path d="M 0 250.458125 
L 914.2 250.458125 
L 914.2 0 
L 0 0 
z
" style="fill:#ffffff;"/>
  </g>
  <g id="axes_1">
   <g id="patch_2">
    <path d="M 10.7 239.758125 
L 903.5 239.758125 
L 903.5 22.318125 
L 10.7 22.318125 
z
" style="fill:#ffffff;"/>
   </g>
   <g id="PolyCollection_1">
    <defs>
     <path d="M 10.7 -228.14 
L 10.7 -219.09466 
L 12.932 -220.342864 
L 15.164 -221.5734 
L 17.396 -222.762143 
L 19.628 -223.88546 
L 21.86 -224.920445 
L 24.092 -225.84515 
L 26.324 -226.638803 
L 28.556 -227.282021 
L 30.788 -227.757 
L 33.02 -228.0477 
L 35.252 -228.14 
L 37.484 -228.021846 
L 39.716 -227.68337 
L 41.948 -227.116988 
L 44.18 -226.317484 
L 46.412 -225.282056 
L 48.644 -224.01035 
L 50.876 -222.504461 
L 53.108 -220.76892 
L 55.34 -218.810643 
L 57.572 -216.638869 
L 59.804 -214.265064 
L 62.036 -211.702815 
L 64.268 -208.967685 
L 66.5 -206.077072 
L 68.732 -203.050023 
L 70.964 -199.907058 
L 73.196 -196.669953 
L 75.428 -193.361537 
L 77.66 -190.005453 
L 79.892 -186.625929 
L 82.124 -183.247537 
L 84.356 -179.894945 
L 86.588 -176.592674 
L 88.82 -173.364848 
L 91.052 -170.234959 
L 93.284 -167.22563 
L 95.516 -164.358385 
L 97.748 -161.653436 
L 99.98 -159.12948 
L 102.212 -156.803509 
L 104.444 -154.690636 
L 106.676 -152.803945 
L 108.908 -151.154353 
L 111.14 -149.750502 
L 113.372 -148.59866 
L 115.604 -147.702659 
L 117.836 -147.063847 
L 120.068 -146.681072 
L 122.3 -146.550676 
L 124.532 -146.666532 
L 126.764 -147.020088 
L 128.996 -147.600446 
L 131.228 -148.394454 
L 133.46 -149.386826 
L 135.692 -150.560278 
L 137.924 -151.895686 
L 140.156 -153.372258 
L 142.388 -154.967723 
L 144.62 -156.658535 
L 146.852 -158.420084 
L 149.084 -160.22692 
L 151.316 -162.052987 
L 153.548 -163.871853 
L 155.78 -165.656956 
L 158.012 -167.381836 
L 160.244 -169.02038 
L 162.476 -170.547055 
L 164.708 -171.937137 
L 166.94 -173.166936 
L 169.172 -174.214005 
L 171.404 -175.057353 
L 173.636 -175.677628 
L 175.868 -176.057298 
L 178.1 -176.180821 
L 180.332 -176.034786 
L 182.564 -175.608057 
L 184.796 -174.891884 
L 187.028 -173.880007 
L 189.26 -172.568744 
L 191.492 -170.957057 
L 193.724 -169.046609 
L 195.956 -166.841796 
L 198.188 -164.349769 
L 200.42 -161.580442 
L 202.652 -158.546475 
L 204.884 -155.263254 
L 207.116 -151.748839 
L 209.348 -148.023915 
L 211.58 -144.111705 
L 213.812 -140.037879 
L 216.044 -135.83044 
L 218.276 -131.519581 
L 220.508 -127.137531 
L 222.74 -122.718361 
L 224.972 -118.297772 
L 227.204 -113.912843 
L 229.436 -109.601749 
L 231.668 -105.403437 
L 233.9 -101.357265 
L 236.132 -97.502593 
L 238.364 -93.878335 
L 240.596 -90.522461 
L 242.828 -87.471459 
L 245.06 -84.759754 
L 247.292 -82.419091 
L 249.524 -80.477889 
L 251.756 -78.960574 
L 253.988 -77.886907 
L 256.22 -77.271318 
L 258.452 -77.122271 
L 260.684 -77.441673 
L 262.916 -78.224348 
L 265.148 -79.457624 
L 267.38 -81.121024 
L 269.612 -83.186115 
L 271.844 -85.616533 
L 274.076 -88.368201 
L 276.308 -91.389763 
L 278.54 -94.62326 
L 280.772 -98.00503 
L 283.004 -101.466861 
L 285.236 -104.937363 
L 287.468 -108.343552 
L 289.7 -111.612608 
L 291.932 -114.673764 
L 294.164 -117.460273 
L 296.396 -119.91139 
L 298.628 -121.974288 
L 300.86 -123.605841 
L 303.092 -124.774181 
L 305.324 -125.459956 
L 307.556 -125.65722 
L 309.788 -125.373869 
L 312.02 -124.631596 
L 314.252 -123.465321 
L 316.484 -121.922077 
L 318.716 -120.059388 
L 320.948 -117.943156 
L 323.18 -115.645134 
L 325.412 -113.240081 
L 327.644 -110.802703 
L 329.876 -108.404521 
L 332.108 -106.110799 
L 334.34 -103.977691 
L 336.572 -102.049755 
L 338.804 -100.357945 
L 341.036 -98.918233 
L 343.268 -97.730909 
L 345.5 -96.780644 
L 347.732 -96.037319 
L 349.964 -95.457589 
L 352.196 -94.987137 
L 354.428 -94.563494 
L 356.66 -94.119314 
L 358.892 -93.585911 
L 361.124 -92.896913 
L 363.356 -91.991823 
L 365.588 -90.819316 
L 367.82 -89.340096 
L 370.052 -87.529183 
L 372.284 -85.377494 
L 374.516 -82.892669 
L 376.748 -80.09909 
L 378.98 -77.037113 
L 381.212 -73.761563 
L 383.444 -70.339575 
L 385.676 -66.847919 
L 387.908 -63.369928 
L 390.14 -59.992212 
L 392.372 -56.801298 
L 394.604 -53.880372 
L 396.836 -51.306261 
L 399.068 -49.146777 
L 401.3 -47.458528 
L 403.532 -46.285261 
L 405.764 -45.656781 
L 407.996 -45.588444 
L 410.228 -46.081216 
L 412.46 -47.122244 
L 414.692 -48.685878 
L 416.924 -50.735056 
L 419.156 -53.222979 
L 421.388 -56.094956 
L 423.62 -59.290363 
L 425.852 -62.744596 
L 428.084 -66.39097 
L 430.316 -70.162483 
L 432.548 -73.993405 
L 434.78 -77.820656 
L 437.012 -81.584948 
L 439.244 -85.23169 
L 441.476 -88.711649 
L 443.708 -91.981396 
L 445.94 -95.00354 
L 448.172 -97.746789 
L 450.404 -100.185857 
L 452.636 -102.301256 
L 454.868 -104.078992 
L 457.1 -105.510204 
L 459.332 -106.590752 
L 461.564 -107.320805 
L 463.796 -107.704408 
L 466.028 -107.749077 
L 468.26 -107.465411 
L 470.492 -106.866728 
L 472.724 -105.968739 
L 474.956 -104.789248 
L 477.188 -103.347889 
L 479.42 -101.665885 
L 481.652 -99.76583 
L 483.884 -97.671495 
L 486.116 -95.407642 
L 488.348 -92.999848 
L 490.58 -90.47434 
L 492.812 -87.857817 
L 495.044 -85.177284 
L 497.276 -82.459868 
L 499.508 -79.732634 
L 501.74 -77.022388 
L 503.972 -74.355475 
L 506.204 -71.75756 
L 508.436 -69.253409 
L 510.668 -66.866657 
L 512.9 -64.619574 
L 515.132 -62.532827 
L 517.364 -60.625239 
L 519.596 -58.913562 
L 521.828 -57.412241 
L 524.06 -56.133206 
L 526.292 -55.08567 
L 528.524 -54.275949 
L 530.756 -53.707317 
L 532.988 -53.379883 
L 535.22 -53.290513 
L 537.452 -53.432797 
L 539.684 -53.797059 
L 541.916 -54.370439 
L 544.148 -55.137021 
L 546.38 -56.078036 
L 548.612 -57.172138 
L 550.844 -58.395748 
L 553.076 -59.72347 
L 555.308 -61.128582 
L 557.54 -62.583592 
L 559.772 -64.060849 
L 562.004 -65.533206 
L 564.236 -66.974705 
L 566.468 -68.361289 
L 568.7 -69.671493 
L 570.932 -70.887106 
L 573.164 -71.993768 
L 575.396 -72.981482 
L 577.628 -73.845 
L 579.86 -74.584057 
L 582.092 -75.203441 
L 584.324 -75.712853 
L 586.556 -76.126563 
L 588.788 -76.462849 
L 591.02 -76.743209 
L 593.252 -76.991381 
L 595.484 -77.232173 
L 597.716 -77.490163 
L 599.948 -77.788296 
L 602.18 -78.146445 
L 604.412 -78.580012 
L 606.644 -79.098626 
L 608.876 -79.705018 
L 611.108 -80.394154 
L 613.34 -81.152681 
L 615.572 -81.958747 
L 617.804 -82.782239 
L 620.036 -83.585457 
L 622.268 -84.324233 
L 624.5 -84.949464 
L 626.732 -85.409026 
L 628.964 -85.649984 
L 631.196 -85.621031 
L 633.428 -85.275025 
L 635.66 -84.571528 
L 637.892 -83.479209 
L 640.124 -81.977985 
L 642.356 -80.060796 
L 644.588 -77.734894 
L 646.82 -75.022581 
L 649.052 -71.961328 
L 651.284 -68.603241 
L 653.516 -65.013905 
L 655.748 -61.270608 
L 657.98 -57.460035 
L 660.212 -53.675525 
L 662.444 -50.013988 
L 664.676 -46.572642 
L 666.908 -43.445687 
L 669.14 -40.721078 
L 671.372 -38.477521 
L 673.604 -36.781826 
L 675.836 -35.686718 
L 678.068 -35.229196 
L 680.3 -35.429476 
L 682.532 -36.290576 
L 684.764 -37.798506 
L 686.996 -39.923062 
L 689.228 -42.619146 
L 691.46 -45.828554 
L 693.692 -49.48213 
L 695.924 -53.502182 
L 698.156 -57.805065 
L 700.388 -62.303807 
L 702.62 -66.910694 
L 704.852 -71.539703 
L 707.084 -76.108719 
L 709.316 -80.541469 
L 711.548 -84.769116 
L 713.78 -88.7315 
L 716.012 -92.378007 
L 718.244 -95.668059 
L 720.476 -98.571272 
L 722.708 -101.067277 
L 724.94 -103.145273 
L 727.172 -104.803343 
L 729.404 -106.047583 
L 731.636 -106.891108 
L 733.868 -107.352966 
L 736.1 -107.457023 
L 738.332 -107.230854 
L 740.564 -106.704681 
L 742.796 -105.910381 
L 745.028 -104.880601 
L 747.26 -103.647976 
L 749.492 -102.244484 
L 751.724 -100.700923 
L 753.956 -99.046512 
L 756.188 -97.308621 
L 758.42 -95.512606 
L 760.652 -93.681744 
L 762.884 -91.837248 
L 765.116 -89.99836 
L 767.348 -88.182482 
L 769.58 -86.405358 
L 771.812 -84.681268 
L 774.044 -83.023237 
L 776.276 -81.443237 
L 778.508 -79.952379 
L 780.74 -78.561089 
L 782.972 -77.279244 
L 785.204 -76.116293 
L 787.436 -75.081332 
L 789.668 -74.183157 
L 791.9 -73.43027 
L 794.132 -72.830865 
L 796.364 -72.39278 
L 798.596 -72.123421 
L 800.828 -72.029671 
L 803.06 -72.117781 
L 805.292 -72.393241 
L 807.524 -72.860658 
L 809.756 -73.523619 
L 811.988 -74.384562 
L 814.22 -75.444655 
L 816.452 -76.703682 
L 818.684 -78.159944 
L 820.916 -79.810175 
L 823.148 -81.649482 
L 825.38 -83.671299 
L 827.612 -85.867374 
L 829.844 -88.227766 
L 832.076 -90.74088 
L 834.308 -93.393515 
L 836.54 -96.170942 
L 838.772 -99.057004 
L 841.004 -102.034237 
L 843.236 -105.084009 
L 845.468 -108.186682 
L 847.7 -111.321786 
L 849.932 -114.468212 
L 852.164 -117.604409 
L 854.396 -120.7086 
L 856.628 -123.758997 
L 858.86 -126.734024 
L 861.092 -129.612536 
L 863.324 -132.374045 
L 865.556 -134.998931 
L 867.788 -137.468659 
L 870.02 -139.765972 
L 872.252 -141.875084 
L 874.484 -143.781858 
L 876.716 -145.473957 
L 878.948 -146.940992 
L 881.18 -148.174645 
L 883.412 -149.168763 
L 885.644 -149.919444 
L 887.876 -150.425092 
L 890.108 -150.686447 
L 892.34 -150.706598 
L 894.572 -150.490966 
L 896.804 -150.047262 
L 899.036 -149.38543 
L 901.268 -148.517554 
L 901.268 -228.14 
L 901.268 -228.14 
L 899.036 -228.14 
L 896.804 -228.14 
L 894.572 -228.14 
L 892.34 -228.14 
L 890.108 -228.14 
L 887.876 -228.14 
L 885.644 -228.14 
L 883.412 -228.14 
L 881.18 -228.14 
L 878.948 -228.14 
L 876.716 -228.14 
L 874.484 -228.14 
L 872.252 -228.14 
L 870.02 -228.14 
L 867.788 -228.14 
L 865.556 -228.14 
L 863.324 -228.14 
L 861.092 -228.14 
L 858.86 -228.14 
L 856.628 -228.14 
L 854.396 -228.14 
L 852.164 -228.14 
L 849.932 -228.14 
L 847.7 -228.14 
L 845.468 -228.14 
L 843.236 -228.14 
L 841.004 -228.14 
L 838.772 -228.14 
L 836.54 -228.14 
L 834.308 -228.14 
L 832.076 -228.14 
L 829.844 -228.14 
L 827.612 -228.14 
L 825.38 -228.14 
L 823.148 -228.14 
L 820.916 -228.14 
L 818.684 -228.14 
L 816.452 -228.14 
L 814.22 -228.14 
L 811.988 -228.14 
L 809.756 -228.14 
L 807.524 -228.14 
L 805.292 -228.14 
L 803.06 -228.14 
L 800.828 -228.14 
L 798.596 -228.14 
L 796.364 -228.14 
L 794.132 -228.14 
L 791.9 -228.14 
L 789.668 -228.14 
L 787.436 -228.14 
L 785.204 -228.14 
L 782.972 -228.14 
L 780.74 -228.14 
L 778.508 -228.14 
L 776.276 -228.14 
L 774.044 -228.14 
L 771.812 -228.14 
L 769.58 -228.14 
L 767.348 -228.14 
L 765.116 -228.14 
L 762.884 -228.14 
L 760.652 -228.14 
L 758.42 -228.14 
L 756.188 -228.14 
L 753.956 -228.14 
L 751.724 -228.14 
L 749.492 -228.14 
L 747.26 -228.14 
L 745.028 -228.14 
L 742.796 -228.14 
L 740.564 -228.14 
L 738.332 -228.14 
L 736.1 -228.14 
L 733.868 -228.14 
L 731.636 -228.14 
L 729.404 -228.14 
L 727.172 -228.14 
L 724.94 -228.14 
L 722.708 -228.14 
L 720.476 -228.14 
L 718.244 -228.14 
L 716.012 -228.14 
L 713.78 -228.14 
L 711.548 -228.14 
L 709.316 -228.14 
L 707.084 -228.14 
L 704.852 -228.14 
L 702.62 -228.14 
L 700.388 -228.14 
L 698.156 -228.14 
L 695.924 -228.14 
L 693.692 -228.14 
L 691.46 -228.14 
L 689.228 -228.14 
L 686.996 -228.14 
L 684.764 -228.14 
L 682.532 -228.14 
L 680.3 -228.14 
L 678.068 -228.14 
L 675.836 -228.14 
L 673.604 -228.14 
L 671.372 -228.14 
L 669.14 -228.14 
L 666.908 -228.14 
L 664.676 -228.14 
L 662.444 -228.14 
L 660.212 -228.14 
L 657.98 -228.14 
L 655.748 -228.14 
L 653.516 -228.14 
L 651.284 -228.14 
L 649.052 -228.14 
L 646.82 -228.14 
L 644.588 -228.14 
L 642.356 -228.14 
L 640.124 -228.14 
L 637.892 -228.14 
L 635.66 -228.14 
L 633.428 -228.14 
L 631.196 -228.14 
L 628.964 -228.14 
L 626.732 -228.14 
L 624.5 -228.14 
L 622.268 -228.14 
L 620.036 -228.14 
L 617.804 -228.14 
L 615.572 -228.14 
L 613.34 -228.14 
L 611.108 -228.14 
L 608.876 -228.14 
L 606.644 -228.14 
L 604.412 -228.14 
L 602.18 -228.14 
L 599.948 -228.14 
L 597.716 -228.14 
L 595.484 -228.14 
L 593.252 -228.14 
L 591.02 -228.14 
L 588.788 -228.14 
L 586.556 -228.14 
L 584.324 -228.14 
L 582.092 -228.14 
L 579.86 -228.14 
L 577.628 -228.14 
L 575.396 -228.14 
L 573.164 -228.14 
L 570.932 -228.14 
L 568.7 -228.14 
L 566.468 -228.14 
L 564.236 -228.14 
L 562.004 -228.14 
L 559.772 -228.14 
L 557.54 -228.14 
L 555.308 -228.14 
L 553.076 -228.14 
L 550.844 -228.14 
L 548.612 -228.14 
L 546.38 -228.14 
L 544.148 -228.14 
L 541.916 -228.14 
L 539.684 -228.14 
L 537.452 -228.14 
L 535.22 -228.14 
L 532.988 -228.14 
L 530.756 -228.14 
L 528.524 -228.14 
L 526.292 -228.14 
L 524.06 -228.14 
L 521.828 -228.14 
L 519.596 -228.14 
L 517.364 -228.14 
L 515.132 -228.14 
L 512.9 -228.14 
L 510.668 -228.14 
L 508.436 -228.14 
L 506.204 -228.14 
L 503.972 -228.14 
L 501.74 -228.14 
L 499.508 -228.14 
L 497.276 -228.14 
L 495.044 -228.14 
L 492.812 -228.14 
L 490.58 -228.14 
L 488.348 -228.14 
L 486.116 -228.14 
L 483.884 -228.14 
L 481.652 -228.14 
L 479.42 -228.14 
L 477.188 -228.14 
L 474.956 -228.14 
L 472.724 -228.14 
L 470.492 -228.14 
L 468.26 -228.14 
L 466.028 -228.14 
L 463.796 -228.14 
L 461.564 -228.14 
L 459.332 -228.14 
L 457.1 -228.14 
L 454.868 -228.14 
L 452.636 -228.14 
L 450.404 -228.14 
L 448.172 -228.14 
L 445.94 -228.14 
L 443.708 -228.14 
L 441.476 -228.14 
L 439.244 -228.14 
L 437.012 -228.14 
L 434.78 -228.14 
L 432.548 -228.14 
L 430.316 -228.14 
L 428.084 -228.14 
L 425.852 -228.14 
L 423.62 -228.14 
L 421.388 -228.14 
L 419.156 -228.14 
L 416.924 -228.14 
L 414.692 -228.14 
L 412.46 -228.14 
L 410.228 -228.14 
L 407.996 -228.14 
L 405.764 -228.14 
L 403.532 -228.14 
L 401.3 -228.14 
L 399.068 -228.14 
L 396.836 -228.14 
L 394.604 -228.14 
L 392.372 -228.14 
L 390.14 -228.14 
L 387.908 -228.14 
L 385.676 -228.14 
L 383.444 -228.14 
L 381.212 -228.14 
L 378.98 -228.14 
L 376.748 -228.14 
L 374.516 -228.14 
L 372.284 -228.14 
L 370.052 -228.14 
L 367.82 -228.14 
L 365.588 -228.14 
L 363.356 -228.14 
L 361.124 -228.14 
L 358.892 -228.14 
L 356.66 -228.14 
L 354.428 -228.14 
L 352.196 -228.14 
L 349.964 -228.14 
L 347.732 -228.14 
L 345.5 -228.14 
L 343.268 -228.14 
L 341.036 -228.14 
L 338.804 -228.14 
L 336.572 -228.14 
L 334.34 -228.14 
L 332.108 -228.14 
L 329.876 -228.14 
L 327.644 -228.14 
L 325.412 -228.14 
L 323.18 -228.14 
L 320.948 -228.14 
L 318.716 -228.14 
L 316.484 -228.14 
L 314.252 -228.14 
L 312.02 -228.14 
L 309.788 -228.14 
L 307.556 -228.14 
L 305.324 -228.14 
L 303.092 -228.14 
L 300.86 -228.14 
L 298.628 -228.14 
L 296.396 -228.14 
L 294.164 -228.14 
L 291.932 -228.14 
L 289.7 -228.14 
L 287.468 -228.14 
L 285.236 -228.14 
L 283.004 -228.14 
L 280.772 -228.14 
L 278.54 -228.14 
L 276.308 -228.14 
L 274.076 -228.14 
L 271.844 -228.14 
L 269.612 -228.14 
L 267.38 -228.14 
L 265.148 -228.14 
L 262.916 -228.14 
L 260.684 -228.14 
L 258.452 -228.14 
L 256.22 -228.14 
L 253.988 -228.14 
L 251.756 -228.14 
L 249.524 -228.14 
L 247.292 -228.14 
L 245.06 -228.14 
L 242.828 -228.14 
L 240.596 -228.14 
L 238.364 -228.14 
L 236.132 -228.14 
L 233.9 -228.14 
L 231.668 -228.14 
L 229.436 -228.14 
L 227.204 -228.14 
L 224.972 -228.14 
L 222.74 -228.14 
L 220.508 -228.14 
L 218.276 -228.14 
L 216.044 -228.14 
L 213.812 -228.14 
L 211.58 -228.14 
L 209.348 -228.14 
L 207.116 -228.14 
L 204.884 -228.14 
L 202.652 -228.14 
L 200.42 -228.14 
L 198.188 -228.14 
L 195.956 -228.14 
L 193.724 -228.14 
L 191.492 -228.14 
L 189.26 -228.14 
L 187.028 -228.14 
L 184.796 -228.14 
L 182.564 -228.14 
L 180.332 -228.14 
L 178.1 -228.14 
L 175.868 -228.14 
L 173.636 -228.14 
L 171.404 -228.14 
L 169.172 -228.14 
L 166.94 -228.14 
L 164.708 -228.14 
L 162.476 -228.14 
L 160.244 -228.14 
L 158.012 -228.14 
L 155.78 -228.14 
L 153.548 -228.14 
L 151.316 -228.14 
L 149.084 -228.14 
L 146.852 -228.14 
L 144.62 -228.14 
L 142.388 -228.14 
L 140.156 -228.14 
L 137.924 -228.14 
L 135.692 -228.14 
L 133.46 -228.14 
L 131.228 -228.14 
L 128.996 -228.14 
L 126.764 -228.14 
L 124.532 -228.14 
L 122.3 -228.14 
L 120.068 -228.14 
L 117.836 -228.14 
L 115.604 -228.14 
L 113.372 -228.14 
L 111.14 -228.14 
L 108.908 -228.14 
L 106.676 -228.14 
L 104.444 -228.14 
L 102.212 -228.14 
L 99.98 -228.14 
L 97.748 -228.14 
L 95.516 -228.14 
L 93.284 -228.14 
L 91.052 -228.14 
L 88.82 -228.14 
L 86.588 -228.14 
L 84.356 -228.14 
L 82.124 -228.14 
L 79.892 -228.14 
L 77.66 -228.14 
L 75.428 -228.14 
L 73.196 -228.14 
L 70.964 -228.14 
L 68.732 -228.14 
L 66.5 -228.14 
L 64.268 -228.14 
L 62.036 -228.14 
L 59.804 -228.14 
L 57.572 -228.14 
L 55.34 -228.14 
L 53.108 -228.14 
L 50.876 -228.14 
L 48.644 -228.14 
L 46.412 -228.14 
L 44.18 -228.14 
L 41.948 -228.14 
L 39.716 -228.14 
L 37.484 -228.14 
L 35.252 -228.14 
L 33.02 -228.14 
L 30.788 -228.14 
L 28.556 -228.14 
L 26.324 -228.14 
L 24.092 -228.14 
L 21.86 -228.14 
L 19.628 -228.14 
L 17.396 -228.14 
L 15.164 -228.14 
L 12.932 -228.14 
L 10.7 -228.14 
z
" id="mb5b4b218b8" style="stroke:#dddddd;"/>
    </defs>
    <g clip-path="url(#p6843362981)">
     <use style="fill:#dddddd;stroke:#dddddd;" x="0" xlink:href="#mb5b4b218b8" y="250.458125"/>
    </g>
   </g>
   <g id="PolyCollection_2">
    <defs>
     <path d="M 10.7 -194.565464 
L 10.7 -10.7 
L 12.932 -10.7 
L 15.164 -10.7 
L 17.396 -10.7 
L 19.628 -10.7 
L 21.86 -10.7 
L 24.092 -10.7 
L 26.324 -10.7 
L 28.556 -10.7 
L 30.788 -10.7 
L 33.02 -10.7 
L 35.252 -10.7 
L 37.484 -10.7 
L 39.716 -10.7 
L 41.948 -10.7 
L 44.18 -10.7 
L 46.412 -10.7 
L 48.644 -10.7 
L 50.876 -10.7 
L 53.108 -10.7 
L 55.34 -10.7 
L 57.572 -10.7 
L 59.804 -10.7 
L 62.036 -10.7 
L 64.268 -10.7 
L 66.5 -10.7 
L 68.732 -10.7 
L 70.964 -10.7 
L 73.196 -10.7 
L 75.428 -10.7 
L 77.66 -10.7 
L 79.892 -10.7 
L 82.124 -10.7 
L 84.356 -10.7 
L 86.588 -10.7 
L 88.82 -10.7 
L 91.052 -10.7 
L 93.284 -10.7 
L 95.516 -10.7 
L 97.748 -10.7 
L 99.98 -10.7 
L 102.212 -10.7 
L 104.444 -10.7 
L 106.676 -10.7 
L 108.908 -10.7 
L 111.14 -10.7 
L 113.372 -10.7 
L 115.604 -10.7 
L 117.836 -10.7 
L 120.068 -10.7 
L 122.3 -10.7 
L 124.532 -10.7 
L 126.764 -10.7 
L 128.996 -10.7 
L 131.228 -10.7 
L 133.46 -10.7 
L 135.692 -10.7 
L 137.924 -10.7 
L 140.156 -10.7 
L 142.388 -10.7 
L 144.62 -10.7 
L 146.852 -10.7 
L 149.084 -10.7 
L 151.316 -10.7 
L 153.548 -10.7 
L 155.78 -10.7 
L 158.012 -10.7 
L 160.244 -10.7 
L 162.476 -10.7 
L 164.708 -10.7 
L 166.94 -10.7 
L 169.172 -10.7 
L 171.404 -10.7 
L 173.636 -10.7 
L 175.868 -10.7 
L 178.1 -10.7 
L 180.332 -10.7 
L 182.564 -10.7 
L 184.796 -10.7 
L 187.028 -10.7 
L 189.26 -10.7 
L 191.492 -10.7 
L 193.724 -10.7 
L 195.956 -10.7 
L 198.188 -10.7 
L 200.42 -10.7 
L 202.652 -10.7 
L 204.884 -10.7 
L 207.116 -10.7 
L 209.348 -10.7 
L 211.58 -10.7 
L 213.812 -10.7 
L 216.044 -10.7 
L 218.276 -10.7 
L 220.508 -10.7 
L 222.74 -10.7 
L 224.972 -10.7 
L 227.204 -10.7 
L 229.436 -10.7 
L 231.668 -10.7 
L 233.9 -10.7 
L 236.132 -10.7 
L 238.364 -10.7 
L 240.596 -10.7 
L 242.828 -10.7 
L 245.06 -10.7 
L 247.292 -10.7 
L 249.524 -10.7 
L 251.756 -10.7 
L 253.988 -10.7 
L 256.22 -10.7 
L 258.452 -10.7 
L 260.684 -10.7 
L 262.916 -10.7 
L 265.148 -10.7 
L 267.38 -10.7 
L 269.612 -10.7 
L 271.844 -10.7 
L 274.076 -10.7 
L 276.308 -10.7 
L 278.54 -10.7 
L 280.772 -10.7 
L 283.004 -10.7 
L 285.236 -10.7 
L 287.468 -10.7 
L 289.7 -10.7 
L 291.932 -10.7 
L 294.164 -10.7 
L 296.396 -10.7 
L 298.628 -10.7 
L 300.86 -10.7 
L 303.092 -10.7 
L 305.324 -10.7 
L 307.556 -10.7 
L 309.788 -10.7 
L 312.02 -10.7 
L 314.252 -10.7 
L 316.484 -10.7 
L 318.716 -10.7 
L 320.948 -10.7 
L 323.18 -10.7 
L 325.412 -10.7 
L 327.644 -10.7 
L 329.876 -10.7 
L 332.108 -10.7 
L 334.34 -10.7 
L 336.572 -10.7 
L 338.804 -10.7 
L 341.036 -10.7 
L 343.268 -10.7 
L 345.5 -10.7 
L 347.732 -10.7 
L 349.964 -10.7 
L 352.196 -10.7 
L 354.428 -10.7 
L 356.66 -10.7 
L 358.892 -10.7 
L 361.124 -10.7 
L 363.356 -10.7 
L 365.588 -10.7 
L 367.82 -10.7 
L 370.052 -10.7 
L 372.284 -10.7 
L 374.516 -10.7 
L 376.748 -10.7 
L 378.98 -10.7 
L 381.212 -10.7 
L 383.444 -10.7 
L 385.676 -10.7 
L 387.908 -10.7 
L 390.14 -10.7 
L 392.372 -10.7 
L 394.604 -10.7 
L 396.836 -10.7 
L 399.068 -10.7 
L 401.3 -10.7 
L 403.532 -10.7 
L 405.764 -10.7 
L 407.996 -10.7 
L 410.228 -10.7 
L 412.46 -10.7 
L 414.692 -10.7 
L 416.924 -10.7 
L 419.156 -10.7 
L 421.388 -10.7 
L 423.62 -10.7 
L 425.852 -10.7 
L 428.084 -10.7 
L 430.316 -10.7 
L 432.548 -10.7 
L 434.78 -10.7 
L 437.012 -10.7 
L 439.244 -10.7 
L 441.476 -10.7 
L 443.708 -10.7 
L 445.94 -10.7 
L 448.172 -10.7 
L 450.404 -10.7 
L 452.636 -10.7 
L 454.868 -10.7 
L 457.1 -10.7 
L 459.332 -10.7 
L 461.564 -10.7 
L 463.796 -10.7 
L 466.028 -10.7 
L 468.26 -10.7 
L 470.492 -10.7 
L 472.724 -10.7 
L 474.956 -10.7 
L 477.188 -10.7 
L 479.42 -10.7 
L 481.652 -10.7 
L 483.884 -10.7 
L 486.116 -10.7 
L 488.348 -10.7 
L 490.58 -10.7 
L 492.812 -10.7 
L 495.044 -10.7 
L 497.276 -10.7 
L 499.508 -10.7 
L 501.74 -10.7 
L 503.972 -10.7 
L 506.204 -10.7 
L 508.436 -10.7 
L 510.668 -10.7 
L 512.9 -10.7 
L 515.132 -10.7 
L 517.364 -10.7 
L 519.596 -10.7 
L 521.828 -10.7 
L 524.06 -10.7 
L 526.292 -10.7 
L 528.524 -10.7 
L 530.756 -10.7 
L 532.988 -10.7 
L 535.22 -10.7 
L 537.452 -10.7 
L 539.684 -10.7 
L 541.916 -10.7 
L 544.148 -10.7 
L 546.38 -10.7 
L 548.612 -10.7 
L 550.844 -10.7 
L 553.076 -10.7 
L 555.308 -10.7 
L 557.54 -10.7 
L 559.772 -10.7 
L 562.004 -10.7 
L 564.236 -10.7 
L 566.468 -10.7 
L 568.7 -10.7 
L 570.932 -10.7 
L 573.164 -10.7 
L 575.396 -10.7 
L 577.628 -10.7 
L 579.86 -10.7 
L 582.092 -10.7 
L 584.324 -10.7 
L 586.556 -10.7 
L 588.788 -10.7 
L 591.02 -10.7 
L 593.252 -10.7 
L 595.484 -10.7 
L 597.716 -10.7 
L 599.948 -10.7 
L 602.18 -10.7 
L 604.412 -10.7 
L 606.644 -10.7 
L 608.876 -10.7 
L 611.108 -10.7 
L 613.34 -10.7 
L 615.572 -10.7 
L 617.804 -10.7 
L 620.036 -10.7 
L 622.268 -10.7 
L 624.5 -10.7 
L 626.732 -10.7 
L 628.964 -10.7 
L 631.196 -10.7 
L 633.428 -10.7 
L 635.66 -10.7 
L 637.892 -10.7 
L 640.124 -10.7 
L 642.356 -10.7 
L 644.588 -10.7 
L 646.82 -10.7 
L 649.052 -10.7 
L 651.284 -10.7 
L 653.516 -10.7 
L 655.748 -10.7 
L 657.98 -10.7 
L 660.212 -10.7 
L 662.444 -10.7 
L 664.676 -10.7 
L 666.908 -10.7 
L 669.14 -10.7 
L 671.372 -10.7 
L 673.604 -10.7 
L 675.836 -10.7 
L 678.068 -10.7 
L 680.3 -10.7 
L 682.532 -10.7 
L 684.764 -10.7 
L 686.996 -10.7 
L 689.228 -10.7 
L 691.46 -10.7 
L 693.692 -10.7 
L 695.924 -10.7 
L 698.156 -10.7 
L 700.388 -10.7 
L 702.62 -10.7 
L 704.852 -10.7 
L 707.084 -10.7 
L 709.316 -10.7 
L 711.548 -10.7 
L 713.78 -10.7 
L 716.012 -10.7 
L 718.244 -10.7 
L 720.476 -10.7 
L 722.708 -10.7 
L 724.94 -10.7 
L 727.172 -10.7 
L 729.404 -10.7 
L 731.636 -10.7 
L 733.868 -10.7 
L 736.1 -10.7 
L 738.332 -10.7 
L 740.564 -10.7 
L 742.796 -10.7 
L 745.028 -10.7 
L 747.26 -10.7 
L 749.492 -10.7 
L 751.724 -10.7 
L 753.956 -10.7 
L 756.188 -10.7 
L 758.42 -10.7 
L 760.652 -10.7 
L 762.884 -10.7 
L 765.116 -10.7 
L 767.348 -10.7 
L 769.58 -10.7 
L 771.812 -10.7 
L 774.044 -10.7 
L 776.276 -10.7 
L 778.508 -10.7 
L 780.74 -10.7 
L 782.972 -10.7 
L 785.204 -10.7 
L 787.436 -10.7 
L 789.668 -10.7 
L 791.9 -10.7 
L 794.132 -10.7 
L 796.364 -10.7 
L 798.596 -10.7 
L 800.828 -10.7 
L 803.06 -10.7 
L 805.292 -10.7 
L 807.524 -10.7 
L 809.756 -10.7 
L 811.988 -10.7 
L 814.22 -10.7 
L 816.452 -10.7 
L 818.684 -10.7 
L 820.916 -10.7 
L 823.148 -10.7 
L 825.38 -10.7 
L 827.612 -10.7 
L 829.844 -10.7 
L 832.076 -10.7 
L 834.308 -10.7 
L 836.54 -10.7 
L 838.772 -10.7 
L 841.004 -10.7 
L 843.236 -10.7 
L 845.468 -10.7 
L 847.7 -10.7 
L 849.932 -10.7 
L 852.164 -10.7 
L 854.396 -10.7 
L 856.628 -10.7 
L 858.86 -10.7 
L 861.092 -10.7 
L 863.324 -10.7 
L 865.556 -10.7 
L 867.788 -10.7 
L 870.02 -10.7 
L 872.252 -10.7 
L 874.484 -10.7 
L 876.716 -10.7 
L 878.948 -10.7 
L 881.18 -10.7 
L 883.412 -10.7 
L 885.644 -10.7 
L 887.876 -10.7 
L 890.108 -10.7 
L 892.34 -10.7 
L 894.572 -10.7 
L 896.804 -10.7 
L 899.036 -10.7 
L 901.268 -10.7 
L 901.268 -123.988358 
L 901.268 -123.988358 
L 899.036 -124.856234 
L 896.804 -125.518066 
L 894.572 -125.96177 
L 892.34 -126.177403 
L 890.108 -126.157251 
L 887.876 -125.895896 
L 885.644 -125.390248 
L 883.412 -124.639567 
L 881.18 -123.645449 
L 878.948 -122.411797 
L 876.716 -120.944761 
L 874.484 -119.252662 
L 872.252 -117.345889 
L 870.02 -115.236776 
L 867.788 -112.939463 
L 865.556 -110.469735 
L 863.324 -107.844849 
L 861.092 -105.08334 
L 858.86 -102.204828 
L 856.628 -99.229801 
L 854.396 -96.179404 
L 852.164 -93.075213 
L 849.932 -89.939016 
L 847.7 -86.792591 
L 845.468 -83.657486 
L 843.236 -80.554814 
L 841.004 -77.505042 
L 838.772 -74.527809 
L 836.54 -71.641746 
L 834.308 -68.864319 
L 832.076 -66.211684 
L 829.844 -63.69857 
L 827.612 -61.338178 
L 825.38 -59.142103 
L 823.148 -57.120286 
L 820.916 -55.280979 
L 818.684 -53.630748 
L 816.452 -52.174487 
L 814.22 -50.915459 
L 811.988 -49.855366 
L 809.756 -48.994423 
L 807.524 -48.331462 
L 805.292 -47.864045 
L 803.06 -47.588585 
L 800.828 -47.500475 
L 798.596 -47.594225 
L 796.364 -47.863584 
L 794.132 -48.301669 
L 791.9 -48.901074 
L 789.668 -49.653961 
L 787.436 -50.552136 
L 785.204 -51.587097 
L 782.972 -52.750048 
L 780.74 -54.031893 
L 778.508 -55.423184 
L 776.276 -56.914041 
L 774.044 -58.494041 
L 771.812 -60.152073 
L 769.58 -61.876162 
L 767.348 -63.653286 
L 765.116 -65.469164 
L 762.884 -67.308052 
L 760.652 -69.152548 
L 758.42 -70.98341 
L 756.188 -72.779425 
L 753.956 -74.517316 
L 751.724 -76.171727 
L 749.492 -77.715288 
L 747.26 -79.11878 
L 745.028 -80.351405 
L 742.796 -81.381185 
L 740.564 -82.175485 
L 738.332 -82.701658 
L 736.1 -82.927827 
L 733.868 -82.82377 
L 731.636 -82.361912 
L 729.404 -81.518387 
L 727.172 -80.274147 
L 724.94 -78.616078 
L 722.708 -76.538082 
L 720.476 -74.042077 
L 718.244 -71.138864 
L 716.012 -67.848811 
L 713.78 -64.202304 
L 711.548 -60.23992 
L 709.316 -56.012273 
L 707.084 -51.579523 
L 704.852 -47.010507 
L 702.62 -42.381498 
L 700.388 -37.774611 
L 698.156 -33.275869 
L 695.924 -28.972986 
L 693.692 -24.952934 
L 691.46 -21.299359 
L 689.228 -18.08995 
L 686.996 -15.393866 
L 684.764 -13.26931 
L 682.532 -11.76138 
L 680.3 -10.90028 
L 678.068 -10.7 
L 675.836 -11.157523 
L 673.604 -12.25263 
L 671.372 -13.948325 
L 669.14 -16.191882 
L 666.908 -18.916491 
L 664.676 -22.043446 
L 662.444 -25.484792 
L 660.212 -29.146329 
L 657.98 -32.930839 
L 655.748 -36.741412 
L 653.516 -40.484709 
L 651.284 -44.074045 
L 649.052 -47.432132 
L 646.82 -50.493386 
L 644.588 -53.205698 
L 642.356 -55.5316 
L 640.124 -57.44879 
L 637.892 -58.950013 
L 635.66 -60.042332 
L 633.428 -60.745829 
L 631.196 -61.091835 
L 628.964 -61.120789 
L 626.732 -60.87983 
L 624.5 -60.420269 
L 622.268 -59.795037 
L 620.036 -59.056261 
L 617.804 -58.253043 
L 615.572 -57.429551 
L 613.34 -56.623485 
L 611.108 -55.864958 
L 608.876 -55.175822 
L 606.644 -54.56943 
L 604.412 -54.050816 
L 602.18 -53.617249 
L 599.948 -53.2591 
L 597.716 -52.960968 
L 595.484 -52.702977 
L 593.252 -52.462185 
L 591.02 -52.214013 
L 588.788 -51.933653 
L 586.556 -51.597367 
L 584.324 -51.183657 
L 582.092 -50.674245 
L 579.86 -50.054861 
L 577.628 -49.315804 
L 575.396 -48.452287 
L 573.164 -47.464572 
L 570.932 -46.35791 
L 568.7 -45.142297 
L 566.468 -43.832093 
L 564.236 -42.445509 
L 562.004 -41.00401 
L 559.772 -39.531654 
L 557.54 -38.054396 
L 555.308 -36.599386 
L 553.076 -35.194274 
L 550.844 -33.866552 
L 548.612 -32.642943 
L 546.38 -31.54884 
L 544.148 -30.607825 
L 541.916 -29.841243 
L 539.684 -29.267863 
L 537.452 -28.903601 
L 535.22 -28.761318 
L 532.988 -28.850687 
L 530.756 -29.178121 
L 528.524 -29.746753 
L 526.292 -30.556474 
L 524.06 -31.60401 
L 521.828 -32.883045 
L 519.596 -34.384366 
L 517.364 -36.096044 
L 515.132 -38.003631 
L 512.9 -40.090378 
L 510.668 -42.337461 
L 508.436 -44.724213 
L 506.204 -47.228364 
L 503.972 -49.826279 
L 501.74 -52.493192 
L 499.508 -55.203438 
L 497.276 -57.930672 
L 495.044 -60.648088 
L 492.812 -63.328622 
L 490.58 -65.945144 
L 488.348 -68.470653 
L 486.116 -70.878446 
L 483.884 -73.142299 
L 481.652 -75.236634 
L 479.42 -77.136689 
L 477.188 -78.818693 
L 474.956 -80.260052 
L 472.724 -81.439543 
L 470.492 -82.337533 
L 468.26 -82.936216 
L 466.028 -83.219882 
L 463.796 -83.175212 
L 461.564 -82.791609 
L 459.332 -82.061556 
L 457.1 -80.981008 
L 454.868 -79.549796 
L 452.636 -77.77206 
L 450.404 -75.656661 
L 448.172 -73.217593 
L 445.94 -70.474344 
L 443.708 -67.4522 
L 441.476 -64.182453 
L 439.244 -60.702494 
L 437.012 -57.055752 
L 434.78 -53.29146 
L 432.548 -49.464209 
L 430.316 -45.633287 
L 428.084 -41.861775 
L 425.852 -38.2154 
L 423.62 -34.761167 
L 421.388 -31.56576 
L 419.156 -28.693783 
L 416.924 -26.20586 
L 414.692 -24.156682 
L 412.46 -22.593048 
L 410.228 -21.55202 
L 407.996 -21.059248 
L 405.764 -21.127586 
L 403.532 -21.756065 
L 401.3 -22.929332 
L 399.068 -24.617581 
L 396.836 -26.777065 
L 394.604 -29.351176 
L 392.372 -32.272102 
L 390.14 -35.463016 
L 387.908 -38.840732 
L 385.676 -42.318723 
L 383.444 -45.810379 
L 381.212 -49.232367 
L 378.98 -52.507918 
L 376.748 -55.569894 
L 374.516 -58.363473 
L 372.284 -60.848298 
L 370.052 -62.999987 
L 367.82 -64.810901 
L 365.588 -66.29012 
L 363.356 -67.462627 
L 361.124 -68.367717 
L 358.892 -69.056715 
L 356.66 -69.590118 
L 354.428 -70.034298 
L 352.196 -70.457941 
L 349.964 -70.928394 
L 347.732 -71.508123 
L 345.5 -72.251449 
L 343.268 -73.201713 
L 341.036 -74.389037 
L 338.804 -75.828749 
L 336.572 -77.520559 
L 334.34 -79.448495 
L 332.108 -81.581603 
L 329.876 -83.875325 
L 327.644 -86.273508 
L 325.412 -88.710885 
L 323.18 -91.115938 
L 320.948 -93.41396 
L 318.716 -95.530193 
L 316.484 -97.392881 
L 314.252 -98.936125 
L 312.02 -100.102401 
L 309.788 -100.844673 
L 307.556 -101.128024 
L 305.324 -100.93076 
L 303.092 -100.244985 
L 300.86 -99.076645 
L 298.628 -97.445092 
L 296.396 -95.382194 
L 294.164 -92.931077 
L 291.932 -90.144568 
L 289.7 -87.083412 
L 287.468 -83.814357 
L 285.236 -80.408167 
L 283.004 -76.937665 
L 280.772 -73.475834 
L 278.54 -70.094064 
L 276.308 -66.860567 
L 274.076 -63.839005 
L 271.844 -61.087338 
L 269.612 -58.656919 
L 267.38 -56.591828 
L 265.148 -54.928428 
L 262.916 -53.695152 
L 260.684 -52.912477 
L 258.452 -52.593076 
L 256.22 -52.742122 
L 253.988 -53.357711 
L 251.756 -54.431378 
L 249.524 -55.948694 
L 247.292 -57.889896 
L 245.06 -60.230558 
L 242.828 -62.942263 
L 240.596 -65.993265 
L 238.364 -69.349139 
L 236.132 -72.973397 
L 233.9 -76.828069 
L 231.668 -80.874241 
L 229.436 -85.072553 
L 227.204 -89.383647 
L 224.972 -93.768576 
L 222.74 -98.189165 
L 220.508 -102.608335 
L 218.276 -106.990385 
L 216.044 -111.301244 
L 213.812 -115.508683 
L 211.58 -119.582509 
L 209.348 -123.494719 
L 207.116 -127.219644 
L 204.884 -130.734058 
L 202.652 -134.017279 
L 200.42 -137.051246 
L 198.188 -139.820573 
L 195.956 -142.3126 
L 193.724 -144.517413 
L 191.492 -146.427861 
L 189.26 -148.039548 
L 187.028 -149.350811 
L 184.796 -150.362688 
L 182.564 -151.078862 
L 180.332 -151.505591 
L 178.1 -151.651625 
L 175.868 -151.528102 
L 173.636 -151.148432 
L 171.404 -150.528157 
L 169.172 -149.684809 
L 166.94 -148.63774 
L 164.708 -147.407942 
L 162.476 -146.01786 
L 160.244 -144.491184 
L 158.012 -142.85264 
L 155.78 -141.12776 
L 153.548 -139.342657 
L 151.316 -137.523791 
L 149.084 -135.697724 
L 146.852 -133.890888 
L 144.62 -132.129339 
L 142.388 -130.438527 
L 140.156 -128.843062 
L 137.924 -127.36649 
L 135.692 -126.031082 
L 133.46 -124.85763 
L 131.228 -123.865258 
L 128.996 -123.07125 
L 126.764 -122.490892 
L 124.532 -122.137336 
L 122.3 -122.02148 
L 120.068 -122.151876 
L 117.836 -122.534652 
L 115.604 -123.173463 
L 113.372 -124.069464 
L 111.14 -125.221306 
L 108.908 -126.625158 
L 106.676 -128.274749 
L 104.444 -130.16144 
L 102.212 -132.274313 
L 99.98 -134.600284 
L 97.748 -137.12424 
L 95.516 -139.829189 
L 93.284 -142.696434 
L 91.052 -145.705763 
L 88.82 -148.835652 
L 86.588 -152.063478 
L 84.356 -155.36575 
L 82.124 -158.718341 
L 79.892 -162.096733 
L 77.66 -165.476257 
L 75.428 -168.832341 
L 73.196 -172.140758 
L 70.964 -175.377862 
L 68.732 -178.520828 
L 66.5 -181.547876 
L 64.268 -184.438489 
L 62.036 -187.173619 
L 59.804 -189.735869 
L 57.572 -192.109673 
L 55.34 -194.281447 
L 53.108 -196.239724 
L 50.876 -197.975265 
L 48.644 -199.481154 
L 46.412 -200.75286 
L 44.18 -201.788289 
L 41.948 -202.587793 
L 39.716 -203.154174 
L 37.484 -203.49265 
L 35.252 -203.610804 
L 33.02 -203.518504 
L 30.788 -203.227804 
L 28.556 -202.752825 
L 26.324 -202.109607 
L 24.092 -201.315954 
L 21.86 -200.391249 
L 19.628 -199.356264 
L 17.396 -198.232947 
L 15.164 -197.044204 
L 12.932 -195.813668 
L 10.7 -194.565464 
z
" id="meefbc169eb" style="stroke:#dddddd;"/>
    </defs>
    <g clip-path="url(#p6843362981)">
     <use style="fill:#dddddd;stroke:#dddddd;" x="0" xlink:href="#meefbc169eb" y="250.458125"/>
    </g>
   </g>
   <g id="matplotlib.axis_1"/>
   <g id="matplotlib.axis_2"/>
   <g id="line2d_1">
    <path clip-path="url(#p6843362981)" d="M 10.7 43.628063 
L 12.932 43.505978 
L 15.164 43.144008 
L 17.396 42.55419 
L 19.628 41.755876 
L 21.86 40.776494 
L 24.092 39.652106 
L 26.324 38.427413 
L 28.556 37.154844 
L 30.788 35.892505 
L 33.02 34.701055 
L 35.252 33.640032 
L 37.484 32.764412 
L 39.716 32.122083 
L 41.948 31.75261 
L 44.18 31.687171 
L 46.412 31.949327 
L 48.644 32.556203 
L 50.876 33.519754 
L 53.108 34.847947 
L 55.34 36.54574 
L 57.572 38.615871 
L 59.804 41.059438 
L 62.036 43.876318 
L 64.268 47.065431 
L 66.5 50.62485 
L 68.732 54.551771 
L 70.964 58.842302 
L 73.196 63.491025 
L 75.428 68.490273 
L 77.66 73.829011 
L 79.892 79.491224 
L 82.124 85.453698 
" style="fill:none;stroke:#471365;stroke-linecap:square;stroke-opacity:0.5;stroke-width:1.5;"/>
   </g>
   <g id="line2d_2">
    <path clip-path="url(#p6843362981)" d="M 10.7 43.628063 
L 12.932 43.622553 
L 15.164 43.583303 
L 17.396 43.467062 
L 19.628 43.236412 
L 21.86 42.862516 
L 24.092 42.327339 
L 26.324 41.625255 
L 28.556 40.763955 
L 30.788 39.764623 
L 33.02 38.661355 
L 35.252 37.499762 
L 37.484 36.334811 
L 39.716 35.228031 
L 41.948 34.244363 
L 44.18 33.44902 
L 46.412 32.904681 
L 48.644 32.669279 
L 50.876 32.794456 
L 53.108 33.324651 
L 55.34 34.296701 
L 57.572 35.739785 
L 59.804 37.675538 
L 62.036 40.118178 
L 64.268 43.074537 
L 66.5 46.543877 
L 68.732 50.517421 
L 70.964 54.977538 
L 73.196 59.896551 
L 75.428 65.235196 
L 77.66 70.940905 
L 79.892 76.946268 
L 82.124 83.168299 
" style="fill:none;stroke:#471365;stroke-linecap:square;stroke-opacity:0.5;stroke-width:1.5;"/>
   </g>
   <g id="line2d_3">
    <path clip-path="url(#p6843362981)" d="M 10.7 43.628063 
L 12.932 43.50422 
L 15.164 43.129175 
L 17.396 42.500172 
L 19.628 41.623932 
L 21.86 40.518363 
L 24.092 39.213843 
L 26.324 37.75374 
L 28.556 36.193785 
L 30.788 34.599937 
L 33.02 33.044728 
L 35.252 31.602512 
L 37.484 30.34459 
L 39.716 29.33527 
L 41.948 28.629566 
L 44.18 28.272567 
L 46.412 28.300058 
L 48.644 28.739787 
L 50.876 29.612912 
L 53.108 30.935313 
L 55.34 32.71867 
L 57.572 34.971239 
L 59.804 37.698359 
L 62.036 40.902699 
L 64.268 44.584241 
L 66.5 48.739972 
L 68.732 53.363224 
L 70.964 58.442536 
L 73.196 63.959864 
L 75.428 69.887936 
L 77.66 76.186612 
" style="fill:none;stroke:#482576;stroke-linecap:square;stroke-opacity:0.5;stroke-width:1.5;"/>
   </g>
   <g id="line2d_4">
    <path clip-path="url(#p6843362981)" d="M 10.7 43.628063 
L 12.932 43.517512 
L 15.164 43.184438 
L 17.396 42.630321 
L 19.628 41.865837 
L 21.86 40.911862 
L 24.092 39.800181 
L 26.324 38.573544 
L 28.556 37.284724 
L 30.788 35.994265 
L 33.02 34.766986 
L 35.252 33.667767 
L 37.484 32.757497 
L 39.716 32.090034 
L 41.948 31.710619 
L 44.18 31.65563 
L 46.412 31.953282 
L 48.644 32.624786 
L 50.876 33.685613 
L 53.108 35.146646 
L 55.34 37.015124 
L 57.572 39.295354 
L 59.804 41.989193 
L 62.036 45.096325 
L 64.268 48.61432 
L 66.5 52.538485 
L 68.732 56.861479 
L 70.964 61.572645 
L 73.196 66.657024 
L 75.428 72.093985 
L 77.66 77.855469 
" style="fill:none;stroke:#482576;stroke-linecap:square;stroke-opacity:0.5;stroke-width:1.5;"/>
   </g>
   <g id="line2d_5">
    <path clip-path="url(#p6843362981)" d="M 10.7 43.628063 
L 12.932 43.629308 
L 15.164 43.610513 
L 17.396 43.529954 
L 19.628 43.353739 
L 21.86 43.057749 
L 24.092 42.62886 
L 26.324 42.065548 
L 28.556 41.377994 
L 30.788 40.587808 
L 33.02 39.727413 
L 35.252 38.839089 
L 37.484 37.973656 
L 39.716 37.188735 
L 41.948 36.546607 
L 44.18 36.111721 
L 46.412 35.947987 
L 48.644 36.116079 
L 50.876 36.670951 
L 53.108 37.659741 
L 55.34 39.120162 
L 57.572 41.079328 
L 59.804 43.552942 
L 62.036 46.544698 
L 64.268 50.045802 
L 66.5 54.03457 
L 68.732 58.47618 
L 70.964 63.32275 
L 73.196 68.514052 
L 75.428 73.979157 
" style="fill:none;stroke:#472e7c;stroke-linecap:square;stroke-opacity:0.5;stroke-width:1.5;"/>
   </g>
   <g id="line2d_6">
    <path clip-path="url(#p6843362981)" d="M 10.7 43.628063 
L 12.932 43.527309 
L 15.164 43.204564 
L 17.396 42.62702 
L 19.628 41.779072 
L 21.86 40.66369 
L 24.092 39.302992 
L 26.324 37.738054 
L 28.556 36.02777 
L 30.788 34.246495 
L 33.02 32.480248 
L 35.252 30.821589 
L 37.484 29.363765 
L 39.716 28.195094 
L 41.948 27.394512 
L 44.18 27.028822 
L 46.412 27.151595 
L 48.644 27.803287 
L 50.876 29.012005 
L 53.108 30.794419 
L 55.34 33.156489 
L 57.572 36.093815 
L 59.804 39.591521 
L 62.036 43.623654 
L 64.268 48.152176 
L 66.5 53.12574 
L 68.732 58.478636 
L 70.964 64.130515 
L 73.196 69.987646 
" style="fill:none;stroke:#453781;stroke-linecap:square;stroke-opacity:0.5;stroke-width:1.5;"/>
   </g>
   <g id="line2d_7">
    <path clip-path="url(#p6843362981)" d="M 10.7 43.628063 
L 12.932 43.649574 
L 15.164 43.684553 
L 17.396 43.676297 
L 19.628 43.574972 
L 21.86 43.341422 
L 24.092 42.950168 
L 26.324 42.391508 
L 28.556 41.672698 
L 30.788 40.818264 
L 33.02 39.869406 
L 35.252 38.88245 
L 37.484 37.926279 
L 39.716 37.078771 
L 41.948 36.422437 
L 44.18 36.039646 
L 46.412 36.007973 
L 48.644 36.396161 
L 50.876 37.261043 
L 53.108 38.645489 
L 55.34 40.577198 
L 57.572 43.068028 
L 59.804 46.113581 
L 62.036 49.692859 
L 64.268 53.767999 
L 66.5 58.284306 
L 68.732 63.171004 
L 70.964 68.343175 
" style="fill:none;stroke:#423f85;stroke-linecap:square;stroke-opacity:0.5;stroke-width:1.5;"/>
   </g>
   <g id="line2d_8">
    <path clip-path="url(#p6843362981)" d="M 10.7 43.628063 
L 12.932 43.594255 
L 15.164 43.466647 
L 17.396 43.198523 
L 19.628 42.756073 
L 21.86 42.121097 
L 24.092 41.292685 
L 26.324 40.287922 
L 28.556 39.141646 
L 30.788 37.90521 
L 33.02 36.644151 
L 35.252 35.434724 
L 37.484 34.359477 
L 39.716 33.502289 
L 41.948 32.943502 
L 44.18 32.755772 
L 46.412 33.001033 
L 48.644 33.728654 
L 50.876 34.974567 
L 53.108 36.761026 
L 55.34 39.096631 
L 57.572 41.976358 
L 59.804 45.381467 
L 62.036 49.279292 
L 64.268 53.623074 
L 66.5 58.352167 
L 68.732 63.393008 
L 70.964 68.661248 
" style="fill:none;stroke:#423f85;stroke-linecap:square;stroke-opacity:0.5;stroke-width:1.5;"/>
   </g>
   <g id="line2d_9">
    <path clip-path="url(#p6843362981)" d="M 10.7 43.628063 
L 12.932 43.514232 
L 15.164 43.149679 
L 17.396 42.49921 
L 19.628 41.550246 
L 21.86 40.313903 
L 24.092 38.825159 
L 26.324 37.142172 
L 28.556 35.344399 
L 30.788 33.528976 
L 33.02 31.805001 
L 35.252 30.286054 
L 37.484 29.082098 
L 39.716 28.292302 
L 41.948 27.999982 
L 44.18 28.269963 
L 46.412 29.147847 
L 48.644 30.660362 
L 50.876 32.815996 
L 53.108 35.605421 
L 55.34 39.001507 
L 57.572 42.959027 
L 59.804 47.414462 
L 62.036 52.286632 
L 64.268 57.479035 
L 66.5 62.884515 
" style="fill:none;stroke:#3c4f8a;stroke-linecap:square;stroke-opacity:0.5;stroke-width:1.5;"/>
   </g>
   <g id="line2d_10">
    <path clip-path="url(#p6843362981)" d="M 10.7 43.628063 
L 12.932 43.565753 
L 15.164 43.354385 
L 17.396 42.952858 
L 19.628 42.336983 
L 21.86 41.501684 
L 24.092 40.46217 
L 26.324 39.254078 
L 28.556 37.932426 
L 30.788 36.569143 
L 33.02 35.249012 
L 35.252 34.064267 
L 37.484 33.108443 
L 39.716 32.470442 
L 41.948 32.229615 
L 44.18 32.45233 
L 46.412 33.189983 
L 48.644 34.478114 
L 50.876 36.336158 
L 53.108 38.767442 
L 55.34 41.759173 
L 57.572 45.282388 
L 59.804 49.291998 
L 62.036 53.727283 
L 64.268 58.513295 
L 66.5 63.563563 
" style="fill:none;stroke:#3c4f8a;stroke-linecap:square;stroke-opacity:0.5;stroke-width:1.5;"/>
   </g>
   <g id="line2d_11">
    <path clip-path="url(#p6843362981)" d="M 10.7 43.628063 
L 12.932 43.615218 
L 15.164 43.570496 
L 17.396 43.483415 
L 19.628 43.34778 
L 21.86 43.16273 
L 24.092 42.933768 
L 26.324 42.673654 
L 28.556 42.402965 
L 30.788 42.150155 
L 33.02 41.950913 
L 35.252 41.84674 
L 37.484 41.882819 
L 39.716 42.105426 
L 41.948 42.559283 
L 44.18 43.285262 
L 46.412 44.318695 
L 48.644 45.688369 
L 50.876 47.416081 
L 53.108 49.516587 
L 55.34 51.997744 
L 57.572 54.860696 
" style="fill:none;stroke:#2f6c8e;stroke-linecap:square;stroke-opacity:0.5;stroke-width:1.5;"/>
   </g>
   <g id="line2d_12">
    <path clip-path="url(#p6843362981)" d="M 10.7 43.628063 
L 12.932 43.638966 
L 15.164 43.656148 
L 17.396 43.650338 
L 19.628 43.597104 
L 21.86 43.47947 
L 24.092 43.290497 
L 26.324 43.035527 
L 28.556 42.733753 
L 30.788 42.41871 
L 33.02 42.137342 
L 35.252 41.9474 
L 37.484 41.913321 
L 39.716 42.10117 
L 41.948 42.573553 
L 44.18 43.385382 
L 46.412 44.580977 
L 48.644 46.192493 
L 50.876 48.239346 
L 53.108 50.728226 
" style="fill:none;stroke:#29798e;stroke-linecap:square;stroke-opacity:0.5;stroke-width:1.5;"/>
   </g>
   <g id="line2d_13">
    <path clip-path="url(#p6843362981)" d="M 10.7 43.628063 
L 12.932 43.51046 
L 15.164 43.136096 
L 17.396 42.47075 
L 19.628 41.49929 
L 21.86 40.227656 
L 24.092 38.683514 
L 26.324 36.915445 
L 28.556 34.990471 
L 30.788 32.989888 
L 33.02 31.003738 
L 35.252 29.124722 
L 37.484 27.44255 
L 39.716 26.039592 
L 41.948 24.988182 
L 44.18 24.349471 
" style="fill:none;stroke:#20938c;stroke-linecap:square;stroke-opacity:0.5;stroke-width:1.5;"/>
   </g>
   <g id="line2d_14">
    <path clip-path="url(#p6843362981)" d="M 10.7 43.628063 
L 12.932 43.654487 
L 15.164 43.727316 
L 17.396 43.834098 
L 19.628 43.96364 
L 21.86 44.106913 
L 24.092 44.258084 
L 26.324 44.415575 
L 28.556 44.58303 
L 30.788 44.770046 
L 33.02 44.992514 
L 35.252 45.272448 
L 37.484 45.637208 
L 39.716 46.118144 
L 41.948 46.748786 
L 44.18 47.562839 
" style="fill:none;stroke:#20938c;stroke-linecap:square;stroke-opacity:0.5;stroke-width:1.5;"/>
   </g>
   <g id="line2d_15">
    <path clip-path="url(#p6843362981)" d="M 10.7 43.628063 
L 12.932 43.438605 
L 15.164 42.857819 
L 17.396 41.873327 
L 19.628 40.498979 
L 21.86 38.776582 
L 24.092 36.775195 
L 26.324 34.587101 
L 28.556 32.32014 
L 30.788 30.087462 
L 33.02 27.997306 
L 35.252 26.145505 
L 37.484 24.611987 
" style="fill:none;stroke:#22a785;stroke-linecap:square;stroke-opacity:0.5;stroke-width:1.5;"/>
   </g>
   <g id="line2d_16">
    <path clip-path="url(#p6843362981)" d="M 10.7 43.628063 
L 12.932 43.45254 
L 15.164 42.924033 
L 17.396 42.044498 
L 19.628 40.828084 
L 21.86 39.301908 
L 24.092 37.506008 
L 26.324 35.492026 
L 28.556 33.320252 
L 30.788 31.05515 
L 33.02 28.760112 
L 35.252 26.492676 
" style="fill:none;stroke:#27ad81;stroke-linecap:square;stroke-opacity:0.5;stroke-width:1.5;"/>
   </g>
   <g id="line2d_17">
    <path clip-path="url(#p6843362981)" d="M 10.7 43.628063 
L 12.932 43.431823 
L 15.164 42.835068 
L 17.396 41.831502 
L 19.628 40.435361 
L 21.86 38.682795 
L 24.092 36.631783 
L 26.324 34.359743 
L 28.556 31.958241 
L 30.788 29.525111 
L 33.02 27.155656 
L 35.252 24.935303 
" style="fill:none;stroke:#27ad81;stroke-linecap:square;stroke-opacity:0.5;stroke-width:1.5;"/>
   </g>
   <g id="line2d_18">
    <path clip-path="url(#p6843362981)" d="M 10.7 43.628063 
L 12.932 43.415823 
L 15.164 42.77976 
L 17.396 41.728831 
L 19.628 40.287499 
L 21.86 38.495763 
L 24.092 36.40808 
L 26.324 34.090646 
L 28.556 31.616808 
L 30.788 29.061179 
L 33.02 26.493826 
" style="fill:none;stroke:#2fb47c;stroke-linecap:square;stroke-opacity:0.5;stroke-width:1.5;"/>
   </g>
   <g id="line2d_19">
    <path clip-path="url(#p6843362981)" d="M 10.7 43.628063 
L 12.932 43.395374 
L 15.164 42.689818 
L 17.396 41.507276 
L 19.628 39.866328 
L 21.86 37.809583 
L 24.092 35.403081 
L 26.324 32.732547 
L 28.556 29.895838 
L 30.788 26.992649 
" style="fill:none;stroke:#3aba76;stroke-linecap:square;stroke-opacity:0.5;stroke-width:1.5;"/>
   </g>
   <g id="line2d_20">
    <path clip-path="url(#p6843362981)" d="M 10.7 43.628063 
L 12.932 43.334807 
L 15.164 42.45682 
L 17.396 41.010601 
L 19.628 39.038489 
L 21.86 36.607246 
L 24.092 33.80356 
L 26.324 30.726203 
L 28.556 27.47608 
" style="fill:none;stroke:#46c06f;stroke-linecap:square;stroke-opacity:0.5;stroke-width:1.5;"/>
   </g>
   <g id="line2d_21">
    <path clip-path="url(#p6843362981)" d="M 10.7 43.628063 
L 12.932 43.318574 
L 15.164 42.372666 
L 17.396 40.776476 
L 19.628 38.558631 
L 21.86 35.789108 
L 24.092 32.573617 
L 26.324 29.043207 
" style="fill:none;stroke:#54c568;stroke-linecap:square;stroke-opacity:0.5;stroke-width:1.5;"/>
   </g>
   <g id="line2d_22">
    <path clip-path="url(#p6843362981)" d="M 10.7 43.628063 
L 12.932 43.321103 
L 15.164 42.399999 
L 17.396 40.876267 
L 19.628 38.785412 
L 21.86 36.185945 
L 24.092 33.155648 
L 26.324 29.784745 
" style="fill:none;stroke:#54c568;stroke-linecap:square;stroke-opacity:0.5;stroke-width:1.5;"/>
   </g>
   <g id="line2d_23">
    <path clip-path="url(#p6843362981)" d="M 10.7 43.628063 
L 12.932 43.324365 
L 15.164 42.401555 
L 17.396 40.8549 
L 19.628 38.717169 
L 21.86 36.05831 
L 24.092 32.983194 
L 26.324 29.625654 
" style="fill:none;stroke:#54c568;stroke-linecap:square;stroke-opacity:0.5;stroke-width:1.5;"/>
   </g>
   <g id="line2d_24">
    <path clip-path="url(#p6843362981)" d="M 10.7 43.628063 
L 12.932 43.30925 
L 15.164 42.342941 
L 17.396 40.726993 
L 19.628 38.494575 
L 21.86 35.713754 
L 24.092 32.485112 
L 26.324 28.936033 
" style="fill:none;stroke:#54c568;stroke-linecap:square;stroke-opacity:0.5;stroke-width:1.5;"/>
   </g>
   <g id="line2d_25">
    <path clip-path="url(#p6843362981)" d="M 10.7 43.628063 
L 12.932 43.749059 
L 15.164 44.084147 
L 17.396 44.575437 
L 19.628 45.162949 
L 21.86 45.788725 
L 24.092 46.400465 
L 26.324 46.954295 
" style="fill:none;stroke:#54c568;stroke-linecap:square;stroke-opacity:0.5;stroke-width:1.5;"/>
   </g>
   <g id="line2d_26">
    <path clip-path="url(#p6843362981)" d="M 10.7 43.628063 
L 12.932 43.7328 
L 15.164 44.03803 
L 17.396 44.52453 
L 19.628 45.171029 
L 21.86 45.955345 
L 24.092 46.855831 
" style="fill:none;stroke:#63cb5f;stroke-linecap:square;stroke-opacity:0.5;stroke-width:1.5;"/>
   </g>
   <g id="line2d_27">
    <path clip-path="url(#p6843362981)" d="M 10.7 43.628063 
L 12.932 43.275693 
L 15.164 42.212607 
L 17.396 40.438747 
L 19.628 37.977774 
L 21.86 34.876293 
L 24.092 31.201329 
" style="fill:none;stroke:#63cb5f;stroke-linecap:square;stroke-opacity:0.5;stroke-width:1.5;"/>
   </g>
   <g id="line2d_28">
    <path clip-path="url(#p6843362981)" d="M 10.7 43.628063 
L 12.932 43.827159 
L 15.164 44.387138 
L 17.396 45.228391 
L 19.628 46.265012 
L 21.86 47.411928 
" style="fill:none;stroke:#73d056;stroke-linecap:square;stroke-opacity:0.5;stroke-width:1.5;"/>
   </g>
   <g id="line2d_29">
    <path clip-path="url(#p6843362981)" d="M 10.7 43.628063 
L 12.932 43.184286 
L 15.164 41.854796 
L 17.396 39.657589 
L 19.628 36.639564 
L 21.86 32.87503 
" style="fill:none;stroke:#73d056;stroke-linecap:square;stroke-opacity:0.5;stroke-width:1.5;"/>
   </g>
   <g id="line2d_30">
    <path clip-path="url(#p6843362981)" d="M 10.7 43.628063 
L 12.932 43.199638 
L 15.164 41.909784 
L 17.396 39.772588 
L 19.628 36.848174 
L 21.86 33.240191 
" style="fill:none;stroke:#73d056;stroke-linecap:square;stroke-opacity:0.5;stroke-width:1.5;"/>
   </g>
   <g id="line2d_31">
    <path clip-path="url(#p6843362981)" d="M 10.7 43.628063 
L 12.932 43.875206 
L 15.164 44.57009 
L 17.396 45.611641 
L 19.628 46.88842 
L 21.86 48.289552 
" style="fill:none;stroke:#73d056;stroke-linecap:square;stroke-opacity:0.5;stroke-width:1.5;"/>
   </g>
   <g id="line2d_32">
    <path clip-path="url(#p6843362981)" d="M 10.7 43.628063 
L 12.932 43.873289 
L 15.164 44.568216 
L 17.396 45.623641 
L 19.628 46.939423 
L 21.86 48.413484 
" style="fill:none;stroke:#73d056;stroke-linecap:square;stroke-opacity:0.5;stroke-width:1.5;"/>
   </g>
   <g id="line2d_33">
    <path clip-path="url(#p6843362981)" d="M 10.7 43.628063 
L 12.932 43.114564 
L 15.164 41.577159 
L 17.396 39.034428 
L 19.628 35.53032 
L 21.86 31.133854 
" style="fill:none;stroke:#73d056;stroke-linecap:square;stroke-opacity:0.5;stroke-width:1.5;"/>
   </g>
   <g id="line2d_34">
    <path clip-path="url(#p6843362981)" d="M 10.7 43.628063 
L 12.932 43.832488 
L 15.164 44.407879 
L 17.396 45.272532 
L 19.628 46.337033 
L 21.86 47.512589 
" style="fill:none;stroke:#73d056;stroke-linecap:square;stroke-opacity:0.5;stroke-width:1.5;"/>
   </g>
   <g id="line2d_35">
    <path clip-path="url(#p6843362981)" d="M 10.7 43.628063 
L 12.932 42.996656 
L 15.164 41.10615 
L 17.396 37.998802 
L 19.628 33.785554 
" style="fill:none;stroke:#84d44b;stroke-linecap:square;stroke-opacity:0.5;stroke-width:1.5;"/>
   </g>
   <g id="line2d_36">
    <path clip-path="url(#p6843362981)" d="M 10.7 43.628063 
L 12.932 43.88253 
L 15.164 44.609411 
L 17.396 45.726092 
L 19.628 47.133855 
" style="fill:none;stroke:#84d44b;stroke-linecap:square;stroke-opacity:0.5;stroke-width:1.5;"/>
   </g>
   <g id="line2d_37">
    <path clip-path="url(#p6843362981)" d="M 10.7 43.628063 
L 12.932 43.044328 
L 15.164 41.297468 
L 17.396 38.426605 
L 19.628 34.530999 
" style="fill:none;stroke:#84d44b;stroke-linecap:square;stroke-opacity:0.5;stroke-width:1.5;"/>
   </g>
   <g id="line2d_38">
    <path clip-path="url(#p6843362981)" d="M 10.7 43.628063 
L 12.932 43.953925 
L 15.164 44.889417 
L 17.396 46.338333 
L 19.628 48.185105 
" style="fill:none;stroke:#84d44b;stroke-linecap:square;stroke-opacity:0.5;stroke-width:1.5;"/>
   </g>
   <g id="line2d_39">
    <path clip-path="url(#p6843362981)" d="M 10.7 43.628063 
L 12.932 43.967942 
L 15.164 44.956368 
L 17.396 46.52088 
L 19.628 48.572264 
" style="fill:none;stroke:#84d44b;stroke-linecap:square;stroke-opacity:0.5;stroke-width:1.5;"/>
   </g>
   <g id="line2d_40">
    <path clip-path="url(#p6843362981)" d="M 10.7 43.628063 
L 12.932 43.885669 
L 15.164 44.615491 
L 17.396 45.723726 
L 19.628 47.105747 
" style="fill:none;stroke:#84d44b;stroke-linecap:square;stroke-opacity:0.5;stroke-width:1.5;"/>
   </g>
   <g id="line2d_41">
    <path clip-path="url(#p6843362981)" d="M 10.7 43.628063 
L 12.932 42.925076 
L 15.164 40.827639 
L 17.396 37.387822 
L 19.628 32.713607 
" style="fill:none;stroke:#84d44b;stroke-linecap:square;stroke-opacity:0.5;stroke-width:1.5;"/>
   </g>
   <g id="line2d_42">
    <path clip-path="url(#p6843362981)" d="M 10.7 43.628063 
L 12.932 43.986564 
L 15.164 45.013092 
L 17.396 46.596139 
L 19.628 48.60416 
" style="fill:none;stroke:#84d44b;stroke-linecap:square;stroke-opacity:0.5;stroke-width:1.5;"/>
   </g>
   <g id="line2d_43">
    <path clip-path="url(#p6843362981)" d="M 10.7 43.628063 
L 12.932 43.075333 
L 15.164 41.413775 
L 17.396 38.658359 
L 19.628 34.866913 
" style="fill:none;stroke:#84d44b;stroke-linecap:square;stroke-opacity:0.5;stroke-width:1.5;"/>
   </g>
   <g id="line2d_44">
    <path clip-path="url(#p6843362981)" d="M 10.7 43.628063 
L 12.932 43.849843 
L 15.164 44.503834 
L 17.396 45.562326 
L 19.628 46.987518 
" style="fill:none;stroke:#84d44b;stroke-linecap:square;stroke-opacity:0.5;stroke-width:1.5;"/>
   </g>
   <g id="line2d_45">
    <path clip-path="url(#p6843362981)" d="M 10.7 43.628063 
L 12.932 43.029051 
L 15.164 41.241543 
L 17.396 38.30845 
L 19.628 34.319207 
" style="fill:none;stroke:#84d44b;stroke-linecap:square;stroke-opacity:0.5;stroke-width:1.5;"/>
   </g>
   <g id="line2d_46">
    <path clip-path="url(#p6843362981)" d="M 10.7 43.628063 
L 12.932 43.973565 
L 15.164 44.967558 
L 17.396 46.512699 
L 19.628 48.491947 
" style="fill:none;stroke:#84d44b;stroke-linecap:square;stroke-opacity:0.5;stroke-width:1.5;"/>
   </g>
   <g id="line2d_47">
    <path clip-path="url(#p6843362981)" d="M 10.7 43.628063 
L 12.932 44.171595 
L 15.164 45.757381 
L 17.396 48.276035 
" style="fill:none;stroke:#95d840;stroke-linecap:square;stroke-opacity:0.5;stroke-width:1.5;"/>
   </g>
   <g id="line2d_48">
    <path clip-path="url(#p6843362981)" d="M 10.7 43.628063 
L 12.932 44.046817 
L 15.164 45.274165 
L 17.396 47.234716 
" style="fill:none;stroke:#95d840;stroke-linecap:square;stroke-opacity:0.5;stroke-width:1.5;"/>
   </g>
   <g id="line2d_49">
    <path clip-path="url(#p6843362981)" d="M 10.7 43.628063 
L 12.932 43.991681 
L 15.164 45.057414 
L 17.396 46.762424 
" style="fill:none;stroke:#95d840;stroke-linecap:square;stroke-opacity:0.5;stroke-width:1.5;"/>
   </g>
   <g id="line2d_50">
    <path clip-path="url(#p6843362981)" d="M 10.7 43.628063 
L 12.932 42.656448 
L 15.164 39.760594 
L 17.396 35.004897 
" style="fill:none;stroke:#95d840;stroke-linecap:square;stroke-opacity:0.5;stroke-width:1.5;"/>
   </g>
   <g id="patch_3">
    <path d="M 10.7 239.758125 
L 10.7 22.318125 
" style="fill:none;stroke:#000000;stroke-linecap:square;stroke-linejoin:miter;stroke-width:0.8;"/>
   </g>
   <g id="patch_4">
    <path d="M 903.5 239.758125 
L 903.5 22.318125 
" style="fill:none;stroke:#000000;stroke-linecap:square;stroke-linejoin:miter;stroke-width:0.8;"/>
   </g>
   <g id="patch_5">
    <path d="M 10.7 239.758125 
L 903.5 239.758125 
" style="fill:none;stroke:#000000;stroke-linecap:square;stroke-linejoin:miter;stroke-width:0.8;"/>
   </g>
   <g id="patch_6">
    <path d="M 10.7 22.318125 
L 903.5 22.318125 
" style="fill:none;stroke:#000000;stroke-linecap:square;stroke-linejoin:miter;stroke-width:0.8;"/>
   </g>
   <g id="text_1">
    <!-- Epoch 30 -->
    <defs>
     <path d="M 9.8125 72.90625 
L 55.90625 72.90625 
L 55.90625 64.59375 
L 19.671875 64.59375 
L 19.671875 43.015625 
L 54.390625 43.015625 
L 54.390625 34.71875 
L 19.671875 34.71875 
L 19.671875 8.296875 
L 56.78125 8.296875 
L 56.78125 0 
L 9.8125 0 
z
" id="DejaVuSans-69"/>
     <path d="M 18.109375 8.203125 
L 18.109375 -20.796875 
L 9.078125 -20.796875 
L 9.078125 54.6875 
L 18.109375 54.6875 
L 18.109375 46.390625 
Q 20.953125 51.265625 25.265625 53.625 
Q 29.59375 56 35.59375 56 
Q 45.5625 56 51.78125 48.09375 
Q 58.015625 40.1875 58.015625 27.296875 
Q 58.015625 14.40625 51.78125 6.484375 
Q 45.5625 -1.421875 35.59375 -1.421875 
Q 29.59375 -1.421875 25.265625 0.953125 
Q 20.953125 3.328125 18.109375 8.203125 
z
M 48.6875 27.296875 
Q 48.6875 37.203125 44.609375 42.84375 
Q 40.53125 48.484375 33.40625 48.484375 
Q 26.265625 48.484375 22.1875 42.84375 
Q 18.109375 37.203125 18.109375 27.296875 
Q 18.109375 17.390625 22.1875 11.75 
Q 26.265625 6.109375 33.40625 6.109375 
Q 40.53125 6.109375 44.609375 11.75 
Q 48.6875 17.390625 48.6875 27.296875 
z
" id="DejaVuSans-112"/>
     <path d="M 30.609375 48.390625 
Q 23.390625 48.390625 19.1875 42.75 
Q 14.984375 37.109375 14.984375 27.296875 
Q 14.984375 17.484375 19.15625 11.84375 
Q 23.34375 6.203125 30.609375 6.203125 
Q 37.796875 6.203125 41.984375 11.859375 
Q 46.1875 17.53125 46.1875 27.296875 
Q 46.1875 37.015625 41.984375 42.703125 
Q 37.796875 48.390625 30.609375 48.390625 
z
M 30.609375 56 
Q 42.328125 56 49.015625 48.375 
Q 55.71875 40.765625 55.71875 27.296875 
Q 55.71875 13.875 49.015625 6.21875 
Q 42.328125 -1.421875 30.609375 -1.421875 
Q 18.84375 -1.421875 12.171875 6.21875 
Q 5.515625 13.875 5.515625 27.296875 
Q 5.515625 40.765625 12.171875 48.375 
Q 18.84375 56 30.609375 56 
z
" id="DejaVuSans-111"/>
     <path d="M 48.78125 52.59375 
L 48.78125 44.1875 
Q 44.96875 46.296875 41.140625 47.34375 
Q 37.3125 48.390625 33.40625 48.390625 
Q 24.65625 48.390625 19.8125 42.84375 
Q 14.984375 37.3125 14.984375 27.296875 
Q 14.984375 17.28125 19.8125 11.734375 
Q 24.65625 6.203125 33.40625 6.203125 
Q 37.3125 6.203125 41.140625 7.25 
Q 44.96875 8.296875 48.78125 10.40625 
L 48.78125 2.09375 
Q 45.015625 0.34375 40.984375 -0.53125 
Q 36.96875 -1.421875 32.421875 -1.421875 
Q 20.0625 -1.421875 12.78125 6.34375 
Q 5.515625 14.109375 5.515625 27.296875 
Q 5.515625 40.671875 12.859375 48.328125 
Q 20.21875 56 33.015625 56 
Q 37.15625 56 41.109375 55.140625 
Q 45.0625 54.296875 48.78125 52.59375 
z
" id="DejaVuSans-99"/>
     <path d="M 54.890625 33.015625 
L 54.890625 0 
L 45.90625 0 
L 45.90625 32.71875 
Q 45.90625 40.484375 42.875 44.328125 
Q 39.84375 48.1875 33.796875 48.1875 
Q 26.515625 48.1875 22.3125 43.546875 
Q 18.109375 38.921875 18.109375 30.90625 
L 18.109375 0 
L 9.078125 0 
L 9.078125 75.984375 
L 18.109375 75.984375 
L 18.109375 46.1875 
Q 21.34375 51.125 25.703125 53.5625 
Q 30.078125 56 35.796875 56 
Q 45.21875 56 50.046875 50.171875 
Q 54.890625 44.34375 54.890625 33.015625 
z
" id="DejaVuSans-104"/>
     <path id="DejaVuSans-32"/>
     <path d="M 40.578125 39.3125 
Q 47.65625 37.796875 51.625 33 
Q 55.609375 28.21875 55.609375 21.1875 
Q 55.609375 10.40625 48.1875 4.484375 
Q 40.765625 -1.421875 27.09375 -1.421875 
Q 22.515625 -1.421875 17.65625 -0.515625 
Q 12.796875 0.390625 7.625 2.203125 
L 7.625 11.71875 
Q 11.71875 9.328125 16.59375 8.109375 
Q 21.484375 6.890625 26.8125 6.890625 
Q 36.078125 6.890625 40.9375 10.546875 
Q 45.796875 14.203125 45.796875 21.1875 
Q 45.796875 27.640625 41.28125 31.265625 
Q 36.765625 34.90625 28.71875 34.90625 
L 20.21875 34.90625 
L 20.21875 43.015625 
L 29.109375 43.015625 
Q 36.375 43.015625 40.234375 45.921875 
Q 44.09375 48.828125 44.09375 54.296875 
Q 44.09375 59.90625 40.109375 62.90625 
Q 36.140625 65.921875 28.71875 65.921875 
Q 24.65625 65.921875 20.015625 65.03125 
Q 15.375 64.15625 9.8125 62.3125 
L 9.8125 71.09375 
Q 15.4375 72.65625 20.34375 73.4375 
Q 25.25 74.21875 29.59375 74.21875 
Q 40.828125 74.21875 47.359375 69.109375 
Q 53.90625 64.015625 53.90625 55.328125 
Q 53.90625 49.265625 50.4375 45.09375 
Q 46.96875 40.921875 40.578125 39.3125 
z
" id="DejaVuSans-51"/>
     <path d="M 31.78125 66.40625 
Q 24.171875 66.40625 20.328125 58.90625 
Q 16.5 51.421875 16.5 36.375 
Q 16.5 21.390625 20.328125 13.890625 
Q 24.171875 6.390625 31.78125 6.390625 
Q 39.453125 6.390625 43.28125 13.890625 
Q 47.125 21.390625 47.125 36.375 
Q 47.125 51.421875 43.28125 58.90625 
Q 39.453125 66.40625 31.78125 66.40625 
z
M 31.78125 74.21875 
Q 44.046875 74.21875 50.515625 64.515625 
Q 56.984375 54.828125 56.984375 36.375 
Q 56.984375 17.96875 50.515625 8.265625 
Q 44.046875 -1.421875 31.78125 -1.421875 
Q 19.53125 -1.421875 13.0625 8.265625 
Q 6.59375 17.96875 6.59375 36.375 
Q 6.59375 54.828125 13.0625 64.515625 
Q 19.53125 74.21875 31.78125 74.21875 
z
" id="DejaVuSans-48"/>
    </defs>
    <g transform="translate(429.185 16.318125)scale(0.12 -0.12)">
     <use xlink:href="#DejaVuSans-69"/>
     <use x="63.183594" xlink:href="#DejaVuSans-112"/>
     <use x="126.660156" xlink:href="#DejaVuSans-111"/>
     <use x="187.841797" xlink:href="#DejaVuSans-99"/>
     <use x="242.822266" xlink:href="#DejaVuSans-104"/>
     <use x="306.201172" xlink:href="#DejaVuSans-32"/>
     <use x="337.988281" xlink:href="#DejaVuSans-51"/>
     <use x="401.611328" xlink:href="#DejaVuSans-48"/>
    </g>
   </g>
  </g>
 </g>
 <defs>
  <clipPath id="p6843362981">
   <rect height="217.44" width="892.8" x="10.7" y="22.318125"/>
  </clipPath>
 </defs>
</svg>
